%TF.GenerationSoftware,KiCad,Pcbnew,7.0.7*%
%TF.CreationDate,2024-03-20T19:05:46+01:00*%
%TF.ProjectId,DriverRGB_v2,44726976-6572-4524-9742-5f76322e6b69,v02*%
%TF.SameCoordinates,Original*%
%TF.FileFunction,Paste,Bot*%
%TF.FilePolarity,Positive*%
%FSLAX46Y46*%
G04 Gerber Fmt 4.6, Leading zero omitted, Abs format (unit mm)*
G04 Created by KiCad (PCBNEW 7.0.7) date 2024-03-20 19:05:46*
%MOMM*%
%LPD*%
G01*
G04 APERTURE LIST*
G04 Aperture macros list*
%AMRoundRect*
0 Rectangle with rounded corners*
0 $1 Rounding radius*
0 $2 $3 $4 $5 $6 $7 $8 $9 X,Y pos of 4 corners*
0 Add a 4 corners polygon primitive as box body*
4,1,4,$2,$3,$4,$5,$6,$7,$8,$9,$2,$3,0*
0 Add four circle primitives for the rounded corners*
1,1,$1+$1,$2,$3*
1,1,$1+$1,$4,$5*
1,1,$1+$1,$6,$7*
1,1,$1+$1,$8,$9*
0 Add four rect primitives between the rounded corners*
20,1,$1+$1,$2,$3,$4,$5,0*
20,1,$1+$1,$4,$5,$6,$7,0*
20,1,$1+$1,$6,$7,$8,$9,0*
20,1,$1+$1,$8,$9,$2,$3,0*%
G04 Aperture macros list end*
%ADD10C,0.010000*%
%ADD11R,1.700000X0.900000*%
%ADD12RoundRect,0.225000X0.250000X-0.225000X0.250000X0.225000X-0.250000X0.225000X-0.250000X-0.225000X0*%
%ADD13RoundRect,0.200000X-0.275000X0.200000X-0.275000X-0.200000X0.275000X-0.200000X0.275000X0.200000X0*%
%ADD14RoundRect,0.225000X-0.250000X0.225000X-0.250000X-0.225000X0.250000X-0.225000X0.250000X0.225000X0*%
%ADD15R,2.400000X0.760000*%
%ADD16R,1.350000X2.350000*%
%ADD17R,1.100000X2.200000*%
%ADD18RoundRect,0.250000X-0.350000X0.850000X-0.350000X-0.850000X0.350000X-0.850000X0.350000X0.850000X0*%
%ADD19RoundRect,0.250000X-1.125000X1.275000X-1.125000X-1.275000X1.125000X-1.275000X1.125000X1.275000X0*%
G04 APERTURE END LIST*
%TO.C,U1*%
D10*
X146427930Y-105657330D02*
X144404072Y-105657330D01*
X144404072Y-103633472D01*
X146427930Y-103633472D01*
X146427930Y-105657330D01*
G36*
X146427930Y-105657330D02*
G01*
X144404072Y-105657330D01*
X144404072Y-103633472D01*
X146427930Y-103633472D01*
X146427930Y-105657330D01*
G37*
%TD*%
D11*
%TO.C,S1*%
X140208000Y-114735400D03*
X140208000Y-118135400D03*
%TD*%
D12*
%TO.C,C4*%
X140970000Y-92113400D03*
X140970000Y-90563400D03*
%TD*%
D13*
%TO.C,R7*%
X142748000Y-116435400D03*
X142748000Y-118085400D03*
%TD*%
D14*
%TO.C,C1*%
X137795000Y-116471400D03*
X137795000Y-118021400D03*
%TD*%
D15*
%TO.C,J3*%
X144989000Y-115419400D03*
X148889000Y-115419400D03*
X144989000Y-116689400D03*
X148889000Y-116689400D03*
X144989000Y-117959400D03*
X148889000Y-117959400D03*
%TD*%
D16*
%TO.C,D1*%
X153914000Y-82924400D03*
X159014000Y-82924400D03*
X159014000Y-91624400D03*
X153914000Y-91624400D03*
%TD*%
D17*
%TO.C,U1*%
X140716000Y-96545400D03*
X142716000Y-96545400D03*
X144716000Y-96545400D03*
X146716000Y-96545400D03*
X148716000Y-96545400D03*
X150716000Y-96545400D03*
X152716000Y-96545400D03*
X154716000Y-96545400D03*
X154716000Y-112345400D03*
X152716000Y-112345400D03*
X150716000Y-112345400D03*
X148716000Y-112345400D03*
X146716000Y-112345400D03*
X144716000Y-112345400D03*
X142716000Y-112345400D03*
X140716000Y-112345400D03*
%TD*%
D18*
%TO.C,U3*%
X133997000Y-83030400D03*
D19*
X137802000Y-87655400D03*
X134752000Y-87655400D03*
X137802000Y-91005400D03*
X134752000Y-91005400D03*
D18*
X138557000Y-83030400D03*
%TD*%
D12*
%TO.C,C3*%
X140843000Y-83972400D03*
X140843000Y-82422400D03*
%TD*%
D11*
%TO.C,S2*%
X154051000Y-114735400D03*
X154051000Y-118135400D03*
%TD*%
D12*
%TO.C,C2*%
X151384000Y-118021400D03*
X151384000Y-116471400D03*
%TD*%
M02*
