%TF.GenerationSoftware,KiCad,Pcbnew,7.0.7*%
%TF.CreationDate,2024-06-20T22:52:00+02:00*%
%TF.ProjectId,DriverRGB_v2,44726976-6572-4524-9742-5f76322e6b69,v02*%
%TF.SameCoordinates,Original*%
%TF.FileFunction,Legend,Top*%
%TF.FilePolarity,Positive*%
%FSLAX46Y46*%
G04 Gerber Fmt 4.6, Leading zero omitted, Abs format (unit mm)*
G04 Created by KiCad (PCBNEW 7.0.7) date 2024-06-20 22:52:00*
%MOMM*%
%LPD*%
G01*
G04 APERTURE LIST*
%ADD10C,0.100000*%
%ADD11C,0.150000*%
%ADD12C,0.300000*%
%ADD13C,0.400000*%
%ADD14C,0.200000*%
%ADD15C,0.254000*%
%ADD16C,0.127000*%
%ADD17C,0.120000*%
G04 APERTURE END LIST*
D10*
D11*
X177002200Y-166007200D02*
X285002200Y-166007200D01*
X285002200Y-198007200D01*
X177002200Y-198007200D01*
X177002200Y-166007200D01*
D10*
D11*
X10000000Y-10000000D02*
X287002200Y-10000000D01*
X287002200Y-200007200D01*
X10000000Y-200007200D01*
X10000000Y-10000000D01*
D10*
D11*
X12000000Y-12000000D02*
X285002200Y-12000000D01*
X285002200Y-198007200D01*
X12000000Y-198007200D01*
X12000000Y-12000000D01*
D10*
D11*
X60000000Y-12000000D02*
X60000000Y-10000000D01*
D10*
D11*
X110000000Y-12000000D02*
X110000000Y-10000000D01*
D10*
D11*
X160000000Y-12000000D02*
X160000000Y-10000000D01*
D10*
D11*
X210000000Y-12000000D02*
X210000000Y-10000000D01*
D10*
D11*
X260000000Y-12000000D02*
X260000000Y-10000000D01*
D10*
D11*
X36089160Y-11593604D02*
X35346303Y-11593604D01*
X35717731Y-11593604D02*
X35717731Y-10293604D01*
X35717731Y-10293604D02*
X35593922Y-10479319D01*
X35593922Y-10479319D02*
X35470112Y-10603128D01*
X35470112Y-10603128D02*
X35346303Y-10665033D01*
D10*
D11*
X85346303Y-10417414D02*
X85408207Y-10355509D01*
X85408207Y-10355509D02*
X85532017Y-10293604D01*
X85532017Y-10293604D02*
X85841541Y-10293604D01*
X85841541Y-10293604D02*
X85965350Y-10355509D01*
X85965350Y-10355509D02*
X86027255Y-10417414D01*
X86027255Y-10417414D02*
X86089160Y-10541223D01*
X86089160Y-10541223D02*
X86089160Y-10665033D01*
X86089160Y-10665033D02*
X86027255Y-10850747D01*
X86027255Y-10850747D02*
X85284398Y-11593604D01*
X85284398Y-11593604D02*
X86089160Y-11593604D01*
D10*
D11*
X135284398Y-10293604D02*
X136089160Y-10293604D01*
X136089160Y-10293604D02*
X135655826Y-10788842D01*
X135655826Y-10788842D02*
X135841541Y-10788842D01*
X135841541Y-10788842D02*
X135965350Y-10850747D01*
X135965350Y-10850747D02*
X136027255Y-10912652D01*
X136027255Y-10912652D02*
X136089160Y-11036461D01*
X136089160Y-11036461D02*
X136089160Y-11345985D01*
X136089160Y-11345985D02*
X136027255Y-11469795D01*
X136027255Y-11469795D02*
X135965350Y-11531700D01*
X135965350Y-11531700D02*
X135841541Y-11593604D01*
X135841541Y-11593604D02*
X135470112Y-11593604D01*
X135470112Y-11593604D02*
X135346303Y-11531700D01*
X135346303Y-11531700D02*
X135284398Y-11469795D01*
D10*
D11*
X185965350Y-10726938D02*
X185965350Y-11593604D01*
X185655826Y-10231700D02*
X185346303Y-11160271D01*
X185346303Y-11160271D02*
X186151064Y-11160271D01*
D10*
D11*
X236027255Y-10293604D02*
X235408207Y-10293604D01*
X235408207Y-10293604D02*
X235346303Y-10912652D01*
X235346303Y-10912652D02*
X235408207Y-10850747D01*
X235408207Y-10850747D02*
X235532017Y-10788842D01*
X235532017Y-10788842D02*
X235841541Y-10788842D01*
X235841541Y-10788842D02*
X235965350Y-10850747D01*
X235965350Y-10850747D02*
X236027255Y-10912652D01*
X236027255Y-10912652D02*
X236089160Y-11036461D01*
X236089160Y-11036461D02*
X236089160Y-11345985D01*
X236089160Y-11345985D02*
X236027255Y-11469795D01*
X236027255Y-11469795D02*
X235965350Y-11531700D01*
X235965350Y-11531700D02*
X235841541Y-11593604D01*
X235841541Y-11593604D02*
X235532017Y-11593604D01*
X235532017Y-11593604D02*
X235408207Y-11531700D01*
X235408207Y-11531700D02*
X235346303Y-11469795D01*
D10*
D11*
X285965350Y-10293604D02*
X285717731Y-10293604D01*
X285717731Y-10293604D02*
X285593922Y-10355509D01*
X285593922Y-10355509D02*
X285532017Y-10417414D01*
X285532017Y-10417414D02*
X285408207Y-10603128D01*
X285408207Y-10603128D02*
X285346303Y-10850747D01*
X285346303Y-10850747D02*
X285346303Y-11345985D01*
X285346303Y-11345985D02*
X285408207Y-11469795D01*
X285408207Y-11469795D02*
X285470112Y-11531700D01*
X285470112Y-11531700D02*
X285593922Y-11593604D01*
X285593922Y-11593604D02*
X285841541Y-11593604D01*
X285841541Y-11593604D02*
X285965350Y-11531700D01*
X285965350Y-11531700D02*
X286027255Y-11469795D01*
X286027255Y-11469795D02*
X286089160Y-11345985D01*
X286089160Y-11345985D02*
X286089160Y-11036461D01*
X286089160Y-11036461D02*
X286027255Y-10912652D01*
X286027255Y-10912652D02*
X285965350Y-10850747D01*
X285965350Y-10850747D02*
X285841541Y-10788842D01*
X285841541Y-10788842D02*
X285593922Y-10788842D01*
X285593922Y-10788842D02*
X285470112Y-10850747D01*
X285470112Y-10850747D02*
X285408207Y-10912652D01*
X285408207Y-10912652D02*
X285346303Y-11036461D01*
D10*
D11*
X60000000Y-198007200D02*
X60000000Y-200007200D01*
D10*
D11*
X110000000Y-198007200D02*
X110000000Y-200007200D01*
D10*
D11*
X160000000Y-198007200D02*
X160000000Y-200007200D01*
D10*
D11*
X210000000Y-198007200D02*
X210000000Y-200007200D01*
D10*
D11*
X260000000Y-198007200D02*
X260000000Y-200007200D01*
D10*
D11*
X36089160Y-199600804D02*
X35346303Y-199600804D01*
X35717731Y-199600804D02*
X35717731Y-198300804D01*
X35717731Y-198300804D02*
X35593922Y-198486519D01*
X35593922Y-198486519D02*
X35470112Y-198610328D01*
X35470112Y-198610328D02*
X35346303Y-198672233D01*
D10*
D11*
X85346303Y-198424614D02*
X85408207Y-198362709D01*
X85408207Y-198362709D02*
X85532017Y-198300804D01*
X85532017Y-198300804D02*
X85841541Y-198300804D01*
X85841541Y-198300804D02*
X85965350Y-198362709D01*
X85965350Y-198362709D02*
X86027255Y-198424614D01*
X86027255Y-198424614D02*
X86089160Y-198548423D01*
X86089160Y-198548423D02*
X86089160Y-198672233D01*
X86089160Y-198672233D02*
X86027255Y-198857947D01*
X86027255Y-198857947D02*
X85284398Y-199600804D01*
X85284398Y-199600804D02*
X86089160Y-199600804D01*
D10*
D11*
X135284398Y-198300804D02*
X136089160Y-198300804D01*
X136089160Y-198300804D02*
X135655826Y-198796042D01*
X135655826Y-198796042D02*
X135841541Y-198796042D01*
X135841541Y-198796042D02*
X135965350Y-198857947D01*
X135965350Y-198857947D02*
X136027255Y-198919852D01*
X136027255Y-198919852D02*
X136089160Y-199043661D01*
X136089160Y-199043661D02*
X136089160Y-199353185D01*
X136089160Y-199353185D02*
X136027255Y-199476995D01*
X136027255Y-199476995D02*
X135965350Y-199538900D01*
X135965350Y-199538900D02*
X135841541Y-199600804D01*
X135841541Y-199600804D02*
X135470112Y-199600804D01*
X135470112Y-199600804D02*
X135346303Y-199538900D01*
X135346303Y-199538900D02*
X135284398Y-199476995D01*
D10*
D11*
X185965350Y-198734138D02*
X185965350Y-199600804D01*
X185655826Y-198238900D02*
X185346303Y-199167471D01*
X185346303Y-199167471D02*
X186151064Y-199167471D01*
D10*
D11*
X236027255Y-198300804D02*
X235408207Y-198300804D01*
X235408207Y-198300804D02*
X235346303Y-198919852D01*
X235346303Y-198919852D02*
X235408207Y-198857947D01*
X235408207Y-198857947D02*
X235532017Y-198796042D01*
X235532017Y-198796042D02*
X235841541Y-198796042D01*
X235841541Y-198796042D02*
X235965350Y-198857947D01*
X235965350Y-198857947D02*
X236027255Y-198919852D01*
X236027255Y-198919852D02*
X236089160Y-199043661D01*
X236089160Y-199043661D02*
X236089160Y-199353185D01*
X236089160Y-199353185D02*
X236027255Y-199476995D01*
X236027255Y-199476995D02*
X235965350Y-199538900D01*
X235965350Y-199538900D02*
X235841541Y-199600804D01*
X235841541Y-199600804D02*
X235532017Y-199600804D01*
X235532017Y-199600804D02*
X235408207Y-199538900D01*
X235408207Y-199538900D02*
X235346303Y-199476995D01*
D10*
D11*
X285965350Y-198300804D02*
X285717731Y-198300804D01*
X285717731Y-198300804D02*
X285593922Y-198362709D01*
X285593922Y-198362709D02*
X285532017Y-198424614D01*
X285532017Y-198424614D02*
X285408207Y-198610328D01*
X285408207Y-198610328D02*
X285346303Y-198857947D01*
X285346303Y-198857947D02*
X285346303Y-199353185D01*
X285346303Y-199353185D02*
X285408207Y-199476995D01*
X285408207Y-199476995D02*
X285470112Y-199538900D01*
X285470112Y-199538900D02*
X285593922Y-199600804D01*
X285593922Y-199600804D02*
X285841541Y-199600804D01*
X285841541Y-199600804D02*
X285965350Y-199538900D01*
X285965350Y-199538900D02*
X286027255Y-199476995D01*
X286027255Y-199476995D02*
X286089160Y-199353185D01*
X286089160Y-199353185D02*
X286089160Y-199043661D01*
X286089160Y-199043661D02*
X286027255Y-198919852D01*
X286027255Y-198919852D02*
X285965350Y-198857947D01*
X285965350Y-198857947D02*
X285841541Y-198796042D01*
X285841541Y-198796042D02*
X285593922Y-198796042D01*
X285593922Y-198796042D02*
X285470112Y-198857947D01*
X285470112Y-198857947D02*
X285408207Y-198919852D01*
X285408207Y-198919852D02*
X285346303Y-199043661D01*
D10*
D11*
X10000000Y-60000000D02*
X12000000Y-60000000D01*
D10*
D11*
X10000000Y-110000000D02*
X12000000Y-110000000D01*
D10*
D11*
X10000000Y-160000000D02*
X12000000Y-160000000D01*
D10*
D11*
X10690476Y-35222176D02*
X11309523Y-35222176D01*
X10566666Y-35593604D02*
X10999999Y-34293604D01*
X10999999Y-34293604D02*
X11433333Y-35593604D01*
D10*
D11*
X11092857Y-84912652D02*
X11278571Y-84974557D01*
X11278571Y-84974557D02*
X11340476Y-85036461D01*
X11340476Y-85036461D02*
X11402380Y-85160271D01*
X11402380Y-85160271D02*
X11402380Y-85345985D01*
X11402380Y-85345985D02*
X11340476Y-85469795D01*
X11340476Y-85469795D02*
X11278571Y-85531700D01*
X11278571Y-85531700D02*
X11154761Y-85593604D01*
X11154761Y-85593604D02*
X10659523Y-85593604D01*
X10659523Y-85593604D02*
X10659523Y-84293604D01*
X10659523Y-84293604D02*
X11092857Y-84293604D01*
X11092857Y-84293604D02*
X11216666Y-84355509D01*
X11216666Y-84355509D02*
X11278571Y-84417414D01*
X11278571Y-84417414D02*
X11340476Y-84541223D01*
X11340476Y-84541223D02*
X11340476Y-84665033D01*
X11340476Y-84665033D02*
X11278571Y-84788842D01*
X11278571Y-84788842D02*
X11216666Y-84850747D01*
X11216666Y-84850747D02*
X11092857Y-84912652D01*
X11092857Y-84912652D02*
X10659523Y-84912652D01*
D10*
D11*
X11402380Y-135469795D02*
X11340476Y-135531700D01*
X11340476Y-135531700D02*
X11154761Y-135593604D01*
X11154761Y-135593604D02*
X11030952Y-135593604D01*
X11030952Y-135593604D02*
X10845238Y-135531700D01*
X10845238Y-135531700D02*
X10721428Y-135407890D01*
X10721428Y-135407890D02*
X10659523Y-135284080D01*
X10659523Y-135284080D02*
X10597619Y-135036461D01*
X10597619Y-135036461D02*
X10597619Y-134850747D01*
X10597619Y-134850747D02*
X10659523Y-134603128D01*
X10659523Y-134603128D02*
X10721428Y-134479319D01*
X10721428Y-134479319D02*
X10845238Y-134355509D01*
X10845238Y-134355509D02*
X11030952Y-134293604D01*
X11030952Y-134293604D02*
X11154761Y-134293604D01*
X11154761Y-134293604D02*
X11340476Y-134355509D01*
X11340476Y-134355509D02*
X11402380Y-134417414D01*
D10*
D11*
X10659523Y-185593604D02*
X10659523Y-184293604D01*
X10659523Y-184293604D02*
X10969047Y-184293604D01*
X10969047Y-184293604D02*
X11154761Y-184355509D01*
X11154761Y-184355509D02*
X11278571Y-184479319D01*
X11278571Y-184479319D02*
X11340476Y-184603128D01*
X11340476Y-184603128D02*
X11402380Y-184850747D01*
X11402380Y-184850747D02*
X11402380Y-185036461D01*
X11402380Y-185036461D02*
X11340476Y-185284080D01*
X11340476Y-185284080D02*
X11278571Y-185407890D01*
X11278571Y-185407890D02*
X11154761Y-185531700D01*
X11154761Y-185531700D02*
X10969047Y-185593604D01*
X10969047Y-185593604D02*
X10659523Y-185593604D01*
D10*
D11*
X287002200Y-60000000D02*
X285002200Y-60000000D01*
D10*
D11*
X287002200Y-110000000D02*
X285002200Y-110000000D01*
D10*
D11*
X287002200Y-160000000D02*
X285002200Y-160000000D01*
D10*
D11*
X285692676Y-35222176D02*
X286311723Y-35222176D01*
X285568866Y-35593604D02*
X286002199Y-34293604D01*
X286002199Y-34293604D02*
X286435533Y-35593604D01*
D10*
D11*
X286095057Y-84912652D02*
X286280771Y-84974557D01*
X286280771Y-84974557D02*
X286342676Y-85036461D01*
X286342676Y-85036461D02*
X286404580Y-85160271D01*
X286404580Y-85160271D02*
X286404580Y-85345985D01*
X286404580Y-85345985D02*
X286342676Y-85469795D01*
X286342676Y-85469795D02*
X286280771Y-85531700D01*
X286280771Y-85531700D02*
X286156961Y-85593604D01*
X286156961Y-85593604D02*
X285661723Y-85593604D01*
X285661723Y-85593604D02*
X285661723Y-84293604D01*
X285661723Y-84293604D02*
X286095057Y-84293604D01*
X286095057Y-84293604D02*
X286218866Y-84355509D01*
X286218866Y-84355509D02*
X286280771Y-84417414D01*
X286280771Y-84417414D02*
X286342676Y-84541223D01*
X286342676Y-84541223D02*
X286342676Y-84665033D01*
X286342676Y-84665033D02*
X286280771Y-84788842D01*
X286280771Y-84788842D02*
X286218866Y-84850747D01*
X286218866Y-84850747D02*
X286095057Y-84912652D01*
X286095057Y-84912652D02*
X285661723Y-84912652D01*
D10*
D11*
X286404580Y-135469795D02*
X286342676Y-135531700D01*
X286342676Y-135531700D02*
X286156961Y-135593604D01*
X286156961Y-135593604D02*
X286033152Y-135593604D01*
X286033152Y-135593604D02*
X285847438Y-135531700D01*
X285847438Y-135531700D02*
X285723628Y-135407890D01*
X285723628Y-135407890D02*
X285661723Y-135284080D01*
X285661723Y-135284080D02*
X285599819Y-135036461D01*
X285599819Y-135036461D02*
X285599819Y-134850747D01*
X285599819Y-134850747D02*
X285661723Y-134603128D01*
X285661723Y-134603128D02*
X285723628Y-134479319D01*
X285723628Y-134479319D02*
X285847438Y-134355509D01*
X285847438Y-134355509D02*
X286033152Y-134293604D01*
X286033152Y-134293604D02*
X286156961Y-134293604D01*
X286156961Y-134293604D02*
X286342676Y-134355509D01*
X286342676Y-134355509D02*
X286404580Y-134417414D01*
D10*
D11*
X285661723Y-185593604D02*
X285661723Y-184293604D01*
X285661723Y-184293604D02*
X285971247Y-184293604D01*
X285971247Y-184293604D02*
X286156961Y-184355509D01*
X286156961Y-184355509D02*
X286280771Y-184479319D01*
X286280771Y-184479319D02*
X286342676Y-184603128D01*
X286342676Y-184603128D02*
X286404580Y-184850747D01*
X286404580Y-184850747D02*
X286404580Y-185036461D01*
X286404580Y-185036461D02*
X286342676Y-185284080D01*
X286342676Y-185284080D02*
X286280771Y-185407890D01*
X286280771Y-185407890D02*
X286156961Y-185531700D01*
X286156961Y-185531700D02*
X285971247Y-185593604D01*
X285971247Y-185593604D02*
X285661723Y-185593604D01*
D10*
D11*
X200458026Y-193793328D02*
X200458026Y-192293328D01*
X200458026Y-192293328D02*
X200815169Y-192293328D01*
X200815169Y-192293328D02*
X201029455Y-192364757D01*
X201029455Y-192364757D02*
X201172312Y-192507614D01*
X201172312Y-192507614D02*
X201243741Y-192650471D01*
X201243741Y-192650471D02*
X201315169Y-192936185D01*
X201315169Y-192936185D02*
X201315169Y-193150471D01*
X201315169Y-193150471D02*
X201243741Y-193436185D01*
X201243741Y-193436185D02*
X201172312Y-193579042D01*
X201172312Y-193579042D02*
X201029455Y-193721900D01*
X201029455Y-193721900D02*
X200815169Y-193793328D01*
X200815169Y-193793328D02*
X200458026Y-193793328D01*
X202600884Y-193793328D02*
X202600884Y-193007614D01*
X202600884Y-193007614D02*
X202529455Y-192864757D01*
X202529455Y-192864757D02*
X202386598Y-192793328D01*
X202386598Y-192793328D02*
X202100884Y-192793328D01*
X202100884Y-192793328D02*
X201958026Y-192864757D01*
X202600884Y-193721900D02*
X202458026Y-193793328D01*
X202458026Y-193793328D02*
X202100884Y-193793328D01*
X202100884Y-193793328D02*
X201958026Y-193721900D01*
X201958026Y-193721900D02*
X201886598Y-193579042D01*
X201886598Y-193579042D02*
X201886598Y-193436185D01*
X201886598Y-193436185D02*
X201958026Y-193293328D01*
X201958026Y-193293328D02*
X202100884Y-193221900D01*
X202100884Y-193221900D02*
X202458026Y-193221900D01*
X202458026Y-193221900D02*
X202600884Y-193150471D01*
X203100884Y-192793328D02*
X203672312Y-192793328D01*
X203315169Y-192293328D02*
X203315169Y-193579042D01*
X203315169Y-193579042D02*
X203386598Y-193721900D01*
X203386598Y-193721900D02*
X203529455Y-193793328D01*
X203529455Y-193793328D02*
X203672312Y-193793328D01*
X204743741Y-193721900D02*
X204600884Y-193793328D01*
X204600884Y-193793328D02*
X204315170Y-193793328D01*
X204315170Y-193793328D02*
X204172312Y-193721900D01*
X204172312Y-193721900D02*
X204100884Y-193579042D01*
X204100884Y-193579042D02*
X204100884Y-193007614D01*
X204100884Y-193007614D02*
X204172312Y-192864757D01*
X204172312Y-192864757D02*
X204315170Y-192793328D01*
X204315170Y-192793328D02*
X204600884Y-192793328D01*
X204600884Y-192793328D02*
X204743741Y-192864757D01*
X204743741Y-192864757D02*
X204815170Y-193007614D01*
X204815170Y-193007614D02*
X204815170Y-193150471D01*
X204815170Y-193150471D02*
X204100884Y-193293328D01*
X205458026Y-193650471D02*
X205529455Y-193721900D01*
X205529455Y-193721900D02*
X205458026Y-193793328D01*
X205458026Y-193793328D02*
X205386598Y-193721900D01*
X205386598Y-193721900D02*
X205458026Y-193650471D01*
X205458026Y-193650471D02*
X205458026Y-193793328D01*
X205458026Y-192864757D02*
X205529455Y-192936185D01*
X205529455Y-192936185D02*
X205458026Y-193007614D01*
X205458026Y-193007614D02*
X205386598Y-192936185D01*
X205386598Y-192936185D02*
X205458026Y-192864757D01*
X205458026Y-192864757D02*
X205458026Y-193007614D01*
X208100884Y-193793328D02*
X207243741Y-193793328D01*
X207672312Y-193793328D02*
X207672312Y-192293328D01*
X207672312Y-192293328D02*
X207529455Y-192507614D01*
X207529455Y-192507614D02*
X207386598Y-192650471D01*
X207386598Y-192650471D02*
X207243741Y-192721900D01*
X208815169Y-193793328D02*
X209100883Y-193793328D01*
X209100883Y-193793328D02*
X209243740Y-193721900D01*
X209243740Y-193721900D02*
X209315169Y-193650471D01*
X209315169Y-193650471D02*
X209458026Y-193436185D01*
X209458026Y-193436185D02*
X209529455Y-193150471D01*
X209529455Y-193150471D02*
X209529455Y-192579042D01*
X209529455Y-192579042D02*
X209458026Y-192436185D01*
X209458026Y-192436185D02*
X209386598Y-192364757D01*
X209386598Y-192364757D02*
X209243740Y-192293328D01*
X209243740Y-192293328D02*
X208958026Y-192293328D01*
X208958026Y-192293328D02*
X208815169Y-192364757D01*
X208815169Y-192364757D02*
X208743740Y-192436185D01*
X208743740Y-192436185D02*
X208672312Y-192579042D01*
X208672312Y-192579042D02*
X208672312Y-192936185D01*
X208672312Y-192936185D02*
X208743740Y-193079042D01*
X208743740Y-193079042D02*
X208815169Y-193150471D01*
X208815169Y-193150471D02*
X208958026Y-193221900D01*
X208958026Y-193221900D02*
X209243740Y-193221900D01*
X209243740Y-193221900D02*
X209386598Y-193150471D01*
X209386598Y-193150471D02*
X209458026Y-193079042D01*
X209458026Y-193079042D02*
X209529455Y-192936185D01*
X211243740Y-192221900D02*
X209958026Y-194150471D01*
X212029455Y-192293328D02*
X212172312Y-192293328D01*
X212172312Y-192293328D02*
X212315169Y-192364757D01*
X212315169Y-192364757D02*
X212386598Y-192436185D01*
X212386598Y-192436185D02*
X212458026Y-192579042D01*
X212458026Y-192579042D02*
X212529455Y-192864757D01*
X212529455Y-192864757D02*
X212529455Y-193221900D01*
X212529455Y-193221900D02*
X212458026Y-193507614D01*
X212458026Y-193507614D02*
X212386598Y-193650471D01*
X212386598Y-193650471D02*
X212315169Y-193721900D01*
X212315169Y-193721900D02*
X212172312Y-193793328D01*
X212172312Y-193793328D02*
X212029455Y-193793328D01*
X212029455Y-193793328D02*
X211886598Y-193721900D01*
X211886598Y-193721900D02*
X211815169Y-193650471D01*
X211815169Y-193650471D02*
X211743740Y-193507614D01*
X211743740Y-193507614D02*
X211672312Y-193221900D01*
X211672312Y-193221900D02*
X211672312Y-192864757D01*
X211672312Y-192864757D02*
X211743740Y-192579042D01*
X211743740Y-192579042D02*
X211815169Y-192436185D01*
X211815169Y-192436185D02*
X211886598Y-192364757D01*
X211886598Y-192364757D02*
X212029455Y-192293328D01*
X213029454Y-192293328D02*
X213958026Y-192293328D01*
X213958026Y-192293328D02*
X213458026Y-192864757D01*
X213458026Y-192864757D02*
X213672311Y-192864757D01*
X213672311Y-192864757D02*
X213815169Y-192936185D01*
X213815169Y-192936185D02*
X213886597Y-193007614D01*
X213886597Y-193007614D02*
X213958026Y-193150471D01*
X213958026Y-193150471D02*
X213958026Y-193507614D01*
X213958026Y-193507614D02*
X213886597Y-193650471D01*
X213886597Y-193650471D02*
X213815169Y-193721900D01*
X213815169Y-193721900D02*
X213672311Y-193793328D01*
X213672311Y-193793328D02*
X213243740Y-193793328D01*
X213243740Y-193793328D02*
X213100883Y-193721900D01*
X213100883Y-193721900D02*
X213029454Y-193650471D01*
X215672311Y-192221900D02*
X214386597Y-194150471D01*
X216100883Y-192436185D02*
X216172311Y-192364757D01*
X216172311Y-192364757D02*
X216315169Y-192293328D01*
X216315169Y-192293328D02*
X216672311Y-192293328D01*
X216672311Y-192293328D02*
X216815169Y-192364757D01*
X216815169Y-192364757D02*
X216886597Y-192436185D01*
X216886597Y-192436185D02*
X216958026Y-192579042D01*
X216958026Y-192579042D02*
X216958026Y-192721900D01*
X216958026Y-192721900D02*
X216886597Y-192936185D01*
X216886597Y-192936185D02*
X216029454Y-193793328D01*
X216029454Y-193793328D02*
X216958026Y-193793328D01*
X217886597Y-192293328D02*
X218029454Y-192293328D01*
X218029454Y-192293328D02*
X218172311Y-192364757D01*
X218172311Y-192364757D02*
X218243740Y-192436185D01*
X218243740Y-192436185D02*
X218315168Y-192579042D01*
X218315168Y-192579042D02*
X218386597Y-192864757D01*
X218386597Y-192864757D02*
X218386597Y-193221900D01*
X218386597Y-193221900D02*
X218315168Y-193507614D01*
X218315168Y-193507614D02*
X218243740Y-193650471D01*
X218243740Y-193650471D02*
X218172311Y-193721900D01*
X218172311Y-193721900D02*
X218029454Y-193793328D01*
X218029454Y-193793328D02*
X217886597Y-193793328D01*
X217886597Y-193793328D02*
X217743740Y-193721900D01*
X217743740Y-193721900D02*
X217672311Y-193650471D01*
X217672311Y-193650471D02*
X217600882Y-193507614D01*
X217600882Y-193507614D02*
X217529454Y-193221900D01*
X217529454Y-193221900D02*
X217529454Y-192864757D01*
X217529454Y-192864757D02*
X217600882Y-192579042D01*
X217600882Y-192579042D02*
X217672311Y-192436185D01*
X217672311Y-192436185D02*
X217743740Y-192364757D01*
X217743740Y-192364757D02*
X217886597Y-192293328D01*
X218958025Y-192436185D02*
X219029453Y-192364757D01*
X219029453Y-192364757D02*
X219172311Y-192293328D01*
X219172311Y-192293328D02*
X219529453Y-192293328D01*
X219529453Y-192293328D02*
X219672311Y-192364757D01*
X219672311Y-192364757D02*
X219743739Y-192436185D01*
X219743739Y-192436185D02*
X219815168Y-192579042D01*
X219815168Y-192579042D02*
X219815168Y-192721900D01*
X219815168Y-192721900D02*
X219743739Y-192936185D01*
X219743739Y-192936185D02*
X218886596Y-193793328D01*
X218886596Y-193793328D02*
X219815168Y-193793328D01*
X221100882Y-192793328D02*
X221100882Y-193793328D01*
X220743739Y-192221900D02*
X220386596Y-193293328D01*
X220386596Y-193293328D02*
X221315167Y-193293328D01*
D10*
D11*
X177002200Y-194507200D02*
X285002200Y-194507200D01*
D10*
D11*
X178458026Y-196593328D02*
X178458026Y-195093328D01*
X179315169Y-196593328D02*
X178672312Y-195736185D01*
X179315169Y-195093328D02*
X178458026Y-195950471D01*
X179958026Y-196593328D02*
X179958026Y-195593328D01*
X179958026Y-195093328D02*
X179886598Y-195164757D01*
X179886598Y-195164757D02*
X179958026Y-195236185D01*
X179958026Y-195236185D02*
X180029455Y-195164757D01*
X180029455Y-195164757D02*
X179958026Y-195093328D01*
X179958026Y-195093328D02*
X179958026Y-195236185D01*
X181529455Y-196450471D02*
X181458027Y-196521900D01*
X181458027Y-196521900D02*
X181243741Y-196593328D01*
X181243741Y-196593328D02*
X181100884Y-196593328D01*
X181100884Y-196593328D02*
X180886598Y-196521900D01*
X180886598Y-196521900D02*
X180743741Y-196379042D01*
X180743741Y-196379042D02*
X180672312Y-196236185D01*
X180672312Y-196236185D02*
X180600884Y-195950471D01*
X180600884Y-195950471D02*
X180600884Y-195736185D01*
X180600884Y-195736185D02*
X180672312Y-195450471D01*
X180672312Y-195450471D02*
X180743741Y-195307614D01*
X180743741Y-195307614D02*
X180886598Y-195164757D01*
X180886598Y-195164757D02*
X181100884Y-195093328D01*
X181100884Y-195093328D02*
X181243741Y-195093328D01*
X181243741Y-195093328D02*
X181458027Y-195164757D01*
X181458027Y-195164757D02*
X181529455Y-195236185D01*
X182815170Y-196593328D02*
X182815170Y-195807614D01*
X182815170Y-195807614D02*
X182743741Y-195664757D01*
X182743741Y-195664757D02*
X182600884Y-195593328D01*
X182600884Y-195593328D02*
X182315170Y-195593328D01*
X182315170Y-195593328D02*
X182172312Y-195664757D01*
X182815170Y-196521900D02*
X182672312Y-196593328D01*
X182672312Y-196593328D02*
X182315170Y-196593328D01*
X182315170Y-196593328D02*
X182172312Y-196521900D01*
X182172312Y-196521900D02*
X182100884Y-196379042D01*
X182100884Y-196379042D02*
X182100884Y-196236185D01*
X182100884Y-196236185D02*
X182172312Y-196093328D01*
X182172312Y-196093328D02*
X182315170Y-196021900D01*
X182315170Y-196021900D02*
X182672312Y-196021900D01*
X182672312Y-196021900D02*
X182815170Y-195950471D01*
X184172313Y-196593328D02*
X184172313Y-195093328D01*
X184172313Y-196521900D02*
X184029455Y-196593328D01*
X184029455Y-196593328D02*
X183743741Y-196593328D01*
X183743741Y-196593328D02*
X183600884Y-196521900D01*
X183600884Y-196521900D02*
X183529455Y-196450471D01*
X183529455Y-196450471D02*
X183458027Y-196307614D01*
X183458027Y-196307614D02*
X183458027Y-195879042D01*
X183458027Y-195879042D02*
X183529455Y-195736185D01*
X183529455Y-195736185D02*
X183600884Y-195664757D01*
X183600884Y-195664757D02*
X183743741Y-195593328D01*
X183743741Y-195593328D02*
X184029455Y-195593328D01*
X184029455Y-195593328D02*
X184172313Y-195664757D01*
X186029455Y-195807614D02*
X186529455Y-195807614D01*
X186743741Y-196593328D02*
X186029455Y-196593328D01*
X186029455Y-196593328D02*
X186029455Y-195093328D01*
X186029455Y-195093328D02*
X186743741Y-195093328D01*
X187386598Y-196450471D02*
X187458027Y-196521900D01*
X187458027Y-196521900D02*
X187386598Y-196593328D01*
X187386598Y-196593328D02*
X187315170Y-196521900D01*
X187315170Y-196521900D02*
X187386598Y-196450471D01*
X187386598Y-196450471D02*
X187386598Y-196593328D01*
X188100884Y-196593328D02*
X188100884Y-195093328D01*
X188100884Y-195093328D02*
X188458027Y-195093328D01*
X188458027Y-195093328D02*
X188672313Y-195164757D01*
X188672313Y-195164757D02*
X188815170Y-195307614D01*
X188815170Y-195307614D02*
X188886599Y-195450471D01*
X188886599Y-195450471D02*
X188958027Y-195736185D01*
X188958027Y-195736185D02*
X188958027Y-195950471D01*
X188958027Y-195950471D02*
X188886599Y-196236185D01*
X188886599Y-196236185D02*
X188815170Y-196379042D01*
X188815170Y-196379042D02*
X188672313Y-196521900D01*
X188672313Y-196521900D02*
X188458027Y-196593328D01*
X188458027Y-196593328D02*
X188100884Y-196593328D01*
X189600884Y-196450471D02*
X189672313Y-196521900D01*
X189672313Y-196521900D02*
X189600884Y-196593328D01*
X189600884Y-196593328D02*
X189529456Y-196521900D01*
X189529456Y-196521900D02*
X189600884Y-196450471D01*
X189600884Y-196450471D02*
X189600884Y-196593328D01*
X190243742Y-196164757D02*
X190958028Y-196164757D01*
X190100885Y-196593328D02*
X190600885Y-195093328D01*
X190600885Y-195093328D02*
X191100885Y-196593328D01*
X191600884Y-196450471D02*
X191672313Y-196521900D01*
X191672313Y-196521900D02*
X191600884Y-196593328D01*
X191600884Y-196593328D02*
X191529456Y-196521900D01*
X191529456Y-196521900D02*
X191600884Y-196450471D01*
X191600884Y-196450471D02*
X191600884Y-196593328D01*
X194600884Y-196593328D02*
X194600884Y-195093328D01*
X194743742Y-196021900D02*
X195172313Y-196593328D01*
X195172313Y-195593328D02*
X194600884Y-196164757D01*
X195815170Y-196593328D02*
X195815170Y-195593328D01*
X195815170Y-195093328D02*
X195743742Y-195164757D01*
X195743742Y-195164757D02*
X195815170Y-195236185D01*
X195815170Y-195236185D02*
X195886599Y-195164757D01*
X195886599Y-195164757D02*
X195815170Y-195093328D01*
X195815170Y-195093328D02*
X195815170Y-195236185D01*
X197172314Y-196521900D02*
X197029456Y-196593328D01*
X197029456Y-196593328D02*
X196743742Y-196593328D01*
X196743742Y-196593328D02*
X196600885Y-196521900D01*
X196600885Y-196521900D02*
X196529456Y-196450471D01*
X196529456Y-196450471D02*
X196458028Y-196307614D01*
X196458028Y-196307614D02*
X196458028Y-195879042D01*
X196458028Y-195879042D02*
X196529456Y-195736185D01*
X196529456Y-195736185D02*
X196600885Y-195664757D01*
X196600885Y-195664757D02*
X196743742Y-195593328D01*
X196743742Y-195593328D02*
X197029456Y-195593328D01*
X197029456Y-195593328D02*
X197172314Y-195664757D01*
X198458028Y-196593328D02*
X198458028Y-195807614D01*
X198458028Y-195807614D02*
X198386599Y-195664757D01*
X198386599Y-195664757D02*
X198243742Y-195593328D01*
X198243742Y-195593328D02*
X197958028Y-195593328D01*
X197958028Y-195593328D02*
X197815170Y-195664757D01*
X198458028Y-196521900D02*
X198315170Y-196593328D01*
X198315170Y-196593328D02*
X197958028Y-196593328D01*
X197958028Y-196593328D02*
X197815170Y-196521900D01*
X197815170Y-196521900D02*
X197743742Y-196379042D01*
X197743742Y-196379042D02*
X197743742Y-196236185D01*
X197743742Y-196236185D02*
X197815170Y-196093328D01*
X197815170Y-196093328D02*
X197958028Y-196021900D01*
X197958028Y-196021900D02*
X198315170Y-196021900D01*
X198315170Y-196021900D02*
X198458028Y-195950471D01*
X199815171Y-196593328D02*
X199815171Y-195093328D01*
X199815171Y-196521900D02*
X199672313Y-196593328D01*
X199672313Y-196593328D02*
X199386599Y-196593328D01*
X199386599Y-196593328D02*
X199243742Y-196521900D01*
X199243742Y-196521900D02*
X199172313Y-196450471D01*
X199172313Y-196450471D02*
X199100885Y-196307614D01*
X199100885Y-196307614D02*
X199100885Y-195879042D01*
X199100885Y-195879042D02*
X199172313Y-195736185D01*
X199172313Y-195736185D02*
X199243742Y-195664757D01*
X199243742Y-195664757D02*
X199386599Y-195593328D01*
X199386599Y-195593328D02*
X199672313Y-195593328D01*
X199672313Y-195593328D02*
X199815171Y-195664757D01*
X201529456Y-195093328D02*
X202529456Y-195093328D01*
X202529456Y-195093328D02*
X201886599Y-196593328D01*
X203100884Y-196450471D02*
X203172313Y-196521900D01*
X203172313Y-196521900D02*
X203100884Y-196593328D01*
X203100884Y-196593328D02*
X203029456Y-196521900D01*
X203029456Y-196521900D02*
X203100884Y-196450471D01*
X203100884Y-196450471D02*
X203100884Y-196593328D01*
X204100885Y-195093328D02*
X204243742Y-195093328D01*
X204243742Y-195093328D02*
X204386599Y-195164757D01*
X204386599Y-195164757D02*
X204458028Y-195236185D01*
X204458028Y-195236185D02*
X204529456Y-195379042D01*
X204529456Y-195379042D02*
X204600885Y-195664757D01*
X204600885Y-195664757D02*
X204600885Y-196021900D01*
X204600885Y-196021900D02*
X204529456Y-196307614D01*
X204529456Y-196307614D02*
X204458028Y-196450471D01*
X204458028Y-196450471D02*
X204386599Y-196521900D01*
X204386599Y-196521900D02*
X204243742Y-196593328D01*
X204243742Y-196593328D02*
X204100885Y-196593328D01*
X204100885Y-196593328D02*
X203958028Y-196521900D01*
X203958028Y-196521900D02*
X203886599Y-196450471D01*
X203886599Y-196450471D02*
X203815170Y-196307614D01*
X203815170Y-196307614D02*
X203743742Y-196021900D01*
X203743742Y-196021900D02*
X203743742Y-195664757D01*
X203743742Y-195664757D02*
X203815170Y-195379042D01*
X203815170Y-195379042D02*
X203886599Y-195236185D01*
X203886599Y-195236185D02*
X203958028Y-195164757D01*
X203958028Y-195164757D02*
X204100885Y-195093328D01*
X205243741Y-196450471D02*
X205315170Y-196521900D01*
X205315170Y-196521900D02*
X205243741Y-196593328D01*
X205243741Y-196593328D02*
X205172313Y-196521900D01*
X205172313Y-196521900D02*
X205243741Y-196450471D01*
X205243741Y-196450471D02*
X205243741Y-196593328D01*
X205815170Y-195093328D02*
X206815170Y-195093328D01*
X206815170Y-195093328D02*
X206172313Y-196593328D01*
D10*
D11*
X177002200Y-191507200D02*
X285002200Y-191507200D01*
D10*
D12*
X264413853Y-193785528D02*
X263913853Y-193071242D01*
X263556710Y-193785528D02*
X263556710Y-192285528D01*
X263556710Y-192285528D02*
X264128139Y-192285528D01*
X264128139Y-192285528D02*
X264270996Y-192356957D01*
X264270996Y-192356957D02*
X264342425Y-192428385D01*
X264342425Y-192428385D02*
X264413853Y-192571242D01*
X264413853Y-192571242D02*
X264413853Y-192785528D01*
X264413853Y-192785528D02*
X264342425Y-192928385D01*
X264342425Y-192928385D02*
X264270996Y-192999814D01*
X264270996Y-192999814D02*
X264128139Y-193071242D01*
X264128139Y-193071242D02*
X263556710Y-193071242D01*
X265628139Y-193714100D02*
X265485282Y-193785528D01*
X265485282Y-193785528D02*
X265199568Y-193785528D01*
X265199568Y-193785528D02*
X265056710Y-193714100D01*
X265056710Y-193714100D02*
X264985282Y-193571242D01*
X264985282Y-193571242D02*
X264985282Y-192999814D01*
X264985282Y-192999814D02*
X265056710Y-192856957D01*
X265056710Y-192856957D02*
X265199568Y-192785528D01*
X265199568Y-192785528D02*
X265485282Y-192785528D01*
X265485282Y-192785528D02*
X265628139Y-192856957D01*
X265628139Y-192856957D02*
X265699568Y-192999814D01*
X265699568Y-192999814D02*
X265699568Y-193142671D01*
X265699568Y-193142671D02*
X264985282Y-193285528D01*
X266199567Y-192785528D02*
X266556710Y-193785528D01*
X266556710Y-193785528D02*
X266913853Y-192785528D01*
X267485281Y-193642671D02*
X267556710Y-193714100D01*
X267556710Y-193714100D02*
X267485281Y-193785528D01*
X267485281Y-193785528D02*
X267413853Y-193714100D01*
X267413853Y-193714100D02*
X267485281Y-193642671D01*
X267485281Y-193642671D02*
X267485281Y-193785528D01*
X267485281Y-192856957D02*
X267556710Y-192928385D01*
X267556710Y-192928385D02*
X267485281Y-192999814D01*
X267485281Y-192999814D02*
X267413853Y-192928385D01*
X267413853Y-192928385D02*
X267485281Y-192856957D01*
X267485281Y-192856957D02*
X267485281Y-192999814D01*
X269199567Y-192785528D02*
X269556710Y-193785528D01*
X269556710Y-193785528D02*
X269913853Y-192785528D01*
X270770996Y-192285528D02*
X270913853Y-192285528D01*
X270913853Y-192285528D02*
X271056710Y-192356957D01*
X271056710Y-192356957D02*
X271128139Y-192428385D01*
X271128139Y-192428385D02*
X271199567Y-192571242D01*
X271199567Y-192571242D02*
X271270996Y-192856957D01*
X271270996Y-192856957D02*
X271270996Y-193214100D01*
X271270996Y-193214100D02*
X271199567Y-193499814D01*
X271199567Y-193499814D02*
X271128139Y-193642671D01*
X271128139Y-193642671D02*
X271056710Y-193714100D01*
X271056710Y-193714100D02*
X270913853Y-193785528D01*
X270913853Y-193785528D02*
X270770996Y-193785528D01*
X270770996Y-193785528D02*
X270628139Y-193714100D01*
X270628139Y-193714100D02*
X270556710Y-193642671D01*
X270556710Y-193642671D02*
X270485281Y-193499814D01*
X270485281Y-193499814D02*
X270413853Y-193214100D01*
X270413853Y-193214100D02*
X270413853Y-192856957D01*
X270413853Y-192856957D02*
X270485281Y-192571242D01*
X270485281Y-192571242D02*
X270556710Y-192428385D01*
X270556710Y-192428385D02*
X270628139Y-192356957D01*
X270628139Y-192356957D02*
X270770996Y-192285528D01*
X271842424Y-192428385D02*
X271913852Y-192356957D01*
X271913852Y-192356957D02*
X272056710Y-192285528D01*
X272056710Y-192285528D02*
X272413852Y-192285528D01*
X272413852Y-192285528D02*
X272556710Y-192356957D01*
X272556710Y-192356957D02*
X272628138Y-192428385D01*
X272628138Y-192428385D02*
X272699567Y-192571242D01*
X272699567Y-192571242D02*
X272699567Y-192714100D01*
X272699567Y-192714100D02*
X272628138Y-192928385D01*
X272628138Y-192928385D02*
X271770995Y-193785528D01*
X271770995Y-193785528D02*
X272699567Y-193785528D01*
D10*
D11*
X178386598Y-193721900D02*
X178600884Y-193793328D01*
X178600884Y-193793328D02*
X178958026Y-193793328D01*
X178958026Y-193793328D02*
X179100884Y-193721900D01*
X179100884Y-193721900D02*
X179172312Y-193650471D01*
X179172312Y-193650471D02*
X179243741Y-193507614D01*
X179243741Y-193507614D02*
X179243741Y-193364757D01*
X179243741Y-193364757D02*
X179172312Y-193221900D01*
X179172312Y-193221900D02*
X179100884Y-193150471D01*
X179100884Y-193150471D02*
X178958026Y-193079042D01*
X178958026Y-193079042D02*
X178672312Y-193007614D01*
X178672312Y-193007614D02*
X178529455Y-192936185D01*
X178529455Y-192936185D02*
X178458026Y-192864757D01*
X178458026Y-192864757D02*
X178386598Y-192721900D01*
X178386598Y-192721900D02*
X178386598Y-192579042D01*
X178386598Y-192579042D02*
X178458026Y-192436185D01*
X178458026Y-192436185D02*
X178529455Y-192364757D01*
X178529455Y-192364757D02*
X178672312Y-192293328D01*
X178672312Y-192293328D02*
X179029455Y-192293328D01*
X179029455Y-192293328D02*
X179243741Y-192364757D01*
X179886597Y-193793328D02*
X179886597Y-192793328D01*
X179886597Y-192293328D02*
X179815169Y-192364757D01*
X179815169Y-192364757D02*
X179886597Y-192436185D01*
X179886597Y-192436185D02*
X179958026Y-192364757D01*
X179958026Y-192364757D02*
X179886597Y-192293328D01*
X179886597Y-192293328D02*
X179886597Y-192436185D01*
X180458026Y-192793328D02*
X181243741Y-192793328D01*
X181243741Y-192793328D02*
X180458026Y-193793328D01*
X180458026Y-193793328D02*
X181243741Y-193793328D01*
X182386598Y-193721900D02*
X182243741Y-193793328D01*
X182243741Y-193793328D02*
X181958027Y-193793328D01*
X181958027Y-193793328D02*
X181815169Y-193721900D01*
X181815169Y-193721900D02*
X181743741Y-193579042D01*
X181743741Y-193579042D02*
X181743741Y-193007614D01*
X181743741Y-193007614D02*
X181815169Y-192864757D01*
X181815169Y-192864757D02*
X181958027Y-192793328D01*
X181958027Y-192793328D02*
X182243741Y-192793328D01*
X182243741Y-192793328D02*
X182386598Y-192864757D01*
X182386598Y-192864757D02*
X182458027Y-193007614D01*
X182458027Y-193007614D02*
X182458027Y-193150471D01*
X182458027Y-193150471D02*
X181743741Y-193293328D01*
X183100883Y-193650471D02*
X183172312Y-193721900D01*
X183172312Y-193721900D02*
X183100883Y-193793328D01*
X183100883Y-193793328D02*
X183029455Y-193721900D01*
X183029455Y-193721900D02*
X183100883Y-193650471D01*
X183100883Y-193650471D02*
X183100883Y-193793328D01*
X183100883Y-192864757D02*
X183172312Y-192936185D01*
X183172312Y-192936185D02*
X183100883Y-193007614D01*
X183100883Y-193007614D02*
X183029455Y-192936185D01*
X183029455Y-192936185D02*
X183100883Y-192864757D01*
X183100883Y-192864757D02*
X183100883Y-193007614D01*
X184886598Y-193364757D02*
X185600884Y-193364757D01*
X184743741Y-193793328D02*
X185243741Y-192293328D01*
X185243741Y-192293328D02*
X185743741Y-193793328D01*
X186886598Y-192793328D02*
X186886598Y-193793328D01*
X186529455Y-192221900D02*
X186172312Y-193293328D01*
X186172312Y-193293328D02*
X187100883Y-193293328D01*
D10*
D11*
X263458026Y-196593328D02*
X263458026Y-195093328D01*
X264815170Y-196593328D02*
X264815170Y-195093328D01*
X264815170Y-196521900D02*
X264672312Y-196593328D01*
X264672312Y-196593328D02*
X264386598Y-196593328D01*
X264386598Y-196593328D02*
X264243741Y-196521900D01*
X264243741Y-196521900D02*
X264172312Y-196450471D01*
X264172312Y-196450471D02*
X264100884Y-196307614D01*
X264100884Y-196307614D02*
X264100884Y-195879042D01*
X264100884Y-195879042D02*
X264172312Y-195736185D01*
X264172312Y-195736185D02*
X264243741Y-195664757D01*
X264243741Y-195664757D02*
X264386598Y-195593328D01*
X264386598Y-195593328D02*
X264672312Y-195593328D01*
X264672312Y-195593328D02*
X264815170Y-195664757D01*
X265529455Y-196450471D02*
X265600884Y-196521900D01*
X265600884Y-196521900D02*
X265529455Y-196593328D01*
X265529455Y-196593328D02*
X265458027Y-196521900D01*
X265458027Y-196521900D02*
X265529455Y-196450471D01*
X265529455Y-196450471D02*
X265529455Y-196593328D01*
X265529455Y-195664757D02*
X265600884Y-195736185D01*
X265600884Y-195736185D02*
X265529455Y-195807614D01*
X265529455Y-195807614D02*
X265458027Y-195736185D01*
X265458027Y-195736185D02*
X265529455Y-195664757D01*
X265529455Y-195664757D02*
X265529455Y-195807614D01*
X268172313Y-196593328D02*
X267315170Y-196593328D01*
X267743741Y-196593328D02*
X267743741Y-195093328D01*
X267743741Y-195093328D02*
X267600884Y-195307614D01*
X267600884Y-195307614D02*
X267458027Y-195450471D01*
X267458027Y-195450471D02*
X267315170Y-195521900D01*
X269886598Y-195021900D02*
X268600884Y-196950471D01*
X271172313Y-196593328D02*
X270315170Y-196593328D01*
X270743741Y-196593328D02*
X270743741Y-195093328D01*
X270743741Y-195093328D02*
X270600884Y-195307614D01*
X270600884Y-195307614D02*
X270458027Y-195450471D01*
X270458027Y-195450471D02*
X270315170Y-195521900D01*
D10*
D11*
X177002200Y-187507200D02*
X285002200Y-187507200D01*
D10*
D13*
X178693928Y-188211638D02*
X179836785Y-188211638D01*
X179015357Y-190211638D02*
X179265357Y-188211638D01*
X180253452Y-190211638D02*
X180420119Y-188878304D01*
X180503452Y-188211638D02*
X180396309Y-188306876D01*
X180396309Y-188306876D02*
X180479643Y-188402114D01*
X180479643Y-188402114D02*
X180586786Y-188306876D01*
X180586786Y-188306876D02*
X180503452Y-188211638D01*
X180503452Y-188211638D02*
X180479643Y-188402114D01*
X181086786Y-188878304D02*
X181848690Y-188878304D01*
X181455833Y-188211638D02*
X181241548Y-189925923D01*
X181241548Y-189925923D02*
X181312976Y-190116400D01*
X181312976Y-190116400D02*
X181491548Y-190211638D01*
X181491548Y-190211638D02*
X181682024Y-190211638D01*
X182634405Y-190211638D02*
X182455833Y-190116400D01*
X182455833Y-190116400D02*
X182384405Y-189925923D01*
X182384405Y-189925923D02*
X182598690Y-188211638D01*
X184170119Y-190116400D02*
X183967738Y-190211638D01*
X183967738Y-190211638D02*
X183586785Y-190211638D01*
X183586785Y-190211638D02*
X183408214Y-190116400D01*
X183408214Y-190116400D02*
X183336785Y-189925923D01*
X183336785Y-189925923D02*
X183432024Y-189164019D01*
X183432024Y-189164019D02*
X183551071Y-188973542D01*
X183551071Y-188973542D02*
X183753452Y-188878304D01*
X183753452Y-188878304D02*
X184134404Y-188878304D01*
X184134404Y-188878304D02*
X184312976Y-188973542D01*
X184312976Y-188973542D02*
X184384404Y-189164019D01*
X184384404Y-189164019D02*
X184360595Y-189354495D01*
X184360595Y-189354495D02*
X183384404Y-189544971D01*
X185134405Y-190021161D02*
X185217738Y-190116400D01*
X185217738Y-190116400D02*
X185110595Y-190211638D01*
X185110595Y-190211638D02*
X185027262Y-190116400D01*
X185027262Y-190116400D02*
X185134405Y-190021161D01*
X185134405Y-190021161D02*
X185110595Y-190211638D01*
X185265357Y-188973542D02*
X185348690Y-189068780D01*
X185348690Y-189068780D02*
X185241548Y-189164019D01*
X185241548Y-189164019D02*
X185158214Y-189068780D01*
X185158214Y-189068780D02*
X185265357Y-188973542D01*
X185265357Y-188973542D02*
X185241548Y-189164019D01*
X188729643Y-190211638D02*
X188182024Y-189259257D01*
X187586786Y-190211638D02*
X187836786Y-188211638D01*
X187836786Y-188211638D02*
X188598691Y-188211638D01*
X188598691Y-188211638D02*
X188777262Y-188306876D01*
X188777262Y-188306876D02*
X188860596Y-188402114D01*
X188860596Y-188402114D02*
X188932024Y-188592590D01*
X188932024Y-188592590D02*
X188896310Y-188878304D01*
X188896310Y-188878304D02*
X188777262Y-189068780D01*
X188777262Y-189068780D02*
X188670120Y-189164019D01*
X188670120Y-189164019D02*
X188467739Y-189259257D01*
X188467739Y-189259257D02*
X187705834Y-189259257D01*
X190872501Y-188306876D02*
X190693929Y-188211638D01*
X190693929Y-188211638D02*
X190408215Y-188211638D01*
X190408215Y-188211638D02*
X190110596Y-188306876D01*
X190110596Y-188306876D02*
X189896310Y-188497352D01*
X189896310Y-188497352D02*
X189777262Y-188687828D01*
X189777262Y-188687828D02*
X189634405Y-189068780D01*
X189634405Y-189068780D02*
X189598691Y-189354495D01*
X189598691Y-189354495D02*
X189646310Y-189735447D01*
X189646310Y-189735447D02*
X189717739Y-189925923D01*
X189717739Y-189925923D02*
X189884405Y-190116400D01*
X189884405Y-190116400D02*
X190158215Y-190211638D01*
X190158215Y-190211638D02*
X190348691Y-190211638D01*
X190348691Y-190211638D02*
X190646310Y-190116400D01*
X190646310Y-190116400D02*
X190753453Y-190021161D01*
X190753453Y-190021161D02*
X190836786Y-189354495D01*
X190836786Y-189354495D02*
X190455834Y-189354495D01*
X192384405Y-189164019D02*
X192658215Y-189259257D01*
X192658215Y-189259257D02*
X192741548Y-189354495D01*
X192741548Y-189354495D02*
X192812977Y-189544971D01*
X192812977Y-189544971D02*
X192777262Y-189830685D01*
X192777262Y-189830685D02*
X192658215Y-190021161D01*
X192658215Y-190021161D02*
X192551072Y-190116400D01*
X192551072Y-190116400D02*
X192348691Y-190211638D01*
X192348691Y-190211638D02*
X191586786Y-190211638D01*
X191586786Y-190211638D02*
X191836786Y-188211638D01*
X191836786Y-188211638D02*
X192503453Y-188211638D01*
X192503453Y-188211638D02*
X192682024Y-188306876D01*
X192682024Y-188306876D02*
X192765358Y-188402114D01*
X192765358Y-188402114D02*
X192836786Y-188592590D01*
X192836786Y-188592590D02*
X192812977Y-188783066D01*
X192812977Y-188783066D02*
X192693929Y-188973542D01*
X192693929Y-188973542D02*
X192586786Y-189068780D01*
X192586786Y-189068780D02*
X192384405Y-189164019D01*
X192384405Y-189164019D02*
X191717739Y-189164019D01*
X196062977Y-190211638D02*
X195110596Y-190211638D01*
X195110596Y-190211638D02*
X195360596Y-188211638D01*
X196860597Y-189164019D02*
X197527263Y-189164019D01*
X197682025Y-190211638D02*
X196729644Y-190211638D01*
X196729644Y-190211638D02*
X196979644Y-188211638D01*
X196979644Y-188211638D02*
X197932025Y-188211638D01*
X198539168Y-190211638D02*
X198789168Y-188211638D01*
X198789168Y-188211638D02*
X199265359Y-188211638D01*
X199265359Y-188211638D02*
X199539168Y-188306876D01*
X199539168Y-188306876D02*
X199705835Y-188497352D01*
X199705835Y-188497352D02*
X199777263Y-188687828D01*
X199777263Y-188687828D02*
X199824883Y-189068780D01*
X199824883Y-189068780D02*
X199789168Y-189354495D01*
X199789168Y-189354495D02*
X199646311Y-189735447D01*
X199646311Y-189735447D02*
X199527263Y-189925923D01*
X199527263Y-189925923D02*
X199312978Y-190116400D01*
X199312978Y-190116400D02*
X199015359Y-190211638D01*
X199015359Y-190211638D02*
X198539168Y-190211638D01*
X201979645Y-190116400D02*
X202253454Y-190211638D01*
X202253454Y-190211638D02*
X202729645Y-190211638D01*
X202729645Y-190211638D02*
X202932026Y-190116400D01*
X202932026Y-190116400D02*
X203039169Y-190021161D01*
X203039169Y-190021161D02*
X203158216Y-189830685D01*
X203158216Y-189830685D02*
X203182026Y-189640209D01*
X203182026Y-189640209D02*
X203110597Y-189449733D01*
X203110597Y-189449733D02*
X203027264Y-189354495D01*
X203027264Y-189354495D02*
X202848693Y-189259257D01*
X202848693Y-189259257D02*
X202479645Y-189164019D01*
X202479645Y-189164019D02*
X202301073Y-189068780D01*
X202301073Y-189068780D02*
X202217740Y-188973542D01*
X202217740Y-188973542D02*
X202146312Y-188783066D01*
X202146312Y-188783066D02*
X202170121Y-188592590D01*
X202170121Y-188592590D02*
X202289169Y-188402114D01*
X202289169Y-188402114D02*
X202396312Y-188306876D01*
X202396312Y-188306876D02*
X202598693Y-188211638D01*
X202598693Y-188211638D02*
X203074883Y-188211638D01*
X203074883Y-188211638D02*
X203348693Y-188306876D01*
X203932026Y-188211638D02*
X205074883Y-188211638D01*
X204253455Y-190211638D02*
X204503455Y-188211638D01*
X206634407Y-190211638D02*
X206086788Y-189259257D01*
X205491550Y-190211638D02*
X205741550Y-188211638D01*
X205741550Y-188211638D02*
X206503455Y-188211638D01*
X206503455Y-188211638D02*
X206682026Y-188306876D01*
X206682026Y-188306876D02*
X206765360Y-188402114D01*
X206765360Y-188402114D02*
X206836788Y-188592590D01*
X206836788Y-188592590D02*
X206801074Y-188878304D01*
X206801074Y-188878304D02*
X206682026Y-189068780D01*
X206682026Y-189068780D02*
X206574884Y-189164019D01*
X206574884Y-189164019D02*
X206372503Y-189259257D01*
X206372503Y-189259257D02*
X205610598Y-189259257D01*
X207491550Y-190211638D02*
X207741550Y-188211638D01*
X208443931Y-190211638D02*
X208693931Y-188211638D01*
X208693931Y-188211638D02*
X209455836Y-188211638D01*
X209455836Y-188211638D02*
X209634407Y-188306876D01*
X209634407Y-188306876D02*
X209717741Y-188402114D01*
X209717741Y-188402114D02*
X209789169Y-188592590D01*
X209789169Y-188592590D02*
X209753455Y-188878304D01*
X209753455Y-188878304D02*
X209634407Y-189068780D01*
X209634407Y-189068780D02*
X209527265Y-189164019D01*
X209527265Y-189164019D02*
X209324884Y-189259257D01*
X209324884Y-189259257D02*
X208562979Y-189259257D01*
X211967741Y-190211638D02*
X212217741Y-188211638D01*
X212217741Y-188211638D02*
X212693932Y-188211638D01*
X212693932Y-188211638D02*
X212967741Y-188306876D01*
X212967741Y-188306876D02*
X213134408Y-188497352D01*
X213134408Y-188497352D02*
X213205836Y-188687828D01*
X213205836Y-188687828D02*
X213253456Y-189068780D01*
X213253456Y-189068780D02*
X213217741Y-189354495D01*
X213217741Y-189354495D02*
X213074884Y-189735447D01*
X213074884Y-189735447D02*
X212955836Y-189925923D01*
X212955836Y-189925923D02*
X212741551Y-190116400D01*
X212741551Y-190116400D02*
X212443932Y-190211638D01*
X212443932Y-190211638D02*
X211967741Y-190211638D01*
X215110598Y-190211638D02*
X214562979Y-189259257D01*
X213967741Y-190211638D02*
X214217741Y-188211638D01*
X214217741Y-188211638D02*
X214979646Y-188211638D01*
X214979646Y-188211638D02*
X215158217Y-188306876D01*
X215158217Y-188306876D02*
X215241551Y-188402114D01*
X215241551Y-188402114D02*
X215312979Y-188592590D01*
X215312979Y-188592590D02*
X215277265Y-188878304D01*
X215277265Y-188878304D02*
X215158217Y-189068780D01*
X215158217Y-189068780D02*
X215051075Y-189164019D01*
X215051075Y-189164019D02*
X214848694Y-189259257D01*
X214848694Y-189259257D02*
X214086789Y-189259257D01*
X215967741Y-190211638D02*
X216217741Y-188211638D01*
X216884408Y-188211638D02*
X217301075Y-190211638D01*
X217301075Y-190211638D02*
X218217741Y-188211638D01*
X218765361Y-189164019D02*
X219432027Y-189164019D01*
X219586789Y-190211638D02*
X218634408Y-190211638D01*
X218634408Y-190211638D02*
X218884408Y-188211638D01*
X218884408Y-188211638D02*
X219836789Y-188211638D01*
X221586789Y-190211638D02*
X221039170Y-189259257D01*
X220443932Y-190211638D02*
X220693932Y-188211638D01*
X220693932Y-188211638D02*
X221455837Y-188211638D01*
X221455837Y-188211638D02*
X221634408Y-188306876D01*
X221634408Y-188306876D02*
X221717742Y-188402114D01*
X221717742Y-188402114D02*
X221789170Y-188592590D01*
X221789170Y-188592590D02*
X221753456Y-188878304D01*
X221753456Y-188878304D02*
X221634408Y-189068780D01*
X221634408Y-189068780D02*
X221527266Y-189164019D01*
X221527266Y-189164019D02*
X221324885Y-189259257D01*
X221324885Y-189259257D02*
X220562980Y-189259257D01*
D10*
D11*
X178958026Y-185607614D02*
X178458026Y-185607614D01*
X178458026Y-186393328D02*
X178458026Y-184893328D01*
X178458026Y-184893328D02*
X179172312Y-184893328D01*
X179743740Y-186393328D02*
X179743740Y-185393328D01*
X179743740Y-184893328D02*
X179672312Y-184964757D01*
X179672312Y-184964757D02*
X179743740Y-185036185D01*
X179743740Y-185036185D02*
X179815169Y-184964757D01*
X179815169Y-184964757D02*
X179743740Y-184893328D01*
X179743740Y-184893328D02*
X179743740Y-185036185D01*
X180672312Y-186393328D02*
X180529455Y-186321900D01*
X180529455Y-186321900D02*
X180458026Y-186179042D01*
X180458026Y-186179042D02*
X180458026Y-184893328D01*
X181815169Y-186321900D02*
X181672312Y-186393328D01*
X181672312Y-186393328D02*
X181386598Y-186393328D01*
X181386598Y-186393328D02*
X181243740Y-186321900D01*
X181243740Y-186321900D02*
X181172312Y-186179042D01*
X181172312Y-186179042D02*
X181172312Y-185607614D01*
X181172312Y-185607614D02*
X181243740Y-185464757D01*
X181243740Y-185464757D02*
X181386598Y-185393328D01*
X181386598Y-185393328D02*
X181672312Y-185393328D01*
X181672312Y-185393328D02*
X181815169Y-185464757D01*
X181815169Y-185464757D02*
X181886598Y-185607614D01*
X181886598Y-185607614D02*
X181886598Y-185750471D01*
X181886598Y-185750471D02*
X181172312Y-185893328D01*
X182529454Y-186250471D02*
X182600883Y-186321900D01*
X182600883Y-186321900D02*
X182529454Y-186393328D01*
X182529454Y-186393328D02*
X182458026Y-186321900D01*
X182458026Y-186321900D02*
X182529454Y-186250471D01*
X182529454Y-186250471D02*
X182529454Y-186393328D01*
X182529454Y-185464757D02*
X182600883Y-185536185D01*
X182600883Y-185536185D02*
X182529454Y-185607614D01*
X182529454Y-185607614D02*
X182458026Y-185536185D01*
X182458026Y-185536185D02*
X182529454Y-185464757D01*
X182529454Y-185464757D02*
X182529454Y-185607614D01*
X184386597Y-186393328D02*
X184386597Y-184893328D01*
X184386597Y-184893328D02*
X184743740Y-184893328D01*
X184743740Y-184893328D02*
X184958026Y-184964757D01*
X184958026Y-184964757D02*
X185100883Y-185107614D01*
X185100883Y-185107614D02*
X185172312Y-185250471D01*
X185172312Y-185250471D02*
X185243740Y-185536185D01*
X185243740Y-185536185D02*
X185243740Y-185750471D01*
X185243740Y-185750471D02*
X185172312Y-186036185D01*
X185172312Y-186036185D02*
X185100883Y-186179042D01*
X185100883Y-186179042D02*
X184958026Y-186321900D01*
X184958026Y-186321900D02*
X184743740Y-186393328D01*
X184743740Y-186393328D02*
X184386597Y-186393328D01*
X185886597Y-186393328D02*
X185886597Y-185393328D01*
X185886597Y-185679042D02*
X185958026Y-185536185D01*
X185958026Y-185536185D02*
X186029455Y-185464757D01*
X186029455Y-185464757D02*
X186172312Y-185393328D01*
X186172312Y-185393328D02*
X186315169Y-185393328D01*
X186815168Y-186393328D02*
X186815168Y-185393328D01*
X186815168Y-184893328D02*
X186743740Y-184964757D01*
X186743740Y-184964757D02*
X186815168Y-185036185D01*
X186815168Y-185036185D02*
X186886597Y-184964757D01*
X186886597Y-184964757D02*
X186815168Y-184893328D01*
X186815168Y-184893328D02*
X186815168Y-185036185D01*
X187386597Y-185393328D02*
X187743740Y-186393328D01*
X187743740Y-186393328D02*
X188100883Y-185393328D01*
X189243740Y-186321900D02*
X189100883Y-186393328D01*
X189100883Y-186393328D02*
X188815169Y-186393328D01*
X188815169Y-186393328D02*
X188672311Y-186321900D01*
X188672311Y-186321900D02*
X188600883Y-186179042D01*
X188600883Y-186179042D02*
X188600883Y-185607614D01*
X188600883Y-185607614D02*
X188672311Y-185464757D01*
X188672311Y-185464757D02*
X188815169Y-185393328D01*
X188815169Y-185393328D02*
X189100883Y-185393328D01*
X189100883Y-185393328D02*
X189243740Y-185464757D01*
X189243740Y-185464757D02*
X189315169Y-185607614D01*
X189315169Y-185607614D02*
X189315169Y-185750471D01*
X189315169Y-185750471D02*
X188600883Y-185893328D01*
X189958025Y-186393328D02*
X189958025Y-185393328D01*
X189958025Y-185679042D02*
X190029454Y-185536185D01*
X190029454Y-185536185D02*
X190100883Y-185464757D01*
X190100883Y-185464757D02*
X190243740Y-185393328D01*
X190243740Y-185393328D02*
X190386597Y-185393328D01*
X191743739Y-186393328D02*
X191243739Y-185679042D01*
X190886596Y-186393328D02*
X190886596Y-184893328D01*
X190886596Y-184893328D02*
X191458025Y-184893328D01*
X191458025Y-184893328D02*
X191600882Y-184964757D01*
X191600882Y-184964757D02*
X191672311Y-185036185D01*
X191672311Y-185036185D02*
X191743739Y-185179042D01*
X191743739Y-185179042D02*
X191743739Y-185393328D01*
X191743739Y-185393328D02*
X191672311Y-185536185D01*
X191672311Y-185536185D02*
X191600882Y-185607614D01*
X191600882Y-185607614D02*
X191458025Y-185679042D01*
X191458025Y-185679042D02*
X190886596Y-185679042D01*
X193172311Y-184964757D02*
X193029454Y-184893328D01*
X193029454Y-184893328D02*
X192815168Y-184893328D01*
X192815168Y-184893328D02*
X192600882Y-184964757D01*
X192600882Y-184964757D02*
X192458025Y-185107614D01*
X192458025Y-185107614D02*
X192386596Y-185250471D01*
X192386596Y-185250471D02*
X192315168Y-185536185D01*
X192315168Y-185536185D02*
X192315168Y-185750471D01*
X192315168Y-185750471D02*
X192386596Y-186036185D01*
X192386596Y-186036185D02*
X192458025Y-186179042D01*
X192458025Y-186179042D02*
X192600882Y-186321900D01*
X192600882Y-186321900D02*
X192815168Y-186393328D01*
X192815168Y-186393328D02*
X192958025Y-186393328D01*
X192958025Y-186393328D02*
X193172311Y-186321900D01*
X193172311Y-186321900D02*
X193243739Y-186250471D01*
X193243739Y-186250471D02*
X193243739Y-185750471D01*
X193243739Y-185750471D02*
X192958025Y-185750471D01*
X194386596Y-185607614D02*
X194600882Y-185679042D01*
X194600882Y-185679042D02*
X194672311Y-185750471D01*
X194672311Y-185750471D02*
X194743739Y-185893328D01*
X194743739Y-185893328D02*
X194743739Y-186107614D01*
X194743739Y-186107614D02*
X194672311Y-186250471D01*
X194672311Y-186250471D02*
X194600882Y-186321900D01*
X194600882Y-186321900D02*
X194458025Y-186393328D01*
X194458025Y-186393328D02*
X193886596Y-186393328D01*
X193886596Y-186393328D02*
X193886596Y-184893328D01*
X193886596Y-184893328D02*
X194386596Y-184893328D01*
X194386596Y-184893328D02*
X194529454Y-184964757D01*
X194529454Y-184964757D02*
X194600882Y-185036185D01*
X194600882Y-185036185D02*
X194672311Y-185179042D01*
X194672311Y-185179042D02*
X194672311Y-185321900D01*
X194672311Y-185321900D02*
X194600882Y-185464757D01*
X194600882Y-185464757D02*
X194529454Y-185536185D01*
X194529454Y-185536185D02*
X194386596Y-185607614D01*
X194386596Y-185607614D02*
X193886596Y-185607614D01*
X195029454Y-186536185D02*
X196172311Y-186536185D01*
X196386596Y-185393328D02*
X196743739Y-186393328D01*
X196743739Y-186393328D02*
X197100882Y-185393328D01*
X197600882Y-185036185D02*
X197672310Y-184964757D01*
X197672310Y-184964757D02*
X197815168Y-184893328D01*
X197815168Y-184893328D02*
X198172310Y-184893328D01*
X198172310Y-184893328D02*
X198315168Y-184964757D01*
X198315168Y-184964757D02*
X198386596Y-185036185D01*
X198386596Y-185036185D02*
X198458025Y-185179042D01*
X198458025Y-185179042D02*
X198458025Y-185321900D01*
X198458025Y-185321900D02*
X198386596Y-185536185D01*
X198386596Y-185536185D02*
X197529453Y-186393328D01*
X197529453Y-186393328D02*
X198458025Y-186393328D01*
X199100881Y-186250471D02*
X199172310Y-186321900D01*
X199172310Y-186321900D02*
X199100881Y-186393328D01*
X199100881Y-186393328D02*
X199029453Y-186321900D01*
X199029453Y-186321900D02*
X199100881Y-186250471D01*
X199100881Y-186250471D02*
X199100881Y-186393328D01*
X199815167Y-186393328D02*
X199815167Y-184893328D01*
X199958025Y-185821900D02*
X200386596Y-186393328D01*
X200386596Y-185393328D02*
X199815167Y-185964757D01*
X201029453Y-186393328D02*
X201029453Y-185393328D01*
X201029453Y-184893328D02*
X200958025Y-184964757D01*
X200958025Y-184964757D02*
X201029453Y-185036185D01*
X201029453Y-185036185D02*
X201100882Y-184964757D01*
X201100882Y-184964757D02*
X201029453Y-184893328D01*
X201029453Y-184893328D02*
X201029453Y-185036185D01*
X202386597Y-186321900D02*
X202243739Y-186393328D01*
X202243739Y-186393328D02*
X201958025Y-186393328D01*
X201958025Y-186393328D02*
X201815168Y-186321900D01*
X201815168Y-186321900D02*
X201743739Y-186250471D01*
X201743739Y-186250471D02*
X201672311Y-186107614D01*
X201672311Y-186107614D02*
X201672311Y-185679042D01*
X201672311Y-185679042D02*
X201743739Y-185536185D01*
X201743739Y-185536185D02*
X201815168Y-185464757D01*
X201815168Y-185464757D02*
X201958025Y-185393328D01*
X201958025Y-185393328D02*
X202243739Y-185393328D01*
X202243739Y-185393328D02*
X202386597Y-185464757D01*
X203672311Y-186393328D02*
X203672311Y-185607614D01*
X203672311Y-185607614D02*
X203600882Y-185464757D01*
X203600882Y-185464757D02*
X203458025Y-185393328D01*
X203458025Y-185393328D02*
X203172311Y-185393328D01*
X203172311Y-185393328D02*
X203029453Y-185464757D01*
X203672311Y-186321900D02*
X203529453Y-186393328D01*
X203529453Y-186393328D02*
X203172311Y-186393328D01*
X203172311Y-186393328D02*
X203029453Y-186321900D01*
X203029453Y-186321900D02*
X202958025Y-186179042D01*
X202958025Y-186179042D02*
X202958025Y-186036185D01*
X202958025Y-186036185D02*
X203029453Y-185893328D01*
X203029453Y-185893328D02*
X203172311Y-185821900D01*
X203172311Y-185821900D02*
X203529453Y-185821900D01*
X203529453Y-185821900D02*
X203672311Y-185750471D01*
X205029454Y-186393328D02*
X205029454Y-184893328D01*
X205029454Y-186321900D02*
X204886596Y-186393328D01*
X204886596Y-186393328D02*
X204600882Y-186393328D01*
X204600882Y-186393328D02*
X204458025Y-186321900D01*
X204458025Y-186321900D02*
X204386596Y-186250471D01*
X204386596Y-186250471D02*
X204315168Y-186107614D01*
X204315168Y-186107614D02*
X204315168Y-185679042D01*
X204315168Y-185679042D02*
X204386596Y-185536185D01*
X204386596Y-185536185D02*
X204458025Y-185464757D01*
X204458025Y-185464757D02*
X204600882Y-185393328D01*
X204600882Y-185393328D02*
X204886596Y-185393328D01*
X204886596Y-185393328D02*
X205029454Y-185464757D01*
X205386597Y-186536185D02*
X206529454Y-186536185D01*
X206886596Y-185393328D02*
X206886596Y-186893328D01*
X206886596Y-185464757D02*
X207029454Y-185393328D01*
X207029454Y-185393328D02*
X207315168Y-185393328D01*
X207315168Y-185393328D02*
X207458025Y-185464757D01*
X207458025Y-185464757D02*
X207529454Y-185536185D01*
X207529454Y-185536185D02*
X207600882Y-185679042D01*
X207600882Y-185679042D02*
X207600882Y-186107614D01*
X207600882Y-186107614D02*
X207529454Y-186250471D01*
X207529454Y-186250471D02*
X207458025Y-186321900D01*
X207458025Y-186321900D02*
X207315168Y-186393328D01*
X207315168Y-186393328D02*
X207029454Y-186393328D01*
X207029454Y-186393328D02*
X206886596Y-186321900D01*
X208886597Y-186321900D02*
X208743739Y-186393328D01*
X208743739Y-186393328D02*
X208458025Y-186393328D01*
X208458025Y-186393328D02*
X208315168Y-186321900D01*
X208315168Y-186321900D02*
X208243739Y-186250471D01*
X208243739Y-186250471D02*
X208172311Y-186107614D01*
X208172311Y-186107614D02*
X208172311Y-185679042D01*
X208172311Y-185679042D02*
X208243739Y-185536185D01*
X208243739Y-185536185D02*
X208315168Y-185464757D01*
X208315168Y-185464757D02*
X208458025Y-185393328D01*
X208458025Y-185393328D02*
X208743739Y-185393328D01*
X208743739Y-185393328D02*
X208886597Y-185464757D01*
X209529453Y-186393328D02*
X209529453Y-184893328D01*
X209529453Y-185464757D02*
X209672311Y-185393328D01*
X209672311Y-185393328D02*
X209958025Y-185393328D01*
X209958025Y-185393328D02*
X210100882Y-185464757D01*
X210100882Y-185464757D02*
X210172311Y-185536185D01*
X210172311Y-185536185D02*
X210243739Y-185679042D01*
X210243739Y-185679042D02*
X210243739Y-186107614D01*
X210243739Y-186107614D02*
X210172311Y-186250471D01*
X210172311Y-186250471D02*
X210100882Y-186321900D01*
X210100882Y-186321900D02*
X209958025Y-186393328D01*
X209958025Y-186393328D02*
X209672311Y-186393328D01*
X209672311Y-186393328D02*
X209529453Y-186321900D01*
D10*
D11*
X177002200Y-181507200D02*
X285002200Y-181507200D01*
D10*
D11*
X178386598Y-183621900D02*
X178600884Y-183693328D01*
X178600884Y-183693328D02*
X178958026Y-183693328D01*
X178958026Y-183693328D02*
X179100884Y-183621900D01*
X179100884Y-183621900D02*
X179172312Y-183550471D01*
X179172312Y-183550471D02*
X179243741Y-183407614D01*
X179243741Y-183407614D02*
X179243741Y-183264757D01*
X179243741Y-183264757D02*
X179172312Y-183121900D01*
X179172312Y-183121900D02*
X179100884Y-183050471D01*
X179100884Y-183050471D02*
X178958026Y-182979042D01*
X178958026Y-182979042D02*
X178672312Y-182907614D01*
X178672312Y-182907614D02*
X178529455Y-182836185D01*
X178529455Y-182836185D02*
X178458026Y-182764757D01*
X178458026Y-182764757D02*
X178386598Y-182621900D01*
X178386598Y-182621900D02*
X178386598Y-182479042D01*
X178386598Y-182479042D02*
X178458026Y-182336185D01*
X178458026Y-182336185D02*
X178529455Y-182264757D01*
X178529455Y-182264757D02*
X178672312Y-182193328D01*
X178672312Y-182193328D02*
X179029455Y-182193328D01*
X179029455Y-182193328D02*
X179243741Y-182264757D01*
X179886597Y-183693328D02*
X179886597Y-182193328D01*
X180529455Y-183693328D02*
X180529455Y-182907614D01*
X180529455Y-182907614D02*
X180458026Y-182764757D01*
X180458026Y-182764757D02*
X180315169Y-182693328D01*
X180315169Y-182693328D02*
X180100883Y-182693328D01*
X180100883Y-182693328D02*
X179958026Y-182764757D01*
X179958026Y-182764757D02*
X179886597Y-182836185D01*
X181815169Y-183621900D02*
X181672312Y-183693328D01*
X181672312Y-183693328D02*
X181386598Y-183693328D01*
X181386598Y-183693328D02*
X181243740Y-183621900D01*
X181243740Y-183621900D02*
X181172312Y-183479042D01*
X181172312Y-183479042D02*
X181172312Y-182907614D01*
X181172312Y-182907614D02*
X181243740Y-182764757D01*
X181243740Y-182764757D02*
X181386598Y-182693328D01*
X181386598Y-182693328D02*
X181672312Y-182693328D01*
X181672312Y-182693328D02*
X181815169Y-182764757D01*
X181815169Y-182764757D02*
X181886598Y-182907614D01*
X181886598Y-182907614D02*
X181886598Y-183050471D01*
X181886598Y-183050471D02*
X181172312Y-183193328D01*
X183100883Y-183621900D02*
X182958026Y-183693328D01*
X182958026Y-183693328D02*
X182672312Y-183693328D01*
X182672312Y-183693328D02*
X182529454Y-183621900D01*
X182529454Y-183621900D02*
X182458026Y-183479042D01*
X182458026Y-183479042D02*
X182458026Y-182907614D01*
X182458026Y-182907614D02*
X182529454Y-182764757D01*
X182529454Y-182764757D02*
X182672312Y-182693328D01*
X182672312Y-182693328D02*
X182958026Y-182693328D01*
X182958026Y-182693328D02*
X183100883Y-182764757D01*
X183100883Y-182764757D02*
X183172312Y-182907614D01*
X183172312Y-182907614D02*
X183172312Y-183050471D01*
X183172312Y-183050471D02*
X182458026Y-183193328D01*
X183600883Y-182693328D02*
X184172311Y-182693328D01*
X183815168Y-182193328D02*
X183815168Y-183479042D01*
X183815168Y-183479042D02*
X183886597Y-183621900D01*
X183886597Y-183621900D02*
X184029454Y-183693328D01*
X184029454Y-183693328D02*
X184172311Y-183693328D01*
X184672311Y-183550471D02*
X184743740Y-183621900D01*
X184743740Y-183621900D02*
X184672311Y-183693328D01*
X184672311Y-183693328D02*
X184600883Y-183621900D01*
X184600883Y-183621900D02*
X184672311Y-183550471D01*
X184672311Y-183550471D02*
X184672311Y-183693328D01*
X184672311Y-182764757D02*
X184743740Y-182836185D01*
X184743740Y-182836185D02*
X184672311Y-182907614D01*
X184672311Y-182907614D02*
X184600883Y-182836185D01*
X184600883Y-182836185D02*
X184672311Y-182764757D01*
X184672311Y-182764757D02*
X184672311Y-182907614D01*
D10*
D12*
X178556710Y-180685528D02*
X178556710Y-179185528D01*
X178556710Y-179185528D02*
X179128139Y-179185528D01*
X179128139Y-179185528D02*
X179270996Y-179256957D01*
X179270996Y-179256957D02*
X179342425Y-179328385D01*
X179342425Y-179328385D02*
X179413853Y-179471242D01*
X179413853Y-179471242D02*
X179413853Y-179685528D01*
X179413853Y-179685528D02*
X179342425Y-179828385D01*
X179342425Y-179828385D02*
X179270996Y-179899814D01*
X179270996Y-179899814D02*
X179128139Y-179971242D01*
X179128139Y-179971242D02*
X178556710Y-179971242D01*
X180913853Y-180542671D02*
X180842425Y-180614100D01*
X180842425Y-180614100D02*
X180628139Y-180685528D01*
X180628139Y-180685528D02*
X180485282Y-180685528D01*
X180485282Y-180685528D02*
X180270996Y-180614100D01*
X180270996Y-180614100D02*
X180128139Y-180471242D01*
X180128139Y-180471242D02*
X180056710Y-180328385D01*
X180056710Y-180328385D02*
X179985282Y-180042671D01*
X179985282Y-180042671D02*
X179985282Y-179828385D01*
X179985282Y-179828385D02*
X180056710Y-179542671D01*
X180056710Y-179542671D02*
X180128139Y-179399814D01*
X180128139Y-179399814D02*
X180270996Y-179256957D01*
X180270996Y-179256957D02*
X180485282Y-179185528D01*
X180485282Y-179185528D02*
X180628139Y-179185528D01*
X180628139Y-179185528D02*
X180842425Y-179256957D01*
X180842425Y-179256957D02*
X180913853Y-179328385D01*
X182056710Y-179899814D02*
X182270996Y-179971242D01*
X182270996Y-179971242D02*
X182342425Y-180042671D01*
X182342425Y-180042671D02*
X182413853Y-180185528D01*
X182413853Y-180185528D02*
X182413853Y-180399814D01*
X182413853Y-180399814D02*
X182342425Y-180542671D01*
X182342425Y-180542671D02*
X182270996Y-180614100D01*
X182270996Y-180614100D02*
X182128139Y-180685528D01*
X182128139Y-180685528D02*
X181556710Y-180685528D01*
X181556710Y-180685528D02*
X181556710Y-179185528D01*
X181556710Y-179185528D02*
X182056710Y-179185528D01*
X182056710Y-179185528D02*
X182199568Y-179256957D01*
X182199568Y-179256957D02*
X182270996Y-179328385D01*
X182270996Y-179328385D02*
X182342425Y-179471242D01*
X182342425Y-179471242D02*
X182342425Y-179614100D01*
X182342425Y-179614100D02*
X182270996Y-179756957D01*
X182270996Y-179756957D02*
X182199568Y-179828385D01*
X182199568Y-179828385D02*
X182056710Y-179899814D01*
X182056710Y-179899814D02*
X181556710Y-179899814D01*
D10*
D11*
X178458026Y-176907614D02*
X178958026Y-176907614D01*
X179172312Y-177693328D02*
X178458026Y-177693328D01*
X178458026Y-177693328D02*
X178458026Y-176193328D01*
X178458026Y-176193328D02*
X179172312Y-176193328D01*
X180458027Y-177693328D02*
X180458027Y-176193328D01*
X180458027Y-177621900D02*
X180315169Y-177693328D01*
X180315169Y-177693328D02*
X180029455Y-177693328D01*
X180029455Y-177693328D02*
X179886598Y-177621900D01*
X179886598Y-177621900D02*
X179815169Y-177550471D01*
X179815169Y-177550471D02*
X179743741Y-177407614D01*
X179743741Y-177407614D02*
X179743741Y-176979042D01*
X179743741Y-176979042D02*
X179815169Y-176836185D01*
X179815169Y-176836185D02*
X179886598Y-176764757D01*
X179886598Y-176764757D02*
X180029455Y-176693328D01*
X180029455Y-176693328D02*
X180315169Y-176693328D01*
X180315169Y-176693328D02*
X180458027Y-176764757D01*
X181815170Y-176693328D02*
X181815170Y-177907614D01*
X181815170Y-177907614D02*
X181743741Y-178050471D01*
X181743741Y-178050471D02*
X181672312Y-178121900D01*
X181672312Y-178121900D02*
X181529455Y-178193328D01*
X181529455Y-178193328D02*
X181315170Y-178193328D01*
X181315170Y-178193328D02*
X181172312Y-178121900D01*
X181815170Y-177621900D02*
X181672312Y-177693328D01*
X181672312Y-177693328D02*
X181386598Y-177693328D01*
X181386598Y-177693328D02*
X181243741Y-177621900D01*
X181243741Y-177621900D02*
X181172312Y-177550471D01*
X181172312Y-177550471D02*
X181100884Y-177407614D01*
X181100884Y-177407614D02*
X181100884Y-176979042D01*
X181100884Y-176979042D02*
X181172312Y-176836185D01*
X181172312Y-176836185D02*
X181243741Y-176764757D01*
X181243741Y-176764757D02*
X181386598Y-176693328D01*
X181386598Y-176693328D02*
X181672312Y-176693328D01*
X181672312Y-176693328D02*
X181815170Y-176764757D01*
X183100884Y-177621900D02*
X182958027Y-177693328D01*
X182958027Y-177693328D02*
X182672313Y-177693328D01*
X182672313Y-177693328D02*
X182529455Y-177621900D01*
X182529455Y-177621900D02*
X182458027Y-177479042D01*
X182458027Y-177479042D02*
X182458027Y-176907614D01*
X182458027Y-176907614D02*
X182529455Y-176764757D01*
X182529455Y-176764757D02*
X182672313Y-176693328D01*
X182672313Y-176693328D02*
X182958027Y-176693328D01*
X182958027Y-176693328D02*
X183100884Y-176764757D01*
X183100884Y-176764757D02*
X183172313Y-176907614D01*
X183172313Y-176907614D02*
X183172313Y-177050471D01*
X183172313Y-177050471D02*
X182458027Y-177193328D01*
X185815169Y-177550471D02*
X185743741Y-177621900D01*
X185743741Y-177621900D02*
X185529455Y-177693328D01*
X185529455Y-177693328D02*
X185386598Y-177693328D01*
X185386598Y-177693328D02*
X185172312Y-177621900D01*
X185172312Y-177621900D02*
X185029455Y-177479042D01*
X185029455Y-177479042D02*
X184958026Y-177336185D01*
X184958026Y-177336185D02*
X184886598Y-177050471D01*
X184886598Y-177050471D02*
X184886598Y-176836185D01*
X184886598Y-176836185D02*
X184958026Y-176550471D01*
X184958026Y-176550471D02*
X185029455Y-176407614D01*
X185029455Y-176407614D02*
X185172312Y-176264757D01*
X185172312Y-176264757D02*
X185386598Y-176193328D01*
X185386598Y-176193328D02*
X185529455Y-176193328D01*
X185529455Y-176193328D02*
X185743741Y-176264757D01*
X185743741Y-176264757D02*
X185815169Y-176336185D01*
X187100884Y-176693328D02*
X187100884Y-177693328D01*
X186458026Y-176693328D02*
X186458026Y-177479042D01*
X186458026Y-177479042D02*
X186529455Y-177621900D01*
X186529455Y-177621900D02*
X186672312Y-177693328D01*
X186672312Y-177693328D02*
X186886598Y-177693328D01*
X186886598Y-177693328D02*
X187029455Y-177621900D01*
X187029455Y-177621900D02*
X187100884Y-177550471D01*
X187600884Y-176693328D02*
X188172312Y-176693328D01*
X187815169Y-176193328D02*
X187815169Y-177479042D01*
X187815169Y-177479042D02*
X187886598Y-177621900D01*
X187886598Y-177621900D02*
X188029455Y-177693328D01*
X188029455Y-177693328D02*
X188172312Y-177693328D01*
X188600884Y-177621900D02*
X188743741Y-177693328D01*
X188743741Y-177693328D02*
X189029455Y-177693328D01*
X189029455Y-177693328D02*
X189172312Y-177621900D01*
X189172312Y-177621900D02*
X189243741Y-177479042D01*
X189243741Y-177479042D02*
X189243741Y-177407614D01*
X189243741Y-177407614D02*
X189172312Y-177264757D01*
X189172312Y-177264757D02*
X189029455Y-177193328D01*
X189029455Y-177193328D02*
X188815170Y-177193328D01*
X188815170Y-177193328D02*
X188672312Y-177121900D01*
X188672312Y-177121900D02*
X188600884Y-176979042D01*
X188600884Y-176979042D02*
X188600884Y-176907614D01*
X188600884Y-176907614D02*
X188672312Y-176764757D01*
X188672312Y-176764757D02*
X188815170Y-176693328D01*
X188815170Y-176693328D02*
X189029455Y-176693328D01*
X189029455Y-176693328D02*
X189172312Y-176764757D01*
D10*
D11*
X178386598Y-174264757D02*
X179100884Y-174264757D01*
X178243741Y-174693328D02*
X178743741Y-173193328D01*
X178743741Y-173193328D02*
X179243741Y-174693328D01*
X180386598Y-173693328D02*
X180386598Y-174693328D01*
X179743740Y-173693328D02*
X179743740Y-174479042D01*
X179743740Y-174479042D02*
X179815169Y-174621900D01*
X179815169Y-174621900D02*
X179958026Y-174693328D01*
X179958026Y-174693328D02*
X180172312Y-174693328D01*
X180172312Y-174693328D02*
X180315169Y-174621900D01*
X180315169Y-174621900D02*
X180386598Y-174550471D01*
X180886598Y-173693328D02*
X181458026Y-173693328D01*
X181100883Y-173193328D02*
X181100883Y-174479042D01*
X181100883Y-174479042D02*
X181172312Y-174621900D01*
X181172312Y-174621900D02*
X181315169Y-174693328D01*
X181315169Y-174693328D02*
X181458026Y-174693328D01*
X181958026Y-174693328D02*
X181958026Y-173193328D01*
X182600884Y-174693328D02*
X182600884Y-173907614D01*
X182600884Y-173907614D02*
X182529455Y-173764757D01*
X182529455Y-173764757D02*
X182386598Y-173693328D01*
X182386598Y-173693328D02*
X182172312Y-173693328D01*
X182172312Y-173693328D02*
X182029455Y-173764757D01*
X182029455Y-173764757D02*
X181958026Y-173836185D01*
X183529455Y-174693328D02*
X183386598Y-174621900D01*
X183386598Y-174621900D02*
X183315169Y-174550471D01*
X183315169Y-174550471D02*
X183243741Y-174407614D01*
X183243741Y-174407614D02*
X183243741Y-173979042D01*
X183243741Y-173979042D02*
X183315169Y-173836185D01*
X183315169Y-173836185D02*
X183386598Y-173764757D01*
X183386598Y-173764757D02*
X183529455Y-173693328D01*
X183529455Y-173693328D02*
X183743741Y-173693328D01*
X183743741Y-173693328D02*
X183886598Y-173764757D01*
X183886598Y-173764757D02*
X183958027Y-173836185D01*
X183958027Y-173836185D02*
X184029455Y-173979042D01*
X184029455Y-173979042D02*
X184029455Y-174407614D01*
X184029455Y-174407614D02*
X183958027Y-174550471D01*
X183958027Y-174550471D02*
X183886598Y-174621900D01*
X183886598Y-174621900D02*
X183743741Y-174693328D01*
X183743741Y-174693328D02*
X183529455Y-174693328D01*
X184672312Y-174693328D02*
X184672312Y-173693328D01*
X184672312Y-173979042D02*
X184743741Y-173836185D01*
X184743741Y-173836185D02*
X184815170Y-173764757D01*
X184815170Y-173764757D02*
X184958027Y-173693328D01*
X184958027Y-173693328D02*
X185100884Y-173693328D01*
X185600883Y-174550471D02*
X185672312Y-174621900D01*
X185672312Y-174621900D02*
X185600883Y-174693328D01*
X185600883Y-174693328D02*
X185529455Y-174621900D01*
X185529455Y-174621900D02*
X185600883Y-174550471D01*
X185600883Y-174550471D02*
X185600883Y-174693328D01*
X185600883Y-173764757D02*
X185672312Y-173836185D01*
X185672312Y-173836185D02*
X185600883Y-173907614D01*
X185600883Y-173907614D02*
X185529455Y-173836185D01*
X185529455Y-173836185D02*
X185600883Y-173764757D01*
X185600883Y-173764757D02*
X185600883Y-173907614D01*
X187886598Y-173193328D02*
X187886598Y-174264757D01*
X187886598Y-174264757D02*
X187815169Y-174479042D01*
X187815169Y-174479042D02*
X187672312Y-174621900D01*
X187672312Y-174621900D02*
X187458026Y-174693328D01*
X187458026Y-174693328D02*
X187315169Y-174693328D01*
X189243741Y-173693328D02*
X189243741Y-174693328D01*
X188600883Y-173693328D02*
X188600883Y-174479042D01*
X188600883Y-174479042D02*
X188672312Y-174621900D01*
X188672312Y-174621900D02*
X188815169Y-174693328D01*
X188815169Y-174693328D02*
X189029455Y-174693328D01*
X189029455Y-174693328D02*
X189172312Y-174621900D01*
X189172312Y-174621900D02*
X189243741Y-174550471D01*
X190600884Y-174693328D02*
X190600884Y-173907614D01*
X190600884Y-173907614D02*
X190529455Y-173764757D01*
X190529455Y-173764757D02*
X190386598Y-173693328D01*
X190386598Y-173693328D02*
X190100884Y-173693328D01*
X190100884Y-173693328D02*
X189958026Y-173764757D01*
X190600884Y-174621900D02*
X190458026Y-174693328D01*
X190458026Y-174693328D02*
X190100884Y-174693328D01*
X190100884Y-174693328D02*
X189958026Y-174621900D01*
X189958026Y-174621900D02*
X189886598Y-174479042D01*
X189886598Y-174479042D02*
X189886598Y-174336185D01*
X189886598Y-174336185D02*
X189958026Y-174193328D01*
X189958026Y-174193328D02*
X190100884Y-174121900D01*
X190100884Y-174121900D02*
X190458026Y-174121900D01*
X190458026Y-174121900D02*
X190600884Y-174050471D01*
X191315169Y-173693328D02*
X191315169Y-174693328D01*
X191315169Y-173836185D02*
X191386598Y-173764757D01*
X191386598Y-173764757D02*
X191529455Y-173693328D01*
X191529455Y-173693328D02*
X191743741Y-173693328D01*
X191743741Y-173693328D02*
X191886598Y-173764757D01*
X191886598Y-173764757D02*
X191958027Y-173907614D01*
X191958027Y-173907614D02*
X191958027Y-174693328D01*
X193743741Y-174264757D02*
X194458027Y-174264757D01*
X193600884Y-174693328D02*
X194100884Y-173193328D01*
X194100884Y-173193328D02*
X194600884Y-174693328D01*
X195100883Y-173693328D02*
X195100883Y-174693328D01*
X195100883Y-173836185D02*
X195172312Y-173764757D01*
X195172312Y-173764757D02*
X195315169Y-173693328D01*
X195315169Y-173693328D02*
X195529455Y-173693328D01*
X195529455Y-173693328D02*
X195672312Y-173764757D01*
X195672312Y-173764757D02*
X195743741Y-173907614D01*
X195743741Y-173907614D02*
X195743741Y-174693328D01*
X196243741Y-173693328D02*
X196815169Y-173693328D01*
X196458026Y-173193328D02*
X196458026Y-174479042D01*
X196458026Y-174479042D02*
X196529455Y-174621900D01*
X196529455Y-174621900D02*
X196672312Y-174693328D01*
X196672312Y-174693328D02*
X196815169Y-174693328D01*
X197529455Y-174693328D02*
X197386598Y-174621900D01*
X197386598Y-174621900D02*
X197315169Y-174550471D01*
X197315169Y-174550471D02*
X197243741Y-174407614D01*
X197243741Y-174407614D02*
X197243741Y-173979042D01*
X197243741Y-173979042D02*
X197315169Y-173836185D01*
X197315169Y-173836185D02*
X197386598Y-173764757D01*
X197386598Y-173764757D02*
X197529455Y-173693328D01*
X197529455Y-173693328D02*
X197743741Y-173693328D01*
X197743741Y-173693328D02*
X197886598Y-173764757D01*
X197886598Y-173764757D02*
X197958027Y-173836185D01*
X197958027Y-173836185D02*
X198029455Y-173979042D01*
X198029455Y-173979042D02*
X198029455Y-174407614D01*
X198029455Y-174407614D02*
X197958027Y-174550471D01*
X197958027Y-174550471D02*
X197886598Y-174621900D01*
X197886598Y-174621900D02*
X197743741Y-174693328D01*
X197743741Y-174693328D02*
X197529455Y-174693328D01*
X198672312Y-173693328D02*
X198672312Y-174693328D01*
X198672312Y-173836185D02*
X198743741Y-173764757D01*
X198743741Y-173764757D02*
X198886598Y-173693328D01*
X198886598Y-173693328D02*
X199100884Y-173693328D01*
X199100884Y-173693328D02*
X199243741Y-173764757D01*
X199243741Y-173764757D02*
X199315170Y-173907614D01*
X199315170Y-173907614D02*
X199315170Y-174693328D01*
X200029455Y-174693328D02*
X200029455Y-173693328D01*
X200029455Y-173193328D02*
X199958027Y-173264757D01*
X199958027Y-173264757D02*
X200029455Y-173336185D01*
X200029455Y-173336185D02*
X200100884Y-173264757D01*
X200100884Y-173264757D02*
X200029455Y-173193328D01*
X200029455Y-173193328D02*
X200029455Y-173336185D01*
X200958027Y-174693328D02*
X200815170Y-174621900D01*
X200815170Y-174621900D02*
X200743741Y-174550471D01*
X200743741Y-174550471D02*
X200672313Y-174407614D01*
X200672313Y-174407614D02*
X200672313Y-173979042D01*
X200672313Y-173979042D02*
X200743741Y-173836185D01*
X200743741Y-173836185D02*
X200815170Y-173764757D01*
X200815170Y-173764757D02*
X200958027Y-173693328D01*
X200958027Y-173693328D02*
X201172313Y-173693328D01*
X201172313Y-173693328D02*
X201315170Y-173764757D01*
X201315170Y-173764757D02*
X201386599Y-173836185D01*
X201386599Y-173836185D02*
X201458027Y-173979042D01*
X201458027Y-173979042D02*
X201458027Y-174407614D01*
X201458027Y-174407614D02*
X201386599Y-174550471D01*
X201386599Y-174550471D02*
X201315170Y-174621900D01*
X201315170Y-174621900D02*
X201172313Y-174693328D01*
X201172313Y-174693328D02*
X200958027Y-174693328D01*
X203243741Y-174693328D02*
X203243741Y-173193328D01*
X203243741Y-173907614D02*
X204100884Y-173907614D01*
X204100884Y-174693328D02*
X204100884Y-173193328D01*
X204815170Y-174693328D02*
X204815170Y-173693328D01*
X204815170Y-173193328D02*
X204743742Y-173264757D01*
X204743742Y-173264757D02*
X204815170Y-173336185D01*
X204815170Y-173336185D02*
X204886599Y-173264757D01*
X204886599Y-173264757D02*
X204815170Y-173193328D01*
X204815170Y-173193328D02*
X204815170Y-173336185D01*
X206172314Y-174693328D02*
X206172314Y-173193328D01*
X206172314Y-174621900D02*
X206029456Y-174693328D01*
X206029456Y-174693328D02*
X205743742Y-174693328D01*
X205743742Y-174693328D02*
X205600885Y-174621900D01*
X205600885Y-174621900D02*
X205529456Y-174550471D01*
X205529456Y-174550471D02*
X205458028Y-174407614D01*
X205458028Y-174407614D02*
X205458028Y-173979042D01*
X205458028Y-173979042D02*
X205529456Y-173836185D01*
X205529456Y-173836185D02*
X205600885Y-173764757D01*
X205600885Y-173764757D02*
X205743742Y-173693328D01*
X205743742Y-173693328D02*
X206029456Y-173693328D01*
X206029456Y-173693328D02*
X206172314Y-173764757D01*
X207529457Y-174693328D02*
X207529457Y-173907614D01*
X207529457Y-173907614D02*
X207458028Y-173764757D01*
X207458028Y-173764757D02*
X207315171Y-173693328D01*
X207315171Y-173693328D02*
X207029457Y-173693328D01*
X207029457Y-173693328D02*
X206886599Y-173764757D01*
X207529457Y-174621900D02*
X207386599Y-174693328D01*
X207386599Y-174693328D02*
X207029457Y-174693328D01*
X207029457Y-174693328D02*
X206886599Y-174621900D01*
X206886599Y-174621900D02*
X206815171Y-174479042D01*
X206815171Y-174479042D02*
X206815171Y-174336185D01*
X206815171Y-174336185D02*
X206886599Y-174193328D01*
X206886599Y-174193328D02*
X207029457Y-174121900D01*
X207029457Y-174121900D02*
X207386599Y-174121900D01*
X207386599Y-174121900D02*
X207529457Y-174050471D01*
X208458028Y-174693328D02*
X208315171Y-174621900D01*
X208315171Y-174621900D02*
X208243742Y-174479042D01*
X208243742Y-174479042D02*
X208243742Y-173193328D01*
X209672314Y-173693328D02*
X209672314Y-174907614D01*
X209672314Y-174907614D02*
X209600885Y-175050471D01*
X209600885Y-175050471D02*
X209529456Y-175121900D01*
X209529456Y-175121900D02*
X209386599Y-175193328D01*
X209386599Y-175193328D02*
X209172314Y-175193328D01*
X209172314Y-175193328D02*
X209029456Y-175121900D01*
X209672314Y-174621900D02*
X209529456Y-174693328D01*
X209529456Y-174693328D02*
X209243742Y-174693328D01*
X209243742Y-174693328D02*
X209100885Y-174621900D01*
X209100885Y-174621900D02*
X209029456Y-174550471D01*
X209029456Y-174550471D02*
X208958028Y-174407614D01*
X208958028Y-174407614D02*
X208958028Y-173979042D01*
X208958028Y-173979042D02*
X209029456Y-173836185D01*
X209029456Y-173836185D02*
X209100885Y-173764757D01*
X209100885Y-173764757D02*
X209243742Y-173693328D01*
X209243742Y-173693328D02*
X209529456Y-173693328D01*
X209529456Y-173693328D02*
X209672314Y-173764757D01*
X210600885Y-174693328D02*
X210458028Y-174621900D01*
X210458028Y-174621900D02*
X210386599Y-174550471D01*
X210386599Y-174550471D02*
X210315171Y-174407614D01*
X210315171Y-174407614D02*
X210315171Y-173979042D01*
X210315171Y-173979042D02*
X210386599Y-173836185D01*
X210386599Y-173836185D02*
X210458028Y-173764757D01*
X210458028Y-173764757D02*
X210600885Y-173693328D01*
X210600885Y-173693328D02*
X210815171Y-173693328D01*
X210815171Y-173693328D02*
X210958028Y-173764757D01*
X210958028Y-173764757D02*
X211029457Y-173836185D01*
X211029457Y-173836185D02*
X211100885Y-173979042D01*
X211100885Y-173979042D02*
X211100885Y-174407614D01*
X211100885Y-174407614D02*
X211029457Y-174550471D01*
X211029457Y-174550471D02*
X210958028Y-174621900D01*
X210958028Y-174621900D02*
X210815171Y-174693328D01*
X210815171Y-174693328D02*
X210600885Y-174693328D01*
X212672314Y-173193328D02*
X213529457Y-173193328D01*
X213100885Y-174693328D02*
X213100885Y-173193328D01*
X214243742Y-174693328D02*
X214100885Y-174621900D01*
X214100885Y-174621900D02*
X214029456Y-174550471D01*
X214029456Y-174550471D02*
X213958028Y-174407614D01*
X213958028Y-174407614D02*
X213958028Y-173979042D01*
X213958028Y-173979042D02*
X214029456Y-173836185D01*
X214029456Y-173836185D02*
X214100885Y-173764757D01*
X214100885Y-173764757D02*
X214243742Y-173693328D01*
X214243742Y-173693328D02*
X214458028Y-173693328D01*
X214458028Y-173693328D02*
X214600885Y-173764757D01*
X214600885Y-173764757D02*
X214672314Y-173836185D01*
X214672314Y-173836185D02*
X214743742Y-173979042D01*
X214743742Y-173979042D02*
X214743742Y-174407614D01*
X214743742Y-174407614D02*
X214672314Y-174550471D01*
X214672314Y-174550471D02*
X214600885Y-174621900D01*
X214600885Y-174621900D02*
X214458028Y-174693328D01*
X214458028Y-174693328D02*
X214243742Y-174693328D01*
X215386599Y-174693328D02*
X215386599Y-173693328D01*
X215386599Y-173979042D02*
X215458028Y-173836185D01*
X215458028Y-173836185D02*
X215529457Y-173764757D01*
X215529457Y-173764757D02*
X215672314Y-173693328D01*
X215672314Y-173693328D02*
X215815171Y-173693328D01*
X216315170Y-174693328D02*
X216315170Y-173693328D01*
X216315170Y-173979042D02*
X216386599Y-173836185D01*
X216386599Y-173836185D02*
X216458028Y-173764757D01*
X216458028Y-173764757D02*
X216600885Y-173693328D01*
X216600885Y-173693328D02*
X216743742Y-173693328D01*
X217815170Y-174621900D02*
X217672313Y-174693328D01*
X217672313Y-174693328D02*
X217386599Y-174693328D01*
X217386599Y-174693328D02*
X217243741Y-174621900D01*
X217243741Y-174621900D02*
X217172313Y-174479042D01*
X217172313Y-174479042D02*
X217172313Y-173907614D01*
X217172313Y-173907614D02*
X217243741Y-173764757D01*
X217243741Y-173764757D02*
X217386599Y-173693328D01*
X217386599Y-173693328D02*
X217672313Y-173693328D01*
X217672313Y-173693328D02*
X217815170Y-173764757D01*
X217815170Y-173764757D02*
X217886599Y-173907614D01*
X217886599Y-173907614D02*
X217886599Y-174050471D01*
X217886599Y-174050471D02*
X217172313Y-174193328D01*
X218458027Y-174621900D02*
X218600884Y-174693328D01*
X218600884Y-174693328D02*
X218886598Y-174693328D01*
X218886598Y-174693328D02*
X219029455Y-174621900D01*
X219029455Y-174621900D02*
X219100884Y-174479042D01*
X219100884Y-174479042D02*
X219100884Y-174407614D01*
X219100884Y-174407614D02*
X219029455Y-174264757D01*
X219029455Y-174264757D02*
X218886598Y-174193328D01*
X218886598Y-174193328D02*
X218672313Y-174193328D01*
X218672313Y-174193328D02*
X218529455Y-174121900D01*
X218529455Y-174121900D02*
X218458027Y-173979042D01*
X218458027Y-173979042D02*
X218458027Y-173907614D01*
X218458027Y-173907614D02*
X218529455Y-173764757D01*
X218529455Y-173764757D02*
X218672313Y-173693328D01*
X218672313Y-173693328D02*
X218886598Y-173693328D01*
X218886598Y-173693328D02*
X219029455Y-173764757D01*
D10*
D11*
D10*
D11*
D10*
D11*
X197002200Y-191507200D02*
X197002200Y-194507200D01*
D10*
D11*
X261002200Y-191507200D02*
X261002200Y-198007200D01*
D14*
X138353780Y-81776673D02*
X139353780Y-81776673D01*
X139353780Y-81776673D02*
X139353780Y-82014768D01*
X139353780Y-82014768D02*
X139306161Y-82157625D01*
X139306161Y-82157625D02*
X139210923Y-82252863D01*
X139210923Y-82252863D02*
X139115685Y-82300482D01*
X139115685Y-82300482D02*
X138925209Y-82348101D01*
X138925209Y-82348101D02*
X138782352Y-82348101D01*
X138782352Y-82348101D02*
X138591876Y-82300482D01*
X138591876Y-82300482D02*
X138496638Y-82252863D01*
X138496638Y-82252863D02*
X138401400Y-82157625D01*
X138401400Y-82157625D02*
X138353780Y-82014768D01*
X138353780Y-82014768D02*
X138353780Y-81776673D01*
X138401400Y-83157625D02*
X138353780Y-83062387D01*
X138353780Y-83062387D02*
X138353780Y-82871911D01*
X138353780Y-82871911D02*
X138401400Y-82776673D01*
X138401400Y-82776673D02*
X138496638Y-82729054D01*
X138496638Y-82729054D02*
X138877590Y-82729054D01*
X138877590Y-82729054D02*
X138972828Y-82776673D01*
X138972828Y-82776673D02*
X139020447Y-82871911D01*
X139020447Y-82871911D02*
X139020447Y-83062387D01*
X139020447Y-83062387D02*
X138972828Y-83157625D01*
X138972828Y-83157625D02*
X138877590Y-83205244D01*
X138877590Y-83205244D02*
X138782352Y-83205244D01*
X138782352Y-83205244D02*
X138687114Y-82729054D01*
X138401400Y-83586197D02*
X138353780Y-83681435D01*
X138353780Y-83681435D02*
X138353780Y-83871911D01*
X138353780Y-83871911D02*
X138401400Y-83967149D01*
X138401400Y-83967149D02*
X138496638Y-84014768D01*
X138496638Y-84014768D02*
X138544257Y-84014768D01*
X138544257Y-84014768D02*
X138639495Y-83967149D01*
X138639495Y-83967149D02*
X138687114Y-83871911D01*
X138687114Y-83871911D02*
X138687114Y-83729054D01*
X138687114Y-83729054D02*
X138734733Y-83633816D01*
X138734733Y-83633816D02*
X138829971Y-83586197D01*
X138829971Y-83586197D02*
X138877590Y-83586197D01*
X138877590Y-83586197D02*
X138972828Y-83633816D01*
X138972828Y-83633816D02*
X139020447Y-83729054D01*
X139020447Y-83729054D02*
X139020447Y-83871911D01*
X139020447Y-83871911D02*
X138972828Y-83967149D01*
X138353780Y-84443340D02*
X139020447Y-84443340D01*
X139353780Y-84443340D02*
X139306161Y-84395721D01*
X139306161Y-84395721D02*
X139258542Y-84443340D01*
X139258542Y-84443340D02*
X139306161Y-84490959D01*
X139306161Y-84490959D02*
X139353780Y-84443340D01*
X139353780Y-84443340D02*
X139258542Y-84443340D01*
X139020447Y-85348101D02*
X138210923Y-85348101D01*
X138210923Y-85348101D02*
X138115685Y-85300482D01*
X138115685Y-85300482D02*
X138068066Y-85252863D01*
X138068066Y-85252863D02*
X138020447Y-85157625D01*
X138020447Y-85157625D02*
X138020447Y-85014768D01*
X138020447Y-85014768D02*
X138068066Y-84919530D01*
X138401400Y-85348101D02*
X138353780Y-85252863D01*
X138353780Y-85252863D02*
X138353780Y-85062387D01*
X138353780Y-85062387D02*
X138401400Y-84967149D01*
X138401400Y-84967149D02*
X138449019Y-84919530D01*
X138449019Y-84919530D02*
X138544257Y-84871911D01*
X138544257Y-84871911D02*
X138829971Y-84871911D01*
X138829971Y-84871911D02*
X138925209Y-84919530D01*
X138925209Y-84919530D02*
X138972828Y-84967149D01*
X138972828Y-84967149D02*
X139020447Y-85062387D01*
X139020447Y-85062387D02*
X139020447Y-85252863D01*
X139020447Y-85252863D02*
X138972828Y-85348101D01*
X139020447Y-85824292D02*
X138353780Y-85824292D01*
X138925209Y-85824292D02*
X138972828Y-85871911D01*
X138972828Y-85871911D02*
X139020447Y-85967149D01*
X139020447Y-85967149D02*
X139020447Y-86110006D01*
X139020447Y-86110006D02*
X138972828Y-86205244D01*
X138972828Y-86205244D02*
X138877590Y-86252863D01*
X138877590Y-86252863D02*
X138353780Y-86252863D01*
X138401400Y-87110006D02*
X138353780Y-87014768D01*
X138353780Y-87014768D02*
X138353780Y-86824292D01*
X138353780Y-86824292D02*
X138401400Y-86729054D01*
X138401400Y-86729054D02*
X138496638Y-86681435D01*
X138496638Y-86681435D02*
X138877590Y-86681435D01*
X138877590Y-86681435D02*
X138972828Y-86729054D01*
X138972828Y-86729054D02*
X139020447Y-86824292D01*
X139020447Y-86824292D02*
X139020447Y-87014768D01*
X139020447Y-87014768D02*
X138972828Y-87110006D01*
X138972828Y-87110006D02*
X138877590Y-87157625D01*
X138877590Y-87157625D02*
X138782352Y-87157625D01*
X138782352Y-87157625D02*
X138687114Y-86681435D01*
X138353780Y-88014768D02*
X139353780Y-88014768D01*
X138401400Y-88014768D02*
X138353780Y-87919530D01*
X138353780Y-87919530D02*
X138353780Y-87729054D01*
X138353780Y-87729054D02*
X138401400Y-87633816D01*
X138401400Y-87633816D02*
X138449019Y-87586197D01*
X138449019Y-87586197D02*
X138544257Y-87538578D01*
X138544257Y-87538578D02*
X138829971Y-87538578D01*
X138829971Y-87538578D02*
X138925209Y-87586197D01*
X138925209Y-87586197D02*
X138972828Y-87633816D01*
X138972828Y-87633816D02*
X139020447Y-87729054D01*
X139020447Y-87729054D02*
X139020447Y-87919530D01*
X139020447Y-87919530D02*
X138972828Y-88014768D01*
X138353780Y-89252864D02*
X139353780Y-89252864D01*
X138972828Y-89252864D02*
X139020447Y-89348102D01*
X139020447Y-89348102D02*
X139020447Y-89538578D01*
X139020447Y-89538578D02*
X138972828Y-89633816D01*
X138972828Y-89633816D02*
X138925209Y-89681435D01*
X138925209Y-89681435D02*
X138829971Y-89729054D01*
X138829971Y-89729054D02*
X138544257Y-89729054D01*
X138544257Y-89729054D02*
X138449019Y-89681435D01*
X138449019Y-89681435D02*
X138401400Y-89633816D01*
X138401400Y-89633816D02*
X138353780Y-89538578D01*
X138353780Y-89538578D02*
X138353780Y-89348102D01*
X138353780Y-89348102D02*
X138401400Y-89252864D01*
X139020447Y-90062388D02*
X138353780Y-90300483D01*
X139020447Y-90538578D02*
X138353780Y-90300483D01*
X138353780Y-90300483D02*
X138115685Y-90205245D01*
X138115685Y-90205245D02*
X138068066Y-90157626D01*
X138068066Y-90157626D02*
X138020447Y-90062388D01*
X138449019Y-90919531D02*
X138401400Y-90967150D01*
X138401400Y-90967150D02*
X138353780Y-90919531D01*
X138353780Y-90919531D02*
X138401400Y-90871912D01*
X138401400Y-90871912D02*
X138449019Y-90919531D01*
X138449019Y-90919531D02*
X138353780Y-90919531D01*
X138972828Y-90919531D02*
X138925209Y-90967150D01*
X138925209Y-90967150D02*
X138877590Y-90919531D01*
X138877590Y-90919531D02*
X138925209Y-90871912D01*
X138925209Y-90871912D02*
X138972828Y-90919531D01*
X138972828Y-90919531D02*
X138877590Y-90919531D01*
X137743780Y-82062387D02*
X137029495Y-82062387D01*
X137029495Y-82062387D02*
X136886638Y-82014768D01*
X136886638Y-82014768D02*
X136791400Y-81919530D01*
X136791400Y-81919530D02*
X136743780Y-81776673D01*
X136743780Y-81776673D02*
X136743780Y-81681435D01*
X137410447Y-82967149D02*
X136743780Y-82967149D01*
X137410447Y-82538578D02*
X136886638Y-82538578D01*
X136886638Y-82538578D02*
X136791400Y-82586197D01*
X136791400Y-82586197D02*
X136743780Y-82681435D01*
X136743780Y-82681435D02*
X136743780Y-82824292D01*
X136743780Y-82824292D02*
X136791400Y-82919530D01*
X136791400Y-82919530D02*
X136839019Y-82967149D01*
X136743780Y-83871911D02*
X137267590Y-83871911D01*
X137267590Y-83871911D02*
X137362828Y-83824292D01*
X137362828Y-83824292D02*
X137410447Y-83729054D01*
X137410447Y-83729054D02*
X137410447Y-83538578D01*
X137410447Y-83538578D02*
X137362828Y-83443340D01*
X136791400Y-83871911D02*
X136743780Y-83776673D01*
X136743780Y-83776673D02*
X136743780Y-83538578D01*
X136743780Y-83538578D02*
X136791400Y-83443340D01*
X136791400Y-83443340D02*
X136886638Y-83395721D01*
X136886638Y-83395721D02*
X136981876Y-83395721D01*
X136981876Y-83395721D02*
X137077114Y-83443340D01*
X137077114Y-83443340D02*
X137124733Y-83538578D01*
X137124733Y-83538578D02*
X137124733Y-83776673D01*
X137124733Y-83776673D02*
X137172352Y-83871911D01*
X137410447Y-84348102D02*
X136743780Y-84348102D01*
X137315209Y-84348102D02*
X137362828Y-84395721D01*
X137362828Y-84395721D02*
X137410447Y-84490959D01*
X137410447Y-84490959D02*
X137410447Y-84633816D01*
X137410447Y-84633816D02*
X137362828Y-84729054D01*
X137362828Y-84729054D02*
X137267590Y-84776673D01*
X137267590Y-84776673D02*
X136743780Y-84776673D01*
X137029495Y-85967150D02*
X137029495Y-86443340D01*
X136743780Y-85871912D02*
X137743780Y-86205245D01*
X137743780Y-86205245D02*
X136743780Y-86538578D01*
X137410447Y-86871912D02*
X136743780Y-86871912D01*
X137315209Y-86871912D02*
X137362828Y-86919531D01*
X137362828Y-86919531D02*
X137410447Y-87014769D01*
X137410447Y-87014769D02*
X137410447Y-87157626D01*
X137410447Y-87157626D02*
X137362828Y-87252864D01*
X137362828Y-87252864D02*
X137267590Y-87300483D01*
X137267590Y-87300483D02*
X136743780Y-87300483D01*
X137410447Y-87633817D02*
X137410447Y-88014769D01*
X137743780Y-87776674D02*
X136886638Y-87776674D01*
X136886638Y-87776674D02*
X136791400Y-87824293D01*
X136791400Y-87824293D02*
X136743780Y-87919531D01*
X136743780Y-87919531D02*
X136743780Y-88014769D01*
X136743780Y-88490960D02*
X136791400Y-88395722D01*
X136791400Y-88395722D02*
X136839019Y-88348103D01*
X136839019Y-88348103D02*
X136934257Y-88300484D01*
X136934257Y-88300484D02*
X137219971Y-88300484D01*
X137219971Y-88300484D02*
X137315209Y-88348103D01*
X137315209Y-88348103D02*
X137362828Y-88395722D01*
X137362828Y-88395722D02*
X137410447Y-88490960D01*
X137410447Y-88490960D02*
X137410447Y-88633817D01*
X137410447Y-88633817D02*
X137362828Y-88729055D01*
X137362828Y-88729055D02*
X137315209Y-88776674D01*
X137315209Y-88776674D02*
X137219971Y-88824293D01*
X137219971Y-88824293D02*
X136934257Y-88824293D01*
X136934257Y-88824293D02*
X136839019Y-88776674D01*
X136839019Y-88776674D02*
X136791400Y-88729055D01*
X136791400Y-88729055D02*
X136743780Y-88633817D01*
X136743780Y-88633817D02*
X136743780Y-88490960D01*
X137410447Y-89252865D02*
X136743780Y-89252865D01*
X137315209Y-89252865D02*
X137362828Y-89300484D01*
X137362828Y-89300484D02*
X137410447Y-89395722D01*
X137410447Y-89395722D02*
X137410447Y-89538579D01*
X137410447Y-89538579D02*
X137362828Y-89633817D01*
X137362828Y-89633817D02*
X137267590Y-89681436D01*
X137267590Y-89681436D02*
X136743780Y-89681436D01*
X136743780Y-90157627D02*
X137410447Y-90157627D01*
X137743780Y-90157627D02*
X137696161Y-90110008D01*
X137696161Y-90110008D02*
X137648542Y-90157627D01*
X137648542Y-90157627D02*
X137696161Y-90205246D01*
X137696161Y-90205246D02*
X137743780Y-90157627D01*
X137743780Y-90157627D02*
X137648542Y-90157627D01*
X136743780Y-90776674D02*
X136791400Y-90681436D01*
X136791400Y-90681436D02*
X136839019Y-90633817D01*
X136839019Y-90633817D02*
X136934257Y-90586198D01*
X136934257Y-90586198D02*
X137219971Y-90586198D01*
X137219971Y-90586198D02*
X137315209Y-90633817D01*
X137315209Y-90633817D02*
X137362828Y-90681436D01*
X137362828Y-90681436D02*
X137410447Y-90776674D01*
X137410447Y-90776674D02*
X137410447Y-90919531D01*
X137410447Y-90919531D02*
X137362828Y-91014769D01*
X137362828Y-91014769D02*
X137315209Y-91062388D01*
X137315209Y-91062388D02*
X137219971Y-91110007D01*
X137219971Y-91110007D02*
X136934257Y-91110007D01*
X136934257Y-91110007D02*
X136839019Y-91062388D01*
X136839019Y-91062388D02*
X136791400Y-91014769D01*
X136791400Y-91014769D02*
X136743780Y-90919531D01*
X136743780Y-90919531D02*
X136743780Y-90776674D01*
X135133780Y-81776673D02*
X136133780Y-81776673D01*
X135657590Y-81776673D02*
X135657590Y-82348101D01*
X135133780Y-82348101D02*
X136133780Y-82348101D01*
X135133780Y-82824292D02*
X135800447Y-82824292D01*
X136133780Y-82824292D02*
X136086161Y-82776673D01*
X136086161Y-82776673D02*
X136038542Y-82824292D01*
X136038542Y-82824292D02*
X136086161Y-82871911D01*
X136086161Y-82871911D02*
X136133780Y-82824292D01*
X136133780Y-82824292D02*
X136038542Y-82824292D01*
X135133780Y-83729053D02*
X136133780Y-83729053D01*
X135181400Y-83729053D02*
X135133780Y-83633815D01*
X135133780Y-83633815D02*
X135133780Y-83443339D01*
X135133780Y-83443339D02*
X135181400Y-83348101D01*
X135181400Y-83348101D02*
X135229019Y-83300482D01*
X135229019Y-83300482D02*
X135324257Y-83252863D01*
X135324257Y-83252863D02*
X135609971Y-83252863D01*
X135609971Y-83252863D02*
X135705209Y-83300482D01*
X135705209Y-83300482D02*
X135752828Y-83348101D01*
X135752828Y-83348101D02*
X135800447Y-83443339D01*
X135800447Y-83443339D02*
X135800447Y-83633815D01*
X135800447Y-83633815D02*
X135752828Y-83729053D01*
X135133780Y-84633815D02*
X135657590Y-84633815D01*
X135657590Y-84633815D02*
X135752828Y-84586196D01*
X135752828Y-84586196D02*
X135800447Y-84490958D01*
X135800447Y-84490958D02*
X135800447Y-84300482D01*
X135800447Y-84300482D02*
X135752828Y-84205244D01*
X135181400Y-84633815D02*
X135133780Y-84538577D01*
X135133780Y-84538577D02*
X135133780Y-84300482D01*
X135133780Y-84300482D02*
X135181400Y-84205244D01*
X135181400Y-84205244D02*
X135276638Y-84157625D01*
X135276638Y-84157625D02*
X135371876Y-84157625D01*
X135371876Y-84157625D02*
X135467114Y-84205244D01*
X135467114Y-84205244D02*
X135514733Y-84300482D01*
X135514733Y-84300482D02*
X135514733Y-84538577D01*
X135514733Y-84538577D02*
X135562352Y-84633815D01*
X135133780Y-85252863D02*
X135181400Y-85157625D01*
X135181400Y-85157625D02*
X135276638Y-85110006D01*
X135276638Y-85110006D02*
X136133780Y-85110006D01*
X135800447Y-86062387D02*
X134990923Y-86062387D01*
X134990923Y-86062387D02*
X134895685Y-86014768D01*
X134895685Y-86014768D02*
X134848066Y-85967149D01*
X134848066Y-85967149D02*
X134800447Y-85871911D01*
X134800447Y-85871911D02*
X134800447Y-85729054D01*
X134800447Y-85729054D02*
X134848066Y-85633816D01*
X135181400Y-86062387D02*
X135133780Y-85967149D01*
X135133780Y-85967149D02*
X135133780Y-85776673D01*
X135133780Y-85776673D02*
X135181400Y-85681435D01*
X135181400Y-85681435D02*
X135229019Y-85633816D01*
X135229019Y-85633816D02*
X135324257Y-85586197D01*
X135324257Y-85586197D02*
X135609971Y-85586197D01*
X135609971Y-85586197D02*
X135705209Y-85633816D01*
X135705209Y-85633816D02*
X135752828Y-85681435D01*
X135752828Y-85681435D02*
X135800447Y-85776673D01*
X135800447Y-85776673D02*
X135800447Y-85967149D01*
X135800447Y-85967149D02*
X135752828Y-86062387D01*
X135133780Y-86681435D02*
X135181400Y-86586197D01*
X135181400Y-86586197D02*
X135229019Y-86538578D01*
X135229019Y-86538578D02*
X135324257Y-86490959D01*
X135324257Y-86490959D02*
X135609971Y-86490959D01*
X135609971Y-86490959D02*
X135705209Y-86538578D01*
X135705209Y-86538578D02*
X135752828Y-86586197D01*
X135752828Y-86586197D02*
X135800447Y-86681435D01*
X135800447Y-86681435D02*
X135800447Y-86824292D01*
X135800447Y-86824292D02*
X135752828Y-86919530D01*
X135752828Y-86919530D02*
X135705209Y-86967149D01*
X135705209Y-86967149D02*
X135609971Y-87014768D01*
X135609971Y-87014768D02*
X135324257Y-87014768D01*
X135324257Y-87014768D02*
X135229019Y-86967149D01*
X135229019Y-86967149D02*
X135181400Y-86919530D01*
X135181400Y-86919530D02*
X135133780Y-86824292D01*
X135133780Y-86824292D02*
X135133780Y-86681435D01*
X136133780Y-88062388D02*
X136133780Y-88633816D01*
X135133780Y-88348102D02*
X136133780Y-88348102D01*
X135133780Y-89110007D02*
X135181400Y-89014769D01*
X135181400Y-89014769D02*
X135229019Y-88967150D01*
X135229019Y-88967150D02*
X135324257Y-88919531D01*
X135324257Y-88919531D02*
X135609971Y-88919531D01*
X135609971Y-88919531D02*
X135705209Y-88967150D01*
X135705209Y-88967150D02*
X135752828Y-89014769D01*
X135752828Y-89014769D02*
X135800447Y-89110007D01*
X135800447Y-89110007D02*
X135800447Y-89252864D01*
X135800447Y-89252864D02*
X135752828Y-89348102D01*
X135752828Y-89348102D02*
X135705209Y-89395721D01*
X135705209Y-89395721D02*
X135609971Y-89443340D01*
X135609971Y-89443340D02*
X135324257Y-89443340D01*
X135324257Y-89443340D02*
X135229019Y-89395721D01*
X135229019Y-89395721D02*
X135181400Y-89348102D01*
X135181400Y-89348102D02*
X135133780Y-89252864D01*
X135133780Y-89252864D02*
X135133780Y-89110007D01*
X135133780Y-89871912D02*
X135800447Y-89871912D01*
X135609971Y-89871912D02*
X135705209Y-89919531D01*
X135705209Y-89919531D02*
X135752828Y-89967150D01*
X135752828Y-89967150D02*
X135800447Y-90062388D01*
X135800447Y-90062388D02*
X135800447Y-90157626D01*
X135133780Y-90490960D02*
X135800447Y-90490960D01*
X135609971Y-90490960D02*
X135705209Y-90538579D01*
X135705209Y-90538579D02*
X135752828Y-90586198D01*
X135752828Y-90586198D02*
X135800447Y-90681436D01*
X135800447Y-90681436D02*
X135800447Y-90776674D01*
X135181400Y-91490960D02*
X135133780Y-91395722D01*
X135133780Y-91395722D02*
X135133780Y-91205246D01*
X135133780Y-91205246D02*
X135181400Y-91110008D01*
X135181400Y-91110008D02*
X135276638Y-91062389D01*
X135276638Y-91062389D02*
X135657590Y-91062389D01*
X135657590Y-91062389D02*
X135752828Y-91110008D01*
X135752828Y-91110008D02*
X135800447Y-91205246D01*
X135800447Y-91205246D02*
X135800447Y-91395722D01*
X135800447Y-91395722D02*
X135752828Y-91490960D01*
X135752828Y-91490960D02*
X135657590Y-91538579D01*
X135657590Y-91538579D02*
X135562352Y-91538579D01*
X135562352Y-91538579D02*
X135467114Y-91062389D01*
X135181400Y-91919532D02*
X135133780Y-92014770D01*
X135133780Y-92014770D02*
X135133780Y-92205246D01*
X135133780Y-92205246D02*
X135181400Y-92300484D01*
X135181400Y-92300484D02*
X135276638Y-92348103D01*
X135276638Y-92348103D02*
X135324257Y-92348103D01*
X135324257Y-92348103D02*
X135419495Y-92300484D01*
X135419495Y-92300484D02*
X135467114Y-92205246D01*
X135467114Y-92205246D02*
X135467114Y-92062389D01*
X135467114Y-92062389D02*
X135514733Y-91967151D01*
X135514733Y-91967151D02*
X135609971Y-91919532D01*
X135609971Y-91919532D02*
X135657590Y-91919532D01*
X135657590Y-91919532D02*
X135752828Y-91967151D01*
X135752828Y-91967151D02*
X135800447Y-92062389D01*
X135800447Y-92062389D02*
X135800447Y-92205246D01*
X135800447Y-92205246D02*
X135752828Y-92300484D01*
D12*
X157397023Y-85655063D02*
X158001785Y-85231729D01*
X157397023Y-84929348D02*
X158667023Y-84929348D01*
X158667023Y-84929348D02*
X158667023Y-85413158D01*
X158667023Y-85413158D02*
X158606547Y-85534110D01*
X158606547Y-85534110D02*
X158546071Y-85594587D01*
X158546071Y-85594587D02*
X158425119Y-85655063D01*
X158425119Y-85655063D02*
X158243690Y-85655063D01*
X158243690Y-85655063D02*
X158122738Y-85594587D01*
X158122738Y-85594587D02*
X158062261Y-85534110D01*
X158062261Y-85534110D02*
X158001785Y-85413158D01*
X158001785Y-85413158D02*
X158001785Y-84929348D01*
X158606547Y-86864587D02*
X158667023Y-86743634D01*
X158667023Y-86743634D02*
X158667023Y-86562206D01*
X158667023Y-86562206D02*
X158606547Y-86380777D01*
X158606547Y-86380777D02*
X158485595Y-86259825D01*
X158485595Y-86259825D02*
X158364642Y-86199348D01*
X158364642Y-86199348D02*
X158122738Y-86138872D01*
X158122738Y-86138872D02*
X157941309Y-86138872D01*
X157941309Y-86138872D02*
X157699404Y-86199348D01*
X157699404Y-86199348D02*
X157578452Y-86259825D01*
X157578452Y-86259825D02*
X157457500Y-86380777D01*
X157457500Y-86380777D02*
X157397023Y-86562206D01*
X157397023Y-86562206D02*
X157397023Y-86683158D01*
X157397023Y-86683158D02*
X157457500Y-86864587D01*
X157457500Y-86864587D02*
X157517976Y-86925063D01*
X157517976Y-86925063D02*
X157941309Y-86925063D01*
X157941309Y-86925063D02*
X157941309Y-86683158D01*
X158062261Y-87892682D02*
X158001785Y-88074110D01*
X158001785Y-88074110D02*
X157941309Y-88134587D01*
X157941309Y-88134587D02*
X157820357Y-88195063D01*
X157820357Y-88195063D02*
X157638928Y-88195063D01*
X157638928Y-88195063D02*
X157517976Y-88134587D01*
X157517976Y-88134587D02*
X157457500Y-88074110D01*
X157457500Y-88074110D02*
X157397023Y-87953158D01*
X157397023Y-87953158D02*
X157397023Y-87469348D01*
X157397023Y-87469348D02*
X158667023Y-87469348D01*
X158667023Y-87469348D02*
X158667023Y-87892682D01*
X158667023Y-87892682D02*
X158606547Y-88013634D01*
X158606547Y-88013634D02*
X158546071Y-88074110D01*
X158546071Y-88074110D02*
X158425119Y-88134587D01*
X158425119Y-88134587D02*
X158304166Y-88134587D01*
X158304166Y-88134587D02*
X158183214Y-88074110D01*
X158183214Y-88074110D02*
X158122738Y-88013634D01*
X158122738Y-88013634D02*
X158062261Y-87892682D01*
X158062261Y-87892682D02*
X158062261Y-87469348D01*
X157397023Y-90311729D02*
X157397023Y-89706967D01*
X157397023Y-89706967D02*
X158667023Y-89706967D01*
X158062261Y-90735062D02*
X158062261Y-91158396D01*
X157397023Y-91339824D02*
X157397023Y-90735062D01*
X157397023Y-90735062D02*
X158667023Y-90735062D01*
X158667023Y-90735062D02*
X158667023Y-91339824D01*
X157397023Y-91884110D02*
X158667023Y-91884110D01*
X158667023Y-91884110D02*
X158667023Y-92186491D01*
X158667023Y-92186491D02*
X158606547Y-92367920D01*
X158606547Y-92367920D02*
X158485595Y-92488872D01*
X158485595Y-92488872D02*
X158364642Y-92549349D01*
X158364642Y-92549349D02*
X158122738Y-92609825D01*
X158122738Y-92609825D02*
X157941309Y-92609825D01*
X157941309Y-92609825D02*
X157699404Y-92549349D01*
X157699404Y-92549349D02*
X157578452Y-92488872D01*
X157578452Y-92488872D02*
X157457500Y-92367920D01*
X157457500Y-92367920D02*
X157397023Y-92186491D01*
X157397023Y-92186491D02*
X157397023Y-91884110D01*
X157457500Y-94061253D02*
X157397023Y-94242682D01*
X157397023Y-94242682D02*
X157397023Y-94545063D01*
X157397023Y-94545063D02*
X157457500Y-94666015D01*
X157457500Y-94666015D02*
X157517976Y-94726491D01*
X157517976Y-94726491D02*
X157638928Y-94786968D01*
X157638928Y-94786968D02*
X157759880Y-94786968D01*
X157759880Y-94786968D02*
X157880833Y-94726491D01*
X157880833Y-94726491D02*
X157941309Y-94666015D01*
X157941309Y-94666015D02*
X158001785Y-94545063D01*
X158001785Y-94545063D02*
X158062261Y-94303158D01*
X158062261Y-94303158D02*
X158122738Y-94182206D01*
X158122738Y-94182206D02*
X158183214Y-94121729D01*
X158183214Y-94121729D02*
X158304166Y-94061253D01*
X158304166Y-94061253D02*
X158425119Y-94061253D01*
X158425119Y-94061253D02*
X158546071Y-94121729D01*
X158546071Y-94121729D02*
X158606547Y-94182206D01*
X158606547Y-94182206D02*
X158667023Y-94303158D01*
X158667023Y-94303158D02*
X158667023Y-94605539D01*
X158667023Y-94605539D02*
X158606547Y-94786968D01*
X158667023Y-95149825D02*
X158667023Y-95875539D01*
X157397023Y-95512682D02*
X158667023Y-95512682D01*
X157397023Y-97024587D02*
X158001785Y-96601253D01*
X157397023Y-96298872D02*
X158667023Y-96298872D01*
X158667023Y-96298872D02*
X158667023Y-96782682D01*
X158667023Y-96782682D02*
X158606547Y-96903634D01*
X158606547Y-96903634D02*
X158546071Y-96964111D01*
X158546071Y-96964111D02*
X158425119Y-97024587D01*
X158425119Y-97024587D02*
X158243690Y-97024587D01*
X158243690Y-97024587D02*
X158122738Y-96964111D01*
X158122738Y-96964111D02*
X158062261Y-96903634D01*
X158062261Y-96903634D02*
X158001785Y-96782682D01*
X158001785Y-96782682D02*
X158001785Y-96298872D01*
X157397023Y-97568872D02*
X158667023Y-97568872D01*
X157397023Y-98173634D02*
X158667023Y-98173634D01*
X158667023Y-98173634D02*
X158667023Y-98657444D01*
X158667023Y-98657444D02*
X158606547Y-98778396D01*
X158606547Y-98778396D02*
X158546071Y-98838873D01*
X158546071Y-98838873D02*
X158425119Y-98899349D01*
X158425119Y-98899349D02*
X158243690Y-98899349D01*
X158243690Y-98899349D02*
X158122738Y-98838873D01*
X158122738Y-98838873D02*
X158062261Y-98778396D01*
X158062261Y-98778396D02*
X158001785Y-98657444D01*
X158001785Y-98657444D02*
X158001785Y-98173634D01*
X157397023Y-100411253D02*
X158667023Y-100411253D01*
X158667023Y-100411253D02*
X158667023Y-100713634D01*
X158667023Y-100713634D02*
X158606547Y-100895063D01*
X158606547Y-100895063D02*
X158485595Y-101016015D01*
X158485595Y-101016015D02*
X158364642Y-101076492D01*
X158364642Y-101076492D02*
X158122738Y-101136968D01*
X158122738Y-101136968D02*
X157941309Y-101136968D01*
X157941309Y-101136968D02*
X157699404Y-101076492D01*
X157699404Y-101076492D02*
X157578452Y-101016015D01*
X157578452Y-101016015D02*
X157457500Y-100895063D01*
X157457500Y-100895063D02*
X157397023Y-100713634D01*
X157397023Y-100713634D02*
X157397023Y-100411253D01*
X157397023Y-102406968D02*
X158001785Y-101983634D01*
X157397023Y-101681253D02*
X158667023Y-101681253D01*
X158667023Y-101681253D02*
X158667023Y-102165063D01*
X158667023Y-102165063D02*
X158606547Y-102286015D01*
X158606547Y-102286015D02*
X158546071Y-102346492D01*
X158546071Y-102346492D02*
X158425119Y-102406968D01*
X158425119Y-102406968D02*
X158243690Y-102406968D01*
X158243690Y-102406968D02*
X158122738Y-102346492D01*
X158122738Y-102346492D02*
X158062261Y-102286015D01*
X158062261Y-102286015D02*
X158001785Y-102165063D01*
X158001785Y-102165063D02*
X158001785Y-101681253D01*
X157397023Y-102951253D02*
X158667023Y-102951253D01*
X158667023Y-103374587D02*
X157397023Y-103797920D01*
X157397023Y-103797920D02*
X158667023Y-104221254D01*
X158062261Y-104644586D02*
X158062261Y-105067920D01*
X157397023Y-105249348D02*
X157397023Y-104644586D01*
X157397023Y-104644586D02*
X158667023Y-104644586D01*
X158667023Y-104644586D02*
X158667023Y-105249348D01*
X157397023Y-106519349D02*
X158001785Y-106096015D01*
X157397023Y-105793634D02*
X158667023Y-105793634D01*
X158667023Y-105793634D02*
X158667023Y-106277444D01*
X158667023Y-106277444D02*
X158606547Y-106398396D01*
X158606547Y-106398396D02*
X158546071Y-106458873D01*
X158546071Y-106458873D02*
X158425119Y-106519349D01*
X158425119Y-106519349D02*
X158243690Y-106519349D01*
X158243690Y-106519349D02*
X158122738Y-106458873D01*
X158122738Y-106458873D02*
X158062261Y-106398396D01*
X158062261Y-106398396D02*
X158001785Y-106277444D01*
X158001785Y-106277444D02*
X158001785Y-105793634D01*
X158243690Y-107910301D02*
X157397023Y-108212682D01*
X157397023Y-108212682D02*
X158243690Y-108515063D01*
X158546071Y-108938396D02*
X158606547Y-108998872D01*
X158606547Y-108998872D02*
X158667023Y-109119825D01*
X158667023Y-109119825D02*
X158667023Y-109422206D01*
X158667023Y-109422206D02*
X158606547Y-109543158D01*
X158606547Y-109543158D02*
X158546071Y-109603634D01*
X158546071Y-109603634D02*
X158425119Y-109664111D01*
X158425119Y-109664111D02*
X158304166Y-109664111D01*
X158304166Y-109664111D02*
X158122738Y-109603634D01*
X158122738Y-109603634D02*
X157397023Y-108877920D01*
X157397023Y-108877920D02*
X157397023Y-109664111D01*
X157517976Y-110208396D02*
X157457500Y-110268873D01*
X157457500Y-110268873D02*
X157397023Y-110208396D01*
X157397023Y-110208396D02*
X157457500Y-110147920D01*
X157457500Y-110147920D02*
X157517976Y-110208396D01*
X157517976Y-110208396D02*
X157397023Y-110208396D01*
X158667023Y-111055063D02*
X158667023Y-111176016D01*
X158667023Y-111176016D02*
X158606547Y-111296968D01*
X158606547Y-111296968D02*
X158546071Y-111357444D01*
X158546071Y-111357444D02*
X158425119Y-111417920D01*
X158425119Y-111417920D02*
X158183214Y-111478397D01*
X158183214Y-111478397D02*
X157880833Y-111478397D01*
X157880833Y-111478397D02*
X157638928Y-111417920D01*
X157638928Y-111417920D02*
X157517976Y-111357444D01*
X157517976Y-111357444D02*
X157457500Y-111296968D01*
X157457500Y-111296968D02*
X157397023Y-111176016D01*
X157397023Y-111176016D02*
X157397023Y-111055063D01*
X157397023Y-111055063D02*
X157457500Y-110934111D01*
X157457500Y-110934111D02*
X157517976Y-110873635D01*
X157517976Y-110873635D02*
X157638928Y-110813158D01*
X157638928Y-110813158D02*
X157880833Y-110752682D01*
X157880833Y-110752682D02*
X158183214Y-110752682D01*
X158183214Y-110752682D02*
X158425119Y-110813158D01*
X158425119Y-110813158D02*
X158546071Y-110873635D01*
X158546071Y-110873635D02*
X158606547Y-110934111D01*
X158606547Y-110934111D02*
X158667023Y-111055063D01*
D15*
X154161067Y-117211118D02*
X154161067Y-118118261D01*
X154161067Y-118118261D02*
X154100590Y-118299689D01*
X154100590Y-118299689D02*
X153979638Y-118420642D01*
X153979638Y-118420642D02*
X153798209Y-118481118D01*
X153798209Y-118481118D02*
X153677257Y-118481118D01*
X154705352Y-117332070D02*
X154765828Y-117271594D01*
X154765828Y-117271594D02*
X154886781Y-117211118D01*
X154886781Y-117211118D02*
X155189162Y-117211118D01*
X155189162Y-117211118D02*
X155310114Y-117271594D01*
X155310114Y-117271594D02*
X155370590Y-117332070D01*
X155370590Y-117332070D02*
X155431067Y-117453022D01*
X155431067Y-117453022D02*
X155431067Y-117573975D01*
X155431067Y-117573975D02*
X155370590Y-117755403D01*
X155370590Y-117755403D02*
X154644876Y-118481118D01*
X154644876Y-118481118D02*
X155431067Y-118481118D01*
X138200247Y-98282070D02*
X138079295Y-98221594D01*
X138079295Y-98221594D02*
X137958342Y-98100642D01*
X137958342Y-98100642D02*
X137776914Y-97919213D01*
X137776914Y-97919213D02*
X137655961Y-97858737D01*
X137655961Y-97858737D02*
X137535009Y-97858737D01*
X137595485Y-98161118D02*
X137474533Y-98100642D01*
X137474533Y-98100642D02*
X137353580Y-97979689D01*
X137353580Y-97979689D02*
X137293104Y-97737784D01*
X137293104Y-97737784D02*
X137293104Y-97314451D01*
X137293104Y-97314451D02*
X137353580Y-97072546D01*
X137353580Y-97072546D02*
X137474533Y-96951594D01*
X137474533Y-96951594D02*
X137595485Y-96891118D01*
X137595485Y-96891118D02*
X137837390Y-96891118D01*
X137837390Y-96891118D02*
X137958342Y-96951594D01*
X137958342Y-96951594D02*
X138079295Y-97072546D01*
X138079295Y-97072546D02*
X138139771Y-97314451D01*
X138139771Y-97314451D02*
X138139771Y-97737784D01*
X138139771Y-97737784D02*
X138079295Y-97979689D01*
X138079295Y-97979689D02*
X137958342Y-98100642D01*
X137958342Y-98100642D02*
X137837390Y-98161118D01*
X137837390Y-98161118D02*
X137595485Y-98161118D01*
X138563104Y-96891118D02*
X139349295Y-96891118D01*
X139349295Y-96891118D02*
X138925961Y-97374927D01*
X138925961Y-97374927D02*
X139107390Y-97374927D01*
X139107390Y-97374927D02*
X139228342Y-97435403D01*
X139228342Y-97435403D02*
X139288818Y-97495880D01*
X139288818Y-97495880D02*
X139349295Y-97616832D01*
X139349295Y-97616832D02*
X139349295Y-97919213D01*
X139349295Y-97919213D02*
X139288818Y-98040165D01*
X139288818Y-98040165D02*
X139228342Y-98100642D01*
X139228342Y-98100642D02*
X139107390Y-98161118D01*
X139107390Y-98161118D02*
X138744533Y-98161118D01*
X138744533Y-98161118D02*
X138623580Y-98100642D01*
X138623580Y-98100642D02*
X138563104Y-98040165D01*
X152431447Y-98307470D02*
X152310495Y-98246994D01*
X152310495Y-98246994D02*
X152189542Y-98126042D01*
X152189542Y-98126042D02*
X152008114Y-97944613D01*
X152008114Y-97944613D02*
X151887161Y-97884137D01*
X151887161Y-97884137D02*
X151766209Y-97884137D01*
X151826685Y-98186518D02*
X151705733Y-98126042D01*
X151705733Y-98126042D02*
X151584780Y-98005089D01*
X151584780Y-98005089D02*
X151524304Y-97763184D01*
X151524304Y-97763184D02*
X151524304Y-97339851D01*
X151524304Y-97339851D02*
X151584780Y-97097946D01*
X151584780Y-97097946D02*
X151705733Y-96976994D01*
X151705733Y-96976994D02*
X151826685Y-96916518D01*
X151826685Y-96916518D02*
X152068590Y-96916518D01*
X152068590Y-96916518D02*
X152189542Y-96976994D01*
X152189542Y-96976994D02*
X152310495Y-97097946D01*
X152310495Y-97097946D02*
X152370971Y-97339851D01*
X152370971Y-97339851D02*
X152370971Y-97763184D01*
X152370971Y-97763184D02*
X152310495Y-98005089D01*
X152310495Y-98005089D02*
X152189542Y-98126042D01*
X152189542Y-98126042D02*
X152068590Y-98186518D01*
X152068590Y-98186518D02*
X151826685Y-98186518D01*
X153580495Y-98186518D02*
X152854780Y-98186518D01*
X153217637Y-98186518D02*
X153217637Y-96916518D01*
X153217637Y-96916518D02*
X153096685Y-97097946D01*
X153096685Y-97097946D02*
X152975733Y-97218899D01*
X152975733Y-97218899D02*
X152854780Y-97279375D01*
X139962467Y-76367918D02*
X139962467Y-77275061D01*
X139962467Y-77275061D02*
X139901990Y-77456489D01*
X139901990Y-77456489D02*
X139781038Y-77577442D01*
X139781038Y-77577442D02*
X139599609Y-77637918D01*
X139599609Y-77637918D02*
X139478657Y-77637918D01*
X141232467Y-77637918D02*
X140506752Y-77637918D01*
X140869609Y-77637918D02*
X140869609Y-76367918D01*
X140869609Y-76367918D02*
X140748657Y-76549346D01*
X140748657Y-76549346D02*
X140627705Y-76670299D01*
X140627705Y-76670299D02*
X140506752Y-76730775D01*
D14*
X151306733Y-94838619D02*
X150973400Y-94362428D01*
X150735305Y-94838619D02*
X150735305Y-93838619D01*
X150735305Y-93838619D02*
X151116257Y-93838619D01*
X151116257Y-93838619D02*
X151211495Y-93886238D01*
X151211495Y-93886238D02*
X151259114Y-93933857D01*
X151259114Y-93933857D02*
X151306733Y-94029095D01*
X151306733Y-94029095D02*
X151306733Y-94171952D01*
X151306733Y-94171952D02*
X151259114Y-94267190D01*
X151259114Y-94267190D02*
X151211495Y-94314809D01*
X151211495Y-94314809D02*
X151116257Y-94362428D01*
X151116257Y-94362428D02*
X150735305Y-94362428D01*
X152259114Y-94838619D02*
X151687686Y-94838619D01*
X151973400Y-94838619D02*
X151973400Y-93838619D01*
X151973400Y-93838619D02*
X151878162Y-93981476D01*
X151878162Y-93981476D02*
X151782924Y-94076714D01*
X151782924Y-94076714D02*
X151687686Y-94124333D01*
X144283133Y-94864019D02*
X143949800Y-94387828D01*
X143711705Y-94864019D02*
X143711705Y-93864019D01*
X143711705Y-93864019D02*
X144092657Y-93864019D01*
X144092657Y-93864019D02*
X144187895Y-93911638D01*
X144187895Y-93911638D02*
X144235514Y-93959257D01*
X144235514Y-93959257D02*
X144283133Y-94054495D01*
X144283133Y-94054495D02*
X144283133Y-94197352D01*
X144283133Y-94197352D02*
X144235514Y-94292590D01*
X144235514Y-94292590D02*
X144187895Y-94340209D01*
X144187895Y-94340209D02*
X144092657Y-94387828D01*
X144092657Y-94387828D02*
X143711705Y-94387828D01*
X144616467Y-93864019D02*
X145235514Y-93864019D01*
X145235514Y-93864019D02*
X144902181Y-94244971D01*
X144902181Y-94244971D02*
X145045038Y-94244971D01*
X145045038Y-94244971D02*
X145140276Y-94292590D01*
X145140276Y-94292590D02*
X145187895Y-94340209D01*
X145187895Y-94340209D02*
X145235514Y-94435447D01*
X145235514Y-94435447D02*
X145235514Y-94673542D01*
X145235514Y-94673542D02*
X145187895Y-94768780D01*
X145187895Y-94768780D02*
X145140276Y-94816400D01*
X145140276Y-94816400D02*
X145045038Y-94864019D01*
X145045038Y-94864019D02*
X144759324Y-94864019D01*
X144759324Y-94864019D02*
X144664086Y-94816400D01*
X144664086Y-94816400D02*
X144616467Y-94768780D01*
D15*
X145294047Y-98282070D02*
X145173095Y-98221594D01*
X145173095Y-98221594D02*
X145052142Y-98100642D01*
X145052142Y-98100642D02*
X144870714Y-97919213D01*
X144870714Y-97919213D02*
X144749761Y-97858737D01*
X144749761Y-97858737D02*
X144628809Y-97858737D01*
X144689285Y-98161118D02*
X144568333Y-98100642D01*
X144568333Y-98100642D02*
X144447380Y-97979689D01*
X144447380Y-97979689D02*
X144386904Y-97737784D01*
X144386904Y-97737784D02*
X144386904Y-97314451D01*
X144386904Y-97314451D02*
X144447380Y-97072546D01*
X144447380Y-97072546D02*
X144568333Y-96951594D01*
X144568333Y-96951594D02*
X144689285Y-96891118D01*
X144689285Y-96891118D02*
X144931190Y-96891118D01*
X144931190Y-96891118D02*
X145052142Y-96951594D01*
X145052142Y-96951594D02*
X145173095Y-97072546D01*
X145173095Y-97072546D02*
X145233571Y-97314451D01*
X145233571Y-97314451D02*
X145233571Y-97737784D01*
X145233571Y-97737784D02*
X145173095Y-97979689D01*
X145173095Y-97979689D02*
X145052142Y-98100642D01*
X145052142Y-98100642D02*
X144931190Y-98161118D01*
X144931190Y-98161118D02*
X144689285Y-98161118D01*
X145717380Y-97012070D02*
X145777856Y-96951594D01*
X145777856Y-96951594D02*
X145898809Y-96891118D01*
X145898809Y-96891118D02*
X146201190Y-96891118D01*
X146201190Y-96891118D02*
X146322142Y-96951594D01*
X146322142Y-96951594D02*
X146382618Y-97012070D01*
X146382618Y-97012070D02*
X146443095Y-97133022D01*
X146443095Y-97133022D02*
X146443095Y-97253975D01*
X146443095Y-97253975D02*
X146382618Y-97435403D01*
X146382618Y-97435403D02*
X145656904Y-98161118D01*
X145656904Y-98161118D02*
X146443095Y-98161118D01*
D14*
X137044133Y-94838619D02*
X136710800Y-94362428D01*
X136472705Y-94838619D02*
X136472705Y-93838619D01*
X136472705Y-93838619D02*
X136853657Y-93838619D01*
X136853657Y-93838619D02*
X136948895Y-93886238D01*
X136948895Y-93886238D02*
X136996514Y-93933857D01*
X136996514Y-93933857D02*
X137044133Y-94029095D01*
X137044133Y-94029095D02*
X137044133Y-94171952D01*
X137044133Y-94171952D02*
X136996514Y-94267190D01*
X136996514Y-94267190D02*
X136948895Y-94314809D01*
X136948895Y-94314809D02*
X136853657Y-94362428D01*
X136853657Y-94362428D02*
X136472705Y-94362428D01*
X137901276Y-94171952D02*
X137901276Y-94838619D01*
X137663181Y-93791000D02*
X137425086Y-94505285D01*
X137425086Y-94505285D02*
X138044133Y-94505285D01*
D16*
%TO.C,J2*%
X153164400Y-120552800D02*
X140764400Y-120552800D01*
X153164400Y-110378800D02*
X153164400Y-120552800D01*
X140764400Y-120552800D02*
X140764400Y-110378800D01*
X140764400Y-110378800D02*
X153164400Y-110378800D01*
D15*
X154091400Y-113178800D02*
G75*
G03*
X154091400Y-113178800I-127000J0D01*
G01*
%TO.C,Q3*%
X141666000Y-105471950D02*
X141666000Y-99371950D01*
X141666000Y-99371950D02*
X135066000Y-99371950D01*
X135066000Y-99371950D02*
X135066000Y-105471950D01*
%TO.C,Q1*%
X149252400Y-99393550D02*
X149252400Y-105493550D01*
X155852400Y-99393550D02*
X149252400Y-99393550D01*
X155852400Y-105493550D02*
X155852400Y-99393550D01*
D14*
%TO.C,J1*%
X142316200Y-75819000D02*
X142316200Y-81463000D01*
X151316200Y-75819000D02*
X142316200Y-75819000D01*
X151316200Y-88663000D02*
X151316200Y-75819000D01*
X146696050Y-90014000D02*
G75*
G03*
X146696050Y-90014000I-118850J0D01*
G01*
D17*
%TO.C,R1*%
X153712142Y-93863900D02*
X154186658Y-93863900D01*
X153712142Y-94908900D02*
X154186658Y-94908900D01*
%TO.C,R3*%
X146625542Y-93889300D02*
X147100058Y-93889300D01*
X146625542Y-94934300D02*
X147100058Y-94934300D01*
D15*
%TO.C,Q2*%
X148721000Y-105482000D02*
X148721000Y-99382000D01*
X148721000Y-99382000D02*
X142121000Y-99382000D01*
X142121000Y-99382000D02*
X142121000Y-105482000D01*
D17*
%TO.C,R4*%
X139513542Y-93863900D02*
X139988058Y-93863900D01*
X139513542Y-94908900D02*
X139988058Y-94908900D01*
%TD*%
M02*
