%TF.GenerationSoftware,KiCad,Pcbnew,7.0.7*%
%TF.CreationDate,2024-04-23T17:54:34+02:00*%
%TF.ProjectId,DriverRGB_v2,44726976-6572-4524-9742-5f76322e6b69,v02*%
%TF.SameCoordinates,Original*%
%TF.FileFunction,Copper,L2,Bot*%
%TF.FilePolarity,Positive*%
%FSLAX46Y46*%
G04 Gerber Fmt 4.6, Leading zero omitted, Abs format (unit mm)*
G04 Created by KiCad (PCBNEW 7.0.7) date 2024-04-23 17:54:34*
%MOMM*%
%LPD*%
G01*
G04 APERTURE LIST*
G04 Aperture macros list*
%AMRoundRect*
0 Rectangle with rounded corners*
0 $1 Rounding radius*
0 $2 $3 $4 $5 $6 $7 $8 $9 X,Y pos of 4 corners*
0 Add a 4 corners polygon primitive as box body*
4,1,4,$2,$3,$4,$5,$6,$7,$8,$9,$2,$3,0*
0 Add four circle primitives for the rounded corners*
1,1,$1+$1,$2,$3*
1,1,$1+$1,$4,$5*
1,1,$1+$1,$6,$7*
1,1,$1+$1,$8,$9*
0 Add four rect primitives between the rounded corners*
20,1,$1+$1,$2,$3,$4,$5,0*
20,1,$1+$1,$4,$5,$6,$7,0*
20,1,$1+$1,$6,$7,$8,$9,0*
20,1,$1+$1,$8,$9,$2,$3,0*%
G04 Aperture macros list end*
%ADD10C,0.100000*%
%ADD11C,0.150000*%
%ADD12C,0.300000*%
%ADD13C,0.400000*%
%TA.AperFunction,SMDPad,CuDef*%
%ADD14RoundRect,0.200000X-0.275000X0.200000X-0.275000X-0.200000X0.275000X-0.200000X0.275000X0.200000X0*%
%TD*%
%TA.AperFunction,ComponentPad*%
%ADD15C,3.000000*%
%TD*%
%TA.AperFunction,SMDPad,CuDef*%
%ADD16R,1.700000X0.900000*%
%TD*%
%TA.AperFunction,SMDPad,CuDef*%
%ADD17RoundRect,0.225000X0.250000X-0.225000X0.250000X0.225000X-0.250000X0.225000X-0.250000X-0.225000X0*%
%TD*%
%TA.AperFunction,SMDPad,CuDef*%
%ADD18RoundRect,0.225000X-0.250000X0.225000X-0.250000X-0.225000X0.250000X-0.225000X0.250000X0.225000X0*%
%TD*%
%TA.AperFunction,SMDPad,CuDef*%
%ADD19R,2.400000X0.760000*%
%TD*%
%TA.AperFunction,SMDPad,CuDef*%
%ADD20R,1.350000X2.350000*%
%TD*%
%TA.AperFunction,SMDPad,CuDef*%
%ADD21R,1.100000X2.200000*%
%TD*%
%TA.AperFunction,SMDPad,CuDef*%
%ADD22R,3.200000X3.200000*%
%TD*%
%TA.AperFunction,SMDPad,CuDef*%
%ADD23RoundRect,0.250000X-0.350000X0.850000X-0.350000X-0.850000X0.350000X-0.850000X0.350000X0.850000X0*%
%TD*%
%TA.AperFunction,SMDPad,CuDef*%
%ADD24RoundRect,0.250000X-1.125000X1.275000X-1.125000X-1.275000X1.125000X-1.275000X1.125000X1.275000X0*%
%TD*%
%TA.AperFunction,SMDPad,CuDef*%
%ADD25RoundRect,0.249997X-2.650003X2.950003X-2.650003X-2.950003X2.650003X-2.950003X2.650003X2.950003X0*%
%TD*%
%TA.AperFunction,ViaPad*%
%ADD26C,0.800000*%
%TD*%
%TA.AperFunction,Conductor*%
%ADD27C,0.300000*%
%TD*%
%TA.AperFunction,Conductor*%
%ADD28C,0.700000*%
%TD*%
G04 APERTURE END LIST*
D10*
D11*
X177002200Y-166007200D02*
X285002200Y-166007200D01*
X285002200Y-198007200D01*
X177002200Y-198007200D01*
X177002200Y-166007200D01*
D10*
D11*
X10000000Y-10000000D02*
X287002200Y-10000000D01*
X287002200Y-200007200D01*
X10000000Y-200007200D01*
X10000000Y-10000000D01*
D10*
D11*
X12000000Y-12000000D02*
X285002200Y-12000000D01*
X285002200Y-198007200D01*
X12000000Y-198007200D01*
X12000000Y-12000000D01*
D10*
D11*
X60000000Y-12000000D02*
X60000000Y-10000000D01*
D10*
D11*
X110000000Y-12000000D02*
X110000000Y-10000000D01*
D10*
D11*
X160000000Y-12000000D02*
X160000000Y-10000000D01*
D10*
D11*
X210000000Y-12000000D02*
X210000000Y-10000000D01*
D10*
D11*
X260000000Y-12000000D02*
X260000000Y-10000000D01*
D10*
D11*
X36089160Y-11593604D02*
X35346303Y-11593604D01*
X35717731Y-11593604D02*
X35717731Y-10293604D01*
X35717731Y-10293604D02*
X35593922Y-10479319D01*
X35593922Y-10479319D02*
X35470112Y-10603128D01*
X35470112Y-10603128D02*
X35346303Y-10665033D01*
D10*
D11*
X85346303Y-10417414D02*
X85408207Y-10355509D01*
X85408207Y-10355509D02*
X85532017Y-10293604D01*
X85532017Y-10293604D02*
X85841541Y-10293604D01*
X85841541Y-10293604D02*
X85965350Y-10355509D01*
X85965350Y-10355509D02*
X86027255Y-10417414D01*
X86027255Y-10417414D02*
X86089160Y-10541223D01*
X86089160Y-10541223D02*
X86089160Y-10665033D01*
X86089160Y-10665033D02*
X86027255Y-10850747D01*
X86027255Y-10850747D02*
X85284398Y-11593604D01*
X85284398Y-11593604D02*
X86089160Y-11593604D01*
D10*
D11*
X135284398Y-10293604D02*
X136089160Y-10293604D01*
X136089160Y-10293604D02*
X135655826Y-10788842D01*
X135655826Y-10788842D02*
X135841541Y-10788842D01*
X135841541Y-10788842D02*
X135965350Y-10850747D01*
X135965350Y-10850747D02*
X136027255Y-10912652D01*
X136027255Y-10912652D02*
X136089160Y-11036461D01*
X136089160Y-11036461D02*
X136089160Y-11345985D01*
X136089160Y-11345985D02*
X136027255Y-11469795D01*
X136027255Y-11469795D02*
X135965350Y-11531700D01*
X135965350Y-11531700D02*
X135841541Y-11593604D01*
X135841541Y-11593604D02*
X135470112Y-11593604D01*
X135470112Y-11593604D02*
X135346303Y-11531700D01*
X135346303Y-11531700D02*
X135284398Y-11469795D01*
D10*
D11*
X185965350Y-10726938D02*
X185965350Y-11593604D01*
X185655826Y-10231700D02*
X185346303Y-11160271D01*
X185346303Y-11160271D02*
X186151064Y-11160271D01*
D10*
D11*
X236027255Y-10293604D02*
X235408207Y-10293604D01*
X235408207Y-10293604D02*
X235346303Y-10912652D01*
X235346303Y-10912652D02*
X235408207Y-10850747D01*
X235408207Y-10850747D02*
X235532017Y-10788842D01*
X235532017Y-10788842D02*
X235841541Y-10788842D01*
X235841541Y-10788842D02*
X235965350Y-10850747D01*
X235965350Y-10850747D02*
X236027255Y-10912652D01*
X236027255Y-10912652D02*
X236089160Y-11036461D01*
X236089160Y-11036461D02*
X236089160Y-11345985D01*
X236089160Y-11345985D02*
X236027255Y-11469795D01*
X236027255Y-11469795D02*
X235965350Y-11531700D01*
X235965350Y-11531700D02*
X235841541Y-11593604D01*
X235841541Y-11593604D02*
X235532017Y-11593604D01*
X235532017Y-11593604D02*
X235408207Y-11531700D01*
X235408207Y-11531700D02*
X235346303Y-11469795D01*
D10*
D11*
X285965350Y-10293604D02*
X285717731Y-10293604D01*
X285717731Y-10293604D02*
X285593922Y-10355509D01*
X285593922Y-10355509D02*
X285532017Y-10417414D01*
X285532017Y-10417414D02*
X285408207Y-10603128D01*
X285408207Y-10603128D02*
X285346303Y-10850747D01*
X285346303Y-10850747D02*
X285346303Y-11345985D01*
X285346303Y-11345985D02*
X285408207Y-11469795D01*
X285408207Y-11469795D02*
X285470112Y-11531700D01*
X285470112Y-11531700D02*
X285593922Y-11593604D01*
X285593922Y-11593604D02*
X285841541Y-11593604D01*
X285841541Y-11593604D02*
X285965350Y-11531700D01*
X285965350Y-11531700D02*
X286027255Y-11469795D01*
X286027255Y-11469795D02*
X286089160Y-11345985D01*
X286089160Y-11345985D02*
X286089160Y-11036461D01*
X286089160Y-11036461D02*
X286027255Y-10912652D01*
X286027255Y-10912652D02*
X285965350Y-10850747D01*
X285965350Y-10850747D02*
X285841541Y-10788842D01*
X285841541Y-10788842D02*
X285593922Y-10788842D01*
X285593922Y-10788842D02*
X285470112Y-10850747D01*
X285470112Y-10850747D02*
X285408207Y-10912652D01*
X285408207Y-10912652D02*
X285346303Y-11036461D01*
D10*
D11*
X60000000Y-198007200D02*
X60000000Y-200007200D01*
D10*
D11*
X110000000Y-198007200D02*
X110000000Y-200007200D01*
D10*
D11*
X160000000Y-198007200D02*
X160000000Y-200007200D01*
D10*
D11*
X210000000Y-198007200D02*
X210000000Y-200007200D01*
D10*
D11*
X260000000Y-198007200D02*
X260000000Y-200007200D01*
D10*
D11*
X36089160Y-199600804D02*
X35346303Y-199600804D01*
X35717731Y-199600804D02*
X35717731Y-198300804D01*
X35717731Y-198300804D02*
X35593922Y-198486519D01*
X35593922Y-198486519D02*
X35470112Y-198610328D01*
X35470112Y-198610328D02*
X35346303Y-198672233D01*
D10*
D11*
X85346303Y-198424614D02*
X85408207Y-198362709D01*
X85408207Y-198362709D02*
X85532017Y-198300804D01*
X85532017Y-198300804D02*
X85841541Y-198300804D01*
X85841541Y-198300804D02*
X85965350Y-198362709D01*
X85965350Y-198362709D02*
X86027255Y-198424614D01*
X86027255Y-198424614D02*
X86089160Y-198548423D01*
X86089160Y-198548423D02*
X86089160Y-198672233D01*
X86089160Y-198672233D02*
X86027255Y-198857947D01*
X86027255Y-198857947D02*
X85284398Y-199600804D01*
X85284398Y-199600804D02*
X86089160Y-199600804D01*
D10*
D11*
X135284398Y-198300804D02*
X136089160Y-198300804D01*
X136089160Y-198300804D02*
X135655826Y-198796042D01*
X135655826Y-198796042D02*
X135841541Y-198796042D01*
X135841541Y-198796042D02*
X135965350Y-198857947D01*
X135965350Y-198857947D02*
X136027255Y-198919852D01*
X136027255Y-198919852D02*
X136089160Y-199043661D01*
X136089160Y-199043661D02*
X136089160Y-199353185D01*
X136089160Y-199353185D02*
X136027255Y-199476995D01*
X136027255Y-199476995D02*
X135965350Y-199538900D01*
X135965350Y-199538900D02*
X135841541Y-199600804D01*
X135841541Y-199600804D02*
X135470112Y-199600804D01*
X135470112Y-199600804D02*
X135346303Y-199538900D01*
X135346303Y-199538900D02*
X135284398Y-199476995D01*
D10*
D11*
X185965350Y-198734138D02*
X185965350Y-199600804D01*
X185655826Y-198238900D02*
X185346303Y-199167471D01*
X185346303Y-199167471D02*
X186151064Y-199167471D01*
D10*
D11*
X236027255Y-198300804D02*
X235408207Y-198300804D01*
X235408207Y-198300804D02*
X235346303Y-198919852D01*
X235346303Y-198919852D02*
X235408207Y-198857947D01*
X235408207Y-198857947D02*
X235532017Y-198796042D01*
X235532017Y-198796042D02*
X235841541Y-198796042D01*
X235841541Y-198796042D02*
X235965350Y-198857947D01*
X235965350Y-198857947D02*
X236027255Y-198919852D01*
X236027255Y-198919852D02*
X236089160Y-199043661D01*
X236089160Y-199043661D02*
X236089160Y-199353185D01*
X236089160Y-199353185D02*
X236027255Y-199476995D01*
X236027255Y-199476995D02*
X235965350Y-199538900D01*
X235965350Y-199538900D02*
X235841541Y-199600804D01*
X235841541Y-199600804D02*
X235532017Y-199600804D01*
X235532017Y-199600804D02*
X235408207Y-199538900D01*
X235408207Y-199538900D02*
X235346303Y-199476995D01*
D10*
D11*
X285965350Y-198300804D02*
X285717731Y-198300804D01*
X285717731Y-198300804D02*
X285593922Y-198362709D01*
X285593922Y-198362709D02*
X285532017Y-198424614D01*
X285532017Y-198424614D02*
X285408207Y-198610328D01*
X285408207Y-198610328D02*
X285346303Y-198857947D01*
X285346303Y-198857947D02*
X285346303Y-199353185D01*
X285346303Y-199353185D02*
X285408207Y-199476995D01*
X285408207Y-199476995D02*
X285470112Y-199538900D01*
X285470112Y-199538900D02*
X285593922Y-199600804D01*
X285593922Y-199600804D02*
X285841541Y-199600804D01*
X285841541Y-199600804D02*
X285965350Y-199538900D01*
X285965350Y-199538900D02*
X286027255Y-199476995D01*
X286027255Y-199476995D02*
X286089160Y-199353185D01*
X286089160Y-199353185D02*
X286089160Y-199043661D01*
X286089160Y-199043661D02*
X286027255Y-198919852D01*
X286027255Y-198919852D02*
X285965350Y-198857947D01*
X285965350Y-198857947D02*
X285841541Y-198796042D01*
X285841541Y-198796042D02*
X285593922Y-198796042D01*
X285593922Y-198796042D02*
X285470112Y-198857947D01*
X285470112Y-198857947D02*
X285408207Y-198919852D01*
X285408207Y-198919852D02*
X285346303Y-199043661D01*
D10*
D11*
X10000000Y-60000000D02*
X12000000Y-60000000D01*
D10*
D11*
X10000000Y-110000000D02*
X12000000Y-110000000D01*
D10*
D11*
X10000000Y-160000000D02*
X12000000Y-160000000D01*
D10*
D11*
X10690476Y-35222176D02*
X11309523Y-35222176D01*
X10566666Y-35593604D02*
X10999999Y-34293604D01*
X10999999Y-34293604D02*
X11433333Y-35593604D01*
D10*
D11*
X11092857Y-84912652D02*
X11278571Y-84974557D01*
X11278571Y-84974557D02*
X11340476Y-85036461D01*
X11340476Y-85036461D02*
X11402380Y-85160271D01*
X11402380Y-85160271D02*
X11402380Y-85345985D01*
X11402380Y-85345985D02*
X11340476Y-85469795D01*
X11340476Y-85469795D02*
X11278571Y-85531700D01*
X11278571Y-85531700D02*
X11154761Y-85593604D01*
X11154761Y-85593604D02*
X10659523Y-85593604D01*
X10659523Y-85593604D02*
X10659523Y-84293604D01*
X10659523Y-84293604D02*
X11092857Y-84293604D01*
X11092857Y-84293604D02*
X11216666Y-84355509D01*
X11216666Y-84355509D02*
X11278571Y-84417414D01*
X11278571Y-84417414D02*
X11340476Y-84541223D01*
X11340476Y-84541223D02*
X11340476Y-84665033D01*
X11340476Y-84665033D02*
X11278571Y-84788842D01*
X11278571Y-84788842D02*
X11216666Y-84850747D01*
X11216666Y-84850747D02*
X11092857Y-84912652D01*
X11092857Y-84912652D02*
X10659523Y-84912652D01*
D10*
D11*
X11402380Y-135469795D02*
X11340476Y-135531700D01*
X11340476Y-135531700D02*
X11154761Y-135593604D01*
X11154761Y-135593604D02*
X11030952Y-135593604D01*
X11030952Y-135593604D02*
X10845238Y-135531700D01*
X10845238Y-135531700D02*
X10721428Y-135407890D01*
X10721428Y-135407890D02*
X10659523Y-135284080D01*
X10659523Y-135284080D02*
X10597619Y-135036461D01*
X10597619Y-135036461D02*
X10597619Y-134850747D01*
X10597619Y-134850747D02*
X10659523Y-134603128D01*
X10659523Y-134603128D02*
X10721428Y-134479319D01*
X10721428Y-134479319D02*
X10845238Y-134355509D01*
X10845238Y-134355509D02*
X11030952Y-134293604D01*
X11030952Y-134293604D02*
X11154761Y-134293604D01*
X11154761Y-134293604D02*
X11340476Y-134355509D01*
X11340476Y-134355509D02*
X11402380Y-134417414D01*
D10*
D11*
X10659523Y-185593604D02*
X10659523Y-184293604D01*
X10659523Y-184293604D02*
X10969047Y-184293604D01*
X10969047Y-184293604D02*
X11154761Y-184355509D01*
X11154761Y-184355509D02*
X11278571Y-184479319D01*
X11278571Y-184479319D02*
X11340476Y-184603128D01*
X11340476Y-184603128D02*
X11402380Y-184850747D01*
X11402380Y-184850747D02*
X11402380Y-185036461D01*
X11402380Y-185036461D02*
X11340476Y-185284080D01*
X11340476Y-185284080D02*
X11278571Y-185407890D01*
X11278571Y-185407890D02*
X11154761Y-185531700D01*
X11154761Y-185531700D02*
X10969047Y-185593604D01*
X10969047Y-185593604D02*
X10659523Y-185593604D01*
D10*
D11*
X287002200Y-60000000D02*
X285002200Y-60000000D01*
D10*
D11*
X287002200Y-110000000D02*
X285002200Y-110000000D01*
D10*
D11*
X287002200Y-160000000D02*
X285002200Y-160000000D01*
D10*
D11*
X285692676Y-35222176D02*
X286311723Y-35222176D01*
X285568866Y-35593604D02*
X286002199Y-34293604D01*
X286002199Y-34293604D02*
X286435533Y-35593604D01*
D10*
D11*
X286095057Y-84912652D02*
X286280771Y-84974557D01*
X286280771Y-84974557D02*
X286342676Y-85036461D01*
X286342676Y-85036461D02*
X286404580Y-85160271D01*
X286404580Y-85160271D02*
X286404580Y-85345985D01*
X286404580Y-85345985D02*
X286342676Y-85469795D01*
X286342676Y-85469795D02*
X286280771Y-85531700D01*
X286280771Y-85531700D02*
X286156961Y-85593604D01*
X286156961Y-85593604D02*
X285661723Y-85593604D01*
X285661723Y-85593604D02*
X285661723Y-84293604D01*
X285661723Y-84293604D02*
X286095057Y-84293604D01*
X286095057Y-84293604D02*
X286218866Y-84355509D01*
X286218866Y-84355509D02*
X286280771Y-84417414D01*
X286280771Y-84417414D02*
X286342676Y-84541223D01*
X286342676Y-84541223D02*
X286342676Y-84665033D01*
X286342676Y-84665033D02*
X286280771Y-84788842D01*
X286280771Y-84788842D02*
X286218866Y-84850747D01*
X286218866Y-84850747D02*
X286095057Y-84912652D01*
X286095057Y-84912652D02*
X285661723Y-84912652D01*
D10*
D11*
X286404580Y-135469795D02*
X286342676Y-135531700D01*
X286342676Y-135531700D02*
X286156961Y-135593604D01*
X286156961Y-135593604D02*
X286033152Y-135593604D01*
X286033152Y-135593604D02*
X285847438Y-135531700D01*
X285847438Y-135531700D02*
X285723628Y-135407890D01*
X285723628Y-135407890D02*
X285661723Y-135284080D01*
X285661723Y-135284080D02*
X285599819Y-135036461D01*
X285599819Y-135036461D02*
X285599819Y-134850747D01*
X285599819Y-134850747D02*
X285661723Y-134603128D01*
X285661723Y-134603128D02*
X285723628Y-134479319D01*
X285723628Y-134479319D02*
X285847438Y-134355509D01*
X285847438Y-134355509D02*
X286033152Y-134293604D01*
X286033152Y-134293604D02*
X286156961Y-134293604D01*
X286156961Y-134293604D02*
X286342676Y-134355509D01*
X286342676Y-134355509D02*
X286404580Y-134417414D01*
D10*
D11*
X285661723Y-185593604D02*
X285661723Y-184293604D01*
X285661723Y-184293604D02*
X285971247Y-184293604D01*
X285971247Y-184293604D02*
X286156961Y-184355509D01*
X286156961Y-184355509D02*
X286280771Y-184479319D01*
X286280771Y-184479319D02*
X286342676Y-184603128D01*
X286342676Y-184603128D02*
X286404580Y-184850747D01*
X286404580Y-184850747D02*
X286404580Y-185036461D01*
X286404580Y-185036461D02*
X286342676Y-185284080D01*
X286342676Y-185284080D02*
X286280771Y-185407890D01*
X286280771Y-185407890D02*
X286156961Y-185531700D01*
X286156961Y-185531700D02*
X285971247Y-185593604D01*
X285971247Y-185593604D02*
X285661723Y-185593604D01*
D10*
D11*
X200458026Y-193793328D02*
X200458026Y-192293328D01*
X200458026Y-192293328D02*
X200815169Y-192293328D01*
X200815169Y-192293328D02*
X201029455Y-192364757D01*
X201029455Y-192364757D02*
X201172312Y-192507614D01*
X201172312Y-192507614D02*
X201243741Y-192650471D01*
X201243741Y-192650471D02*
X201315169Y-192936185D01*
X201315169Y-192936185D02*
X201315169Y-193150471D01*
X201315169Y-193150471D02*
X201243741Y-193436185D01*
X201243741Y-193436185D02*
X201172312Y-193579042D01*
X201172312Y-193579042D02*
X201029455Y-193721900D01*
X201029455Y-193721900D02*
X200815169Y-193793328D01*
X200815169Y-193793328D02*
X200458026Y-193793328D01*
X202600884Y-193793328D02*
X202600884Y-193007614D01*
X202600884Y-193007614D02*
X202529455Y-192864757D01*
X202529455Y-192864757D02*
X202386598Y-192793328D01*
X202386598Y-192793328D02*
X202100884Y-192793328D01*
X202100884Y-192793328D02*
X201958026Y-192864757D01*
X202600884Y-193721900D02*
X202458026Y-193793328D01*
X202458026Y-193793328D02*
X202100884Y-193793328D01*
X202100884Y-193793328D02*
X201958026Y-193721900D01*
X201958026Y-193721900D02*
X201886598Y-193579042D01*
X201886598Y-193579042D02*
X201886598Y-193436185D01*
X201886598Y-193436185D02*
X201958026Y-193293328D01*
X201958026Y-193293328D02*
X202100884Y-193221900D01*
X202100884Y-193221900D02*
X202458026Y-193221900D01*
X202458026Y-193221900D02*
X202600884Y-193150471D01*
X203100884Y-192793328D02*
X203672312Y-192793328D01*
X203315169Y-192293328D02*
X203315169Y-193579042D01*
X203315169Y-193579042D02*
X203386598Y-193721900D01*
X203386598Y-193721900D02*
X203529455Y-193793328D01*
X203529455Y-193793328D02*
X203672312Y-193793328D01*
X204743741Y-193721900D02*
X204600884Y-193793328D01*
X204600884Y-193793328D02*
X204315170Y-193793328D01*
X204315170Y-193793328D02*
X204172312Y-193721900D01*
X204172312Y-193721900D02*
X204100884Y-193579042D01*
X204100884Y-193579042D02*
X204100884Y-193007614D01*
X204100884Y-193007614D02*
X204172312Y-192864757D01*
X204172312Y-192864757D02*
X204315170Y-192793328D01*
X204315170Y-192793328D02*
X204600884Y-192793328D01*
X204600884Y-192793328D02*
X204743741Y-192864757D01*
X204743741Y-192864757D02*
X204815170Y-193007614D01*
X204815170Y-193007614D02*
X204815170Y-193150471D01*
X204815170Y-193150471D02*
X204100884Y-193293328D01*
X205458026Y-193650471D02*
X205529455Y-193721900D01*
X205529455Y-193721900D02*
X205458026Y-193793328D01*
X205458026Y-193793328D02*
X205386598Y-193721900D01*
X205386598Y-193721900D02*
X205458026Y-193650471D01*
X205458026Y-193650471D02*
X205458026Y-193793328D01*
X205458026Y-192864757D02*
X205529455Y-192936185D01*
X205529455Y-192936185D02*
X205458026Y-193007614D01*
X205458026Y-193007614D02*
X205386598Y-192936185D01*
X205386598Y-192936185D02*
X205458026Y-192864757D01*
X205458026Y-192864757D02*
X205458026Y-193007614D01*
X208100884Y-193793328D02*
X207243741Y-193793328D01*
X207672312Y-193793328D02*
X207672312Y-192293328D01*
X207672312Y-192293328D02*
X207529455Y-192507614D01*
X207529455Y-192507614D02*
X207386598Y-192650471D01*
X207386598Y-192650471D02*
X207243741Y-192721900D01*
X208815169Y-193793328D02*
X209100883Y-193793328D01*
X209100883Y-193793328D02*
X209243740Y-193721900D01*
X209243740Y-193721900D02*
X209315169Y-193650471D01*
X209315169Y-193650471D02*
X209458026Y-193436185D01*
X209458026Y-193436185D02*
X209529455Y-193150471D01*
X209529455Y-193150471D02*
X209529455Y-192579042D01*
X209529455Y-192579042D02*
X209458026Y-192436185D01*
X209458026Y-192436185D02*
X209386598Y-192364757D01*
X209386598Y-192364757D02*
X209243740Y-192293328D01*
X209243740Y-192293328D02*
X208958026Y-192293328D01*
X208958026Y-192293328D02*
X208815169Y-192364757D01*
X208815169Y-192364757D02*
X208743740Y-192436185D01*
X208743740Y-192436185D02*
X208672312Y-192579042D01*
X208672312Y-192579042D02*
X208672312Y-192936185D01*
X208672312Y-192936185D02*
X208743740Y-193079042D01*
X208743740Y-193079042D02*
X208815169Y-193150471D01*
X208815169Y-193150471D02*
X208958026Y-193221900D01*
X208958026Y-193221900D02*
X209243740Y-193221900D01*
X209243740Y-193221900D02*
X209386598Y-193150471D01*
X209386598Y-193150471D02*
X209458026Y-193079042D01*
X209458026Y-193079042D02*
X209529455Y-192936185D01*
X211243740Y-192221900D02*
X209958026Y-194150471D01*
X212029455Y-192293328D02*
X212172312Y-192293328D01*
X212172312Y-192293328D02*
X212315169Y-192364757D01*
X212315169Y-192364757D02*
X212386598Y-192436185D01*
X212386598Y-192436185D02*
X212458026Y-192579042D01*
X212458026Y-192579042D02*
X212529455Y-192864757D01*
X212529455Y-192864757D02*
X212529455Y-193221900D01*
X212529455Y-193221900D02*
X212458026Y-193507614D01*
X212458026Y-193507614D02*
X212386598Y-193650471D01*
X212386598Y-193650471D02*
X212315169Y-193721900D01*
X212315169Y-193721900D02*
X212172312Y-193793328D01*
X212172312Y-193793328D02*
X212029455Y-193793328D01*
X212029455Y-193793328D02*
X211886598Y-193721900D01*
X211886598Y-193721900D02*
X211815169Y-193650471D01*
X211815169Y-193650471D02*
X211743740Y-193507614D01*
X211743740Y-193507614D02*
X211672312Y-193221900D01*
X211672312Y-193221900D02*
X211672312Y-192864757D01*
X211672312Y-192864757D02*
X211743740Y-192579042D01*
X211743740Y-192579042D02*
X211815169Y-192436185D01*
X211815169Y-192436185D02*
X211886598Y-192364757D01*
X211886598Y-192364757D02*
X212029455Y-192293328D01*
X213029454Y-192293328D02*
X213958026Y-192293328D01*
X213958026Y-192293328D02*
X213458026Y-192864757D01*
X213458026Y-192864757D02*
X213672311Y-192864757D01*
X213672311Y-192864757D02*
X213815169Y-192936185D01*
X213815169Y-192936185D02*
X213886597Y-193007614D01*
X213886597Y-193007614D02*
X213958026Y-193150471D01*
X213958026Y-193150471D02*
X213958026Y-193507614D01*
X213958026Y-193507614D02*
X213886597Y-193650471D01*
X213886597Y-193650471D02*
X213815169Y-193721900D01*
X213815169Y-193721900D02*
X213672311Y-193793328D01*
X213672311Y-193793328D02*
X213243740Y-193793328D01*
X213243740Y-193793328D02*
X213100883Y-193721900D01*
X213100883Y-193721900D02*
X213029454Y-193650471D01*
X215672311Y-192221900D02*
X214386597Y-194150471D01*
X216100883Y-192436185D02*
X216172311Y-192364757D01*
X216172311Y-192364757D02*
X216315169Y-192293328D01*
X216315169Y-192293328D02*
X216672311Y-192293328D01*
X216672311Y-192293328D02*
X216815169Y-192364757D01*
X216815169Y-192364757D02*
X216886597Y-192436185D01*
X216886597Y-192436185D02*
X216958026Y-192579042D01*
X216958026Y-192579042D02*
X216958026Y-192721900D01*
X216958026Y-192721900D02*
X216886597Y-192936185D01*
X216886597Y-192936185D02*
X216029454Y-193793328D01*
X216029454Y-193793328D02*
X216958026Y-193793328D01*
X217886597Y-192293328D02*
X218029454Y-192293328D01*
X218029454Y-192293328D02*
X218172311Y-192364757D01*
X218172311Y-192364757D02*
X218243740Y-192436185D01*
X218243740Y-192436185D02*
X218315168Y-192579042D01*
X218315168Y-192579042D02*
X218386597Y-192864757D01*
X218386597Y-192864757D02*
X218386597Y-193221900D01*
X218386597Y-193221900D02*
X218315168Y-193507614D01*
X218315168Y-193507614D02*
X218243740Y-193650471D01*
X218243740Y-193650471D02*
X218172311Y-193721900D01*
X218172311Y-193721900D02*
X218029454Y-193793328D01*
X218029454Y-193793328D02*
X217886597Y-193793328D01*
X217886597Y-193793328D02*
X217743740Y-193721900D01*
X217743740Y-193721900D02*
X217672311Y-193650471D01*
X217672311Y-193650471D02*
X217600882Y-193507614D01*
X217600882Y-193507614D02*
X217529454Y-193221900D01*
X217529454Y-193221900D02*
X217529454Y-192864757D01*
X217529454Y-192864757D02*
X217600882Y-192579042D01*
X217600882Y-192579042D02*
X217672311Y-192436185D01*
X217672311Y-192436185D02*
X217743740Y-192364757D01*
X217743740Y-192364757D02*
X217886597Y-192293328D01*
X218958025Y-192436185D02*
X219029453Y-192364757D01*
X219029453Y-192364757D02*
X219172311Y-192293328D01*
X219172311Y-192293328D02*
X219529453Y-192293328D01*
X219529453Y-192293328D02*
X219672311Y-192364757D01*
X219672311Y-192364757D02*
X219743739Y-192436185D01*
X219743739Y-192436185D02*
X219815168Y-192579042D01*
X219815168Y-192579042D02*
X219815168Y-192721900D01*
X219815168Y-192721900D02*
X219743739Y-192936185D01*
X219743739Y-192936185D02*
X218886596Y-193793328D01*
X218886596Y-193793328D02*
X219815168Y-193793328D01*
X221100882Y-192793328D02*
X221100882Y-193793328D01*
X220743739Y-192221900D02*
X220386596Y-193293328D01*
X220386596Y-193293328D02*
X221315167Y-193293328D01*
D10*
D11*
X177002200Y-194507200D02*
X285002200Y-194507200D01*
D10*
D11*
X178458026Y-196593328D02*
X178458026Y-195093328D01*
X179315169Y-196593328D02*
X178672312Y-195736185D01*
X179315169Y-195093328D02*
X178458026Y-195950471D01*
X179958026Y-196593328D02*
X179958026Y-195593328D01*
X179958026Y-195093328D02*
X179886598Y-195164757D01*
X179886598Y-195164757D02*
X179958026Y-195236185D01*
X179958026Y-195236185D02*
X180029455Y-195164757D01*
X180029455Y-195164757D02*
X179958026Y-195093328D01*
X179958026Y-195093328D02*
X179958026Y-195236185D01*
X181529455Y-196450471D02*
X181458027Y-196521900D01*
X181458027Y-196521900D02*
X181243741Y-196593328D01*
X181243741Y-196593328D02*
X181100884Y-196593328D01*
X181100884Y-196593328D02*
X180886598Y-196521900D01*
X180886598Y-196521900D02*
X180743741Y-196379042D01*
X180743741Y-196379042D02*
X180672312Y-196236185D01*
X180672312Y-196236185D02*
X180600884Y-195950471D01*
X180600884Y-195950471D02*
X180600884Y-195736185D01*
X180600884Y-195736185D02*
X180672312Y-195450471D01*
X180672312Y-195450471D02*
X180743741Y-195307614D01*
X180743741Y-195307614D02*
X180886598Y-195164757D01*
X180886598Y-195164757D02*
X181100884Y-195093328D01*
X181100884Y-195093328D02*
X181243741Y-195093328D01*
X181243741Y-195093328D02*
X181458027Y-195164757D01*
X181458027Y-195164757D02*
X181529455Y-195236185D01*
X182815170Y-196593328D02*
X182815170Y-195807614D01*
X182815170Y-195807614D02*
X182743741Y-195664757D01*
X182743741Y-195664757D02*
X182600884Y-195593328D01*
X182600884Y-195593328D02*
X182315170Y-195593328D01*
X182315170Y-195593328D02*
X182172312Y-195664757D01*
X182815170Y-196521900D02*
X182672312Y-196593328D01*
X182672312Y-196593328D02*
X182315170Y-196593328D01*
X182315170Y-196593328D02*
X182172312Y-196521900D01*
X182172312Y-196521900D02*
X182100884Y-196379042D01*
X182100884Y-196379042D02*
X182100884Y-196236185D01*
X182100884Y-196236185D02*
X182172312Y-196093328D01*
X182172312Y-196093328D02*
X182315170Y-196021900D01*
X182315170Y-196021900D02*
X182672312Y-196021900D01*
X182672312Y-196021900D02*
X182815170Y-195950471D01*
X184172313Y-196593328D02*
X184172313Y-195093328D01*
X184172313Y-196521900D02*
X184029455Y-196593328D01*
X184029455Y-196593328D02*
X183743741Y-196593328D01*
X183743741Y-196593328D02*
X183600884Y-196521900D01*
X183600884Y-196521900D02*
X183529455Y-196450471D01*
X183529455Y-196450471D02*
X183458027Y-196307614D01*
X183458027Y-196307614D02*
X183458027Y-195879042D01*
X183458027Y-195879042D02*
X183529455Y-195736185D01*
X183529455Y-195736185D02*
X183600884Y-195664757D01*
X183600884Y-195664757D02*
X183743741Y-195593328D01*
X183743741Y-195593328D02*
X184029455Y-195593328D01*
X184029455Y-195593328D02*
X184172313Y-195664757D01*
X186029455Y-195807614D02*
X186529455Y-195807614D01*
X186743741Y-196593328D02*
X186029455Y-196593328D01*
X186029455Y-196593328D02*
X186029455Y-195093328D01*
X186029455Y-195093328D02*
X186743741Y-195093328D01*
X187386598Y-196450471D02*
X187458027Y-196521900D01*
X187458027Y-196521900D02*
X187386598Y-196593328D01*
X187386598Y-196593328D02*
X187315170Y-196521900D01*
X187315170Y-196521900D02*
X187386598Y-196450471D01*
X187386598Y-196450471D02*
X187386598Y-196593328D01*
X188100884Y-196593328D02*
X188100884Y-195093328D01*
X188100884Y-195093328D02*
X188458027Y-195093328D01*
X188458027Y-195093328D02*
X188672313Y-195164757D01*
X188672313Y-195164757D02*
X188815170Y-195307614D01*
X188815170Y-195307614D02*
X188886599Y-195450471D01*
X188886599Y-195450471D02*
X188958027Y-195736185D01*
X188958027Y-195736185D02*
X188958027Y-195950471D01*
X188958027Y-195950471D02*
X188886599Y-196236185D01*
X188886599Y-196236185D02*
X188815170Y-196379042D01*
X188815170Y-196379042D02*
X188672313Y-196521900D01*
X188672313Y-196521900D02*
X188458027Y-196593328D01*
X188458027Y-196593328D02*
X188100884Y-196593328D01*
X189600884Y-196450471D02*
X189672313Y-196521900D01*
X189672313Y-196521900D02*
X189600884Y-196593328D01*
X189600884Y-196593328D02*
X189529456Y-196521900D01*
X189529456Y-196521900D02*
X189600884Y-196450471D01*
X189600884Y-196450471D02*
X189600884Y-196593328D01*
X190243742Y-196164757D02*
X190958028Y-196164757D01*
X190100885Y-196593328D02*
X190600885Y-195093328D01*
X190600885Y-195093328D02*
X191100885Y-196593328D01*
X191600884Y-196450471D02*
X191672313Y-196521900D01*
X191672313Y-196521900D02*
X191600884Y-196593328D01*
X191600884Y-196593328D02*
X191529456Y-196521900D01*
X191529456Y-196521900D02*
X191600884Y-196450471D01*
X191600884Y-196450471D02*
X191600884Y-196593328D01*
X194600884Y-196593328D02*
X194600884Y-195093328D01*
X194743742Y-196021900D02*
X195172313Y-196593328D01*
X195172313Y-195593328D02*
X194600884Y-196164757D01*
X195815170Y-196593328D02*
X195815170Y-195593328D01*
X195815170Y-195093328D02*
X195743742Y-195164757D01*
X195743742Y-195164757D02*
X195815170Y-195236185D01*
X195815170Y-195236185D02*
X195886599Y-195164757D01*
X195886599Y-195164757D02*
X195815170Y-195093328D01*
X195815170Y-195093328D02*
X195815170Y-195236185D01*
X197172314Y-196521900D02*
X197029456Y-196593328D01*
X197029456Y-196593328D02*
X196743742Y-196593328D01*
X196743742Y-196593328D02*
X196600885Y-196521900D01*
X196600885Y-196521900D02*
X196529456Y-196450471D01*
X196529456Y-196450471D02*
X196458028Y-196307614D01*
X196458028Y-196307614D02*
X196458028Y-195879042D01*
X196458028Y-195879042D02*
X196529456Y-195736185D01*
X196529456Y-195736185D02*
X196600885Y-195664757D01*
X196600885Y-195664757D02*
X196743742Y-195593328D01*
X196743742Y-195593328D02*
X197029456Y-195593328D01*
X197029456Y-195593328D02*
X197172314Y-195664757D01*
X198458028Y-196593328D02*
X198458028Y-195807614D01*
X198458028Y-195807614D02*
X198386599Y-195664757D01*
X198386599Y-195664757D02*
X198243742Y-195593328D01*
X198243742Y-195593328D02*
X197958028Y-195593328D01*
X197958028Y-195593328D02*
X197815170Y-195664757D01*
X198458028Y-196521900D02*
X198315170Y-196593328D01*
X198315170Y-196593328D02*
X197958028Y-196593328D01*
X197958028Y-196593328D02*
X197815170Y-196521900D01*
X197815170Y-196521900D02*
X197743742Y-196379042D01*
X197743742Y-196379042D02*
X197743742Y-196236185D01*
X197743742Y-196236185D02*
X197815170Y-196093328D01*
X197815170Y-196093328D02*
X197958028Y-196021900D01*
X197958028Y-196021900D02*
X198315170Y-196021900D01*
X198315170Y-196021900D02*
X198458028Y-195950471D01*
X199815171Y-196593328D02*
X199815171Y-195093328D01*
X199815171Y-196521900D02*
X199672313Y-196593328D01*
X199672313Y-196593328D02*
X199386599Y-196593328D01*
X199386599Y-196593328D02*
X199243742Y-196521900D01*
X199243742Y-196521900D02*
X199172313Y-196450471D01*
X199172313Y-196450471D02*
X199100885Y-196307614D01*
X199100885Y-196307614D02*
X199100885Y-195879042D01*
X199100885Y-195879042D02*
X199172313Y-195736185D01*
X199172313Y-195736185D02*
X199243742Y-195664757D01*
X199243742Y-195664757D02*
X199386599Y-195593328D01*
X199386599Y-195593328D02*
X199672313Y-195593328D01*
X199672313Y-195593328D02*
X199815171Y-195664757D01*
X201529456Y-195093328D02*
X202529456Y-195093328D01*
X202529456Y-195093328D02*
X201886599Y-196593328D01*
X203100884Y-196450471D02*
X203172313Y-196521900D01*
X203172313Y-196521900D02*
X203100884Y-196593328D01*
X203100884Y-196593328D02*
X203029456Y-196521900D01*
X203029456Y-196521900D02*
X203100884Y-196450471D01*
X203100884Y-196450471D02*
X203100884Y-196593328D01*
X204100885Y-195093328D02*
X204243742Y-195093328D01*
X204243742Y-195093328D02*
X204386599Y-195164757D01*
X204386599Y-195164757D02*
X204458028Y-195236185D01*
X204458028Y-195236185D02*
X204529456Y-195379042D01*
X204529456Y-195379042D02*
X204600885Y-195664757D01*
X204600885Y-195664757D02*
X204600885Y-196021900D01*
X204600885Y-196021900D02*
X204529456Y-196307614D01*
X204529456Y-196307614D02*
X204458028Y-196450471D01*
X204458028Y-196450471D02*
X204386599Y-196521900D01*
X204386599Y-196521900D02*
X204243742Y-196593328D01*
X204243742Y-196593328D02*
X204100885Y-196593328D01*
X204100885Y-196593328D02*
X203958028Y-196521900D01*
X203958028Y-196521900D02*
X203886599Y-196450471D01*
X203886599Y-196450471D02*
X203815170Y-196307614D01*
X203815170Y-196307614D02*
X203743742Y-196021900D01*
X203743742Y-196021900D02*
X203743742Y-195664757D01*
X203743742Y-195664757D02*
X203815170Y-195379042D01*
X203815170Y-195379042D02*
X203886599Y-195236185D01*
X203886599Y-195236185D02*
X203958028Y-195164757D01*
X203958028Y-195164757D02*
X204100885Y-195093328D01*
X205243741Y-196450471D02*
X205315170Y-196521900D01*
X205315170Y-196521900D02*
X205243741Y-196593328D01*
X205243741Y-196593328D02*
X205172313Y-196521900D01*
X205172313Y-196521900D02*
X205243741Y-196450471D01*
X205243741Y-196450471D02*
X205243741Y-196593328D01*
X205815170Y-195093328D02*
X206815170Y-195093328D01*
X206815170Y-195093328D02*
X206172313Y-196593328D01*
D10*
D11*
X177002200Y-191507200D02*
X285002200Y-191507200D01*
D10*
D12*
X264413853Y-193785528D02*
X263913853Y-193071242D01*
X263556710Y-193785528D02*
X263556710Y-192285528D01*
X263556710Y-192285528D02*
X264128139Y-192285528D01*
X264128139Y-192285528D02*
X264270996Y-192356957D01*
X264270996Y-192356957D02*
X264342425Y-192428385D01*
X264342425Y-192428385D02*
X264413853Y-192571242D01*
X264413853Y-192571242D02*
X264413853Y-192785528D01*
X264413853Y-192785528D02*
X264342425Y-192928385D01*
X264342425Y-192928385D02*
X264270996Y-192999814D01*
X264270996Y-192999814D02*
X264128139Y-193071242D01*
X264128139Y-193071242D02*
X263556710Y-193071242D01*
X265628139Y-193714100D02*
X265485282Y-193785528D01*
X265485282Y-193785528D02*
X265199568Y-193785528D01*
X265199568Y-193785528D02*
X265056710Y-193714100D01*
X265056710Y-193714100D02*
X264985282Y-193571242D01*
X264985282Y-193571242D02*
X264985282Y-192999814D01*
X264985282Y-192999814D02*
X265056710Y-192856957D01*
X265056710Y-192856957D02*
X265199568Y-192785528D01*
X265199568Y-192785528D02*
X265485282Y-192785528D01*
X265485282Y-192785528D02*
X265628139Y-192856957D01*
X265628139Y-192856957D02*
X265699568Y-192999814D01*
X265699568Y-192999814D02*
X265699568Y-193142671D01*
X265699568Y-193142671D02*
X264985282Y-193285528D01*
X266199567Y-192785528D02*
X266556710Y-193785528D01*
X266556710Y-193785528D02*
X266913853Y-192785528D01*
X267485281Y-193642671D02*
X267556710Y-193714100D01*
X267556710Y-193714100D02*
X267485281Y-193785528D01*
X267485281Y-193785528D02*
X267413853Y-193714100D01*
X267413853Y-193714100D02*
X267485281Y-193642671D01*
X267485281Y-193642671D02*
X267485281Y-193785528D01*
X267485281Y-192856957D02*
X267556710Y-192928385D01*
X267556710Y-192928385D02*
X267485281Y-192999814D01*
X267485281Y-192999814D02*
X267413853Y-192928385D01*
X267413853Y-192928385D02*
X267485281Y-192856957D01*
X267485281Y-192856957D02*
X267485281Y-192999814D01*
X269199567Y-192785528D02*
X269556710Y-193785528D01*
X269556710Y-193785528D02*
X269913853Y-192785528D01*
X270770996Y-192285528D02*
X270913853Y-192285528D01*
X270913853Y-192285528D02*
X271056710Y-192356957D01*
X271056710Y-192356957D02*
X271128139Y-192428385D01*
X271128139Y-192428385D02*
X271199567Y-192571242D01*
X271199567Y-192571242D02*
X271270996Y-192856957D01*
X271270996Y-192856957D02*
X271270996Y-193214100D01*
X271270996Y-193214100D02*
X271199567Y-193499814D01*
X271199567Y-193499814D02*
X271128139Y-193642671D01*
X271128139Y-193642671D02*
X271056710Y-193714100D01*
X271056710Y-193714100D02*
X270913853Y-193785528D01*
X270913853Y-193785528D02*
X270770996Y-193785528D01*
X270770996Y-193785528D02*
X270628139Y-193714100D01*
X270628139Y-193714100D02*
X270556710Y-193642671D01*
X270556710Y-193642671D02*
X270485281Y-193499814D01*
X270485281Y-193499814D02*
X270413853Y-193214100D01*
X270413853Y-193214100D02*
X270413853Y-192856957D01*
X270413853Y-192856957D02*
X270485281Y-192571242D01*
X270485281Y-192571242D02*
X270556710Y-192428385D01*
X270556710Y-192428385D02*
X270628139Y-192356957D01*
X270628139Y-192356957D02*
X270770996Y-192285528D01*
X271842424Y-192428385D02*
X271913852Y-192356957D01*
X271913852Y-192356957D02*
X272056710Y-192285528D01*
X272056710Y-192285528D02*
X272413852Y-192285528D01*
X272413852Y-192285528D02*
X272556710Y-192356957D01*
X272556710Y-192356957D02*
X272628138Y-192428385D01*
X272628138Y-192428385D02*
X272699567Y-192571242D01*
X272699567Y-192571242D02*
X272699567Y-192714100D01*
X272699567Y-192714100D02*
X272628138Y-192928385D01*
X272628138Y-192928385D02*
X271770995Y-193785528D01*
X271770995Y-193785528D02*
X272699567Y-193785528D01*
D10*
D11*
X178386598Y-193721900D02*
X178600884Y-193793328D01*
X178600884Y-193793328D02*
X178958026Y-193793328D01*
X178958026Y-193793328D02*
X179100884Y-193721900D01*
X179100884Y-193721900D02*
X179172312Y-193650471D01*
X179172312Y-193650471D02*
X179243741Y-193507614D01*
X179243741Y-193507614D02*
X179243741Y-193364757D01*
X179243741Y-193364757D02*
X179172312Y-193221900D01*
X179172312Y-193221900D02*
X179100884Y-193150471D01*
X179100884Y-193150471D02*
X178958026Y-193079042D01*
X178958026Y-193079042D02*
X178672312Y-193007614D01*
X178672312Y-193007614D02*
X178529455Y-192936185D01*
X178529455Y-192936185D02*
X178458026Y-192864757D01*
X178458026Y-192864757D02*
X178386598Y-192721900D01*
X178386598Y-192721900D02*
X178386598Y-192579042D01*
X178386598Y-192579042D02*
X178458026Y-192436185D01*
X178458026Y-192436185D02*
X178529455Y-192364757D01*
X178529455Y-192364757D02*
X178672312Y-192293328D01*
X178672312Y-192293328D02*
X179029455Y-192293328D01*
X179029455Y-192293328D02*
X179243741Y-192364757D01*
X179886597Y-193793328D02*
X179886597Y-192793328D01*
X179886597Y-192293328D02*
X179815169Y-192364757D01*
X179815169Y-192364757D02*
X179886597Y-192436185D01*
X179886597Y-192436185D02*
X179958026Y-192364757D01*
X179958026Y-192364757D02*
X179886597Y-192293328D01*
X179886597Y-192293328D02*
X179886597Y-192436185D01*
X180458026Y-192793328D02*
X181243741Y-192793328D01*
X181243741Y-192793328D02*
X180458026Y-193793328D01*
X180458026Y-193793328D02*
X181243741Y-193793328D01*
X182386598Y-193721900D02*
X182243741Y-193793328D01*
X182243741Y-193793328D02*
X181958027Y-193793328D01*
X181958027Y-193793328D02*
X181815169Y-193721900D01*
X181815169Y-193721900D02*
X181743741Y-193579042D01*
X181743741Y-193579042D02*
X181743741Y-193007614D01*
X181743741Y-193007614D02*
X181815169Y-192864757D01*
X181815169Y-192864757D02*
X181958027Y-192793328D01*
X181958027Y-192793328D02*
X182243741Y-192793328D01*
X182243741Y-192793328D02*
X182386598Y-192864757D01*
X182386598Y-192864757D02*
X182458027Y-193007614D01*
X182458027Y-193007614D02*
X182458027Y-193150471D01*
X182458027Y-193150471D02*
X181743741Y-193293328D01*
X183100883Y-193650471D02*
X183172312Y-193721900D01*
X183172312Y-193721900D02*
X183100883Y-193793328D01*
X183100883Y-193793328D02*
X183029455Y-193721900D01*
X183029455Y-193721900D02*
X183100883Y-193650471D01*
X183100883Y-193650471D02*
X183100883Y-193793328D01*
X183100883Y-192864757D02*
X183172312Y-192936185D01*
X183172312Y-192936185D02*
X183100883Y-193007614D01*
X183100883Y-193007614D02*
X183029455Y-192936185D01*
X183029455Y-192936185D02*
X183100883Y-192864757D01*
X183100883Y-192864757D02*
X183100883Y-193007614D01*
X184886598Y-193364757D02*
X185600884Y-193364757D01*
X184743741Y-193793328D02*
X185243741Y-192293328D01*
X185243741Y-192293328D02*
X185743741Y-193793328D01*
X186886598Y-192793328D02*
X186886598Y-193793328D01*
X186529455Y-192221900D02*
X186172312Y-193293328D01*
X186172312Y-193293328D02*
X187100883Y-193293328D01*
D10*
D11*
X263458026Y-196593328D02*
X263458026Y-195093328D01*
X264815170Y-196593328D02*
X264815170Y-195093328D01*
X264815170Y-196521900D02*
X264672312Y-196593328D01*
X264672312Y-196593328D02*
X264386598Y-196593328D01*
X264386598Y-196593328D02*
X264243741Y-196521900D01*
X264243741Y-196521900D02*
X264172312Y-196450471D01*
X264172312Y-196450471D02*
X264100884Y-196307614D01*
X264100884Y-196307614D02*
X264100884Y-195879042D01*
X264100884Y-195879042D02*
X264172312Y-195736185D01*
X264172312Y-195736185D02*
X264243741Y-195664757D01*
X264243741Y-195664757D02*
X264386598Y-195593328D01*
X264386598Y-195593328D02*
X264672312Y-195593328D01*
X264672312Y-195593328D02*
X264815170Y-195664757D01*
X265529455Y-196450471D02*
X265600884Y-196521900D01*
X265600884Y-196521900D02*
X265529455Y-196593328D01*
X265529455Y-196593328D02*
X265458027Y-196521900D01*
X265458027Y-196521900D02*
X265529455Y-196450471D01*
X265529455Y-196450471D02*
X265529455Y-196593328D01*
X265529455Y-195664757D02*
X265600884Y-195736185D01*
X265600884Y-195736185D02*
X265529455Y-195807614D01*
X265529455Y-195807614D02*
X265458027Y-195736185D01*
X265458027Y-195736185D02*
X265529455Y-195664757D01*
X265529455Y-195664757D02*
X265529455Y-195807614D01*
X268172313Y-196593328D02*
X267315170Y-196593328D01*
X267743741Y-196593328D02*
X267743741Y-195093328D01*
X267743741Y-195093328D02*
X267600884Y-195307614D01*
X267600884Y-195307614D02*
X267458027Y-195450471D01*
X267458027Y-195450471D02*
X267315170Y-195521900D01*
X269886598Y-195021900D02*
X268600884Y-196950471D01*
X271172313Y-196593328D02*
X270315170Y-196593328D01*
X270743741Y-196593328D02*
X270743741Y-195093328D01*
X270743741Y-195093328D02*
X270600884Y-195307614D01*
X270600884Y-195307614D02*
X270458027Y-195450471D01*
X270458027Y-195450471D02*
X270315170Y-195521900D01*
D10*
D11*
X177002200Y-187507200D02*
X285002200Y-187507200D01*
D10*
D13*
X178693928Y-188211638D02*
X179836785Y-188211638D01*
X179015357Y-190211638D02*
X179265357Y-188211638D01*
X180253452Y-190211638D02*
X180420119Y-188878304D01*
X180503452Y-188211638D02*
X180396309Y-188306876D01*
X180396309Y-188306876D02*
X180479643Y-188402114D01*
X180479643Y-188402114D02*
X180586786Y-188306876D01*
X180586786Y-188306876D02*
X180503452Y-188211638D01*
X180503452Y-188211638D02*
X180479643Y-188402114D01*
X181086786Y-188878304D02*
X181848690Y-188878304D01*
X181455833Y-188211638D02*
X181241548Y-189925923D01*
X181241548Y-189925923D02*
X181312976Y-190116400D01*
X181312976Y-190116400D02*
X181491548Y-190211638D01*
X181491548Y-190211638D02*
X181682024Y-190211638D01*
X182634405Y-190211638D02*
X182455833Y-190116400D01*
X182455833Y-190116400D02*
X182384405Y-189925923D01*
X182384405Y-189925923D02*
X182598690Y-188211638D01*
X184170119Y-190116400D02*
X183967738Y-190211638D01*
X183967738Y-190211638D02*
X183586785Y-190211638D01*
X183586785Y-190211638D02*
X183408214Y-190116400D01*
X183408214Y-190116400D02*
X183336785Y-189925923D01*
X183336785Y-189925923D02*
X183432024Y-189164019D01*
X183432024Y-189164019D02*
X183551071Y-188973542D01*
X183551071Y-188973542D02*
X183753452Y-188878304D01*
X183753452Y-188878304D02*
X184134404Y-188878304D01*
X184134404Y-188878304D02*
X184312976Y-188973542D01*
X184312976Y-188973542D02*
X184384404Y-189164019D01*
X184384404Y-189164019D02*
X184360595Y-189354495D01*
X184360595Y-189354495D02*
X183384404Y-189544971D01*
X185134405Y-190021161D02*
X185217738Y-190116400D01*
X185217738Y-190116400D02*
X185110595Y-190211638D01*
X185110595Y-190211638D02*
X185027262Y-190116400D01*
X185027262Y-190116400D02*
X185134405Y-190021161D01*
X185134405Y-190021161D02*
X185110595Y-190211638D01*
X185265357Y-188973542D02*
X185348690Y-189068780D01*
X185348690Y-189068780D02*
X185241548Y-189164019D01*
X185241548Y-189164019D02*
X185158214Y-189068780D01*
X185158214Y-189068780D02*
X185265357Y-188973542D01*
X185265357Y-188973542D02*
X185241548Y-189164019D01*
X188729643Y-190211638D02*
X188182024Y-189259257D01*
X187586786Y-190211638D02*
X187836786Y-188211638D01*
X187836786Y-188211638D02*
X188598691Y-188211638D01*
X188598691Y-188211638D02*
X188777262Y-188306876D01*
X188777262Y-188306876D02*
X188860596Y-188402114D01*
X188860596Y-188402114D02*
X188932024Y-188592590D01*
X188932024Y-188592590D02*
X188896310Y-188878304D01*
X188896310Y-188878304D02*
X188777262Y-189068780D01*
X188777262Y-189068780D02*
X188670120Y-189164019D01*
X188670120Y-189164019D02*
X188467739Y-189259257D01*
X188467739Y-189259257D02*
X187705834Y-189259257D01*
X190872501Y-188306876D02*
X190693929Y-188211638D01*
X190693929Y-188211638D02*
X190408215Y-188211638D01*
X190408215Y-188211638D02*
X190110596Y-188306876D01*
X190110596Y-188306876D02*
X189896310Y-188497352D01*
X189896310Y-188497352D02*
X189777262Y-188687828D01*
X189777262Y-188687828D02*
X189634405Y-189068780D01*
X189634405Y-189068780D02*
X189598691Y-189354495D01*
X189598691Y-189354495D02*
X189646310Y-189735447D01*
X189646310Y-189735447D02*
X189717739Y-189925923D01*
X189717739Y-189925923D02*
X189884405Y-190116400D01*
X189884405Y-190116400D02*
X190158215Y-190211638D01*
X190158215Y-190211638D02*
X190348691Y-190211638D01*
X190348691Y-190211638D02*
X190646310Y-190116400D01*
X190646310Y-190116400D02*
X190753453Y-190021161D01*
X190753453Y-190021161D02*
X190836786Y-189354495D01*
X190836786Y-189354495D02*
X190455834Y-189354495D01*
X192384405Y-189164019D02*
X192658215Y-189259257D01*
X192658215Y-189259257D02*
X192741548Y-189354495D01*
X192741548Y-189354495D02*
X192812977Y-189544971D01*
X192812977Y-189544971D02*
X192777262Y-189830685D01*
X192777262Y-189830685D02*
X192658215Y-190021161D01*
X192658215Y-190021161D02*
X192551072Y-190116400D01*
X192551072Y-190116400D02*
X192348691Y-190211638D01*
X192348691Y-190211638D02*
X191586786Y-190211638D01*
X191586786Y-190211638D02*
X191836786Y-188211638D01*
X191836786Y-188211638D02*
X192503453Y-188211638D01*
X192503453Y-188211638D02*
X192682024Y-188306876D01*
X192682024Y-188306876D02*
X192765358Y-188402114D01*
X192765358Y-188402114D02*
X192836786Y-188592590D01*
X192836786Y-188592590D02*
X192812977Y-188783066D01*
X192812977Y-188783066D02*
X192693929Y-188973542D01*
X192693929Y-188973542D02*
X192586786Y-189068780D01*
X192586786Y-189068780D02*
X192384405Y-189164019D01*
X192384405Y-189164019D02*
X191717739Y-189164019D01*
X196062977Y-190211638D02*
X195110596Y-190211638D01*
X195110596Y-190211638D02*
X195360596Y-188211638D01*
X196860597Y-189164019D02*
X197527263Y-189164019D01*
X197682025Y-190211638D02*
X196729644Y-190211638D01*
X196729644Y-190211638D02*
X196979644Y-188211638D01*
X196979644Y-188211638D02*
X197932025Y-188211638D01*
X198539168Y-190211638D02*
X198789168Y-188211638D01*
X198789168Y-188211638D02*
X199265359Y-188211638D01*
X199265359Y-188211638D02*
X199539168Y-188306876D01*
X199539168Y-188306876D02*
X199705835Y-188497352D01*
X199705835Y-188497352D02*
X199777263Y-188687828D01*
X199777263Y-188687828D02*
X199824883Y-189068780D01*
X199824883Y-189068780D02*
X199789168Y-189354495D01*
X199789168Y-189354495D02*
X199646311Y-189735447D01*
X199646311Y-189735447D02*
X199527263Y-189925923D01*
X199527263Y-189925923D02*
X199312978Y-190116400D01*
X199312978Y-190116400D02*
X199015359Y-190211638D01*
X199015359Y-190211638D02*
X198539168Y-190211638D01*
X201979645Y-190116400D02*
X202253454Y-190211638D01*
X202253454Y-190211638D02*
X202729645Y-190211638D01*
X202729645Y-190211638D02*
X202932026Y-190116400D01*
X202932026Y-190116400D02*
X203039169Y-190021161D01*
X203039169Y-190021161D02*
X203158216Y-189830685D01*
X203158216Y-189830685D02*
X203182026Y-189640209D01*
X203182026Y-189640209D02*
X203110597Y-189449733D01*
X203110597Y-189449733D02*
X203027264Y-189354495D01*
X203027264Y-189354495D02*
X202848693Y-189259257D01*
X202848693Y-189259257D02*
X202479645Y-189164019D01*
X202479645Y-189164019D02*
X202301073Y-189068780D01*
X202301073Y-189068780D02*
X202217740Y-188973542D01*
X202217740Y-188973542D02*
X202146312Y-188783066D01*
X202146312Y-188783066D02*
X202170121Y-188592590D01*
X202170121Y-188592590D02*
X202289169Y-188402114D01*
X202289169Y-188402114D02*
X202396312Y-188306876D01*
X202396312Y-188306876D02*
X202598693Y-188211638D01*
X202598693Y-188211638D02*
X203074883Y-188211638D01*
X203074883Y-188211638D02*
X203348693Y-188306876D01*
X203932026Y-188211638D02*
X205074883Y-188211638D01*
X204253455Y-190211638D02*
X204503455Y-188211638D01*
X206634407Y-190211638D02*
X206086788Y-189259257D01*
X205491550Y-190211638D02*
X205741550Y-188211638D01*
X205741550Y-188211638D02*
X206503455Y-188211638D01*
X206503455Y-188211638D02*
X206682026Y-188306876D01*
X206682026Y-188306876D02*
X206765360Y-188402114D01*
X206765360Y-188402114D02*
X206836788Y-188592590D01*
X206836788Y-188592590D02*
X206801074Y-188878304D01*
X206801074Y-188878304D02*
X206682026Y-189068780D01*
X206682026Y-189068780D02*
X206574884Y-189164019D01*
X206574884Y-189164019D02*
X206372503Y-189259257D01*
X206372503Y-189259257D02*
X205610598Y-189259257D01*
X207491550Y-190211638D02*
X207741550Y-188211638D01*
X208443931Y-190211638D02*
X208693931Y-188211638D01*
X208693931Y-188211638D02*
X209455836Y-188211638D01*
X209455836Y-188211638D02*
X209634407Y-188306876D01*
X209634407Y-188306876D02*
X209717741Y-188402114D01*
X209717741Y-188402114D02*
X209789169Y-188592590D01*
X209789169Y-188592590D02*
X209753455Y-188878304D01*
X209753455Y-188878304D02*
X209634407Y-189068780D01*
X209634407Y-189068780D02*
X209527265Y-189164019D01*
X209527265Y-189164019D02*
X209324884Y-189259257D01*
X209324884Y-189259257D02*
X208562979Y-189259257D01*
X211967741Y-190211638D02*
X212217741Y-188211638D01*
X212217741Y-188211638D02*
X212693932Y-188211638D01*
X212693932Y-188211638D02*
X212967741Y-188306876D01*
X212967741Y-188306876D02*
X213134408Y-188497352D01*
X213134408Y-188497352D02*
X213205836Y-188687828D01*
X213205836Y-188687828D02*
X213253456Y-189068780D01*
X213253456Y-189068780D02*
X213217741Y-189354495D01*
X213217741Y-189354495D02*
X213074884Y-189735447D01*
X213074884Y-189735447D02*
X212955836Y-189925923D01*
X212955836Y-189925923D02*
X212741551Y-190116400D01*
X212741551Y-190116400D02*
X212443932Y-190211638D01*
X212443932Y-190211638D02*
X211967741Y-190211638D01*
X215110598Y-190211638D02*
X214562979Y-189259257D01*
X213967741Y-190211638D02*
X214217741Y-188211638D01*
X214217741Y-188211638D02*
X214979646Y-188211638D01*
X214979646Y-188211638D02*
X215158217Y-188306876D01*
X215158217Y-188306876D02*
X215241551Y-188402114D01*
X215241551Y-188402114D02*
X215312979Y-188592590D01*
X215312979Y-188592590D02*
X215277265Y-188878304D01*
X215277265Y-188878304D02*
X215158217Y-189068780D01*
X215158217Y-189068780D02*
X215051075Y-189164019D01*
X215051075Y-189164019D02*
X214848694Y-189259257D01*
X214848694Y-189259257D02*
X214086789Y-189259257D01*
X215967741Y-190211638D02*
X216217741Y-188211638D01*
X216884408Y-188211638D02*
X217301075Y-190211638D01*
X217301075Y-190211638D02*
X218217741Y-188211638D01*
X218765361Y-189164019D02*
X219432027Y-189164019D01*
X219586789Y-190211638D02*
X218634408Y-190211638D01*
X218634408Y-190211638D02*
X218884408Y-188211638D01*
X218884408Y-188211638D02*
X219836789Y-188211638D01*
X221586789Y-190211638D02*
X221039170Y-189259257D01*
X220443932Y-190211638D02*
X220693932Y-188211638D01*
X220693932Y-188211638D02*
X221455837Y-188211638D01*
X221455837Y-188211638D02*
X221634408Y-188306876D01*
X221634408Y-188306876D02*
X221717742Y-188402114D01*
X221717742Y-188402114D02*
X221789170Y-188592590D01*
X221789170Y-188592590D02*
X221753456Y-188878304D01*
X221753456Y-188878304D02*
X221634408Y-189068780D01*
X221634408Y-189068780D02*
X221527266Y-189164019D01*
X221527266Y-189164019D02*
X221324885Y-189259257D01*
X221324885Y-189259257D02*
X220562980Y-189259257D01*
D10*
D11*
X178958026Y-185607614D02*
X178458026Y-185607614D01*
X178458026Y-186393328D02*
X178458026Y-184893328D01*
X178458026Y-184893328D02*
X179172312Y-184893328D01*
X179743740Y-186393328D02*
X179743740Y-185393328D01*
X179743740Y-184893328D02*
X179672312Y-184964757D01*
X179672312Y-184964757D02*
X179743740Y-185036185D01*
X179743740Y-185036185D02*
X179815169Y-184964757D01*
X179815169Y-184964757D02*
X179743740Y-184893328D01*
X179743740Y-184893328D02*
X179743740Y-185036185D01*
X180672312Y-186393328D02*
X180529455Y-186321900D01*
X180529455Y-186321900D02*
X180458026Y-186179042D01*
X180458026Y-186179042D02*
X180458026Y-184893328D01*
X181815169Y-186321900D02*
X181672312Y-186393328D01*
X181672312Y-186393328D02*
X181386598Y-186393328D01*
X181386598Y-186393328D02*
X181243740Y-186321900D01*
X181243740Y-186321900D02*
X181172312Y-186179042D01*
X181172312Y-186179042D02*
X181172312Y-185607614D01*
X181172312Y-185607614D02*
X181243740Y-185464757D01*
X181243740Y-185464757D02*
X181386598Y-185393328D01*
X181386598Y-185393328D02*
X181672312Y-185393328D01*
X181672312Y-185393328D02*
X181815169Y-185464757D01*
X181815169Y-185464757D02*
X181886598Y-185607614D01*
X181886598Y-185607614D02*
X181886598Y-185750471D01*
X181886598Y-185750471D02*
X181172312Y-185893328D01*
X182529454Y-186250471D02*
X182600883Y-186321900D01*
X182600883Y-186321900D02*
X182529454Y-186393328D01*
X182529454Y-186393328D02*
X182458026Y-186321900D01*
X182458026Y-186321900D02*
X182529454Y-186250471D01*
X182529454Y-186250471D02*
X182529454Y-186393328D01*
X182529454Y-185464757D02*
X182600883Y-185536185D01*
X182600883Y-185536185D02*
X182529454Y-185607614D01*
X182529454Y-185607614D02*
X182458026Y-185536185D01*
X182458026Y-185536185D02*
X182529454Y-185464757D01*
X182529454Y-185464757D02*
X182529454Y-185607614D01*
X184386597Y-186393328D02*
X184386597Y-184893328D01*
X184386597Y-184893328D02*
X184743740Y-184893328D01*
X184743740Y-184893328D02*
X184958026Y-184964757D01*
X184958026Y-184964757D02*
X185100883Y-185107614D01*
X185100883Y-185107614D02*
X185172312Y-185250471D01*
X185172312Y-185250471D02*
X185243740Y-185536185D01*
X185243740Y-185536185D02*
X185243740Y-185750471D01*
X185243740Y-185750471D02*
X185172312Y-186036185D01*
X185172312Y-186036185D02*
X185100883Y-186179042D01*
X185100883Y-186179042D02*
X184958026Y-186321900D01*
X184958026Y-186321900D02*
X184743740Y-186393328D01*
X184743740Y-186393328D02*
X184386597Y-186393328D01*
X185886597Y-186393328D02*
X185886597Y-185393328D01*
X185886597Y-185679042D02*
X185958026Y-185536185D01*
X185958026Y-185536185D02*
X186029455Y-185464757D01*
X186029455Y-185464757D02*
X186172312Y-185393328D01*
X186172312Y-185393328D02*
X186315169Y-185393328D01*
X186815168Y-186393328D02*
X186815168Y-185393328D01*
X186815168Y-184893328D02*
X186743740Y-184964757D01*
X186743740Y-184964757D02*
X186815168Y-185036185D01*
X186815168Y-185036185D02*
X186886597Y-184964757D01*
X186886597Y-184964757D02*
X186815168Y-184893328D01*
X186815168Y-184893328D02*
X186815168Y-185036185D01*
X187386597Y-185393328D02*
X187743740Y-186393328D01*
X187743740Y-186393328D02*
X188100883Y-185393328D01*
X189243740Y-186321900D02*
X189100883Y-186393328D01*
X189100883Y-186393328D02*
X188815169Y-186393328D01*
X188815169Y-186393328D02*
X188672311Y-186321900D01*
X188672311Y-186321900D02*
X188600883Y-186179042D01*
X188600883Y-186179042D02*
X188600883Y-185607614D01*
X188600883Y-185607614D02*
X188672311Y-185464757D01*
X188672311Y-185464757D02*
X188815169Y-185393328D01*
X188815169Y-185393328D02*
X189100883Y-185393328D01*
X189100883Y-185393328D02*
X189243740Y-185464757D01*
X189243740Y-185464757D02*
X189315169Y-185607614D01*
X189315169Y-185607614D02*
X189315169Y-185750471D01*
X189315169Y-185750471D02*
X188600883Y-185893328D01*
X189958025Y-186393328D02*
X189958025Y-185393328D01*
X189958025Y-185679042D02*
X190029454Y-185536185D01*
X190029454Y-185536185D02*
X190100883Y-185464757D01*
X190100883Y-185464757D02*
X190243740Y-185393328D01*
X190243740Y-185393328D02*
X190386597Y-185393328D01*
X191743739Y-186393328D02*
X191243739Y-185679042D01*
X190886596Y-186393328D02*
X190886596Y-184893328D01*
X190886596Y-184893328D02*
X191458025Y-184893328D01*
X191458025Y-184893328D02*
X191600882Y-184964757D01*
X191600882Y-184964757D02*
X191672311Y-185036185D01*
X191672311Y-185036185D02*
X191743739Y-185179042D01*
X191743739Y-185179042D02*
X191743739Y-185393328D01*
X191743739Y-185393328D02*
X191672311Y-185536185D01*
X191672311Y-185536185D02*
X191600882Y-185607614D01*
X191600882Y-185607614D02*
X191458025Y-185679042D01*
X191458025Y-185679042D02*
X190886596Y-185679042D01*
X193172311Y-184964757D02*
X193029454Y-184893328D01*
X193029454Y-184893328D02*
X192815168Y-184893328D01*
X192815168Y-184893328D02*
X192600882Y-184964757D01*
X192600882Y-184964757D02*
X192458025Y-185107614D01*
X192458025Y-185107614D02*
X192386596Y-185250471D01*
X192386596Y-185250471D02*
X192315168Y-185536185D01*
X192315168Y-185536185D02*
X192315168Y-185750471D01*
X192315168Y-185750471D02*
X192386596Y-186036185D01*
X192386596Y-186036185D02*
X192458025Y-186179042D01*
X192458025Y-186179042D02*
X192600882Y-186321900D01*
X192600882Y-186321900D02*
X192815168Y-186393328D01*
X192815168Y-186393328D02*
X192958025Y-186393328D01*
X192958025Y-186393328D02*
X193172311Y-186321900D01*
X193172311Y-186321900D02*
X193243739Y-186250471D01*
X193243739Y-186250471D02*
X193243739Y-185750471D01*
X193243739Y-185750471D02*
X192958025Y-185750471D01*
X194386596Y-185607614D02*
X194600882Y-185679042D01*
X194600882Y-185679042D02*
X194672311Y-185750471D01*
X194672311Y-185750471D02*
X194743739Y-185893328D01*
X194743739Y-185893328D02*
X194743739Y-186107614D01*
X194743739Y-186107614D02*
X194672311Y-186250471D01*
X194672311Y-186250471D02*
X194600882Y-186321900D01*
X194600882Y-186321900D02*
X194458025Y-186393328D01*
X194458025Y-186393328D02*
X193886596Y-186393328D01*
X193886596Y-186393328D02*
X193886596Y-184893328D01*
X193886596Y-184893328D02*
X194386596Y-184893328D01*
X194386596Y-184893328D02*
X194529454Y-184964757D01*
X194529454Y-184964757D02*
X194600882Y-185036185D01*
X194600882Y-185036185D02*
X194672311Y-185179042D01*
X194672311Y-185179042D02*
X194672311Y-185321900D01*
X194672311Y-185321900D02*
X194600882Y-185464757D01*
X194600882Y-185464757D02*
X194529454Y-185536185D01*
X194529454Y-185536185D02*
X194386596Y-185607614D01*
X194386596Y-185607614D02*
X193886596Y-185607614D01*
X195029454Y-186536185D02*
X196172311Y-186536185D01*
X196386596Y-185393328D02*
X196743739Y-186393328D01*
X196743739Y-186393328D02*
X197100882Y-185393328D01*
X197600882Y-185036185D02*
X197672310Y-184964757D01*
X197672310Y-184964757D02*
X197815168Y-184893328D01*
X197815168Y-184893328D02*
X198172310Y-184893328D01*
X198172310Y-184893328D02*
X198315168Y-184964757D01*
X198315168Y-184964757D02*
X198386596Y-185036185D01*
X198386596Y-185036185D02*
X198458025Y-185179042D01*
X198458025Y-185179042D02*
X198458025Y-185321900D01*
X198458025Y-185321900D02*
X198386596Y-185536185D01*
X198386596Y-185536185D02*
X197529453Y-186393328D01*
X197529453Y-186393328D02*
X198458025Y-186393328D01*
X199100881Y-186250471D02*
X199172310Y-186321900D01*
X199172310Y-186321900D02*
X199100881Y-186393328D01*
X199100881Y-186393328D02*
X199029453Y-186321900D01*
X199029453Y-186321900D02*
X199100881Y-186250471D01*
X199100881Y-186250471D02*
X199100881Y-186393328D01*
X199815167Y-186393328D02*
X199815167Y-184893328D01*
X199958025Y-185821900D02*
X200386596Y-186393328D01*
X200386596Y-185393328D02*
X199815167Y-185964757D01*
X201029453Y-186393328D02*
X201029453Y-185393328D01*
X201029453Y-184893328D02*
X200958025Y-184964757D01*
X200958025Y-184964757D02*
X201029453Y-185036185D01*
X201029453Y-185036185D02*
X201100882Y-184964757D01*
X201100882Y-184964757D02*
X201029453Y-184893328D01*
X201029453Y-184893328D02*
X201029453Y-185036185D01*
X202386597Y-186321900D02*
X202243739Y-186393328D01*
X202243739Y-186393328D02*
X201958025Y-186393328D01*
X201958025Y-186393328D02*
X201815168Y-186321900D01*
X201815168Y-186321900D02*
X201743739Y-186250471D01*
X201743739Y-186250471D02*
X201672311Y-186107614D01*
X201672311Y-186107614D02*
X201672311Y-185679042D01*
X201672311Y-185679042D02*
X201743739Y-185536185D01*
X201743739Y-185536185D02*
X201815168Y-185464757D01*
X201815168Y-185464757D02*
X201958025Y-185393328D01*
X201958025Y-185393328D02*
X202243739Y-185393328D01*
X202243739Y-185393328D02*
X202386597Y-185464757D01*
X203672311Y-186393328D02*
X203672311Y-185607614D01*
X203672311Y-185607614D02*
X203600882Y-185464757D01*
X203600882Y-185464757D02*
X203458025Y-185393328D01*
X203458025Y-185393328D02*
X203172311Y-185393328D01*
X203172311Y-185393328D02*
X203029453Y-185464757D01*
X203672311Y-186321900D02*
X203529453Y-186393328D01*
X203529453Y-186393328D02*
X203172311Y-186393328D01*
X203172311Y-186393328D02*
X203029453Y-186321900D01*
X203029453Y-186321900D02*
X202958025Y-186179042D01*
X202958025Y-186179042D02*
X202958025Y-186036185D01*
X202958025Y-186036185D02*
X203029453Y-185893328D01*
X203029453Y-185893328D02*
X203172311Y-185821900D01*
X203172311Y-185821900D02*
X203529453Y-185821900D01*
X203529453Y-185821900D02*
X203672311Y-185750471D01*
X205029454Y-186393328D02*
X205029454Y-184893328D01*
X205029454Y-186321900D02*
X204886596Y-186393328D01*
X204886596Y-186393328D02*
X204600882Y-186393328D01*
X204600882Y-186393328D02*
X204458025Y-186321900D01*
X204458025Y-186321900D02*
X204386596Y-186250471D01*
X204386596Y-186250471D02*
X204315168Y-186107614D01*
X204315168Y-186107614D02*
X204315168Y-185679042D01*
X204315168Y-185679042D02*
X204386596Y-185536185D01*
X204386596Y-185536185D02*
X204458025Y-185464757D01*
X204458025Y-185464757D02*
X204600882Y-185393328D01*
X204600882Y-185393328D02*
X204886596Y-185393328D01*
X204886596Y-185393328D02*
X205029454Y-185464757D01*
X205386597Y-186536185D02*
X206529454Y-186536185D01*
X206886596Y-185393328D02*
X206886596Y-186893328D01*
X206886596Y-185464757D02*
X207029454Y-185393328D01*
X207029454Y-185393328D02*
X207315168Y-185393328D01*
X207315168Y-185393328D02*
X207458025Y-185464757D01*
X207458025Y-185464757D02*
X207529454Y-185536185D01*
X207529454Y-185536185D02*
X207600882Y-185679042D01*
X207600882Y-185679042D02*
X207600882Y-186107614D01*
X207600882Y-186107614D02*
X207529454Y-186250471D01*
X207529454Y-186250471D02*
X207458025Y-186321900D01*
X207458025Y-186321900D02*
X207315168Y-186393328D01*
X207315168Y-186393328D02*
X207029454Y-186393328D01*
X207029454Y-186393328D02*
X206886596Y-186321900D01*
X208886597Y-186321900D02*
X208743739Y-186393328D01*
X208743739Y-186393328D02*
X208458025Y-186393328D01*
X208458025Y-186393328D02*
X208315168Y-186321900D01*
X208315168Y-186321900D02*
X208243739Y-186250471D01*
X208243739Y-186250471D02*
X208172311Y-186107614D01*
X208172311Y-186107614D02*
X208172311Y-185679042D01*
X208172311Y-185679042D02*
X208243739Y-185536185D01*
X208243739Y-185536185D02*
X208315168Y-185464757D01*
X208315168Y-185464757D02*
X208458025Y-185393328D01*
X208458025Y-185393328D02*
X208743739Y-185393328D01*
X208743739Y-185393328D02*
X208886597Y-185464757D01*
X209529453Y-186393328D02*
X209529453Y-184893328D01*
X209529453Y-185464757D02*
X209672311Y-185393328D01*
X209672311Y-185393328D02*
X209958025Y-185393328D01*
X209958025Y-185393328D02*
X210100882Y-185464757D01*
X210100882Y-185464757D02*
X210172311Y-185536185D01*
X210172311Y-185536185D02*
X210243739Y-185679042D01*
X210243739Y-185679042D02*
X210243739Y-186107614D01*
X210243739Y-186107614D02*
X210172311Y-186250471D01*
X210172311Y-186250471D02*
X210100882Y-186321900D01*
X210100882Y-186321900D02*
X209958025Y-186393328D01*
X209958025Y-186393328D02*
X209672311Y-186393328D01*
X209672311Y-186393328D02*
X209529453Y-186321900D01*
D10*
D11*
X177002200Y-181507200D02*
X285002200Y-181507200D01*
D10*
D11*
X178386598Y-183621900D02*
X178600884Y-183693328D01*
X178600884Y-183693328D02*
X178958026Y-183693328D01*
X178958026Y-183693328D02*
X179100884Y-183621900D01*
X179100884Y-183621900D02*
X179172312Y-183550471D01*
X179172312Y-183550471D02*
X179243741Y-183407614D01*
X179243741Y-183407614D02*
X179243741Y-183264757D01*
X179243741Y-183264757D02*
X179172312Y-183121900D01*
X179172312Y-183121900D02*
X179100884Y-183050471D01*
X179100884Y-183050471D02*
X178958026Y-182979042D01*
X178958026Y-182979042D02*
X178672312Y-182907614D01*
X178672312Y-182907614D02*
X178529455Y-182836185D01*
X178529455Y-182836185D02*
X178458026Y-182764757D01*
X178458026Y-182764757D02*
X178386598Y-182621900D01*
X178386598Y-182621900D02*
X178386598Y-182479042D01*
X178386598Y-182479042D02*
X178458026Y-182336185D01*
X178458026Y-182336185D02*
X178529455Y-182264757D01*
X178529455Y-182264757D02*
X178672312Y-182193328D01*
X178672312Y-182193328D02*
X179029455Y-182193328D01*
X179029455Y-182193328D02*
X179243741Y-182264757D01*
X179886597Y-183693328D02*
X179886597Y-182193328D01*
X180529455Y-183693328D02*
X180529455Y-182907614D01*
X180529455Y-182907614D02*
X180458026Y-182764757D01*
X180458026Y-182764757D02*
X180315169Y-182693328D01*
X180315169Y-182693328D02*
X180100883Y-182693328D01*
X180100883Y-182693328D02*
X179958026Y-182764757D01*
X179958026Y-182764757D02*
X179886597Y-182836185D01*
X181815169Y-183621900D02*
X181672312Y-183693328D01*
X181672312Y-183693328D02*
X181386598Y-183693328D01*
X181386598Y-183693328D02*
X181243740Y-183621900D01*
X181243740Y-183621900D02*
X181172312Y-183479042D01*
X181172312Y-183479042D02*
X181172312Y-182907614D01*
X181172312Y-182907614D02*
X181243740Y-182764757D01*
X181243740Y-182764757D02*
X181386598Y-182693328D01*
X181386598Y-182693328D02*
X181672312Y-182693328D01*
X181672312Y-182693328D02*
X181815169Y-182764757D01*
X181815169Y-182764757D02*
X181886598Y-182907614D01*
X181886598Y-182907614D02*
X181886598Y-183050471D01*
X181886598Y-183050471D02*
X181172312Y-183193328D01*
X183100883Y-183621900D02*
X182958026Y-183693328D01*
X182958026Y-183693328D02*
X182672312Y-183693328D01*
X182672312Y-183693328D02*
X182529454Y-183621900D01*
X182529454Y-183621900D02*
X182458026Y-183479042D01*
X182458026Y-183479042D02*
X182458026Y-182907614D01*
X182458026Y-182907614D02*
X182529454Y-182764757D01*
X182529454Y-182764757D02*
X182672312Y-182693328D01*
X182672312Y-182693328D02*
X182958026Y-182693328D01*
X182958026Y-182693328D02*
X183100883Y-182764757D01*
X183100883Y-182764757D02*
X183172312Y-182907614D01*
X183172312Y-182907614D02*
X183172312Y-183050471D01*
X183172312Y-183050471D02*
X182458026Y-183193328D01*
X183600883Y-182693328D02*
X184172311Y-182693328D01*
X183815168Y-182193328D02*
X183815168Y-183479042D01*
X183815168Y-183479042D02*
X183886597Y-183621900D01*
X183886597Y-183621900D02*
X184029454Y-183693328D01*
X184029454Y-183693328D02*
X184172311Y-183693328D01*
X184672311Y-183550471D02*
X184743740Y-183621900D01*
X184743740Y-183621900D02*
X184672311Y-183693328D01*
X184672311Y-183693328D02*
X184600883Y-183621900D01*
X184600883Y-183621900D02*
X184672311Y-183550471D01*
X184672311Y-183550471D02*
X184672311Y-183693328D01*
X184672311Y-182764757D02*
X184743740Y-182836185D01*
X184743740Y-182836185D02*
X184672311Y-182907614D01*
X184672311Y-182907614D02*
X184600883Y-182836185D01*
X184600883Y-182836185D02*
X184672311Y-182764757D01*
X184672311Y-182764757D02*
X184672311Y-182907614D01*
D10*
D12*
X178556710Y-180685528D02*
X178556710Y-179185528D01*
X178556710Y-179185528D02*
X179128139Y-179185528D01*
X179128139Y-179185528D02*
X179270996Y-179256957D01*
X179270996Y-179256957D02*
X179342425Y-179328385D01*
X179342425Y-179328385D02*
X179413853Y-179471242D01*
X179413853Y-179471242D02*
X179413853Y-179685528D01*
X179413853Y-179685528D02*
X179342425Y-179828385D01*
X179342425Y-179828385D02*
X179270996Y-179899814D01*
X179270996Y-179899814D02*
X179128139Y-179971242D01*
X179128139Y-179971242D02*
X178556710Y-179971242D01*
X180913853Y-180542671D02*
X180842425Y-180614100D01*
X180842425Y-180614100D02*
X180628139Y-180685528D01*
X180628139Y-180685528D02*
X180485282Y-180685528D01*
X180485282Y-180685528D02*
X180270996Y-180614100D01*
X180270996Y-180614100D02*
X180128139Y-180471242D01*
X180128139Y-180471242D02*
X180056710Y-180328385D01*
X180056710Y-180328385D02*
X179985282Y-180042671D01*
X179985282Y-180042671D02*
X179985282Y-179828385D01*
X179985282Y-179828385D02*
X180056710Y-179542671D01*
X180056710Y-179542671D02*
X180128139Y-179399814D01*
X180128139Y-179399814D02*
X180270996Y-179256957D01*
X180270996Y-179256957D02*
X180485282Y-179185528D01*
X180485282Y-179185528D02*
X180628139Y-179185528D01*
X180628139Y-179185528D02*
X180842425Y-179256957D01*
X180842425Y-179256957D02*
X180913853Y-179328385D01*
X182056710Y-179899814D02*
X182270996Y-179971242D01*
X182270996Y-179971242D02*
X182342425Y-180042671D01*
X182342425Y-180042671D02*
X182413853Y-180185528D01*
X182413853Y-180185528D02*
X182413853Y-180399814D01*
X182413853Y-180399814D02*
X182342425Y-180542671D01*
X182342425Y-180542671D02*
X182270996Y-180614100D01*
X182270996Y-180614100D02*
X182128139Y-180685528D01*
X182128139Y-180685528D02*
X181556710Y-180685528D01*
X181556710Y-180685528D02*
X181556710Y-179185528D01*
X181556710Y-179185528D02*
X182056710Y-179185528D01*
X182056710Y-179185528D02*
X182199568Y-179256957D01*
X182199568Y-179256957D02*
X182270996Y-179328385D01*
X182270996Y-179328385D02*
X182342425Y-179471242D01*
X182342425Y-179471242D02*
X182342425Y-179614100D01*
X182342425Y-179614100D02*
X182270996Y-179756957D01*
X182270996Y-179756957D02*
X182199568Y-179828385D01*
X182199568Y-179828385D02*
X182056710Y-179899814D01*
X182056710Y-179899814D02*
X181556710Y-179899814D01*
D10*
D11*
X178458026Y-176907614D02*
X178958026Y-176907614D01*
X179172312Y-177693328D02*
X178458026Y-177693328D01*
X178458026Y-177693328D02*
X178458026Y-176193328D01*
X178458026Y-176193328D02*
X179172312Y-176193328D01*
X180458027Y-177693328D02*
X180458027Y-176193328D01*
X180458027Y-177621900D02*
X180315169Y-177693328D01*
X180315169Y-177693328D02*
X180029455Y-177693328D01*
X180029455Y-177693328D02*
X179886598Y-177621900D01*
X179886598Y-177621900D02*
X179815169Y-177550471D01*
X179815169Y-177550471D02*
X179743741Y-177407614D01*
X179743741Y-177407614D02*
X179743741Y-176979042D01*
X179743741Y-176979042D02*
X179815169Y-176836185D01*
X179815169Y-176836185D02*
X179886598Y-176764757D01*
X179886598Y-176764757D02*
X180029455Y-176693328D01*
X180029455Y-176693328D02*
X180315169Y-176693328D01*
X180315169Y-176693328D02*
X180458027Y-176764757D01*
X181815170Y-176693328D02*
X181815170Y-177907614D01*
X181815170Y-177907614D02*
X181743741Y-178050471D01*
X181743741Y-178050471D02*
X181672312Y-178121900D01*
X181672312Y-178121900D02*
X181529455Y-178193328D01*
X181529455Y-178193328D02*
X181315170Y-178193328D01*
X181315170Y-178193328D02*
X181172312Y-178121900D01*
X181815170Y-177621900D02*
X181672312Y-177693328D01*
X181672312Y-177693328D02*
X181386598Y-177693328D01*
X181386598Y-177693328D02*
X181243741Y-177621900D01*
X181243741Y-177621900D02*
X181172312Y-177550471D01*
X181172312Y-177550471D02*
X181100884Y-177407614D01*
X181100884Y-177407614D02*
X181100884Y-176979042D01*
X181100884Y-176979042D02*
X181172312Y-176836185D01*
X181172312Y-176836185D02*
X181243741Y-176764757D01*
X181243741Y-176764757D02*
X181386598Y-176693328D01*
X181386598Y-176693328D02*
X181672312Y-176693328D01*
X181672312Y-176693328D02*
X181815170Y-176764757D01*
X183100884Y-177621900D02*
X182958027Y-177693328D01*
X182958027Y-177693328D02*
X182672313Y-177693328D01*
X182672313Y-177693328D02*
X182529455Y-177621900D01*
X182529455Y-177621900D02*
X182458027Y-177479042D01*
X182458027Y-177479042D02*
X182458027Y-176907614D01*
X182458027Y-176907614D02*
X182529455Y-176764757D01*
X182529455Y-176764757D02*
X182672313Y-176693328D01*
X182672313Y-176693328D02*
X182958027Y-176693328D01*
X182958027Y-176693328D02*
X183100884Y-176764757D01*
X183100884Y-176764757D02*
X183172313Y-176907614D01*
X183172313Y-176907614D02*
X183172313Y-177050471D01*
X183172313Y-177050471D02*
X182458027Y-177193328D01*
X185815169Y-177550471D02*
X185743741Y-177621900D01*
X185743741Y-177621900D02*
X185529455Y-177693328D01*
X185529455Y-177693328D02*
X185386598Y-177693328D01*
X185386598Y-177693328D02*
X185172312Y-177621900D01*
X185172312Y-177621900D02*
X185029455Y-177479042D01*
X185029455Y-177479042D02*
X184958026Y-177336185D01*
X184958026Y-177336185D02*
X184886598Y-177050471D01*
X184886598Y-177050471D02*
X184886598Y-176836185D01*
X184886598Y-176836185D02*
X184958026Y-176550471D01*
X184958026Y-176550471D02*
X185029455Y-176407614D01*
X185029455Y-176407614D02*
X185172312Y-176264757D01*
X185172312Y-176264757D02*
X185386598Y-176193328D01*
X185386598Y-176193328D02*
X185529455Y-176193328D01*
X185529455Y-176193328D02*
X185743741Y-176264757D01*
X185743741Y-176264757D02*
X185815169Y-176336185D01*
X187100884Y-176693328D02*
X187100884Y-177693328D01*
X186458026Y-176693328D02*
X186458026Y-177479042D01*
X186458026Y-177479042D02*
X186529455Y-177621900D01*
X186529455Y-177621900D02*
X186672312Y-177693328D01*
X186672312Y-177693328D02*
X186886598Y-177693328D01*
X186886598Y-177693328D02*
X187029455Y-177621900D01*
X187029455Y-177621900D02*
X187100884Y-177550471D01*
X187600884Y-176693328D02*
X188172312Y-176693328D01*
X187815169Y-176193328D02*
X187815169Y-177479042D01*
X187815169Y-177479042D02*
X187886598Y-177621900D01*
X187886598Y-177621900D02*
X188029455Y-177693328D01*
X188029455Y-177693328D02*
X188172312Y-177693328D01*
X188600884Y-177621900D02*
X188743741Y-177693328D01*
X188743741Y-177693328D02*
X189029455Y-177693328D01*
X189029455Y-177693328D02*
X189172312Y-177621900D01*
X189172312Y-177621900D02*
X189243741Y-177479042D01*
X189243741Y-177479042D02*
X189243741Y-177407614D01*
X189243741Y-177407614D02*
X189172312Y-177264757D01*
X189172312Y-177264757D02*
X189029455Y-177193328D01*
X189029455Y-177193328D02*
X188815170Y-177193328D01*
X188815170Y-177193328D02*
X188672312Y-177121900D01*
X188672312Y-177121900D02*
X188600884Y-176979042D01*
X188600884Y-176979042D02*
X188600884Y-176907614D01*
X188600884Y-176907614D02*
X188672312Y-176764757D01*
X188672312Y-176764757D02*
X188815170Y-176693328D01*
X188815170Y-176693328D02*
X189029455Y-176693328D01*
X189029455Y-176693328D02*
X189172312Y-176764757D01*
D10*
D11*
X178386598Y-174264757D02*
X179100884Y-174264757D01*
X178243741Y-174693328D02*
X178743741Y-173193328D01*
X178743741Y-173193328D02*
X179243741Y-174693328D01*
X180386598Y-173693328D02*
X180386598Y-174693328D01*
X179743740Y-173693328D02*
X179743740Y-174479042D01*
X179743740Y-174479042D02*
X179815169Y-174621900D01*
X179815169Y-174621900D02*
X179958026Y-174693328D01*
X179958026Y-174693328D02*
X180172312Y-174693328D01*
X180172312Y-174693328D02*
X180315169Y-174621900D01*
X180315169Y-174621900D02*
X180386598Y-174550471D01*
X180886598Y-173693328D02*
X181458026Y-173693328D01*
X181100883Y-173193328D02*
X181100883Y-174479042D01*
X181100883Y-174479042D02*
X181172312Y-174621900D01*
X181172312Y-174621900D02*
X181315169Y-174693328D01*
X181315169Y-174693328D02*
X181458026Y-174693328D01*
X181958026Y-174693328D02*
X181958026Y-173193328D01*
X182600884Y-174693328D02*
X182600884Y-173907614D01*
X182600884Y-173907614D02*
X182529455Y-173764757D01*
X182529455Y-173764757D02*
X182386598Y-173693328D01*
X182386598Y-173693328D02*
X182172312Y-173693328D01*
X182172312Y-173693328D02*
X182029455Y-173764757D01*
X182029455Y-173764757D02*
X181958026Y-173836185D01*
X183529455Y-174693328D02*
X183386598Y-174621900D01*
X183386598Y-174621900D02*
X183315169Y-174550471D01*
X183315169Y-174550471D02*
X183243741Y-174407614D01*
X183243741Y-174407614D02*
X183243741Y-173979042D01*
X183243741Y-173979042D02*
X183315169Y-173836185D01*
X183315169Y-173836185D02*
X183386598Y-173764757D01*
X183386598Y-173764757D02*
X183529455Y-173693328D01*
X183529455Y-173693328D02*
X183743741Y-173693328D01*
X183743741Y-173693328D02*
X183886598Y-173764757D01*
X183886598Y-173764757D02*
X183958027Y-173836185D01*
X183958027Y-173836185D02*
X184029455Y-173979042D01*
X184029455Y-173979042D02*
X184029455Y-174407614D01*
X184029455Y-174407614D02*
X183958027Y-174550471D01*
X183958027Y-174550471D02*
X183886598Y-174621900D01*
X183886598Y-174621900D02*
X183743741Y-174693328D01*
X183743741Y-174693328D02*
X183529455Y-174693328D01*
X184672312Y-174693328D02*
X184672312Y-173693328D01*
X184672312Y-173979042D02*
X184743741Y-173836185D01*
X184743741Y-173836185D02*
X184815170Y-173764757D01*
X184815170Y-173764757D02*
X184958027Y-173693328D01*
X184958027Y-173693328D02*
X185100884Y-173693328D01*
X185600883Y-174550471D02*
X185672312Y-174621900D01*
X185672312Y-174621900D02*
X185600883Y-174693328D01*
X185600883Y-174693328D02*
X185529455Y-174621900D01*
X185529455Y-174621900D02*
X185600883Y-174550471D01*
X185600883Y-174550471D02*
X185600883Y-174693328D01*
X185600883Y-173764757D02*
X185672312Y-173836185D01*
X185672312Y-173836185D02*
X185600883Y-173907614D01*
X185600883Y-173907614D02*
X185529455Y-173836185D01*
X185529455Y-173836185D02*
X185600883Y-173764757D01*
X185600883Y-173764757D02*
X185600883Y-173907614D01*
X187886598Y-173193328D02*
X187886598Y-174264757D01*
X187886598Y-174264757D02*
X187815169Y-174479042D01*
X187815169Y-174479042D02*
X187672312Y-174621900D01*
X187672312Y-174621900D02*
X187458026Y-174693328D01*
X187458026Y-174693328D02*
X187315169Y-174693328D01*
X189243741Y-173693328D02*
X189243741Y-174693328D01*
X188600883Y-173693328D02*
X188600883Y-174479042D01*
X188600883Y-174479042D02*
X188672312Y-174621900D01*
X188672312Y-174621900D02*
X188815169Y-174693328D01*
X188815169Y-174693328D02*
X189029455Y-174693328D01*
X189029455Y-174693328D02*
X189172312Y-174621900D01*
X189172312Y-174621900D02*
X189243741Y-174550471D01*
X190600884Y-174693328D02*
X190600884Y-173907614D01*
X190600884Y-173907614D02*
X190529455Y-173764757D01*
X190529455Y-173764757D02*
X190386598Y-173693328D01*
X190386598Y-173693328D02*
X190100884Y-173693328D01*
X190100884Y-173693328D02*
X189958026Y-173764757D01*
X190600884Y-174621900D02*
X190458026Y-174693328D01*
X190458026Y-174693328D02*
X190100884Y-174693328D01*
X190100884Y-174693328D02*
X189958026Y-174621900D01*
X189958026Y-174621900D02*
X189886598Y-174479042D01*
X189886598Y-174479042D02*
X189886598Y-174336185D01*
X189886598Y-174336185D02*
X189958026Y-174193328D01*
X189958026Y-174193328D02*
X190100884Y-174121900D01*
X190100884Y-174121900D02*
X190458026Y-174121900D01*
X190458026Y-174121900D02*
X190600884Y-174050471D01*
X191315169Y-173693328D02*
X191315169Y-174693328D01*
X191315169Y-173836185D02*
X191386598Y-173764757D01*
X191386598Y-173764757D02*
X191529455Y-173693328D01*
X191529455Y-173693328D02*
X191743741Y-173693328D01*
X191743741Y-173693328D02*
X191886598Y-173764757D01*
X191886598Y-173764757D02*
X191958027Y-173907614D01*
X191958027Y-173907614D02*
X191958027Y-174693328D01*
X193743741Y-174264757D02*
X194458027Y-174264757D01*
X193600884Y-174693328D02*
X194100884Y-173193328D01*
X194100884Y-173193328D02*
X194600884Y-174693328D01*
X195100883Y-173693328D02*
X195100883Y-174693328D01*
X195100883Y-173836185D02*
X195172312Y-173764757D01*
X195172312Y-173764757D02*
X195315169Y-173693328D01*
X195315169Y-173693328D02*
X195529455Y-173693328D01*
X195529455Y-173693328D02*
X195672312Y-173764757D01*
X195672312Y-173764757D02*
X195743741Y-173907614D01*
X195743741Y-173907614D02*
X195743741Y-174693328D01*
X196243741Y-173693328D02*
X196815169Y-173693328D01*
X196458026Y-173193328D02*
X196458026Y-174479042D01*
X196458026Y-174479042D02*
X196529455Y-174621900D01*
X196529455Y-174621900D02*
X196672312Y-174693328D01*
X196672312Y-174693328D02*
X196815169Y-174693328D01*
X197529455Y-174693328D02*
X197386598Y-174621900D01*
X197386598Y-174621900D02*
X197315169Y-174550471D01*
X197315169Y-174550471D02*
X197243741Y-174407614D01*
X197243741Y-174407614D02*
X197243741Y-173979042D01*
X197243741Y-173979042D02*
X197315169Y-173836185D01*
X197315169Y-173836185D02*
X197386598Y-173764757D01*
X197386598Y-173764757D02*
X197529455Y-173693328D01*
X197529455Y-173693328D02*
X197743741Y-173693328D01*
X197743741Y-173693328D02*
X197886598Y-173764757D01*
X197886598Y-173764757D02*
X197958027Y-173836185D01*
X197958027Y-173836185D02*
X198029455Y-173979042D01*
X198029455Y-173979042D02*
X198029455Y-174407614D01*
X198029455Y-174407614D02*
X197958027Y-174550471D01*
X197958027Y-174550471D02*
X197886598Y-174621900D01*
X197886598Y-174621900D02*
X197743741Y-174693328D01*
X197743741Y-174693328D02*
X197529455Y-174693328D01*
X198672312Y-173693328D02*
X198672312Y-174693328D01*
X198672312Y-173836185D02*
X198743741Y-173764757D01*
X198743741Y-173764757D02*
X198886598Y-173693328D01*
X198886598Y-173693328D02*
X199100884Y-173693328D01*
X199100884Y-173693328D02*
X199243741Y-173764757D01*
X199243741Y-173764757D02*
X199315170Y-173907614D01*
X199315170Y-173907614D02*
X199315170Y-174693328D01*
X200029455Y-174693328D02*
X200029455Y-173693328D01*
X200029455Y-173193328D02*
X199958027Y-173264757D01*
X199958027Y-173264757D02*
X200029455Y-173336185D01*
X200029455Y-173336185D02*
X200100884Y-173264757D01*
X200100884Y-173264757D02*
X200029455Y-173193328D01*
X200029455Y-173193328D02*
X200029455Y-173336185D01*
X200958027Y-174693328D02*
X200815170Y-174621900D01*
X200815170Y-174621900D02*
X200743741Y-174550471D01*
X200743741Y-174550471D02*
X200672313Y-174407614D01*
X200672313Y-174407614D02*
X200672313Y-173979042D01*
X200672313Y-173979042D02*
X200743741Y-173836185D01*
X200743741Y-173836185D02*
X200815170Y-173764757D01*
X200815170Y-173764757D02*
X200958027Y-173693328D01*
X200958027Y-173693328D02*
X201172313Y-173693328D01*
X201172313Y-173693328D02*
X201315170Y-173764757D01*
X201315170Y-173764757D02*
X201386599Y-173836185D01*
X201386599Y-173836185D02*
X201458027Y-173979042D01*
X201458027Y-173979042D02*
X201458027Y-174407614D01*
X201458027Y-174407614D02*
X201386599Y-174550471D01*
X201386599Y-174550471D02*
X201315170Y-174621900D01*
X201315170Y-174621900D02*
X201172313Y-174693328D01*
X201172313Y-174693328D02*
X200958027Y-174693328D01*
X203243741Y-174693328D02*
X203243741Y-173193328D01*
X203243741Y-173907614D02*
X204100884Y-173907614D01*
X204100884Y-174693328D02*
X204100884Y-173193328D01*
X204815170Y-174693328D02*
X204815170Y-173693328D01*
X204815170Y-173193328D02*
X204743742Y-173264757D01*
X204743742Y-173264757D02*
X204815170Y-173336185D01*
X204815170Y-173336185D02*
X204886599Y-173264757D01*
X204886599Y-173264757D02*
X204815170Y-173193328D01*
X204815170Y-173193328D02*
X204815170Y-173336185D01*
X206172314Y-174693328D02*
X206172314Y-173193328D01*
X206172314Y-174621900D02*
X206029456Y-174693328D01*
X206029456Y-174693328D02*
X205743742Y-174693328D01*
X205743742Y-174693328D02*
X205600885Y-174621900D01*
X205600885Y-174621900D02*
X205529456Y-174550471D01*
X205529456Y-174550471D02*
X205458028Y-174407614D01*
X205458028Y-174407614D02*
X205458028Y-173979042D01*
X205458028Y-173979042D02*
X205529456Y-173836185D01*
X205529456Y-173836185D02*
X205600885Y-173764757D01*
X205600885Y-173764757D02*
X205743742Y-173693328D01*
X205743742Y-173693328D02*
X206029456Y-173693328D01*
X206029456Y-173693328D02*
X206172314Y-173764757D01*
X207529457Y-174693328D02*
X207529457Y-173907614D01*
X207529457Y-173907614D02*
X207458028Y-173764757D01*
X207458028Y-173764757D02*
X207315171Y-173693328D01*
X207315171Y-173693328D02*
X207029457Y-173693328D01*
X207029457Y-173693328D02*
X206886599Y-173764757D01*
X207529457Y-174621900D02*
X207386599Y-174693328D01*
X207386599Y-174693328D02*
X207029457Y-174693328D01*
X207029457Y-174693328D02*
X206886599Y-174621900D01*
X206886599Y-174621900D02*
X206815171Y-174479042D01*
X206815171Y-174479042D02*
X206815171Y-174336185D01*
X206815171Y-174336185D02*
X206886599Y-174193328D01*
X206886599Y-174193328D02*
X207029457Y-174121900D01*
X207029457Y-174121900D02*
X207386599Y-174121900D01*
X207386599Y-174121900D02*
X207529457Y-174050471D01*
X208458028Y-174693328D02*
X208315171Y-174621900D01*
X208315171Y-174621900D02*
X208243742Y-174479042D01*
X208243742Y-174479042D02*
X208243742Y-173193328D01*
X209672314Y-173693328D02*
X209672314Y-174907614D01*
X209672314Y-174907614D02*
X209600885Y-175050471D01*
X209600885Y-175050471D02*
X209529456Y-175121900D01*
X209529456Y-175121900D02*
X209386599Y-175193328D01*
X209386599Y-175193328D02*
X209172314Y-175193328D01*
X209172314Y-175193328D02*
X209029456Y-175121900D01*
X209672314Y-174621900D02*
X209529456Y-174693328D01*
X209529456Y-174693328D02*
X209243742Y-174693328D01*
X209243742Y-174693328D02*
X209100885Y-174621900D01*
X209100885Y-174621900D02*
X209029456Y-174550471D01*
X209029456Y-174550471D02*
X208958028Y-174407614D01*
X208958028Y-174407614D02*
X208958028Y-173979042D01*
X208958028Y-173979042D02*
X209029456Y-173836185D01*
X209029456Y-173836185D02*
X209100885Y-173764757D01*
X209100885Y-173764757D02*
X209243742Y-173693328D01*
X209243742Y-173693328D02*
X209529456Y-173693328D01*
X209529456Y-173693328D02*
X209672314Y-173764757D01*
X210600885Y-174693328D02*
X210458028Y-174621900D01*
X210458028Y-174621900D02*
X210386599Y-174550471D01*
X210386599Y-174550471D02*
X210315171Y-174407614D01*
X210315171Y-174407614D02*
X210315171Y-173979042D01*
X210315171Y-173979042D02*
X210386599Y-173836185D01*
X210386599Y-173836185D02*
X210458028Y-173764757D01*
X210458028Y-173764757D02*
X210600885Y-173693328D01*
X210600885Y-173693328D02*
X210815171Y-173693328D01*
X210815171Y-173693328D02*
X210958028Y-173764757D01*
X210958028Y-173764757D02*
X211029457Y-173836185D01*
X211029457Y-173836185D02*
X211100885Y-173979042D01*
X211100885Y-173979042D02*
X211100885Y-174407614D01*
X211100885Y-174407614D02*
X211029457Y-174550471D01*
X211029457Y-174550471D02*
X210958028Y-174621900D01*
X210958028Y-174621900D02*
X210815171Y-174693328D01*
X210815171Y-174693328D02*
X210600885Y-174693328D01*
X212672314Y-173193328D02*
X213529457Y-173193328D01*
X213100885Y-174693328D02*
X213100885Y-173193328D01*
X214243742Y-174693328D02*
X214100885Y-174621900D01*
X214100885Y-174621900D02*
X214029456Y-174550471D01*
X214029456Y-174550471D02*
X213958028Y-174407614D01*
X213958028Y-174407614D02*
X213958028Y-173979042D01*
X213958028Y-173979042D02*
X214029456Y-173836185D01*
X214029456Y-173836185D02*
X214100885Y-173764757D01*
X214100885Y-173764757D02*
X214243742Y-173693328D01*
X214243742Y-173693328D02*
X214458028Y-173693328D01*
X214458028Y-173693328D02*
X214600885Y-173764757D01*
X214600885Y-173764757D02*
X214672314Y-173836185D01*
X214672314Y-173836185D02*
X214743742Y-173979042D01*
X214743742Y-173979042D02*
X214743742Y-174407614D01*
X214743742Y-174407614D02*
X214672314Y-174550471D01*
X214672314Y-174550471D02*
X214600885Y-174621900D01*
X214600885Y-174621900D02*
X214458028Y-174693328D01*
X214458028Y-174693328D02*
X214243742Y-174693328D01*
X215386599Y-174693328D02*
X215386599Y-173693328D01*
X215386599Y-173979042D02*
X215458028Y-173836185D01*
X215458028Y-173836185D02*
X215529457Y-173764757D01*
X215529457Y-173764757D02*
X215672314Y-173693328D01*
X215672314Y-173693328D02*
X215815171Y-173693328D01*
X216315170Y-174693328D02*
X216315170Y-173693328D01*
X216315170Y-173979042D02*
X216386599Y-173836185D01*
X216386599Y-173836185D02*
X216458028Y-173764757D01*
X216458028Y-173764757D02*
X216600885Y-173693328D01*
X216600885Y-173693328D02*
X216743742Y-173693328D01*
X217815170Y-174621900D02*
X217672313Y-174693328D01*
X217672313Y-174693328D02*
X217386599Y-174693328D01*
X217386599Y-174693328D02*
X217243741Y-174621900D01*
X217243741Y-174621900D02*
X217172313Y-174479042D01*
X217172313Y-174479042D02*
X217172313Y-173907614D01*
X217172313Y-173907614D02*
X217243741Y-173764757D01*
X217243741Y-173764757D02*
X217386599Y-173693328D01*
X217386599Y-173693328D02*
X217672313Y-173693328D01*
X217672313Y-173693328D02*
X217815170Y-173764757D01*
X217815170Y-173764757D02*
X217886599Y-173907614D01*
X217886599Y-173907614D02*
X217886599Y-174050471D01*
X217886599Y-174050471D02*
X217172313Y-174193328D01*
X218458027Y-174621900D02*
X218600884Y-174693328D01*
X218600884Y-174693328D02*
X218886598Y-174693328D01*
X218886598Y-174693328D02*
X219029455Y-174621900D01*
X219029455Y-174621900D02*
X219100884Y-174479042D01*
X219100884Y-174479042D02*
X219100884Y-174407614D01*
X219100884Y-174407614D02*
X219029455Y-174264757D01*
X219029455Y-174264757D02*
X218886598Y-174193328D01*
X218886598Y-174193328D02*
X218672313Y-174193328D01*
X218672313Y-174193328D02*
X218529455Y-174121900D01*
X218529455Y-174121900D02*
X218458027Y-173979042D01*
X218458027Y-173979042D02*
X218458027Y-173907614D01*
X218458027Y-173907614D02*
X218529455Y-173764757D01*
X218529455Y-173764757D02*
X218672313Y-173693328D01*
X218672313Y-173693328D02*
X218886598Y-173693328D01*
X218886598Y-173693328D02*
X219029455Y-173764757D01*
D10*
D11*
D10*
D11*
D10*
D11*
X197002200Y-191507200D02*
X197002200Y-194507200D01*
D10*
D11*
X261002200Y-191507200D02*
X261002200Y-198007200D01*
D14*
%TO.P,R8,1*%
%TO.N,VDD*%
X151155400Y-116421400D03*
%TO.P,R8,2*%
%TO.N,IO0*%
X151155400Y-118071400D03*
%TD*%
D15*
%TO.P,J1,1*%
%TO.N,PWR_IN*%
X146616200Y-87963000D03*
%TO.P,J1,2*%
%TO.N,GND*%
X146616200Y-81963000D03*
%TO.P,J1,3*%
X141916200Y-84963000D03*
%TD*%
D16*
%TO.P,S1,1*%
%TO.N,GND*%
X140208000Y-114731800D03*
%TO.P,S1,2*%
%TO.N,EN*%
X140208000Y-118131800D03*
%TD*%
D17*
%TO.P,C4,1*%
%TO.N,VDD*%
X140970000Y-92113400D03*
%TO.P,C4,2*%
%TO.N,GND*%
X140970000Y-90563400D03*
%TD*%
D14*
%TO.P,R7,1*%
%TO.N,VDD*%
X142621000Y-116435400D03*
%TO.P,R7,2*%
%TO.N,EN*%
X142621000Y-118085400D03*
%TD*%
D18*
%TO.P,C1,1*%
%TO.N,EN*%
X137795000Y-116471400D03*
%TO.P,C1,2*%
%TO.N,GND*%
X137795000Y-118021400D03*
%TD*%
D19*
%TO.P,J3,1,1*%
%TO.N,EN*%
X145014400Y-115417600D03*
%TO.P,J3,2,2*%
%TO.N,VDD*%
X148914400Y-115417600D03*
%TO.P,J3,3,3*%
%TO.N,TX*%
X145014400Y-116687600D03*
%TO.P,J3,4,4*%
%TO.N,GND*%
X148914400Y-116687600D03*
%TO.P,J3,5,5*%
%TO.N,RX*%
X145014400Y-117957600D03*
%TO.P,J3,6,6*%
%TO.N,IO0*%
X148914400Y-117957600D03*
%TD*%
D20*
%TO.P,D1,1,+*%
%TO.N,Net-(D1-+)*%
X153914000Y-82924400D03*
%TO.P,D1,2,-*%
%TO.N,GND*%
X159014000Y-82924400D03*
%TO.P,D1,3*%
%TO.N,PWR_IN*%
X159014000Y-91624400D03*
%TO.P,D1,4*%
%TO.N,GND*%
X153914000Y-91624400D03*
%TD*%
D21*
%TO.P,U1,1,RST*%
%TO.N,unconnected-(U1-RST-Pad1)*%
X140716000Y-96545400D03*
%TO.P,U1,2,ADC*%
%TO.N,unconnected-(U1-ADC-Pad2)*%
X142716000Y-96545400D03*
%TO.P,U1,3,EN*%
%TO.N,EN*%
X144716000Y-96545400D03*
%TO.P,U1,4,IO16*%
%TO.N,PWM_RED*%
X146716000Y-96545400D03*
%TO.P,U1,5,IO14*%
%TO.N,unconnected-(U1-IO14-Pad5)*%
X148716000Y-96545400D03*
%TO.P,U1,6,IO12*%
%TO.N,PWM_GREEN*%
X150716000Y-96545400D03*
%TO.P,U1,7,IO13*%
%TO.N,PWM_BLUE*%
X152716000Y-96545400D03*
%TO.P,U1,8,VCC*%
%TO.N,VDD*%
X154716000Y-96545400D03*
%TO.P,U1,9,GND*%
%TO.N,GND*%
X154716000Y-112345400D03*
%TO.P,U1,10,IO15*%
%TO.N,unconnected-(U1-IO15-Pad10)*%
X152716000Y-112345400D03*
%TO.P,U1,11,IO2*%
%TO.N,unconnected-(U1-IO2-Pad11)*%
X150716000Y-112345400D03*
%TO.P,U1,12,IO0*%
%TO.N,IO0*%
X148716000Y-112345400D03*
%TO.P,U1,13,IO4*%
%TO.N,unconnected-(U1-IO4-Pad13)*%
X146716000Y-112345400D03*
%TO.P,U1,14,IO5*%
%TO.N,unconnected-(U1-IO5-Pad14)*%
X144716000Y-112345400D03*
%TO.P,U1,15,RXD0*%
%TO.N,TX*%
X142716000Y-112345400D03*
%TO.P,U1,16,TXD0*%
%TO.N,RX*%
X140716000Y-112345400D03*
D22*
%TO.P,U1,17,EXP*%
%TO.N,unconnected-(U1-EXP-Pad17)*%
X145416000Y-104645400D03*
%TD*%
D23*
%TO.P,U3,1,GND*%
%TO.N,GND*%
X133997000Y-83030400D03*
D24*
%TO.P,U3,2,VO*%
%TO.N,VDD*%
X137802000Y-87655400D03*
X134752000Y-87655400D03*
D25*
X136277000Y-89330400D03*
D24*
X137802000Y-91005400D03*
X134752000Y-91005400D03*
D23*
%TO.P,U3,3,VI*%
%TO.N,Net-(D1-+)*%
X138557000Y-83030400D03*
%TD*%
D18*
%TO.P,C3,1*%
%TO.N,Net-(D1-+)*%
X140970000Y-87503000D03*
%TO.P,C3,2*%
%TO.N,GND*%
X140970000Y-89053000D03*
%TD*%
D16*
%TO.P,S2,1*%
%TO.N,GND*%
X153619200Y-114733600D03*
%TO.P,S2,2*%
%TO.N,IO0*%
X153619200Y-118133600D03*
%TD*%
D17*
%TO.P,C2,1*%
%TO.N,IO0*%
X156057600Y-118046800D03*
%TO.P,C2,2*%
%TO.N,GND*%
X156057600Y-116496800D03*
%TD*%
D26*
%TO.N,GND*%
X147345400Y-100380800D03*
X154711400Y-112318800D03*
%TO.N,PWM_RED*%
X146716000Y-96545400D03*
%TO.N,PWM_BLUE*%
X152716000Y-96545400D03*
%TO.N,PWM_GREEN*%
X150749000Y-95948000D03*
%TO.N,RX*%
X144989000Y-117959400D03*
X140716000Y-112293400D03*
%TD*%
D27*
%TO.N,VDD*%
X149148800Y-92100400D02*
X138897000Y-92100400D01*
X154569600Y-95844800D02*
X153009600Y-94284800D01*
X153009600Y-94284800D02*
X151333200Y-94284800D01*
X154569600Y-96821600D02*
X154569600Y-95844800D01*
X151333200Y-94284800D02*
X149148800Y-92100400D01*
X138897000Y-92100400D02*
X137802000Y-91005400D01*
%TO.N,GND*%
X145973800Y-100380800D02*
X147345400Y-100380800D01*
X139700000Y-114223800D02*
X139700000Y-106654600D01*
X140208000Y-114731800D02*
X139700000Y-114223800D01*
X139700000Y-106654600D02*
X145973800Y-100380800D01*
X139712400Y-119938800D02*
X137795000Y-118021400D01*
X146329400Y-119938800D02*
X139712400Y-119938800D01*
X147294600Y-118973600D02*
X146329400Y-119938800D01*
X147947000Y-116687600D02*
X147294600Y-117340000D01*
X147294600Y-117340000D02*
X147294600Y-118973600D01*
X148914400Y-116687600D02*
X147947000Y-116687600D01*
%TO.N,VDD*%
X147904400Y-115417600D02*
X148914400Y-115417600D01*
X146659600Y-118859300D02*
X146659600Y-116662400D01*
X146392900Y-119126000D02*
X146659600Y-118859300D01*
X143446000Y-118669200D02*
X143902800Y-119126000D01*
X143902800Y-119126000D02*
X146392900Y-119126000D01*
X146659600Y-116662400D02*
X147904400Y-115417600D01*
X143446000Y-117260400D02*
X143446000Y-118669200D01*
X142621000Y-116435400D02*
X143446000Y-117260400D01*
%TO.N,TX*%
X142716000Y-112896400D02*
X142716000Y-112345400D01*
X146710400Y-114985800D02*
X145923000Y-114198400D01*
X146710400Y-115849400D02*
X146710400Y-114985800D01*
X145872200Y-116687600D02*
X146710400Y-115849400D01*
X145923000Y-114198400D02*
X144018000Y-114198400D01*
X144018000Y-114198400D02*
X142716000Y-112896400D01*
X145014400Y-116687600D02*
X145872200Y-116687600D01*
%TO.N,IO0*%
X149028200Y-118071400D02*
X151155400Y-118071400D01*
%TO.N,RX*%
X145012600Y-117959400D02*
X143969000Y-117959400D01*
X145014400Y-117957600D02*
X145012600Y-117959400D01*
%TO.N,GND*%
X148912600Y-116689400D02*
X147879000Y-116689400D01*
X148914400Y-116687600D02*
X148912600Y-116689400D01*
%TO.N,VDD*%
X147701000Y-103837400D02*
X154716000Y-96822400D01*
X147701000Y-114204200D02*
X147701000Y-103837400D01*
X148914400Y-115417600D02*
X147701000Y-114204200D01*
X151155400Y-116421400D02*
X151155400Y-116154200D01*
%TO.N,EN*%
X140208000Y-117094000D02*
X140208000Y-118131800D01*
X141882600Y-115419400D02*
X140208000Y-117094000D01*
X145014400Y-115417600D02*
X145012600Y-115419400D01*
%TO.N,VDD*%
X151155400Y-116154200D02*
X150418800Y-115417600D01*
%TO.N,EN*%
X145012600Y-115419400D02*
X141882600Y-115419400D01*
%TO.N,VDD*%
X150418800Y-115417600D02*
X148914400Y-115417600D01*
%TO.N,IO0*%
X148914400Y-117957600D02*
X149028200Y-118071400D01*
%TO.N,EN*%
X140208000Y-118131800D02*
X142574600Y-118131800D01*
X142574600Y-118131800D02*
X142621000Y-118085400D01*
X139455400Y-118131800D02*
X137795000Y-116471400D01*
X140208000Y-118131800D02*
X139455400Y-118131800D01*
X138887200Y-115379200D02*
X137795000Y-116471400D01*
X144716000Y-97095400D02*
X138887200Y-102924200D01*
X138887200Y-102924200D02*
X138887200Y-115379200D01*
X144716000Y-96545400D02*
X144716000Y-97095400D01*
%TO.N,IO0*%
X155970800Y-118133600D02*
X153619200Y-118133600D01*
X156057600Y-118046800D02*
X155970800Y-118133600D01*
X151231600Y-114452400D02*
X153619200Y-116840000D01*
X153619200Y-116840000D02*
X153619200Y-118133600D01*
X150266400Y-114452400D02*
X151231600Y-114452400D01*
X148716000Y-112902000D02*
X150266400Y-114452400D01*
X148716000Y-112345400D02*
X148716000Y-112902000D01*
X153557000Y-118071400D02*
X153619200Y-118133600D01*
X151155400Y-118071400D02*
X153557000Y-118071400D01*
%TO.N,Net-(D1-+)*%
X138557000Y-85090000D02*
X138557000Y-83030400D01*
X140970000Y-87503000D02*
X138557000Y-85090000D01*
X138557000Y-82575400D02*
X138557000Y-83030400D01*
X153914000Y-82438400D02*
X150749000Y-79273400D01*
X150749000Y-79273400D02*
X141859000Y-79273400D01*
X153914000Y-82924400D02*
X153914000Y-82438400D01*
X141859000Y-79273400D02*
X138557000Y-82575400D01*
D28*
%TO.N,GND*%
X137923000Y-118021400D02*
X137795000Y-118021400D01*
D27*
%TO.N,IO0*%
X148716000Y-112345400D02*
X148716000Y-112895400D01*
X151322000Y-117959400D02*
X151384000Y-118021400D01*
X151498000Y-118135400D02*
X151384000Y-118021400D01*
%TO.N,Net-(D1-+)*%
X138922800Y-82664600D02*
X138557000Y-83030400D01*
%TO.N,EN*%
X140208000Y-118135400D02*
X140589000Y-118135400D01*
%TO.N,PWR_IN*%
X155871600Y-87963000D02*
X146616200Y-87963000D01*
X159014000Y-91624400D02*
X159014000Y-91105400D01*
X159014000Y-91105400D02*
X155871600Y-87963000D01*
%TO.N,unconnected-(U1-IO14-Pad5)*%
X148716000Y-96036400D02*
X148716000Y-96545400D01*
%TO.N,PWM_GREEN*%
X150716000Y-96195400D02*
X150716000Y-95981000D01*
X150716000Y-95981000D02*
X150716000Y-96545400D01*
X150749000Y-95948000D02*
X150716000Y-95981000D01*
%TD*%
%TA.AperFunction,Conductor*%
%TO.N,GND*%
G36*
X158426554Y-75675975D02*
G01*
X158531288Y-75681119D01*
X158577212Y-75683375D01*
X158771628Y-75693565D01*
X158777428Y-75694145D01*
X158946522Y-75719228D01*
X159122627Y-75747121D01*
X159127936Y-75748204D01*
X159297086Y-75790573D01*
X159466351Y-75835928D01*
X159471170Y-75837433D01*
X159636806Y-75896699D01*
X159799305Y-75959076D01*
X159803551Y-75960893D01*
X159963407Y-76036499D01*
X160118044Y-76115290D01*
X160121731Y-76117332D01*
X160273916Y-76208548D01*
X160400638Y-76290842D01*
X160419300Y-76302962D01*
X160422466Y-76305161D01*
X160565275Y-76411075D01*
X160700028Y-76520195D01*
X160702625Y-76522421D01*
X160833485Y-76641026D01*
X160835679Y-76643115D01*
X160957283Y-76764719D01*
X160959382Y-76766923D01*
X161077969Y-76897764D01*
X161080209Y-76900377D01*
X161116864Y-76945643D01*
X161189324Y-77035124D01*
X161295237Y-77177932D01*
X161297436Y-77181098D01*
X161391856Y-77326490D01*
X161483054Y-77478645D01*
X161485118Y-77482373D01*
X161563900Y-77636992D01*
X161639498Y-77796832D01*
X161641333Y-77801120D01*
X161663621Y-77859184D01*
X161703702Y-77963596D01*
X161707558Y-77974374D01*
X161762959Y-78129209D01*
X161764471Y-78134051D01*
X161809825Y-78303311D01*
X161852188Y-78472433D01*
X161853283Y-78477801D01*
X161881177Y-78653917D01*
X161906308Y-78823340D01*
X161906888Y-78829074D01*
X161913100Y-78943313D01*
X161924425Y-79173846D01*
X161924500Y-79176889D01*
X161924500Y-79221285D01*
X161925220Y-79227982D01*
X161925220Y-117173906D01*
X161925147Y-117176900D01*
X161923055Y-117220054D01*
X161917750Y-117329445D01*
X161908021Y-117517489D01*
X161907450Y-117523270D01*
X161882818Y-117691527D01*
X161855841Y-117864118D01*
X161854774Y-117869420D01*
X161813260Y-118037414D01*
X161769287Y-118203769D01*
X161767813Y-118208554D01*
X161709787Y-118373024D01*
X161649233Y-118533032D01*
X161647443Y-118537277D01*
X161573446Y-118696069D01*
X161496884Y-118848617D01*
X161494871Y-118852310D01*
X161405587Y-119003655D01*
X161313758Y-119147388D01*
X161311612Y-119150531D01*
X161207883Y-119292829D01*
X161101679Y-119426362D01*
X161099488Y-119428968D01*
X160983300Y-119559636D01*
X160981250Y-119561832D01*
X160862779Y-119682731D01*
X160860625Y-119684826D01*
X160732355Y-119803624D01*
X160729795Y-119805868D01*
X160598432Y-119914769D01*
X160458281Y-120021351D01*
X160455183Y-120023560D01*
X160313316Y-120118304D01*
X160163842Y-120210620D01*
X160160191Y-120212707D01*
X160009194Y-120292365D01*
X159851958Y-120369555D01*
X159847751Y-120371430D01*
X159688984Y-120435227D01*
X159525733Y-120496573D01*
X159520978Y-120498144D01*
X159355566Y-120545476D01*
X159188438Y-120590392D01*
X159183159Y-120591566D01*
X159011202Y-120622030D01*
X158843419Y-120650079D01*
X158837651Y-120650767D01*
X158649641Y-120664321D01*
X158562956Y-120670289D01*
X158498131Y-120674752D01*
X158493888Y-120674898D01*
X135454529Y-120674898D01*
X135451487Y-120674823D01*
X135300400Y-120667402D01*
X135106416Y-120657236D01*
X135100560Y-120656650D01*
X134931317Y-120631545D01*
X134755424Y-120603686D01*
X134750056Y-120602591D01*
X134580790Y-120560193D01*
X134411678Y-120514879D01*
X134406847Y-120513370D01*
X134300307Y-120475250D01*
X134241120Y-120454072D01*
X134078746Y-120391742D01*
X134074455Y-120389906D01*
X133914529Y-120314268D01*
X133760006Y-120235533D01*
X133756278Y-120233470D01*
X133604038Y-120142222D01*
X133458736Y-120047861D01*
X133455570Y-120045662D01*
X133312676Y-119939685D01*
X133178023Y-119830646D01*
X133175404Y-119828401D01*
X133073041Y-119735625D01*
X133044477Y-119709736D01*
X133042277Y-119707641D01*
X132920757Y-119586121D01*
X132918658Y-119583917D01*
X132902901Y-119566532D01*
X132799997Y-119452994D01*
X132797752Y-119450375D01*
X132688714Y-119315723D01*
X132582736Y-119172828D01*
X132580537Y-119169662D01*
X132486182Y-119024369D01*
X132394928Y-118872120D01*
X132392864Y-118868392D01*
X132380828Y-118844770D01*
X132314134Y-118713876D01*
X132262357Y-118604403D01*
X132238492Y-118553943D01*
X132236656Y-118549652D01*
X132230276Y-118533032D01*
X132174332Y-118387294D01*
X132115018Y-118221522D01*
X132113525Y-118216741D01*
X132068206Y-118047609D01*
X132025804Y-117878329D01*
X132024716Y-117872994D01*
X131996862Y-117697133D01*
X131971745Y-117527809D01*
X131971164Y-117522007D01*
X131960990Y-117327881D01*
X131956576Y-117238004D01*
X131953575Y-117176913D01*
X131953500Y-117173871D01*
X131953500Y-115440000D01*
X131973185Y-115372961D01*
X132025989Y-115327206D01*
X132077500Y-115316000D01*
X137277848Y-115316000D01*
X137344887Y-115335685D01*
X137390642Y-115388489D01*
X137400586Y-115457647D01*
X137371561Y-115521203D01*
X137316852Y-115557706D01*
X137236305Y-115584396D01*
X137236294Y-115584401D01*
X137091959Y-115673429D01*
X137091955Y-115673432D01*
X136972032Y-115793355D01*
X136972029Y-115793359D01*
X136883001Y-115937694D01*
X136882996Y-115937705D01*
X136829651Y-116098690D01*
X136824851Y-116145669D01*
X136798454Y-116210361D01*
X136741272Y-116250511D01*
X136671461Y-116253373D01*
X136611185Y-116218038D01*
X136610263Y-116217047D01*
X136575606Y-116179399D01*
X136572291Y-116175485D01*
X136564384Y-116165326D01*
X136562711Y-116161085D01*
X136557253Y-116155157D01*
X136551398Y-116151220D01*
X136541918Y-116142492D01*
X136538294Y-116138868D01*
X136501307Y-116098690D01*
X136472744Y-116067662D01*
X136451870Y-116051415D01*
X136396378Y-116008223D01*
X136392462Y-116004907D01*
X136382970Y-115996167D01*
X136380624Y-115992263D01*
X136374279Y-115987324D01*
X136367845Y-115984400D01*
X136357055Y-115977350D01*
X136352893Y-115974378D01*
X136305775Y-115937705D01*
X136276509Y-115914926D01*
X136276504Y-115914923D01*
X136276503Y-115914922D01*
X136220109Y-115884404D01*
X136191380Y-115868856D01*
X136186985Y-115866237D01*
X136176190Y-115859184D01*
X136173227Y-115855713D01*
X136166156Y-115851886D01*
X136159332Y-115850061D01*
X136147528Y-115844883D01*
X136142925Y-115842633D01*
X136057816Y-115796575D01*
X136057813Y-115796574D01*
X136057810Y-115796572D01*
X136057804Y-115796570D01*
X136057802Y-115796569D01*
X135966258Y-115765142D01*
X135961480Y-115763277D01*
X135949690Y-115758105D01*
X135946199Y-115755171D01*
X135938584Y-115752556D01*
X135931562Y-115751881D01*
X135927750Y-115750916D01*
X135919080Y-115748720D01*
X135914168Y-115747258D01*
X135822614Y-115715829D01*
X135727141Y-115699896D01*
X135722128Y-115698845D01*
X135709648Y-115695686D01*
X135705715Y-115693362D01*
X135697768Y-115692036D01*
X135690719Y-115692527D01*
X135677888Y-115691463D01*
X135672804Y-115690830D01*
X135577336Y-115674900D01*
X135577335Y-115674900D01*
X135480541Y-115674900D01*
X135475428Y-115674688D01*
X135464122Y-115673751D01*
X135462583Y-115673624D01*
X135458328Y-115671982D01*
X135450279Y-115671982D01*
X135443414Y-115673624D01*
X135433435Y-115674451D01*
X135433291Y-115674463D01*
X135430606Y-115674685D01*
X135425495Y-115674900D01*
X135328665Y-115674900D01*
X135233194Y-115690830D01*
X135228109Y-115691464D01*
X135215277Y-115692527D01*
X135210806Y-115691607D01*
X135202862Y-115692932D01*
X135196355Y-115695685D01*
X135183872Y-115698845D01*
X135178857Y-115699897D01*
X135083383Y-115715829D01*
X134991835Y-115747256D01*
X134986929Y-115748717D01*
X134974450Y-115751878D01*
X134969890Y-115751707D01*
X134962261Y-115754325D01*
X134956304Y-115758107D01*
X134944515Y-115763279D01*
X134939740Y-115765142D01*
X134848194Y-115796570D01*
X134848183Y-115796575D01*
X134763084Y-115842628D01*
X134758479Y-115844879D01*
X134746662Y-115850063D01*
X134742135Y-115850644D01*
X134735061Y-115854472D01*
X134729804Y-115859186D01*
X134719009Y-115866239D01*
X134714607Y-115868861D01*
X134629493Y-115914924D01*
X134629489Y-115914926D01*
X134553108Y-115974376D01*
X134548944Y-115977350D01*
X134541967Y-115981909D01*
X134538138Y-115984410D01*
X134533771Y-115985727D01*
X134527428Y-115990664D01*
X134523025Y-115996171D01*
X134513532Y-116004910D01*
X134509620Y-116008224D01*
X134433255Y-116067662D01*
X134367696Y-116138877D01*
X134364071Y-116142502D01*
X134354596Y-116151224D01*
X134350509Y-116153240D01*
X134345043Y-116159178D01*
X134341604Y-116165340D01*
X134333699Y-116175495D01*
X134330390Y-116179401D01*
X134264836Y-116250615D01*
X134211900Y-116331637D01*
X134208922Y-116335808D01*
X134201004Y-116345981D01*
X134197304Y-116348643D01*
X134192900Y-116355384D01*
X134190520Y-116362031D01*
X134184387Y-116373362D01*
X134181764Y-116377764D01*
X134128828Y-116458790D01*
X134089951Y-116547418D01*
X134087702Y-116552019D01*
X134081566Y-116563359D01*
X134078349Y-116566600D01*
X134075116Y-116573971D01*
X134073863Y-116580917D01*
X134069674Y-116593117D01*
X134067811Y-116597893D01*
X134048796Y-116641244D01*
X134028939Y-116686516D01*
X134028936Y-116686522D01*
X134005177Y-116780340D01*
X134003715Y-116785251D01*
X133999533Y-116797433D01*
X133996896Y-116801155D01*
X133994917Y-116808970D01*
X133994825Y-116816022D01*
X133992707Y-116828719D01*
X133991654Y-116833739D01*
X133967891Y-116927578D01*
X133967891Y-116927583D01*
X133959899Y-117024030D01*
X133959265Y-117029115D01*
X133957144Y-117041825D01*
X133955155Y-117045931D01*
X133954490Y-117053961D01*
X133955560Y-117060930D01*
X133955561Y-117073822D01*
X133955349Y-117078951D01*
X133947429Y-117174532D01*
X133947357Y-117175400D01*
X133955143Y-117269368D01*
X133955349Y-117271847D01*
X133955561Y-117276976D01*
X133955560Y-117289868D01*
X133954274Y-117294243D01*
X133954940Y-117302269D01*
X133957144Y-117308973D01*
X133959265Y-117321683D01*
X133959899Y-117326769D01*
X133967891Y-117423216D01*
X133967891Y-117423218D01*
X133991654Y-117517059D01*
X133992707Y-117522079D01*
X133994825Y-117534774D01*
X133994277Y-117539302D01*
X133996256Y-117547115D01*
X133999532Y-117553362D01*
X134003714Y-117565545D01*
X134005177Y-117570458D01*
X134028432Y-117662287D01*
X134028937Y-117664281D01*
X134043309Y-117697045D01*
X134067810Y-117752903D01*
X134069675Y-117757683D01*
X134073864Y-117769888D01*
X134074069Y-117774440D01*
X134077304Y-117781815D01*
X134081567Y-117787443D01*
X134087700Y-117798777D01*
X134089949Y-117803378D01*
X134128826Y-117892005D01*
X134181764Y-117973034D01*
X134184389Y-117977439D01*
X134190521Y-117988771D01*
X134191473Y-117993231D01*
X134195879Y-117999975D01*
X134201009Y-118004822D01*
X134208927Y-118014996D01*
X134211903Y-118019166D01*
X134247672Y-118073914D01*
X134264836Y-118100185D01*
X134289306Y-118126766D01*
X134330391Y-118171398D01*
X134333706Y-118175311D01*
X134341612Y-118185470D01*
X134343284Y-118189708D01*
X134348752Y-118195649D01*
X134354599Y-118199578D01*
X134364079Y-118208304D01*
X134367703Y-118211929D01*
X134433257Y-118283139D01*
X134509624Y-118342578D01*
X134513539Y-118345893D01*
X134523026Y-118354627D01*
X134525373Y-118358533D01*
X134531730Y-118363481D01*
X134538150Y-118366398D01*
X134546868Y-118372093D01*
X134548293Y-118373024D01*
X134548935Y-118373443D01*
X134553091Y-118376409D01*
X134629491Y-118435874D01*
X134714634Y-118481951D01*
X134719010Y-118484559D01*
X134729811Y-118491616D01*
X134732772Y-118495086D01*
X134739844Y-118498914D01*
X134746664Y-118500736D01*
X134758483Y-118505921D01*
X134763057Y-118508156D01*
X134848190Y-118554228D01*
X134939767Y-118585666D01*
X134944480Y-118587505D01*
X134956300Y-118592690D01*
X134959791Y-118595624D01*
X134967421Y-118598243D01*
X134974432Y-118598917D01*
X134982378Y-118600928D01*
X134986935Y-118602082D01*
X134991823Y-118603537D01*
X135057307Y-118626018D01*
X135083385Y-118634971D01*
X135178857Y-118650902D01*
X135183861Y-118651950D01*
X135196359Y-118655115D01*
X135200285Y-118657434D01*
X135208240Y-118658762D01*
X135215274Y-118658271D01*
X135228122Y-118659336D01*
X135233187Y-118659967D01*
X135328665Y-118675900D01*
X135328666Y-118675900D01*
X135425436Y-118675900D01*
X135430556Y-118676112D01*
X135442551Y-118677105D01*
X135443419Y-118677177D01*
X135447680Y-118678821D01*
X135455715Y-118678821D01*
X135462579Y-118677178D01*
X135475453Y-118676112D01*
X135480574Y-118675900D01*
X135577330Y-118675900D01*
X135577335Y-118675900D01*
X135672854Y-118659960D01*
X135677850Y-118659338D01*
X135690730Y-118658271D01*
X135695193Y-118659189D01*
X135703141Y-118657863D01*
X135709623Y-118655119D01*
X135722158Y-118651945D01*
X135727105Y-118650908D01*
X135822614Y-118634971D01*
X135914198Y-118603529D01*
X135919055Y-118602084D01*
X135931568Y-118598916D01*
X135936120Y-118599087D01*
X135943741Y-118596471D01*
X135949691Y-118592693D01*
X135961501Y-118587513D01*
X135966251Y-118585660D01*
X136057810Y-118554228D01*
X136142970Y-118508141D01*
X136147522Y-118505917D01*
X136159340Y-118500734D01*
X136163865Y-118500152D01*
X136170935Y-118496326D01*
X136176190Y-118491615D01*
X136186999Y-118484553D01*
X136191361Y-118481953D01*
X136276509Y-118435874D01*
X136352937Y-118376386D01*
X136357025Y-118373468D01*
X136367856Y-118366393D01*
X136372221Y-118365076D01*
X136378568Y-118360135D01*
X136382972Y-118354628D01*
X136392462Y-118345892D01*
X136396349Y-118342598D01*
X136472744Y-118283138D01*
X136538313Y-118211910D01*
X136541909Y-118208314D01*
X136551405Y-118199572D01*
X136555489Y-118197557D01*
X136560949Y-118191626D01*
X136564384Y-118185473D01*
X136572315Y-118175283D01*
X136575583Y-118171424D01*
X136604773Y-118139715D01*
X136664658Y-118103726D01*
X136734496Y-118105827D01*
X136792112Y-118145351D01*
X136819213Y-118209751D01*
X136820000Y-118223698D01*
X136820000Y-118294706D01*
X136820001Y-118294723D01*
X136830144Y-118394007D01*
X136883452Y-118554881D01*
X136883457Y-118554892D01*
X136972424Y-118699128D01*
X136972427Y-118699132D01*
X137092267Y-118818972D01*
X137092271Y-118818975D01*
X137236507Y-118907942D01*
X137236518Y-118907947D01*
X137397393Y-118961255D01*
X137496683Y-118971399D01*
X137544999Y-118971398D01*
X137545000Y-118971398D01*
X137545000Y-117895400D01*
X137564685Y-117828361D01*
X137617489Y-117782606D01*
X137669000Y-117771400D01*
X137921000Y-117771400D01*
X137988039Y-117791085D01*
X138033794Y-117843889D01*
X138045000Y-117895400D01*
X138045000Y-118971399D01*
X138093308Y-118971399D01*
X138093322Y-118971398D01*
X138192607Y-118961255D01*
X138353481Y-118907947D01*
X138353492Y-118907942D01*
X138497728Y-118818975D01*
X138497732Y-118818972D01*
X138617571Y-118699133D01*
X138640258Y-118662352D01*
X138692206Y-118615626D01*
X138761168Y-118604403D01*
X138825251Y-118632246D01*
X138861980Y-118684114D01*
X138914202Y-118824128D01*
X138914206Y-118824135D01*
X139000452Y-118939344D01*
X139000455Y-118939347D01*
X139115664Y-119025593D01*
X139115671Y-119025597D01*
X139250517Y-119075891D01*
X139250516Y-119075891D01*
X139257444Y-119076635D01*
X139310127Y-119082300D01*
X141105872Y-119082299D01*
X141165483Y-119075891D01*
X141300331Y-119025596D01*
X141415546Y-118939346D01*
X141495914Y-118831988D01*
X141551847Y-118790118D01*
X141595180Y-118782300D01*
X141800880Y-118782300D01*
X141867919Y-118801985D01*
X141888561Y-118818619D01*
X141910811Y-118840869D01*
X141910813Y-118840870D01*
X141910815Y-118840872D01*
X142056394Y-118928878D01*
X142218804Y-118979486D01*
X142289384Y-118985900D01*
X142806824Y-118985900D01*
X142873863Y-119005585D01*
X142913555Y-119046778D01*
X142927919Y-119071065D01*
X142927923Y-119071069D01*
X142942923Y-119086069D01*
X142955558Y-119100862D01*
X142968037Y-119118037D01*
X142968039Y-119118038D01*
X142968041Y-119118041D01*
X143005470Y-119149005D01*
X143009781Y-119152927D01*
X143221355Y-119364500D01*
X143382364Y-119525509D01*
X143392440Y-119538086D01*
X143392627Y-119537932D01*
X143397595Y-119543937D01*
X143450059Y-119593204D01*
X143471761Y-119614907D01*
X143471765Y-119614910D01*
X143471766Y-119614911D01*
X143477559Y-119619404D01*
X143481991Y-119623190D01*
X143517407Y-119656448D01*
X143524317Y-119660247D01*
X143536007Y-119666674D01*
X143552268Y-119677355D01*
X143569037Y-119690363D01*
X143613627Y-119709658D01*
X143618856Y-119712220D01*
X143661432Y-119735627D01*
X143681993Y-119740905D01*
X143700397Y-119747207D01*
X143719874Y-119755636D01*
X143754192Y-119761071D01*
X143767854Y-119763235D01*
X143773564Y-119764417D01*
X143820623Y-119776500D01*
X143841845Y-119776500D01*
X143861242Y-119778026D01*
X143882205Y-119781347D01*
X143926904Y-119777121D01*
X143930570Y-119776775D01*
X143936408Y-119776500D01*
X146307395Y-119776500D01*
X146323405Y-119778267D01*
X146323428Y-119778026D01*
X146331189Y-119778758D01*
X146331196Y-119778760D01*
X146403103Y-119776500D01*
X146433825Y-119776500D01*
X146441090Y-119775581D01*
X146446916Y-119775122D01*
X146495469Y-119773597D01*
X146515856Y-119767673D01*
X146534896Y-119763731D01*
X146555958Y-119761071D01*
X146601135Y-119743183D01*
X146606635Y-119741300D01*
X146653298Y-119727744D01*
X146671565Y-119716939D01*
X146689036Y-119708380D01*
X146708771Y-119700568D01*
X146748077Y-119672010D01*
X146752943Y-119668813D01*
X146794765Y-119644081D01*
X146809778Y-119629066D01*
X146824570Y-119616435D01*
X146841733Y-119603966D01*
X146841733Y-119603965D01*
X146841737Y-119603963D01*
X146872710Y-119566521D01*
X146876624Y-119562219D01*
X147059111Y-119379732D01*
X147071686Y-119369659D01*
X147071531Y-119369472D01*
X147077533Y-119364505D01*
X147077540Y-119364502D01*
X147126804Y-119312040D01*
X147148511Y-119290334D01*
X147153003Y-119284541D01*
X147156793Y-119280105D01*
X147190048Y-119244693D01*
X147200270Y-119226096D01*
X147210955Y-119209831D01*
X147223963Y-119193063D01*
X147243251Y-119148487D01*
X147245824Y-119143236D01*
X147246161Y-119142621D01*
X147269227Y-119100668D01*
X147274504Y-119080108D01*
X147280806Y-119061703D01*
X147289236Y-119042226D01*
X147296835Y-118994245D01*
X147298017Y-118988534D01*
X147310100Y-118941477D01*
X147310100Y-118920254D01*
X147311627Y-118900858D01*
X147314719Y-118881335D01*
X147344648Y-118818200D01*
X147403959Y-118781268D01*
X147473821Y-118782266D01*
X147480525Y-118784550D01*
X147606917Y-118831691D01*
X147606916Y-118831691D01*
X147613844Y-118832435D01*
X147666527Y-118838100D01*
X150162272Y-118838099D01*
X150221883Y-118831691D01*
X150313390Y-118797560D01*
X150383081Y-118792577D01*
X150438737Y-118822968D01*
X150439306Y-118822243D01*
X150443667Y-118825660D01*
X150444404Y-118826062D01*
X150445211Y-118826869D01*
X150445213Y-118826870D01*
X150445215Y-118826872D01*
X150590794Y-118914878D01*
X150753204Y-118965486D01*
X150823784Y-118971900D01*
X150823787Y-118971900D01*
X151487013Y-118971900D01*
X151487016Y-118971900D01*
X151557596Y-118965486D01*
X151720006Y-118914878D01*
X151865585Y-118826872D01*
X151934239Y-118758217D01*
X151995560Y-118724734D01*
X152021919Y-118721900D01*
X152200507Y-118721900D01*
X152267546Y-118741585D01*
X152313301Y-118794389D01*
X152316689Y-118802566D01*
X152325403Y-118825929D01*
X152325406Y-118825935D01*
X152411652Y-118941144D01*
X152411655Y-118941147D01*
X152526864Y-119027393D01*
X152526871Y-119027397D01*
X152661717Y-119077691D01*
X152661716Y-119077691D01*
X152668644Y-119078435D01*
X152721327Y-119084100D01*
X154517072Y-119084099D01*
X154576683Y-119077691D01*
X154711531Y-119027396D01*
X154826746Y-118941146D01*
X154907114Y-118833788D01*
X154963047Y-118791918D01*
X155006380Y-118784100D01*
X155242526Y-118784100D01*
X155309565Y-118803785D01*
X155330207Y-118820419D01*
X155354555Y-118844767D01*
X155354559Y-118844770D01*
X155498894Y-118933798D01*
X155498897Y-118933799D01*
X155498903Y-118933803D01*
X155659892Y-118987149D01*
X155759255Y-118997300D01*
X156355944Y-118997299D01*
X156355952Y-118997298D01*
X156355955Y-118997298D01*
X156414104Y-118991358D01*
X156455308Y-118987149D01*
X156616297Y-118933803D01*
X156760644Y-118844768D01*
X156880568Y-118724844D01*
X156969603Y-118580497D01*
X157022949Y-118419508D01*
X157033100Y-118320145D01*
X157033099Y-118196650D01*
X157052783Y-118129613D01*
X157105587Y-118083858D01*
X157174745Y-118073914D01*
X157238301Y-118102938D01*
X157248329Y-118112670D01*
X157302391Y-118171397D01*
X157305705Y-118175311D01*
X157313612Y-118185470D01*
X157315284Y-118189708D01*
X157320752Y-118195649D01*
X157326599Y-118199578D01*
X157336079Y-118208304D01*
X157339703Y-118211929D01*
X157405257Y-118283139D01*
X157481624Y-118342578D01*
X157485539Y-118345893D01*
X157495026Y-118354627D01*
X157497373Y-118358533D01*
X157503730Y-118363481D01*
X157510150Y-118366398D01*
X157518868Y-118372093D01*
X157520293Y-118373024D01*
X157520935Y-118373443D01*
X157525091Y-118376409D01*
X157601491Y-118435874D01*
X157686634Y-118481951D01*
X157691010Y-118484559D01*
X157701811Y-118491616D01*
X157704772Y-118495086D01*
X157711844Y-118498914D01*
X157718664Y-118500736D01*
X157730483Y-118505921D01*
X157735057Y-118508156D01*
X157820190Y-118554228D01*
X157911767Y-118585666D01*
X157916480Y-118587505D01*
X157928300Y-118592690D01*
X157931791Y-118595624D01*
X157939421Y-118598243D01*
X157946432Y-118598917D01*
X157954378Y-118600928D01*
X157958935Y-118602082D01*
X157963823Y-118603537D01*
X158029307Y-118626018D01*
X158055385Y-118634971D01*
X158150857Y-118650902D01*
X158155861Y-118651950D01*
X158168359Y-118655115D01*
X158172285Y-118657434D01*
X158180240Y-118658762D01*
X158187274Y-118658271D01*
X158200122Y-118659336D01*
X158205187Y-118659967D01*
X158300665Y-118675900D01*
X158300666Y-118675900D01*
X158397436Y-118675900D01*
X158402556Y-118676112D01*
X158414551Y-118677105D01*
X158415419Y-118677177D01*
X158419680Y-118678821D01*
X158427715Y-118678821D01*
X158434579Y-118677178D01*
X158447453Y-118676112D01*
X158452574Y-118675900D01*
X158549330Y-118675900D01*
X158549335Y-118675900D01*
X158644854Y-118659960D01*
X158649850Y-118659338D01*
X158662730Y-118658271D01*
X158667193Y-118659189D01*
X158675141Y-118657863D01*
X158681623Y-118655119D01*
X158694158Y-118651945D01*
X158699105Y-118650908D01*
X158794614Y-118634971D01*
X158886198Y-118603529D01*
X158891055Y-118602084D01*
X158903568Y-118598916D01*
X158908120Y-118599087D01*
X158915741Y-118596471D01*
X158921691Y-118592693D01*
X158933501Y-118587513D01*
X158938251Y-118585660D01*
X159029810Y-118554228D01*
X159114970Y-118508141D01*
X159119522Y-118505917D01*
X159131340Y-118500734D01*
X159135865Y-118500152D01*
X159142935Y-118496326D01*
X159148190Y-118491615D01*
X159158999Y-118484553D01*
X159163361Y-118481953D01*
X159248509Y-118435874D01*
X159324937Y-118376386D01*
X159329025Y-118373468D01*
X159339856Y-118366393D01*
X159344221Y-118365076D01*
X159350568Y-118360135D01*
X159354972Y-118354628D01*
X159364462Y-118345892D01*
X159368349Y-118342598D01*
X159444744Y-118283138D01*
X159510313Y-118211910D01*
X159513909Y-118208314D01*
X159523405Y-118199572D01*
X159527489Y-118197557D01*
X159532949Y-118191626D01*
X159536384Y-118185473D01*
X159544315Y-118175283D01*
X159547585Y-118171422D01*
X159613164Y-118100185D01*
X159666124Y-118019123D01*
X159669055Y-118015018D01*
X159677004Y-118004805D01*
X159680699Y-118002146D01*
X159685104Y-117995404D01*
X159687481Y-117988765D01*
X159693621Y-117977420D01*
X159696224Y-117973050D01*
X159749173Y-117892007D01*
X159788052Y-117803370D01*
X159790290Y-117798791D01*
X159796434Y-117787438D01*
X159799649Y-117784199D01*
X159802882Y-117776827D01*
X159804135Y-117769883D01*
X159808329Y-117757666D01*
X159810170Y-117752946D01*
X159849063Y-117664281D01*
X159872832Y-117570419D01*
X159874280Y-117565556D01*
X159878467Y-117553360D01*
X159881103Y-117549638D01*
X159883081Y-117541828D01*
X159883174Y-117534773D01*
X159885299Y-117522038D01*
X159886344Y-117517059D01*
X159910108Y-117423221D01*
X159918103Y-117326733D01*
X159918734Y-117321678D01*
X159923508Y-117293069D01*
X159922688Y-117287328D01*
X159923088Y-117267985D01*
X159923283Y-117264214D01*
X159930643Y-117175400D01*
X159930516Y-117173871D01*
X159926664Y-117127386D01*
X159923283Y-117086589D01*
X159923088Y-117082810D01*
X159922688Y-117063472D01*
X159923789Y-117059416D01*
X159921195Y-117043873D01*
X159918731Y-117029104D01*
X159918102Y-117024060D01*
X159910108Y-116927579D01*
X159909456Y-116925006D01*
X159905496Y-116909369D01*
X159886341Y-116833727D01*
X159885295Y-116828734D01*
X159885292Y-116828719D01*
X159883175Y-116816027D01*
X159883721Y-116811502D01*
X159881743Y-116803687D01*
X159878466Y-116797437D01*
X159874283Y-116785251D01*
X159872830Y-116780376D01*
X159849063Y-116686519D01*
X159843219Y-116673197D01*
X159833594Y-116651255D01*
X159810180Y-116597875D01*
X159808326Y-116593125D01*
X159804133Y-116580909D01*
X159803927Y-116576353D01*
X159800699Y-116568992D01*
X159796435Y-116563362D01*
X159790298Y-116552021D01*
X159788052Y-116547429D01*
X159759934Y-116483326D01*
X159749173Y-116458792D01*
X159696231Y-116377758D01*
X159693618Y-116373373D01*
X159687477Y-116362026D01*
X159686524Y-116357567D01*
X159682122Y-116350828D01*
X159676994Y-116345981D01*
X159669081Y-116335815D01*
X159666102Y-116331643D01*
X159644187Y-116298099D01*
X159613164Y-116250615D01*
X159583175Y-116218038D01*
X159547606Y-116179399D01*
X159544291Y-116175485D01*
X159536384Y-116165326D01*
X159534711Y-116161085D01*
X159529253Y-116155157D01*
X159523398Y-116151220D01*
X159513918Y-116142492D01*
X159510294Y-116138868D01*
X159473307Y-116098690D01*
X159444744Y-116067662D01*
X159423870Y-116051415D01*
X159368378Y-116008223D01*
X159364462Y-116004907D01*
X159354970Y-115996167D01*
X159352624Y-115992263D01*
X159346279Y-115987324D01*
X159339845Y-115984400D01*
X159329055Y-115977350D01*
X159324893Y-115974378D01*
X159277775Y-115937705D01*
X159248509Y-115914926D01*
X159248504Y-115914923D01*
X159248503Y-115914922D01*
X159192109Y-115884404D01*
X159163380Y-115868856D01*
X159158985Y-115866237D01*
X159148190Y-115859184D01*
X159145227Y-115855713D01*
X159138156Y-115851886D01*
X159131332Y-115850061D01*
X159119528Y-115844883D01*
X159114925Y-115842633D01*
X159029816Y-115796575D01*
X159029813Y-115796574D01*
X159029810Y-115796572D01*
X159029804Y-115796570D01*
X159029802Y-115796569D01*
X158938258Y-115765142D01*
X158933480Y-115763277D01*
X158921690Y-115758105D01*
X158918199Y-115755171D01*
X158910584Y-115752556D01*
X158903562Y-115751881D01*
X158899750Y-115750916D01*
X158891080Y-115748720D01*
X158886168Y-115747258D01*
X158794614Y-115715829D01*
X158699141Y-115699896D01*
X158694128Y-115698845D01*
X158681648Y-115695686D01*
X158677715Y-115693362D01*
X158669768Y-115692036D01*
X158662719Y-115692527D01*
X158649888Y-115691463D01*
X158644804Y-115690830D01*
X158549336Y-115674900D01*
X158549335Y-115674900D01*
X158452541Y-115674900D01*
X158447428Y-115674688D01*
X158436122Y-115673751D01*
X158434583Y-115673624D01*
X158430328Y-115671982D01*
X158422279Y-115671982D01*
X158415414Y-115673624D01*
X158405435Y-115674451D01*
X158405291Y-115674463D01*
X158402606Y-115674685D01*
X158397495Y-115674900D01*
X158300665Y-115674900D01*
X158205194Y-115690830D01*
X158200109Y-115691464D01*
X158187277Y-115692527D01*
X158182806Y-115691607D01*
X158174862Y-115692932D01*
X158168355Y-115695685D01*
X158155872Y-115698845D01*
X158150857Y-115699897D01*
X158055383Y-115715829D01*
X157963835Y-115747256D01*
X157958929Y-115748717D01*
X157946450Y-115751878D01*
X157941890Y-115751707D01*
X157934261Y-115754325D01*
X157928304Y-115758107D01*
X157916515Y-115763279D01*
X157911740Y-115765142D01*
X157820194Y-115796570D01*
X157820183Y-115796575D01*
X157735084Y-115842628D01*
X157730479Y-115844879D01*
X157718662Y-115850063D01*
X157714135Y-115850644D01*
X157707061Y-115854472D01*
X157701804Y-115859186D01*
X157691009Y-115866239D01*
X157686607Y-115868861D01*
X157601493Y-115914924D01*
X157601489Y-115914926D01*
X157525108Y-115974376D01*
X157520944Y-115977350D01*
X157513967Y-115981909D01*
X157510138Y-115984410D01*
X157505771Y-115985727D01*
X157499428Y-115990664D01*
X157495025Y-115996171D01*
X157485532Y-116004910D01*
X157481620Y-116008224D01*
X157405255Y-116067662D01*
X157339696Y-116138877D01*
X157336071Y-116142502D01*
X157326596Y-116151224D01*
X157322509Y-116153240D01*
X157317043Y-116159178D01*
X157313604Y-116165340D01*
X157305699Y-116175495D01*
X157302390Y-116179401D01*
X157242085Y-116244912D01*
X157182199Y-116280903D01*
X157112360Y-116278804D01*
X157054744Y-116239281D01*
X157027641Y-116174882D01*
X157027496Y-116173531D01*
X157022456Y-116124193D01*
X156969147Y-115963318D01*
X156969142Y-115963307D01*
X156880175Y-115819071D01*
X156880172Y-115819067D01*
X156760332Y-115699227D01*
X156760328Y-115699224D01*
X156616092Y-115610257D01*
X156616081Y-115610252D01*
X156455206Y-115556944D01*
X156355922Y-115546800D01*
X156307600Y-115546800D01*
X156307600Y-116622800D01*
X156287915Y-116689839D01*
X156235111Y-116735594D01*
X156183600Y-116746800D01*
X155082601Y-116746800D01*
X155082601Y-116770122D01*
X155092744Y-116869407D01*
X155146052Y-117030281D01*
X155146057Y-117030292D01*
X155235024Y-117174528D01*
X155235027Y-117174532D01*
X155244260Y-117183765D01*
X155277745Y-117245088D01*
X155272761Y-117314780D01*
X155244263Y-117359124D01*
X155234633Y-117368753D01*
X155224871Y-117384581D01*
X155200434Y-117424198D01*
X155148488Y-117470922D01*
X155094897Y-117483100D01*
X155006380Y-117483100D01*
X154939341Y-117463415D01*
X154907113Y-117433411D01*
X154905766Y-117431611D01*
X154826746Y-117326054D01*
X154796930Y-117303734D01*
X154711535Y-117239806D01*
X154711528Y-117239802D01*
X154576682Y-117189508D01*
X154576683Y-117189508D01*
X154517083Y-117183101D01*
X154517081Y-117183100D01*
X154517073Y-117183100D01*
X154517065Y-117183100D01*
X154393700Y-117183100D01*
X154326661Y-117163415D01*
X154280906Y-117110611D01*
X154269700Y-117059100D01*
X154269700Y-116925501D01*
X154271468Y-116909488D01*
X154271226Y-116909466D01*
X154271958Y-116901710D01*
X154271960Y-116901703D01*
X154269700Y-116829795D01*
X154269700Y-116799075D01*
X154268779Y-116791788D01*
X154268322Y-116785979D01*
X154267824Y-116770122D01*
X154266797Y-116737430D01*
X154260876Y-116717052D01*
X154256931Y-116698003D01*
X154254271Y-116676942D01*
X154236386Y-116631772D01*
X154234497Y-116626252D01*
X154224873Y-116593125D01*
X154220944Y-116579601D01*
X154210139Y-116561332D01*
X154201579Y-116543858D01*
X154194886Y-116526953D01*
X154193768Y-116524129D01*
X154165214Y-116484828D01*
X154162010Y-116479950D01*
X154160439Y-116477294D01*
X154137281Y-116438135D01*
X154122274Y-116423128D01*
X154109635Y-116408330D01*
X154097161Y-116391160D01*
X154059728Y-116360194D01*
X154055406Y-116356260D01*
X153945946Y-116246800D01*
X155082600Y-116246800D01*
X155807600Y-116246800D01*
X155807600Y-115546800D01*
X155807599Y-115546799D01*
X155759293Y-115546800D01*
X155759275Y-115546801D01*
X155659992Y-115556944D01*
X155499118Y-115610252D01*
X155499107Y-115610257D01*
X155354871Y-115699224D01*
X155354867Y-115699227D01*
X155235027Y-115819067D01*
X155235024Y-115819071D01*
X155146057Y-115963307D01*
X155146052Y-115963318D01*
X155092744Y-116124193D01*
X155082600Y-116223477D01*
X155082600Y-116246800D01*
X153945946Y-116246800D01*
X153405519Y-115706373D01*
X153372034Y-115645050D01*
X153369200Y-115618692D01*
X153369200Y-114983600D01*
X153869200Y-114983600D01*
X153869200Y-115683600D01*
X154517028Y-115683600D01*
X154517044Y-115683599D01*
X154576572Y-115677198D01*
X154576579Y-115677196D01*
X154711286Y-115626954D01*
X154711293Y-115626950D01*
X154826387Y-115540790D01*
X154826390Y-115540787D01*
X154912550Y-115425693D01*
X154912554Y-115425686D01*
X154962796Y-115290979D01*
X154962798Y-115290972D01*
X154969199Y-115231444D01*
X154969200Y-115231427D01*
X154969200Y-114983600D01*
X153869200Y-114983600D01*
X153369200Y-114983600D01*
X153369200Y-114607600D01*
X153388885Y-114540561D01*
X153441689Y-114494806D01*
X153493200Y-114483600D01*
X154969200Y-114483600D01*
X154969200Y-114235772D01*
X154969199Y-114235755D01*
X154962798Y-114176227D01*
X154962797Y-114176223D01*
X154939117Y-114112734D01*
X154934133Y-114043042D01*
X154967617Y-113981719D01*
X155028941Y-113948234D01*
X155055299Y-113945400D01*
X155313828Y-113945400D01*
X155313844Y-113945399D01*
X155373372Y-113938998D01*
X155373379Y-113938996D01*
X155508086Y-113888754D01*
X155508093Y-113888750D01*
X155623187Y-113802590D01*
X155623190Y-113802587D01*
X155709350Y-113687493D01*
X155709354Y-113687486D01*
X155759596Y-113552779D01*
X155759598Y-113552772D01*
X155765999Y-113493244D01*
X155766000Y-113493227D01*
X155766000Y-112595400D01*
X154590000Y-112595400D01*
X154522961Y-112575715D01*
X154477206Y-112522911D01*
X154466000Y-112471400D01*
X154466000Y-110745400D01*
X154966000Y-110745400D01*
X154966000Y-112095400D01*
X155766000Y-112095400D01*
X155766000Y-111197572D01*
X155765999Y-111197555D01*
X155759598Y-111138027D01*
X155759596Y-111138020D01*
X155709354Y-111003313D01*
X155709350Y-111003306D01*
X155623190Y-110888212D01*
X155623187Y-110888209D01*
X155508093Y-110802049D01*
X155508086Y-110802045D01*
X155373379Y-110751803D01*
X155373372Y-110751801D01*
X155313844Y-110745400D01*
X154966000Y-110745400D01*
X154466000Y-110745400D01*
X154118155Y-110745400D01*
X154058627Y-110751801D01*
X154058620Y-110751803D01*
X153923913Y-110802045D01*
X153923906Y-110802049D01*
X153808812Y-110888209D01*
X153804038Y-110892984D01*
X153742715Y-110926469D01*
X153673023Y-110921485D01*
X153628676Y-110892984D01*
X153623544Y-110887852D01*
X153508335Y-110801606D01*
X153508328Y-110801602D01*
X153373482Y-110751308D01*
X153373483Y-110751308D01*
X153313883Y-110744901D01*
X153313881Y-110744900D01*
X153313873Y-110744900D01*
X153313864Y-110744900D01*
X152118129Y-110744900D01*
X152118123Y-110744901D01*
X152058516Y-110751308D01*
X151923671Y-110801602D01*
X151923664Y-110801606D01*
X151808455Y-110887852D01*
X151803681Y-110892627D01*
X151742358Y-110926112D01*
X151672666Y-110921128D01*
X151628319Y-110892627D01*
X151623544Y-110887852D01*
X151508335Y-110801606D01*
X151508328Y-110801602D01*
X151373482Y-110751308D01*
X151373483Y-110751308D01*
X151313883Y-110744901D01*
X151313881Y-110744900D01*
X151313873Y-110744900D01*
X151313864Y-110744900D01*
X150118129Y-110744900D01*
X150118123Y-110744901D01*
X150058516Y-110751308D01*
X149923671Y-110801602D01*
X149923664Y-110801606D01*
X149808455Y-110887852D01*
X149803681Y-110892627D01*
X149742358Y-110926112D01*
X149672666Y-110921128D01*
X149628319Y-110892627D01*
X149623544Y-110887852D01*
X149508335Y-110801606D01*
X149508328Y-110801602D01*
X149373482Y-110751308D01*
X149373483Y-110751308D01*
X149313883Y-110744901D01*
X149313881Y-110744900D01*
X149313873Y-110744900D01*
X149313865Y-110744900D01*
X148475500Y-110744900D01*
X148408461Y-110725215D01*
X148362706Y-110672411D01*
X148351500Y-110620900D01*
X148351500Y-104158207D01*
X148371185Y-104091168D01*
X148387814Y-104070531D01*
X154276127Y-98182217D01*
X154337450Y-98148733D01*
X154363808Y-98145899D01*
X155313871Y-98145899D01*
X155313872Y-98145899D01*
X155373483Y-98139491D01*
X155508331Y-98089196D01*
X155623546Y-98002946D01*
X155709796Y-97887731D01*
X155760091Y-97752883D01*
X155766500Y-97693273D01*
X155766499Y-95397528D01*
X155760091Y-95337917D01*
X155709796Y-95203069D01*
X155709795Y-95203068D01*
X155709793Y-95203064D01*
X155623547Y-95087855D01*
X155623544Y-95087852D01*
X155508335Y-95001606D01*
X155508328Y-95001602D01*
X155373482Y-94951308D01*
X155373483Y-94951308D01*
X155313883Y-94944901D01*
X155313881Y-94944900D01*
X155313873Y-94944900D01*
X155313865Y-94944900D01*
X154641008Y-94944900D01*
X154573969Y-94925215D01*
X154553327Y-94908581D01*
X153530034Y-93885288D01*
X153519961Y-93872714D01*
X153519774Y-93872870D01*
X153514801Y-93866859D01*
X153462356Y-93817610D01*
X153440635Y-93795889D01*
X153434840Y-93791394D01*
X153430398Y-93787599D01*
X153394996Y-93754354D01*
X153394988Y-93754348D01*
X153376392Y-93744125D01*
X153360131Y-93733444D01*
X153343363Y-93720437D01*
X153319895Y-93710282D01*
X153298778Y-93701143D01*
X153293556Y-93698586D01*
X153250968Y-93675173D01*
X153250965Y-93675172D01*
X153230401Y-93669892D01*
X153211996Y-93663590D01*
X153192527Y-93655165D01*
X153192521Y-93655163D01*
X153144551Y-93647566D01*
X153138836Y-93646382D01*
X153122372Y-93642155D01*
X153091780Y-93634300D01*
X153091777Y-93634300D01*
X153070555Y-93634300D01*
X153051155Y-93632773D01*
X153030196Y-93629453D01*
X153030195Y-93629453D01*
X153006386Y-93631703D01*
X152981830Y-93634025D01*
X152975992Y-93634300D01*
X151654008Y-93634300D01*
X151586969Y-93614615D01*
X151566327Y-93597981D01*
X149842746Y-91874400D01*
X152739000Y-91874400D01*
X152739000Y-92847244D01*
X152745401Y-92906772D01*
X152745403Y-92906779D01*
X152795645Y-93041486D01*
X152795649Y-93041493D01*
X152881809Y-93156587D01*
X152881812Y-93156590D01*
X152996906Y-93242750D01*
X152996913Y-93242754D01*
X153131620Y-93292996D01*
X153131627Y-93292998D01*
X153191155Y-93299399D01*
X153191172Y-93299400D01*
X153664000Y-93299400D01*
X153664000Y-91874400D01*
X154164000Y-91874400D01*
X154164000Y-93299400D01*
X154636828Y-93299400D01*
X154636844Y-93299399D01*
X154696372Y-93292998D01*
X154696379Y-93292996D01*
X154831086Y-93242754D01*
X154831093Y-93242750D01*
X154946187Y-93156590D01*
X154946190Y-93156587D01*
X155032350Y-93041493D01*
X155032354Y-93041486D01*
X155082596Y-92906779D01*
X155082598Y-92906772D01*
X155088999Y-92847244D01*
X155089000Y-92847227D01*
X155089000Y-91874400D01*
X154164000Y-91874400D01*
X153664000Y-91874400D01*
X152739000Y-91874400D01*
X149842746Y-91874400D01*
X149669234Y-91700888D01*
X149659161Y-91688314D01*
X149658974Y-91688470D01*
X149654001Y-91682459D01*
X149601556Y-91633210D01*
X149579835Y-91611489D01*
X149574040Y-91606994D01*
X149569598Y-91603199D01*
X149534196Y-91569954D01*
X149534188Y-91569948D01*
X149515592Y-91559725D01*
X149499331Y-91549044D01*
X149482563Y-91536037D01*
X149459095Y-91525882D01*
X149437978Y-91516743D01*
X149432756Y-91514186D01*
X149390168Y-91490773D01*
X149390165Y-91490772D01*
X149369601Y-91485492D01*
X149351196Y-91479190D01*
X149331727Y-91470765D01*
X149331721Y-91470763D01*
X149283751Y-91463166D01*
X149278036Y-91461982D01*
X149261572Y-91457755D01*
X149230980Y-91449900D01*
X149230977Y-91449900D01*
X149209755Y-91449900D01*
X149190355Y-91448373D01*
X149169396Y-91445053D01*
X149169395Y-91445053D01*
X149145586Y-91447303D01*
X149121030Y-91449625D01*
X149115192Y-91449900D01*
X141883168Y-91449900D01*
X141816129Y-91430215D01*
X141770374Y-91377411D01*
X141769941Y-91374400D01*
X152739000Y-91374400D01*
X153664000Y-91374400D01*
X153664000Y-89949400D01*
X154164000Y-89949400D01*
X154164000Y-91374400D01*
X155089000Y-91374400D01*
X155089000Y-90401572D01*
X155088999Y-90401555D01*
X155082598Y-90342027D01*
X155082596Y-90342020D01*
X155032354Y-90207313D01*
X155032350Y-90207306D01*
X154946190Y-90092212D01*
X154946187Y-90092209D01*
X154831093Y-90006049D01*
X154831086Y-90006045D01*
X154696379Y-89955803D01*
X154696372Y-89955801D01*
X154636844Y-89949400D01*
X154164000Y-89949400D01*
X153664000Y-89949400D01*
X153191155Y-89949400D01*
X153131627Y-89955801D01*
X153131620Y-89955803D01*
X152996913Y-90006045D01*
X152996906Y-90006049D01*
X152881812Y-90092209D01*
X152881809Y-90092212D01*
X152795649Y-90207306D01*
X152795645Y-90207313D01*
X152745403Y-90342020D01*
X152745401Y-90342027D01*
X152739000Y-90401555D01*
X152739000Y-91374400D01*
X141769941Y-91374400D01*
X141760430Y-91308253D01*
X141788387Y-91247033D01*
X141788092Y-91246800D01*
X141789045Y-91245594D01*
X141789455Y-91244697D01*
X141791441Y-91242563D01*
X141792573Y-91241131D01*
X141881542Y-91096892D01*
X141881547Y-91096881D01*
X141934855Y-90936006D01*
X141944999Y-90836722D01*
X141945000Y-90836709D01*
X141945000Y-90813400D01*
X139995001Y-90813400D01*
X139995001Y-90836722D01*
X140005144Y-90936007D01*
X140058452Y-91096881D01*
X140058457Y-91096892D01*
X140147424Y-91241128D01*
X140151905Y-91246795D01*
X140150013Y-91248290D01*
X140177999Y-91299542D01*
X140173015Y-91369234D01*
X140131143Y-91425167D01*
X140065679Y-91449584D01*
X140056833Y-91449900D01*
X139801500Y-91449900D01*
X139734461Y-91430215D01*
X139688706Y-91377411D01*
X139677500Y-91325900D01*
X139677500Y-90313400D01*
X139995000Y-90313400D01*
X140720000Y-90313400D01*
X140720000Y-89303000D01*
X141220000Y-89303000D01*
X141220000Y-90313400D01*
X141944999Y-90313400D01*
X141944999Y-90290092D01*
X141944998Y-90290077D01*
X141934855Y-90190792D01*
X141881547Y-90029918D01*
X141881542Y-90029907D01*
X141792577Y-89885673D01*
X141792136Y-89885116D01*
X141791952Y-89884660D01*
X141788782Y-89879521D01*
X141789659Y-89878979D01*
X141765992Y-89820322D01*
X141779029Y-89751679D01*
X141792136Y-89731284D01*
X141792577Y-89730726D01*
X141881542Y-89586492D01*
X141881547Y-89586481D01*
X141934855Y-89425606D01*
X141944999Y-89326322D01*
X141945000Y-89326309D01*
X141945000Y-89303000D01*
X141220000Y-89303000D01*
X140720000Y-89303000D01*
X139995001Y-89303000D01*
X139995001Y-89326322D01*
X140005144Y-89425607D01*
X140058452Y-89586481D01*
X140058457Y-89586492D01*
X140147425Y-89730730D01*
X140147871Y-89731294D01*
X140148056Y-89731752D01*
X140151218Y-89736879D01*
X140150341Y-89737419D01*
X140174008Y-89796090D01*
X140160965Y-89864732D01*
X140147871Y-89885106D01*
X140147425Y-89885669D01*
X140058457Y-90029907D01*
X140058452Y-90029918D01*
X140005144Y-90190793D01*
X139995000Y-90290077D01*
X139995000Y-90313400D01*
X139677500Y-90313400D01*
X139677500Y-87429808D01*
X139697185Y-87362769D01*
X139749989Y-87317014D01*
X139819147Y-87307070D01*
X139882703Y-87336095D01*
X139889181Y-87342127D01*
X139958181Y-87411127D01*
X139991666Y-87472450D01*
X139994500Y-87498808D01*
X139994500Y-87776336D01*
X139994501Y-87776355D01*
X140004650Y-87875707D01*
X140004651Y-87875710D01*
X140057996Y-88036694D01*
X140058001Y-88036705D01*
X140147029Y-88181040D01*
X140147032Y-88181044D01*
X140156660Y-88190672D01*
X140190145Y-88251995D01*
X140185161Y-88321687D01*
X140156663Y-88366031D01*
X140147428Y-88375265D01*
X140147424Y-88375271D01*
X140058457Y-88519507D01*
X140058452Y-88519518D01*
X140005144Y-88680393D01*
X139995000Y-88779677D01*
X139995000Y-88803000D01*
X141944999Y-88803000D01*
X141944999Y-88779692D01*
X141944998Y-88779677D01*
X141934855Y-88680392D01*
X141881547Y-88519518D01*
X141881542Y-88519507D01*
X141792575Y-88375271D01*
X141792572Y-88375267D01*
X141783339Y-88366034D01*
X141749854Y-88304711D01*
X141754838Y-88235019D01*
X141783343Y-88190668D01*
X141792968Y-88181044D01*
X141882003Y-88036697D01*
X141906423Y-87963001D01*
X144610590Y-87963001D01*
X144631004Y-88248433D01*
X144691828Y-88528037D01*
X144691830Y-88528043D01*
X144691831Y-88528046D01*
X144791833Y-88796161D01*
X144791835Y-88796166D01*
X144928970Y-89047309D01*
X144928975Y-89047317D01*
X145100454Y-89276387D01*
X145100470Y-89276405D01*
X145302794Y-89478729D01*
X145302812Y-89478745D01*
X145531882Y-89650224D01*
X145531890Y-89650229D01*
X145783033Y-89787364D01*
X145783032Y-89787364D01*
X145783036Y-89787365D01*
X145783039Y-89787367D01*
X146051154Y-89887369D01*
X146051160Y-89887370D01*
X146051162Y-89887371D01*
X146330766Y-89948195D01*
X146330768Y-89948195D01*
X146330772Y-89948196D01*
X146584420Y-89966337D01*
X146616199Y-89968610D01*
X146616200Y-89968610D01*
X146616201Y-89968610D01*
X146644795Y-89966564D01*
X146901628Y-89948196D01*
X146988883Y-89929215D01*
X147181237Y-89887371D01*
X147181237Y-89887370D01*
X147181246Y-89887369D01*
X147449361Y-89787367D01*
X147700515Y-89650226D01*
X147929595Y-89478739D01*
X148131939Y-89276395D01*
X148303426Y-89047315D01*
X148440567Y-88796161D01*
X148478609Y-88694165D01*
X148520481Y-88638233D01*
X148585945Y-88613816D01*
X148594791Y-88613500D01*
X155550792Y-88613500D01*
X155617831Y-88633185D01*
X155638473Y-88649819D01*
X157802181Y-90813527D01*
X157835666Y-90874850D01*
X157838500Y-90901208D01*
X157838500Y-92847270D01*
X157838501Y-92847276D01*
X157844908Y-92906883D01*
X157895202Y-93041728D01*
X157895206Y-93041735D01*
X157981452Y-93156944D01*
X157981455Y-93156947D01*
X158096664Y-93243193D01*
X158096671Y-93243197D01*
X158231517Y-93293491D01*
X158231516Y-93293491D01*
X158238444Y-93294235D01*
X158291127Y-93299900D01*
X159736872Y-93299899D01*
X159796483Y-93293491D01*
X159931331Y-93243196D01*
X160046546Y-93156946D01*
X160132796Y-93041731D01*
X160183091Y-92906883D01*
X160189500Y-92847273D01*
X160189499Y-90401528D01*
X160183091Y-90341917D01*
X160132884Y-90207306D01*
X160132797Y-90207071D01*
X160132793Y-90207064D01*
X160046547Y-90091855D01*
X160046544Y-90091852D01*
X159931335Y-90005606D01*
X159931328Y-90005602D01*
X159796482Y-89955308D01*
X159796483Y-89955308D01*
X159736883Y-89948901D01*
X159736881Y-89948900D01*
X159736873Y-89948900D01*
X159736865Y-89948900D01*
X158828808Y-89948900D01*
X158761769Y-89929215D01*
X158741127Y-89912581D01*
X156392034Y-87563488D01*
X156381961Y-87550914D01*
X156381774Y-87551070D01*
X156376801Y-87545059D01*
X156324356Y-87495810D01*
X156302635Y-87474089D01*
X156296840Y-87469594D01*
X156292398Y-87465799D01*
X156256996Y-87432554D01*
X156256988Y-87432548D01*
X156238392Y-87422325D01*
X156222131Y-87411644D01*
X156205363Y-87398637D01*
X156181895Y-87388482D01*
X156160778Y-87379343D01*
X156155556Y-87376786D01*
X156112968Y-87353373D01*
X156112965Y-87353372D01*
X156092401Y-87348092D01*
X156073996Y-87341790D01*
X156054527Y-87333365D01*
X156054521Y-87333363D01*
X156006551Y-87325766D01*
X156000836Y-87324582D01*
X155984372Y-87320355D01*
X155953780Y-87312500D01*
X155953777Y-87312500D01*
X155932555Y-87312500D01*
X155913155Y-87310973D01*
X155892196Y-87307653D01*
X155892195Y-87307653D01*
X155868386Y-87309903D01*
X155843830Y-87312225D01*
X155837992Y-87312500D01*
X148594791Y-87312500D01*
X148527752Y-87292815D01*
X148481997Y-87240011D01*
X148478609Y-87231834D01*
X148440793Y-87130446D01*
X148440567Y-87129839D01*
X148352907Y-86969303D01*
X148303429Y-86878690D01*
X148303424Y-86878682D01*
X148131945Y-86649612D01*
X148131929Y-86649594D01*
X147929605Y-86447270D01*
X147929587Y-86447254D01*
X147700517Y-86275775D01*
X147700509Y-86275770D01*
X147449366Y-86138635D01*
X147449367Y-86138635D01*
X147241396Y-86061066D01*
X147181246Y-86038631D01*
X147181243Y-86038630D01*
X147181237Y-86038628D01*
X146901633Y-85977804D01*
X146616201Y-85957390D01*
X146616199Y-85957390D01*
X146330766Y-85977804D01*
X146051162Y-86038628D01*
X145783033Y-86138635D01*
X145531890Y-86275770D01*
X145531882Y-86275775D01*
X145302812Y-86447254D01*
X145302794Y-86447270D01*
X145100470Y-86649594D01*
X145100454Y-86649612D01*
X144928975Y-86878682D01*
X144928970Y-86878690D01*
X144791835Y-87129833D01*
X144691828Y-87397962D01*
X144631004Y-87677566D01*
X144610590Y-87962998D01*
X144610590Y-87963001D01*
X141906423Y-87963001D01*
X141935349Y-87875708D01*
X141945500Y-87776345D01*
X141945499Y-87229656D01*
X141935349Y-87130292D01*
X141935197Y-87129833D01*
X141932549Y-87121840D01*
X141930147Y-87052012D01*
X141965879Y-86991970D01*
X142028400Y-86960778D01*
X142041410Y-86959153D01*
X142201561Y-86947699D01*
X142201562Y-86947699D01*
X142481095Y-86886890D01*
X142749158Y-86786908D01*
X143000247Y-86649803D01*
X143142761Y-86543116D01*
X143142762Y-86543115D01*
X142494268Y-85894622D01*
X142460783Y-85833299D01*
X142465767Y-85763608D01*
X142501175Y-85712859D01*
X142608304Y-85620894D01*
X142661461Y-85552220D01*
X142718059Y-85511258D01*
X142787822Y-85507397D01*
X142847196Y-85540442D01*
X143496315Y-86189562D01*
X143496316Y-86189561D01*
X143603003Y-86047047D01*
X143740108Y-85795958D01*
X143840090Y-85527895D01*
X143900899Y-85248362D01*
X143921309Y-84963001D01*
X143921309Y-84962998D01*
X143900899Y-84677637D01*
X143840090Y-84398104D01*
X143740108Y-84130041D01*
X143603008Y-83878961D01*
X143603007Y-83878960D01*
X143496315Y-83736436D01*
X143496314Y-83736436D01*
X142850394Y-84382357D01*
X142789071Y-84415842D01*
X142719379Y-84410858D01*
X142672839Y-84380108D01*
X142538198Y-84238465D01*
X142538194Y-84238462D01*
X142511830Y-84220112D01*
X142468052Y-84165658D01*
X142460664Y-84096180D01*
X142492011Y-84033737D01*
X142494987Y-84030657D01*
X143142762Y-83382883D01*
X143142761Y-83382882D01*
X143000246Y-83276196D01*
X143000238Y-83276191D01*
X142749157Y-83139091D01*
X142749158Y-83139091D01*
X142481095Y-83039109D01*
X142201562Y-82978300D01*
X141916201Y-82957891D01*
X141916199Y-82957891D01*
X141630837Y-82978300D01*
X141351304Y-83039109D01*
X141083241Y-83139091D01*
X140832161Y-83276191D01*
X140832153Y-83276196D01*
X140689637Y-83382882D01*
X140689636Y-83382883D01*
X141338130Y-84031376D01*
X141371615Y-84092699D01*
X141366631Y-84162390D01*
X141331220Y-84213143D01*
X141301727Y-84238462D01*
X141224096Y-84305106D01*
X141224094Y-84305107D01*
X141224092Y-84305110D01*
X141170940Y-84373777D01*
X141114339Y-84414741D01*
X141044576Y-84418601D01*
X140985203Y-84385557D01*
X140336083Y-83736436D01*
X140336082Y-83736437D01*
X140229396Y-83878953D01*
X140229391Y-83878961D01*
X140092291Y-84130041D01*
X139992309Y-84398104D01*
X139931500Y-84677637D01*
X139911091Y-84962998D01*
X139911091Y-84963001D01*
X139930599Y-85235761D01*
X139915747Y-85304034D01*
X139866342Y-85353439D01*
X139798069Y-85368291D01*
X139732605Y-85343874D01*
X139719234Y-85332288D01*
X139243819Y-84856873D01*
X139210334Y-84795550D01*
X139207500Y-84769192D01*
X139207500Y-84646038D01*
X139227185Y-84578999D01*
X139266401Y-84540500D01*
X139375656Y-84473112D01*
X139499712Y-84349056D01*
X139591814Y-84199734D01*
X139646999Y-84033197D01*
X139657500Y-83930409D01*
X139657499Y-82446206D01*
X139677184Y-82379168D01*
X139693813Y-82358531D01*
X142092126Y-79960219D01*
X142153450Y-79926734D01*
X142179808Y-79923900D01*
X145691509Y-79923900D01*
X145758548Y-79943585D01*
X145804303Y-79996389D01*
X145814247Y-80065547D01*
X145785222Y-80129103D01*
X145750936Y-80156732D01*
X145532161Y-80276191D01*
X145532153Y-80276196D01*
X145389637Y-80382882D01*
X145389636Y-80382883D01*
X146038130Y-81031376D01*
X146071615Y-81092699D01*
X146066631Y-81162390D01*
X146031220Y-81213143D01*
X145989567Y-81248901D01*
X145924096Y-81305106D01*
X145924094Y-81305107D01*
X145924092Y-81305110D01*
X145870940Y-81373777D01*
X145814339Y-81414741D01*
X145744576Y-81418601D01*
X145685203Y-81385557D01*
X145036083Y-80736436D01*
X145036082Y-80736437D01*
X144929396Y-80878953D01*
X144929391Y-80878961D01*
X144792291Y-81130041D01*
X144692309Y-81398104D01*
X144631500Y-81677637D01*
X144611091Y-81962998D01*
X144611091Y-81963001D01*
X144631500Y-82248362D01*
X144692309Y-82527895D01*
X144792291Y-82795958D01*
X144929391Y-83047038D01*
X144929396Y-83047046D01*
X145036082Y-83189561D01*
X145036083Y-83189562D01*
X145682004Y-82543641D01*
X145743327Y-82510156D01*
X145813018Y-82515140D01*
X145859559Y-82545890D01*
X145994201Y-82687534D01*
X145994204Y-82687536D01*
X145994205Y-82687537D01*
X146013572Y-82701017D01*
X146020566Y-82705885D01*
X146064345Y-82760338D01*
X146071735Y-82829816D01*
X146040388Y-82892260D01*
X146037411Y-82895341D01*
X145389636Y-83543115D01*
X145532160Y-83649807D01*
X145532161Y-83649808D01*
X145783242Y-83786908D01*
X145783241Y-83786908D01*
X146051304Y-83886890D01*
X146330837Y-83947699D01*
X146616199Y-83968109D01*
X146616201Y-83968109D01*
X146901562Y-83947699D01*
X147181095Y-83886890D01*
X147449158Y-83786908D01*
X147700247Y-83649803D01*
X147842761Y-83543116D01*
X147842762Y-83543115D01*
X147194268Y-82894622D01*
X147160783Y-82833299D01*
X147165767Y-82763608D01*
X147201175Y-82712859D01*
X147308304Y-82620894D01*
X147361461Y-82552220D01*
X147418059Y-82511258D01*
X147487822Y-82507397D01*
X147547196Y-82540442D01*
X148196315Y-83189562D01*
X148196316Y-83189561D01*
X148303003Y-83047047D01*
X148440108Y-82795958D01*
X148540090Y-82527895D01*
X148600899Y-82248362D01*
X148621309Y-81963001D01*
X148621309Y-81962998D01*
X148600899Y-81677637D01*
X148540090Y-81398104D01*
X148440108Y-81130041D01*
X148303008Y-80878961D01*
X148303007Y-80878960D01*
X148196315Y-80736436D01*
X148196314Y-80736436D01*
X147550394Y-81382357D01*
X147489071Y-81415842D01*
X147419379Y-81410858D01*
X147372839Y-81380108D01*
X147238198Y-81238465D01*
X147238194Y-81238462D01*
X147211830Y-81220112D01*
X147168052Y-81165658D01*
X147160664Y-81096180D01*
X147192011Y-81033737D01*
X147194987Y-81030657D01*
X147842762Y-80382883D01*
X147842761Y-80382882D01*
X147700246Y-80276196D01*
X147700238Y-80276191D01*
X147481464Y-80156732D01*
X147432059Y-80107327D01*
X147417207Y-80039054D01*
X147441624Y-79973590D01*
X147497557Y-79931718D01*
X147540891Y-79923900D01*
X150428192Y-79923900D01*
X150495231Y-79943585D01*
X150515873Y-79960219D01*
X152702181Y-82146527D01*
X152735666Y-82207850D01*
X152738500Y-82234208D01*
X152738500Y-84147270D01*
X152738501Y-84147276D01*
X152744908Y-84206883D01*
X152795202Y-84341728D01*
X152795206Y-84341735D01*
X152881452Y-84456944D01*
X152881455Y-84456947D01*
X152996664Y-84543193D01*
X152996671Y-84543197D01*
X153131517Y-84593491D01*
X153131516Y-84593491D01*
X153138444Y-84594235D01*
X153191127Y-84599900D01*
X154636872Y-84599899D01*
X154696483Y-84593491D01*
X154831331Y-84543196D01*
X154946546Y-84456946D01*
X155032796Y-84341731D01*
X155083091Y-84206883D01*
X155089500Y-84147273D01*
X155089499Y-83174400D01*
X157839000Y-83174400D01*
X157839000Y-84147244D01*
X157845401Y-84206772D01*
X157845403Y-84206779D01*
X157895645Y-84341486D01*
X157895649Y-84341493D01*
X157981809Y-84456587D01*
X157981812Y-84456590D01*
X158096906Y-84542750D01*
X158096913Y-84542754D01*
X158231620Y-84592996D01*
X158231627Y-84592998D01*
X158291155Y-84599399D01*
X158291172Y-84599400D01*
X158764000Y-84599400D01*
X158764000Y-83174400D01*
X159264000Y-83174400D01*
X159264000Y-84599400D01*
X159736828Y-84599400D01*
X159736844Y-84599399D01*
X159796372Y-84592998D01*
X159796379Y-84592996D01*
X159931086Y-84542754D01*
X159931093Y-84542750D01*
X160046187Y-84456590D01*
X160046190Y-84456587D01*
X160132350Y-84341493D01*
X160132354Y-84341486D01*
X160182596Y-84206779D01*
X160182598Y-84206772D01*
X160188999Y-84147244D01*
X160189000Y-84147227D01*
X160189000Y-83174400D01*
X159264000Y-83174400D01*
X158764000Y-83174400D01*
X157839000Y-83174400D01*
X155089499Y-83174400D01*
X155089499Y-82674400D01*
X157839000Y-82674400D01*
X158764000Y-82674400D01*
X158764000Y-81249400D01*
X159264000Y-81249400D01*
X159264000Y-82674400D01*
X160189000Y-82674400D01*
X160189000Y-81701572D01*
X160188999Y-81701555D01*
X160182598Y-81642027D01*
X160182596Y-81642020D01*
X160132354Y-81507313D01*
X160132350Y-81507306D01*
X160046190Y-81392212D01*
X160046187Y-81392209D01*
X159931093Y-81306049D01*
X159931086Y-81306045D01*
X159796379Y-81255803D01*
X159796372Y-81255801D01*
X159736844Y-81249400D01*
X159264000Y-81249400D01*
X158764000Y-81249400D01*
X158291155Y-81249400D01*
X158231627Y-81255801D01*
X158231620Y-81255803D01*
X158096913Y-81306045D01*
X158096906Y-81306049D01*
X157981812Y-81392209D01*
X157981809Y-81392212D01*
X157895649Y-81507306D01*
X157895645Y-81507313D01*
X157845403Y-81642020D01*
X157845401Y-81642027D01*
X157839000Y-81701555D01*
X157839000Y-82674400D01*
X155089499Y-82674400D01*
X155089499Y-81701528D01*
X155083091Y-81641917D01*
X155062865Y-81587689D01*
X155032797Y-81507071D01*
X155032793Y-81507064D01*
X154946547Y-81391855D01*
X154946544Y-81391852D01*
X154831335Y-81305606D01*
X154831328Y-81305602D01*
X154696482Y-81255308D01*
X154696483Y-81255308D01*
X154636883Y-81248901D01*
X154636881Y-81248900D01*
X154636873Y-81248900D01*
X154636865Y-81248900D01*
X153695808Y-81248900D01*
X153628769Y-81229215D01*
X153608127Y-81212581D01*
X151570948Y-79175402D01*
X156919357Y-79175402D01*
X156927350Y-79271854D01*
X156927562Y-79276977D01*
X156927562Y-79289854D01*
X156926274Y-79294237D01*
X156926940Y-79302269D01*
X156929143Y-79308968D01*
X156931264Y-79321677D01*
X156931899Y-79326765D01*
X156939891Y-79423214D01*
X156939891Y-79423216D01*
X156963654Y-79517057D01*
X156964707Y-79522077D01*
X156966825Y-79534772D01*
X156966277Y-79539300D01*
X156968256Y-79547113D01*
X156971532Y-79553360D01*
X156975714Y-79565543D01*
X156977177Y-79570456D01*
X157000935Y-79664272D01*
X157000937Y-79664279D01*
X157027565Y-79724986D01*
X157039810Y-79752901D01*
X157041675Y-79757681D01*
X157045864Y-79769886D01*
X157046069Y-79774438D01*
X157049304Y-79781813D01*
X157053567Y-79787441D01*
X157059700Y-79798775D01*
X157061949Y-79803376D01*
X157099544Y-79889081D01*
X157100827Y-79892005D01*
X157121665Y-79923900D01*
X157153764Y-79973032D01*
X157156389Y-79977437D01*
X157162521Y-79988769D01*
X157163473Y-79993229D01*
X157167879Y-79999973D01*
X157173007Y-80004818D01*
X157176442Y-80009232D01*
X157180927Y-80014994D01*
X157183903Y-80019164D01*
X157214207Y-80065547D01*
X157236836Y-80100183D01*
X157236840Y-80100187D01*
X157302391Y-80171396D01*
X157305706Y-80175309D01*
X157313612Y-80185468D01*
X157315284Y-80189706D01*
X157320752Y-80195647D01*
X157326599Y-80199576D01*
X157336079Y-80208302D01*
X157339703Y-80211927D01*
X157405257Y-80283137D01*
X157481624Y-80342576D01*
X157485539Y-80345891D01*
X157495026Y-80354625D01*
X157497373Y-80358531D01*
X157503730Y-80363479D01*
X157510150Y-80366396D01*
X157520935Y-80373441D01*
X157525091Y-80376407D01*
X157601491Y-80435872D01*
X157686634Y-80481949D01*
X157691010Y-80484557D01*
X157701811Y-80491614D01*
X157704772Y-80495084D01*
X157711844Y-80498912D01*
X157718664Y-80500734D01*
X157730483Y-80505919D01*
X157735057Y-80508154D01*
X157820190Y-80554226D01*
X157911767Y-80585664D01*
X157916480Y-80587503D01*
X157928300Y-80592688D01*
X157931791Y-80595622D01*
X157939421Y-80598241D01*
X157946432Y-80598915D01*
X157954378Y-80600926D01*
X157958935Y-80602080D01*
X157963823Y-80603535D01*
X158029307Y-80626016D01*
X158055385Y-80634969D01*
X158150857Y-80650900D01*
X158155861Y-80651948D01*
X158168359Y-80655113D01*
X158172285Y-80657432D01*
X158180240Y-80658760D01*
X158187274Y-80658269D01*
X158200122Y-80659334D01*
X158205187Y-80659965D01*
X158300665Y-80675898D01*
X158300666Y-80675898D01*
X158397436Y-80675898D01*
X158402556Y-80676110D01*
X158414551Y-80677103D01*
X158415419Y-80677175D01*
X158419680Y-80678819D01*
X158427715Y-80678819D01*
X158434579Y-80677176D01*
X158447453Y-80676110D01*
X158452574Y-80675898D01*
X158549330Y-80675898D01*
X158549335Y-80675898D01*
X158644854Y-80659958D01*
X158649850Y-80659336D01*
X158662730Y-80658269D01*
X158667193Y-80659187D01*
X158675141Y-80657861D01*
X158681623Y-80655117D01*
X158694158Y-80651943D01*
X158699105Y-80650906D01*
X158794614Y-80634969D01*
X158886198Y-80603527D01*
X158891055Y-80602082D01*
X158903568Y-80598914D01*
X158908120Y-80599085D01*
X158915741Y-80596469D01*
X158921691Y-80592691D01*
X158933501Y-80587511D01*
X158938251Y-80585658D01*
X159029810Y-80554226D01*
X159114970Y-80508139D01*
X159119522Y-80505915D01*
X159131340Y-80500732D01*
X159135865Y-80500150D01*
X159142935Y-80496324D01*
X159148190Y-80491613D01*
X159158999Y-80484551D01*
X159163361Y-80481951D01*
X159248509Y-80435872D01*
X159324935Y-80376386D01*
X159329021Y-80373469D01*
X159339848Y-80366395D01*
X159344216Y-80365077D01*
X159350568Y-80360133D01*
X159354972Y-80354626D01*
X159364462Y-80345890D01*
X159368349Y-80342596D01*
X159444744Y-80283136D01*
X159510313Y-80211908D01*
X159513909Y-80208312D01*
X159523405Y-80199570D01*
X159527489Y-80197555D01*
X159532949Y-80191624D01*
X159536385Y-80185470D01*
X159544315Y-80175281D01*
X159547585Y-80171420D01*
X159613164Y-80100183D01*
X159666124Y-80019121D01*
X159669055Y-80015016D01*
X159677004Y-80004803D01*
X159680699Y-80002144D01*
X159685104Y-79995402D01*
X159687481Y-79988763D01*
X159693621Y-79977418D01*
X159696224Y-79973048D01*
X159749173Y-79892005D01*
X159788060Y-79803350D01*
X159790288Y-79798793D01*
X159796419Y-79787462D01*
X159799640Y-79784216D01*
X159802882Y-79776825D01*
X159804135Y-79769881D01*
X159808329Y-79757664D01*
X159810170Y-79752944D01*
X159849063Y-79664279D01*
X159872832Y-79570417D01*
X159874280Y-79565554D01*
X159878467Y-79553358D01*
X159881103Y-79549636D01*
X159883081Y-79541826D01*
X159883174Y-79534771D01*
X159885299Y-79522036D01*
X159886348Y-79517044D01*
X159910108Y-79423219D01*
X159918103Y-79326731D01*
X159918734Y-79321676D01*
X159923508Y-79293067D01*
X159922688Y-79287326D01*
X159923088Y-79267983D01*
X159923283Y-79264212D01*
X159929865Y-79184777D01*
X159930643Y-79175400D01*
X159930643Y-79175395D01*
X159929412Y-79160543D01*
X159923283Y-79086587D01*
X159923088Y-79082808D01*
X159922688Y-79063470D01*
X159923789Y-79059414D01*
X159921539Y-79045930D01*
X159918731Y-79029102D01*
X159918102Y-79024058D01*
X159910108Y-78927577D01*
X159886341Y-78833725D01*
X159885296Y-78828739D01*
X159883175Y-78816025D01*
X159883721Y-78811500D01*
X159881743Y-78803685D01*
X159878466Y-78797433D01*
X159874283Y-78785249D01*
X159872830Y-78780374D01*
X159849063Y-78686517D01*
X159847283Y-78682460D01*
X159826977Y-78636166D01*
X159810180Y-78597873D01*
X159808326Y-78593123D01*
X159804133Y-78580907D01*
X159803927Y-78576351D01*
X159800699Y-78568990D01*
X159796435Y-78563360D01*
X159790298Y-78552019D01*
X159788048Y-78547418D01*
X159755157Y-78472433D01*
X159749173Y-78458790D01*
X159696231Y-78377756D01*
X159693618Y-78373371D01*
X159687477Y-78362024D01*
X159686524Y-78357565D01*
X159682122Y-78350826D01*
X159676994Y-78345979D01*
X159669081Y-78335813D01*
X159666102Y-78331641D01*
X159647593Y-78303311D01*
X159613164Y-78250613D01*
X159607884Y-78244877D01*
X159547606Y-78179397D01*
X159544291Y-78175483D01*
X159536384Y-78165324D01*
X159534711Y-78161083D01*
X159529253Y-78155155D01*
X159523398Y-78151218D01*
X159513918Y-78142490D01*
X159510294Y-78138866D01*
X159496863Y-78124277D01*
X159444744Y-78067660D01*
X159423870Y-78051413D01*
X159368378Y-78008221D01*
X159364462Y-78004905D01*
X159354970Y-77996165D01*
X159352624Y-77992261D01*
X159346279Y-77987322D01*
X159339845Y-77984398D01*
X159329053Y-77977347D01*
X159324893Y-77974376D01*
X159311050Y-77963602D01*
X159248509Y-77914924D01*
X159248504Y-77914921D01*
X159248503Y-77914920D01*
X159199906Y-77888621D01*
X159163380Y-77868854D01*
X159158985Y-77866235D01*
X159148190Y-77859182D01*
X159145227Y-77855711D01*
X159138156Y-77851884D01*
X159131332Y-77850059D01*
X159119528Y-77844881D01*
X159114925Y-77842631D01*
X159029816Y-77796573D01*
X159029813Y-77796572D01*
X159029810Y-77796570D01*
X159029804Y-77796568D01*
X159029802Y-77796567D01*
X158938258Y-77765140D01*
X158933480Y-77763275D01*
X158921690Y-77758103D01*
X158918199Y-77755169D01*
X158910584Y-77752554D01*
X158903562Y-77751879D01*
X158899750Y-77750914D01*
X158891080Y-77748718D01*
X158886168Y-77747256D01*
X158794614Y-77715827D01*
X158699141Y-77699894D01*
X158694128Y-77698843D01*
X158681648Y-77695684D01*
X158677715Y-77693360D01*
X158669768Y-77692034D01*
X158662719Y-77692525D01*
X158649888Y-77691461D01*
X158644804Y-77690828D01*
X158549336Y-77674898D01*
X158549335Y-77674898D01*
X158452541Y-77674898D01*
X158447428Y-77674686D01*
X158436122Y-77673749D01*
X158434583Y-77673622D01*
X158430328Y-77671980D01*
X158422279Y-77671980D01*
X158415414Y-77673622D01*
X158405435Y-77674449D01*
X158405291Y-77674461D01*
X158402606Y-77674683D01*
X158397495Y-77674898D01*
X158300665Y-77674898D01*
X158205194Y-77690828D01*
X158200109Y-77691462D01*
X158187277Y-77692525D01*
X158182806Y-77691605D01*
X158174862Y-77692930D01*
X158168355Y-77695683D01*
X158155872Y-77698843D01*
X158150857Y-77699895D01*
X158055383Y-77715827D01*
X157963838Y-77747253D01*
X157958938Y-77748712D01*
X157949866Y-77751012D01*
X157946427Y-77751882D01*
X157941874Y-77751710D01*
X157934261Y-77754323D01*
X157928304Y-77758105D01*
X157916515Y-77763277D01*
X157911740Y-77765140D01*
X157820194Y-77796568D01*
X157820183Y-77796573D01*
X157735084Y-77842626D01*
X157730479Y-77844877D01*
X157718662Y-77850061D01*
X157714135Y-77850642D01*
X157707061Y-77854470D01*
X157701804Y-77859184D01*
X157691009Y-77866237D01*
X157686607Y-77868859D01*
X157601493Y-77914922D01*
X157601489Y-77914924D01*
X157525109Y-77974374D01*
X157520944Y-77977347D01*
X157513964Y-77981909D01*
X157510137Y-77984408D01*
X157505772Y-77985724D01*
X157499428Y-77990662D01*
X157495025Y-77996169D01*
X157485532Y-78004908D01*
X157481620Y-78008222D01*
X157405255Y-78067660D01*
X157339696Y-78138875D01*
X157336071Y-78142500D01*
X157326596Y-78151222D01*
X157322509Y-78153238D01*
X157317043Y-78159176D01*
X157313604Y-78165338D01*
X157305699Y-78175493D01*
X157302390Y-78179399D01*
X157236836Y-78250613D01*
X157183900Y-78331635D01*
X157180922Y-78335806D01*
X157173004Y-78345979D01*
X157169304Y-78348641D01*
X157164900Y-78355382D01*
X157162520Y-78362029D01*
X157156387Y-78373360D01*
X157153764Y-78377762D01*
X157100828Y-78458788D01*
X157061951Y-78547416D01*
X157059702Y-78552017D01*
X157053566Y-78563357D01*
X157050349Y-78566598D01*
X157047116Y-78573969D01*
X157045863Y-78580915D01*
X157041674Y-78593115D01*
X157039811Y-78597891D01*
X157013230Y-78658492D01*
X157000938Y-78686516D01*
X157000936Y-78686520D01*
X156977177Y-78780338D01*
X156975715Y-78785249D01*
X156971533Y-78797431D01*
X156968896Y-78801153D01*
X156966917Y-78808968D01*
X156966825Y-78816020D01*
X156964707Y-78828717D01*
X156963654Y-78833737D01*
X156939891Y-78927576D01*
X156939891Y-78927581D01*
X156931899Y-79024029D01*
X156931264Y-79029117D01*
X156929143Y-79041826D01*
X156927156Y-79045928D01*
X156926490Y-79053961D01*
X156927562Y-79060940D01*
X156927562Y-79073817D01*
X156927350Y-79078940D01*
X156919357Y-79175392D01*
X156919357Y-79175402D01*
X151570948Y-79175402D01*
X151269434Y-78873888D01*
X151259361Y-78861314D01*
X151259174Y-78861470D01*
X151254201Y-78855459D01*
X151201756Y-78806210D01*
X151180035Y-78784489D01*
X151174694Y-78780346D01*
X151174235Y-78779989D01*
X151169798Y-78776199D01*
X151134396Y-78742954D01*
X151134388Y-78742948D01*
X151115792Y-78732725D01*
X151099531Y-78722044D01*
X151082763Y-78709037D01*
X151059180Y-78698832D01*
X151038178Y-78689743D01*
X151032956Y-78687186D01*
X150990368Y-78663773D01*
X150990365Y-78663772D01*
X150969801Y-78658492D01*
X150951396Y-78652190D01*
X150931927Y-78643765D01*
X150931921Y-78643763D01*
X150883951Y-78636166D01*
X150878236Y-78634982D01*
X150861772Y-78630755D01*
X150831180Y-78622900D01*
X150831177Y-78622900D01*
X150809955Y-78622900D01*
X150790555Y-78621373D01*
X150769596Y-78618053D01*
X150769595Y-78618053D01*
X150745786Y-78620303D01*
X150721230Y-78622625D01*
X150715392Y-78622900D01*
X141944504Y-78622900D01*
X141928493Y-78621132D01*
X141928471Y-78621374D01*
X141920704Y-78620640D01*
X141920703Y-78620640D01*
X141848796Y-78622900D01*
X141818075Y-78622900D01*
X141818071Y-78622900D01*
X141818061Y-78622901D01*
X141810793Y-78623819D01*
X141804976Y-78624276D01*
X141756435Y-78625802D01*
X141756424Y-78625804D01*
X141736048Y-78631723D01*
X141717008Y-78635666D01*
X141695947Y-78638327D01*
X141695939Y-78638329D01*
X141650775Y-78656211D01*
X141645247Y-78658103D01*
X141598602Y-78671655D01*
X141580332Y-78682460D01*
X141562863Y-78691018D01*
X141543128Y-78698832D01*
X141543126Y-78698833D01*
X141503839Y-78727377D01*
X141498956Y-78730584D01*
X141457132Y-78755319D01*
X141442126Y-78770326D01*
X141427336Y-78782958D01*
X141410167Y-78795432D01*
X141410165Y-78795434D01*
X141379194Y-78832870D01*
X141375262Y-78837191D01*
X138818871Y-81393581D01*
X138757548Y-81427066D01*
X138731190Y-81429900D01*
X138156998Y-81429900D01*
X138156980Y-81429901D01*
X138054203Y-81440400D01*
X138054200Y-81440401D01*
X137887668Y-81495585D01*
X137887663Y-81495587D01*
X137738342Y-81587689D01*
X137614289Y-81711742D01*
X137522187Y-81861063D01*
X137522185Y-81861068D01*
X137522115Y-81861280D01*
X137467001Y-82027603D01*
X137467001Y-82027604D01*
X137467000Y-82027604D01*
X137456500Y-82130383D01*
X137456500Y-83930401D01*
X137456501Y-83930418D01*
X137467000Y-84033196D01*
X137467001Y-84033199D01*
X137522185Y-84199731D01*
X137522187Y-84199736D01*
X137530457Y-84213143D01*
X137614288Y-84349056D01*
X137738344Y-84473112D01*
X137847597Y-84540499D01*
X137894321Y-84592447D01*
X137906500Y-84646038D01*
X137906500Y-85004494D01*
X137904732Y-85020505D01*
X137904974Y-85020528D01*
X137904240Y-85028294D01*
X137906500Y-85100203D01*
X137906500Y-85130920D01*
X137906501Y-85130940D01*
X137907418Y-85138206D01*
X137907876Y-85144024D01*
X137909402Y-85192567D01*
X137909403Y-85192570D01*
X137915323Y-85212948D01*
X137919268Y-85231996D01*
X137921928Y-85253054D01*
X137921931Y-85253064D01*
X137939813Y-85298230D01*
X137941705Y-85303758D01*
X137955254Y-85350395D01*
X137955255Y-85350397D01*
X137966060Y-85368666D01*
X137974617Y-85386134D01*
X137982432Y-85405871D01*
X138002154Y-85433017D01*
X138025632Y-85498824D01*
X138009805Y-85566877D01*
X137959698Y-85615571D01*
X137901834Y-85629900D01*
X133576980Y-85629900D01*
X133474198Y-85640401D01*
X133307666Y-85695584D01*
X133307655Y-85695589D01*
X133158346Y-85787685D01*
X133158342Y-85787688D01*
X133034288Y-85911742D01*
X133034285Y-85911746D01*
X132942189Y-86061055D01*
X132942184Y-86061066D01*
X132887001Y-86227598D01*
X132876500Y-86330380D01*
X132876500Y-92330419D01*
X132887001Y-92433201D01*
X132942184Y-92599733D01*
X132942189Y-92599744D01*
X133034285Y-92749053D01*
X133034288Y-92749057D01*
X133158342Y-92873111D01*
X133158346Y-92873114D01*
X133307655Y-92965210D01*
X133307658Y-92965211D01*
X133307664Y-92965215D01*
X133474200Y-93020399D01*
X133576988Y-93030900D01*
X133576991Y-93030900D01*
X133576993Y-93030900D01*
X138977007Y-93030900D01*
X138977012Y-93030900D01*
X139079800Y-93020399D01*
X139246336Y-92965215D01*
X139395657Y-92873112D01*
X139481550Y-92787219D01*
X139542873Y-92753734D01*
X139569231Y-92750900D01*
X140055126Y-92750900D01*
X140122165Y-92770585D01*
X140142807Y-92787219D01*
X140266955Y-92911367D01*
X140266959Y-92911370D01*
X140411294Y-93000398D01*
X140411297Y-93000399D01*
X140411303Y-93000403D01*
X140572292Y-93053749D01*
X140671655Y-93063900D01*
X141268344Y-93063899D01*
X141268352Y-93063898D01*
X141268355Y-93063898D01*
X141322760Y-93058340D01*
X141367708Y-93053749D01*
X141528697Y-93000403D01*
X141673044Y-92911368D01*
X141792968Y-92791444D01*
X141792968Y-92791443D01*
X141797193Y-92787219D01*
X141858516Y-92753734D01*
X141884874Y-92750900D01*
X148827992Y-92750900D01*
X148895031Y-92770585D01*
X148915673Y-92787219D01*
X150812764Y-94684310D01*
X150822835Y-94696880D01*
X150823022Y-94696726D01*
X150827995Y-94702737D01*
X150857568Y-94730508D01*
X150892963Y-94790750D01*
X150890169Y-94860564D01*
X150850075Y-94917784D01*
X150785410Y-94944245D01*
X150772684Y-94944900D01*
X150118129Y-94944900D01*
X150118123Y-94944901D01*
X150058516Y-94951308D01*
X149923671Y-95001602D01*
X149923664Y-95001606D01*
X149808455Y-95087852D01*
X149803681Y-95092627D01*
X149742358Y-95126112D01*
X149672666Y-95121128D01*
X149628319Y-95092627D01*
X149623544Y-95087852D01*
X149508335Y-95001606D01*
X149508328Y-95001602D01*
X149373482Y-94951308D01*
X149373483Y-94951308D01*
X149313883Y-94944901D01*
X149313881Y-94944900D01*
X149313873Y-94944900D01*
X149313864Y-94944900D01*
X148118129Y-94944900D01*
X148118123Y-94944901D01*
X148058516Y-94951308D01*
X147923671Y-95001602D01*
X147923664Y-95001606D01*
X147808455Y-95087852D01*
X147803681Y-95092627D01*
X147742358Y-95126112D01*
X147672666Y-95121128D01*
X147628319Y-95092627D01*
X147623544Y-95087852D01*
X147508335Y-95001606D01*
X147508328Y-95001602D01*
X147373482Y-94951308D01*
X147373483Y-94951308D01*
X147313883Y-94944901D01*
X147313881Y-94944900D01*
X147313873Y-94944900D01*
X147313864Y-94944900D01*
X146118129Y-94944900D01*
X146118123Y-94944901D01*
X146058516Y-94951308D01*
X145923671Y-95001602D01*
X145923664Y-95001606D01*
X145808455Y-95087852D01*
X145803681Y-95092627D01*
X145742358Y-95126112D01*
X145672666Y-95121128D01*
X145628319Y-95092627D01*
X145623544Y-95087852D01*
X145508335Y-95001606D01*
X145508328Y-95001602D01*
X145373482Y-94951308D01*
X145373483Y-94951308D01*
X145313883Y-94944901D01*
X145313881Y-94944900D01*
X145313873Y-94944900D01*
X145313864Y-94944900D01*
X144118129Y-94944900D01*
X144118123Y-94944901D01*
X144058516Y-94951308D01*
X143923671Y-95001602D01*
X143923664Y-95001606D01*
X143808455Y-95087852D01*
X143803681Y-95092627D01*
X143742358Y-95126112D01*
X143672666Y-95121128D01*
X143628319Y-95092627D01*
X143623544Y-95087852D01*
X143508335Y-95001606D01*
X143508328Y-95001602D01*
X143373482Y-94951308D01*
X143373483Y-94951308D01*
X143313883Y-94944901D01*
X143313881Y-94944900D01*
X143313873Y-94944900D01*
X143313864Y-94944900D01*
X142118129Y-94944900D01*
X142118123Y-94944901D01*
X142058516Y-94951308D01*
X141923671Y-95001602D01*
X141923664Y-95001606D01*
X141808455Y-95087852D01*
X141803681Y-95092627D01*
X141742358Y-95126112D01*
X141672666Y-95121128D01*
X141628319Y-95092627D01*
X141623544Y-95087852D01*
X141508335Y-95001606D01*
X141508328Y-95001602D01*
X141373482Y-94951308D01*
X141373483Y-94951308D01*
X141313883Y-94944901D01*
X141313881Y-94944900D01*
X141313873Y-94944900D01*
X141313864Y-94944900D01*
X140118129Y-94944900D01*
X140118123Y-94944901D01*
X140058516Y-94951308D01*
X139923671Y-95001602D01*
X139923664Y-95001606D01*
X139808455Y-95087852D01*
X139808452Y-95087855D01*
X139722206Y-95203064D01*
X139722202Y-95203071D01*
X139671908Y-95337917D01*
X139665501Y-95397516D01*
X139665501Y-95397523D01*
X139665500Y-95397535D01*
X139665500Y-97693270D01*
X139665501Y-97693276D01*
X139671908Y-97752883D01*
X139722202Y-97887728D01*
X139722206Y-97887735D01*
X139808452Y-98002944D01*
X139808455Y-98002947D01*
X139923664Y-98089193D01*
X139923671Y-98089197D01*
X140058517Y-98139491D01*
X140058516Y-98139491D01*
X140065444Y-98140235D01*
X140118127Y-98145900D01*
X141313872Y-98145899D01*
X141373483Y-98139491D01*
X141508331Y-98089196D01*
X141623546Y-98002946D01*
X141623548Y-98002942D01*
X141628319Y-97998173D01*
X141689642Y-97964688D01*
X141759334Y-97969672D01*
X141803681Y-97998173D01*
X141808455Y-98002947D01*
X141923664Y-98089193D01*
X141923671Y-98089197D01*
X141968618Y-98105960D01*
X142058517Y-98139491D01*
X142118127Y-98145900D01*
X142446192Y-98145899D01*
X142513230Y-98165583D01*
X142558985Y-98218387D01*
X142568929Y-98287546D01*
X142539904Y-98351101D01*
X142533872Y-98357580D01*
X138889840Y-102001611D01*
X138828517Y-102035096D01*
X138758825Y-102030112D01*
X138702892Y-101988240D01*
X138678475Y-101922776D01*
X138678160Y-101914259D01*
X138658600Y-93522800D01*
X132077500Y-93522800D01*
X132010461Y-93503115D01*
X131964706Y-93450311D01*
X131953500Y-93398800D01*
X131953500Y-83280400D01*
X132897001Y-83280400D01*
X132897001Y-83930386D01*
X132907494Y-84033097D01*
X132962641Y-84199519D01*
X132962643Y-84199524D01*
X133054684Y-84348745D01*
X133178654Y-84472715D01*
X133327875Y-84564756D01*
X133327880Y-84564758D01*
X133494302Y-84619905D01*
X133494309Y-84619906D01*
X133597019Y-84630399D01*
X133746999Y-84630399D01*
X133747000Y-84630398D01*
X133747000Y-83280400D01*
X134247000Y-83280400D01*
X134247000Y-84630399D01*
X134396972Y-84630399D01*
X134396986Y-84630398D01*
X134499697Y-84619905D01*
X134666119Y-84564758D01*
X134666124Y-84564756D01*
X134815345Y-84472715D01*
X134939315Y-84348745D01*
X135031356Y-84199524D01*
X135031358Y-84199519D01*
X135086505Y-84033097D01*
X135086506Y-84033090D01*
X135096999Y-83930386D01*
X135097000Y-83930373D01*
X135097000Y-83280400D01*
X134247000Y-83280400D01*
X133747000Y-83280400D01*
X132897001Y-83280400D01*
X131953500Y-83280400D01*
X131953500Y-82780400D01*
X132897000Y-82780400D01*
X133747000Y-82780400D01*
X133747000Y-81430400D01*
X134247000Y-81430400D01*
X134247000Y-82780400D01*
X135096999Y-82780400D01*
X135096999Y-82130428D01*
X135096998Y-82130413D01*
X135086505Y-82027702D01*
X135031358Y-81861280D01*
X135031356Y-81861275D01*
X134939315Y-81712054D01*
X134815345Y-81588084D01*
X134666124Y-81496043D01*
X134666119Y-81496041D01*
X134499697Y-81440894D01*
X134499690Y-81440893D01*
X134396986Y-81430400D01*
X134247000Y-81430400D01*
X133747000Y-81430400D01*
X133597027Y-81430400D01*
X133597012Y-81430401D01*
X133494302Y-81440894D01*
X133327880Y-81496041D01*
X133327875Y-81496043D01*
X133178654Y-81588084D01*
X133054684Y-81712054D01*
X132962643Y-81861275D01*
X132962641Y-81861280D01*
X132907494Y-82027702D01*
X132907493Y-82027709D01*
X132897000Y-82130413D01*
X132897000Y-82780400D01*
X131953500Y-82780400D01*
X131953500Y-79176926D01*
X131953538Y-79175400D01*
X133947355Y-79175400D01*
X133947722Y-79179835D01*
X133955347Y-79271870D01*
X133955559Y-79276991D01*
X133955559Y-79289856D01*
X133954272Y-79294236D01*
X133954938Y-79302271D01*
X133957141Y-79308970D01*
X133959262Y-79321679D01*
X133959897Y-79326767D01*
X133967889Y-79423216D01*
X133967889Y-79423218D01*
X133991652Y-79517059D01*
X133992704Y-79522075D01*
X133992704Y-79522077D01*
X133992705Y-79522079D01*
X133994823Y-79534774D01*
X133994275Y-79539302D01*
X133996254Y-79547115D01*
X133999530Y-79553362D01*
X134003712Y-79565545D01*
X134005175Y-79570458D01*
X134028933Y-79664274D01*
X134028935Y-79664281D01*
X134055563Y-79724988D01*
X134067808Y-79752903D01*
X134069673Y-79757683D01*
X134073862Y-79769888D01*
X134074067Y-79774440D01*
X134077302Y-79781815D01*
X134081565Y-79787443D01*
X134087698Y-79798777D01*
X134089947Y-79803378D01*
X134128824Y-79892005D01*
X134181762Y-79973034D01*
X134184387Y-79977439D01*
X134190519Y-79988771D01*
X134191471Y-79993231D01*
X134195877Y-79999975D01*
X134201007Y-80004822D01*
X134208925Y-80014996D01*
X134211901Y-80019166D01*
X134262369Y-80096412D01*
X134264834Y-80100185D01*
X134271409Y-80107327D01*
X134330389Y-80171398D01*
X134333704Y-80175311D01*
X134341610Y-80185470D01*
X134343282Y-80189708D01*
X134348750Y-80195649D01*
X134354597Y-80199578D01*
X134364077Y-80208304D01*
X134367701Y-80211929D01*
X134433255Y-80283139D01*
X134509622Y-80342578D01*
X134513537Y-80345893D01*
X134523024Y-80354627D01*
X134525371Y-80358533D01*
X134531728Y-80363481D01*
X134538148Y-80366398D01*
X134548933Y-80373443D01*
X134553089Y-80376409D01*
X134622879Y-80430729D01*
X134629482Y-80435869D01*
X134629489Y-80435874D01*
X134714632Y-80481951D01*
X134719008Y-80484559D01*
X134729809Y-80491616D01*
X134732770Y-80495086D01*
X134739842Y-80498914D01*
X134746662Y-80500736D01*
X134758481Y-80505921D01*
X134763055Y-80508156D01*
X134848188Y-80554228D01*
X134939765Y-80585666D01*
X134944478Y-80587505D01*
X134956298Y-80592690D01*
X134959789Y-80595624D01*
X134967419Y-80598243D01*
X134974430Y-80598917D01*
X134982376Y-80600928D01*
X134986933Y-80602082D01*
X134991821Y-80603537D01*
X135057305Y-80626018D01*
X135083383Y-80634971D01*
X135178855Y-80650902D01*
X135183859Y-80651950D01*
X135196357Y-80655115D01*
X135200283Y-80657434D01*
X135208238Y-80658762D01*
X135215272Y-80658271D01*
X135228120Y-80659336D01*
X135233185Y-80659967D01*
X135328663Y-80675900D01*
X135328664Y-80675900D01*
X135425434Y-80675900D01*
X135430554Y-80676112D01*
X135442549Y-80677105D01*
X135443417Y-80677177D01*
X135447678Y-80678821D01*
X135455713Y-80678821D01*
X135462577Y-80677178D01*
X135475451Y-80676112D01*
X135480572Y-80675900D01*
X135577328Y-80675900D01*
X135577333Y-80675900D01*
X135672852Y-80659960D01*
X135677848Y-80659338D01*
X135690728Y-80658271D01*
X135695191Y-80659189D01*
X135703139Y-80657863D01*
X135709621Y-80655119D01*
X135722156Y-80651945D01*
X135727103Y-80650908D01*
X135822612Y-80634971D01*
X135914196Y-80603529D01*
X135919053Y-80602084D01*
X135931566Y-80598916D01*
X135936118Y-80599087D01*
X135943739Y-80596471D01*
X135949689Y-80592693D01*
X135961499Y-80587513D01*
X135966249Y-80585660D01*
X136057808Y-80554228D01*
X136142968Y-80508141D01*
X136147520Y-80505917D01*
X136159338Y-80500734D01*
X136163863Y-80500152D01*
X136170933Y-80496326D01*
X136176188Y-80491615D01*
X136186997Y-80484553D01*
X136191359Y-80481953D01*
X136276507Y-80435874D01*
X136352935Y-80376386D01*
X136357023Y-80373468D01*
X136367854Y-80366393D01*
X136372219Y-80365076D01*
X136378566Y-80360135D01*
X136382970Y-80354628D01*
X136392460Y-80345892D01*
X136396347Y-80342598D01*
X136472742Y-80283138D01*
X136538311Y-80211910D01*
X136541907Y-80208314D01*
X136551403Y-80199572D01*
X136555487Y-80197557D01*
X136560947Y-80191626D01*
X136564382Y-80185473D01*
X136572313Y-80175283D01*
X136575583Y-80171422D01*
X136641162Y-80100185D01*
X136694122Y-80019123D01*
X136697053Y-80015018D01*
X136705002Y-80004805D01*
X136708697Y-80002146D01*
X136713102Y-79995404D01*
X136715479Y-79988765D01*
X136721620Y-79977419D01*
X136724222Y-79973050D01*
X136777171Y-79892007D01*
X136816066Y-79803333D01*
X136818297Y-79798775D01*
X136824419Y-79787462D01*
X136827639Y-79784216D01*
X136830882Y-79776822D01*
X136832136Y-79769873D01*
X136836332Y-79757652D01*
X136838166Y-79752950D01*
X136877061Y-79664281D01*
X136877063Y-79664276D01*
X136880629Y-79650187D01*
X136900830Y-79570419D01*
X136902278Y-79565556D01*
X136906465Y-79553360D01*
X136909101Y-79549638D01*
X136911079Y-79541828D01*
X136911173Y-79534772D01*
X136913297Y-79522038D01*
X136914343Y-79517057D01*
X136938106Y-79423221D01*
X136946101Y-79326733D01*
X136946732Y-79321678D01*
X136951506Y-79293069D01*
X136950686Y-79287328D01*
X136951086Y-79267985D01*
X136951281Y-79264214D01*
X136958641Y-79175400D01*
X136958640Y-79175392D01*
X136957410Y-79160545D01*
X136951281Y-79086589D01*
X136951086Y-79082810D01*
X136950686Y-79063472D01*
X136951787Y-79059416D01*
X136950436Y-79051319D01*
X136946729Y-79029104D01*
X136946100Y-79024060D01*
X136938106Y-78927579D01*
X136914339Y-78833727D01*
X136913293Y-78828734D01*
X136913290Y-78828719D01*
X136911173Y-78816026D01*
X136911719Y-78811502D01*
X136909741Y-78803687D01*
X136906464Y-78797437D01*
X136902281Y-78785251D01*
X136900828Y-78780376D01*
X136877061Y-78686519D01*
X136870541Y-78671656D01*
X136850428Y-78625802D01*
X136838178Y-78597875D01*
X136836324Y-78593125D01*
X136832131Y-78580909D01*
X136831925Y-78576353D01*
X136828697Y-78568992D01*
X136824433Y-78563362D01*
X136818296Y-78552021D01*
X136816050Y-78547429D01*
X136777171Y-78458793D01*
X136777171Y-78458792D01*
X136724229Y-78377758D01*
X136721616Y-78373373D01*
X136715475Y-78362026D01*
X136714522Y-78357567D01*
X136710120Y-78350828D01*
X136704992Y-78345981D01*
X136697079Y-78335815D01*
X136694100Y-78331643D01*
X136643627Y-78254388D01*
X136641162Y-78250615D01*
X136635882Y-78244879D01*
X136575604Y-78179399D01*
X136572289Y-78175485D01*
X136564382Y-78165326D01*
X136562709Y-78161085D01*
X136557251Y-78155157D01*
X136551396Y-78151220D01*
X136541916Y-78142492D01*
X136538292Y-78138868D01*
X136524861Y-78124279D01*
X136472742Y-78067662D01*
X136451868Y-78051415D01*
X136396376Y-78008223D01*
X136392460Y-78004907D01*
X136382968Y-77996167D01*
X136380622Y-77992263D01*
X136374277Y-77987324D01*
X136367843Y-77984400D01*
X136367840Y-77984398D01*
X136357053Y-77977350D01*
X136352891Y-77974378D01*
X136339046Y-77963602D01*
X136276507Y-77914926D01*
X136276502Y-77914923D01*
X136276501Y-77914922D01*
X136227904Y-77888623D01*
X136191378Y-77868856D01*
X136186983Y-77866237D01*
X136176188Y-77859184D01*
X136173225Y-77855713D01*
X136166154Y-77851886D01*
X136159330Y-77850061D01*
X136147526Y-77844883D01*
X136142923Y-77842633D01*
X136057814Y-77796575D01*
X136057811Y-77796574D01*
X136057808Y-77796572D01*
X136057802Y-77796570D01*
X136057800Y-77796569D01*
X135966256Y-77765142D01*
X135961478Y-77763277D01*
X135949688Y-77758105D01*
X135946197Y-77755171D01*
X135938582Y-77752556D01*
X135931560Y-77751881D01*
X135927748Y-77750916D01*
X135919078Y-77748720D01*
X135914166Y-77747258D01*
X135822612Y-77715829D01*
X135727139Y-77699896D01*
X135722126Y-77698845D01*
X135709646Y-77695686D01*
X135705713Y-77693362D01*
X135697766Y-77692036D01*
X135690717Y-77692527D01*
X135677886Y-77691463D01*
X135672802Y-77690830D01*
X135577334Y-77674900D01*
X135577333Y-77674900D01*
X135480525Y-77674900D01*
X135475419Y-77674687D01*
X135463962Y-77673738D01*
X135462581Y-77673624D01*
X135458326Y-77671982D01*
X135450277Y-77671982D01*
X135443412Y-77673624D01*
X135433433Y-77674451D01*
X135433289Y-77674463D01*
X135430604Y-77674685D01*
X135425493Y-77674900D01*
X135328663Y-77674900D01*
X135233192Y-77690830D01*
X135228107Y-77691464D01*
X135215275Y-77692527D01*
X135210804Y-77691607D01*
X135202860Y-77692932D01*
X135196353Y-77695685D01*
X135183870Y-77698845D01*
X135178855Y-77699897D01*
X135083381Y-77715829D01*
X134991833Y-77747256D01*
X134986927Y-77748717D01*
X134974448Y-77751878D01*
X134969888Y-77751707D01*
X134962259Y-77754325D01*
X134956302Y-77758107D01*
X134944513Y-77763279D01*
X134939738Y-77765142D01*
X134848192Y-77796570D01*
X134848181Y-77796575D01*
X134763082Y-77842628D01*
X134758477Y-77844879D01*
X134746660Y-77850063D01*
X134742133Y-77850644D01*
X134735059Y-77854472D01*
X134729802Y-77859186D01*
X134719007Y-77866239D01*
X134714605Y-77868861D01*
X134629491Y-77914924D01*
X134629487Y-77914926D01*
X134553106Y-77974376D01*
X134548942Y-77977350D01*
X134541965Y-77981909D01*
X134538136Y-77984410D01*
X134533769Y-77985727D01*
X134527426Y-77990664D01*
X134523023Y-77996171D01*
X134513530Y-78004910D01*
X134509618Y-78008224D01*
X134433253Y-78067662D01*
X134367694Y-78138877D01*
X134364069Y-78142502D01*
X134354594Y-78151224D01*
X134350507Y-78153240D01*
X134345041Y-78159178D01*
X134341602Y-78165340D01*
X134333697Y-78175495D01*
X134330388Y-78179401D01*
X134264834Y-78250614D01*
X134211901Y-78331634D01*
X134208928Y-78335798D01*
X134201093Y-78345867D01*
X134200850Y-78346178D01*
X134197208Y-78348787D01*
X134192898Y-78355384D01*
X134190518Y-78362031D01*
X134184385Y-78373362D01*
X134181762Y-78377764D01*
X134128826Y-78458790D01*
X134089949Y-78547418D01*
X134087700Y-78552019D01*
X134081564Y-78563359D01*
X134078347Y-78566600D01*
X134075114Y-78573971D01*
X134073861Y-78580917D01*
X134069672Y-78593117D01*
X134067809Y-78597893D01*
X134043203Y-78653992D01*
X134028937Y-78686516D01*
X134028934Y-78686522D01*
X134005175Y-78780340D01*
X134003713Y-78785251D01*
X133999531Y-78797433D01*
X133996894Y-78801155D01*
X133994915Y-78808970D01*
X133994823Y-78816022D01*
X133992705Y-78828719D01*
X133991652Y-78833739D01*
X133967889Y-78927578D01*
X133967889Y-78927583D01*
X133959897Y-79024031D01*
X133959262Y-79029119D01*
X133957141Y-79041828D01*
X133955154Y-79045930D01*
X133954488Y-79053966D01*
X133955559Y-79060942D01*
X133955559Y-79073807D01*
X133955347Y-79078928D01*
X133947484Y-79173846D01*
X133947355Y-79175400D01*
X131953538Y-79175400D01*
X131953575Y-79173884D01*
X131960975Y-79023238D01*
X131965164Y-78943313D01*
X131971167Y-78828768D01*
X131971747Y-78822973D01*
X131996825Y-78653917D01*
X132024721Y-78477785D01*
X132025809Y-78472451D01*
X132068183Y-78303284D01*
X132113534Y-78134033D01*
X132115025Y-78129258D01*
X132174304Y-77963584D01*
X132236683Y-77801084D01*
X132238493Y-77796852D01*
X132314099Y-77636999D01*
X132327232Y-77611222D01*
X132392901Y-77482338D01*
X132394916Y-77478698D01*
X132486155Y-77326475D01*
X132580587Y-77181063D01*
X132582741Y-77177963D01*
X132688695Y-77035101D01*
X132797817Y-76900347D01*
X132799986Y-76897817D01*
X132918675Y-76766864D01*
X132920687Y-76764751D01*
X133042351Y-76643087D01*
X133044464Y-76641075D01*
X133175417Y-76522386D01*
X133177947Y-76520217D01*
X133312687Y-76411106D01*
X133455563Y-76305141D01*
X133458663Y-76302987D01*
X133604072Y-76208557D01*
X133756298Y-76117316D01*
X133759938Y-76115301D01*
X133888822Y-76049632D01*
X133914599Y-76036499D01*
X133976611Y-76007169D01*
X134074452Y-75960893D01*
X134078684Y-75959083D01*
X134241184Y-75896704D01*
X134406858Y-75837425D01*
X134411633Y-75835934D01*
X134580889Y-75790581D01*
X134750051Y-75748209D01*
X134755385Y-75747121D01*
X134931518Y-75719224D01*
X135100575Y-75694147D01*
X135106368Y-75693567D01*
X135300800Y-75683377D01*
X135394224Y-75678787D01*
X135451446Y-75675977D01*
X135454488Y-75675902D01*
X135504845Y-75675902D01*
X135504864Y-75675900D01*
X158423512Y-75675900D01*
X158426554Y-75675975D01*
G37*
%TD.AperFunction*%
%TA.AperFunction,Conductor*%
G36*
X141759334Y-113769672D02*
G01*
X141803681Y-113798173D01*
X141808455Y-113802947D01*
X141923664Y-113889193D01*
X141923671Y-113889197D01*
X141968302Y-113905843D01*
X142058517Y-113939491D01*
X142118127Y-113945900D01*
X142794191Y-113945899D01*
X142861230Y-113965583D01*
X142881872Y-113982218D01*
X143433472Y-114533818D01*
X143466957Y-114595141D01*
X143461973Y-114664833D01*
X143445060Y-114695807D01*
X143427543Y-114719208D01*
X143371610Y-114761081D01*
X143328274Y-114768900D01*
X141968105Y-114768900D01*
X141952094Y-114767132D01*
X141952072Y-114767374D01*
X141944305Y-114766640D01*
X141944304Y-114766640D01*
X141872397Y-114768900D01*
X141841675Y-114768900D01*
X141841671Y-114768900D01*
X141841661Y-114768901D01*
X141834393Y-114769819D01*
X141828576Y-114770276D01*
X141780036Y-114771802D01*
X141780025Y-114771804D01*
X141759649Y-114777723D01*
X141740608Y-114781666D01*
X141719553Y-114784326D01*
X141719537Y-114784330D01*
X141674371Y-114802212D01*
X141668844Y-114804104D01*
X141622199Y-114817656D01*
X141603927Y-114828462D01*
X141586461Y-114837019D01*
X141566728Y-114844832D01*
X141527430Y-114873383D01*
X141522553Y-114876586D01*
X141508881Y-114884672D01*
X141480732Y-114901320D01*
X141465726Y-114916326D01*
X141450936Y-114928958D01*
X141433767Y-114941432D01*
X141428081Y-114946773D01*
X141426057Y-114944618D01*
X141379646Y-114975954D01*
X141342022Y-114981800D01*
X140458000Y-114981800D01*
X140458000Y-115681800D01*
X140491445Y-115715245D01*
X140524930Y-115776568D01*
X140519946Y-115846260D01*
X140491445Y-115890607D01*
X139808483Y-116573569D01*
X139795910Y-116583643D01*
X139796065Y-116583830D01*
X139790059Y-116588798D01*
X139765434Y-116615020D01*
X139740809Y-116641244D01*
X139729949Y-116652104D01*
X139719088Y-116662965D01*
X139719078Y-116662977D01*
X139714587Y-116668765D01*
X139710801Y-116673197D01*
X139677552Y-116708606D01*
X139667322Y-116727213D01*
X139656646Y-116743464D01*
X139643640Y-116760232D01*
X139643636Y-116760238D01*
X139624348Y-116804811D01*
X139621777Y-116810058D01*
X139598372Y-116852630D01*
X139598372Y-116852631D01*
X139593091Y-116873199D01*
X139586791Y-116891601D01*
X139578364Y-116911073D01*
X139570766Y-116959047D01*
X139569581Y-116964770D01*
X139557500Y-117011818D01*
X139557500Y-117014592D01*
X139556886Y-117016681D01*
X139556523Y-117019559D01*
X139556058Y-117019500D01*
X139537815Y-117081631D01*
X139485011Y-117127386D01*
X139415853Y-117137330D01*
X139352297Y-117108305D01*
X139345819Y-117102273D01*
X138806818Y-116563272D01*
X138773333Y-116501949D01*
X138770499Y-116475591D01*
X138770499Y-116467208D01*
X138790184Y-116400169D01*
X138806818Y-116379527D01*
X139043853Y-116142492D01*
X139286713Y-115899631D01*
X139299279Y-115889565D01*
X139299125Y-115889378D01*
X139305137Y-115884404D01*
X139305137Y-115884403D01*
X139305140Y-115884402D01*
X139354390Y-115831955D01*
X139376111Y-115810235D01*
X139380601Y-115804445D01*
X139384383Y-115800015D01*
X139417648Y-115764593D01*
X139427832Y-115746066D01*
X139477375Y-115696801D01*
X139536496Y-115681800D01*
X139958000Y-115681800D01*
X139958000Y-114605800D01*
X139977685Y-114538761D01*
X140030489Y-114493006D01*
X140082000Y-114481800D01*
X141558000Y-114481800D01*
X141558000Y-114233972D01*
X141557999Y-114233955D01*
X141551598Y-114174427D01*
X141551596Y-114174420D01*
X141501354Y-114039713D01*
X141497103Y-114031928D01*
X141500148Y-114030264D01*
X141481546Y-113980450D01*
X141496371Y-113912171D01*
X141530913Y-113872290D01*
X141623546Y-113802946D01*
X141623548Y-113802942D01*
X141628319Y-113798173D01*
X141689642Y-113764688D01*
X141759334Y-113769672D01*
G37*
%TD.AperFunction*%
%TA.AperFunction,Conductor*%
G36*
X151759334Y-97969672D02*
G01*
X151803681Y-97998173D01*
X151808455Y-98002947D01*
X151923664Y-98089193D01*
X151923671Y-98089197D01*
X151968618Y-98105960D01*
X152058517Y-98139491D01*
X152118127Y-98145900D01*
X152173191Y-98145899D01*
X152240229Y-98165582D01*
X152285984Y-98218386D01*
X152295929Y-98287544D01*
X152266905Y-98351100D01*
X152260872Y-98357580D01*
X147692828Y-102925624D01*
X147631505Y-102959109D01*
X147561813Y-102954125D01*
X147505880Y-102912253D01*
X147488965Y-102881275D01*
X147459798Y-102803073D01*
X147459793Y-102803064D01*
X147373547Y-102687855D01*
X147373544Y-102687852D01*
X147258335Y-102601606D01*
X147258328Y-102601602D01*
X147123482Y-102551308D01*
X147123483Y-102551308D01*
X147063883Y-102544901D01*
X147063881Y-102544900D01*
X147063873Y-102544900D01*
X147063864Y-102544900D01*
X143768129Y-102544900D01*
X143768123Y-102544901D01*
X143708516Y-102551308D01*
X143573671Y-102601602D01*
X143573664Y-102601606D01*
X143458455Y-102687852D01*
X143458452Y-102687855D01*
X143372206Y-102803064D01*
X143372202Y-102803071D01*
X143321908Y-102937917D01*
X143315501Y-102997516D01*
X143315500Y-102997535D01*
X143315500Y-106293270D01*
X143315501Y-106293276D01*
X143321908Y-106352883D01*
X143372202Y-106487728D01*
X143372206Y-106487735D01*
X143458452Y-106602944D01*
X143458455Y-106602947D01*
X143573664Y-106689193D01*
X143573671Y-106689197D01*
X143708517Y-106739491D01*
X143708516Y-106739491D01*
X143715444Y-106740235D01*
X143768127Y-106745900D01*
X146926500Y-106745899D01*
X146993539Y-106765584D01*
X147039294Y-106818388D01*
X147050500Y-106869899D01*
X147050500Y-110620900D01*
X147030815Y-110687939D01*
X146978011Y-110733694D01*
X146926500Y-110744900D01*
X146118129Y-110744900D01*
X146118123Y-110744901D01*
X146058516Y-110751308D01*
X145923671Y-110801602D01*
X145923664Y-110801606D01*
X145808455Y-110887852D01*
X145803681Y-110892627D01*
X145742358Y-110926112D01*
X145672666Y-110921128D01*
X145628319Y-110892627D01*
X145623544Y-110887852D01*
X145508335Y-110801606D01*
X145508328Y-110801602D01*
X145373482Y-110751308D01*
X145373483Y-110751308D01*
X145313883Y-110744901D01*
X145313881Y-110744900D01*
X145313873Y-110744900D01*
X145313864Y-110744900D01*
X144118129Y-110744900D01*
X144118123Y-110744901D01*
X144058516Y-110751308D01*
X143923671Y-110801602D01*
X143923664Y-110801606D01*
X143808455Y-110887852D01*
X143803681Y-110892627D01*
X143742358Y-110926112D01*
X143672666Y-110921128D01*
X143628319Y-110892627D01*
X143623544Y-110887852D01*
X143508335Y-110801606D01*
X143508328Y-110801602D01*
X143373482Y-110751308D01*
X143373483Y-110751308D01*
X143313883Y-110744901D01*
X143313881Y-110744900D01*
X143313873Y-110744900D01*
X143313864Y-110744900D01*
X142118129Y-110744900D01*
X142118123Y-110744901D01*
X142058516Y-110751308D01*
X141923671Y-110801602D01*
X141923664Y-110801606D01*
X141808455Y-110887852D01*
X141803681Y-110892627D01*
X141742358Y-110926112D01*
X141672666Y-110921128D01*
X141628319Y-110892627D01*
X141623544Y-110887852D01*
X141508335Y-110801606D01*
X141508328Y-110801602D01*
X141373482Y-110751308D01*
X141373483Y-110751308D01*
X141313883Y-110744901D01*
X141313881Y-110744900D01*
X141313873Y-110744900D01*
X141313864Y-110744900D01*
X140118129Y-110744900D01*
X140118123Y-110744901D01*
X140058516Y-110751308D01*
X139923671Y-110801602D01*
X139923664Y-110801606D01*
X139808455Y-110887852D01*
X139760966Y-110951289D01*
X139705032Y-110993159D01*
X139635340Y-110998143D01*
X139574017Y-110964657D01*
X139540533Y-110903333D01*
X139537700Y-110876977D01*
X139537700Y-103245007D01*
X139557385Y-103177968D01*
X139574019Y-103157326D01*
X144549127Y-98182218D01*
X144610450Y-98148733D01*
X144636808Y-98145899D01*
X145313871Y-98145899D01*
X145313872Y-98145899D01*
X145373483Y-98139491D01*
X145508331Y-98089196D01*
X145623546Y-98002946D01*
X145623548Y-98002942D01*
X145628319Y-97998173D01*
X145689642Y-97964688D01*
X145759334Y-97969672D01*
X145803681Y-97998173D01*
X145808455Y-98002947D01*
X145923664Y-98089193D01*
X145923671Y-98089197D01*
X146058517Y-98139491D01*
X146058516Y-98139491D01*
X146065444Y-98140235D01*
X146118127Y-98145900D01*
X147313872Y-98145899D01*
X147373483Y-98139491D01*
X147508331Y-98089196D01*
X147623546Y-98002946D01*
X147623548Y-98002942D01*
X147628319Y-97998173D01*
X147689642Y-97964688D01*
X147759334Y-97969672D01*
X147803681Y-97998173D01*
X147808455Y-98002947D01*
X147923664Y-98089193D01*
X147923671Y-98089197D01*
X148058517Y-98139491D01*
X148058516Y-98139491D01*
X148065444Y-98140235D01*
X148118127Y-98145900D01*
X149313872Y-98145899D01*
X149373483Y-98139491D01*
X149508331Y-98089196D01*
X149623546Y-98002946D01*
X149623548Y-98002942D01*
X149628319Y-97998173D01*
X149689642Y-97964688D01*
X149759334Y-97969672D01*
X149803681Y-97998173D01*
X149808455Y-98002947D01*
X149923664Y-98089193D01*
X149923671Y-98089197D01*
X150058517Y-98139491D01*
X150058516Y-98139491D01*
X150065444Y-98140235D01*
X150118127Y-98145900D01*
X151313872Y-98145899D01*
X151373483Y-98139491D01*
X151508331Y-98089196D01*
X151623546Y-98002946D01*
X151623548Y-98002942D01*
X151628319Y-97998173D01*
X151689642Y-97964688D01*
X151759334Y-97969672D01*
G37*
%TD.AperFunction*%
%TD*%
M02*
