%TF.GenerationSoftware,KiCad,Pcbnew,7.0.7*%
%TF.CreationDate,2024-04-11T18:02:49+02:00*%
%TF.ProjectId,DriverRGB_v2,44726976-6572-4524-9742-5f76322e6b69,v02*%
%TF.SameCoordinates,Original*%
%TF.FileFunction,AssemblyDrawing,Bot*%
%FSLAX46Y46*%
G04 Gerber Fmt 4.6, Leading zero omitted, Abs format (unit mm)*
G04 Created by KiCad (PCBNEW 7.0.7) date 2024-04-11 18:02:49*
%MOMM*%
%LPD*%
G01*
G04 APERTURE LIST*
%ADD10C,0.100000*%
%ADD11C,0.150000*%
%ADD12C,0.300000*%
%ADD13C,0.400000*%
%ADD14C,0.060000*%
%ADD15C,0.254000*%
%ADD16C,0.127000*%
%ADD17C,0.200000*%
G04 APERTURE END LIST*
D10*
D11*
X177002200Y-166007200D02*
X285002200Y-166007200D01*
X285002200Y-198007200D01*
X177002200Y-198007200D01*
X177002200Y-166007200D01*
D10*
D11*
X10000000Y-10000000D02*
X287002200Y-10000000D01*
X287002200Y-200007200D01*
X10000000Y-200007200D01*
X10000000Y-10000000D01*
D10*
D11*
X12000000Y-12000000D02*
X285002200Y-12000000D01*
X285002200Y-198007200D01*
X12000000Y-198007200D01*
X12000000Y-12000000D01*
D10*
D11*
X60000000Y-12000000D02*
X60000000Y-10000000D01*
D10*
D11*
X110000000Y-12000000D02*
X110000000Y-10000000D01*
D10*
D11*
X160000000Y-12000000D02*
X160000000Y-10000000D01*
D10*
D11*
X210000000Y-12000000D02*
X210000000Y-10000000D01*
D10*
D11*
X260000000Y-12000000D02*
X260000000Y-10000000D01*
D10*
D11*
X36089160Y-11593604D02*
X35346303Y-11593604D01*
X35717731Y-11593604D02*
X35717731Y-10293604D01*
X35717731Y-10293604D02*
X35593922Y-10479319D01*
X35593922Y-10479319D02*
X35470112Y-10603128D01*
X35470112Y-10603128D02*
X35346303Y-10665033D01*
D10*
D11*
X85346303Y-10417414D02*
X85408207Y-10355509D01*
X85408207Y-10355509D02*
X85532017Y-10293604D01*
X85532017Y-10293604D02*
X85841541Y-10293604D01*
X85841541Y-10293604D02*
X85965350Y-10355509D01*
X85965350Y-10355509D02*
X86027255Y-10417414D01*
X86027255Y-10417414D02*
X86089160Y-10541223D01*
X86089160Y-10541223D02*
X86089160Y-10665033D01*
X86089160Y-10665033D02*
X86027255Y-10850747D01*
X86027255Y-10850747D02*
X85284398Y-11593604D01*
X85284398Y-11593604D02*
X86089160Y-11593604D01*
D10*
D11*
X135284398Y-10293604D02*
X136089160Y-10293604D01*
X136089160Y-10293604D02*
X135655826Y-10788842D01*
X135655826Y-10788842D02*
X135841541Y-10788842D01*
X135841541Y-10788842D02*
X135965350Y-10850747D01*
X135965350Y-10850747D02*
X136027255Y-10912652D01*
X136027255Y-10912652D02*
X136089160Y-11036461D01*
X136089160Y-11036461D02*
X136089160Y-11345985D01*
X136089160Y-11345985D02*
X136027255Y-11469795D01*
X136027255Y-11469795D02*
X135965350Y-11531700D01*
X135965350Y-11531700D02*
X135841541Y-11593604D01*
X135841541Y-11593604D02*
X135470112Y-11593604D01*
X135470112Y-11593604D02*
X135346303Y-11531700D01*
X135346303Y-11531700D02*
X135284398Y-11469795D01*
D10*
D11*
X185965350Y-10726938D02*
X185965350Y-11593604D01*
X185655826Y-10231700D02*
X185346303Y-11160271D01*
X185346303Y-11160271D02*
X186151064Y-11160271D01*
D10*
D11*
X236027255Y-10293604D02*
X235408207Y-10293604D01*
X235408207Y-10293604D02*
X235346303Y-10912652D01*
X235346303Y-10912652D02*
X235408207Y-10850747D01*
X235408207Y-10850747D02*
X235532017Y-10788842D01*
X235532017Y-10788842D02*
X235841541Y-10788842D01*
X235841541Y-10788842D02*
X235965350Y-10850747D01*
X235965350Y-10850747D02*
X236027255Y-10912652D01*
X236027255Y-10912652D02*
X236089160Y-11036461D01*
X236089160Y-11036461D02*
X236089160Y-11345985D01*
X236089160Y-11345985D02*
X236027255Y-11469795D01*
X236027255Y-11469795D02*
X235965350Y-11531700D01*
X235965350Y-11531700D02*
X235841541Y-11593604D01*
X235841541Y-11593604D02*
X235532017Y-11593604D01*
X235532017Y-11593604D02*
X235408207Y-11531700D01*
X235408207Y-11531700D02*
X235346303Y-11469795D01*
D10*
D11*
X285965350Y-10293604D02*
X285717731Y-10293604D01*
X285717731Y-10293604D02*
X285593922Y-10355509D01*
X285593922Y-10355509D02*
X285532017Y-10417414D01*
X285532017Y-10417414D02*
X285408207Y-10603128D01*
X285408207Y-10603128D02*
X285346303Y-10850747D01*
X285346303Y-10850747D02*
X285346303Y-11345985D01*
X285346303Y-11345985D02*
X285408207Y-11469795D01*
X285408207Y-11469795D02*
X285470112Y-11531700D01*
X285470112Y-11531700D02*
X285593922Y-11593604D01*
X285593922Y-11593604D02*
X285841541Y-11593604D01*
X285841541Y-11593604D02*
X285965350Y-11531700D01*
X285965350Y-11531700D02*
X286027255Y-11469795D01*
X286027255Y-11469795D02*
X286089160Y-11345985D01*
X286089160Y-11345985D02*
X286089160Y-11036461D01*
X286089160Y-11036461D02*
X286027255Y-10912652D01*
X286027255Y-10912652D02*
X285965350Y-10850747D01*
X285965350Y-10850747D02*
X285841541Y-10788842D01*
X285841541Y-10788842D02*
X285593922Y-10788842D01*
X285593922Y-10788842D02*
X285470112Y-10850747D01*
X285470112Y-10850747D02*
X285408207Y-10912652D01*
X285408207Y-10912652D02*
X285346303Y-11036461D01*
D10*
D11*
X60000000Y-198007200D02*
X60000000Y-200007200D01*
D10*
D11*
X110000000Y-198007200D02*
X110000000Y-200007200D01*
D10*
D11*
X160000000Y-198007200D02*
X160000000Y-200007200D01*
D10*
D11*
X210000000Y-198007200D02*
X210000000Y-200007200D01*
D10*
D11*
X260000000Y-198007200D02*
X260000000Y-200007200D01*
D10*
D11*
X36089160Y-199600804D02*
X35346303Y-199600804D01*
X35717731Y-199600804D02*
X35717731Y-198300804D01*
X35717731Y-198300804D02*
X35593922Y-198486519D01*
X35593922Y-198486519D02*
X35470112Y-198610328D01*
X35470112Y-198610328D02*
X35346303Y-198672233D01*
D10*
D11*
X85346303Y-198424614D02*
X85408207Y-198362709D01*
X85408207Y-198362709D02*
X85532017Y-198300804D01*
X85532017Y-198300804D02*
X85841541Y-198300804D01*
X85841541Y-198300804D02*
X85965350Y-198362709D01*
X85965350Y-198362709D02*
X86027255Y-198424614D01*
X86027255Y-198424614D02*
X86089160Y-198548423D01*
X86089160Y-198548423D02*
X86089160Y-198672233D01*
X86089160Y-198672233D02*
X86027255Y-198857947D01*
X86027255Y-198857947D02*
X85284398Y-199600804D01*
X85284398Y-199600804D02*
X86089160Y-199600804D01*
D10*
D11*
X135284398Y-198300804D02*
X136089160Y-198300804D01*
X136089160Y-198300804D02*
X135655826Y-198796042D01*
X135655826Y-198796042D02*
X135841541Y-198796042D01*
X135841541Y-198796042D02*
X135965350Y-198857947D01*
X135965350Y-198857947D02*
X136027255Y-198919852D01*
X136027255Y-198919852D02*
X136089160Y-199043661D01*
X136089160Y-199043661D02*
X136089160Y-199353185D01*
X136089160Y-199353185D02*
X136027255Y-199476995D01*
X136027255Y-199476995D02*
X135965350Y-199538900D01*
X135965350Y-199538900D02*
X135841541Y-199600804D01*
X135841541Y-199600804D02*
X135470112Y-199600804D01*
X135470112Y-199600804D02*
X135346303Y-199538900D01*
X135346303Y-199538900D02*
X135284398Y-199476995D01*
D10*
D11*
X185965350Y-198734138D02*
X185965350Y-199600804D01*
X185655826Y-198238900D02*
X185346303Y-199167471D01*
X185346303Y-199167471D02*
X186151064Y-199167471D01*
D10*
D11*
X236027255Y-198300804D02*
X235408207Y-198300804D01*
X235408207Y-198300804D02*
X235346303Y-198919852D01*
X235346303Y-198919852D02*
X235408207Y-198857947D01*
X235408207Y-198857947D02*
X235532017Y-198796042D01*
X235532017Y-198796042D02*
X235841541Y-198796042D01*
X235841541Y-198796042D02*
X235965350Y-198857947D01*
X235965350Y-198857947D02*
X236027255Y-198919852D01*
X236027255Y-198919852D02*
X236089160Y-199043661D01*
X236089160Y-199043661D02*
X236089160Y-199353185D01*
X236089160Y-199353185D02*
X236027255Y-199476995D01*
X236027255Y-199476995D02*
X235965350Y-199538900D01*
X235965350Y-199538900D02*
X235841541Y-199600804D01*
X235841541Y-199600804D02*
X235532017Y-199600804D01*
X235532017Y-199600804D02*
X235408207Y-199538900D01*
X235408207Y-199538900D02*
X235346303Y-199476995D01*
D10*
D11*
X285965350Y-198300804D02*
X285717731Y-198300804D01*
X285717731Y-198300804D02*
X285593922Y-198362709D01*
X285593922Y-198362709D02*
X285532017Y-198424614D01*
X285532017Y-198424614D02*
X285408207Y-198610328D01*
X285408207Y-198610328D02*
X285346303Y-198857947D01*
X285346303Y-198857947D02*
X285346303Y-199353185D01*
X285346303Y-199353185D02*
X285408207Y-199476995D01*
X285408207Y-199476995D02*
X285470112Y-199538900D01*
X285470112Y-199538900D02*
X285593922Y-199600804D01*
X285593922Y-199600804D02*
X285841541Y-199600804D01*
X285841541Y-199600804D02*
X285965350Y-199538900D01*
X285965350Y-199538900D02*
X286027255Y-199476995D01*
X286027255Y-199476995D02*
X286089160Y-199353185D01*
X286089160Y-199353185D02*
X286089160Y-199043661D01*
X286089160Y-199043661D02*
X286027255Y-198919852D01*
X286027255Y-198919852D02*
X285965350Y-198857947D01*
X285965350Y-198857947D02*
X285841541Y-198796042D01*
X285841541Y-198796042D02*
X285593922Y-198796042D01*
X285593922Y-198796042D02*
X285470112Y-198857947D01*
X285470112Y-198857947D02*
X285408207Y-198919852D01*
X285408207Y-198919852D02*
X285346303Y-199043661D01*
D10*
D11*
X10000000Y-60000000D02*
X12000000Y-60000000D01*
D10*
D11*
X10000000Y-110000000D02*
X12000000Y-110000000D01*
D10*
D11*
X10000000Y-160000000D02*
X12000000Y-160000000D01*
D10*
D11*
X10690476Y-35222176D02*
X11309523Y-35222176D01*
X10566666Y-35593604D02*
X10999999Y-34293604D01*
X10999999Y-34293604D02*
X11433333Y-35593604D01*
D10*
D11*
X11092857Y-84912652D02*
X11278571Y-84974557D01*
X11278571Y-84974557D02*
X11340476Y-85036461D01*
X11340476Y-85036461D02*
X11402380Y-85160271D01*
X11402380Y-85160271D02*
X11402380Y-85345985D01*
X11402380Y-85345985D02*
X11340476Y-85469795D01*
X11340476Y-85469795D02*
X11278571Y-85531700D01*
X11278571Y-85531700D02*
X11154761Y-85593604D01*
X11154761Y-85593604D02*
X10659523Y-85593604D01*
X10659523Y-85593604D02*
X10659523Y-84293604D01*
X10659523Y-84293604D02*
X11092857Y-84293604D01*
X11092857Y-84293604D02*
X11216666Y-84355509D01*
X11216666Y-84355509D02*
X11278571Y-84417414D01*
X11278571Y-84417414D02*
X11340476Y-84541223D01*
X11340476Y-84541223D02*
X11340476Y-84665033D01*
X11340476Y-84665033D02*
X11278571Y-84788842D01*
X11278571Y-84788842D02*
X11216666Y-84850747D01*
X11216666Y-84850747D02*
X11092857Y-84912652D01*
X11092857Y-84912652D02*
X10659523Y-84912652D01*
D10*
D11*
X11402380Y-135469795D02*
X11340476Y-135531700D01*
X11340476Y-135531700D02*
X11154761Y-135593604D01*
X11154761Y-135593604D02*
X11030952Y-135593604D01*
X11030952Y-135593604D02*
X10845238Y-135531700D01*
X10845238Y-135531700D02*
X10721428Y-135407890D01*
X10721428Y-135407890D02*
X10659523Y-135284080D01*
X10659523Y-135284080D02*
X10597619Y-135036461D01*
X10597619Y-135036461D02*
X10597619Y-134850747D01*
X10597619Y-134850747D02*
X10659523Y-134603128D01*
X10659523Y-134603128D02*
X10721428Y-134479319D01*
X10721428Y-134479319D02*
X10845238Y-134355509D01*
X10845238Y-134355509D02*
X11030952Y-134293604D01*
X11030952Y-134293604D02*
X11154761Y-134293604D01*
X11154761Y-134293604D02*
X11340476Y-134355509D01*
X11340476Y-134355509D02*
X11402380Y-134417414D01*
D10*
D11*
X10659523Y-185593604D02*
X10659523Y-184293604D01*
X10659523Y-184293604D02*
X10969047Y-184293604D01*
X10969047Y-184293604D02*
X11154761Y-184355509D01*
X11154761Y-184355509D02*
X11278571Y-184479319D01*
X11278571Y-184479319D02*
X11340476Y-184603128D01*
X11340476Y-184603128D02*
X11402380Y-184850747D01*
X11402380Y-184850747D02*
X11402380Y-185036461D01*
X11402380Y-185036461D02*
X11340476Y-185284080D01*
X11340476Y-185284080D02*
X11278571Y-185407890D01*
X11278571Y-185407890D02*
X11154761Y-185531700D01*
X11154761Y-185531700D02*
X10969047Y-185593604D01*
X10969047Y-185593604D02*
X10659523Y-185593604D01*
D10*
D11*
X287002200Y-60000000D02*
X285002200Y-60000000D01*
D10*
D11*
X287002200Y-110000000D02*
X285002200Y-110000000D01*
D10*
D11*
X287002200Y-160000000D02*
X285002200Y-160000000D01*
D10*
D11*
X285692676Y-35222176D02*
X286311723Y-35222176D01*
X285568866Y-35593604D02*
X286002199Y-34293604D01*
X286002199Y-34293604D02*
X286435533Y-35593604D01*
D10*
D11*
X286095057Y-84912652D02*
X286280771Y-84974557D01*
X286280771Y-84974557D02*
X286342676Y-85036461D01*
X286342676Y-85036461D02*
X286404580Y-85160271D01*
X286404580Y-85160271D02*
X286404580Y-85345985D01*
X286404580Y-85345985D02*
X286342676Y-85469795D01*
X286342676Y-85469795D02*
X286280771Y-85531700D01*
X286280771Y-85531700D02*
X286156961Y-85593604D01*
X286156961Y-85593604D02*
X285661723Y-85593604D01*
X285661723Y-85593604D02*
X285661723Y-84293604D01*
X285661723Y-84293604D02*
X286095057Y-84293604D01*
X286095057Y-84293604D02*
X286218866Y-84355509D01*
X286218866Y-84355509D02*
X286280771Y-84417414D01*
X286280771Y-84417414D02*
X286342676Y-84541223D01*
X286342676Y-84541223D02*
X286342676Y-84665033D01*
X286342676Y-84665033D02*
X286280771Y-84788842D01*
X286280771Y-84788842D02*
X286218866Y-84850747D01*
X286218866Y-84850747D02*
X286095057Y-84912652D01*
X286095057Y-84912652D02*
X285661723Y-84912652D01*
D10*
D11*
X286404580Y-135469795D02*
X286342676Y-135531700D01*
X286342676Y-135531700D02*
X286156961Y-135593604D01*
X286156961Y-135593604D02*
X286033152Y-135593604D01*
X286033152Y-135593604D02*
X285847438Y-135531700D01*
X285847438Y-135531700D02*
X285723628Y-135407890D01*
X285723628Y-135407890D02*
X285661723Y-135284080D01*
X285661723Y-135284080D02*
X285599819Y-135036461D01*
X285599819Y-135036461D02*
X285599819Y-134850747D01*
X285599819Y-134850747D02*
X285661723Y-134603128D01*
X285661723Y-134603128D02*
X285723628Y-134479319D01*
X285723628Y-134479319D02*
X285847438Y-134355509D01*
X285847438Y-134355509D02*
X286033152Y-134293604D01*
X286033152Y-134293604D02*
X286156961Y-134293604D01*
X286156961Y-134293604D02*
X286342676Y-134355509D01*
X286342676Y-134355509D02*
X286404580Y-134417414D01*
D10*
D11*
X285661723Y-185593604D02*
X285661723Y-184293604D01*
X285661723Y-184293604D02*
X285971247Y-184293604D01*
X285971247Y-184293604D02*
X286156961Y-184355509D01*
X286156961Y-184355509D02*
X286280771Y-184479319D01*
X286280771Y-184479319D02*
X286342676Y-184603128D01*
X286342676Y-184603128D02*
X286404580Y-184850747D01*
X286404580Y-184850747D02*
X286404580Y-185036461D01*
X286404580Y-185036461D02*
X286342676Y-185284080D01*
X286342676Y-185284080D02*
X286280771Y-185407890D01*
X286280771Y-185407890D02*
X286156961Y-185531700D01*
X286156961Y-185531700D02*
X285971247Y-185593604D01*
X285971247Y-185593604D02*
X285661723Y-185593604D01*
D10*
D11*
X200458026Y-193793328D02*
X200458026Y-192293328D01*
X200458026Y-192293328D02*
X200815169Y-192293328D01*
X200815169Y-192293328D02*
X201029455Y-192364757D01*
X201029455Y-192364757D02*
X201172312Y-192507614D01*
X201172312Y-192507614D02*
X201243741Y-192650471D01*
X201243741Y-192650471D02*
X201315169Y-192936185D01*
X201315169Y-192936185D02*
X201315169Y-193150471D01*
X201315169Y-193150471D02*
X201243741Y-193436185D01*
X201243741Y-193436185D02*
X201172312Y-193579042D01*
X201172312Y-193579042D02*
X201029455Y-193721900D01*
X201029455Y-193721900D02*
X200815169Y-193793328D01*
X200815169Y-193793328D02*
X200458026Y-193793328D01*
X202600884Y-193793328D02*
X202600884Y-193007614D01*
X202600884Y-193007614D02*
X202529455Y-192864757D01*
X202529455Y-192864757D02*
X202386598Y-192793328D01*
X202386598Y-192793328D02*
X202100884Y-192793328D01*
X202100884Y-192793328D02*
X201958026Y-192864757D01*
X202600884Y-193721900D02*
X202458026Y-193793328D01*
X202458026Y-193793328D02*
X202100884Y-193793328D01*
X202100884Y-193793328D02*
X201958026Y-193721900D01*
X201958026Y-193721900D02*
X201886598Y-193579042D01*
X201886598Y-193579042D02*
X201886598Y-193436185D01*
X201886598Y-193436185D02*
X201958026Y-193293328D01*
X201958026Y-193293328D02*
X202100884Y-193221900D01*
X202100884Y-193221900D02*
X202458026Y-193221900D01*
X202458026Y-193221900D02*
X202600884Y-193150471D01*
X203100884Y-192793328D02*
X203672312Y-192793328D01*
X203315169Y-192293328D02*
X203315169Y-193579042D01*
X203315169Y-193579042D02*
X203386598Y-193721900D01*
X203386598Y-193721900D02*
X203529455Y-193793328D01*
X203529455Y-193793328D02*
X203672312Y-193793328D01*
X204743741Y-193721900D02*
X204600884Y-193793328D01*
X204600884Y-193793328D02*
X204315170Y-193793328D01*
X204315170Y-193793328D02*
X204172312Y-193721900D01*
X204172312Y-193721900D02*
X204100884Y-193579042D01*
X204100884Y-193579042D02*
X204100884Y-193007614D01*
X204100884Y-193007614D02*
X204172312Y-192864757D01*
X204172312Y-192864757D02*
X204315170Y-192793328D01*
X204315170Y-192793328D02*
X204600884Y-192793328D01*
X204600884Y-192793328D02*
X204743741Y-192864757D01*
X204743741Y-192864757D02*
X204815170Y-193007614D01*
X204815170Y-193007614D02*
X204815170Y-193150471D01*
X204815170Y-193150471D02*
X204100884Y-193293328D01*
X205458026Y-193650471D02*
X205529455Y-193721900D01*
X205529455Y-193721900D02*
X205458026Y-193793328D01*
X205458026Y-193793328D02*
X205386598Y-193721900D01*
X205386598Y-193721900D02*
X205458026Y-193650471D01*
X205458026Y-193650471D02*
X205458026Y-193793328D01*
X205458026Y-192864757D02*
X205529455Y-192936185D01*
X205529455Y-192936185D02*
X205458026Y-193007614D01*
X205458026Y-193007614D02*
X205386598Y-192936185D01*
X205386598Y-192936185D02*
X205458026Y-192864757D01*
X205458026Y-192864757D02*
X205458026Y-193007614D01*
X208100884Y-193793328D02*
X207243741Y-193793328D01*
X207672312Y-193793328D02*
X207672312Y-192293328D01*
X207672312Y-192293328D02*
X207529455Y-192507614D01*
X207529455Y-192507614D02*
X207386598Y-192650471D01*
X207386598Y-192650471D02*
X207243741Y-192721900D01*
X208815169Y-193793328D02*
X209100883Y-193793328D01*
X209100883Y-193793328D02*
X209243740Y-193721900D01*
X209243740Y-193721900D02*
X209315169Y-193650471D01*
X209315169Y-193650471D02*
X209458026Y-193436185D01*
X209458026Y-193436185D02*
X209529455Y-193150471D01*
X209529455Y-193150471D02*
X209529455Y-192579042D01*
X209529455Y-192579042D02*
X209458026Y-192436185D01*
X209458026Y-192436185D02*
X209386598Y-192364757D01*
X209386598Y-192364757D02*
X209243740Y-192293328D01*
X209243740Y-192293328D02*
X208958026Y-192293328D01*
X208958026Y-192293328D02*
X208815169Y-192364757D01*
X208815169Y-192364757D02*
X208743740Y-192436185D01*
X208743740Y-192436185D02*
X208672312Y-192579042D01*
X208672312Y-192579042D02*
X208672312Y-192936185D01*
X208672312Y-192936185D02*
X208743740Y-193079042D01*
X208743740Y-193079042D02*
X208815169Y-193150471D01*
X208815169Y-193150471D02*
X208958026Y-193221900D01*
X208958026Y-193221900D02*
X209243740Y-193221900D01*
X209243740Y-193221900D02*
X209386598Y-193150471D01*
X209386598Y-193150471D02*
X209458026Y-193079042D01*
X209458026Y-193079042D02*
X209529455Y-192936185D01*
X211243740Y-192221900D02*
X209958026Y-194150471D01*
X212029455Y-192293328D02*
X212172312Y-192293328D01*
X212172312Y-192293328D02*
X212315169Y-192364757D01*
X212315169Y-192364757D02*
X212386598Y-192436185D01*
X212386598Y-192436185D02*
X212458026Y-192579042D01*
X212458026Y-192579042D02*
X212529455Y-192864757D01*
X212529455Y-192864757D02*
X212529455Y-193221900D01*
X212529455Y-193221900D02*
X212458026Y-193507614D01*
X212458026Y-193507614D02*
X212386598Y-193650471D01*
X212386598Y-193650471D02*
X212315169Y-193721900D01*
X212315169Y-193721900D02*
X212172312Y-193793328D01*
X212172312Y-193793328D02*
X212029455Y-193793328D01*
X212029455Y-193793328D02*
X211886598Y-193721900D01*
X211886598Y-193721900D02*
X211815169Y-193650471D01*
X211815169Y-193650471D02*
X211743740Y-193507614D01*
X211743740Y-193507614D02*
X211672312Y-193221900D01*
X211672312Y-193221900D02*
X211672312Y-192864757D01*
X211672312Y-192864757D02*
X211743740Y-192579042D01*
X211743740Y-192579042D02*
X211815169Y-192436185D01*
X211815169Y-192436185D02*
X211886598Y-192364757D01*
X211886598Y-192364757D02*
X212029455Y-192293328D01*
X213029454Y-192293328D02*
X213958026Y-192293328D01*
X213958026Y-192293328D02*
X213458026Y-192864757D01*
X213458026Y-192864757D02*
X213672311Y-192864757D01*
X213672311Y-192864757D02*
X213815169Y-192936185D01*
X213815169Y-192936185D02*
X213886597Y-193007614D01*
X213886597Y-193007614D02*
X213958026Y-193150471D01*
X213958026Y-193150471D02*
X213958026Y-193507614D01*
X213958026Y-193507614D02*
X213886597Y-193650471D01*
X213886597Y-193650471D02*
X213815169Y-193721900D01*
X213815169Y-193721900D02*
X213672311Y-193793328D01*
X213672311Y-193793328D02*
X213243740Y-193793328D01*
X213243740Y-193793328D02*
X213100883Y-193721900D01*
X213100883Y-193721900D02*
X213029454Y-193650471D01*
X215672311Y-192221900D02*
X214386597Y-194150471D01*
X216100883Y-192436185D02*
X216172311Y-192364757D01*
X216172311Y-192364757D02*
X216315169Y-192293328D01*
X216315169Y-192293328D02*
X216672311Y-192293328D01*
X216672311Y-192293328D02*
X216815169Y-192364757D01*
X216815169Y-192364757D02*
X216886597Y-192436185D01*
X216886597Y-192436185D02*
X216958026Y-192579042D01*
X216958026Y-192579042D02*
X216958026Y-192721900D01*
X216958026Y-192721900D02*
X216886597Y-192936185D01*
X216886597Y-192936185D02*
X216029454Y-193793328D01*
X216029454Y-193793328D02*
X216958026Y-193793328D01*
X217886597Y-192293328D02*
X218029454Y-192293328D01*
X218029454Y-192293328D02*
X218172311Y-192364757D01*
X218172311Y-192364757D02*
X218243740Y-192436185D01*
X218243740Y-192436185D02*
X218315168Y-192579042D01*
X218315168Y-192579042D02*
X218386597Y-192864757D01*
X218386597Y-192864757D02*
X218386597Y-193221900D01*
X218386597Y-193221900D02*
X218315168Y-193507614D01*
X218315168Y-193507614D02*
X218243740Y-193650471D01*
X218243740Y-193650471D02*
X218172311Y-193721900D01*
X218172311Y-193721900D02*
X218029454Y-193793328D01*
X218029454Y-193793328D02*
X217886597Y-193793328D01*
X217886597Y-193793328D02*
X217743740Y-193721900D01*
X217743740Y-193721900D02*
X217672311Y-193650471D01*
X217672311Y-193650471D02*
X217600882Y-193507614D01*
X217600882Y-193507614D02*
X217529454Y-193221900D01*
X217529454Y-193221900D02*
X217529454Y-192864757D01*
X217529454Y-192864757D02*
X217600882Y-192579042D01*
X217600882Y-192579042D02*
X217672311Y-192436185D01*
X217672311Y-192436185D02*
X217743740Y-192364757D01*
X217743740Y-192364757D02*
X217886597Y-192293328D01*
X218958025Y-192436185D02*
X219029453Y-192364757D01*
X219029453Y-192364757D02*
X219172311Y-192293328D01*
X219172311Y-192293328D02*
X219529453Y-192293328D01*
X219529453Y-192293328D02*
X219672311Y-192364757D01*
X219672311Y-192364757D02*
X219743739Y-192436185D01*
X219743739Y-192436185D02*
X219815168Y-192579042D01*
X219815168Y-192579042D02*
X219815168Y-192721900D01*
X219815168Y-192721900D02*
X219743739Y-192936185D01*
X219743739Y-192936185D02*
X218886596Y-193793328D01*
X218886596Y-193793328D02*
X219815168Y-193793328D01*
X221100882Y-192793328D02*
X221100882Y-193793328D01*
X220743739Y-192221900D02*
X220386596Y-193293328D01*
X220386596Y-193293328D02*
X221315167Y-193293328D01*
D10*
D11*
X177002200Y-194507200D02*
X285002200Y-194507200D01*
D10*
D11*
X178458026Y-196593328D02*
X178458026Y-195093328D01*
X179315169Y-196593328D02*
X178672312Y-195736185D01*
X179315169Y-195093328D02*
X178458026Y-195950471D01*
X179958026Y-196593328D02*
X179958026Y-195593328D01*
X179958026Y-195093328D02*
X179886598Y-195164757D01*
X179886598Y-195164757D02*
X179958026Y-195236185D01*
X179958026Y-195236185D02*
X180029455Y-195164757D01*
X180029455Y-195164757D02*
X179958026Y-195093328D01*
X179958026Y-195093328D02*
X179958026Y-195236185D01*
X181529455Y-196450471D02*
X181458027Y-196521900D01*
X181458027Y-196521900D02*
X181243741Y-196593328D01*
X181243741Y-196593328D02*
X181100884Y-196593328D01*
X181100884Y-196593328D02*
X180886598Y-196521900D01*
X180886598Y-196521900D02*
X180743741Y-196379042D01*
X180743741Y-196379042D02*
X180672312Y-196236185D01*
X180672312Y-196236185D02*
X180600884Y-195950471D01*
X180600884Y-195950471D02*
X180600884Y-195736185D01*
X180600884Y-195736185D02*
X180672312Y-195450471D01*
X180672312Y-195450471D02*
X180743741Y-195307614D01*
X180743741Y-195307614D02*
X180886598Y-195164757D01*
X180886598Y-195164757D02*
X181100884Y-195093328D01*
X181100884Y-195093328D02*
X181243741Y-195093328D01*
X181243741Y-195093328D02*
X181458027Y-195164757D01*
X181458027Y-195164757D02*
X181529455Y-195236185D01*
X182815170Y-196593328D02*
X182815170Y-195807614D01*
X182815170Y-195807614D02*
X182743741Y-195664757D01*
X182743741Y-195664757D02*
X182600884Y-195593328D01*
X182600884Y-195593328D02*
X182315170Y-195593328D01*
X182315170Y-195593328D02*
X182172312Y-195664757D01*
X182815170Y-196521900D02*
X182672312Y-196593328D01*
X182672312Y-196593328D02*
X182315170Y-196593328D01*
X182315170Y-196593328D02*
X182172312Y-196521900D01*
X182172312Y-196521900D02*
X182100884Y-196379042D01*
X182100884Y-196379042D02*
X182100884Y-196236185D01*
X182100884Y-196236185D02*
X182172312Y-196093328D01*
X182172312Y-196093328D02*
X182315170Y-196021900D01*
X182315170Y-196021900D02*
X182672312Y-196021900D01*
X182672312Y-196021900D02*
X182815170Y-195950471D01*
X184172313Y-196593328D02*
X184172313Y-195093328D01*
X184172313Y-196521900D02*
X184029455Y-196593328D01*
X184029455Y-196593328D02*
X183743741Y-196593328D01*
X183743741Y-196593328D02*
X183600884Y-196521900D01*
X183600884Y-196521900D02*
X183529455Y-196450471D01*
X183529455Y-196450471D02*
X183458027Y-196307614D01*
X183458027Y-196307614D02*
X183458027Y-195879042D01*
X183458027Y-195879042D02*
X183529455Y-195736185D01*
X183529455Y-195736185D02*
X183600884Y-195664757D01*
X183600884Y-195664757D02*
X183743741Y-195593328D01*
X183743741Y-195593328D02*
X184029455Y-195593328D01*
X184029455Y-195593328D02*
X184172313Y-195664757D01*
X186029455Y-195807614D02*
X186529455Y-195807614D01*
X186743741Y-196593328D02*
X186029455Y-196593328D01*
X186029455Y-196593328D02*
X186029455Y-195093328D01*
X186029455Y-195093328D02*
X186743741Y-195093328D01*
X187386598Y-196450471D02*
X187458027Y-196521900D01*
X187458027Y-196521900D02*
X187386598Y-196593328D01*
X187386598Y-196593328D02*
X187315170Y-196521900D01*
X187315170Y-196521900D02*
X187386598Y-196450471D01*
X187386598Y-196450471D02*
X187386598Y-196593328D01*
X188100884Y-196593328D02*
X188100884Y-195093328D01*
X188100884Y-195093328D02*
X188458027Y-195093328D01*
X188458027Y-195093328D02*
X188672313Y-195164757D01*
X188672313Y-195164757D02*
X188815170Y-195307614D01*
X188815170Y-195307614D02*
X188886599Y-195450471D01*
X188886599Y-195450471D02*
X188958027Y-195736185D01*
X188958027Y-195736185D02*
X188958027Y-195950471D01*
X188958027Y-195950471D02*
X188886599Y-196236185D01*
X188886599Y-196236185D02*
X188815170Y-196379042D01*
X188815170Y-196379042D02*
X188672313Y-196521900D01*
X188672313Y-196521900D02*
X188458027Y-196593328D01*
X188458027Y-196593328D02*
X188100884Y-196593328D01*
X189600884Y-196450471D02*
X189672313Y-196521900D01*
X189672313Y-196521900D02*
X189600884Y-196593328D01*
X189600884Y-196593328D02*
X189529456Y-196521900D01*
X189529456Y-196521900D02*
X189600884Y-196450471D01*
X189600884Y-196450471D02*
X189600884Y-196593328D01*
X190243742Y-196164757D02*
X190958028Y-196164757D01*
X190100885Y-196593328D02*
X190600885Y-195093328D01*
X190600885Y-195093328D02*
X191100885Y-196593328D01*
X191600884Y-196450471D02*
X191672313Y-196521900D01*
X191672313Y-196521900D02*
X191600884Y-196593328D01*
X191600884Y-196593328D02*
X191529456Y-196521900D01*
X191529456Y-196521900D02*
X191600884Y-196450471D01*
X191600884Y-196450471D02*
X191600884Y-196593328D01*
X194600884Y-196593328D02*
X194600884Y-195093328D01*
X194743742Y-196021900D02*
X195172313Y-196593328D01*
X195172313Y-195593328D02*
X194600884Y-196164757D01*
X195815170Y-196593328D02*
X195815170Y-195593328D01*
X195815170Y-195093328D02*
X195743742Y-195164757D01*
X195743742Y-195164757D02*
X195815170Y-195236185D01*
X195815170Y-195236185D02*
X195886599Y-195164757D01*
X195886599Y-195164757D02*
X195815170Y-195093328D01*
X195815170Y-195093328D02*
X195815170Y-195236185D01*
X197172314Y-196521900D02*
X197029456Y-196593328D01*
X197029456Y-196593328D02*
X196743742Y-196593328D01*
X196743742Y-196593328D02*
X196600885Y-196521900D01*
X196600885Y-196521900D02*
X196529456Y-196450471D01*
X196529456Y-196450471D02*
X196458028Y-196307614D01*
X196458028Y-196307614D02*
X196458028Y-195879042D01*
X196458028Y-195879042D02*
X196529456Y-195736185D01*
X196529456Y-195736185D02*
X196600885Y-195664757D01*
X196600885Y-195664757D02*
X196743742Y-195593328D01*
X196743742Y-195593328D02*
X197029456Y-195593328D01*
X197029456Y-195593328D02*
X197172314Y-195664757D01*
X198458028Y-196593328D02*
X198458028Y-195807614D01*
X198458028Y-195807614D02*
X198386599Y-195664757D01*
X198386599Y-195664757D02*
X198243742Y-195593328D01*
X198243742Y-195593328D02*
X197958028Y-195593328D01*
X197958028Y-195593328D02*
X197815170Y-195664757D01*
X198458028Y-196521900D02*
X198315170Y-196593328D01*
X198315170Y-196593328D02*
X197958028Y-196593328D01*
X197958028Y-196593328D02*
X197815170Y-196521900D01*
X197815170Y-196521900D02*
X197743742Y-196379042D01*
X197743742Y-196379042D02*
X197743742Y-196236185D01*
X197743742Y-196236185D02*
X197815170Y-196093328D01*
X197815170Y-196093328D02*
X197958028Y-196021900D01*
X197958028Y-196021900D02*
X198315170Y-196021900D01*
X198315170Y-196021900D02*
X198458028Y-195950471D01*
X199815171Y-196593328D02*
X199815171Y-195093328D01*
X199815171Y-196521900D02*
X199672313Y-196593328D01*
X199672313Y-196593328D02*
X199386599Y-196593328D01*
X199386599Y-196593328D02*
X199243742Y-196521900D01*
X199243742Y-196521900D02*
X199172313Y-196450471D01*
X199172313Y-196450471D02*
X199100885Y-196307614D01*
X199100885Y-196307614D02*
X199100885Y-195879042D01*
X199100885Y-195879042D02*
X199172313Y-195736185D01*
X199172313Y-195736185D02*
X199243742Y-195664757D01*
X199243742Y-195664757D02*
X199386599Y-195593328D01*
X199386599Y-195593328D02*
X199672313Y-195593328D01*
X199672313Y-195593328D02*
X199815171Y-195664757D01*
X201529456Y-195093328D02*
X202529456Y-195093328D01*
X202529456Y-195093328D02*
X201886599Y-196593328D01*
X203100884Y-196450471D02*
X203172313Y-196521900D01*
X203172313Y-196521900D02*
X203100884Y-196593328D01*
X203100884Y-196593328D02*
X203029456Y-196521900D01*
X203029456Y-196521900D02*
X203100884Y-196450471D01*
X203100884Y-196450471D02*
X203100884Y-196593328D01*
X204100885Y-195093328D02*
X204243742Y-195093328D01*
X204243742Y-195093328D02*
X204386599Y-195164757D01*
X204386599Y-195164757D02*
X204458028Y-195236185D01*
X204458028Y-195236185D02*
X204529456Y-195379042D01*
X204529456Y-195379042D02*
X204600885Y-195664757D01*
X204600885Y-195664757D02*
X204600885Y-196021900D01*
X204600885Y-196021900D02*
X204529456Y-196307614D01*
X204529456Y-196307614D02*
X204458028Y-196450471D01*
X204458028Y-196450471D02*
X204386599Y-196521900D01*
X204386599Y-196521900D02*
X204243742Y-196593328D01*
X204243742Y-196593328D02*
X204100885Y-196593328D01*
X204100885Y-196593328D02*
X203958028Y-196521900D01*
X203958028Y-196521900D02*
X203886599Y-196450471D01*
X203886599Y-196450471D02*
X203815170Y-196307614D01*
X203815170Y-196307614D02*
X203743742Y-196021900D01*
X203743742Y-196021900D02*
X203743742Y-195664757D01*
X203743742Y-195664757D02*
X203815170Y-195379042D01*
X203815170Y-195379042D02*
X203886599Y-195236185D01*
X203886599Y-195236185D02*
X203958028Y-195164757D01*
X203958028Y-195164757D02*
X204100885Y-195093328D01*
X205243741Y-196450471D02*
X205315170Y-196521900D01*
X205315170Y-196521900D02*
X205243741Y-196593328D01*
X205243741Y-196593328D02*
X205172313Y-196521900D01*
X205172313Y-196521900D02*
X205243741Y-196450471D01*
X205243741Y-196450471D02*
X205243741Y-196593328D01*
X205815170Y-195093328D02*
X206815170Y-195093328D01*
X206815170Y-195093328D02*
X206172313Y-196593328D01*
D10*
D11*
X177002200Y-191507200D02*
X285002200Y-191507200D01*
D10*
D12*
X264413853Y-193785528D02*
X263913853Y-193071242D01*
X263556710Y-193785528D02*
X263556710Y-192285528D01*
X263556710Y-192285528D02*
X264128139Y-192285528D01*
X264128139Y-192285528D02*
X264270996Y-192356957D01*
X264270996Y-192356957D02*
X264342425Y-192428385D01*
X264342425Y-192428385D02*
X264413853Y-192571242D01*
X264413853Y-192571242D02*
X264413853Y-192785528D01*
X264413853Y-192785528D02*
X264342425Y-192928385D01*
X264342425Y-192928385D02*
X264270996Y-192999814D01*
X264270996Y-192999814D02*
X264128139Y-193071242D01*
X264128139Y-193071242D02*
X263556710Y-193071242D01*
X265628139Y-193714100D02*
X265485282Y-193785528D01*
X265485282Y-193785528D02*
X265199568Y-193785528D01*
X265199568Y-193785528D02*
X265056710Y-193714100D01*
X265056710Y-193714100D02*
X264985282Y-193571242D01*
X264985282Y-193571242D02*
X264985282Y-192999814D01*
X264985282Y-192999814D02*
X265056710Y-192856957D01*
X265056710Y-192856957D02*
X265199568Y-192785528D01*
X265199568Y-192785528D02*
X265485282Y-192785528D01*
X265485282Y-192785528D02*
X265628139Y-192856957D01*
X265628139Y-192856957D02*
X265699568Y-192999814D01*
X265699568Y-192999814D02*
X265699568Y-193142671D01*
X265699568Y-193142671D02*
X264985282Y-193285528D01*
X266199567Y-192785528D02*
X266556710Y-193785528D01*
X266556710Y-193785528D02*
X266913853Y-192785528D01*
X267485281Y-193642671D02*
X267556710Y-193714100D01*
X267556710Y-193714100D02*
X267485281Y-193785528D01*
X267485281Y-193785528D02*
X267413853Y-193714100D01*
X267413853Y-193714100D02*
X267485281Y-193642671D01*
X267485281Y-193642671D02*
X267485281Y-193785528D01*
X267485281Y-192856957D02*
X267556710Y-192928385D01*
X267556710Y-192928385D02*
X267485281Y-192999814D01*
X267485281Y-192999814D02*
X267413853Y-192928385D01*
X267413853Y-192928385D02*
X267485281Y-192856957D01*
X267485281Y-192856957D02*
X267485281Y-192999814D01*
X269199567Y-192785528D02*
X269556710Y-193785528D01*
X269556710Y-193785528D02*
X269913853Y-192785528D01*
X270770996Y-192285528D02*
X270913853Y-192285528D01*
X270913853Y-192285528D02*
X271056710Y-192356957D01*
X271056710Y-192356957D02*
X271128139Y-192428385D01*
X271128139Y-192428385D02*
X271199567Y-192571242D01*
X271199567Y-192571242D02*
X271270996Y-192856957D01*
X271270996Y-192856957D02*
X271270996Y-193214100D01*
X271270996Y-193214100D02*
X271199567Y-193499814D01*
X271199567Y-193499814D02*
X271128139Y-193642671D01*
X271128139Y-193642671D02*
X271056710Y-193714100D01*
X271056710Y-193714100D02*
X270913853Y-193785528D01*
X270913853Y-193785528D02*
X270770996Y-193785528D01*
X270770996Y-193785528D02*
X270628139Y-193714100D01*
X270628139Y-193714100D02*
X270556710Y-193642671D01*
X270556710Y-193642671D02*
X270485281Y-193499814D01*
X270485281Y-193499814D02*
X270413853Y-193214100D01*
X270413853Y-193214100D02*
X270413853Y-192856957D01*
X270413853Y-192856957D02*
X270485281Y-192571242D01*
X270485281Y-192571242D02*
X270556710Y-192428385D01*
X270556710Y-192428385D02*
X270628139Y-192356957D01*
X270628139Y-192356957D02*
X270770996Y-192285528D01*
X271842424Y-192428385D02*
X271913852Y-192356957D01*
X271913852Y-192356957D02*
X272056710Y-192285528D01*
X272056710Y-192285528D02*
X272413852Y-192285528D01*
X272413852Y-192285528D02*
X272556710Y-192356957D01*
X272556710Y-192356957D02*
X272628138Y-192428385D01*
X272628138Y-192428385D02*
X272699567Y-192571242D01*
X272699567Y-192571242D02*
X272699567Y-192714100D01*
X272699567Y-192714100D02*
X272628138Y-192928385D01*
X272628138Y-192928385D02*
X271770995Y-193785528D01*
X271770995Y-193785528D02*
X272699567Y-193785528D01*
D10*
D11*
X178386598Y-193721900D02*
X178600884Y-193793328D01*
X178600884Y-193793328D02*
X178958026Y-193793328D01*
X178958026Y-193793328D02*
X179100884Y-193721900D01*
X179100884Y-193721900D02*
X179172312Y-193650471D01*
X179172312Y-193650471D02*
X179243741Y-193507614D01*
X179243741Y-193507614D02*
X179243741Y-193364757D01*
X179243741Y-193364757D02*
X179172312Y-193221900D01*
X179172312Y-193221900D02*
X179100884Y-193150471D01*
X179100884Y-193150471D02*
X178958026Y-193079042D01*
X178958026Y-193079042D02*
X178672312Y-193007614D01*
X178672312Y-193007614D02*
X178529455Y-192936185D01*
X178529455Y-192936185D02*
X178458026Y-192864757D01*
X178458026Y-192864757D02*
X178386598Y-192721900D01*
X178386598Y-192721900D02*
X178386598Y-192579042D01*
X178386598Y-192579042D02*
X178458026Y-192436185D01*
X178458026Y-192436185D02*
X178529455Y-192364757D01*
X178529455Y-192364757D02*
X178672312Y-192293328D01*
X178672312Y-192293328D02*
X179029455Y-192293328D01*
X179029455Y-192293328D02*
X179243741Y-192364757D01*
X179886597Y-193793328D02*
X179886597Y-192793328D01*
X179886597Y-192293328D02*
X179815169Y-192364757D01*
X179815169Y-192364757D02*
X179886597Y-192436185D01*
X179886597Y-192436185D02*
X179958026Y-192364757D01*
X179958026Y-192364757D02*
X179886597Y-192293328D01*
X179886597Y-192293328D02*
X179886597Y-192436185D01*
X180458026Y-192793328D02*
X181243741Y-192793328D01*
X181243741Y-192793328D02*
X180458026Y-193793328D01*
X180458026Y-193793328D02*
X181243741Y-193793328D01*
X182386598Y-193721900D02*
X182243741Y-193793328D01*
X182243741Y-193793328D02*
X181958027Y-193793328D01*
X181958027Y-193793328D02*
X181815169Y-193721900D01*
X181815169Y-193721900D02*
X181743741Y-193579042D01*
X181743741Y-193579042D02*
X181743741Y-193007614D01*
X181743741Y-193007614D02*
X181815169Y-192864757D01*
X181815169Y-192864757D02*
X181958027Y-192793328D01*
X181958027Y-192793328D02*
X182243741Y-192793328D01*
X182243741Y-192793328D02*
X182386598Y-192864757D01*
X182386598Y-192864757D02*
X182458027Y-193007614D01*
X182458027Y-193007614D02*
X182458027Y-193150471D01*
X182458027Y-193150471D02*
X181743741Y-193293328D01*
X183100883Y-193650471D02*
X183172312Y-193721900D01*
X183172312Y-193721900D02*
X183100883Y-193793328D01*
X183100883Y-193793328D02*
X183029455Y-193721900D01*
X183029455Y-193721900D02*
X183100883Y-193650471D01*
X183100883Y-193650471D02*
X183100883Y-193793328D01*
X183100883Y-192864757D02*
X183172312Y-192936185D01*
X183172312Y-192936185D02*
X183100883Y-193007614D01*
X183100883Y-193007614D02*
X183029455Y-192936185D01*
X183029455Y-192936185D02*
X183100883Y-192864757D01*
X183100883Y-192864757D02*
X183100883Y-193007614D01*
X184886598Y-193364757D02*
X185600884Y-193364757D01*
X184743741Y-193793328D02*
X185243741Y-192293328D01*
X185243741Y-192293328D02*
X185743741Y-193793328D01*
X186886598Y-192793328D02*
X186886598Y-193793328D01*
X186529455Y-192221900D02*
X186172312Y-193293328D01*
X186172312Y-193293328D02*
X187100883Y-193293328D01*
D10*
D11*
X263458026Y-196593328D02*
X263458026Y-195093328D01*
X264815170Y-196593328D02*
X264815170Y-195093328D01*
X264815170Y-196521900D02*
X264672312Y-196593328D01*
X264672312Y-196593328D02*
X264386598Y-196593328D01*
X264386598Y-196593328D02*
X264243741Y-196521900D01*
X264243741Y-196521900D02*
X264172312Y-196450471D01*
X264172312Y-196450471D02*
X264100884Y-196307614D01*
X264100884Y-196307614D02*
X264100884Y-195879042D01*
X264100884Y-195879042D02*
X264172312Y-195736185D01*
X264172312Y-195736185D02*
X264243741Y-195664757D01*
X264243741Y-195664757D02*
X264386598Y-195593328D01*
X264386598Y-195593328D02*
X264672312Y-195593328D01*
X264672312Y-195593328D02*
X264815170Y-195664757D01*
X265529455Y-196450471D02*
X265600884Y-196521900D01*
X265600884Y-196521900D02*
X265529455Y-196593328D01*
X265529455Y-196593328D02*
X265458027Y-196521900D01*
X265458027Y-196521900D02*
X265529455Y-196450471D01*
X265529455Y-196450471D02*
X265529455Y-196593328D01*
X265529455Y-195664757D02*
X265600884Y-195736185D01*
X265600884Y-195736185D02*
X265529455Y-195807614D01*
X265529455Y-195807614D02*
X265458027Y-195736185D01*
X265458027Y-195736185D02*
X265529455Y-195664757D01*
X265529455Y-195664757D02*
X265529455Y-195807614D01*
X268172313Y-196593328D02*
X267315170Y-196593328D01*
X267743741Y-196593328D02*
X267743741Y-195093328D01*
X267743741Y-195093328D02*
X267600884Y-195307614D01*
X267600884Y-195307614D02*
X267458027Y-195450471D01*
X267458027Y-195450471D02*
X267315170Y-195521900D01*
X269886598Y-195021900D02*
X268600884Y-196950471D01*
X271172313Y-196593328D02*
X270315170Y-196593328D01*
X270743741Y-196593328D02*
X270743741Y-195093328D01*
X270743741Y-195093328D02*
X270600884Y-195307614D01*
X270600884Y-195307614D02*
X270458027Y-195450471D01*
X270458027Y-195450471D02*
X270315170Y-195521900D01*
D10*
D11*
X177002200Y-187507200D02*
X285002200Y-187507200D01*
D10*
D13*
X178693928Y-188211638D02*
X179836785Y-188211638D01*
X179015357Y-190211638D02*
X179265357Y-188211638D01*
X180253452Y-190211638D02*
X180420119Y-188878304D01*
X180503452Y-188211638D02*
X180396309Y-188306876D01*
X180396309Y-188306876D02*
X180479643Y-188402114D01*
X180479643Y-188402114D02*
X180586786Y-188306876D01*
X180586786Y-188306876D02*
X180503452Y-188211638D01*
X180503452Y-188211638D02*
X180479643Y-188402114D01*
X181086786Y-188878304D02*
X181848690Y-188878304D01*
X181455833Y-188211638D02*
X181241548Y-189925923D01*
X181241548Y-189925923D02*
X181312976Y-190116400D01*
X181312976Y-190116400D02*
X181491548Y-190211638D01*
X181491548Y-190211638D02*
X181682024Y-190211638D01*
X182634405Y-190211638D02*
X182455833Y-190116400D01*
X182455833Y-190116400D02*
X182384405Y-189925923D01*
X182384405Y-189925923D02*
X182598690Y-188211638D01*
X184170119Y-190116400D02*
X183967738Y-190211638D01*
X183967738Y-190211638D02*
X183586785Y-190211638D01*
X183586785Y-190211638D02*
X183408214Y-190116400D01*
X183408214Y-190116400D02*
X183336785Y-189925923D01*
X183336785Y-189925923D02*
X183432024Y-189164019D01*
X183432024Y-189164019D02*
X183551071Y-188973542D01*
X183551071Y-188973542D02*
X183753452Y-188878304D01*
X183753452Y-188878304D02*
X184134404Y-188878304D01*
X184134404Y-188878304D02*
X184312976Y-188973542D01*
X184312976Y-188973542D02*
X184384404Y-189164019D01*
X184384404Y-189164019D02*
X184360595Y-189354495D01*
X184360595Y-189354495D02*
X183384404Y-189544971D01*
X185134405Y-190021161D02*
X185217738Y-190116400D01*
X185217738Y-190116400D02*
X185110595Y-190211638D01*
X185110595Y-190211638D02*
X185027262Y-190116400D01*
X185027262Y-190116400D02*
X185134405Y-190021161D01*
X185134405Y-190021161D02*
X185110595Y-190211638D01*
X185265357Y-188973542D02*
X185348690Y-189068780D01*
X185348690Y-189068780D02*
X185241548Y-189164019D01*
X185241548Y-189164019D02*
X185158214Y-189068780D01*
X185158214Y-189068780D02*
X185265357Y-188973542D01*
X185265357Y-188973542D02*
X185241548Y-189164019D01*
X188729643Y-190211638D02*
X188182024Y-189259257D01*
X187586786Y-190211638D02*
X187836786Y-188211638D01*
X187836786Y-188211638D02*
X188598691Y-188211638D01*
X188598691Y-188211638D02*
X188777262Y-188306876D01*
X188777262Y-188306876D02*
X188860596Y-188402114D01*
X188860596Y-188402114D02*
X188932024Y-188592590D01*
X188932024Y-188592590D02*
X188896310Y-188878304D01*
X188896310Y-188878304D02*
X188777262Y-189068780D01*
X188777262Y-189068780D02*
X188670120Y-189164019D01*
X188670120Y-189164019D02*
X188467739Y-189259257D01*
X188467739Y-189259257D02*
X187705834Y-189259257D01*
X190872501Y-188306876D02*
X190693929Y-188211638D01*
X190693929Y-188211638D02*
X190408215Y-188211638D01*
X190408215Y-188211638D02*
X190110596Y-188306876D01*
X190110596Y-188306876D02*
X189896310Y-188497352D01*
X189896310Y-188497352D02*
X189777262Y-188687828D01*
X189777262Y-188687828D02*
X189634405Y-189068780D01*
X189634405Y-189068780D02*
X189598691Y-189354495D01*
X189598691Y-189354495D02*
X189646310Y-189735447D01*
X189646310Y-189735447D02*
X189717739Y-189925923D01*
X189717739Y-189925923D02*
X189884405Y-190116400D01*
X189884405Y-190116400D02*
X190158215Y-190211638D01*
X190158215Y-190211638D02*
X190348691Y-190211638D01*
X190348691Y-190211638D02*
X190646310Y-190116400D01*
X190646310Y-190116400D02*
X190753453Y-190021161D01*
X190753453Y-190021161D02*
X190836786Y-189354495D01*
X190836786Y-189354495D02*
X190455834Y-189354495D01*
X192384405Y-189164019D02*
X192658215Y-189259257D01*
X192658215Y-189259257D02*
X192741548Y-189354495D01*
X192741548Y-189354495D02*
X192812977Y-189544971D01*
X192812977Y-189544971D02*
X192777262Y-189830685D01*
X192777262Y-189830685D02*
X192658215Y-190021161D01*
X192658215Y-190021161D02*
X192551072Y-190116400D01*
X192551072Y-190116400D02*
X192348691Y-190211638D01*
X192348691Y-190211638D02*
X191586786Y-190211638D01*
X191586786Y-190211638D02*
X191836786Y-188211638D01*
X191836786Y-188211638D02*
X192503453Y-188211638D01*
X192503453Y-188211638D02*
X192682024Y-188306876D01*
X192682024Y-188306876D02*
X192765358Y-188402114D01*
X192765358Y-188402114D02*
X192836786Y-188592590D01*
X192836786Y-188592590D02*
X192812977Y-188783066D01*
X192812977Y-188783066D02*
X192693929Y-188973542D01*
X192693929Y-188973542D02*
X192586786Y-189068780D01*
X192586786Y-189068780D02*
X192384405Y-189164019D01*
X192384405Y-189164019D02*
X191717739Y-189164019D01*
X196062977Y-190211638D02*
X195110596Y-190211638D01*
X195110596Y-190211638D02*
X195360596Y-188211638D01*
X196860597Y-189164019D02*
X197527263Y-189164019D01*
X197682025Y-190211638D02*
X196729644Y-190211638D01*
X196729644Y-190211638D02*
X196979644Y-188211638D01*
X196979644Y-188211638D02*
X197932025Y-188211638D01*
X198539168Y-190211638D02*
X198789168Y-188211638D01*
X198789168Y-188211638D02*
X199265359Y-188211638D01*
X199265359Y-188211638D02*
X199539168Y-188306876D01*
X199539168Y-188306876D02*
X199705835Y-188497352D01*
X199705835Y-188497352D02*
X199777263Y-188687828D01*
X199777263Y-188687828D02*
X199824883Y-189068780D01*
X199824883Y-189068780D02*
X199789168Y-189354495D01*
X199789168Y-189354495D02*
X199646311Y-189735447D01*
X199646311Y-189735447D02*
X199527263Y-189925923D01*
X199527263Y-189925923D02*
X199312978Y-190116400D01*
X199312978Y-190116400D02*
X199015359Y-190211638D01*
X199015359Y-190211638D02*
X198539168Y-190211638D01*
X201979645Y-190116400D02*
X202253454Y-190211638D01*
X202253454Y-190211638D02*
X202729645Y-190211638D01*
X202729645Y-190211638D02*
X202932026Y-190116400D01*
X202932026Y-190116400D02*
X203039169Y-190021161D01*
X203039169Y-190021161D02*
X203158216Y-189830685D01*
X203158216Y-189830685D02*
X203182026Y-189640209D01*
X203182026Y-189640209D02*
X203110597Y-189449733D01*
X203110597Y-189449733D02*
X203027264Y-189354495D01*
X203027264Y-189354495D02*
X202848693Y-189259257D01*
X202848693Y-189259257D02*
X202479645Y-189164019D01*
X202479645Y-189164019D02*
X202301073Y-189068780D01*
X202301073Y-189068780D02*
X202217740Y-188973542D01*
X202217740Y-188973542D02*
X202146312Y-188783066D01*
X202146312Y-188783066D02*
X202170121Y-188592590D01*
X202170121Y-188592590D02*
X202289169Y-188402114D01*
X202289169Y-188402114D02*
X202396312Y-188306876D01*
X202396312Y-188306876D02*
X202598693Y-188211638D01*
X202598693Y-188211638D02*
X203074883Y-188211638D01*
X203074883Y-188211638D02*
X203348693Y-188306876D01*
X203932026Y-188211638D02*
X205074883Y-188211638D01*
X204253455Y-190211638D02*
X204503455Y-188211638D01*
X206634407Y-190211638D02*
X206086788Y-189259257D01*
X205491550Y-190211638D02*
X205741550Y-188211638D01*
X205741550Y-188211638D02*
X206503455Y-188211638D01*
X206503455Y-188211638D02*
X206682026Y-188306876D01*
X206682026Y-188306876D02*
X206765360Y-188402114D01*
X206765360Y-188402114D02*
X206836788Y-188592590D01*
X206836788Y-188592590D02*
X206801074Y-188878304D01*
X206801074Y-188878304D02*
X206682026Y-189068780D01*
X206682026Y-189068780D02*
X206574884Y-189164019D01*
X206574884Y-189164019D02*
X206372503Y-189259257D01*
X206372503Y-189259257D02*
X205610598Y-189259257D01*
X207491550Y-190211638D02*
X207741550Y-188211638D01*
X208443931Y-190211638D02*
X208693931Y-188211638D01*
X208693931Y-188211638D02*
X209455836Y-188211638D01*
X209455836Y-188211638D02*
X209634407Y-188306876D01*
X209634407Y-188306876D02*
X209717741Y-188402114D01*
X209717741Y-188402114D02*
X209789169Y-188592590D01*
X209789169Y-188592590D02*
X209753455Y-188878304D01*
X209753455Y-188878304D02*
X209634407Y-189068780D01*
X209634407Y-189068780D02*
X209527265Y-189164019D01*
X209527265Y-189164019D02*
X209324884Y-189259257D01*
X209324884Y-189259257D02*
X208562979Y-189259257D01*
X211967741Y-190211638D02*
X212217741Y-188211638D01*
X212217741Y-188211638D02*
X212693932Y-188211638D01*
X212693932Y-188211638D02*
X212967741Y-188306876D01*
X212967741Y-188306876D02*
X213134408Y-188497352D01*
X213134408Y-188497352D02*
X213205836Y-188687828D01*
X213205836Y-188687828D02*
X213253456Y-189068780D01*
X213253456Y-189068780D02*
X213217741Y-189354495D01*
X213217741Y-189354495D02*
X213074884Y-189735447D01*
X213074884Y-189735447D02*
X212955836Y-189925923D01*
X212955836Y-189925923D02*
X212741551Y-190116400D01*
X212741551Y-190116400D02*
X212443932Y-190211638D01*
X212443932Y-190211638D02*
X211967741Y-190211638D01*
X215110598Y-190211638D02*
X214562979Y-189259257D01*
X213967741Y-190211638D02*
X214217741Y-188211638D01*
X214217741Y-188211638D02*
X214979646Y-188211638D01*
X214979646Y-188211638D02*
X215158217Y-188306876D01*
X215158217Y-188306876D02*
X215241551Y-188402114D01*
X215241551Y-188402114D02*
X215312979Y-188592590D01*
X215312979Y-188592590D02*
X215277265Y-188878304D01*
X215277265Y-188878304D02*
X215158217Y-189068780D01*
X215158217Y-189068780D02*
X215051075Y-189164019D01*
X215051075Y-189164019D02*
X214848694Y-189259257D01*
X214848694Y-189259257D02*
X214086789Y-189259257D01*
X215967741Y-190211638D02*
X216217741Y-188211638D01*
X216884408Y-188211638D02*
X217301075Y-190211638D01*
X217301075Y-190211638D02*
X218217741Y-188211638D01*
X218765361Y-189164019D02*
X219432027Y-189164019D01*
X219586789Y-190211638D02*
X218634408Y-190211638D01*
X218634408Y-190211638D02*
X218884408Y-188211638D01*
X218884408Y-188211638D02*
X219836789Y-188211638D01*
X221586789Y-190211638D02*
X221039170Y-189259257D01*
X220443932Y-190211638D02*
X220693932Y-188211638D01*
X220693932Y-188211638D02*
X221455837Y-188211638D01*
X221455837Y-188211638D02*
X221634408Y-188306876D01*
X221634408Y-188306876D02*
X221717742Y-188402114D01*
X221717742Y-188402114D02*
X221789170Y-188592590D01*
X221789170Y-188592590D02*
X221753456Y-188878304D01*
X221753456Y-188878304D02*
X221634408Y-189068780D01*
X221634408Y-189068780D02*
X221527266Y-189164019D01*
X221527266Y-189164019D02*
X221324885Y-189259257D01*
X221324885Y-189259257D02*
X220562980Y-189259257D01*
D10*
D11*
X178958026Y-185607614D02*
X178458026Y-185607614D01*
X178458026Y-186393328D02*
X178458026Y-184893328D01*
X178458026Y-184893328D02*
X179172312Y-184893328D01*
X179743740Y-186393328D02*
X179743740Y-185393328D01*
X179743740Y-184893328D02*
X179672312Y-184964757D01*
X179672312Y-184964757D02*
X179743740Y-185036185D01*
X179743740Y-185036185D02*
X179815169Y-184964757D01*
X179815169Y-184964757D02*
X179743740Y-184893328D01*
X179743740Y-184893328D02*
X179743740Y-185036185D01*
X180672312Y-186393328D02*
X180529455Y-186321900D01*
X180529455Y-186321900D02*
X180458026Y-186179042D01*
X180458026Y-186179042D02*
X180458026Y-184893328D01*
X181815169Y-186321900D02*
X181672312Y-186393328D01*
X181672312Y-186393328D02*
X181386598Y-186393328D01*
X181386598Y-186393328D02*
X181243740Y-186321900D01*
X181243740Y-186321900D02*
X181172312Y-186179042D01*
X181172312Y-186179042D02*
X181172312Y-185607614D01*
X181172312Y-185607614D02*
X181243740Y-185464757D01*
X181243740Y-185464757D02*
X181386598Y-185393328D01*
X181386598Y-185393328D02*
X181672312Y-185393328D01*
X181672312Y-185393328D02*
X181815169Y-185464757D01*
X181815169Y-185464757D02*
X181886598Y-185607614D01*
X181886598Y-185607614D02*
X181886598Y-185750471D01*
X181886598Y-185750471D02*
X181172312Y-185893328D01*
X182529454Y-186250471D02*
X182600883Y-186321900D01*
X182600883Y-186321900D02*
X182529454Y-186393328D01*
X182529454Y-186393328D02*
X182458026Y-186321900D01*
X182458026Y-186321900D02*
X182529454Y-186250471D01*
X182529454Y-186250471D02*
X182529454Y-186393328D01*
X182529454Y-185464757D02*
X182600883Y-185536185D01*
X182600883Y-185536185D02*
X182529454Y-185607614D01*
X182529454Y-185607614D02*
X182458026Y-185536185D01*
X182458026Y-185536185D02*
X182529454Y-185464757D01*
X182529454Y-185464757D02*
X182529454Y-185607614D01*
X184386597Y-186393328D02*
X184386597Y-184893328D01*
X184386597Y-184893328D02*
X184743740Y-184893328D01*
X184743740Y-184893328D02*
X184958026Y-184964757D01*
X184958026Y-184964757D02*
X185100883Y-185107614D01*
X185100883Y-185107614D02*
X185172312Y-185250471D01*
X185172312Y-185250471D02*
X185243740Y-185536185D01*
X185243740Y-185536185D02*
X185243740Y-185750471D01*
X185243740Y-185750471D02*
X185172312Y-186036185D01*
X185172312Y-186036185D02*
X185100883Y-186179042D01*
X185100883Y-186179042D02*
X184958026Y-186321900D01*
X184958026Y-186321900D02*
X184743740Y-186393328D01*
X184743740Y-186393328D02*
X184386597Y-186393328D01*
X185886597Y-186393328D02*
X185886597Y-185393328D01*
X185886597Y-185679042D02*
X185958026Y-185536185D01*
X185958026Y-185536185D02*
X186029455Y-185464757D01*
X186029455Y-185464757D02*
X186172312Y-185393328D01*
X186172312Y-185393328D02*
X186315169Y-185393328D01*
X186815168Y-186393328D02*
X186815168Y-185393328D01*
X186815168Y-184893328D02*
X186743740Y-184964757D01*
X186743740Y-184964757D02*
X186815168Y-185036185D01*
X186815168Y-185036185D02*
X186886597Y-184964757D01*
X186886597Y-184964757D02*
X186815168Y-184893328D01*
X186815168Y-184893328D02*
X186815168Y-185036185D01*
X187386597Y-185393328D02*
X187743740Y-186393328D01*
X187743740Y-186393328D02*
X188100883Y-185393328D01*
X189243740Y-186321900D02*
X189100883Y-186393328D01*
X189100883Y-186393328D02*
X188815169Y-186393328D01*
X188815169Y-186393328D02*
X188672311Y-186321900D01*
X188672311Y-186321900D02*
X188600883Y-186179042D01*
X188600883Y-186179042D02*
X188600883Y-185607614D01*
X188600883Y-185607614D02*
X188672311Y-185464757D01*
X188672311Y-185464757D02*
X188815169Y-185393328D01*
X188815169Y-185393328D02*
X189100883Y-185393328D01*
X189100883Y-185393328D02*
X189243740Y-185464757D01*
X189243740Y-185464757D02*
X189315169Y-185607614D01*
X189315169Y-185607614D02*
X189315169Y-185750471D01*
X189315169Y-185750471D02*
X188600883Y-185893328D01*
X189958025Y-186393328D02*
X189958025Y-185393328D01*
X189958025Y-185679042D02*
X190029454Y-185536185D01*
X190029454Y-185536185D02*
X190100883Y-185464757D01*
X190100883Y-185464757D02*
X190243740Y-185393328D01*
X190243740Y-185393328D02*
X190386597Y-185393328D01*
X191743739Y-186393328D02*
X191243739Y-185679042D01*
X190886596Y-186393328D02*
X190886596Y-184893328D01*
X190886596Y-184893328D02*
X191458025Y-184893328D01*
X191458025Y-184893328D02*
X191600882Y-184964757D01*
X191600882Y-184964757D02*
X191672311Y-185036185D01*
X191672311Y-185036185D02*
X191743739Y-185179042D01*
X191743739Y-185179042D02*
X191743739Y-185393328D01*
X191743739Y-185393328D02*
X191672311Y-185536185D01*
X191672311Y-185536185D02*
X191600882Y-185607614D01*
X191600882Y-185607614D02*
X191458025Y-185679042D01*
X191458025Y-185679042D02*
X190886596Y-185679042D01*
X193172311Y-184964757D02*
X193029454Y-184893328D01*
X193029454Y-184893328D02*
X192815168Y-184893328D01*
X192815168Y-184893328D02*
X192600882Y-184964757D01*
X192600882Y-184964757D02*
X192458025Y-185107614D01*
X192458025Y-185107614D02*
X192386596Y-185250471D01*
X192386596Y-185250471D02*
X192315168Y-185536185D01*
X192315168Y-185536185D02*
X192315168Y-185750471D01*
X192315168Y-185750471D02*
X192386596Y-186036185D01*
X192386596Y-186036185D02*
X192458025Y-186179042D01*
X192458025Y-186179042D02*
X192600882Y-186321900D01*
X192600882Y-186321900D02*
X192815168Y-186393328D01*
X192815168Y-186393328D02*
X192958025Y-186393328D01*
X192958025Y-186393328D02*
X193172311Y-186321900D01*
X193172311Y-186321900D02*
X193243739Y-186250471D01*
X193243739Y-186250471D02*
X193243739Y-185750471D01*
X193243739Y-185750471D02*
X192958025Y-185750471D01*
X194386596Y-185607614D02*
X194600882Y-185679042D01*
X194600882Y-185679042D02*
X194672311Y-185750471D01*
X194672311Y-185750471D02*
X194743739Y-185893328D01*
X194743739Y-185893328D02*
X194743739Y-186107614D01*
X194743739Y-186107614D02*
X194672311Y-186250471D01*
X194672311Y-186250471D02*
X194600882Y-186321900D01*
X194600882Y-186321900D02*
X194458025Y-186393328D01*
X194458025Y-186393328D02*
X193886596Y-186393328D01*
X193886596Y-186393328D02*
X193886596Y-184893328D01*
X193886596Y-184893328D02*
X194386596Y-184893328D01*
X194386596Y-184893328D02*
X194529454Y-184964757D01*
X194529454Y-184964757D02*
X194600882Y-185036185D01*
X194600882Y-185036185D02*
X194672311Y-185179042D01*
X194672311Y-185179042D02*
X194672311Y-185321900D01*
X194672311Y-185321900D02*
X194600882Y-185464757D01*
X194600882Y-185464757D02*
X194529454Y-185536185D01*
X194529454Y-185536185D02*
X194386596Y-185607614D01*
X194386596Y-185607614D02*
X193886596Y-185607614D01*
X195029454Y-186536185D02*
X196172311Y-186536185D01*
X196386596Y-185393328D02*
X196743739Y-186393328D01*
X196743739Y-186393328D02*
X197100882Y-185393328D01*
X197600882Y-185036185D02*
X197672310Y-184964757D01*
X197672310Y-184964757D02*
X197815168Y-184893328D01*
X197815168Y-184893328D02*
X198172310Y-184893328D01*
X198172310Y-184893328D02*
X198315168Y-184964757D01*
X198315168Y-184964757D02*
X198386596Y-185036185D01*
X198386596Y-185036185D02*
X198458025Y-185179042D01*
X198458025Y-185179042D02*
X198458025Y-185321900D01*
X198458025Y-185321900D02*
X198386596Y-185536185D01*
X198386596Y-185536185D02*
X197529453Y-186393328D01*
X197529453Y-186393328D02*
X198458025Y-186393328D01*
X199100881Y-186250471D02*
X199172310Y-186321900D01*
X199172310Y-186321900D02*
X199100881Y-186393328D01*
X199100881Y-186393328D02*
X199029453Y-186321900D01*
X199029453Y-186321900D02*
X199100881Y-186250471D01*
X199100881Y-186250471D02*
X199100881Y-186393328D01*
X199815167Y-186393328D02*
X199815167Y-184893328D01*
X199958025Y-185821900D02*
X200386596Y-186393328D01*
X200386596Y-185393328D02*
X199815167Y-185964757D01*
X201029453Y-186393328D02*
X201029453Y-185393328D01*
X201029453Y-184893328D02*
X200958025Y-184964757D01*
X200958025Y-184964757D02*
X201029453Y-185036185D01*
X201029453Y-185036185D02*
X201100882Y-184964757D01*
X201100882Y-184964757D02*
X201029453Y-184893328D01*
X201029453Y-184893328D02*
X201029453Y-185036185D01*
X202386597Y-186321900D02*
X202243739Y-186393328D01*
X202243739Y-186393328D02*
X201958025Y-186393328D01*
X201958025Y-186393328D02*
X201815168Y-186321900D01*
X201815168Y-186321900D02*
X201743739Y-186250471D01*
X201743739Y-186250471D02*
X201672311Y-186107614D01*
X201672311Y-186107614D02*
X201672311Y-185679042D01*
X201672311Y-185679042D02*
X201743739Y-185536185D01*
X201743739Y-185536185D02*
X201815168Y-185464757D01*
X201815168Y-185464757D02*
X201958025Y-185393328D01*
X201958025Y-185393328D02*
X202243739Y-185393328D01*
X202243739Y-185393328D02*
X202386597Y-185464757D01*
X203672311Y-186393328D02*
X203672311Y-185607614D01*
X203672311Y-185607614D02*
X203600882Y-185464757D01*
X203600882Y-185464757D02*
X203458025Y-185393328D01*
X203458025Y-185393328D02*
X203172311Y-185393328D01*
X203172311Y-185393328D02*
X203029453Y-185464757D01*
X203672311Y-186321900D02*
X203529453Y-186393328D01*
X203529453Y-186393328D02*
X203172311Y-186393328D01*
X203172311Y-186393328D02*
X203029453Y-186321900D01*
X203029453Y-186321900D02*
X202958025Y-186179042D01*
X202958025Y-186179042D02*
X202958025Y-186036185D01*
X202958025Y-186036185D02*
X203029453Y-185893328D01*
X203029453Y-185893328D02*
X203172311Y-185821900D01*
X203172311Y-185821900D02*
X203529453Y-185821900D01*
X203529453Y-185821900D02*
X203672311Y-185750471D01*
X205029454Y-186393328D02*
X205029454Y-184893328D01*
X205029454Y-186321900D02*
X204886596Y-186393328D01*
X204886596Y-186393328D02*
X204600882Y-186393328D01*
X204600882Y-186393328D02*
X204458025Y-186321900D01*
X204458025Y-186321900D02*
X204386596Y-186250471D01*
X204386596Y-186250471D02*
X204315168Y-186107614D01*
X204315168Y-186107614D02*
X204315168Y-185679042D01*
X204315168Y-185679042D02*
X204386596Y-185536185D01*
X204386596Y-185536185D02*
X204458025Y-185464757D01*
X204458025Y-185464757D02*
X204600882Y-185393328D01*
X204600882Y-185393328D02*
X204886596Y-185393328D01*
X204886596Y-185393328D02*
X205029454Y-185464757D01*
X205386597Y-186536185D02*
X206529454Y-186536185D01*
X206886596Y-185393328D02*
X206886596Y-186893328D01*
X206886596Y-185464757D02*
X207029454Y-185393328D01*
X207029454Y-185393328D02*
X207315168Y-185393328D01*
X207315168Y-185393328D02*
X207458025Y-185464757D01*
X207458025Y-185464757D02*
X207529454Y-185536185D01*
X207529454Y-185536185D02*
X207600882Y-185679042D01*
X207600882Y-185679042D02*
X207600882Y-186107614D01*
X207600882Y-186107614D02*
X207529454Y-186250471D01*
X207529454Y-186250471D02*
X207458025Y-186321900D01*
X207458025Y-186321900D02*
X207315168Y-186393328D01*
X207315168Y-186393328D02*
X207029454Y-186393328D01*
X207029454Y-186393328D02*
X206886596Y-186321900D01*
X208886597Y-186321900D02*
X208743739Y-186393328D01*
X208743739Y-186393328D02*
X208458025Y-186393328D01*
X208458025Y-186393328D02*
X208315168Y-186321900D01*
X208315168Y-186321900D02*
X208243739Y-186250471D01*
X208243739Y-186250471D02*
X208172311Y-186107614D01*
X208172311Y-186107614D02*
X208172311Y-185679042D01*
X208172311Y-185679042D02*
X208243739Y-185536185D01*
X208243739Y-185536185D02*
X208315168Y-185464757D01*
X208315168Y-185464757D02*
X208458025Y-185393328D01*
X208458025Y-185393328D02*
X208743739Y-185393328D01*
X208743739Y-185393328D02*
X208886597Y-185464757D01*
X209529453Y-186393328D02*
X209529453Y-184893328D01*
X209529453Y-185464757D02*
X209672311Y-185393328D01*
X209672311Y-185393328D02*
X209958025Y-185393328D01*
X209958025Y-185393328D02*
X210100882Y-185464757D01*
X210100882Y-185464757D02*
X210172311Y-185536185D01*
X210172311Y-185536185D02*
X210243739Y-185679042D01*
X210243739Y-185679042D02*
X210243739Y-186107614D01*
X210243739Y-186107614D02*
X210172311Y-186250471D01*
X210172311Y-186250471D02*
X210100882Y-186321900D01*
X210100882Y-186321900D02*
X209958025Y-186393328D01*
X209958025Y-186393328D02*
X209672311Y-186393328D01*
X209672311Y-186393328D02*
X209529453Y-186321900D01*
D10*
D11*
X177002200Y-181507200D02*
X285002200Y-181507200D01*
D10*
D11*
X178386598Y-183621900D02*
X178600884Y-183693328D01*
X178600884Y-183693328D02*
X178958026Y-183693328D01*
X178958026Y-183693328D02*
X179100884Y-183621900D01*
X179100884Y-183621900D02*
X179172312Y-183550471D01*
X179172312Y-183550471D02*
X179243741Y-183407614D01*
X179243741Y-183407614D02*
X179243741Y-183264757D01*
X179243741Y-183264757D02*
X179172312Y-183121900D01*
X179172312Y-183121900D02*
X179100884Y-183050471D01*
X179100884Y-183050471D02*
X178958026Y-182979042D01*
X178958026Y-182979042D02*
X178672312Y-182907614D01*
X178672312Y-182907614D02*
X178529455Y-182836185D01*
X178529455Y-182836185D02*
X178458026Y-182764757D01*
X178458026Y-182764757D02*
X178386598Y-182621900D01*
X178386598Y-182621900D02*
X178386598Y-182479042D01*
X178386598Y-182479042D02*
X178458026Y-182336185D01*
X178458026Y-182336185D02*
X178529455Y-182264757D01*
X178529455Y-182264757D02*
X178672312Y-182193328D01*
X178672312Y-182193328D02*
X179029455Y-182193328D01*
X179029455Y-182193328D02*
X179243741Y-182264757D01*
X179886597Y-183693328D02*
X179886597Y-182193328D01*
X180529455Y-183693328D02*
X180529455Y-182907614D01*
X180529455Y-182907614D02*
X180458026Y-182764757D01*
X180458026Y-182764757D02*
X180315169Y-182693328D01*
X180315169Y-182693328D02*
X180100883Y-182693328D01*
X180100883Y-182693328D02*
X179958026Y-182764757D01*
X179958026Y-182764757D02*
X179886597Y-182836185D01*
X181815169Y-183621900D02*
X181672312Y-183693328D01*
X181672312Y-183693328D02*
X181386598Y-183693328D01*
X181386598Y-183693328D02*
X181243740Y-183621900D01*
X181243740Y-183621900D02*
X181172312Y-183479042D01*
X181172312Y-183479042D02*
X181172312Y-182907614D01*
X181172312Y-182907614D02*
X181243740Y-182764757D01*
X181243740Y-182764757D02*
X181386598Y-182693328D01*
X181386598Y-182693328D02*
X181672312Y-182693328D01*
X181672312Y-182693328D02*
X181815169Y-182764757D01*
X181815169Y-182764757D02*
X181886598Y-182907614D01*
X181886598Y-182907614D02*
X181886598Y-183050471D01*
X181886598Y-183050471D02*
X181172312Y-183193328D01*
X183100883Y-183621900D02*
X182958026Y-183693328D01*
X182958026Y-183693328D02*
X182672312Y-183693328D01*
X182672312Y-183693328D02*
X182529454Y-183621900D01*
X182529454Y-183621900D02*
X182458026Y-183479042D01*
X182458026Y-183479042D02*
X182458026Y-182907614D01*
X182458026Y-182907614D02*
X182529454Y-182764757D01*
X182529454Y-182764757D02*
X182672312Y-182693328D01*
X182672312Y-182693328D02*
X182958026Y-182693328D01*
X182958026Y-182693328D02*
X183100883Y-182764757D01*
X183100883Y-182764757D02*
X183172312Y-182907614D01*
X183172312Y-182907614D02*
X183172312Y-183050471D01*
X183172312Y-183050471D02*
X182458026Y-183193328D01*
X183600883Y-182693328D02*
X184172311Y-182693328D01*
X183815168Y-182193328D02*
X183815168Y-183479042D01*
X183815168Y-183479042D02*
X183886597Y-183621900D01*
X183886597Y-183621900D02*
X184029454Y-183693328D01*
X184029454Y-183693328D02*
X184172311Y-183693328D01*
X184672311Y-183550471D02*
X184743740Y-183621900D01*
X184743740Y-183621900D02*
X184672311Y-183693328D01*
X184672311Y-183693328D02*
X184600883Y-183621900D01*
X184600883Y-183621900D02*
X184672311Y-183550471D01*
X184672311Y-183550471D02*
X184672311Y-183693328D01*
X184672311Y-182764757D02*
X184743740Y-182836185D01*
X184743740Y-182836185D02*
X184672311Y-182907614D01*
X184672311Y-182907614D02*
X184600883Y-182836185D01*
X184600883Y-182836185D02*
X184672311Y-182764757D01*
X184672311Y-182764757D02*
X184672311Y-182907614D01*
D10*
D12*
X178556710Y-180685528D02*
X178556710Y-179185528D01*
X178556710Y-179185528D02*
X179128139Y-179185528D01*
X179128139Y-179185528D02*
X179270996Y-179256957D01*
X179270996Y-179256957D02*
X179342425Y-179328385D01*
X179342425Y-179328385D02*
X179413853Y-179471242D01*
X179413853Y-179471242D02*
X179413853Y-179685528D01*
X179413853Y-179685528D02*
X179342425Y-179828385D01*
X179342425Y-179828385D02*
X179270996Y-179899814D01*
X179270996Y-179899814D02*
X179128139Y-179971242D01*
X179128139Y-179971242D02*
X178556710Y-179971242D01*
X180913853Y-180542671D02*
X180842425Y-180614100D01*
X180842425Y-180614100D02*
X180628139Y-180685528D01*
X180628139Y-180685528D02*
X180485282Y-180685528D01*
X180485282Y-180685528D02*
X180270996Y-180614100D01*
X180270996Y-180614100D02*
X180128139Y-180471242D01*
X180128139Y-180471242D02*
X180056710Y-180328385D01*
X180056710Y-180328385D02*
X179985282Y-180042671D01*
X179985282Y-180042671D02*
X179985282Y-179828385D01*
X179985282Y-179828385D02*
X180056710Y-179542671D01*
X180056710Y-179542671D02*
X180128139Y-179399814D01*
X180128139Y-179399814D02*
X180270996Y-179256957D01*
X180270996Y-179256957D02*
X180485282Y-179185528D01*
X180485282Y-179185528D02*
X180628139Y-179185528D01*
X180628139Y-179185528D02*
X180842425Y-179256957D01*
X180842425Y-179256957D02*
X180913853Y-179328385D01*
X182056710Y-179899814D02*
X182270996Y-179971242D01*
X182270996Y-179971242D02*
X182342425Y-180042671D01*
X182342425Y-180042671D02*
X182413853Y-180185528D01*
X182413853Y-180185528D02*
X182413853Y-180399814D01*
X182413853Y-180399814D02*
X182342425Y-180542671D01*
X182342425Y-180542671D02*
X182270996Y-180614100D01*
X182270996Y-180614100D02*
X182128139Y-180685528D01*
X182128139Y-180685528D02*
X181556710Y-180685528D01*
X181556710Y-180685528D02*
X181556710Y-179185528D01*
X181556710Y-179185528D02*
X182056710Y-179185528D01*
X182056710Y-179185528D02*
X182199568Y-179256957D01*
X182199568Y-179256957D02*
X182270996Y-179328385D01*
X182270996Y-179328385D02*
X182342425Y-179471242D01*
X182342425Y-179471242D02*
X182342425Y-179614100D01*
X182342425Y-179614100D02*
X182270996Y-179756957D01*
X182270996Y-179756957D02*
X182199568Y-179828385D01*
X182199568Y-179828385D02*
X182056710Y-179899814D01*
X182056710Y-179899814D02*
X181556710Y-179899814D01*
D10*
D11*
X178458026Y-176907614D02*
X178958026Y-176907614D01*
X179172312Y-177693328D02*
X178458026Y-177693328D01*
X178458026Y-177693328D02*
X178458026Y-176193328D01*
X178458026Y-176193328D02*
X179172312Y-176193328D01*
X180458027Y-177693328D02*
X180458027Y-176193328D01*
X180458027Y-177621900D02*
X180315169Y-177693328D01*
X180315169Y-177693328D02*
X180029455Y-177693328D01*
X180029455Y-177693328D02*
X179886598Y-177621900D01*
X179886598Y-177621900D02*
X179815169Y-177550471D01*
X179815169Y-177550471D02*
X179743741Y-177407614D01*
X179743741Y-177407614D02*
X179743741Y-176979042D01*
X179743741Y-176979042D02*
X179815169Y-176836185D01*
X179815169Y-176836185D02*
X179886598Y-176764757D01*
X179886598Y-176764757D02*
X180029455Y-176693328D01*
X180029455Y-176693328D02*
X180315169Y-176693328D01*
X180315169Y-176693328D02*
X180458027Y-176764757D01*
X181815170Y-176693328D02*
X181815170Y-177907614D01*
X181815170Y-177907614D02*
X181743741Y-178050471D01*
X181743741Y-178050471D02*
X181672312Y-178121900D01*
X181672312Y-178121900D02*
X181529455Y-178193328D01*
X181529455Y-178193328D02*
X181315170Y-178193328D01*
X181315170Y-178193328D02*
X181172312Y-178121900D01*
X181815170Y-177621900D02*
X181672312Y-177693328D01*
X181672312Y-177693328D02*
X181386598Y-177693328D01*
X181386598Y-177693328D02*
X181243741Y-177621900D01*
X181243741Y-177621900D02*
X181172312Y-177550471D01*
X181172312Y-177550471D02*
X181100884Y-177407614D01*
X181100884Y-177407614D02*
X181100884Y-176979042D01*
X181100884Y-176979042D02*
X181172312Y-176836185D01*
X181172312Y-176836185D02*
X181243741Y-176764757D01*
X181243741Y-176764757D02*
X181386598Y-176693328D01*
X181386598Y-176693328D02*
X181672312Y-176693328D01*
X181672312Y-176693328D02*
X181815170Y-176764757D01*
X183100884Y-177621900D02*
X182958027Y-177693328D01*
X182958027Y-177693328D02*
X182672313Y-177693328D01*
X182672313Y-177693328D02*
X182529455Y-177621900D01*
X182529455Y-177621900D02*
X182458027Y-177479042D01*
X182458027Y-177479042D02*
X182458027Y-176907614D01*
X182458027Y-176907614D02*
X182529455Y-176764757D01*
X182529455Y-176764757D02*
X182672313Y-176693328D01*
X182672313Y-176693328D02*
X182958027Y-176693328D01*
X182958027Y-176693328D02*
X183100884Y-176764757D01*
X183100884Y-176764757D02*
X183172313Y-176907614D01*
X183172313Y-176907614D02*
X183172313Y-177050471D01*
X183172313Y-177050471D02*
X182458027Y-177193328D01*
X185815169Y-177550471D02*
X185743741Y-177621900D01*
X185743741Y-177621900D02*
X185529455Y-177693328D01*
X185529455Y-177693328D02*
X185386598Y-177693328D01*
X185386598Y-177693328D02*
X185172312Y-177621900D01*
X185172312Y-177621900D02*
X185029455Y-177479042D01*
X185029455Y-177479042D02*
X184958026Y-177336185D01*
X184958026Y-177336185D02*
X184886598Y-177050471D01*
X184886598Y-177050471D02*
X184886598Y-176836185D01*
X184886598Y-176836185D02*
X184958026Y-176550471D01*
X184958026Y-176550471D02*
X185029455Y-176407614D01*
X185029455Y-176407614D02*
X185172312Y-176264757D01*
X185172312Y-176264757D02*
X185386598Y-176193328D01*
X185386598Y-176193328D02*
X185529455Y-176193328D01*
X185529455Y-176193328D02*
X185743741Y-176264757D01*
X185743741Y-176264757D02*
X185815169Y-176336185D01*
X187100884Y-176693328D02*
X187100884Y-177693328D01*
X186458026Y-176693328D02*
X186458026Y-177479042D01*
X186458026Y-177479042D02*
X186529455Y-177621900D01*
X186529455Y-177621900D02*
X186672312Y-177693328D01*
X186672312Y-177693328D02*
X186886598Y-177693328D01*
X186886598Y-177693328D02*
X187029455Y-177621900D01*
X187029455Y-177621900D02*
X187100884Y-177550471D01*
X187600884Y-176693328D02*
X188172312Y-176693328D01*
X187815169Y-176193328D02*
X187815169Y-177479042D01*
X187815169Y-177479042D02*
X187886598Y-177621900D01*
X187886598Y-177621900D02*
X188029455Y-177693328D01*
X188029455Y-177693328D02*
X188172312Y-177693328D01*
X188600884Y-177621900D02*
X188743741Y-177693328D01*
X188743741Y-177693328D02*
X189029455Y-177693328D01*
X189029455Y-177693328D02*
X189172312Y-177621900D01*
X189172312Y-177621900D02*
X189243741Y-177479042D01*
X189243741Y-177479042D02*
X189243741Y-177407614D01*
X189243741Y-177407614D02*
X189172312Y-177264757D01*
X189172312Y-177264757D02*
X189029455Y-177193328D01*
X189029455Y-177193328D02*
X188815170Y-177193328D01*
X188815170Y-177193328D02*
X188672312Y-177121900D01*
X188672312Y-177121900D02*
X188600884Y-176979042D01*
X188600884Y-176979042D02*
X188600884Y-176907614D01*
X188600884Y-176907614D02*
X188672312Y-176764757D01*
X188672312Y-176764757D02*
X188815170Y-176693328D01*
X188815170Y-176693328D02*
X189029455Y-176693328D01*
X189029455Y-176693328D02*
X189172312Y-176764757D01*
D10*
D11*
X178386598Y-174264757D02*
X179100884Y-174264757D01*
X178243741Y-174693328D02*
X178743741Y-173193328D01*
X178743741Y-173193328D02*
X179243741Y-174693328D01*
X180386598Y-173693328D02*
X180386598Y-174693328D01*
X179743740Y-173693328D02*
X179743740Y-174479042D01*
X179743740Y-174479042D02*
X179815169Y-174621900D01*
X179815169Y-174621900D02*
X179958026Y-174693328D01*
X179958026Y-174693328D02*
X180172312Y-174693328D01*
X180172312Y-174693328D02*
X180315169Y-174621900D01*
X180315169Y-174621900D02*
X180386598Y-174550471D01*
X180886598Y-173693328D02*
X181458026Y-173693328D01*
X181100883Y-173193328D02*
X181100883Y-174479042D01*
X181100883Y-174479042D02*
X181172312Y-174621900D01*
X181172312Y-174621900D02*
X181315169Y-174693328D01*
X181315169Y-174693328D02*
X181458026Y-174693328D01*
X181958026Y-174693328D02*
X181958026Y-173193328D01*
X182600884Y-174693328D02*
X182600884Y-173907614D01*
X182600884Y-173907614D02*
X182529455Y-173764757D01*
X182529455Y-173764757D02*
X182386598Y-173693328D01*
X182386598Y-173693328D02*
X182172312Y-173693328D01*
X182172312Y-173693328D02*
X182029455Y-173764757D01*
X182029455Y-173764757D02*
X181958026Y-173836185D01*
X183529455Y-174693328D02*
X183386598Y-174621900D01*
X183386598Y-174621900D02*
X183315169Y-174550471D01*
X183315169Y-174550471D02*
X183243741Y-174407614D01*
X183243741Y-174407614D02*
X183243741Y-173979042D01*
X183243741Y-173979042D02*
X183315169Y-173836185D01*
X183315169Y-173836185D02*
X183386598Y-173764757D01*
X183386598Y-173764757D02*
X183529455Y-173693328D01*
X183529455Y-173693328D02*
X183743741Y-173693328D01*
X183743741Y-173693328D02*
X183886598Y-173764757D01*
X183886598Y-173764757D02*
X183958027Y-173836185D01*
X183958027Y-173836185D02*
X184029455Y-173979042D01*
X184029455Y-173979042D02*
X184029455Y-174407614D01*
X184029455Y-174407614D02*
X183958027Y-174550471D01*
X183958027Y-174550471D02*
X183886598Y-174621900D01*
X183886598Y-174621900D02*
X183743741Y-174693328D01*
X183743741Y-174693328D02*
X183529455Y-174693328D01*
X184672312Y-174693328D02*
X184672312Y-173693328D01*
X184672312Y-173979042D02*
X184743741Y-173836185D01*
X184743741Y-173836185D02*
X184815170Y-173764757D01*
X184815170Y-173764757D02*
X184958027Y-173693328D01*
X184958027Y-173693328D02*
X185100884Y-173693328D01*
X185600883Y-174550471D02*
X185672312Y-174621900D01*
X185672312Y-174621900D02*
X185600883Y-174693328D01*
X185600883Y-174693328D02*
X185529455Y-174621900D01*
X185529455Y-174621900D02*
X185600883Y-174550471D01*
X185600883Y-174550471D02*
X185600883Y-174693328D01*
X185600883Y-173764757D02*
X185672312Y-173836185D01*
X185672312Y-173836185D02*
X185600883Y-173907614D01*
X185600883Y-173907614D02*
X185529455Y-173836185D01*
X185529455Y-173836185D02*
X185600883Y-173764757D01*
X185600883Y-173764757D02*
X185600883Y-173907614D01*
X187886598Y-173193328D02*
X187886598Y-174264757D01*
X187886598Y-174264757D02*
X187815169Y-174479042D01*
X187815169Y-174479042D02*
X187672312Y-174621900D01*
X187672312Y-174621900D02*
X187458026Y-174693328D01*
X187458026Y-174693328D02*
X187315169Y-174693328D01*
X189243741Y-173693328D02*
X189243741Y-174693328D01*
X188600883Y-173693328D02*
X188600883Y-174479042D01*
X188600883Y-174479042D02*
X188672312Y-174621900D01*
X188672312Y-174621900D02*
X188815169Y-174693328D01*
X188815169Y-174693328D02*
X189029455Y-174693328D01*
X189029455Y-174693328D02*
X189172312Y-174621900D01*
X189172312Y-174621900D02*
X189243741Y-174550471D01*
X190600884Y-174693328D02*
X190600884Y-173907614D01*
X190600884Y-173907614D02*
X190529455Y-173764757D01*
X190529455Y-173764757D02*
X190386598Y-173693328D01*
X190386598Y-173693328D02*
X190100884Y-173693328D01*
X190100884Y-173693328D02*
X189958026Y-173764757D01*
X190600884Y-174621900D02*
X190458026Y-174693328D01*
X190458026Y-174693328D02*
X190100884Y-174693328D01*
X190100884Y-174693328D02*
X189958026Y-174621900D01*
X189958026Y-174621900D02*
X189886598Y-174479042D01*
X189886598Y-174479042D02*
X189886598Y-174336185D01*
X189886598Y-174336185D02*
X189958026Y-174193328D01*
X189958026Y-174193328D02*
X190100884Y-174121900D01*
X190100884Y-174121900D02*
X190458026Y-174121900D01*
X190458026Y-174121900D02*
X190600884Y-174050471D01*
X191315169Y-173693328D02*
X191315169Y-174693328D01*
X191315169Y-173836185D02*
X191386598Y-173764757D01*
X191386598Y-173764757D02*
X191529455Y-173693328D01*
X191529455Y-173693328D02*
X191743741Y-173693328D01*
X191743741Y-173693328D02*
X191886598Y-173764757D01*
X191886598Y-173764757D02*
X191958027Y-173907614D01*
X191958027Y-173907614D02*
X191958027Y-174693328D01*
X193743741Y-174264757D02*
X194458027Y-174264757D01*
X193600884Y-174693328D02*
X194100884Y-173193328D01*
X194100884Y-173193328D02*
X194600884Y-174693328D01*
X195100883Y-173693328D02*
X195100883Y-174693328D01*
X195100883Y-173836185D02*
X195172312Y-173764757D01*
X195172312Y-173764757D02*
X195315169Y-173693328D01*
X195315169Y-173693328D02*
X195529455Y-173693328D01*
X195529455Y-173693328D02*
X195672312Y-173764757D01*
X195672312Y-173764757D02*
X195743741Y-173907614D01*
X195743741Y-173907614D02*
X195743741Y-174693328D01*
X196243741Y-173693328D02*
X196815169Y-173693328D01*
X196458026Y-173193328D02*
X196458026Y-174479042D01*
X196458026Y-174479042D02*
X196529455Y-174621900D01*
X196529455Y-174621900D02*
X196672312Y-174693328D01*
X196672312Y-174693328D02*
X196815169Y-174693328D01*
X197529455Y-174693328D02*
X197386598Y-174621900D01*
X197386598Y-174621900D02*
X197315169Y-174550471D01*
X197315169Y-174550471D02*
X197243741Y-174407614D01*
X197243741Y-174407614D02*
X197243741Y-173979042D01*
X197243741Y-173979042D02*
X197315169Y-173836185D01*
X197315169Y-173836185D02*
X197386598Y-173764757D01*
X197386598Y-173764757D02*
X197529455Y-173693328D01*
X197529455Y-173693328D02*
X197743741Y-173693328D01*
X197743741Y-173693328D02*
X197886598Y-173764757D01*
X197886598Y-173764757D02*
X197958027Y-173836185D01*
X197958027Y-173836185D02*
X198029455Y-173979042D01*
X198029455Y-173979042D02*
X198029455Y-174407614D01*
X198029455Y-174407614D02*
X197958027Y-174550471D01*
X197958027Y-174550471D02*
X197886598Y-174621900D01*
X197886598Y-174621900D02*
X197743741Y-174693328D01*
X197743741Y-174693328D02*
X197529455Y-174693328D01*
X198672312Y-173693328D02*
X198672312Y-174693328D01*
X198672312Y-173836185D02*
X198743741Y-173764757D01*
X198743741Y-173764757D02*
X198886598Y-173693328D01*
X198886598Y-173693328D02*
X199100884Y-173693328D01*
X199100884Y-173693328D02*
X199243741Y-173764757D01*
X199243741Y-173764757D02*
X199315170Y-173907614D01*
X199315170Y-173907614D02*
X199315170Y-174693328D01*
X200029455Y-174693328D02*
X200029455Y-173693328D01*
X200029455Y-173193328D02*
X199958027Y-173264757D01*
X199958027Y-173264757D02*
X200029455Y-173336185D01*
X200029455Y-173336185D02*
X200100884Y-173264757D01*
X200100884Y-173264757D02*
X200029455Y-173193328D01*
X200029455Y-173193328D02*
X200029455Y-173336185D01*
X200958027Y-174693328D02*
X200815170Y-174621900D01*
X200815170Y-174621900D02*
X200743741Y-174550471D01*
X200743741Y-174550471D02*
X200672313Y-174407614D01*
X200672313Y-174407614D02*
X200672313Y-173979042D01*
X200672313Y-173979042D02*
X200743741Y-173836185D01*
X200743741Y-173836185D02*
X200815170Y-173764757D01*
X200815170Y-173764757D02*
X200958027Y-173693328D01*
X200958027Y-173693328D02*
X201172313Y-173693328D01*
X201172313Y-173693328D02*
X201315170Y-173764757D01*
X201315170Y-173764757D02*
X201386599Y-173836185D01*
X201386599Y-173836185D02*
X201458027Y-173979042D01*
X201458027Y-173979042D02*
X201458027Y-174407614D01*
X201458027Y-174407614D02*
X201386599Y-174550471D01*
X201386599Y-174550471D02*
X201315170Y-174621900D01*
X201315170Y-174621900D02*
X201172313Y-174693328D01*
X201172313Y-174693328D02*
X200958027Y-174693328D01*
X203243741Y-174693328D02*
X203243741Y-173193328D01*
X203243741Y-173907614D02*
X204100884Y-173907614D01*
X204100884Y-174693328D02*
X204100884Y-173193328D01*
X204815170Y-174693328D02*
X204815170Y-173693328D01*
X204815170Y-173193328D02*
X204743742Y-173264757D01*
X204743742Y-173264757D02*
X204815170Y-173336185D01*
X204815170Y-173336185D02*
X204886599Y-173264757D01*
X204886599Y-173264757D02*
X204815170Y-173193328D01*
X204815170Y-173193328D02*
X204815170Y-173336185D01*
X206172314Y-174693328D02*
X206172314Y-173193328D01*
X206172314Y-174621900D02*
X206029456Y-174693328D01*
X206029456Y-174693328D02*
X205743742Y-174693328D01*
X205743742Y-174693328D02*
X205600885Y-174621900D01*
X205600885Y-174621900D02*
X205529456Y-174550471D01*
X205529456Y-174550471D02*
X205458028Y-174407614D01*
X205458028Y-174407614D02*
X205458028Y-173979042D01*
X205458028Y-173979042D02*
X205529456Y-173836185D01*
X205529456Y-173836185D02*
X205600885Y-173764757D01*
X205600885Y-173764757D02*
X205743742Y-173693328D01*
X205743742Y-173693328D02*
X206029456Y-173693328D01*
X206029456Y-173693328D02*
X206172314Y-173764757D01*
X207529457Y-174693328D02*
X207529457Y-173907614D01*
X207529457Y-173907614D02*
X207458028Y-173764757D01*
X207458028Y-173764757D02*
X207315171Y-173693328D01*
X207315171Y-173693328D02*
X207029457Y-173693328D01*
X207029457Y-173693328D02*
X206886599Y-173764757D01*
X207529457Y-174621900D02*
X207386599Y-174693328D01*
X207386599Y-174693328D02*
X207029457Y-174693328D01*
X207029457Y-174693328D02*
X206886599Y-174621900D01*
X206886599Y-174621900D02*
X206815171Y-174479042D01*
X206815171Y-174479042D02*
X206815171Y-174336185D01*
X206815171Y-174336185D02*
X206886599Y-174193328D01*
X206886599Y-174193328D02*
X207029457Y-174121900D01*
X207029457Y-174121900D02*
X207386599Y-174121900D01*
X207386599Y-174121900D02*
X207529457Y-174050471D01*
X208458028Y-174693328D02*
X208315171Y-174621900D01*
X208315171Y-174621900D02*
X208243742Y-174479042D01*
X208243742Y-174479042D02*
X208243742Y-173193328D01*
X209672314Y-173693328D02*
X209672314Y-174907614D01*
X209672314Y-174907614D02*
X209600885Y-175050471D01*
X209600885Y-175050471D02*
X209529456Y-175121900D01*
X209529456Y-175121900D02*
X209386599Y-175193328D01*
X209386599Y-175193328D02*
X209172314Y-175193328D01*
X209172314Y-175193328D02*
X209029456Y-175121900D01*
X209672314Y-174621900D02*
X209529456Y-174693328D01*
X209529456Y-174693328D02*
X209243742Y-174693328D01*
X209243742Y-174693328D02*
X209100885Y-174621900D01*
X209100885Y-174621900D02*
X209029456Y-174550471D01*
X209029456Y-174550471D02*
X208958028Y-174407614D01*
X208958028Y-174407614D02*
X208958028Y-173979042D01*
X208958028Y-173979042D02*
X209029456Y-173836185D01*
X209029456Y-173836185D02*
X209100885Y-173764757D01*
X209100885Y-173764757D02*
X209243742Y-173693328D01*
X209243742Y-173693328D02*
X209529456Y-173693328D01*
X209529456Y-173693328D02*
X209672314Y-173764757D01*
X210600885Y-174693328D02*
X210458028Y-174621900D01*
X210458028Y-174621900D02*
X210386599Y-174550471D01*
X210386599Y-174550471D02*
X210315171Y-174407614D01*
X210315171Y-174407614D02*
X210315171Y-173979042D01*
X210315171Y-173979042D02*
X210386599Y-173836185D01*
X210386599Y-173836185D02*
X210458028Y-173764757D01*
X210458028Y-173764757D02*
X210600885Y-173693328D01*
X210600885Y-173693328D02*
X210815171Y-173693328D01*
X210815171Y-173693328D02*
X210958028Y-173764757D01*
X210958028Y-173764757D02*
X211029457Y-173836185D01*
X211029457Y-173836185D02*
X211100885Y-173979042D01*
X211100885Y-173979042D02*
X211100885Y-174407614D01*
X211100885Y-174407614D02*
X211029457Y-174550471D01*
X211029457Y-174550471D02*
X210958028Y-174621900D01*
X210958028Y-174621900D02*
X210815171Y-174693328D01*
X210815171Y-174693328D02*
X210600885Y-174693328D01*
X212672314Y-173193328D02*
X213529457Y-173193328D01*
X213100885Y-174693328D02*
X213100885Y-173193328D01*
X214243742Y-174693328D02*
X214100885Y-174621900D01*
X214100885Y-174621900D02*
X214029456Y-174550471D01*
X214029456Y-174550471D02*
X213958028Y-174407614D01*
X213958028Y-174407614D02*
X213958028Y-173979042D01*
X213958028Y-173979042D02*
X214029456Y-173836185D01*
X214029456Y-173836185D02*
X214100885Y-173764757D01*
X214100885Y-173764757D02*
X214243742Y-173693328D01*
X214243742Y-173693328D02*
X214458028Y-173693328D01*
X214458028Y-173693328D02*
X214600885Y-173764757D01*
X214600885Y-173764757D02*
X214672314Y-173836185D01*
X214672314Y-173836185D02*
X214743742Y-173979042D01*
X214743742Y-173979042D02*
X214743742Y-174407614D01*
X214743742Y-174407614D02*
X214672314Y-174550471D01*
X214672314Y-174550471D02*
X214600885Y-174621900D01*
X214600885Y-174621900D02*
X214458028Y-174693328D01*
X214458028Y-174693328D02*
X214243742Y-174693328D01*
X215386599Y-174693328D02*
X215386599Y-173693328D01*
X215386599Y-173979042D02*
X215458028Y-173836185D01*
X215458028Y-173836185D02*
X215529457Y-173764757D01*
X215529457Y-173764757D02*
X215672314Y-173693328D01*
X215672314Y-173693328D02*
X215815171Y-173693328D01*
X216315170Y-174693328D02*
X216315170Y-173693328D01*
X216315170Y-173979042D02*
X216386599Y-173836185D01*
X216386599Y-173836185D02*
X216458028Y-173764757D01*
X216458028Y-173764757D02*
X216600885Y-173693328D01*
X216600885Y-173693328D02*
X216743742Y-173693328D01*
X217815170Y-174621900D02*
X217672313Y-174693328D01*
X217672313Y-174693328D02*
X217386599Y-174693328D01*
X217386599Y-174693328D02*
X217243741Y-174621900D01*
X217243741Y-174621900D02*
X217172313Y-174479042D01*
X217172313Y-174479042D02*
X217172313Y-173907614D01*
X217172313Y-173907614D02*
X217243741Y-173764757D01*
X217243741Y-173764757D02*
X217386599Y-173693328D01*
X217386599Y-173693328D02*
X217672313Y-173693328D01*
X217672313Y-173693328D02*
X217815170Y-173764757D01*
X217815170Y-173764757D02*
X217886599Y-173907614D01*
X217886599Y-173907614D02*
X217886599Y-174050471D01*
X217886599Y-174050471D02*
X217172313Y-174193328D01*
X218458027Y-174621900D02*
X218600884Y-174693328D01*
X218600884Y-174693328D02*
X218886598Y-174693328D01*
X218886598Y-174693328D02*
X219029455Y-174621900D01*
X219029455Y-174621900D02*
X219100884Y-174479042D01*
X219100884Y-174479042D02*
X219100884Y-174407614D01*
X219100884Y-174407614D02*
X219029455Y-174264757D01*
X219029455Y-174264757D02*
X218886598Y-174193328D01*
X218886598Y-174193328D02*
X218672313Y-174193328D01*
X218672313Y-174193328D02*
X218529455Y-174121900D01*
X218529455Y-174121900D02*
X218458027Y-173979042D01*
X218458027Y-173979042D02*
X218458027Y-173907614D01*
X218458027Y-173907614D02*
X218529455Y-173764757D01*
X218529455Y-173764757D02*
X218672313Y-173693328D01*
X218672313Y-173693328D02*
X218886598Y-173693328D01*
X218886598Y-173693328D02*
X219029455Y-173764757D01*
D10*
D11*
D10*
D11*
D10*
D11*
X197002200Y-191507200D02*
X197002200Y-194507200D01*
D10*
D11*
X261002200Y-191507200D02*
X261002200Y-198007200D01*
X142639009Y-114173495D02*
X142639009Y-114506828D01*
X143162819Y-114649685D02*
X143162819Y-114173495D01*
X143162819Y-114173495D02*
X142162819Y-114173495D01*
X142162819Y-114173495D02*
X142162819Y-114649685D01*
X142496152Y-115078257D02*
X143162819Y-115078257D01*
X142591390Y-115078257D02*
X142543771Y-115125876D01*
X142543771Y-115125876D02*
X142496152Y-115221114D01*
X142496152Y-115221114D02*
X142496152Y-115363971D01*
X142496152Y-115363971D02*
X142543771Y-115459209D01*
X142543771Y-115459209D02*
X142639009Y-115506828D01*
X142639009Y-115506828D02*
X143162819Y-115506828D01*
X143162819Y-116411590D02*
X142639009Y-116411590D01*
X142639009Y-116411590D02*
X142543771Y-116363971D01*
X142543771Y-116363971D02*
X142496152Y-116268733D01*
X142496152Y-116268733D02*
X142496152Y-116078257D01*
X142496152Y-116078257D02*
X142543771Y-115983019D01*
X143115200Y-116411590D02*
X143162819Y-116316352D01*
X143162819Y-116316352D02*
X143162819Y-116078257D01*
X143162819Y-116078257D02*
X143115200Y-115983019D01*
X143115200Y-115983019D02*
X143019961Y-115935400D01*
X143019961Y-115935400D02*
X142924723Y-115935400D01*
X142924723Y-115935400D02*
X142829485Y-115983019D01*
X142829485Y-115983019D02*
X142781866Y-116078257D01*
X142781866Y-116078257D02*
X142781866Y-116316352D01*
X142781866Y-116316352D02*
X142734247Y-116411590D01*
X143162819Y-116887781D02*
X142162819Y-116887781D01*
X142543771Y-116887781D02*
X142496152Y-116983019D01*
X142496152Y-116983019D02*
X142496152Y-117173495D01*
X142496152Y-117173495D02*
X142543771Y-117268733D01*
X142543771Y-117268733D02*
X142591390Y-117316352D01*
X142591390Y-117316352D02*
X142686628Y-117363971D01*
X142686628Y-117363971D02*
X142972342Y-117363971D01*
X142972342Y-117363971D02*
X143067580Y-117316352D01*
X143067580Y-117316352D02*
X143115200Y-117268733D01*
X143115200Y-117268733D02*
X143162819Y-117173495D01*
X143162819Y-117173495D02*
X143162819Y-116983019D01*
X143162819Y-116983019D02*
X143115200Y-116887781D01*
X143162819Y-117935400D02*
X143115200Y-117840162D01*
X143115200Y-117840162D02*
X143019961Y-117792543D01*
X143019961Y-117792543D02*
X142162819Y-117792543D01*
X143115200Y-118697305D02*
X143162819Y-118602067D01*
X143162819Y-118602067D02*
X143162819Y-118411591D01*
X143162819Y-118411591D02*
X143115200Y-118316353D01*
X143115200Y-118316353D02*
X143019961Y-118268734D01*
X143019961Y-118268734D02*
X142639009Y-118268734D01*
X142639009Y-118268734D02*
X142543771Y-118316353D01*
X142543771Y-118316353D02*
X142496152Y-118411591D01*
X142496152Y-118411591D02*
X142496152Y-118602067D01*
X142496152Y-118602067D02*
X142543771Y-118697305D01*
X142543771Y-118697305D02*
X142639009Y-118744924D01*
X142639009Y-118744924D02*
X142734247Y-118744924D01*
X142734247Y-118744924D02*
X142829485Y-118268734D01*
X138115200Y-115673495D02*
X138162819Y-115816352D01*
X138162819Y-115816352D02*
X138162819Y-116054447D01*
X138162819Y-116054447D02*
X138115200Y-116149685D01*
X138115200Y-116149685D02*
X138067580Y-116197304D01*
X138067580Y-116197304D02*
X137972342Y-116244923D01*
X137972342Y-116244923D02*
X137877104Y-116244923D01*
X137877104Y-116244923D02*
X137781866Y-116197304D01*
X137781866Y-116197304D02*
X137734247Y-116149685D01*
X137734247Y-116149685D02*
X137686628Y-116054447D01*
X137686628Y-116054447D02*
X137639009Y-115863971D01*
X137639009Y-115863971D02*
X137591390Y-115768733D01*
X137591390Y-115768733D02*
X137543771Y-115721114D01*
X137543771Y-115721114D02*
X137448533Y-115673495D01*
X137448533Y-115673495D02*
X137353295Y-115673495D01*
X137353295Y-115673495D02*
X137258057Y-115721114D01*
X137258057Y-115721114D02*
X137210438Y-115768733D01*
X137210438Y-115768733D02*
X137162819Y-115863971D01*
X137162819Y-115863971D02*
X137162819Y-116102066D01*
X137162819Y-116102066D02*
X137210438Y-116244923D01*
X138162819Y-117197304D02*
X138162819Y-116625876D01*
X138162819Y-116911590D02*
X137162819Y-116911590D01*
X137162819Y-116911590D02*
X137305676Y-116816352D01*
X137305676Y-116816352D02*
X137400914Y-116721114D01*
X137400914Y-116721114D02*
X137448533Y-116625876D01*
X139994819Y-90743161D02*
X139994819Y-90171733D01*
X139994819Y-90457447D02*
X138994819Y-90457447D01*
X138994819Y-90457447D02*
X139137676Y-90362209D01*
X139137676Y-90362209D02*
X139232914Y-90266971D01*
X139232914Y-90266971D02*
X139280533Y-90171733D01*
X139328152Y-91600304D02*
X139994819Y-91600304D01*
X139328152Y-91171733D02*
X139851961Y-91171733D01*
X139851961Y-91171733D02*
X139947200Y-91219352D01*
X139947200Y-91219352D02*
X139994819Y-91314590D01*
X139994819Y-91314590D02*
X139994819Y-91457447D01*
X139994819Y-91457447D02*
X139947200Y-91552685D01*
X139947200Y-91552685D02*
X139899580Y-91600304D01*
X139471009Y-92409828D02*
X139471009Y-92076495D01*
X139994819Y-92076495D02*
X138994819Y-92076495D01*
X138994819Y-92076495D02*
X138994819Y-92552685D01*
D14*
X141113832Y-91271733D02*
X141132880Y-91252685D01*
X141132880Y-91252685D02*
X141151927Y-91195543D01*
X141151927Y-91195543D02*
X141151927Y-91157447D01*
X141151927Y-91157447D02*
X141132880Y-91100304D01*
X141132880Y-91100304D02*
X141094784Y-91062209D01*
X141094784Y-91062209D02*
X141056689Y-91043162D01*
X141056689Y-91043162D02*
X140980499Y-91024114D01*
X140980499Y-91024114D02*
X140923356Y-91024114D01*
X140923356Y-91024114D02*
X140847165Y-91043162D01*
X140847165Y-91043162D02*
X140809070Y-91062209D01*
X140809070Y-91062209D02*
X140770975Y-91100304D01*
X140770975Y-91100304D02*
X140751927Y-91157447D01*
X140751927Y-91157447D02*
X140751927Y-91195543D01*
X140751927Y-91195543D02*
X140770975Y-91252685D01*
X140770975Y-91252685D02*
X140790022Y-91271733D01*
X140885260Y-91614590D02*
X141151927Y-91614590D01*
X140732880Y-91519352D02*
X141018594Y-91424114D01*
X141018594Y-91424114D02*
X141018594Y-91671733D01*
D11*
X144632819Y-115022304D02*
X144632819Y-114450876D01*
X144632819Y-114736590D02*
X143632819Y-114736590D01*
X143632819Y-114736590D02*
X143775676Y-114641352D01*
X143775676Y-114641352D02*
X143870914Y-114546114D01*
X143870914Y-114546114D02*
X143918533Y-114450876D01*
X143632819Y-115641352D02*
X143632819Y-115736590D01*
X143632819Y-115736590D02*
X143680438Y-115831828D01*
X143680438Y-115831828D02*
X143728057Y-115879447D01*
X143728057Y-115879447D02*
X143823295Y-115927066D01*
X143823295Y-115927066D02*
X144013771Y-115974685D01*
X144013771Y-115974685D02*
X144251866Y-115974685D01*
X144251866Y-115974685D02*
X144442342Y-115927066D01*
X144442342Y-115927066D02*
X144537580Y-115879447D01*
X144537580Y-115879447D02*
X144585200Y-115831828D01*
X144585200Y-115831828D02*
X144632819Y-115736590D01*
X144632819Y-115736590D02*
X144632819Y-115641352D01*
X144632819Y-115641352D02*
X144585200Y-115546114D01*
X144585200Y-115546114D02*
X144537580Y-115498495D01*
X144537580Y-115498495D02*
X144442342Y-115450876D01*
X144442342Y-115450876D02*
X144251866Y-115403257D01*
X144251866Y-115403257D02*
X144013771Y-115403257D01*
X144013771Y-115403257D02*
X143823295Y-115450876D01*
X143823295Y-115450876D02*
X143728057Y-115498495D01*
X143728057Y-115498495D02*
X143680438Y-115546114D01*
X143680438Y-115546114D02*
X143632819Y-115641352D01*
X144632819Y-116403257D02*
X143632819Y-116403257D01*
X144251866Y-116498495D02*
X144632819Y-116784209D01*
X143966152Y-116784209D02*
X144347104Y-116403257D01*
X143632819Y-117403257D02*
X143632819Y-117593733D01*
X143632819Y-117593733D02*
X143680438Y-117688971D01*
X143680438Y-117688971D02*
X143775676Y-117784209D01*
X143775676Y-117784209D02*
X143966152Y-117831828D01*
X143966152Y-117831828D02*
X144299485Y-117831828D01*
X144299485Y-117831828D02*
X144489961Y-117784209D01*
X144489961Y-117784209D02*
X144585200Y-117688971D01*
X144585200Y-117688971D02*
X144632819Y-117593733D01*
X144632819Y-117593733D02*
X144632819Y-117403257D01*
X144632819Y-117403257D02*
X144585200Y-117308019D01*
X144585200Y-117308019D02*
X144489961Y-117212781D01*
X144489961Y-117212781D02*
X144299485Y-117165162D01*
X144299485Y-117165162D02*
X143966152Y-117165162D01*
X143966152Y-117165162D02*
X143775676Y-117212781D01*
X143775676Y-117212781D02*
X143680438Y-117308019D01*
X143680438Y-117308019D02*
X143632819Y-117403257D01*
X144632819Y-118260400D02*
X143632819Y-118260400D01*
X144632819Y-118688971D02*
X144109009Y-118688971D01*
X144109009Y-118688971D02*
X144013771Y-118641352D01*
X144013771Y-118641352D02*
X143966152Y-118546114D01*
X143966152Y-118546114D02*
X143966152Y-118403257D01*
X143966152Y-118403257D02*
X144013771Y-118308019D01*
X144013771Y-118308019D02*
X144061390Y-118260400D01*
X144632819Y-119165162D02*
X143966152Y-119165162D01*
X144061390Y-119165162D02*
X144013771Y-119212781D01*
X144013771Y-119212781D02*
X143966152Y-119308019D01*
X143966152Y-119308019D02*
X143966152Y-119450876D01*
X143966152Y-119450876D02*
X144013771Y-119546114D01*
X144013771Y-119546114D02*
X144109009Y-119593733D01*
X144109009Y-119593733D02*
X144632819Y-119593733D01*
X144109009Y-119593733D02*
X144013771Y-119641352D01*
X144013771Y-119641352D02*
X143966152Y-119736590D01*
X143966152Y-119736590D02*
X143966152Y-119879447D01*
X143966152Y-119879447D02*
X144013771Y-119974686D01*
X144013771Y-119974686D02*
X144109009Y-120022305D01*
X144109009Y-120022305D02*
X144632819Y-120022305D01*
D14*
X142929927Y-117193733D02*
X142739451Y-117060400D01*
X142929927Y-116965162D02*
X142529927Y-116965162D01*
X142529927Y-116965162D02*
X142529927Y-117117543D01*
X142529927Y-117117543D02*
X142548975Y-117155638D01*
X142548975Y-117155638D02*
X142568022Y-117174685D01*
X142568022Y-117174685D02*
X142606118Y-117193733D01*
X142606118Y-117193733D02*
X142663260Y-117193733D01*
X142663260Y-117193733D02*
X142701356Y-117174685D01*
X142701356Y-117174685D02*
X142720403Y-117155638D01*
X142720403Y-117155638D02*
X142739451Y-117117543D01*
X142739451Y-117117543D02*
X142739451Y-116965162D01*
X142529927Y-117327066D02*
X142529927Y-117593733D01*
X142529927Y-117593733D02*
X142929927Y-117422304D01*
D11*
X139679819Y-115698780D02*
X139679819Y-115127352D01*
X139679819Y-115413066D02*
X138679819Y-115413066D01*
X138679819Y-115413066D02*
X138822676Y-115317828D01*
X138822676Y-115317828D02*
X138917914Y-115222590D01*
X138917914Y-115222590D02*
X138965533Y-115127352D01*
X138679819Y-116317828D02*
X138679819Y-116413066D01*
X138679819Y-116413066D02*
X138727438Y-116508304D01*
X138727438Y-116508304D02*
X138775057Y-116555923D01*
X138775057Y-116555923D02*
X138870295Y-116603542D01*
X138870295Y-116603542D02*
X139060771Y-116651161D01*
X139060771Y-116651161D02*
X139298866Y-116651161D01*
X139298866Y-116651161D02*
X139489342Y-116603542D01*
X139489342Y-116603542D02*
X139584580Y-116555923D01*
X139584580Y-116555923D02*
X139632200Y-116508304D01*
X139632200Y-116508304D02*
X139679819Y-116413066D01*
X139679819Y-116413066D02*
X139679819Y-116317828D01*
X139679819Y-116317828D02*
X139632200Y-116222590D01*
X139632200Y-116222590D02*
X139584580Y-116174971D01*
X139584580Y-116174971D02*
X139489342Y-116127352D01*
X139489342Y-116127352D02*
X139298866Y-116079733D01*
X139298866Y-116079733D02*
X139060771Y-116079733D01*
X139060771Y-116079733D02*
X138870295Y-116127352D01*
X138870295Y-116127352D02*
X138775057Y-116174971D01*
X138775057Y-116174971D02*
X138727438Y-116222590D01*
X138727438Y-116222590D02*
X138679819Y-116317828D01*
X138679819Y-117270209D02*
X138679819Y-117365447D01*
X138679819Y-117365447D02*
X138727438Y-117460685D01*
X138727438Y-117460685D02*
X138775057Y-117508304D01*
X138775057Y-117508304D02*
X138870295Y-117555923D01*
X138870295Y-117555923D02*
X139060771Y-117603542D01*
X139060771Y-117603542D02*
X139298866Y-117603542D01*
X139298866Y-117603542D02*
X139489342Y-117555923D01*
X139489342Y-117555923D02*
X139584580Y-117508304D01*
X139584580Y-117508304D02*
X139632200Y-117460685D01*
X139632200Y-117460685D02*
X139679819Y-117365447D01*
X139679819Y-117365447D02*
X139679819Y-117270209D01*
X139679819Y-117270209D02*
X139632200Y-117174971D01*
X139632200Y-117174971D02*
X139584580Y-117127352D01*
X139584580Y-117127352D02*
X139489342Y-117079733D01*
X139489342Y-117079733D02*
X139298866Y-117032114D01*
X139298866Y-117032114D02*
X139060771Y-117032114D01*
X139060771Y-117032114D02*
X138870295Y-117079733D01*
X138870295Y-117079733D02*
X138775057Y-117127352D01*
X138775057Y-117127352D02*
X138727438Y-117174971D01*
X138727438Y-117174971D02*
X138679819Y-117270209D01*
X139013152Y-118032114D02*
X139679819Y-118032114D01*
X139108390Y-118032114D02*
X139060771Y-118079733D01*
X139060771Y-118079733D02*
X139013152Y-118174971D01*
X139013152Y-118174971D02*
X139013152Y-118317828D01*
X139013152Y-118317828D02*
X139060771Y-118413066D01*
X139060771Y-118413066D02*
X139156009Y-118460685D01*
X139156009Y-118460685D02*
X139679819Y-118460685D01*
X139156009Y-119270209D02*
X139156009Y-118936876D01*
X139679819Y-118936876D02*
X138679819Y-118936876D01*
X138679819Y-118936876D02*
X138679819Y-119413066D01*
D14*
X137938832Y-117179733D02*
X137957880Y-117160685D01*
X137957880Y-117160685D02*
X137976927Y-117103543D01*
X137976927Y-117103543D02*
X137976927Y-117065447D01*
X137976927Y-117065447D02*
X137957880Y-117008304D01*
X137957880Y-117008304D02*
X137919784Y-116970209D01*
X137919784Y-116970209D02*
X137881689Y-116951162D01*
X137881689Y-116951162D02*
X137805499Y-116932114D01*
X137805499Y-116932114D02*
X137748356Y-116932114D01*
X137748356Y-116932114D02*
X137672165Y-116951162D01*
X137672165Y-116951162D02*
X137634070Y-116970209D01*
X137634070Y-116970209D02*
X137595975Y-117008304D01*
X137595975Y-117008304D02*
X137576927Y-117065447D01*
X137576927Y-117065447D02*
X137576927Y-117103543D01*
X137576927Y-117103543D02*
X137595975Y-117160685D01*
X137595975Y-117160685D02*
X137615022Y-117179733D01*
X137976927Y-117560685D02*
X137976927Y-117332114D01*
X137976927Y-117446400D02*
X137576927Y-117446400D01*
X137576927Y-117446400D02*
X137634070Y-117408304D01*
X137634070Y-117408304D02*
X137672165Y-117370209D01*
X137672165Y-117370209D02*
X137691213Y-117332114D01*
D15*
X157038318Y-86337018D02*
X155768318Y-86337018D01*
X155768318Y-86337018D02*
X155768318Y-86639399D01*
X155768318Y-86639399D02*
X155828794Y-86820828D01*
X155828794Y-86820828D02*
X155949746Y-86941780D01*
X155949746Y-86941780D02*
X156070699Y-87002257D01*
X156070699Y-87002257D02*
X156312603Y-87062733D01*
X156312603Y-87062733D02*
X156494032Y-87062733D01*
X156494032Y-87062733D02*
X156735937Y-87002257D01*
X156735937Y-87002257D02*
X156856889Y-86941780D01*
X156856889Y-86941780D02*
X156977842Y-86820828D01*
X156977842Y-86820828D02*
X157038318Y-86639399D01*
X157038318Y-86639399D02*
X157038318Y-86337018D01*
X157038318Y-88272257D02*
X157038318Y-87546542D01*
X157038318Y-87909399D02*
X155768318Y-87909399D01*
X155768318Y-87909399D02*
X155949746Y-87788447D01*
X155949746Y-87788447D02*
X156070699Y-87667495D01*
X156070699Y-87667495D02*
X156131175Y-87546542D01*
D11*
X158555819Y-97186162D02*
X157555819Y-97186162D01*
X157555819Y-97186162D02*
X158270104Y-97519495D01*
X158270104Y-97519495D02*
X157555819Y-97852828D01*
X157555819Y-97852828D02*
X158555819Y-97852828D01*
X157555819Y-98519495D02*
X157555819Y-98709971D01*
X157555819Y-98709971D02*
X157603438Y-98805209D01*
X157603438Y-98805209D02*
X157698676Y-98900447D01*
X157698676Y-98900447D02*
X157889152Y-98948066D01*
X157889152Y-98948066D02*
X158222485Y-98948066D01*
X158222485Y-98948066D02*
X158412961Y-98900447D01*
X158412961Y-98900447D02*
X158508200Y-98805209D01*
X158508200Y-98805209D02*
X158555819Y-98709971D01*
X158555819Y-98709971D02*
X158555819Y-98519495D01*
X158555819Y-98519495D02*
X158508200Y-98424257D01*
X158508200Y-98424257D02*
X158412961Y-98329019D01*
X158412961Y-98329019D02*
X158222485Y-98281400D01*
X158222485Y-98281400D02*
X157889152Y-98281400D01*
X157889152Y-98281400D02*
X157698676Y-98329019D01*
X157698676Y-98329019D02*
X157603438Y-98424257D01*
X157603438Y-98424257D02*
X157555819Y-98519495D01*
X158555819Y-99376638D02*
X157555819Y-99376638D01*
X157555819Y-99376638D02*
X157555819Y-99614733D01*
X157555819Y-99614733D02*
X157603438Y-99757590D01*
X157603438Y-99757590D02*
X157698676Y-99852828D01*
X157698676Y-99852828D02*
X157793914Y-99900447D01*
X157793914Y-99900447D02*
X157984390Y-99948066D01*
X157984390Y-99948066D02*
X158127247Y-99948066D01*
X158127247Y-99948066D02*
X158317723Y-99900447D01*
X158317723Y-99900447D02*
X158412961Y-99852828D01*
X158412961Y-99852828D02*
X158508200Y-99757590D01*
X158508200Y-99757590D02*
X158555819Y-99614733D01*
X158555819Y-99614733D02*
X158555819Y-99376638D01*
X157555819Y-100376638D02*
X158365342Y-100376638D01*
X158365342Y-100376638D02*
X158460580Y-100424257D01*
X158460580Y-100424257D02*
X158508200Y-100471876D01*
X158508200Y-100471876D02*
X158555819Y-100567114D01*
X158555819Y-100567114D02*
X158555819Y-100757590D01*
X158555819Y-100757590D02*
X158508200Y-100852828D01*
X158508200Y-100852828D02*
X158460580Y-100900447D01*
X158460580Y-100900447D02*
X158365342Y-100948066D01*
X158365342Y-100948066D02*
X157555819Y-100948066D01*
X158555819Y-101900447D02*
X158555819Y-101424257D01*
X158555819Y-101424257D02*
X157555819Y-101424257D01*
X158032009Y-102233781D02*
X158032009Y-102567114D01*
X158555819Y-102709971D02*
X158555819Y-102233781D01*
X158555819Y-102233781D02*
X157555819Y-102233781D01*
X157555819Y-102233781D02*
X157555819Y-102709971D01*
X158651057Y-102900448D02*
X158651057Y-103662352D01*
X158032009Y-103900448D02*
X158032009Y-104233781D01*
X158555819Y-104376638D02*
X158555819Y-103900448D01*
X158555819Y-103900448D02*
X157555819Y-103900448D01*
X157555819Y-103900448D02*
X157555819Y-104376638D01*
X158508200Y-104757591D02*
X158555819Y-104900448D01*
X158555819Y-104900448D02*
X158555819Y-105138543D01*
X158555819Y-105138543D02*
X158508200Y-105233781D01*
X158508200Y-105233781D02*
X158460580Y-105281400D01*
X158460580Y-105281400D02*
X158365342Y-105329019D01*
X158365342Y-105329019D02*
X158270104Y-105329019D01*
X158270104Y-105329019D02*
X158174866Y-105281400D01*
X158174866Y-105281400D02*
X158127247Y-105233781D01*
X158127247Y-105233781D02*
X158079628Y-105138543D01*
X158079628Y-105138543D02*
X158032009Y-104948067D01*
X158032009Y-104948067D02*
X157984390Y-104852829D01*
X157984390Y-104852829D02*
X157936771Y-104805210D01*
X157936771Y-104805210D02*
X157841533Y-104757591D01*
X157841533Y-104757591D02*
X157746295Y-104757591D01*
X157746295Y-104757591D02*
X157651057Y-104805210D01*
X157651057Y-104805210D02*
X157603438Y-104852829D01*
X157603438Y-104852829D02*
X157555819Y-104948067D01*
X157555819Y-104948067D02*
X157555819Y-105186162D01*
X157555819Y-105186162D02*
X157603438Y-105329019D01*
X158555819Y-105757591D02*
X157555819Y-105757591D01*
X157555819Y-105757591D02*
X157555819Y-106138543D01*
X157555819Y-106138543D02*
X157603438Y-106233781D01*
X157603438Y-106233781D02*
X157651057Y-106281400D01*
X157651057Y-106281400D02*
X157746295Y-106329019D01*
X157746295Y-106329019D02*
X157889152Y-106329019D01*
X157889152Y-106329019D02*
X157984390Y-106281400D01*
X157984390Y-106281400D02*
X158032009Y-106233781D01*
X158032009Y-106233781D02*
X158079628Y-106138543D01*
X158079628Y-106138543D02*
X158079628Y-105757591D01*
X158174866Y-106757591D02*
X158174866Y-107519496D01*
X158555819Y-108519495D02*
X158555819Y-107948067D01*
X158555819Y-108233781D02*
X157555819Y-108233781D01*
X157555819Y-108233781D02*
X157698676Y-108138543D01*
X157698676Y-108138543D02*
X157793914Y-108043305D01*
X157793914Y-108043305D02*
X157841533Y-107948067D01*
X157651057Y-108900448D02*
X157603438Y-108948067D01*
X157603438Y-108948067D02*
X157555819Y-109043305D01*
X157555819Y-109043305D02*
X157555819Y-109281400D01*
X157555819Y-109281400D02*
X157603438Y-109376638D01*
X157603438Y-109376638D02*
X157651057Y-109424257D01*
X157651057Y-109424257D02*
X157746295Y-109471876D01*
X157746295Y-109471876D02*
X157841533Y-109471876D01*
X157841533Y-109471876D02*
X157984390Y-109424257D01*
X157984390Y-109424257D02*
X158555819Y-108852829D01*
X158555819Y-108852829D02*
X158555819Y-109471876D01*
X158508200Y-109852829D02*
X158555819Y-109995686D01*
X158555819Y-109995686D02*
X158555819Y-110233781D01*
X158555819Y-110233781D02*
X158508200Y-110329019D01*
X158508200Y-110329019D02*
X158460580Y-110376638D01*
X158460580Y-110376638D02*
X158365342Y-110424257D01*
X158365342Y-110424257D02*
X158270104Y-110424257D01*
X158270104Y-110424257D02*
X158174866Y-110376638D01*
X158174866Y-110376638D02*
X158127247Y-110329019D01*
X158127247Y-110329019D02*
X158079628Y-110233781D01*
X158079628Y-110233781D02*
X158032009Y-110043305D01*
X158032009Y-110043305D02*
X157984390Y-109948067D01*
X157984390Y-109948067D02*
X157936771Y-109900448D01*
X157936771Y-109900448D02*
X157841533Y-109852829D01*
X157841533Y-109852829D02*
X157746295Y-109852829D01*
X157746295Y-109852829D02*
X157651057Y-109900448D01*
X157651057Y-109900448D02*
X157603438Y-109948067D01*
X157603438Y-109948067D02*
X157555819Y-110043305D01*
X157555819Y-110043305D02*
X157555819Y-110281400D01*
X157555819Y-110281400D02*
X157603438Y-110424257D01*
X140946104Y-82070400D02*
X140946104Y-82546590D01*
X141231819Y-81975162D02*
X140231819Y-82308495D01*
X140231819Y-82308495D02*
X141231819Y-82641828D01*
X141231819Y-82975162D02*
X140231819Y-82975162D01*
X140231819Y-82975162D02*
X140946104Y-83308495D01*
X140946104Y-83308495D02*
X140231819Y-83641828D01*
X140231819Y-83641828D02*
X141231819Y-83641828D01*
X141184200Y-84070400D02*
X141231819Y-84213257D01*
X141231819Y-84213257D02*
X141231819Y-84451352D01*
X141231819Y-84451352D02*
X141184200Y-84546590D01*
X141184200Y-84546590D02*
X141136580Y-84594209D01*
X141136580Y-84594209D02*
X141041342Y-84641828D01*
X141041342Y-84641828D02*
X140946104Y-84641828D01*
X140946104Y-84641828D02*
X140850866Y-84594209D01*
X140850866Y-84594209D02*
X140803247Y-84546590D01*
X140803247Y-84546590D02*
X140755628Y-84451352D01*
X140755628Y-84451352D02*
X140708009Y-84260876D01*
X140708009Y-84260876D02*
X140660390Y-84165638D01*
X140660390Y-84165638D02*
X140612771Y-84118019D01*
X140612771Y-84118019D02*
X140517533Y-84070400D01*
X140517533Y-84070400D02*
X140422295Y-84070400D01*
X140422295Y-84070400D02*
X140327057Y-84118019D01*
X140327057Y-84118019D02*
X140279438Y-84165638D01*
X140279438Y-84165638D02*
X140231819Y-84260876D01*
X140231819Y-84260876D02*
X140231819Y-84498971D01*
X140231819Y-84498971D02*
X140279438Y-84641828D01*
X141231819Y-85594209D02*
X141231819Y-85022781D01*
X141231819Y-85308495D02*
X140231819Y-85308495D01*
X140231819Y-85308495D02*
X140374676Y-85213257D01*
X140374676Y-85213257D02*
X140469914Y-85118019D01*
X140469914Y-85118019D02*
X140517533Y-85022781D01*
X141231819Y-86546590D02*
X141231819Y-85975162D01*
X141231819Y-86260876D02*
X140231819Y-86260876D01*
X140231819Y-86260876D02*
X140374676Y-86165638D01*
X140374676Y-86165638D02*
X140469914Y-86070400D01*
X140469914Y-86070400D02*
X140517533Y-85975162D01*
X141231819Y-87498971D02*
X141231819Y-86927543D01*
X141231819Y-87213257D02*
X140231819Y-87213257D01*
X140231819Y-87213257D02*
X140374676Y-87118019D01*
X140374676Y-87118019D02*
X140469914Y-87022781D01*
X140469914Y-87022781D02*
X140517533Y-86927543D01*
X140231819Y-87832305D02*
X140231819Y-88498971D01*
X140231819Y-88498971D02*
X141231819Y-88070400D01*
X141136580Y-89451352D02*
X141184200Y-89403733D01*
X141184200Y-89403733D02*
X141231819Y-89260876D01*
X141231819Y-89260876D02*
X141231819Y-89165638D01*
X141231819Y-89165638D02*
X141184200Y-89022781D01*
X141184200Y-89022781D02*
X141088961Y-88927543D01*
X141088961Y-88927543D02*
X140993723Y-88879924D01*
X140993723Y-88879924D02*
X140803247Y-88832305D01*
X140803247Y-88832305D02*
X140660390Y-88832305D01*
X140660390Y-88832305D02*
X140469914Y-88879924D01*
X140469914Y-88879924D02*
X140374676Y-88927543D01*
X140374676Y-88927543D02*
X140279438Y-89022781D01*
X140279438Y-89022781D02*
X140231819Y-89165638D01*
X140231819Y-89165638D02*
X140231819Y-89260876D01*
X140231819Y-89260876D02*
X140279438Y-89403733D01*
X140279438Y-89403733D02*
X140327057Y-89451352D01*
X141231819Y-89879924D02*
X140231819Y-89879924D01*
X140231819Y-89879924D02*
X140231819Y-90118019D01*
X140231819Y-90118019D02*
X140279438Y-90260876D01*
X140279438Y-90260876D02*
X140374676Y-90356114D01*
X140374676Y-90356114D02*
X140469914Y-90403733D01*
X140469914Y-90403733D02*
X140660390Y-90451352D01*
X140660390Y-90451352D02*
X140803247Y-90451352D01*
X140803247Y-90451352D02*
X140993723Y-90403733D01*
X140993723Y-90403733D02*
X141088961Y-90356114D01*
X141088961Y-90356114D02*
X141184200Y-90260876D01*
X141184200Y-90260876D02*
X141231819Y-90118019D01*
X141231819Y-90118019D02*
X141231819Y-89879924D01*
X140850866Y-90879924D02*
X140850866Y-91641829D01*
X140231819Y-92022781D02*
X140231819Y-92641828D01*
X140231819Y-92641828D02*
X140612771Y-92308495D01*
X140612771Y-92308495D02*
X140612771Y-92451352D01*
X140612771Y-92451352D02*
X140660390Y-92546590D01*
X140660390Y-92546590D02*
X140708009Y-92594209D01*
X140708009Y-92594209D02*
X140803247Y-92641828D01*
X140803247Y-92641828D02*
X141041342Y-92641828D01*
X141041342Y-92641828D02*
X141136580Y-92594209D01*
X141136580Y-92594209D02*
X141184200Y-92546590D01*
X141184200Y-92546590D02*
X141231819Y-92451352D01*
X141231819Y-92451352D02*
X141231819Y-92165638D01*
X141231819Y-92165638D02*
X141184200Y-92070400D01*
X141184200Y-92070400D02*
X141136580Y-92022781D01*
X141136580Y-93070400D02*
X141184200Y-93118019D01*
X141184200Y-93118019D02*
X141231819Y-93070400D01*
X141231819Y-93070400D02*
X141184200Y-93022781D01*
X141184200Y-93022781D02*
X141136580Y-93070400D01*
X141136580Y-93070400D02*
X141231819Y-93070400D01*
X140231819Y-93451352D02*
X140231819Y-94070399D01*
X140231819Y-94070399D02*
X140612771Y-93737066D01*
X140612771Y-93737066D02*
X140612771Y-93879923D01*
X140612771Y-93879923D02*
X140660390Y-93975161D01*
X140660390Y-93975161D02*
X140708009Y-94022780D01*
X140708009Y-94022780D02*
X140803247Y-94070399D01*
X140803247Y-94070399D02*
X141041342Y-94070399D01*
X141041342Y-94070399D02*
X141136580Y-94022780D01*
X141136580Y-94022780D02*
X141184200Y-93975161D01*
X141184200Y-93975161D02*
X141231819Y-93879923D01*
X141231819Y-93879923D02*
X141231819Y-93594209D01*
X141231819Y-93594209D02*
X141184200Y-93498971D01*
X141184200Y-93498971D02*
X141136580Y-93451352D01*
X135731819Y-87308495D02*
X136541342Y-87308495D01*
X136541342Y-87308495D02*
X136636580Y-87356114D01*
X136636580Y-87356114D02*
X136684200Y-87403733D01*
X136684200Y-87403733D02*
X136731819Y-87498971D01*
X136731819Y-87498971D02*
X136731819Y-87689447D01*
X136731819Y-87689447D02*
X136684200Y-87784685D01*
X136684200Y-87784685D02*
X136636580Y-87832304D01*
X136636580Y-87832304D02*
X136541342Y-87879923D01*
X136541342Y-87879923D02*
X135731819Y-87879923D01*
X135731819Y-88260876D02*
X135731819Y-88879923D01*
X135731819Y-88879923D02*
X136112771Y-88546590D01*
X136112771Y-88546590D02*
X136112771Y-88689447D01*
X136112771Y-88689447D02*
X136160390Y-88784685D01*
X136160390Y-88784685D02*
X136208009Y-88832304D01*
X136208009Y-88832304D02*
X136303247Y-88879923D01*
X136303247Y-88879923D02*
X136541342Y-88879923D01*
X136541342Y-88879923D02*
X136636580Y-88832304D01*
X136636580Y-88832304D02*
X136684200Y-88784685D01*
X136684200Y-88784685D02*
X136731819Y-88689447D01*
X136731819Y-88689447D02*
X136731819Y-88403733D01*
X136731819Y-88403733D02*
X136684200Y-88308495D01*
X136684200Y-88308495D02*
X136636580Y-88260876D01*
X139867819Y-81294361D02*
X139867819Y-80722933D01*
X139867819Y-81008647D02*
X138867819Y-81008647D01*
X138867819Y-81008647D02*
X139010676Y-80913409D01*
X139010676Y-80913409D02*
X139105914Y-80818171D01*
X139105914Y-80818171D02*
X139153533Y-80722933D01*
X139201152Y-82151504D02*
X139867819Y-82151504D01*
X139201152Y-81722933D02*
X139724961Y-81722933D01*
X139724961Y-81722933D02*
X139820200Y-81770552D01*
X139820200Y-81770552D02*
X139867819Y-81865790D01*
X139867819Y-81865790D02*
X139867819Y-82008647D01*
X139867819Y-82008647D02*
X139820200Y-82103885D01*
X139820200Y-82103885D02*
X139772580Y-82151504D01*
X139344009Y-82961028D02*
X139344009Y-82627695D01*
X139867819Y-82627695D02*
X138867819Y-82627695D01*
X138867819Y-82627695D02*
X138867819Y-83103885D01*
D14*
X140986832Y-81822933D02*
X141005880Y-81803885D01*
X141005880Y-81803885D02*
X141024927Y-81746743D01*
X141024927Y-81746743D02*
X141024927Y-81708647D01*
X141024927Y-81708647D02*
X141005880Y-81651504D01*
X141005880Y-81651504D02*
X140967784Y-81613409D01*
X140967784Y-81613409D02*
X140929689Y-81594362D01*
X140929689Y-81594362D02*
X140853499Y-81575314D01*
X140853499Y-81575314D02*
X140796356Y-81575314D01*
X140796356Y-81575314D02*
X140720165Y-81594362D01*
X140720165Y-81594362D02*
X140682070Y-81613409D01*
X140682070Y-81613409D02*
X140643975Y-81651504D01*
X140643975Y-81651504D02*
X140624927Y-81708647D01*
X140624927Y-81708647D02*
X140624927Y-81746743D01*
X140624927Y-81746743D02*
X140643975Y-81803885D01*
X140643975Y-81803885D02*
X140663022Y-81822933D01*
X140624927Y-81956266D02*
X140624927Y-82203885D01*
X140624927Y-82203885D02*
X140777308Y-82070552D01*
X140777308Y-82070552D02*
X140777308Y-82127695D01*
X140777308Y-82127695D02*
X140796356Y-82165790D01*
X140796356Y-82165790D02*
X140815403Y-82184838D01*
X140815403Y-82184838D02*
X140853499Y-82203885D01*
X140853499Y-82203885D02*
X140948737Y-82203885D01*
X140948737Y-82203885D02*
X140986832Y-82184838D01*
X140986832Y-82184838D02*
X141005880Y-82165790D01*
X141005880Y-82165790D02*
X141024927Y-82127695D01*
X141024927Y-82127695D02*
X141024927Y-82013409D01*
X141024927Y-82013409D02*
X141005880Y-81975314D01*
X141005880Y-81975314D02*
X140986832Y-81956266D01*
D11*
X157005819Y-115435400D02*
X156005819Y-115435400D01*
X156005819Y-116102066D02*
X156005819Y-116292542D01*
X156005819Y-116292542D02*
X156053438Y-116387780D01*
X156053438Y-116387780D02*
X156148676Y-116483018D01*
X156148676Y-116483018D02*
X156339152Y-116530637D01*
X156339152Y-116530637D02*
X156672485Y-116530637D01*
X156672485Y-116530637D02*
X156862961Y-116483018D01*
X156862961Y-116483018D02*
X156958200Y-116387780D01*
X156958200Y-116387780D02*
X157005819Y-116292542D01*
X157005819Y-116292542D02*
X157005819Y-116102066D01*
X157005819Y-116102066D02*
X156958200Y-116006828D01*
X156958200Y-116006828D02*
X156862961Y-115911590D01*
X156862961Y-115911590D02*
X156672485Y-115863971D01*
X156672485Y-115863971D02*
X156339152Y-115863971D01*
X156339152Y-115863971D02*
X156148676Y-115911590D01*
X156148676Y-115911590D02*
X156053438Y-116006828D01*
X156053438Y-116006828D02*
X156005819Y-116102066D01*
X156005819Y-117149685D02*
X156005819Y-117244923D01*
X156005819Y-117244923D02*
X156053438Y-117340161D01*
X156053438Y-117340161D02*
X156101057Y-117387780D01*
X156101057Y-117387780D02*
X156196295Y-117435399D01*
X156196295Y-117435399D02*
X156386771Y-117483018D01*
X156386771Y-117483018D02*
X156624866Y-117483018D01*
X156624866Y-117483018D02*
X156815342Y-117435399D01*
X156815342Y-117435399D02*
X156910580Y-117387780D01*
X156910580Y-117387780D02*
X156958200Y-117340161D01*
X156958200Y-117340161D02*
X157005819Y-117244923D01*
X157005819Y-117244923D02*
X157005819Y-117149685D01*
X157005819Y-117149685D02*
X156958200Y-117054447D01*
X156958200Y-117054447D02*
X156910580Y-117006828D01*
X156910580Y-117006828D02*
X156815342Y-116959209D01*
X156815342Y-116959209D02*
X156624866Y-116911590D01*
X156624866Y-116911590D02*
X156386771Y-116911590D01*
X156386771Y-116911590D02*
X156196295Y-116959209D01*
X156196295Y-116959209D02*
X156101057Y-117006828D01*
X156101057Y-117006828D02*
X156053438Y-117054447D01*
X156053438Y-117054447D02*
X156005819Y-117149685D01*
X151958200Y-115673495D02*
X152005819Y-115816352D01*
X152005819Y-115816352D02*
X152005819Y-116054447D01*
X152005819Y-116054447D02*
X151958200Y-116149685D01*
X151958200Y-116149685D02*
X151910580Y-116197304D01*
X151910580Y-116197304D02*
X151815342Y-116244923D01*
X151815342Y-116244923D02*
X151720104Y-116244923D01*
X151720104Y-116244923D02*
X151624866Y-116197304D01*
X151624866Y-116197304D02*
X151577247Y-116149685D01*
X151577247Y-116149685D02*
X151529628Y-116054447D01*
X151529628Y-116054447D02*
X151482009Y-115863971D01*
X151482009Y-115863971D02*
X151434390Y-115768733D01*
X151434390Y-115768733D02*
X151386771Y-115721114D01*
X151386771Y-115721114D02*
X151291533Y-115673495D01*
X151291533Y-115673495D02*
X151196295Y-115673495D01*
X151196295Y-115673495D02*
X151101057Y-115721114D01*
X151101057Y-115721114D02*
X151053438Y-115768733D01*
X151053438Y-115768733D02*
X151005819Y-115863971D01*
X151005819Y-115863971D02*
X151005819Y-116102066D01*
X151005819Y-116102066D02*
X151053438Y-116244923D01*
X151101057Y-116625876D02*
X151053438Y-116673495D01*
X151053438Y-116673495D02*
X151005819Y-116768733D01*
X151005819Y-116768733D02*
X151005819Y-117006828D01*
X151005819Y-117006828D02*
X151053438Y-117102066D01*
X151053438Y-117102066D02*
X151101057Y-117149685D01*
X151101057Y-117149685D02*
X151196295Y-117197304D01*
X151196295Y-117197304D02*
X151291533Y-117197304D01*
X151291533Y-117197304D02*
X151434390Y-117149685D01*
X151434390Y-117149685D02*
X152005819Y-116578257D01*
X152005819Y-116578257D02*
X152005819Y-117197304D01*
X150408819Y-115698780D02*
X150408819Y-115127352D01*
X150408819Y-115413066D02*
X149408819Y-115413066D01*
X149408819Y-115413066D02*
X149551676Y-115317828D01*
X149551676Y-115317828D02*
X149646914Y-115222590D01*
X149646914Y-115222590D02*
X149694533Y-115127352D01*
X149408819Y-116317828D02*
X149408819Y-116413066D01*
X149408819Y-116413066D02*
X149456438Y-116508304D01*
X149456438Y-116508304D02*
X149504057Y-116555923D01*
X149504057Y-116555923D02*
X149599295Y-116603542D01*
X149599295Y-116603542D02*
X149789771Y-116651161D01*
X149789771Y-116651161D02*
X150027866Y-116651161D01*
X150027866Y-116651161D02*
X150218342Y-116603542D01*
X150218342Y-116603542D02*
X150313580Y-116555923D01*
X150313580Y-116555923D02*
X150361200Y-116508304D01*
X150361200Y-116508304D02*
X150408819Y-116413066D01*
X150408819Y-116413066D02*
X150408819Y-116317828D01*
X150408819Y-116317828D02*
X150361200Y-116222590D01*
X150361200Y-116222590D02*
X150313580Y-116174971D01*
X150313580Y-116174971D02*
X150218342Y-116127352D01*
X150218342Y-116127352D02*
X150027866Y-116079733D01*
X150027866Y-116079733D02*
X149789771Y-116079733D01*
X149789771Y-116079733D02*
X149599295Y-116127352D01*
X149599295Y-116127352D02*
X149504057Y-116174971D01*
X149504057Y-116174971D02*
X149456438Y-116222590D01*
X149456438Y-116222590D02*
X149408819Y-116317828D01*
X149408819Y-117270209D02*
X149408819Y-117365447D01*
X149408819Y-117365447D02*
X149456438Y-117460685D01*
X149456438Y-117460685D02*
X149504057Y-117508304D01*
X149504057Y-117508304D02*
X149599295Y-117555923D01*
X149599295Y-117555923D02*
X149789771Y-117603542D01*
X149789771Y-117603542D02*
X150027866Y-117603542D01*
X150027866Y-117603542D02*
X150218342Y-117555923D01*
X150218342Y-117555923D02*
X150313580Y-117508304D01*
X150313580Y-117508304D02*
X150361200Y-117460685D01*
X150361200Y-117460685D02*
X150408819Y-117365447D01*
X150408819Y-117365447D02*
X150408819Y-117270209D01*
X150408819Y-117270209D02*
X150361200Y-117174971D01*
X150361200Y-117174971D02*
X150313580Y-117127352D01*
X150313580Y-117127352D02*
X150218342Y-117079733D01*
X150218342Y-117079733D02*
X150027866Y-117032114D01*
X150027866Y-117032114D02*
X149789771Y-117032114D01*
X149789771Y-117032114D02*
X149599295Y-117079733D01*
X149599295Y-117079733D02*
X149504057Y-117127352D01*
X149504057Y-117127352D02*
X149456438Y-117174971D01*
X149456438Y-117174971D02*
X149408819Y-117270209D01*
X149742152Y-118032114D02*
X150408819Y-118032114D01*
X149837390Y-118032114D02*
X149789771Y-118079733D01*
X149789771Y-118079733D02*
X149742152Y-118174971D01*
X149742152Y-118174971D02*
X149742152Y-118317828D01*
X149742152Y-118317828D02*
X149789771Y-118413066D01*
X149789771Y-118413066D02*
X149885009Y-118460685D01*
X149885009Y-118460685D02*
X150408819Y-118460685D01*
X149885009Y-119270209D02*
X149885009Y-118936876D01*
X150408819Y-118936876D02*
X149408819Y-118936876D01*
X149408819Y-118936876D02*
X149408819Y-119413066D01*
D14*
X151527832Y-117179733D02*
X151546880Y-117160685D01*
X151546880Y-117160685D02*
X151565927Y-117103543D01*
X151565927Y-117103543D02*
X151565927Y-117065447D01*
X151565927Y-117065447D02*
X151546880Y-117008304D01*
X151546880Y-117008304D02*
X151508784Y-116970209D01*
X151508784Y-116970209D02*
X151470689Y-116951162D01*
X151470689Y-116951162D02*
X151394499Y-116932114D01*
X151394499Y-116932114D02*
X151337356Y-116932114D01*
X151337356Y-116932114D02*
X151261165Y-116951162D01*
X151261165Y-116951162D02*
X151223070Y-116970209D01*
X151223070Y-116970209D02*
X151184975Y-117008304D01*
X151184975Y-117008304D02*
X151165927Y-117065447D01*
X151165927Y-117065447D02*
X151165927Y-117103543D01*
X151165927Y-117103543D02*
X151184975Y-117160685D01*
X151184975Y-117160685D02*
X151204022Y-117179733D01*
X151204022Y-117332114D02*
X151184975Y-117351162D01*
X151184975Y-117351162D02*
X151165927Y-117389257D01*
X151165927Y-117389257D02*
X151165927Y-117484495D01*
X151165927Y-117484495D02*
X151184975Y-117522590D01*
X151184975Y-117522590D02*
X151204022Y-117541638D01*
X151204022Y-117541638D02*
X151242118Y-117560685D01*
X151242118Y-117560685D02*
X151280213Y-117560685D01*
X151280213Y-117560685D02*
X151337356Y-117541638D01*
X151337356Y-117541638D02*
X151565927Y-117313066D01*
X151565927Y-117313066D02*
X151565927Y-117560685D01*
D10*
%TO.C,S1*%
X141458000Y-114935400D02*
X138958000Y-114935400D01*
X138958000Y-114935400D02*
X138958000Y-117935400D01*
X141458000Y-117935400D02*
X141458000Y-114935400D01*
X138958000Y-117935400D02*
X141458000Y-117935400D01*
X140958000Y-116435400D02*
G75*
G03*
X140958000Y-116435400I-750000J0D01*
G01*
%TO.C,C4*%
X140570000Y-92138400D02*
X141370000Y-92138400D01*
X141370000Y-92138400D02*
X141370000Y-90538400D01*
X140570000Y-90538400D02*
X140570000Y-92138400D01*
X141370000Y-90538400D02*
X140570000Y-90538400D01*
%TO.C,R7*%
X143160500Y-116460400D02*
X142335500Y-116460400D01*
X142335500Y-116460400D02*
X142335500Y-118060400D01*
X143160500Y-118060400D02*
X143160500Y-116460400D01*
X142335500Y-118060400D02*
X143160500Y-118060400D01*
%TO.C,C1*%
X138195000Y-116446400D02*
X137395000Y-116446400D01*
X137395000Y-116446400D02*
X137395000Y-118046400D01*
X138195000Y-118046400D02*
X138195000Y-116446400D01*
X137395000Y-118046400D02*
X138195000Y-118046400D01*
D16*
%TO.C,J3*%
X148654000Y-114784400D02*
X148654000Y-118594400D01*
X145224000Y-114784400D02*
X148654000Y-114784400D01*
X148654000Y-118594400D02*
X145224000Y-118594400D01*
X145224000Y-118594400D02*
X145224000Y-114784400D01*
D17*
X142889000Y-115419400D02*
G75*
G03*
X142889000Y-115419400I-100000J0D01*
G01*
D10*
%TO.C,D1*%
X160624000Y-84099400D02*
X152304000Y-84099400D01*
X157404000Y-84099400D02*
X152304000Y-89199400D01*
X152304000Y-84099400D02*
X152304000Y-90449400D01*
X160624000Y-90449400D02*
X160624000Y-84099400D01*
X152304000Y-90449400D02*
X160624000Y-90449400D01*
D16*
%TO.C,U1*%
X156216000Y-96445400D02*
X132216000Y-96445400D01*
X132216000Y-96445400D02*
X132216000Y-112445400D01*
X156216000Y-112445400D02*
X156216000Y-96445400D01*
X132216000Y-112445400D02*
X156216000Y-112445400D01*
D10*
%TO.C,U3*%
X138932000Y-82260400D02*
X138932000Y-84960400D01*
X138182000Y-82260400D02*
X138932000Y-82260400D01*
X134372000Y-82260400D02*
X134372000Y-84960400D01*
X133622000Y-82260400D02*
X134372000Y-82260400D01*
X139527000Y-84960400D02*
X134027000Y-84960400D01*
X138182000Y-84960400D02*
X138182000Y-82260400D01*
X134027000Y-84960400D02*
X133027000Y-85960400D01*
X133622000Y-85365400D02*
X133622000Y-82260400D01*
X133027000Y-85960400D02*
X133027000Y-91180400D01*
X139527000Y-91180400D02*
X139527000Y-84960400D01*
X133577000Y-91180400D02*
X133577000Y-92180400D01*
X133027000Y-91180400D02*
X139527000Y-91180400D01*
X138977000Y-92180400D02*
X138977000Y-91180400D01*
X133577000Y-92180400D02*
X138977000Y-92180400D01*
%TO.C,C3*%
X140443000Y-82689600D02*
X141243000Y-82689600D01*
X141243000Y-82689600D02*
X141243000Y-81089600D01*
X140443000Y-81089600D02*
X140443000Y-82689600D01*
X141243000Y-81089600D02*
X140443000Y-81089600D01*
%TO.C,S2*%
X155301000Y-114935400D02*
X152801000Y-114935400D01*
X152801000Y-114935400D02*
X152801000Y-117935400D01*
X155301000Y-117935400D02*
X155301000Y-114935400D01*
X152801000Y-117935400D02*
X155301000Y-117935400D01*
X154801000Y-116435400D02*
G75*
G03*
X154801000Y-116435400I-750000J0D01*
G01*
%TO.C,C2*%
X150984000Y-118046400D02*
X151784000Y-118046400D01*
X151784000Y-118046400D02*
X151784000Y-116446400D01*
X150984000Y-116446400D02*
X150984000Y-118046400D01*
X151784000Y-116446400D02*
X150984000Y-116446400D01*
%TD*%
M02*
