%TF.GenerationSoftware,KiCad,Pcbnew,7.0.7*%
%TF.CreationDate,2024-03-20T19:05:46+01:00*%
%TF.ProjectId,DriverRGB_v2,44726976-6572-4524-9742-5f76322e6b69,v02*%
%TF.SameCoordinates,Original*%
%TF.FileFunction,Other,User*%
%FSLAX46Y46*%
G04 Gerber Fmt 4.6, Leading zero omitted, Abs format (unit mm)*
G04 Created by KiCad (PCBNEW 7.0.7) date 2024-03-20 19:05:46*
%MOMM*%
%LPD*%
G01*
G04 APERTURE LIST*
%ADD10C,0.050000*%
G04 APERTURE END LIST*
D10*
%TO.C,J2*%
X141989800Y-113511200D02*
X151989800Y-113511200D01*
X141989800Y-120599200D02*
X141989800Y-113511200D01*
X151989800Y-113511200D02*
X151989800Y-120599200D01*
X151989800Y-120599200D02*
X141989800Y-120599200D01*
%TO.C,R2*%
X142512800Y-95294000D02*
X142512800Y-98254000D01*
X141052800Y-95294000D02*
X142512800Y-95294000D01*
X142512800Y-98254000D02*
X141052800Y-98254000D01*
X141052800Y-98254000D02*
X141052800Y-95294000D01*
%TO.C,R1*%
X144163800Y-95294000D02*
X144163800Y-98254000D01*
X142703800Y-95294000D02*
X144163800Y-95294000D01*
X144163800Y-98254000D02*
X142703800Y-98254000D01*
X142703800Y-98254000D02*
X142703800Y-95294000D01*
%TO.C,R4*%
X149802600Y-95294000D02*
X149802600Y-98254000D01*
X148342600Y-95294000D02*
X149802600Y-95294000D01*
X149802600Y-98254000D02*
X148342600Y-98254000D01*
X148342600Y-98254000D02*
X148342600Y-95294000D01*
%TO.C,R3*%
X151479000Y-95293000D02*
X151479000Y-98253000D01*
X150019000Y-95293000D02*
X151479000Y-95293000D01*
X151479000Y-98253000D02*
X150019000Y-98253000D01*
X150019000Y-98253000D02*
X150019000Y-95293000D01*
%TO.C,R6*%
X156717400Y-95293200D02*
X156717400Y-98253200D01*
X155257400Y-95293200D02*
X156717400Y-95293200D01*
X156717400Y-98253200D02*
X155257400Y-98253200D01*
X155257400Y-98253200D02*
X155257400Y-95293200D01*
%TO.C,R5*%
X158368400Y-95293200D02*
X158368400Y-98253200D01*
X156908400Y-95293200D02*
X158368400Y-95293200D01*
X158368400Y-98253200D02*
X156908400Y-98253200D01*
X156908400Y-98253200D02*
X156908400Y-95293200D01*
%TD*%
M02*
