%TF.GenerationSoftware,KiCad,Pcbnew,7.0.7*%
%TF.CreationDate,2024-03-20T19:05:46+01:00*%
%TF.ProjectId,DriverRGB_v2,44726976-6572-4524-9742-5f76322e6b69,v02*%
%TF.SameCoordinates,Original*%
%TF.FileFunction,Copper,L1,Top*%
%TF.FilePolarity,Positive*%
%FSLAX46Y46*%
G04 Gerber Fmt 4.6, Leading zero omitted, Abs format (unit mm)*
G04 Created by KiCad (PCBNEW 7.0.7) date 2024-03-20 19:05:46*
%MOMM*%
%LPD*%
G01*
G04 APERTURE LIST*
G04 Aperture macros list*
%AMRoundRect*
0 Rectangle with rounded corners*
0 $1 Rounding radius*
0 $2 $3 $4 $5 $6 $7 $8 $9 X,Y pos of 4 corners*
0 Add a 4 corners polygon primitive as box body*
4,1,4,$2,$3,$4,$5,$6,$7,$8,$9,$2,$3,0*
0 Add four circle primitives for the rounded corners*
1,1,$1+$1,$2,$3*
1,1,$1+$1,$4,$5*
1,1,$1+$1,$6,$7*
1,1,$1+$1,$8,$9*
0 Add four rect primitives between the rounded corners*
20,1,$1+$1,$2,$3,$4,$5,0*
20,1,$1+$1,$4,$5,$6,$7,0*
20,1,$1+$1,$6,$7,$8,$9,0*
20,1,$1+$1,$8,$9,$2,$3,0*%
G04 Aperture macros list end*
%TA.AperFunction,SMDPad,CuDef*%
%ADD10R,1.250000X2.850000*%
%TD*%
%TA.AperFunction,SMDPad,CuDef*%
%ADD11R,5.550000X6.500000*%
%TD*%
%TA.AperFunction,SMDPad,CuDef*%
%ADD12R,0.700000X2.500000*%
%TD*%
%TA.AperFunction,SMDPad,CuDef*%
%ADD13R,1.100000X1.900000*%
%TD*%
%TA.AperFunction,ComponentPad*%
%ADD14C,3.000000*%
%TD*%
%TA.AperFunction,SMDPad,CuDef*%
%ADD15RoundRect,0.200000X-0.275000X0.200000X-0.275000X-0.200000X0.275000X-0.200000X0.275000X0.200000X0*%
%TD*%
%TA.AperFunction,ViaPad*%
%ADD16C,0.800000*%
%TD*%
%TA.AperFunction,Conductor*%
%ADD17C,0.700000*%
%TD*%
%TA.AperFunction,Conductor*%
%ADD18C,0.300000*%
%TD*%
G04 APERTURE END LIST*
D10*
%TO.P,Q1,1,G*%
%TO.N,Net-(Q1-G)*%
X144697800Y-100365450D03*
%TO.P,Q1,2,S*%
%TO.N,GND*%
X140137800Y-100365450D03*
D11*
%TO.P,Q1,3,D*%
%TO.N,RED_OUT-*%
X142417800Y-106765450D03*
%TD*%
D12*
%TO.P,J2,1,1*%
%TO.N,PWR_IN*%
X144739800Y-115011200D03*
%TO.P,J2,2,2*%
%TO.N,RED_OUT-*%
X146239800Y-115011200D03*
%TO.P,J2,3,3*%
%TO.N,GREEN_OUT-*%
X147739800Y-115011200D03*
%TO.P,J2,4,4*%
%TO.N,BLUE_OUT-*%
X149239800Y-115011200D03*
D13*
%TO.P,J2,S1*%
%TO.N,N/C*%
X142789800Y-118611200D03*
%TO.P,J2,S2*%
X151189800Y-118611200D03*
%TD*%
D14*
%TO.P,J1,1*%
%TO.N,PWR_IN*%
X146667000Y-89639400D03*
%TO.P,J1,2*%
%TO.N,GND*%
X146667000Y-83639400D03*
%TO.P,J1,3*%
X141967000Y-86639400D03*
%TD*%
D15*
%TO.P,R2,1*%
%TO.N,GND*%
X141782800Y-95949000D03*
%TO.P,R2,2*%
%TO.N,Net-(Q1-G)*%
X141782800Y-97599000D03*
%TD*%
D10*
%TO.P,Q3,1,G*%
%TO.N,Net-(Q3-G)*%
X159181800Y-100380800D03*
%TO.P,Q3,2,S*%
%TO.N,GND*%
X154621800Y-100380800D03*
D11*
%TO.P,Q3,3,D*%
%TO.N,BLUE_OUT-*%
X156901800Y-106780800D03*
%TD*%
D15*
%TO.P,R1,1*%
%TO.N,PWM_RED*%
X143433800Y-95949000D03*
%TO.P,R1,2*%
%TO.N,Net-(Q1-G)*%
X143433800Y-97599000D03*
%TD*%
%TO.P,R4,1*%
%TO.N,GND*%
X149072600Y-95949000D03*
%TO.P,R4,2*%
%TO.N,Net-(Q2-G)*%
X149072600Y-97599000D03*
%TD*%
%TO.P,R3,1*%
%TO.N,PWM_GREEN*%
X150749000Y-95948000D03*
%TO.P,R3,2*%
%TO.N,Net-(Q2-G)*%
X150749000Y-97598000D03*
%TD*%
%TO.P,R6,1*%
%TO.N,GND*%
X155987400Y-95948200D03*
%TO.P,R6,2*%
%TO.N,Net-(Q3-G)*%
X155987400Y-97598200D03*
%TD*%
D10*
%TO.P,Q2,1,G*%
%TO.N,Net-(Q2-G)*%
X151886000Y-100381600D03*
%TO.P,Q2,2,S*%
%TO.N,GND*%
X147326000Y-100381600D03*
D11*
%TO.P,Q2,3,D*%
%TO.N,GREEN_OUT-*%
X149606000Y-106781600D03*
%TD*%
D15*
%TO.P,R5,1*%
%TO.N,PWM_BLUE*%
X157638400Y-95948200D03*
%TO.P,R5,2*%
%TO.N,Net-(Q3-G)*%
X157638400Y-97598200D03*
%TD*%
D16*
%TO.N,GND*%
X147345400Y-100380800D03*
X154711400Y-112318800D03*
%TO.N,PWM_RED*%
X146716000Y-96545400D03*
%TO.N,PWM_BLUE*%
X152716000Y-96545400D03*
%TO.N,PWM_GREEN*%
X150749000Y-95948000D03*
%TO.N,RX*%
X144989000Y-117959400D03*
X140716000Y-112293400D03*
%TD*%
D17*
%TO.N,GND*%
X147345400Y-101676200D02*
X148336000Y-102666800D01*
X140137800Y-100365450D02*
X140137800Y-88468600D01*
X146354800Y-102641400D02*
X147326000Y-101670200D01*
X141147800Y-102641400D02*
X146354800Y-102641400D01*
X140137800Y-100365450D02*
X140137800Y-101631400D01*
D18*
X155987400Y-95948200D02*
X155986900Y-95948200D01*
X154641200Y-100361400D02*
X154621800Y-100380800D01*
D17*
X148336000Y-102666800D02*
X153619200Y-102666800D01*
X147345400Y-100380800D02*
X147345400Y-101676200D01*
X147326000Y-101670200D02*
X147326000Y-100381600D01*
X140137800Y-88468600D02*
X141967000Y-86639400D01*
X140137800Y-101631400D02*
X141147800Y-102641400D01*
X153619200Y-102666800D02*
X154621800Y-101664200D01*
X154621800Y-101664200D02*
X154621800Y-100380800D01*
%TO.N,PWR_IN*%
X160959800Y-110667800D02*
X160959800Y-96215200D01*
X144739800Y-116312800D02*
X145368600Y-116941600D01*
X144739800Y-115011200D02*
X144739800Y-116312800D01*
X160959800Y-96215200D02*
X154384000Y-89639400D01*
X145368600Y-116941600D02*
X154686000Y-116941600D01*
X154686000Y-116941600D02*
X160959800Y-110667800D01*
X146842000Y-89464400D02*
X146667000Y-89639400D01*
X154384000Y-89639400D02*
X146667000Y-89639400D01*
%TO.N,BLUE_OUT-*%
X149239800Y-114442800D02*
X156901800Y-106780800D01*
X149239800Y-115011200D02*
X149239800Y-114442800D01*
%TO.N,RED_OUT-*%
X146239800Y-111128925D02*
X146239800Y-115011200D01*
X142417800Y-106765450D02*
X142417800Y-107306925D01*
X142417800Y-107306925D02*
X146239800Y-111128925D01*
D18*
%TO.N,Net-(Q1-G)*%
X144697800Y-98863000D02*
X144697800Y-100365450D01*
X141782800Y-97599000D02*
X143433800Y-97599000D01*
X143433800Y-97599000D02*
X144697800Y-98863000D01*
%TO.N,Net-(Q2-G)*%
X150749000Y-97598000D02*
X151886000Y-98735000D01*
X151886000Y-98735000D02*
X151886000Y-99116000D01*
X149072600Y-97599000D02*
X150367000Y-97599000D01*
%TO.N,Net-(Q3-G)*%
X157638400Y-97598200D02*
X159181800Y-99141600D01*
X159181800Y-99141600D02*
X159181800Y-100380800D01*
X155987400Y-97598200D02*
X157638400Y-97598200D01*
D17*
%TO.N,GREEN_OUT-*%
X147739800Y-108647800D02*
X147739800Y-115011200D01*
X149606000Y-106781600D02*
X147739800Y-108647800D01*
D18*
%TO.N,PWM_RED*%
X146119600Y-95949000D02*
X146716000Y-96545400D01*
X143433800Y-95949000D02*
X146119600Y-95949000D01*
%TO.N,PWM_BLUE*%
X156787800Y-95097600D02*
X154163800Y-95097600D01*
X157638400Y-95948200D02*
X156787800Y-95097600D01*
X154163800Y-95097600D02*
X152716000Y-96545400D01*
%TO.N,RX*%
X144197600Y-117959400D02*
X140716000Y-114477800D01*
X144989000Y-117959400D02*
X144197600Y-117959400D01*
X140716000Y-114477800D02*
X140716000Y-112293400D01*
%TD*%
%TA.AperFunction,Conductor*%
%TO.N,GND*%
G36*
X158426554Y-75675975D02*
G01*
X158531288Y-75681119D01*
X158577212Y-75683375D01*
X158771628Y-75693565D01*
X158777428Y-75694145D01*
X158946522Y-75719228D01*
X159122627Y-75747121D01*
X159127936Y-75748204D01*
X159297086Y-75790573D01*
X159466351Y-75835928D01*
X159471170Y-75837433D01*
X159636806Y-75896699D01*
X159799305Y-75959076D01*
X159803551Y-75960893D01*
X159963407Y-76036499D01*
X160118044Y-76115290D01*
X160121731Y-76117332D01*
X160273916Y-76208548D01*
X160400638Y-76290842D01*
X160419300Y-76302962D01*
X160422466Y-76305161D01*
X160565275Y-76411075D01*
X160700028Y-76520195D01*
X160702625Y-76522421D01*
X160833485Y-76641026D01*
X160835679Y-76643115D01*
X160957283Y-76764719D01*
X160959382Y-76766923D01*
X161077969Y-76897764D01*
X161080209Y-76900377D01*
X161116864Y-76945643D01*
X161189324Y-77035124D01*
X161295237Y-77177932D01*
X161297436Y-77181098D01*
X161391856Y-77326490D01*
X161483054Y-77478645D01*
X161485118Y-77482373D01*
X161563900Y-77636992D01*
X161639498Y-77796832D01*
X161641333Y-77801120D01*
X161663621Y-77859184D01*
X161703702Y-77963596D01*
X161707558Y-77974374D01*
X161762959Y-78129209D01*
X161764471Y-78134051D01*
X161809825Y-78303311D01*
X161852188Y-78472433D01*
X161853283Y-78477801D01*
X161881177Y-78653916D01*
X161906249Y-78822938D01*
X161906835Y-78828794D01*
X161917043Y-79023571D01*
X161924425Y-79173845D01*
X161924500Y-79176888D01*
X161924500Y-79221285D01*
X161925220Y-79227982D01*
X161925220Y-95722160D01*
X161905535Y-95789199D01*
X161852731Y-95834954D01*
X161783573Y-95844898D01*
X161720017Y-95815873D01*
X161696741Y-95788944D01*
X161682607Y-95766832D01*
X161668693Y-95743708D01*
X161640870Y-95697464D01*
X161640867Y-95697461D01*
X161640209Y-95696595D01*
X161627341Y-95680134D01*
X161626602Y-95679214D01*
X161626601Y-95679213D01*
X161626600Y-95679211D01*
X161569339Y-95621950D01*
X161513649Y-95563159D01*
X161512888Y-95562512D01*
X161495681Y-95548292D01*
X159346189Y-93398800D01*
X155011607Y-89064218D01*
X155008204Y-89060526D01*
X154972336Y-89018299D01*
X154907891Y-88969309D01*
X154844759Y-88918562D01*
X154844758Y-88918561D01*
X154844754Y-88918558D01*
X154844748Y-88918555D01*
X154843854Y-88917983D01*
X154826019Y-88906920D01*
X154825064Y-88906346D01*
X154751560Y-88872339D01*
X154679027Y-88836366D01*
X154677981Y-88835982D01*
X154658160Y-88829002D01*
X154657164Y-88828666D01*
X154578073Y-88811258D01*
X154499494Y-88791715D01*
X154498584Y-88791591D01*
X154477506Y-88789010D01*
X154476501Y-88788901D01*
X154476497Y-88788900D01*
X154476492Y-88788900D01*
X154395531Y-88788900D01*
X154314564Y-88786706D01*
X154313520Y-88786791D01*
X154291352Y-88788900D01*
X148555472Y-88788900D01*
X148488433Y-88769215D01*
X148446640Y-88724327D01*
X148354229Y-88555090D01*
X148354224Y-88555082D01*
X148182745Y-88326012D01*
X148182729Y-88325994D01*
X147980405Y-88123670D01*
X147980387Y-88123654D01*
X147751317Y-87952175D01*
X147751309Y-87952170D01*
X147500166Y-87815035D01*
X147500167Y-87815035D01*
X147392914Y-87775032D01*
X147232046Y-87715031D01*
X147232043Y-87715030D01*
X147232037Y-87715028D01*
X146952433Y-87654204D01*
X146667001Y-87633790D01*
X146666999Y-87633790D01*
X146381566Y-87654204D01*
X146101962Y-87715028D01*
X145833833Y-87815035D01*
X145582690Y-87952170D01*
X145582682Y-87952175D01*
X145353612Y-88123654D01*
X145353594Y-88123670D01*
X145151270Y-88325994D01*
X145151254Y-88326012D01*
X144979775Y-88555082D01*
X144979770Y-88555090D01*
X144842635Y-88806233D01*
X144742628Y-89074362D01*
X144681804Y-89353966D01*
X144661390Y-89639398D01*
X144661390Y-89639401D01*
X144681804Y-89924833D01*
X144742628Y-90204437D01*
X144842635Y-90472566D01*
X144979770Y-90723709D01*
X144979775Y-90723717D01*
X145151254Y-90952787D01*
X145151270Y-90952805D01*
X145353594Y-91155129D01*
X145353612Y-91155145D01*
X145582682Y-91326624D01*
X145582690Y-91326629D01*
X145833833Y-91463764D01*
X145833832Y-91463764D01*
X145833836Y-91463765D01*
X145833839Y-91463767D01*
X146101954Y-91563769D01*
X146101960Y-91563770D01*
X146101962Y-91563771D01*
X146381566Y-91624595D01*
X146381568Y-91624595D01*
X146381572Y-91624596D01*
X146635220Y-91642737D01*
X146666999Y-91645010D01*
X146667000Y-91645010D01*
X146667001Y-91645010D01*
X146695595Y-91642964D01*
X146952428Y-91624596D01*
X147232046Y-91563769D01*
X147500161Y-91463767D01*
X147751315Y-91326626D01*
X147980395Y-91155139D01*
X148182739Y-90952795D01*
X148354226Y-90723715D01*
X148382634Y-90671688D01*
X148446640Y-90554473D01*
X148496045Y-90505068D01*
X148555472Y-90489900D01*
X153980349Y-90489900D01*
X154047388Y-90509585D01*
X154068030Y-90526219D01*
X160072981Y-96531169D01*
X160106466Y-96592492D01*
X160109300Y-96618850D01*
X160109300Y-98355852D01*
X160089615Y-98422891D01*
X160036811Y-98468646D01*
X159967653Y-98478590D01*
X159941968Y-98472034D01*
X159914285Y-98461709D01*
X159914283Y-98461708D01*
X159854683Y-98455301D01*
X159854681Y-98455300D01*
X159854673Y-98455300D01*
X159854665Y-98455300D01*
X159466808Y-98455300D01*
X159399769Y-98435615D01*
X159379127Y-98418981D01*
X158650219Y-97690073D01*
X158616734Y-97628750D01*
X158613900Y-97602392D01*
X158613900Y-97341586D01*
X158607559Y-97271807D01*
X158607486Y-97271004D01*
X158556878Y-97108594D01*
X158468872Y-96963015D01*
X158366736Y-96860879D01*
X158333253Y-96799559D01*
X158338237Y-96729867D01*
X158366736Y-96685520D01*
X158468872Y-96583385D01*
X158556878Y-96437806D01*
X158607486Y-96275396D01*
X158613900Y-96204816D01*
X158613900Y-95691584D01*
X158607486Y-95621004D01*
X158556878Y-95458594D01*
X158468872Y-95313015D01*
X158468870Y-95313013D01*
X158468869Y-95313011D01*
X158348588Y-95192730D01*
X158203006Y-95104722D01*
X158202364Y-95104522D01*
X158040596Y-95054114D01*
X158040594Y-95054113D01*
X158040592Y-95054113D01*
X157991178Y-95049623D01*
X157970016Y-95047700D01*
X157970013Y-95047700D01*
X157709208Y-95047700D01*
X157642169Y-95028015D01*
X157621527Y-95011381D01*
X157308234Y-94698088D01*
X157298161Y-94685514D01*
X157297974Y-94685670D01*
X157293001Y-94679659D01*
X157240556Y-94630410D01*
X157218835Y-94608689D01*
X157213040Y-94604194D01*
X157208598Y-94600399D01*
X157173196Y-94567154D01*
X157173188Y-94567148D01*
X157154592Y-94556925D01*
X157138331Y-94546244D01*
X157121563Y-94533237D01*
X157097980Y-94523032D01*
X157076978Y-94513943D01*
X157071756Y-94511386D01*
X157029168Y-94487973D01*
X157029165Y-94487972D01*
X157008601Y-94482692D01*
X156990196Y-94476390D01*
X156970727Y-94467965D01*
X156970721Y-94467963D01*
X156922751Y-94460366D01*
X156917036Y-94459182D01*
X156900572Y-94454955D01*
X156869980Y-94447100D01*
X156869977Y-94447100D01*
X156848755Y-94447100D01*
X156829355Y-94445573D01*
X156808396Y-94442253D01*
X156808395Y-94442253D01*
X156784586Y-94444503D01*
X156760030Y-94446825D01*
X156754192Y-94447100D01*
X154249304Y-94447100D01*
X154233293Y-94445332D01*
X154233271Y-94445574D01*
X154225504Y-94444840D01*
X154225503Y-94444840D01*
X154153596Y-94447100D01*
X154122875Y-94447100D01*
X154122871Y-94447100D01*
X154122861Y-94447101D01*
X154115593Y-94448019D01*
X154109776Y-94448476D01*
X154061235Y-94450002D01*
X154061224Y-94450004D01*
X154040848Y-94455923D01*
X154021808Y-94459866D01*
X154000747Y-94462527D01*
X154000739Y-94462529D01*
X153955575Y-94480411D01*
X153950047Y-94482303D01*
X153903402Y-94495855D01*
X153885132Y-94506660D01*
X153867663Y-94515218D01*
X153847928Y-94523032D01*
X153847926Y-94523033D01*
X153808639Y-94551577D01*
X153803756Y-94554784D01*
X153761932Y-94579519D01*
X153746926Y-94594526D01*
X153732136Y-94607158D01*
X153714967Y-94619632D01*
X153714965Y-94619634D01*
X153683994Y-94657070D01*
X153680062Y-94661391D01*
X152732873Y-95608581D01*
X152671550Y-95642066D01*
X152645192Y-95644900D01*
X152621354Y-95644900D01*
X152588897Y-95651798D01*
X152436197Y-95684255D01*
X152436192Y-95684257D01*
X152263270Y-95761248D01*
X152263265Y-95761251D01*
X152110129Y-95872511D01*
X151983465Y-96013185D01*
X151955887Y-96060953D01*
X151905320Y-96109169D01*
X151836713Y-96122391D01*
X151771848Y-96096423D01*
X151731320Y-96039509D01*
X151724500Y-95998953D01*
X151724500Y-95691386D01*
X151723852Y-95684255D01*
X151718086Y-95620804D01*
X151667478Y-95458394D01*
X151579472Y-95312815D01*
X151579470Y-95312813D01*
X151579469Y-95312811D01*
X151459188Y-95192530D01*
X151313606Y-95104522D01*
X151313605Y-95104521D01*
X151151196Y-95053914D01*
X151151194Y-95053913D01*
X151151192Y-95053913D01*
X151101778Y-95049423D01*
X151080616Y-95047500D01*
X150417384Y-95047500D01*
X150400889Y-95048999D01*
X150346807Y-95053913D01*
X150184393Y-95104522D01*
X150038811Y-95192530D01*
X150038810Y-95192531D01*
X149997627Y-95233715D01*
X149936304Y-95267200D01*
X149866612Y-95262216D01*
X149822265Y-95233715D01*
X149782477Y-95193927D01*
X149636995Y-95105980D01*
X149636996Y-95105980D01*
X149474705Y-95055409D01*
X149474706Y-95055409D01*
X149404172Y-95049000D01*
X149322600Y-95049000D01*
X149322600Y-96075000D01*
X149302915Y-96142039D01*
X149250111Y-96187794D01*
X149198600Y-96199000D01*
X148097601Y-96199000D01*
X148097601Y-96205582D01*
X148104008Y-96276102D01*
X148104009Y-96276107D01*
X148154581Y-96438396D01*
X148242527Y-96583877D01*
X148344615Y-96685965D01*
X148378100Y-96747288D01*
X148373116Y-96816980D01*
X148344615Y-96861327D01*
X148242131Y-96963810D01*
X148242130Y-96963811D01*
X148154122Y-97109393D01*
X148103513Y-97271807D01*
X148097100Y-97342386D01*
X148097100Y-97855613D01*
X148103513Y-97926192D01*
X148103513Y-97926194D01*
X148103514Y-97926196D01*
X148154122Y-98088606D01*
X148241644Y-98233385D01*
X148242130Y-98234188D01*
X148313294Y-98305352D01*
X148346779Y-98366675D01*
X148342494Y-98426580D01*
X148350074Y-98419001D01*
X148418347Y-98404149D01*
X148473648Y-98421715D01*
X148507994Y-98442478D01*
X148670404Y-98493086D01*
X148740984Y-98499500D01*
X148740987Y-98499500D01*
X149404213Y-98499500D01*
X149404216Y-98499500D01*
X149474796Y-98493086D01*
X149637206Y-98442478D01*
X149782785Y-98354472D01*
X149823618Y-98313638D01*
X149884938Y-98280153D01*
X149954630Y-98285136D01*
X149998980Y-98313638D01*
X150038811Y-98353469D01*
X150038813Y-98353470D01*
X150038815Y-98353472D01*
X150184394Y-98441478D01*
X150346804Y-98492086D01*
X150417384Y-98498500D01*
X150678192Y-98498500D01*
X150745231Y-98518185D01*
X150765873Y-98534819D01*
X150796816Y-98565762D01*
X150830301Y-98627085D01*
X150825317Y-98696777D01*
X150817969Y-98712867D01*
X150817203Y-98714268D01*
X150766908Y-98849117D01*
X150760583Y-98907955D01*
X150760501Y-98908723D01*
X150760500Y-98908735D01*
X150760500Y-101854470D01*
X150760501Y-101854476D01*
X150766908Y-101914083D01*
X150817202Y-102048928D01*
X150817206Y-102048935D01*
X150903452Y-102164144D01*
X150903455Y-102164147D01*
X151018664Y-102250393D01*
X151018671Y-102250397D01*
X151153517Y-102300691D01*
X151153516Y-102300691D01*
X151160444Y-102301435D01*
X151213127Y-102307100D01*
X152558872Y-102307099D01*
X152618483Y-102300691D01*
X152753331Y-102250396D01*
X152868546Y-102164146D01*
X152954796Y-102048931D01*
X153005091Y-101914083D01*
X153011500Y-101854473D01*
X153011499Y-100630800D01*
X153496800Y-100630800D01*
X153496800Y-101853644D01*
X153503201Y-101913172D01*
X153503203Y-101913179D01*
X153553445Y-102047886D01*
X153553449Y-102047893D01*
X153639609Y-102162987D01*
X153639612Y-102162990D01*
X153754706Y-102249150D01*
X153754713Y-102249154D01*
X153889420Y-102299396D01*
X153889427Y-102299398D01*
X153948955Y-102305799D01*
X153948972Y-102305800D01*
X154371800Y-102305800D01*
X154371800Y-100630800D01*
X154871800Y-100630800D01*
X154871800Y-102305800D01*
X155294628Y-102305800D01*
X155294644Y-102305799D01*
X155354172Y-102299398D01*
X155354179Y-102299396D01*
X155488886Y-102249154D01*
X155488893Y-102249150D01*
X155603987Y-102162990D01*
X155603990Y-102162987D01*
X155690150Y-102047893D01*
X155690154Y-102047886D01*
X155740396Y-101913179D01*
X155740398Y-101913172D01*
X155746799Y-101853644D01*
X155746800Y-101853627D01*
X155746800Y-100630800D01*
X154871800Y-100630800D01*
X154371800Y-100630800D01*
X153496800Y-100630800D01*
X153011499Y-100630800D01*
X153011499Y-100130800D01*
X153496800Y-100130800D01*
X154371800Y-100130800D01*
X154371800Y-98455800D01*
X153948955Y-98455800D01*
X153889427Y-98462201D01*
X153889420Y-98462203D01*
X153754713Y-98512445D01*
X153754706Y-98512449D01*
X153639612Y-98598609D01*
X153639609Y-98598612D01*
X153553449Y-98713706D01*
X153553445Y-98713713D01*
X153503203Y-98848420D01*
X153503201Y-98848427D01*
X153496800Y-98907955D01*
X153496800Y-100130800D01*
X153011499Y-100130800D01*
X153011499Y-98908728D01*
X153005091Y-98849117D01*
X152999108Y-98833077D01*
X152954797Y-98714271D01*
X152954793Y-98714264D01*
X152868547Y-98599055D01*
X152868544Y-98599052D01*
X152753335Y-98512806D01*
X152753328Y-98512802D01*
X152618482Y-98462508D01*
X152618483Y-98462508D01*
X152558883Y-98456101D01*
X152558881Y-98456100D01*
X152558873Y-98456100D01*
X152558865Y-98456100D01*
X152550611Y-98456100D01*
X152483572Y-98436415D01*
X152450295Y-98404988D01*
X152442319Y-98394010D01*
X152432011Y-98379822D01*
X152428811Y-98374951D01*
X152404081Y-98333135D01*
X152404079Y-98333133D01*
X152404078Y-98333131D01*
X152389075Y-98318129D01*
X152376435Y-98303330D01*
X152372226Y-98297537D01*
X152363963Y-98286163D01*
X152363961Y-98286160D01*
X152326528Y-98255194D01*
X152322206Y-98251260D01*
X151760819Y-97689873D01*
X151727334Y-97628550D01*
X151724500Y-97602192D01*
X151724500Y-97341386D01*
X151724500Y-97341384D01*
X151718086Y-97270804D01*
X151667478Y-97108394D01*
X151579472Y-96962815D01*
X151579470Y-96962813D01*
X151579469Y-96962811D01*
X151477339Y-96860681D01*
X151443854Y-96799358D01*
X151448838Y-96729666D01*
X151477339Y-96685319D01*
X151579468Y-96583189D01*
X151579469Y-96583188D01*
X151579468Y-96583187D01*
X151579472Y-96583185D01*
X151588828Y-96567707D01*
X151640353Y-96520522D01*
X151709212Y-96508682D01*
X151773541Y-96535949D01*
X151812916Y-96593667D01*
X151818264Y-96618891D01*
X151830326Y-96733656D01*
X151830327Y-96733659D01*
X151888818Y-96913677D01*
X151888821Y-96913684D01*
X151983467Y-97077616D01*
X152110129Y-97218287D01*
X152110129Y-97218288D01*
X152263265Y-97329548D01*
X152263270Y-97329551D01*
X152436192Y-97406542D01*
X152436197Y-97406544D01*
X152621354Y-97445900D01*
X152621355Y-97445900D01*
X152810644Y-97445900D01*
X152810646Y-97445900D01*
X152995803Y-97406544D01*
X153168730Y-97329551D01*
X153321871Y-97218288D01*
X153448533Y-97077616D01*
X153543179Y-96913684D01*
X153601674Y-96733656D01*
X153615168Y-96605255D01*
X153641752Y-96540642D01*
X153650799Y-96530545D01*
X154396926Y-95784419D01*
X154458250Y-95750934D01*
X154484608Y-95748100D01*
X156113400Y-95748100D01*
X156180439Y-95767785D01*
X156226194Y-95820589D01*
X156237400Y-95872100D01*
X156237400Y-96074200D01*
X156217715Y-96141239D01*
X156164911Y-96186994D01*
X156113400Y-96198200D01*
X155012401Y-96198200D01*
X155012401Y-96204782D01*
X155018808Y-96275302D01*
X155018809Y-96275307D01*
X155069381Y-96437596D01*
X155157327Y-96583077D01*
X155259415Y-96685165D01*
X155292900Y-96746488D01*
X155287916Y-96816180D01*
X155259415Y-96860527D01*
X155156931Y-96963010D01*
X155156930Y-96963011D01*
X155068922Y-97108593D01*
X155018313Y-97271007D01*
X155013182Y-97327475D01*
X155011900Y-97341584D01*
X155011900Y-97854816D01*
X155011973Y-97855616D01*
X155018313Y-97925392D01*
X155018313Y-97925394D01*
X155018314Y-97925396D01*
X155068922Y-98087805D01*
X155068922Y-98087806D01*
X155156930Y-98233388D01*
X155167661Y-98244119D01*
X155201146Y-98305442D01*
X155196162Y-98375134D01*
X155154290Y-98431067D01*
X155088826Y-98455484D01*
X155079980Y-98455800D01*
X154871800Y-98455800D01*
X154871800Y-100130800D01*
X155746800Y-100130800D01*
X155746800Y-98907972D01*
X155746799Y-98907955D01*
X155740398Y-98848427D01*
X155740396Y-98848420D01*
X155690154Y-98713713D01*
X155690152Y-98713710D01*
X155677652Y-98697012D01*
X155653234Y-98631548D01*
X155668085Y-98563275D01*
X155717490Y-98513869D01*
X155776918Y-98498700D01*
X156319013Y-98498700D01*
X156319016Y-98498700D01*
X156389596Y-98492286D01*
X156552006Y-98441678D01*
X156697585Y-98353672D01*
X156725219Y-98326037D01*
X156786540Y-98292553D01*
X156856232Y-98297537D01*
X156900580Y-98326037D01*
X156928215Y-98353672D01*
X157073794Y-98441678D01*
X157236204Y-98492286D01*
X157306784Y-98498700D01*
X157567592Y-98498700D01*
X157634631Y-98518385D01*
X157655273Y-98535019D01*
X158019981Y-98899727D01*
X158053466Y-98961050D01*
X158056300Y-98987408D01*
X158056300Y-101853670D01*
X158056301Y-101853676D01*
X158062708Y-101913283D01*
X158113002Y-102048128D01*
X158113006Y-102048135D01*
X158199252Y-102163344D01*
X158199255Y-102163347D01*
X158314464Y-102249593D01*
X158314471Y-102249597D01*
X158449317Y-102299891D01*
X158449316Y-102299891D01*
X158452172Y-102300198D01*
X158508927Y-102306300D01*
X159854672Y-102306299D01*
X159914283Y-102299891D01*
X159941965Y-102289565D01*
X160011656Y-102284580D01*
X160072980Y-102318064D01*
X160106466Y-102379387D01*
X160109300Y-102405747D01*
X160109300Y-102981853D01*
X160089615Y-103048892D01*
X160036811Y-103094647D01*
X159967653Y-103104591D01*
X159925872Y-103090685D01*
X159919128Y-103087002D01*
X159784282Y-103036708D01*
X159784283Y-103036708D01*
X159724683Y-103030301D01*
X159724681Y-103030300D01*
X159724673Y-103030300D01*
X159724664Y-103030300D01*
X154078929Y-103030300D01*
X154078923Y-103030301D01*
X154019316Y-103036708D01*
X153884471Y-103087002D01*
X153884464Y-103087006D01*
X153769255Y-103173252D01*
X153769252Y-103173255D01*
X153683006Y-103288464D01*
X153683002Y-103288471D01*
X153632708Y-103423317D01*
X153626301Y-103482916D01*
X153626299Y-103482935D01*
X153626300Y-108802148D01*
X153606615Y-108869187D01*
X153589981Y-108889829D01*
X153093180Y-109386629D01*
X153031857Y-109420114D01*
X152962165Y-109415130D01*
X152906232Y-109373258D01*
X152881815Y-109307794D01*
X152881499Y-109298948D01*
X152881499Y-103483729D01*
X152881498Y-103483723D01*
X152881497Y-103483716D01*
X152875091Y-103424117D01*
X152869067Y-103407967D01*
X152824797Y-103289271D01*
X152824793Y-103289264D01*
X152738547Y-103174055D01*
X152738544Y-103174052D01*
X152623335Y-103087806D01*
X152623328Y-103087802D01*
X152488482Y-103037508D01*
X152488483Y-103037508D01*
X152428883Y-103031101D01*
X152428881Y-103031100D01*
X152428873Y-103031100D01*
X152428864Y-103031100D01*
X146783129Y-103031100D01*
X146783123Y-103031101D01*
X146723516Y-103037508D01*
X146588671Y-103087802D01*
X146588664Y-103087806D01*
X146473455Y-103174052D01*
X146473452Y-103174055D01*
X146387206Y-103289264D01*
X146387202Y-103289271D01*
X146336908Y-103424117D01*
X146330587Y-103482916D01*
X146330501Y-103483723D01*
X146330500Y-103483735D01*
X146330500Y-109717475D01*
X146310815Y-109784514D01*
X146258011Y-109830269D01*
X146188853Y-109840213D01*
X146125297Y-109811188D01*
X146118819Y-109805156D01*
X145729618Y-109415955D01*
X145696133Y-109354632D01*
X145693299Y-109328274D01*
X145693299Y-103467579D01*
X145693298Y-103467573D01*
X145693297Y-103467566D01*
X145686891Y-103407967D01*
X145642620Y-103289271D01*
X145636597Y-103273121D01*
X145636593Y-103273114D01*
X145550347Y-103157905D01*
X145550344Y-103157902D01*
X145435135Y-103071656D01*
X145435128Y-103071652D01*
X145300282Y-103021358D01*
X145300283Y-103021358D01*
X145240683Y-103014951D01*
X145240681Y-103014950D01*
X145240673Y-103014950D01*
X145240664Y-103014950D01*
X139594929Y-103014950D01*
X139594923Y-103014951D01*
X139535316Y-103021358D01*
X139400471Y-103071652D01*
X139400464Y-103071656D01*
X139285255Y-103157902D01*
X139285252Y-103157905D01*
X139199006Y-103273114D01*
X139199002Y-103273121D01*
X139148708Y-103407967D01*
X139142301Y-103467566D01*
X139142301Y-103467573D01*
X139142300Y-103467585D01*
X139142300Y-110063320D01*
X139142301Y-110063326D01*
X139148708Y-110122933D01*
X139199002Y-110257778D01*
X139199006Y-110257785D01*
X139285252Y-110372994D01*
X139285255Y-110372997D01*
X139400464Y-110459243D01*
X139400471Y-110459247D01*
X139535317Y-110509541D01*
X139535316Y-110509541D01*
X139542244Y-110510285D01*
X139594927Y-110515950D01*
X144372673Y-110515949D01*
X144439712Y-110535634D01*
X144460354Y-110552268D01*
X145352981Y-111444894D01*
X145386466Y-111506217D01*
X145389300Y-111532575D01*
X145389300Y-113160133D01*
X145369615Y-113227172D01*
X145316811Y-113272927D01*
X145247653Y-113282871D01*
X145221968Y-113276315D01*
X145197285Y-113267109D01*
X145197283Y-113267108D01*
X145137683Y-113260701D01*
X145137681Y-113260700D01*
X145137673Y-113260700D01*
X145137664Y-113260700D01*
X144341929Y-113260700D01*
X144341923Y-113260701D01*
X144282316Y-113267108D01*
X144147471Y-113317402D01*
X144147464Y-113317406D01*
X144032255Y-113403652D01*
X144032252Y-113403655D01*
X143946006Y-113518864D01*
X143946002Y-113518871D01*
X143895708Y-113653717D01*
X143889301Y-113713316D01*
X143889300Y-113713335D01*
X143889300Y-116275711D01*
X143889095Y-116280745D01*
X143884598Y-116335963D01*
X143895529Y-116416198D01*
X143896645Y-116426467D01*
X143884318Y-116495241D01*
X143836766Y-116546432D01*
X143769087Y-116563789D01*
X143702767Y-116541800D01*
X143685690Y-116527544D01*
X141402819Y-114244673D01*
X141369334Y-114183350D01*
X141366500Y-114156992D01*
X141366500Y-112964321D01*
X141386185Y-112897282D01*
X141398351Y-112881348D01*
X141448533Y-112825616D01*
X141543179Y-112661684D01*
X141601674Y-112481656D01*
X141621460Y-112293400D01*
X141601674Y-112105144D01*
X141543179Y-111925116D01*
X141448533Y-111761184D01*
X141321871Y-111620512D01*
X141321870Y-111620511D01*
X141168734Y-111509251D01*
X141168729Y-111509248D01*
X140995807Y-111432257D01*
X140995802Y-111432255D01*
X140850001Y-111401265D01*
X140810646Y-111392900D01*
X140621354Y-111392900D01*
X140588897Y-111399798D01*
X140436197Y-111432255D01*
X140436192Y-111432257D01*
X140263270Y-111509248D01*
X140263265Y-111509251D01*
X140110129Y-111620511D01*
X139983466Y-111761185D01*
X139888821Y-111925115D01*
X139888818Y-111925122D01*
X139830327Y-112105140D01*
X139830326Y-112105144D01*
X139810540Y-112293400D01*
X139830326Y-112481656D01*
X139830327Y-112481659D01*
X139888818Y-112661677D01*
X139888821Y-112661684D01*
X139983466Y-112825615D01*
X140033649Y-112881348D01*
X140063880Y-112944340D01*
X140065500Y-112964321D01*
X140065500Y-114392294D01*
X140063732Y-114408305D01*
X140063974Y-114408328D01*
X140063240Y-114416094D01*
X140065500Y-114488003D01*
X140065500Y-114518720D01*
X140065501Y-114518740D01*
X140066418Y-114526006D01*
X140066876Y-114531824D01*
X140068402Y-114580367D01*
X140068403Y-114580370D01*
X140074323Y-114600748D01*
X140078268Y-114619796D01*
X140080928Y-114640854D01*
X140080931Y-114640864D01*
X140098813Y-114686030D01*
X140100705Y-114691558D01*
X140114254Y-114738195D01*
X140114255Y-114738197D01*
X140125060Y-114756466D01*
X140133617Y-114773934D01*
X140135786Y-114779410D01*
X140141432Y-114793672D01*
X140169983Y-114832970D01*
X140173188Y-114837849D01*
X140197919Y-114879665D01*
X140197923Y-114879669D01*
X140212925Y-114894671D01*
X140225563Y-114909469D01*
X140238033Y-114926633D01*
X140238036Y-114926636D01*
X140238037Y-114926637D01*
X140275476Y-114957609D01*
X140279776Y-114961522D01*
X141285354Y-115967100D01*
X142267825Y-116949571D01*
X142301310Y-117010894D01*
X142296326Y-117080586D01*
X142254454Y-117136519D01*
X142193399Y-117160542D01*
X142132316Y-117167109D01*
X141997471Y-117217402D01*
X141997464Y-117217406D01*
X141882255Y-117303652D01*
X141882252Y-117303655D01*
X141796006Y-117418864D01*
X141796002Y-117418871D01*
X141745708Y-117553717D01*
X141739301Y-117613316D01*
X141739300Y-117613335D01*
X141739300Y-119609070D01*
X141739301Y-119609076D01*
X141745708Y-119668683D01*
X141796002Y-119803528D01*
X141796006Y-119803535D01*
X141882252Y-119918744D01*
X141882255Y-119918747D01*
X141997464Y-120004993D01*
X141997471Y-120004997D01*
X142132317Y-120055291D01*
X142132316Y-120055291D01*
X142139244Y-120056035D01*
X142191927Y-120061700D01*
X143387672Y-120061699D01*
X143447283Y-120055291D01*
X143582131Y-120004996D01*
X143697346Y-119918746D01*
X143783596Y-119803531D01*
X143833891Y-119668683D01*
X143840300Y-119609073D01*
X143840299Y-118702347D01*
X143859983Y-118635309D01*
X143912787Y-118589554D01*
X143981946Y-118579610D01*
X144013550Y-118588548D01*
X144014674Y-118589035D01*
X144056278Y-118595624D01*
X144062648Y-118596633D01*
X144068357Y-118597815D01*
X144115423Y-118609900D01*
X144136645Y-118609900D01*
X144156044Y-118611426D01*
X144177005Y-118614747D01*
X144221704Y-118610521D01*
X144225370Y-118610175D01*
X144231208Y-118609900D01*
X144312025Y-118609900D01*
X144379064Y-118629585D01*
X144384910Y-118633582D01*
X144536265Y-118743548D01*
X144536270Y-118743551D01*
X144709192Y-118820542D01*
X144709197Y-118820544D01*
X144894354Y-118859900D01*
X144894355Y-118859900D01*
X145083644Y-118859900D01*
X145083646Y-118859900D01*
X145268803Y-118820544D01*
X145441730Y-118743551D01*
X145594871Y-118632288D01*
X145721533Y-118491616D01*
X145816179Y-118327684D01*
X145874674Y-118147656D01*
X145894460Y-117959400D01*
X145891271Y-117929059D01*
X145903841Y-117860332D01*
X145951573Y-117809308D01*
X146014592Y-117792100D01*
X150015300Y-117792100D01*
X150082339Y-117811785D01*
X150128094Y-117864589D01*
X150139300Y-117916100D01*
X150139300Y-119609070D01*
X150139301Y-119609076D01*
X150145708Y-119668683D01*
X150196002Y-119803528D01*
X150196006Y-119803535D01*
X150282252Y-119918744D01*
X150282255Y-119918747D01*
X150397464Y-120004993D01*
X150397471Y-120004997D01*
X150532317Y-120055291D01*
X150532316Y-120055291D01*
X150539244Y-120056035D01*
X150591927Y-120061700D01*
X151787672Y-120061699D01*
X151847283Y-120055291D01*
X151982131Y-120004996D01*
X152097346Y-119918746D01*
X152183596Y-119803531D01*
X152233891Y-119668683D01*
X152240300Y-119609073D01*
X152240299Y-117916099D01*
X152259984Y-117849061D01*
X152312787Y-117803306D01*
X152364299Y-117792100D01*
X154648913Y-117792100D01*
X154653948Y-117792305D01*
X154673562Y-117793901D01*
X154709167Y-117796801D01*
X154789392Y-117785870D01*
X154869910Y-117777114D01*
X154869914Y-117777112D01*
X154871036Y-117776866D01*
X154891307Y-117772115D01*
X154892462Y-117771828D01*
X154892462Y-117771827D01*
X154892468Y-117771827D01*
X154968486Y-117743899D01*
X155045221Y-117718044D01*
X155045227Y-117718039D01*
X155046351Y-117717520D01*
X155065123Y-117708523D01*
X155066112Y-117708033D01*
X155066116Y-117708032D01*
X155134353Y-117664415D01*
X155203736Y-117622670D01*
X155203741Y-117622665D01*
X155204669Y-117621960D01*
X155221076Y-117609133D01*
X155221986Y-117608402D01*
X155221986Y-117608401D01*
X155221989Y-117608400D01*
X155250618Y-117579770D01*
X155279249Y-117551140D01*
X155318388Y-117514065D01*
X155338041Y-117495449D01*
X155338045Y-117495442D01*
X155338757Y-117494605D01*
X155352904Y-117477483D01*
X155654983Y-117175404D01*
X156919357Y-117175404D01*
X156927350Y-117271856D01*
X156927562Y-117276979D01*
X156927562Y-117289856D01*
X156926274Y-117294239D01*
X156926940Y-117302271D01*
X156929143Y-117308970D01*
X156931264Y-117321679D01*
X156931899Y-117326767D01*
X156939891Y-117423216D01*
X156939891Y-117423218D01*
X156963654Y-117517059D01*
X156964707Y-117522079D01*
X156966825Y-117534774D01*
X156966277Y-117539302D01*
X156968256Y-117547115D01*
X156971532Y-117553362D01*
X156975714Y-117565545D01*
X156977177Y-117570458D01*
X157000432Y-117662287D01*
X157000937Y-117664281D01*
X157021889Y-117712046D01*
X157039810Y-117752903D01*
X157041675Y-117757683D01*
X157045864Y-117769888D01*
X157046069Y-117774440D01*
X157049304Y-117781815D01*
X157053567Y-117787443D01*
X157059700Y-117798777D01*
X157061949Y-117803378D01*
X157100826Y-117892005D01*
X157153764Y-117973034D01*
X157156389Y-117977439D01*
X157162521Y-117988771D01*
X157163473Y-117993231D01*
X157167879Y-117999975D01*
X157173009Y-118004822D01*
X157180927Y-118014996D01*
X157183903Y-118019166D01*
X157234371Y-118096412D01*
X157236836Y-118100185D01*
X157261306Y-118126766D01*
X157302391Y-118171398D01*
X157305706Y-118175311D01*
X157313612Y-118185470D01*
X157315284Y-118189708D01*
X157320752Y-118195649D01*
X157326599Y-118199578D01*
X157336079Y-118208304D01*
X157339703Y-118211929D01*
X157405257Y-118283139D01*
X157481624Y-118342578D01*
X157485539Y-118345893D01*
X157495026Y-118354627D01*
X157497373Y-118358533D01*
X157503730Y-118363481D01*
X157510150Y-118366398D01*
X157518868Y-118372093D01*
X157520293Y-118373024D01*
X157520935Y-118373443D01*
X157525091Y-118376409D01*
X157601491Y-118435874D01*
X157686634Y-118481951D01*
X157691010Y-118484559D01*
X157701811Y-118491616D01*
X157704772Y-118495086D01*
X157711844Y-118498914D01*
X157718664Y-118500736D01*
X157730483Y-118505921D01*
X157735057Y-118508156D01*
X157820190Y-118554228D01*
X157911767Y-118585666D01*
X157916480Y-118587505D01*
X157928300Y-118592690D01*
X157931791Y-118595624D01*
X157939421Y-118598243D01*
X157946432Y-118598917D01*
X157954378Y-118600928D01*
X157958935Y-118602082D01*
X157963823Y-118603537D01*
X158029307Y-118626018D01*
X158055385Y-118634971D01*
X158150857Y-118650902D01*
X158155861Y-118651950D01*
X158168359Y-118655115D01*
X158172285Y-118657434D01*
X158180240Y-118658762D01*
X158187274Y-118658271D01*
X158200122Y-118659336D01*
X158205187Y-118659967D01*
X158300665Y-118675900D01*
X158300666Y-118675900D01*
X158397436Y-118675900D01*
X158402556Y-118676112D01*
X158414551Y-118677105D01*
X158415419Y-118677177D01*
X158419680Y-118678821D01*
X158427715Y-118678821D01*
X158434579Y-118677178D01*
X158447453Y-118676112D01*
X158452574Y-118675900D01*
X158549330Y-118675900D01*
X158549335Y-118675900D01*
X158644854Y-118659960D01*
X158649850Y-118659338D01*
X158662730Y-118658271D01*
X158667193Y-118659189D01*
X158675141Y-118657863D01*
X158681623Y-118655119D01*
X158694158Y-118651945D01*
X158699105Y-118650908D01*
X158794614Y-118634971D01*
X158886198Y-118603529D01*
X158891055Y-118602084D01*
X158903568Y-118598916D01*
X158908120Y-118599087D01*
X158915741Y-118596471D01*
X158921691Y-118592693D01*
X158933501Y-118587513D01*
X158938251Y-118585660D01*
X159029810Y-118554228D01*
X159114970Y-118508141D01*
X159119522Y-118505917D01*
X159131340Y-118500734D01*
X159135865Y-118500152D01*
X159142935Y-118496326D01*
X159148190Y-118491615D01*
X159158999Y-118484553D01*
X159163361Y-118481953D01*
X159248509Y-118435874D01*
X159324937Y-118376386D01*
X159329025Y-118373468D01*
X159339856Y-118366393D01*
X159344221Y-118365076D01*
X159350568Y-118360135D01*
X159354972Y-118354628D01*
X159364462Y-118345892D01*
X159368349Y-118342598D01*
X159444744Y-118283138D01*
X159510313Y-118211910D01*
X159513909Y-118208314D01*
X159523405Y-118199572D01*
X159527489Y-118197557D01*
X159532949Y-118191626D01*
X159536384Y-118185473D01*
X159544315Y-118175283D01*
X159547585Y-118171422D01*
X159613164Y-118100185D01*
X159666124Y-118019123D01*
X159669055Y-118015018D01*
X159677004Y-118004805D01*
X159680699Y-118002146D01*
X159685104Y-117995404D01*
X159687481Y-117988765D01*
X159693621Y-117977420D01*
X159696224Y-117973050D01*
X159749173Y-117892007D01*
X159788052Y-117803370D01*
X159790290Y-117798791D01*
X159796434Y-117787438D01*
X159799649Y-117784199D01*
X159802884Y-117776822D01*
X159804138Y-117769873D01*
X159808334Y-117757652D01*
X159810168Y-117752950D01*
X159849063Y-117664281D01*
X159872828Y-117570435D01*
X159874282Y-117565550D01*
X159878465Y-117553365D01*
X159881102Y-117549642D01*
X159883081Y-117541828D01*
X159883174Y-117534773D01*
X159885299Y-117522038D01*
X159886344Y-117517059D01*
X159910108Y-117423221D01*
X159918103Y-117326733D01*
X159918734Y-117321678D01*
X159923508Y-117293069D01*
X159922688Y-117287328D01*
X159923088Y-117267985D01*
X159923283Y-117264214D01*
X159930643Y-117175400D01*
X159930516Y-117173871D01*
X159927421Y-117136519D01*
X159923283Y-117086589D01*
X159923088Y-117082810D01*
X159922688Y-117063472D01*
X159923789Y-117059416D01*
X159921539Y-117045931D01*
X159918731Y-117029104D01*
X159918102Y-117024060D01*
X159910108Y-116927579D01*
X159886341Y-116833727D01*
X159885295Y-116828734D01*
X159885292Y-116828719D01*
X159883175Y-116816027D01*
X159883721Y-116811502D01*
X159881743Y-116803687D01*
X159878466Y-116797437D01*
X159874283Y-116785251D01*
X159872830Y-116780376D01*
X159849063Y-116686519D01*
X159810180Y-116597875D01*
X159808326Y-116593125D01*
X159804133Y-116580909D01*
X159803927Y-116576353D01*
X159800699Y-116568992D01*
X159796435Y-116563362D01*
X159790298Y-116552021D01*
X159788052Y-116547429D01*
X159749173Y-116458793D01*
X159749173Y-116458792D01*
X159696231Y-116377758D01*
X159693618Y-116373373D01*
X159687477Y-116362026D01*
X159686524Y-116357567D01*
X159682122Y-116350828D01*
X159676994Y-116345981D01*
X159669081Y-116335815D01*
X159666102Y-116331643D01*
X159613163Y-116250614D01*
X159547606Y-116179399D01*
X159544291Y-116175485D01*
X159536384Y-116165326D01*
X159534711Y-116161085D01*
X159529253Y-116155157D01*
X159523398Y-116151220D01*
X159513918Y-116142492D01*
X159510294Y-116138868D01*
X159463711Y-116088266D01*
X159444744Y-116067662D01*
X159423870Y-116051415D01*
X159368378Y-116008223D01*
X159364462Y-116004907D01*
X159354970Y-115996167D01*
X159352624Y-115992263D01*
X159346279Y-115987324D01*
X159339845Y-115984400D01*
X159329055Y-115977350D01*
X159324893Y-115974378D01*
X159315542Y-115967100D01*
X159248509Y-115914926D01*
X159248504Y-115914923D01*
X159248503Y-115914922D01*
X159199906Y-115888623D01*
X159163380Y-115868856D01*
X159158985Y-115866237D01*
X159148190Y-115859184D01*
X159145227Y-115855713D01*
X159138156Y-115851886D01*
X159131332Y-115850061D01*
X159119528Y-115844883D01*
X159114925Y-115842633D01*
X159029816Y-115796575D01*
X159029813Y-115796574D01*
X159029810Y-115796572D01*
X159029804Y-115796570D01*
X159029802Y-115796569D01*
X158938258Y-115765142D01*
X158933480Y-115763277D01*
X158921690Y-115758105D01*
X158918199Y-115755171D01*
X158910584Y-115752556D01*
X158903562Y-115751881D01*
X158899750Y-115750916D01*
X158891080Y-115748720D01*
X158886168Y-115747258D01*
X158794614Y-115715829D01*
X158699141Y-115699896D01*
X158694128Y-115698845D01*
X158681648Y-115695686D01*
X158677715Y-115693362D01*
X158669768Y-115692036D01*
X158662719Y-115692527D01*
X158649888Y-115691463D01*
X158644804Y-115690830D01*
X158549336Y-115674900D01*
X158549335Y-115674900D01*
X158452541Y-115674900D01*
X158447428Y-115674688D01*
X158436122Y-115673751D01*
X158434583Y-115673624D01*
X158430328Y-115671982D01*
X158422279Y-115671982D01*
X158415414Y-115673624D01*
X158405435Y-115674451D01*
X158405291Y-115674463D01*
X158402606Y-115674685D01*
X158397495Y-115674900D01*
X158300665Y-115674900D01*
X158205194Y-115690830D01*
X158200109Y-115691464D01*
X158187277Y-115692527D01*
X158182806Y-115691607D01*
X158174862Y-115692932D01*
X158168355Y-115695685D01*
X158155872Y-115698845D01*
X158150857Y-115699897D01*
X158055383Y-115715829D01*
X157963835Y-115747256D01*
X157958929Y-115748717D01*
X157946450Y-115751878D01*
X157941890Y-115751707D01*
X157934261Y-115754325D01*
X157928304Y-115758107D01*
X157916515Y-115763279D01*
X157911740Y-115765142D01*
X157820194Y-115796570D01*
X157820183Y-115796575D01*
X157735084Y-115842628D01*
X157730479Y-115844879D01*
X157718662Y-115850063D01*
X157714135Y-115850644D01*
X157707061Y-115854472D01*
X157701804Y-115859186D01*
X157691009Y-115866239D01*
X157686607Y-115868861D01*
X157601493Y-115914924D01*
X157601489Y-115914926D01*
X157525108Y-115974376D01*
X157520944Y-115977350D01*
X157513967Y-115981909D01*
X157510138Y-115984410D01*
X157505771Y-115985727D01*
X157499428Y-115990664D01*
X157495025Y-115996171D01*
X157485532Y-116004910D01*
X157481620Y-116008224D01*
X157405255Y-116067662D01*
X157339696Y-116138877D01*
X157336071Y-116142502D01*
X157326596Y-116151224D01*
X157322509Y-116153240D01*
X157317043Y-116159178D01*
X157313604Y-116165340D01*
X157305699Y-116175495D01*
X157302390Y-116179401D01*
X157236836Y-116250615D01*
X157183902Y-116331634D01*
X157180929Y-116335799D01*
X157173118Y-116345837D01*
X157172902Y-116346114D01*
X157169240Y-116348741D01*
X157164900Y-116355384D01*
X157162520Y-116362031D01*
X157156387Y-116373362D01*
X157153764Y-116377764D01*
X157100828Y-116458790D01*
X157061952Y-116547415D01*
X157059703Y-116552016D01*
X157056673Y-116557616D01*
X157053566Y-116563358D01*
X157050350Y-116566598D01*
X157047116Y-116573971D01*
X157045863Y-116580917D01*
X157041674Y-116593117D01*
X157039811Y-116597893D01*
X157010179Y-116665447D01*
X157000939Y-116686516D01*
X157000936Y-116686522D01*
X156977177Y-116780340D01*
X156975715Y-116785251D01*
X156971533Y-116797433D01*
X156968896Y-116801155D01*
X156966917Y-116808970D01*
X156966825Y-116816022D01*
X156964707Y-116828719D01*
X156963654Y-116833739D01*
X156939891Y-116927578D01*
X156939891Y-116927583D01*
X156931899Y-117024031D01*
X156931264Y-117029119D01*
X156929143Y-117041828D01*
X156927156Y-117045930D01*
X156926490Y-117053963D01*
X156927562Y-117060942D01*
X156927562Y-117073819D01*
X156927350Y-117078935D01*
X156927029Y-117082810D01*
X156919357Y-117175394D01*
X156919357Y-117175404D01*
X155654983Y-117175404D01*
X161534992Y-111295395D01*
X161538659Y-111292015D01*
X161580900Y-111256137D01*
X161605395Y-111223913D01*
X161629890Y-111191692D01*
X161648305Y-111168781D01*
X161680642Y-111128554D01*
X161680645Y-111128547D01*
X161681251Y-111127599D01*
X161692236Y-111109890D01*
X161692851Y-111108867D01*
X161692854Y-111108864D01*
X161692855Y-111108860D01*
X161694969Y-111105349D01*
X161696822Y-111103644D01*
X161696933Y-111103499D01*
X161696959Y-111103518D01*
X161746397Y-111058053D01*
X161815232Y-111046070D01*
X161879618Y-111073204D01*
X161919113Y-111130840D01*
X161925220Y-111169276D01*
X161925220Y-117173906D01*
X161925147Y-117176910D01*
X161917750Y-117329445D01*
X161908021Y-117517489D01*
X161907450Y-117523270D01*
X161882818Y-117691527D01*
X161855841Y-117864118D01*
X161854774Y-117869420D01*
X161813260Y-118037414D01*
X161769287Y-118203769D01*
X161767813Y-118208554D01*
X161709787Y-118373024D01*
X161649233Y-118533032D01*
X161647443Y-118537277D01*
X161573446Y-118696069D01*
X161496884Y-118848617D01*
X161494871Y-118852310D01*
X161405587Y-119003655D01*
X161313758Y-119147388D01*
X161311612Y-119150531D01*
X161207883Y-119292829D01*
X161101679Y-119426362D01*
X161099488Y-119428968D01*
X160983300Y-119559636D01*
X160981250Y-119561832D01*
X160862779Y-119682731D01*
X160860625Y-119684826D01*
X160732355Y-119803624D01*
X160729795Y-119805868D01*
X160598432Y-119914769D01*
X160458281Y-120021351D01*
X160455183Y-120023560D01*
X160313316Y-120118304D01*
X160163842Y-120210620D01*
X160160191Y-120212707D01*
X160009194Y-120292365D01*
X159851958Y-120369555D01*
X159847751Y-120371430D01*
X159688984Y-120435227D01*
X159525733Y-120496573D01*
X159520978Y-120498144D01*
X159355566Y-120545476D01*
X159188438Y-120590392D01*
X159183159Y-120591566D01*
X159011202Y-120622030D01*
X158843419Y-120650079D01*
X158837651Y-120650767D01*
X158649641Y-120664321D01*
X158562956Y-120670289D01*
X158498131Y-120674752D01*
X158493888Y-120674898D01*
X135454529Y-120674898D01*
X135451487Y-120674823D01*
X135300400Y-120667402D01*
X135106416Y-120657236D01*
X135100560Y-120656650D01*
X134931317Y-120631545D01*
X134755424Y-120603686D01*
X134750056Y-120602591D01*
X134580790Y-120560193D01*
X134411678Y-120514879D01*
X134406847Y-120513370D01*
X134300307Y-120475250D01*
X134241120Y-120454072D01*
X134078746Y-120391742D01*
X134074455Y-120389906D01*
X133914529Y-120314268D01*
X133760006Y-120235533D01*
X133756278Y-120233470D01*
X133604038Y-120142222D01*
X133458736Y-120047861D01*
X133455570Y-120045662D01*
X133312676Y-119939685D01*
X133178023Y-119830646D01*
X133175404Y-119828401D01*
X133044481Y-119709740D01*
X133042277Y-119707641D01*
X132920757Y-119586121D01*
X132918658Y-119583917D01*
X132898641Y-119561832D01*
X132799997Y-119452994D01*
X132797752Y-119450375D01*
X132688714Y-119315723D01*
X132582736Y-119172828D01*
X132580537Y-119169662D01*
X132486177Y-119024361D01*
X132473766Y-119003655D01*
X132394928Y-118872120D01*
X132392864Y-118868392D01*
X132314131Y-118713870D01*
X132238492Y-118553943D01*
X132236656Y-118549652D01*
X132230276Y-118533032D01*
X132174332Y-118387294D01*
X132115018Y-118221522D01*
X132113525Y-118216741D01*
X132068206Y-118047609D01*
X132025804Y-117878329D01*
X132024716Y-117872994D01*
X131996862Y-117697133D01*
X131971745Y-117527809D01*
X131971164Y-117522007D01*
X131960990Y-117327881D01*
X131955564Y-117217404D01*
X131953575Y-117176913D01*
X131953538Y-117175404D01*
X133947357Y-117175404D01*
X133955349Y-117271847D01*
X133955561Y-117276976D01*
X133955560Y-117289868D01*
X133954274Y-117294243D01*
X133954940Y-117302269D01*
X133957144Y-117308973D01*
X133959265Y-117321683D01*
X133959899Y-117326769D01*
X133967891Y-117423216D01*
X133967891Y-117423218D01*
X133991654Y-117517059D01*
X133992707Y-117522079D01*
X133994825Y-117534774D01*
X133994277Y-117539302D01*
X133996256Y-117547115D01*
X133999532Y-117553362D01*
X134003714Y-117565545D01*
X134005177Y-117570458D01*
X134028432Y-117662287D01*
X134028937Y-117664281D01*
X134049889Y-117712046D01*
X134067810Y-117752903D01*
X134069675Y-117757683D01*
X134073864Y-117769888D01*
X134074069Y-117774440D01*
X134077304Y-117781815D01*
X134081567Y-117787443D01*
X134087700Y-117798777D01*
X134089949Y-117803378D01*
X134128826Y-117892005D01*
X134181764Y-117973034D01*
X134184389Y-117977439D01*
X134190521Y-117988771D01*
X134191473Y-117993231D01*
X134195879Y-117999975D01*
X134201009Y-118004822D01*
X134208927Y-118014996D01*
X134211903Y-118019166D01*
X134262371Y-118096412D01*
X134264836Y-118100185D01*
X134289306Y-118126766D01*
X134330391Y-118171398D01*
X134333706Y-118175311D01*
X134341612Y-118185470D01*
X134343284Y-118189708D01*
X134348752Y-118195649D01*
X134354599Y-118199578D01*
X134364079Y-118208304D01*
X134367703Y-118211929D01*
X134433257Y-118283139D01*
X134509624Y-118342578D01*
X134513539Y-118345893D01*
X134523026Y-118354627D01*
X134525373Y-118358533D01*
X134531730Y-118363481D01*
X134538150Y-118366398D01*
X134546868Y-118372093D01*
X134548293Y-118373024D01*
X134548935Y-118373443D01*
X134553091Y-118376409D01*
X134629491Y-118435874D01*
X134714634Y-118481951D01*
X134719010Y-118484559D01*
X134729811Y-118491616D01*
X134732772Y-118495086D01*
X134739844Y-118498914D01*
X134746664Y-118500736D01*
X134758483Y-118505921D01*
X134763057Y-118508156D01*
X134848190Y-118554228D01*
X134939767Y-118585666D01*
X134944480Y-118587505D01*
X134956300Y-118592690D01*
X134959791Y-118595624D01*
X134967421Y-118598243D01*
X134974432Y-118598917D01*
X134982378Y-118600928D01*
X134986935Y-118602082D01*
X134991823Y-118603537D01*
X135057307Y-118626018D01*
X135083385Y-118634971D01*
X135178857Y-118650902D01*
X135183861Y-118651950D01*
X135196359Y-118655115D01*
X135200285Y-118657434D01*
X135208240Y-118658762D01*
X135215274Y-118658271D01*
X135228122Y-118659336D01*
X135233187Y-118659967D01*
X135328665Y-118675900D01*
X135328666Y-118675900D01*
X135425436Y-118675900D01*
X135430556Y-118676112D01*
X135442551Y-118677105D01*
X135443419Y-118677177D01*
X135447680Y-118678821D01*
X135455715Y-118678821D01*
X135462579Y-118677178D01*
X135475453Y-118676112D01*
X135480574Y-118675900D01*
X135577330Y-118675900D01*
X135577335Y-118675900D01*
X135672854Y-118659960D01*
X135677850Y-118659338D01*
X135690730Y-118658271D01*
X135695193Y-118659189D01*
X135703141Y-118657863D01*
X135709623Y-118655119D01*
X135722158Y-118651945D01*
X135727105Y-118650908D01*
X135822614Y-118634971D01*
X135914198Y-118603529D01*
X135919055Y-118602084D01*
X135931568Y-118598916D01*
X135936120Y-118599087D01*
X135943741Y-118596471D01*
X135949691Y-118592693D01*
X135961501Y-118587513D01*
X135966251Y-118585660D01*
X136057810Y-118554228D01*
X136142970Y-118508141D01*
X136147522Y-118505917D01*
X136159340Y-118500734D01*
X136163865Y-118500152D01*
X136170935Y-118496326D01*
X136176190Y-118491615D01*
X136186999Y-118484553D01*
X136191361Y-118481953D01*
X136276509Y-118435874D01*
X136352937Y-118376386D01*
X136357025Y-118373468D01*
X136367856Y-118366393D01*
X136372221Y-118365076D01*
X136378568Y-118360135D01*
X136382972Y-118354628D01*
X136392462Y-118345892D01*
X136396349Y-118342598D01*
X136472744Y-118283138D01*
X136538313Y-118211910D01*
X136541909Y-118208314D01*
X136551405Y-118199572D01*
X136555489Y-118197557D01*
X136560949Y-118191626D01*
X136564384Y-118185473D01*
X136572315Y-118175283D01*
X136575585Y-118171422D01*
X136641164Y-118100185D01*
X136694124Y-118019123D01*
X136697055Y-118015018D01*
X136705004Y-118004805D01*
X136708699Y-118002146D01*
X136713104Y-117995404D01*
X136715481Y-117988765D01*
X136721621Y-117977420D01*
X136724224Y-117973050D01*
X136777173Y-117892007D01*
X136816052Y-117803370D01*
X136818290Y-117798791D01*
X136824434Y-117787438D01*
X136827649Y-117784199D01*
X136830884Y-117776822D01*
X136832138Y-117769873D01*
X136836334Y-117757652D01*
X136838168Y-117752950D01*
X136877063Y-117664281D01*
X136900828Y-117570435D01*
X136902282Y-117565550D01*
X136906465Y-117553365D01*
X136909102Y-117549642D01*
X136911081Y-117541828D01*
X136911174Y-117534773D01*
X136913299Y-117522038D01*
X136914344Y-117517059D01*
X136938108Y-117423221D01*
X136946103Y-117326733D01*
X136946734Y-117321678D01*
X136951508Y-117293069D01*
X136950688Y-117287328D01*
X136951088Y-117267985D01*
X136951283Y-117264214D01*
X136958643Y-117175400D01*
X136958516Y-117173871D01*
X136955421Y-117136519D01*
X136951283Y-117086589D01*
X136951088Y-117082810D01*
X136950688Y-117063472D01*
X136951789Y-117059416D01*
X136949539Y-117045931D01*
X136946731Y-117029104D01*
X136946102Y-117024060D01*
X136938108Y-116927579D01*
X136914341Y-116833727D01*
X136913295Y-116828734D01*
X136913292Y-116828719D01*
X136911175Y-116816027D01*
X136911721Y-116811502D01*
X136909743Y-116803687D01*
X136906466Y-116797437D01*
X136902283Y-116785251D01*
X136900830Y-116780376D01*
X136877063Y-116686519D01*
X136838180Y-116597875D01*
X136836326Y-116593125D01*
X136832133Y-116580909D01*
X136831927Y-116576353D01*
X136828699Y-116568992D01*
X136824435Y-116563362D01*
X136818298Y-116552021D01*
X136816052Y-116547429D01*
X136777173Y-116458793D01*
X136777173Y-116458792D01*
X136724231Y-116377758D01*
X136721618Y-116373373D01*
X136715477Y-116362026D01*
X136714524Y-116357567D01*
X136710122Y-116350828D01*
X136704994Y-116345981D01*
X136697081Y-116335815D01*
X136694102Y-116331643D01*
X136641163Y-116250614D01*
X136575606Y-116179399D01*
X136572291Y-116175485D01*
X136564384Y-116165326D01*
X136562711Y-116161085D01*
X136557253Y-116155157D01*
X136551398Y-116151220D01*
X136541918Y-116142492D01*
X136538294Y-116138868D01*
X136491711Y-116088266D01*
X136472744Y-116067662D01*
X136451870Y-116051415D01*
X136396378Y-116008223D01*
X136392462Y-116004907D01*
X136382970Y-115996167D01*
X136380624Y-115992263D01*
X136374279Y-115987324D01*
X136367845Y-115984400D01*
X136357055Y-115977350D01*
X136352893Y-115974378D01*
X136343542Y-115967100D01*
X136276509Y-115914926D01*
X136276504Y-115914923D01*
X136276503Y-115914922D01*
X136227906Y-115888623D01*
X136191380Y-115868856D01*
X136186985Y-115866237D01*
X136176190Y-115859184D01*
X136173227Y-115855713D01*
X136166156Y-115851886D01*
X136159332Y-115850061D01*
X136147528Y-115844883D01*
X136142925Y-115842633D01*
X136057816Y-115796575D01*
X136057813Y-115796574D01*
X136057810Y-115796572D01*
X136057804Y-115796570D01*
X136057802Y-115796569D01*
X135966258Y-115765142D01*
X135961480Y-115763277D01*
X135949690Y-115758105D01*
X135946199Y-115755171D01*
X135938584Y-115752556D01*
X135931562Y-115751881D01*
X135927750Y-115750916D01*
X135919080Y-115748720D01*
X135914168Y-115747258D01*
X135822614Y-115715829D01*
X135727141Y-115699896D01*
X135722128Y-115698845D01*
X135709648Y-115695686D01*
X135705715Y-115693362D01*
X135697768Y-115692036D01*
X135690719Y-115692527D01*
X135677888Y-115691463D01*
X135672804Y-115690830D01*
X135577336Y-115674900D01*
X135577335Y-115674900D01*
X135480541Y-115674900D01*
X135475428Y-115674688D01*
X135464122Y-115673751D01*
X135462583Y-115673624D01*
X135458328Y-115671982D01*
X135450279Y-115671982D01*
X135443414Y-115673624D01*
X135433435Y-115674451D01*
X135433291Y-115674463D01*
X135430606Y-115674685D01*
X135425495Y-115674900D01*
X135328665Y-115674900D01*
X135233194Y-115690830D01*
X135228109Y-115691464D01*
X135215277Y-115692527D01*
X135210806Y-115691607D01*
X135202862Y-115692932D01*
X135196355Y-115695685D01*
X135183872Y-115698845D01*
X135178857Y-115699897D01*
X135083383Y-115715829D01*
X134991835Y-115747256D01*
X134986929Y-115748717D01*
X134974450Y-115751878D01*
X134969890Y-115751707D01*
X134962261Y-115754325D01*
X134956304Y-115758107D01*
X134944515Y-115763279D01*
X134939740Y-115765142D01*
X134848194Y-115796570D01*
X134848183Y-115796575D01*
X134763084Y-115842628D01*
X134758479Y-115844879D01*
X134746662Y-115850063D01*
X134742135Y-115850644D01*
X134735061Y-115854472D01*
X134729804Y-115859186D01*
X134719009Y-115866239D01*
X134714607Y-115868861D01*
X134629493Y-115914924D01*
X134629489Y-115914926D01*
X134553108Y-115974376D01*
X134548944Y-115977350D01*
X134541967Y-115981909D01*
X134538138Y-115984410D01*
X134533771Y-115985727D01*
X134527428Y-115990664D01*
X134523025Y-115996171D01*
X134513532Y-116004910D01*
X134509620Y-116008224D01*
X134433255Y-116067662D01*
X134367696Y-116138877D01*
X134364071Y-116142502D01*
X134354596Y-116151224D01*
X134350509Y-116153240D01*
X134345043Y-116159178D01*
X134341604Y-116165340D01*
X134333699Y-116175495D01*
X134330390Y-116179401D01*
X134264836Y-116250615D01*
X134211902Y-116331634D01*
X134208929Y-116335799D01*
X134201118Y-116345837D01*
X134200902Y-116346114D01*
X134197240Y-116348741D01*
X134192900Y-116355384D01*
X134190520Y-116362031D01*
X134184387Y-116373362D01*
X134181764Y-116377764D01*
X134128828Y-116458790D01*
X134089952Y-116547415D01*
X134087703Y-116552016D01*
X134084673Y-116557616D01*
X134081566Y-116563358D01*
X134078350Y-116566598D01*
X134075116Y-116573971D01*
X134073863Y-116580917D01*
X134069674Y-116593117D01*
X134067811Y-116597893D01*
X134038179Y-116665447D01*
X134028939Y-116686516D01*
X134028936Y-116686522D01*
X134005177Y-116780340D01*
X134003715Y-116785251D01*
X133999533Y-116797433D01*
X133996896Y-116801155D01*
X133994917Y-116808970D01*
X133994825Y-116816022D01*
X133992707Y-116828719D01*
X133991654Y-116833739D01*
X133967891Y-116927578D01*
X133967891Y-116927583D01*
X133959899Y-117024030D01*
X133959265Y-117029115D01*
X133957144Y-117041825D01*
X133955155Y-117045931D01*
X133954490Y-117053961D01*
X133955560Y-117060930D01*
X133955561Y-117073822D01*
X133955349Y-117078950D01*
X133955029Y-117082810D01*
X133947357Y-117175394D01*
X133947357Y-117175404D01*
X131953538Y-117175404D01*
X131953500Y-117173871D01*
X131953500Y-115440000D01*
X131973185Y-115372961D01*
X132025989Y-115327206D01*
X132077500Y-115316000D01*
X138709400Y-115316000D01*
X138675133Y-100615450D01*
X139012800Y-100615450D01*
X139012800Y-101838294D01*
X139019201Y-101897822D01*
X139019203Y-101897829D01*
X139069445Y-102032536D01*
X139069449Y-102032543D01*
X139155609Y-102147637D01*
X139155612Y-102147640D01*
X139270706Y-102233800D01*
X139270713Y-102233804D01*
X139405420Y-102284046D01*
X139405427Y-102284048D01*
X139464955Y-102290449D01*
X139464972Y-102290450D01*
X139887800Y-102290450D01*
X139887800Y-100615450D01*
X140387800Y-100615450D01*
X140387800Y-102290450D01*
X140810628Y-102290450D01*
X140810644Y-102290449D01*
X140870172Y-102284048D01*
X140870179Y-102284046D01*
X141004886Y-102233804D01*
X141004893Y-102233800D01*
X141119987Y-102147640D01*
X141119990Y-102147637D01*
X141206150Y-102032543D01*
X141206154Y-102032536D01*
X141256396Y-101897829D01*
X141256398Y-101897822D01*
X141262799Y-101838294D01*
X141262800Y-101838277D01*
X141262800Y-100615450D01*
X140387800Y-100615450D01*
X139887800Y-100615450D01*
X139012800Y-100615450D01*
X138675133Y-100615450D01*
X138673967Y-100115450D01*
X139012800Y-100115450D01*
X139887800Y-100115450D01*
X140387800Y-100115450D01*
X141262800Y-100115450D01*
X141262800Y-98892622D01*
X141262799Y-98892605D01*
X141256398Y-98833077D01*
X141256396Y-98833070D01*
X141206154Y-98698364D01*
X141182221Y-98666394D01*
X141157803Y-98600930D01*
X141172654Y-98532656D01*
X141222058Y-98483250D01*
X141290330Y-98468397D01*
X141318373Y-98473694D01*
X141380604Y-98493086D01*
X141451184Y-98499500D01*
X141451187Y-98499500D01*
X142114413Y-98499500D01*
X142114416Y-98499500D01*
X142184996Y-98493086D01*
X142347406Y-98442478D01*
X142492985Y-98354472D01*
X142520619Y-98326837D01*
X142581940Y-98293353D01*
X142651632Y-98298337D01*
X142695980Y-98326837D01*
X142723615Y-98354472D01*
X142869194Y-98442478D01*
X143031604Y-98493086D01*
X143102184Y-98499500D01*
X143362992Y-98499500D01*
X143430031Y-98519185D01*
X143450673Y-98535819D01*
X143568299Y-98653445D01*
X143601784Y-98714768D01*
X143596801Y-98784457D01*
X143578708Y-98832967D01*
X143572301Y-98892566D01*
X143572301Y-98892573D01*
X143572300Y-98892585D01*
X143572300Y-101838320D01*
X143572301Y-101838326D01*
X143578708Y-101897933D01*
X143629002Y-102032778D01*
X143629006Y-102032785D01*
X143715252Y-102147994D01*
X143715255Y-102147997D01*
X143830464Y-102234243D01*
X143830471Y-102234247D01*
X143965317Y-102284541D01*
X143965316Y-102284541D01*
X143972244Y-102285285D01*
X144024927Y-102290950D01*
X145370672Y-102290949D01*
X145430283Y-102284541D01*
X145565131Y-102234246D01*
X145680346Y-102147996D01*
X145766596Y-102032781D01*
X145816891Y-101897933D01*
X145823300Y-101838323D01*
X145823299Y-100631600D01*
X146201000Y-100631600D01*
X146201000Y-101854444D01*
X146207401Y-101913972D01*
X146207403Y-101913979D01*
X146257645Y-102048686D01*
X146257649Y-102048693D01*
X146343809Y-102163787D01*
X146343812Y-102163790D01*
X146458906Y-102249950D01*
X146458913Y-102249954D01*
X146593620Y-102300196D01*
X146593627Y-102300198D01*
X146653155Y-102306599D01*
X146653172Y-102306600D01*
X147076000Y-102306600D01*
X147076000Y-100631600D01*
X147576000Y-100631600D01*
X147576000Y-102306600D01*
X147998828Y-102306600D01*
X147998844Y-102306599D01*
X148058372Y-102300198D01*
X148058379Y-102300196D01*
X148193086Y-102249954D01*
X148193093Y-102249950D01*
X148308187Y-102163790D01*
X148308190Y-102163787D01*
X148394350Y-102048693D01*
X148394354Y-102048686D01*
X148444596Y-101913979D01*
X148444598Y-101913972D01*
X148450999Y-101854444D01*
X148451000Y-101854427D01*
X148451000Y-100631600D01*
X147576000Y-100631600D01*
X147076000Y-100631600D01*
X146201000Y-100631600D01*
X145823299Y-100631600D01*
X145823299Y-100131600D01*
X146201000Y-100131600D01*
X147076000Y-100131600D01*
X147076000Y-98456600D01*
X147576000Y-98456600D01*
X147576000Y-100131600D01*
X148451000Y-100131600D01*
X148451000Y-98908772D01*
X148450999Y-98908755D01*
X148444598Y-98849227D01*
X148444596Y-98849220D01*
X148394354Y-98714513D01*
X148394352Y-98714511D01*
X148310235Y-98602144D01*
X148285818Y-98536680D01*
X148295078Y-98494106D01*
X148234459Y-98516717D01*
X148182280Y-98509215D01*
X148058379Y-98463003D01*
X148058372Y-98463001D01*
X147998844Y-98456600D01*
X147576000Y-98456600D01*
X147076000Y-98456600D01*
X146653155Y-98456600D01*
X146593627Y-98463001D01*
X146593620Y-98463003D01*
X146458913Y-98513245D01*
X146458906Y-98513249D01*
X146343812Y-98599409D01*
X146343809Y-98599412D01*
X146257649Y-98714506D01*
X146257645Y-98714513D01*
X146207403Y-98849220D01*
X146207401Y-98849227D01*
X146201000Y-98908755D01*
X146201000Y-100131600D01*
X145823299Y-100131600D01*
X145823299Y-98892578D01*
X145816891Y-98832967D01*
X145772620Y-98714271D01*
X145766597Y-98698121D01*
X145766593Y-98698114D01*
X145680347Y-98582905D01*
X145680344Y-98582902D01*
X145565135Y-98496656D01*
X145565128Y-98496652D01*
X145430282Y-98446358D01*
X145430283Y-98446358D01*
X145370683Y-98439951D01*
X145370681Y-98439950D01*
X145370673Y-98439950D01*
X145370665Y-98439950D01*
X145251577Y-98439950D01*
X145184538Y-98420265D01*
X145172539Y-98411496D01*
X145162531Y-98403217D01*
X145138328Y-98383193D01*
X145134006Y-98379260D01*
X144445619Y-97690873D01*
X144412134Y-97629550D01*
X144409300Y-97603192D01*
X144409300Y-97342386D01*
X144408134Y-97329551D01*
X144402886Y-97271804D01*
X144352278Y-97109394D01*
X144264272Y-96963815D01*
X144264270Y-96963813D01*
X144264269Y-96963811D01*
X144162138Y-96861680D01*
X144128653Y-96800357D01*
X144133637Y-96730665D01*
X144162137Y-96686319D01*
X144212639Y-96635818D01*
X144273962Y-96602334D01*
X144300319Y-96599500D01*
X145704576Y-96599500D01*
X145771615Y-96619185D01*
X145817370Y-96671989D01*
X145827895Y-96710533D01*
X145830326Y-96733656D01*
X145830327Y-96733659D01*
X145888818Y-96913677D01*
X145888821Y-96913684D01*
X145983467Y-97077616D01*
X146110129Y-97218287D01*
X146110129Y-97218288D01*
X146263265Y-97329548D01*
X146263270Y-97329551D01*
X146436192Y-97406542D01*
X146436197Y-97406544D01*
X146621354Y-97445900D01*
X146621355Y-97445900D01*
X146810644Y-97445900D01*
X146810646Y-97445900D01*
X146995803Y-97406544D01*
X147168730Y-97329551D01*
X147321871Y-97218288D01*
X147448533Y-97077616D01*
X147543179Y-96913684D01*
X147601674Y-96733656D01*
X147621460Y-96545400D01*
X147601674Y-96357144D01*
X147543179Y-96177116D01*
X147448533Y-96013184D01*
X147321871Y-95872512D01*
X147321304Y-95872100D01*
X147168734Y-95761251D01*
X147168729Y-95761248D01*
X147028920Y-95699000D01*
X148097600Y-95699000D01*
X148822600Y-95699000D01*
X148822600Y-95049000D01*
X148822599Y-95048999D01*
X148741017Y-95049000D01*
X148670497Y-95055408D01*
X148670492Y-95055409D01*
X148508203Y-95105981D01*
X148362722Y-95193927D01*
X148242527Y-95314122D01*
X148154580Y-95459604D01*
X148104009Y-95621893D01*
X148097600Y-95692427D01*
X148097600Y-95699000D01*
X147028920Y-95699000D01*
X146995807Y-95684257D01*
X146995802Y-95684255D01*
X146850001Y-95653265D01*
X146810646Y-95644900D01*
X146810645Y-95644900D01*
X146786808Y-95644900D01*
X146719769Y-95625215D01*
X146699127Y-95608581D01*
X146640034Y-95549488D01*
X146629961Y-95536914D01*
X146629774Y-95537070D01*
X146624801Y-95531059D01*
X146572356Y-95481810D01*
X146550635Y-95460089D01*
X146548708Y-95458594D01*
X146544835Y-95455589D01*
X146540398Y-95451799D01*
X146504996Y-95418554D01*
X146504988Y-95418548D01*
X146486392Y-95408325D01*
X146470131Y-95397644D01*
X146453363Y-95384637D01*
X146429895Y-95374482D01*
X146408778Y-95365343D01*
X146403556Y-95362786D01*
X146360968Y-95339373D01*
X146360965Y-95339372D01*
X146340401Y-95334092D01*
X146321996Y-95327790D01*
X146302527Y-95319365D01*
X146302521Y-95319363D01*
X146254551Y-95311766D01*
X146248836Y-95310582D01*
X146232372Y-95306355D01*
X146201780Y-95298500D01*
X146201777Y-95298500D01*
X146180555Y-95298500D01*
X146161155Y-95296973D01*
X146140196Y-95293653D01*
X146140195Y-95293653D01*
X146116386Y-95295903D01*
X146091830Y-95298225D01*
X146085992Y-95298500D01*
X144300319Y-95298500D01*
X144233280Y-95278815D01*
X144212642Y-95262185D01*
X144143985Y-95193528D01*
X143998406Y-95105522D01*
X143835996Y-95054914D01*
X143835994Y-95054913D01*
X143835992Y-95054913D01*
X143786578Y-95050423D01*
X143765416Y-95048500D01*
X143102184Y-95048500D01*
X143082945Y-95050248D01*
X143031607Y-95054913D01*
X142869193Y-95105522D01*
X142723611Y-95193530D01*
X142723610Y-95193531D01*
X142695627Y-95221515D01*
X142634304Y-95255000D01*
X142564612Y-95250016D01*
X142520265Y-95221515D01*
X142492677Y-95193927D01*
X142347195Y-95105980D01*
X142347196Y-95105980D01*
X142184905Y-95055409D01*
X142184906Y-95055409D01*
X142114372Y-95049000D01*
X142032800Y-95049000D01*
X142032800Y-96075000D01*
X142013115Y-96142039D01*
X141960311Y-96187794D01*
X141908800Y-96199000D01*
X140807801Y-96199000D01*
X140807801Y-96205582D01*
X140814208Y-96276102D01*
X140814209Y-96276107D01*
X140864781Y-96438396D01*
X140952727Y-96583877D01*
X141054815Y-96685965D01*
X141088300Y-96747288D01*
X141083316Y-96816980D01*
X141054815Y-96861327D01*
X140952331Y-96963810D01*
X140952330Y-96963811D01*
X140864322Y-97109393D01*
X140813713Y-97271807D01*
X140807300Y-97342386D01*
X140807300Y-97855613D01*
X140813713Y-97926192D01*
X140813713Y-97926194D01*
X140813714Y-97926196D01*
X140864322Y-98088606D01*
X140951844Y-98233385D01*
X140952330Y-98234188D01*
X140956957Y-98240094D01*
X140955858Y-98240954D01*
X140985450Y-98295146D01*
X140980466Y-98364838D01*
X140938594Y-98420771D01*
X140873130Y-98445188D01*
X140851028Y-98444793D01*
X140810644Y-98440450D01*
X140387800Y-98440450D01*
X140387800Y-100115450D01*
X139887800Y-100115450D01*
X139887800Y-98440450D01*
X139464955Y-98440450D01*
X139405427Y-98446851D01*
X139405420Y-98446853D01*
X139270713Y-98497095D01*
X139270706Y-98497099D01*
X139155612Y-98583259D01*
X139155609Y-98583262D01*
X139069449Y-98698356D01*
X139069445Y-98698363D01*
X139019203Y-98833070D01*
X139019201Y-98833077D01*
X139012800Y-98892605D01*
X139012800Y-100115450D01*
X138673967Y-100115450D01*
X138663673Y-95699000D01*
X140807800Y-95699000D01*
X141532800Y-95699000D01*
X141532800Y-95049000D01*
X141532799Y-95048999D01*
X141451217Y-95049000D01*
X141380697Y-95055408D01*
X141380692Y-95055409D01*
X141218403Y-95105981D01*
X141072922Y-95193927D01*
X140952727Y-95314122D01*
X140864780Y-95459604D01*
X140814209Y-95621893D01*
X140807800Y-95692427D01*
X140807800Y-95699000D01*
X138663673Y-95699000D01*
X138658600Y-93522800D01*
X132077500Y-93522800D01*
X132010461Y-93503115D01*
X131964706Y-93450311D01*
X131953500Y-93398800D01*
X131953500Y-86639401D01*
X139961891Y-86639401D01*
X139982300Y-86924762D01*
X140043109Y-87204295D01*
X140143091Y-87472358D01*
X140280191Y-87723438D01*
X140280196Y-87723446D01*
X140386882Y-87865961D01*
X140386883Y-87865962D01*
X141032804Y-87220041D01*
X141094127Y-87186556D01*
X141163818Y-87191540D01*
X141210359Y-87222290D01*
X141345001Y-87363934D01*
X141345004Y-87363936D01*
X141345005Y-87363937D01*
X141364372Y-87377417D01*
X141371366Y-87382285D01*
X141415145Y-87436738D01*
X141422535Y-87506216D01*
X141391188Y-87568660D01*
X141388211Y-87571741D01*
X140740436Y-88219515D01*
X140882960Y-88326207D01*
X140882961Y-88326208D01*
X141134042Y-88463308D01*
X141134041Y-88463308D01*
X141402104Y-88563290D01*
X141681637Y-88624099D01*
X141966999Y-88644509D01*
X141967001Y-88644509D01*
X142252362Y-88624099D01*
X142531895Y-88563290D01*
X142799958Y-88463308D01*
X143051047Y-88326203D01*
X143193561Y-88219516D01*
X143193562Y-88219515D01*
X142545068Y-87571022D01*
X142511583Y-87509699D01*
X142516567Y-87440008D01*
X142551975Y-87389259D01*
X142659104Y-87297294D01*
X142712261Y-87228620D01*
X142768859Y-87187658D01*
X142838622Y-87183797D01*
X142897996Y-87216842D01*
X143547115Y-87865962D01*
X143547116Y-87865961D01*
X143653803Y-87723447D01*
X143790908Y-87472358D01*
X143890890Y-87204295D01*
X143951699Y-86924762D01*
X143972109Y-86639401D01*
X143972109Y-86639398D01*
X143951699Y-86354037D01*
X143890890Y-86074504D01*
X143790908Y-85806441D01*
X143653808Y-85555361D01*
X143653807Y-85555360D01*
X143547115Y-85412836D01*
X143547114Y-85412836D01*
X142901194Y-86058757D01*
X142839871Y-86092242D01*
X142770179Y-86087258D01*
X142723639Y-86056508D01*
X142588998Y-85914865D01*
X142588994Y-85914862D01*
X142562630Y-85896512D01*
X142518852Y-85842058D01*
X142511464Y-85772580D01*
X142542811Y-85710137D01*
X142545787Y-85707057D01*
X143193562Y-85059283D01*
X143193561Y-85059282D01*
X143051046Y-84952596D01*
X143051038Y-84952591D01*
X142799957Y-84815491D01*
X142799958Y-84815491D01*
X142531895Y-84715509D01*
X142252362Y-84654700D01*
X141967001Y-84634291D01*
X141966999Y-84634291D01*
X141681637Y-84654700D01*
X141402104Y-84715509D01*
X141134041Y-84815491D01*
X140882961Y-84952591D01*
X140882953Y-84952596D01*
X140740437Y-85059282D01*
X140740436Y-85059283D01*
X141388930Y-85707776D01*
X141422415Y-85769099D01*
X141417431Y-85838790D01*
X141382020Y-85889543D01*
X141352527Y-85914862D01*
X141274896Y-85981506D01*
X141274894Y-85981507D01*
X141274892Y-85981510D01*
X141221740Y-86050177D01*
X141165139Y-86091141D01*
X141095376Y-86095001D01*
X141036003Y-86061957D01*
X140386883Y-85412836D01*
X140386882Y-85412837D01*
X140280196Y-85555353D01*
X140280191Y-85555361D01*
X140143091Y-85806441D01*
X140043109Y-86074504D01*
X139982300Y-86354037D01*
X139961891Y-86639398D01*
X139961891Y-86639401D01*
X131953500Y-86639401D01*
X131953500Y-83639401D01*
X144661891Y-83639401D01*
X144682300Y-83924762D01*
X144743109Y-84204295D01*
X144843091Y-84472358D01*
X144980191Y-84723438D01*
X144980196Y-84723446D01*
X145086882Y-84865961D01*
X145086883Y-84865962D01*
X145732804Y-84220041D01*
X145794127Y-84186556D01*
X145863818Y-84191540D01*
X145910359Y-84222290D01*
X146045001Y-84363934D01*
X146045004Y-84363936D01*
X146045005Y-84363937D01*
X146064372Y-84377417D01*
X146071366Y-84382285D01*
X146115145Y-84436738D01*
X146122535Y-84506216D01*
X146091188Y-84568660D01*
X146088211Y-84571741D01*
X145440436Y-85219515D01*
X145582960Y-85326207D01*
X145582961Y-85326208D01*
X145834042Y-85463308D01*
X145834041Y-85463308D01*
X146102104Y-85563290D01*
X146381637Y-85624099D01*
X146666999Y-85644509D01*
X146667001Y-85644509D01*
X146952362Y-85624099D01*
X147231895Y-85563290D01*
X147499958Y-85463308D01*
X147751047Y-85326203D01*
X147893561Y-85219516D01*
X147893562Y-85219515D01*
X147245068Y-84571022D01*
X147211583Y-84509699D01*
X147216567Y-84440008D01*
X147251975Y-84389259D01*
X147359104Y-84297294D01*
X147412261Y-84228620D01*
X147468859Y-84187658D01*
X147538622Y-84183797D01*
X147597996Y-84216842D01*
X148247115Y-84865962D01*
X148247116Y-84865961D01*
X148353803Y-84723447D01*
X148490908Y-84472358D01*
X148590890Y-84204295D01*
X148651699Y-83924762D01*
X148672109Y-83639401D01*
X148672109Y-83639398D01*
X148651699Y-83354037D01*
X148590890Y-83074504D01*
X148490908Y-82806441D01*
X148353808Y-82555361D01*
X148353807Y-82555360D01*
X148247115Y-82412836D01*
X148247114Y-82412836D01*
X147601194Y-83058757D01*
X147539871Y-83092242D01*
X147470179Y-83087258D01*
X147423639Y-83056508D01*
X147288998Y-82914865D01*
X147288994Y-82914862D01*
X147262630Y-82896512D01*
X147218852Y-82842058D01*
X147211464Y-82772580D01*
X147242811Y-82710137D01*
X147245787Y-82707057D01*
X147893562Y-82059283D01*
X147893561Y-82059282D01*
X147751046Y-81952596D01*
X147751038Y-81952591D01*
X147499957Y-81815491D01*
X147499958Y-81815491D01*
X147231895Y-81715509D01*
X146952362Y-81654700D01*
X146667001Y-81634291D01*
X146666999Y-81634291D01*
X146381637Y-81654700D01*
X146102104Y-81715509D01*
X145834041Y-81815491D01*
X145582961Y-81952591D01*
X145582953Y-81952596D01*
X145440437Y-82059282D01*
X145440436Y-82059283D01*
X146088930Y-82707776D01*
X146122415Y-82769099D01*
X146117431Y-82838790D01*
X146082020Y-82889543D01*
X146052527Y-82914862D01*
X145974896Y-82981506D01*
X145974894Y-82981507D01*
X145974892Y-82981510D01*
X145921740Y-83050177D01*
X145865139Y-83091141D01*
X145795376Y-83095001D01*
X145736003Y-83061957D01*
X145086883Y-82412836D01*
X145086882Y-82412837D01*
X144980196Y-82555353D01*
X144980191Y-82555361D01*
X144843091Y-82806441D01*
X144743109Y-83074504D01*
X144682300Y-83354037D01*
X144661891Y-83639398D01*
X144661891Y-83639401D01*
X131953500Y-83639401D01*
X131953500Y-79176926D01*
X131953538Y-79175400D01*
X133947355Y-79175400D01*
X133947722Y-79179835D01*
X133955347Y-79271870D01*
X133955559Y-79276991D01*
X133955559Y-79289856D01*
X133954272Y-79294236D01*
X133954938Y-79302271D01*
X133957141Y-79308970D01*
X133959262Y-79321679D01*
X133959897Y-79326767D01*
X133967889Y-79423216D01*
X133967889Y-79423218D01*
X133991652Y-79517059D01*
X133992704Y-79522075D01*
X133992704Y-79522077D01*
X133992705Y-79522079D01*
X133994823Y-79534774D01*
X133994275Y-79539302D01*
X133996254Y-79547115D01*
X133999530Y-79553362D01*
X134003712Y-79565545D01*
X134005175Y-79570458D01*
X134028933Y-79664274D01*
X134028935Y-79664281D01*
X134055563Y-79724988D01*
X134067808Y-79752903D01*
X134069673Y-79757683D01*
X134073862Y-79769888D01*
X134074067Y-79774440D01*
X134077302Y-79781815D01*
X134081565Y-79787443D01*
X134087698Y-79798777D01*
X134089947Y-79803378D01*
X134128824Y-79892005D01*
X134181762Y-79973034D01*
X134184387Y-79977439D01*
X134190519Y-79988771D01*
X134191471Y-79993231D01*
X134195877Y-79999975D01*
X134201007Y-80004822D01*
X134208925Y-80014996D01*
X134211901Y-80019166D01*
X134262369Y-80096412D01*
X134264834Y-80100185D01*
X134289304Y-80126766D01*
X134330389Y-80171398D01*
X134333704Y-80175311D01*
X134341610Y-80185470D01*
X134343282Y-80189708D01*
X134348750Y-80195649D01*
X134354597Y-80199578D01*
X134364077Y-80208304D01*
X134367701Y-80211929D01*
X134433255Y-80283139D01*
X134509622Y-80342578D01*
X134513537Y-80345893D01*
X134523024Y-80354627D01*
X134525371Y-80358533D01*
X134531728Y-80363481D01*
X134538148Y-80366398D01*
X134548933Y-80373443D01*
X134553089Y-80376409D01*
X134622879Y-80430729D01*
X134629482Y-80435869D01*
X134629489Y-80435874D01*
X134714632Y-80481951D01*
X134719008Y-80484559D01*
X134729809Y-80491616D01*
X134732770Y-80495086D01*
X134739842Y-80498914D01*
X134746662Y-80500736D01*
X134758481Y-80505921D01*
X134763055Y-80508156D01*
X134848188Y-80554228D01*
X134939765Y-80585666D01*
X134944478Y-80587505D01*
X134956298Y-80592690D01*
X134959789Y-80595624D01*
X134967419Y-80598243D01*
X134974430Y-80598917D01*
X134982376Y-80600928D01*
X134986933Y-80602082D01*
X134991821Y-80603537D01*
X135057305Y-80626018D01*
X135083383Y-80634971D01*
X135178855Y-80650902D01*
X135183859Y-80651950D01*
X135196357Y-80655115D01*
X135200283Y-80657434D01*
X135208238Y-80658762D01*
X135215272Y-80658271D01*
X135228120Y-80659336D01*
X135233185Y-80659967D01*
X135328663Y-80675900D01*
X135328664Y-80675900D01*
X135425434Y-80675900D01*
X135430554Y-80676112D01*
X135442549Y-80677105D01*
X135443417Y-80677177D01*
X135447678Y-80678821D01*
X135455713Y-80678821D01*
X135462577Y-80677178D01*
X135475451Y-80676112D01*
X135480572Y-80675900D01*
X135577328Y-80675900D01*
X135577333Y-80675900D01*
X135672852Y-80659960D01*
X135677848Y-80659338D01*
X135690728Y-80658271D01*
X135695191Y-80659189D01*
X135703139Y-80657863D01*
X135709621Y-80655119D01*
X135722156Y-80651945D01*
X135727103Y-80650908D01*
X135822612Y-80634971D01*
X135914196Y-80603529D01*
X135919053Y-80602084D01*
X135931566Y-80598916D01*
X135936118Y-80599087D01*
X135943739Y-80596471D01*
X135949689Y-80592693D01*
X135961499Y-80587513D01*
X135966249Y-80585660D01*
X136057808Y-80554228D01*
X136142968Y-80508141D01*
X136147520Y-80505917D01*
X136159338Y-80500734D01*
X136163863Y-80500152D01*
X136170933Y-80496326D01*
X136176188Y-80491615D01*
X136186997Y-80484553D01*
X136191359Y-80481953D01*
X136276507Y-80435874D01*
X136352935Y-80376386D01*
X136357023Y-80373468D01*
X136367854Y-80366393D01*
X136372219Y-80365076D01*
X136378566Y-80360135D01*
X136382970Y-80354628D01*
X136392460Y-80345892D01*
X136396347Y-80342598D01*
X136472742Y-80283138D01*
X136538311Y-80211910D01*
X136541907Y-80208314D01*
X136551403Y-80199572D01*
X136555487Y-80197557D01*
X136560947Y-80191626D01*
X136564382Y-80185473D01*
X136572313Y-80175283D01*
X136575583Y-80171422D01*
X136641162Y-80100185D01*
X136694122Y-80019123D01*
X136697053Y-80015018D01*
X136705002Y-80004805D01*
X136708697Y-80002146D01*
X136713102Y-79995404D01*
X136715479Y-79988765D01*
X136721620Y-79977419D01*
X136724222Y-79973050D01*
X136777171Y-79892007D01*
X136816066Y-79803333D01*
X136818297Y-79798775D01*
X136824419Y-79787462D01*
X136827639Y-79784216D01*
X136830882Y-79776822D01*
X136832136Y-79769873D01*
X136836332Y-79757652D01*
X136838166Y-79752950D01*
X136877061Y-79664281D01*
X136877063Y-79664276D01*
X136880629Y-79650187D01*
X136900830Y-79570419D01*
X136902278Y-79565556D01*
X136906465Y-79553360D01*
X136909101Y-79549638D01*
X136911079Y-79541828D01*
X136911173Y-79534772D01*
X136913297Y-79522038D01*
X136914343Y-79517057D01*
X136938106Y-79423221D01*
X136946101Y-79326733D01*
X136946732Y-79321678D01*
X136951506Y-79293069D01*
X136950686Y-79287328D01*
X136951086Y-79267985D01*
X136951281Y-79264214D01*
X136958641Y-79175402D01*
X156919357Y-79175402D01*
X156927350Y-79271854D01*
X156927562Y-79276977D01*
X156927562Y-79289854D01*
X156926274Y-79294237D01*
X156926940Y-79302269D01*
X156929143Y-79308968D01*
X156931264Y-79321677D01*
X156931899Y-79326765D01*
X156939891Y-79423214D01*
X156939891Y-79423216D01*
X156963654Y-79517057D01*
X156964707Y-79522077D01*
X156966825Y-79534772D01*
X156966277Y-79539300D01*
X156968256Y-79547113D01*
X156971532Y-79553360D01*
X156975714Y-79565543D01*
X156977177Y-79570456D01*
X157000935Y-79664272D01*
X157000937Y-79664279D01*
X157027565Y-79724986D01*
X157039810Y-79752901D01*
X157041675Y-79757681D01*
X157045864Y-79769886D01*
X157046069Y-79774438D01*
X157049304Y-79781813D01*
X157053567Y-79787441D01*
X157059700Y-79798775D01*
X157061949Y-79803376D01*
X157099544Y-79889081D01*
X157100827Y-79892005D01*
X157123926Y-79927361D01*
X157153764Y-79973032D01*
X157156389Y-79977437D01*
X157162521Y-79988769D01*
X157163473Y-79993229D01*
X157167879Y-79999973D01*
X157173007Y-80004818D01*
X157176442Y-80009232D01*
X157180927Y-80014994D01*
X157183903Y-80019164D01*
X157234371Y-80096410D01*
X157236836Y-80100183D01*
X157236840Y-80100187D01*
X157302391Y-80171396D01*
X157305706Y-80175309D01*
X157313612Y-80185468D01*
X157315284Y-80189706D01*
X157320752Y-80195647D01*
X157326599Y-80199576D01*
X157336079Y-80208302D01*
X157339703Y-80211927D01*
X157405257Y-80283137D01*
X157481624Y-80342576D01*
X157485539Y-80345891D01*
X157495026Y-80354625D01*
X157497373Y-80358531D01*
X157503730Y-80363479D01*
X157510150Y-80366396D01*
X157520935Y-80373441D01*
X157525091Y-80376407D01*
X157601491Y-80435872D01*
X157686634Y-80481949D01*
X157691010Y-80484557D01*
X157701811Y-80491614D01*
X157704772Y-80495084D01*
X157711844Y-80498912D01*
X157718664Y-80500734D01*
X157730483Y-80505919D01*
X157735057Y-80508154D01*
X157820190Y-80554226D01*
X157911767Y-80585664D01*
X157916480Y-80587503D01*
X157928300Y-80592688D01*
X157931791Y-80595622D01*
X157939421Y-80598241D01*
X157946432Y-80598915D01*
X157954378Y-80600926D01*
X157958935Y-80602080D01*
X157963823Y-80603535D01*
X158029307Y-80626016D01*
X158055385Y-80634969D01*
X158150857Y-80650900D01*
X158155861Y-80651948D01*
X158168359Y-80655113D01*
X158172285Y-80657432D01*
X158180240Y-80658760D01*
X158187274Y-80658269D01*
X158200122Y-80659334D01*
X158205187Y-80659965D01*
X158300665Y-80675898D01*
X158300666Y-80675898D01*
X158397436Y-80675898D01*
X158402556Y-80676110D01*
X158414551Y-80677103D01*
X158415419Y-80677175D01*
X158419680Y-80678819D01*
X158427715Y-80678819D01*
X158434579Y-80677176D01*
X158447453Y-80676110D01*
X158452574Y-80675898D01*
X158549330Y-80675898D01*
X158549335Y-80675898D01*
X158644854Y-80659958D01*
X158649850Y-80659336D01*
X158662730Y-80658269D01*
X158667193Y-80659187D01*
X158675141Y-80657861D01*
X158681623Y-80655117D01*
X158694158Y-80651943D01*
X158699105Y-80650906D01*
X158794614Y-80634969D01*
X158886198Y-80603527D01*
X158891055Y-80602082D01*
X158903568Y-80598914D01*
X158908120Y-80599085D01*
X158915741Y-80596469D01*
X158921691Y-80592691D01*
X158933501Y-80587511D01*
X158938251Y-80585658D01*
X159029810Y-80554226D01*
X159114970Y-80508139D01*
X159119522Y-80505915D01*
X159131340Y-80500732D01*
X159135865Y-80500150D01*
X159142935Y-80496324D01*
X159148190Y-80491613D01*
X159158999Y-80484551D01*
X159163361Y-80481951D01*
X159248509Y-80435872D01*
X159324935Y-80376386D01*
X159329021Y-80373469D01*
X159339848Y-80366395D01*
X159344216Y-80365077D01*
X159350568Y-80360133D01*
X159354972Y-80354626D01*
X159364462Y-80345890D01*
X159368349Y-80342596D01*
X159444744Y-80283136D01*
X159510313Y-80211908D01*
X159513909Y-80208312D01*
X159523405Y-80199570D01*
X159527489Y-80197555D01*
X159532949Y-80191624D01*
X159536385Y-80185470D01*
X159544315Y-80175281D01*
X159547585Y-80171420D01*
X159613164Y-80100183D01*
X159666124Y-80019121D01*
X159669055Y-80015016D01*
X159677004Y-80004803D01*
X159680699Y-80002144D01*
X159685104Y-79995402D01*
X159687481Y-79988763D01*
X159693621Y-79977418D01*
X159696224Y-79973048D01*
X159749173Y-79892005D01*
X159788060Y-79803350D01*
X159790288Y-79798793D01*
X159796419Y-79787462D01*
X159799640Y-79784216D01*
X159802882Y-79776825D01*
X159804135Y-79769881D01*
X159808329Y-79757664D01*
X159810170Y-79752944D01*
X159849063Y-79664279D01*
X159872832Y-79570417D01*
X159874280Y-79565554D01*
X159878467Y-79553358D01*
X159881103Y-79549636D01*
X159883081Y-79541826D01*
X159883174Y-79534771D01*
X159885299Y-79522036D01*
X159886348Y-79517044D01*
X159910108Y-79423219D01*
X159918103Y-79326731D01*
X159918734Y-79321676D01*
X159923508Y-79293067D01*
X159922688Y-79287326D01*
X159923088Y-79267983D01*
X159923283Y-79264212D01*
X159929865Y-79184777D01*
X159930643Y-79175400D01*
X159930643Y-79175395D01*
X159929412Y-79160543D01*
X159923283Y-79086587D01*
X159923088Y-79082808D01*
X159922688Y-79063470D01*
X159923789Y-79059414D01*
X159921539Y-79045930D01*
X159918731Y-79029102D01*
X159918102Y-79024058D01*
X159910108Y-78927577D01*
X159886341Y-78833725D01*
X159885296Y-78828739D01*
X159883175Y-78816025D01*
X159883721Y-78811500D01*
X159881743Y-78803685D01*
X159878466Y-78797433D01*
X159874283Y-78785249D01*
X159872830Y-78780374D01*
X159849063Y-78686517D01*
X159810180Y-78597873D01*
X159808326Y-78593123D01*
X159804133Y-78580907D01*
X159803927Y-78576351D01*
X159800699Y-78568990D01*
X159796435Y-78563360D01*
X159790298Y-78552019D01*
X159788048Y-78547418D01*
X159755157Y-78472433D01*
X159749173Y-78458790D01*
X159696231Y-78377756D01*
X159693618Y-78373371D01*
X159687477Y-78362024D01*
X159686524Y-78357565D01*
X159682122Y-78350826D01*
X159676994Y-78345979D01*
X159669081Y-78335813D01*
X159666102Y-78331641D01*
X159647593Y-78303311D01*
X159613164Y-78250613D01*
X159607884Y-78244877D01*
X159547606Y-78179397D01*
X159544291Y-78175483D01*
X159536384Y-78165324D01*
X159534711Y-78161083D01*
X159529253Y-78155155D01*
X159523398Y-78151218D01*
X159513918Y-78142490D01*
X159510294Y-78138866D01*
X159496863Y-78124277D01*
X159444744Y-78067660D01*
X159423870Y-78051413D01*
X159368378Y-78008221D01*
X159364462Y-78004905D01*
X159354970Y-77996165D01*
X159352624Y-77992261D01*
X159346279Y-77987322D01*
X159339845Y-77984398D01*
X159329053Y-77977347D01*
X159324893Y-77974376D01*
X159311050Y-77963602D01*
X159248509Y-77914924D01*
X159248504Y-77914921D01*
X159248503Y-77914920D01*
X159199906Y-77888621D01*
X159163380Y-77868854D01*
X159158985Y-77866235D01*
X159148190Y-77859182D01*
X159145227Y-77855711D01*
X159138156Y-77851884D01*
X159131332Y-77850059D01*
X159119528Y-77844881D01*
X159114925Y-77842631D01*
X159029816Y-77796573D01*
X159029813Y-77796572D01*
X159029810Y-77796570D01*
X159029804Y-77796568D01*
X159029802Y-77796567D01*
X158938258Y-77765140D01*
X158933480Y-77763275D01*
X158921690Y-77758103D01*
X158918199Y-77755169D01*
X158910584Y-77752554D01*
X158903562Y-77751879D01*
X158899750Y-77750914D01*
X158891080Y-77748718D01*
X158886168Y-77747256D01*
X158794614Y-77715827D01*
X158699141Y-77699894D01*
X158694128Y-77698843D01*
X158681648Y-77695684D01*
X158677715Y-77693360D01*
X158669768Y-77692034D01*
X158662719Y-77692525D01*
X158649888Y-77691461D01*
X158644804Y-77690828D01*
X158549336Y-77674898D01*
X158549335Y-77674898D01*
X158452541Y-77674898D01*
X158447428Y-77674686D01*
X158436122Y-77673749D01*
X158434583Y-77673622D01*
X158430328Y-77671980D01*
X158422279Y-77671980D01*
X158415414Y-77673622D01*
X158405435Y-77674449D01*
X158405291Y-77674461D01*
X158402606Y-77674683D01*
X158397495Y-77674898D01*
X158300665Y-77674898D01*
X158205194Y-77690828D01*
X158200109Y-77691462D01*
X158187277Y-77692525D01*
X158182806Y-77691605D01*
X158174862Y-77692930D01*
X158168355Y-77695683D01*
X158155872Y-77698843D01*
X158150857Y-77699895D01*
X158055383Y-77715827D01*
X157963838Y-77747253D01*
X157958938Y-77748712D01*
X157949866Y-77751012D01*
X157946427Y-77751882D01*
X157941874Y-77751710D01*
X157934261Y-77754323D01*
X157928304Y-77758105D01*
X157916515Y-77763277D01*
X157911740Y-77765140D01*
X157820194Y-77796568D01*
X157820183Y-77796573D01*
X157735084Y-77842626D01*
X157730479Y-77844877D01*
X157718662Y-77850061D01*
X157714135Y-77850642D01*
X157707061Y-77854470D01*
X157701804Y-77859184D01*
X157691009Y-77866237D01*
X157686607Y-77868859D01*
X157601493Y-77914922D01*
X157601489Y-77914924D01*
X157525109Y-77974374D01*
X157520944Y-77977347D01*
X157513964Y-77981909D01*
X157510137Y-77984408D01*
X157505772Y-77985724D01*
X157499428Y-77990662D01*
X157495025Y-77996169D01*
X157485532Y-78004908D01*
X157481620Y-78008222D01*
X157405255Y-78067660D01*
X157339696Y-78138875D01*
X157336071Y-78142500D01*
X157326596Y-78151222D01*
X157322509Y-78153238D01*
X157317043Y-78159176D01*
X157313604Y-78165338D01*
X157305699Y-78175493D01*
X157302390Y-78179399D01*
X157236836Y-78250613D01*
X157183900Y-78331635D01*
X157180922Y-78335806D01*
X157173004Y-78345979D01*
X157169304Y-78348641D01*
X157164900Y-78355382D01*
X157162520Y-78362029D01*
X157156387Y-78373360D01*
X157153764Y-78377762D01*
X157100828Y-78458788D01*
X157061951Y-78547416D01*
X157059702Y-78552017D01*
X157053566Y-78563357D01*
X157050349Y-78566598D01*
X157047116Y-78573969D01*
X157045863Y-78580915D01*
X157041674Y-78593115D01*
X157039811Y-78597891D01*
X157015237Y-78653916D01*
X157000938Y-78686516D01*
X157000936Y-78686520D01*
X156977177Y-78780338D01*
X156975715Y-78785249D01*
X156971533Y-78797431D01*
X156968896Y-78801153D01*
X156966917Y-78808968D01*
X156966825Y-78816020D01*
X156964707Y-78828717D01*
X156963654Y-78833737D01*
X156939891Y-78927576D01*
X156939891Y-78927581D01*
X156931899Y-79024029D01*
X156931264Y-79029117D01*
X156929143Y-79041826D01*
X156927156Y-79045928D01*
X156926490Y-79053961D01*
X156927562Y-79060940D01*
X156927562Y-79073817D01*
X156927350Y-79078940D01*
X156919357Y-79175392D01*
X156919357Y-79175402D01*
X136958641Y-79175402D01*
X136958641Y-79175400D01*
X136958640Y-79175392D01*
X136957410Y-79160545D01*
X136951281Y-79086589D01*
X136951086Y-79082810D01*
X136950686Y-79063472D01*
X136951787Y-79059416D01*
X136950436Y-79051319D01*
X136946729Y-79029104D01*
X136946100Y-79024060D01*
X136938106Y-78927579D01*
X136914339Y-78833727D01*
X136913293Y-78828734D01*
X136913290Y-78828719D01*
X136911173Y-78816026D01*
X136911719Y-78811502D01*
X136909741Y-78803687D01*
X136906464Y-78797437D01*
X136902281Y-78785251D01*
X136900828Y-78780376D01*
X136877061Y-78686519D01*
X136838178Y-78597875D01*
X136836324Y-78593125D01*
X136832131Y-78580909D01*
X136831925Y-78576353D01*
X136828697Y-78568992D01*
X136824433Y-78563362D01*
X136818296Y-78552021D01*
X136816050Y-78547429D01*
X136777171Y-78458793D01*
X136777171Y-78458792D01*
X136724229Y-78377758D01*
X136721616Y-78373373D01*
X136715475Y-78362026D01*
X136714522Y-78357567D01*
X136710120Y-78350828D01*
X136704992Y-78345981D01*
X136697079Y-78335815D01*
X136694100Y-78331643D01*
X136643627Y-78254388D01*
X136641162Y-78250615D01*
X136635882Y-78244879D01*
X136575604Y-78179399D01*
X136572289Y-78175485D01*
X136564382Y-78165326D01*
X136562709Y-78161085D01*
X136557251Y-78155157D01*
X136551396Y-78151220D01*
X136541916Y-78142492D01*
X136538292Y-78138868D01*
X136524861Y-78124279D01*
X136472742Y-78067662D01*
X136451868Y-78051415D01*
X136396376Y-78008223D01*
X136392460Y-78004907D01*
X136382968Y-77996167D01*
X136380622Y-77992263D01*
X136374277Y-77987324D01*
X136367843Y-77984400D01*
X136367840Y-77984398D01*
X136357053Y-77977350D01*
X136352891Y-77974378D01*
X136339046Y-77963602D01*
X136276507Y-77914926D01*
X136276502Y-77914923D01*
X136276501Y-77914922D01*
X136227904Y-77888623D01*
X136191378Y-77868856D01*
X136186983Y-77866237D01*
X136176188Y-77859184D01*
X136173225Y-77855713D01*
X136166154Y-77851886D01*
X136159330Y-77850061D01*
X136147526Y-77844883D01*
X136142923Y-77842633D01*
X136057814Y-77796575D01*
X136057811Y-77796574D01*
X136057808Y-77796572D01*
X136057802Y-77796570D01*
X136057800Y-77796569D01*
X135966256Y-77765142D01*
X135961478Y-77763277D01*
X135949688Y-77758105D01*
X135946197Y-77755171D01*
X135938582Y-77752556D01*
X135931560Y-77751881D01*
X135927748Y-77750916D01*
X135919078Y-77748720D01*
X135914166Y-77747258D01*
X135822612Y-77715829D01*
X135727139Y-77699896D01*
X135722126Y-77698845D01*
X135709646Y-77695686D01*
X135705713Y-77693362D01*
X135697766Y-77692036D01*
X135690717Y-77692527D01*
X135677886Y-77691463D01*
X135672802Y-77690830D01*
X135577334Y-77674900D01*
X135577333Y-77674900D01*
X135480525Y-77674900D01*
X135475419Y-77674687D01*
X135463962Y-77673738D01*
X135462581Y-77673624D01*
X135458326Y-77671982D01*
X135450277Y-77671982D01*
X135443412Y-77673624D01*
X135433433Y-77674451D01*
X135433289Y-77674463D01*
X135430604Y-77674685D01*
X135425493Y-77674900D01*
X135328663Y-77674900D01*
X135233192Y-77690830D01*
X135228107Y-77691464D01*
X135215275Y-77692527D01*
X135210804Y-77691607D01*
X135202860Y-77692932D01*
X135196353Y-77695685D01*
X135183870Y-77698845D01*
X135178855Y-77699897D01*
X135083381Y-77715829D01*
X134991833Y-77747256D01*
X134986927Y-77748717D01*
X134974448Y-77751878D01*
X134969888Y-77751707D01*
X134962259Y-77754325D01*
X134956302Y-77758107D01*
X134944513Y-77763279D01*
X134939738Y-77765142D01*
X134848192Y-77796570D01*
X134848181Y-77796575D01*
X134763082Y-77842628D01*
X134758477Y-77844879D01*
X134746660Y-77850063D01*
X134742133Y-77850644D01*
X134735059Y-77854472D01*
X134729802Y-77859186D01*
X134719007Y-77866239D01*
X134714605Y-77868861D01*
X134629491Y-77914924D01*
X134629487Y-77914926D01*
X134553106Y-77974376D01*
X134548942Y-77977350D01*
X134541965Y-77981909D01*
X134538136Y-77984410D01*
X134533769Y-77985727D01*
X134527426Y-77990664D01*
X134523023Y-77996171D01*
X134513530Y-78004910D01*
X134509618Y-78008224D01*
X134433253Y-78067662D01*
X134367694Y-78138877D01*
X134364069Y-78142502D01*
X134354594Y-78151224D01*
X134350507Y-78153240D01*
X134345041Y-78159178D01*
X134341602Y-78165340D01*
X134333697Y-78175495D01*
X134330388Y-78179401D01*
X134264834Y-78250614D01*
X134211901Y-78331634D01*
X134208928Y-78335798D01*
X134201093Y-78345867D01*
X134200850Y-78346178D01*
X134197208Y-78348787D01*
X134192898Y-78355384D01*
X134190518Y-78362031D01*
X134184385Y-78373362D01*
X134181762Y-78377764D01*
X134128826Y-78458790D01*
X134089949Y-78547418D01*
X134087700Y-78552019D01*
X134081564Y-78563359D01*
X134078347Y-78566600D01*
X134075114Y-78573971D01*
X134073861Y-78580917D01*
X134069672Y-78593117D01*
X134067809Y-78597893D01*
X134043236Y-78653916D01*
X134028937Y-78686516D01*
X134028934Y-78686522D01*
X134005175Y-78780340D01*
X134003713Y-78785251D01*
X133999531Y-78797433D01*
X133996894Y-78801155D01*
X133994915Y-78808970D01*
X133994823Y-78816022D01*
X133992705Y-78828719D01*
X133991652Y-78833739D01*
X133967889Y-78927578D01*
X133967889Y-78927583D01*
X133959897Y-79024031D01*
X133959262Y-79029119D01*
X133957141Y-79041828D01*
X133955154Y-79045930D01*
X133954488Y-79053966D01*
X133955559Y-79060942D01*
X133955559Y-79073807D01*
X133955347Y-79078928D01*
X133947484Y-79173845D01*
X133947355Y-79175400D01*
X131953538Y-79175400D01*
X131953575Y-79173884D01*
X131960975Y-79023238D01*
X131971167Y-78828768D01*
X131971747Y-78822973D01*
X131996825Y-78653916D01*
X132024721Y-78477785D01*
X132025809Y-78472451D01*
X132068183Y-78303284D01*
X132113534Y-78134033D01*
X132115025Y-78129258D01*
X132174304Y-77963584D01*
X132236683Y-77801084D01*
X132238493Y-77796852D01*
X132314099Y-77636999D01*
X132327232Y-77611222D01*
X132392901Y-77482338D01*
X132394916Y-77478698D01*
X132486155Y-77326475D01*
X132580587Y-77181063D01*
X132582741Y-77177963D01*
X132688695Y-77035101D01*
X132797817Y-76900347D01*
X132799986Y-76897817D01*
X132918675Y-76766864D01*
X132920687Y-76764751D01*
X133042351Y-76643087D01*
X133044464Y-76641075D01*
X133175417Y-76522386D01*
X133177947Y-76520217D01*
X133312687Y-76411106D01*
X133455563Y-76305141D01*
X133458663Y-76302987D01*
X133604072Y-76208557D01*
X133756298Y-76117316D01*
X133759938Y-76115301D01*
X133888822Y-76049632D01*
X133914599Y-76036499D01*
X133976611Y-76007169D01*
X134074452Y-75960893D01*
X134078684Y-75959083D01*
X134241184Y-75896704D01*
X134406858Y-75837425D01*
X134411633Y-75835934D01*
X134580889Y-75790581D01*
X134750051Y-75748209D01*
X134755385Y-75747121D01*
X134931518Y-75719224D01*
X135100575Y-75694147D01*
X135106368Y-75693567D01*
X135300800Y-75683377D01*
X135394224Y-75678787D01*
X135451446Y-75675977D01*
X135454488Y-75675902D01*
X135504845Y-75675902D01*
X135504864Y-75675900D01*
X158423512Y-75675900D01*
X158426554Y-75675975D01*
G37*
%TD.AperFunction*%
%TA.AperFunction,Conductor*%
G36*
X159661188Y-110550984D02*
G01*
X159706943Y-110603788D01*
X159716887Y-110672946D01*
X159687862Y-110736502D01*
X159681830Y-110742980D01*
X154370030Y-116054781D01*
X154308707Y-116088266D01*
X154282349Y-116091100D01*
X150214300Y-116091100D01*
X150147261Y-116071415D01*
X150101506Y-116018611D01*
X150090300Y-115967100D01*
X150090300Y-114846449D01*
X150109985Y-114779410D01*
X150126614Y-114758773D01*
X154317769Y-110567618D01*
X154379093Y-110534133D01*
X154405451Y-110531299D01*
X159594149Y-110531299D01*
X159661188Y-110550984D01*
G37*
%TD.AperFunction*%
%TD*%
M02*
