%TF.GenerationSoftware,KiCad,Pcbnew,7.0.7*%
%TF.CreationDate,2024-03-20T19:05:46+01:00*%
%TF.ProjectId,DriverRGB_v2,44726976-6572-4524-9742-5f76322e6b69,v02*%
%TF.SameCoordinates,Original*%
%TF.FileFunction,Legend,Bot*%
%TF.FilePolarity,Positive*%
%FSLAX46Y46*%
G04 Gerber Fmt 4.6, Leading zero omitted, Abs format (unit mm)*
G04 Created by KiCad (PCBNEW 7.0.7) date 2024-03-20 19:05:46*
%MOMM*%
%LPD*%
G01*
G04 APERTURE LIST*
%ADD10C,0.200000*%
%ADD11C,0.254000*%
%ADD12C,0.120000*%
%ADD13C,0.127000*%
G04 APERTURE END LIST*
D10*
X158504193Y-114761009D02*
X158361336Y-114808628D01*
X158361336Y-114808628D02*
X158313717Y-114856247D01*
X158313717Y-114856247D02*
X158266098Y-114951485D01*
X158266098Y-114951485D02*
X158266098Y-115094342D01*
X158266098Y-115094342D02*
X158313717Y-115189580D01*
X158313717Y-115189580D02*
X158361336Y-115237200D01*
X158361336Y-115237200D02*
X158456574Y-115284819D01*
X158456574Y-115284819D02*
X158837526Y-115284819D01*
X158837526Y-115284819D02*
X158837526Y-114284819D01*
X158837526Y-114284819D02*
X158504193Y-114284819D01*
X158504193Y-114284819D02*
X158408955Y-114332438D01*
X158408955Y-114332438D02*
X158361336Y-114380057D01*
X158361336Y-114380057D02*
X158313717Y-114475295D01*
X158313717Y-114475295D02*
X158313717Y-114570533D01*
X158313717Y-114570533D02*
X158361336Y-114665771D01*
X158361336Y-114665771D02*
X158408955Y-114713390D01*
X158408955Y-114713390D02*
X158504193Y-114761009D01*
X158504193Y-114761009D02*
X158837526Y-114761009D01*
X157694669Y-115284819D02*
X157789907Y-115237200D01*
X157789907Y-115237200D02*
X157837526Y-115189580D01*
X157837526Y-115189580D02*
X157885145Y-115094342D01*
X157885145Y-115094342D02*
X157885145Y-114808628D01*
X157885145Y-114808628D02*
X157837526Y-114713390D01*
X157837526Y-114713390D02*
X157789907Y-114665771D01*
X157789907Y-114665771D02*
X157694669Y-114618152D01*
X157694669Y-114618152D02*
X157551812Y-114618152D01*
X157551812Y-114618152D02*
X157456574Y-114665771D01*
X157456574Y-114665771D02*
X157408955Y-114713390D01*
X157408955Y-114713390D02*
X157361336Y-114808628D01*
X157361336Y-114808628D02*
X157361336Y-115094342D01*
X157361336Y-115094342D02*
X157408955Y-115189580D01*
X157408955Y-115189580D02*
X157456574Y-115237200D01*
X157456574Y-115237200D02*
X157551812Y-115284819D01*
X157551812Y-115284819D02*
X157694669Y-115284819D01*
X156789907Y-115284819D02*
X156885145Y-115237200D01*
X156885145Y-115237200D02*
X156932764Y-115189580D01*
X156932764Y-115189580D02*
X156980383Y-115094342D01*
X156980383Y-115094342D02*
X156980383Y-114808628D01*
X156980383Y-114808628D02*
X156932764Y-114713390D01*
X156932764Y-114713390D02*
X156885145Y-114665771D01*
X156885145Y-114665771D02*
X156789907Y-114618152D01*
X156789907Y-114618152D02*
X156647050Y-114618152D01*
X156647050Y-114618152D02*
X156551812Y-114665771D01*
X156551812Y-114665771D02*
X156504193Y-114713390D01*
X156504193Y-114713390D02*
X156456574Y-114808628D01*
X156456574Y-114808628D02*
X156456574Y-115094342D01*
X156456574Y-115094342D02*
X156504193Y-115189580D01*
X156504193Y-115189580D02*
X156551812Y-115237200D01*
X156551812Y-115237200D02*
X156647050Y-115284819D01*
X156647050Y-115284819D02*
X156789907Y-115284819D01*
X156170859Y-114618152D02*
X155789907Y-114618152D01*
X156028002Y-114284819D02*
X156028002Y-115141961D01*
X156028002Y-115141961D02*
X155980383Y-115237200D01*
X155980383Y-115237200D02*
X155885145Y-115284819D01*
X155885145Y-115284819D02*
X155789907Y-115284819D01*
X137514298Y-115284819D02*
X137847631Y-114808628D01*
X138085726Y-115284819D02*
X138085726Y-114284819D01*
X138085726Y-114284819D02*
X137704774Y-114284819D01*
X137704774Y-114284819D02*
X137609536Y-114332438D01*
X137609536Y-114332438D02*
X137561917Y-114380057D01*
X137561917Y-114380057D02*
X137514298Y-114475295D01*
X137514298Y-114475295D02*
X137514298Y-114618152D01*
X137514298Y-114618152D02*
X137561917Y-114713390D01*
X137561917Y-114713390D02*
X137609536Y-114761009D01*
X137609536Y-114761009D02*
X137704774Y-114808628D01*
X137704774Y-114808628D02*
X138085726Y-114808628D01*
X136704774Y-115237200D02*
X136800012Y-115284819D01*
X136800012Y-115284819D02*
X136990488Y-115284819D01*
X136990488Y-115284819D02*
X137085726Y-115237200D01*
X137085726Y-115237200D02*
X137133345Y-115141961D01*
X137133345Y-115141961D02*
X137133345Y-114761009D01*
X137133345Y-114761009D02*
X137085726Y-114665771D01*
X137085726Y-114665771D02*
X136990488Y-114618152D01*
X136990488Y-114618152D02*
X136800012Y-114618152D01*
X136800012Y-114618152D02*
X136704774Y-114665771D01*
X136704774Y-114665771D02*
X136657155Y-114761009D01*
X136657155Y-114761009D02*
X136657155Y-114856247D01*
X136657155Y-114856247D02*
X137133345Y-114951485D01*
X136276202Y-115237200D02*
X136180964Y-115284819D01*
X136180964Y-115284819D02*
X135990488Y-115284819D01*
X135990488Y-115284819D02*
X135895250Y-115237200D01*
X135895250Y-115237200D02*
X135847631Y-115141961D01*
X135847631Y-115141961D02*
X135847631Y-115094342D01*
X135847631Y-115094342D02*
X135895250Y-114999104D01*
X135895250Y-114999104D02*
X135990488Y-114951485D01*
X135990488Y-114951485D02*
X136133345Y-114951485D01*
X136133345Y-114951485D02*
X136228583Y-114903866D01*
X136228583Y-114903866D02*
X136276202Y-114808628D01*
X136276202Y-114808628D02*
X136276202Y-114761009D01*
X136276202Y-114761009D02*
X136228583Y-114665771D01*
X136228583Y-114665771D02*
X136133345Y-114618152D01*
X136133345Y-114618152D02*
X135990488Y-114618152D01*
X135990488Y-114618152D02*
X135895250Y-114665771D01*
X135038107Y-115237200D02*
X135133345Y-115284819D01*
X135133345Y-115284819D02*
X135323821Y-115284819D01*
X135323821Y-115284819D02*
X135419059Y-115237200D01*
X135419059Y-115237200D02*
X135466678Y-115141961D01*
X135466678Y-115141961D02*
X135466678Y-114761009D01*
X135466678Y-114761009D02*
X135419059Y-114665771D01*
X135419059Y-114665771D02*
X135323821Y-114618152D01*
X135323821Y-114618152D02*
X135133345Y-114618152D01*
X135133345Y-114618152D02*
X135038107Y-114665771D01*
X135038107Y-114665771D02*
X134990488Y-114761009D01*
X134990488Y-114761009D02*
X134990488Y-114856247D01*
X134990488Y-114856247D02*
X135466678Y-114951485D01*
X134704773Y-114618152D02*
X134323821Y-114618152D01*
X134561916Y-114284819D02*
X134561916Y-115141961D01*
X134561916Y-115141961D02*
X134514297Y-115237200D01*
X134514297Y-115237200D02*
X134419059Y-115284819D01*
X134419059Y-115284819D02*
X134323821Y-115284819D01*
X140969904Y-120015000D02*
X140827047Y-120062619D01*
X140827047Y-120062619D02*
X140588952Y-120062619D01*
X140588952Y-120062619D02*
X140493714Y-120015000D01*
X140493714Y-120015000D02*
X140446095Y-119967380D01*
X140446095Y-119967380D02*
X140398476Y-119872142D01*
X140398476Y-119872142D02*
X140398476Y-119776904D01*
X140398476Y-119776904D02*
X140446095Y-119681666D01*
X140446095Y-119681666D02*
X140493714Y-119634047D01*
X140493714Y-119634047D02*
X140588952Y-119586428D01*
X140588952Y-119586428D02*
X140779428Y-119538809D01*
X140779428Y-119538809D02*
X140874666Y-119491190D01*
X140874666Y-119491190D02*
X140922285Y-119443571D01*
X140922285Y-119443571D02*
X140969904Y-119348333D01*
X140969904Y-119348333D02*
X140969904Y-119253095D01*
X140969904Y-119253095D02*
X140922285Y-119157857D01*
X140922285Y-119157857D02*
X140874666Y-119110238D01*
X140874666Y-119110238D02*
X140779428Y-119062619D01*
X140779428Y-119062619D02*
X140541333Y-119062619D01*
X140541333Y-119062619D02*
X140398476Y-119110238D01*
X139446095Y-120062619D02*
X140017523Y-120062619D01*
X139731809Y-120062619D02*
X139731809Y-119062619D01*
X139731809Y-119062619D02*
X139827047Y-119205476D01*
X139827047Y-119205476D02*
X139922285Y-119300714D01*
X139922285Y-119300714D02*
X140017523Y-119348333D01*
X142914666Y-91441380D02*
X142962285Y-91489000D01*
X142962285Y-91489000D02*
X143105142Y-91536619D01*
X143105142Y-91536619D02*
X143200380Y-91536619D01*
X143200380Y-91536619D02*
X143343237Y-91489000D01*
X143343237Y-91489000D02*
X143438475Y-91393761D01*
X143438475Y-91393761D02*
X143486094Y-91298523D01*
X143486094Y-91298523D02*
X143533713Y-91108047D01*
X143533713Y-91108047D02*
X143533713Y-90965190D01*
X143533713Y-90965190D02*
X143486094Y-90774714D01*
X143486094Y-90774714D02*
X143438475Y-90679476D01*
X143438475Y-90679476D02*
X143343237Y-90584238D01*
X143343237Y-90584238D02*
X143200380Y-90536619D01*
X143200380Y-90536619D02*
X143105142Y-90536619D01*
X143105142Y-90536619D02*
X142962285Y-90584238D01*
X142962285Y-90584238D02*
X142914666Y-90631857D01*
X142057523Y-90869952D02*
X142057523Y-91536619D01*
X142295618Y-90489000D02*
X142533713Y-91203285D01*
X142533713Y-91203285D02*
X141914666Y-91203285D01*
X142787666Y-119984619D02*
X143120999Y-119508428D01*
X143359094Y-119984619D02*
X143359094Y-118984619D01*
X143359094Y-118984619D02*
X142978142Y-118984619D01*
X142978142Y-118984619D02*
X142882904Y-119032238D01*
X142882904Y-119032238D02*
X142835285Y-119079857D01*
X142835285Y-119079857D02*
X142787666Y-119175095D01*
X142787666Y-119175095D02*
X142787666Y-119317952D01*
X142787666Y-119317952D02*
X142835285Y-119413190D01*
X142835285Y-119413190D02*
X142882904Y-119460809D01*
X142882904Y-119460809D02*
X142978142Y-119508428D01*
X142978142Y-119508428D02*
X143359094Y-119508428D01*
X142454332Y-118984619D02*
X141787666Y-118984619D01*
X141787666Y-118984619D02*
X142216237Y-119984619D01*
X137834666Y-119889380D02*
X137882285Y-119937000D01*
X137882285Y-119937000D02*
X138025142Y-119984619D01*
X138025142Y-119984619D02*
X138120380Y-119984619D01*
X138120380Y-119984619D02*
X138263237Y-119937000D01*
X138263237Y-119937000D02*
X138358475Y-119841761D01*
X138358475Y-119841761D02*
X138406094Y-119746523D01*
X138406094Y-119746523D02*
X138453713Y-119556047D01*
X138453713Y-119556047D02*
X138453713Y-119413190D01*
X138453713Y-119413190D02*
X138406094Y-119222714D01*
X138406094Y-119222714D02*
X138358475Y-119127476D01*
X138358475Y-119127476D02*
X138263237Y-119032238D01*
X138263237Y-119032238D02*
X138120380Y-118984619D01*
X138120380Y-118984619D02*
X138025142Y-118984619D01*
X138025142Y-118984619D02*
X137882285Y-119032238D01*
X137882285Y-119032238D02*
X137834666Y-119079857D01*
X136882285Y-119984619D02*
X137453713Y-119984619D01*
X137167999Y-119984619D02*
X137167999Y-118984619D01*
X137167999Y-118984619D02*
X137263237Y-119127476D01*
X137263237Y-119127476D02*
X137358475Y-119222714D01*
X137358475Y-119222714D02*
X137453713Y-119270333D01*
X147272333Y-118984619D02*
X147272333Y-119698904D01*
X147272333Y-119698904D02*
X147319952Y-119841761D01*
X147319952Y-119841761D02*
X147415190Y-119937000D01*
X147415190Y-119937000D02*
X147558047Y-119984619D01*
X147558047Y-119984619D02*
X147653285Y-119984619D01*
X146891380Y-118984619D02*
X146272333Y-118984619D01*
X146272333Y-118984619D02*
X146605666Y-119365571D01*
X146605666Y-119365571D02*
X146462809Y-119365571D01*
X146462809Y-119365571D02*
X146367571Y-119413190D01*
X146367571Y-119413190D02*
X146319952Y-119460809D01*
X146319952Y-119460809D02*
X146272333Y-119556047D01*
X146272333Y-119556047D02*
X146272333Y-119794142D01*
X146272333Y-119794142D02*
X146319952Y-119889380D01*
X146319952Y-119889380D02*
X146367571Y-119937000D01*
X146367571Y-119937000D02*
X146462809Y-119984619D01*
X146462809Y-119984619D02*
X146748523Y-119984619D01*
X146748523Y-119984619D02*
X146843761Y-119937000D01*
X146843761Y-119937000D02*
X146891380Y-119889380D01*
D11*
X157401381Y-92166718D02*
X157401381Y-90896718D01*
X157401381Y-90896718D02*
X157099000Y-90896718D01*
X157099000Y-90896718D02*
X156917571Y-90957194D01*
X156917571Y-90957194D02*
X156796619Y-91078146D01*
X156796619Y-91078146D02*
X156736142Y-91199099D01*
X156736142Y-91199099D02*
X156675666Y-91441003D01*
X156675666Y-91441003D02*
X156675666Y-91622432D01*
X156675666Y-91622432D02*
X156736142Y-91864337D01*
X156736142Y-91864337D02*
X156796619Y-91985289D01*
X156796619Y-91985289D02*
X156917571Y-92106242D01*
X156917571Y-92106242D02*
X157099000Y-92166718D01*
X157099000Y-92166718D02*
X157401381Y-92166718D01*
X155466142Y-92166718D02*
X156191857Y-92166718D01*
X155829000Y-92166718D02*
X155829000Y-90896718D01*
X155829000Y-90896718D02*
X155949952Y-91078146D01*
X155949952Y-91078146D02*
X156070904Y-91199099D01*
X156070904Y-91199099D02*
X156191857Y-91259575D01*
X136349619Y-94579718D02*
X136349619Y-95607813D01*
X136349619Y-95607813D02*
X136289142Y-95728765D01*
X136289142Y-95728765D02*
X136228666Y-95789242D01*
X136228666Y-95789242D02*
X136107714Y-95849718D01*
X136107714Y-95849718D02*
X135865809Y-95849718D01*
X135865809Y-95849718D02*
X135744857Y-95789242D01*
X135744857Y-95789242D02*
X135684380Y-95728765D01*
X135684380Y-95728765D02*
X135623904Y-95607813D01*
X135623904Y-95607813D02*
X135623904Y-94579718D01*
X134353904Y-95849718D02*
X135079619Y-95849718D01*
X134716762Y-95849718D02*
X134716762Y-94579718D01*
X134716762Y-94579718D02*
X134837714Y-94761146D01*
X134837714Y-94761146D02*
X134958666Y-94882099D01*
X134958666Y-94882099D02*
X135079619Y-94942575D01*
X137245619Y-82260718D02*
X137245619Y-83288813D01*
X137245619Y-83288813D02*
X137185142Y-83409765D01*
X137185142Y-83409765D02*
X137124666Y-83470242D01*
X137124666Y-83470242D02*
X137003714Y-83530718D01*
X137003714Y-83530718D02*
X136761809Y-83530718D01*
X136761809Y-83530718D02*
X136640857Y-83470242D01*
X136640857Y-83470242D02*
X136580380Y-83409765D01*
X136580380Y-83409765D02*
X136519904Y-83288813D01*
X136519904Y-83288813D02*
X136519904Y-82260718D01*
X136036095Y-82260718D02*
X135249904Y-82260718D01*
X135249904Y-82260718D02*
X135673238Y-82744527D01*
X135673238Y-82744527D02*
X135491809Y-82744527D01*
X135491809Y-82744527D02*
X135370857Y-82805003D01*
X135370857Y-82805003D02*
X135310381Y-82865480D01*
X135310381Y-82865480D02*
X135249904Y-82986432D01*
X135249904Y-82986432D02*
X135249904Y-83288813D01*
X135249904Y-83288813D02*
X135310381Y-83409765D01*
X135310381Y-83409765D02*
X135370857Y-83470242D01*
X135370857Y-83470242D02*
X135491809Y-83530718D01*
X135491809Y-83530718D02*
X135854666Y-83530718D01*
X135854666Y-83530718D02*
X135975619Y-83470242D01*
X135975619Y-83470242D02*
X136036095Y-83409765D01*
D10*
X142787666Y-83567380D02*
X142835285Y-83615000D01*
X142835285Y-83615000D02*
X142978142Y-83662619D01*
X142978142Y-83662619D02*
X143073380Y-83662619D01*
X143073380Y-83662619D02*
X143216237Y-83615000D01*
X143216237Y-83615000D02*
X143311475Y-83519761D01*
X143311475Y-83519761D02*
X143359094Y-83424523D01*
X143359094Y-83424523D02*
X143406713Y-83234047D01*
X143406713Y-83234047D02*
X143406713Y-83091190D01*
X143406713Y-83091190D02*
X143359094Y-82900714D01*
X143359094Y-82900714D02*
X143311475Y-82805476D01*
X143311475Y-82805476D02*
X143216237Y-82710238D01*
X143216237Y-82710238D02*
X143073380Y-82662619D01*
X143073380Y-82662619D02*
X142978142Y-82662619D01*
X142978142Y-82662619D02*
X142835285Y-82710238D01*
X142835285Y-82710238D02*
X142787666Y-82757857D01*
X142454332Y-82662619D02*
X141835285Y-82662619D01*
X141835285Y-82662619D02*
X142168618Y-83043571D01*
X142168618Y-83043571D02*
X142025761Y-83043571D01*
X142025761Y-83043571D02*
X141930523Y-83091190D01*
X141930523Y-83091190D02*
X141882904Y-83138809D01*
X141882904Y-83138809D02*
X141835285Y-83234047D01*
X141835285Y-83234047D02*
X141835285Y-83472142D01*
X141835285Y-83472142D02*
X141882904Y-83567380D01*
X141882904Y-83567380D02*
X141930523Y-83615000D01*
X141930523Y-83615000D02*
X142025761Y-83662619D01*
X142025761Y-83662619D02*
X142311475Y-83662619D01*
X142311475Y-83662619D02*
X142406713Y-83615000D01*
X142406713Y-83615000D02*
X142454332Y-83567380D01*
X154812904Y-120015000D02*
X154670047Y-120062619D01*
X154670047Y-120062619D02*
X154431952Y-120062619D01*
X154431952Y-120062619D02*
X154336714Y-120015000D01*
X154336714Y-120015000D02*
X154289095Y-119967380D01*
X154289095Y-119967380D02*
X154241476Y-119872142D01*
X154241476Y-119872142D02*
X154241476Y-119776904D01*
X154241476Y-119776904D02*
X154289095Y-119681666D01*
X154289095Y-119681666D02*
X154336714Y-119634047D01*
X154336714Y-119634047D02*
X154431952Y-119586428D01*
X154431952Y-119586428D02*
X154622428Y-119538809D01*
X154622428Y-119538809D02*
X154717666Y-119491190D01*
X154717666Y-119491190D02*
X154765285Y-119443571D01*
X154765285Y-119443571D02*
X154812904Y-119348333D01*
X154812904Y-119348333D02*
X154812904Y-119253095D01*
X154812904Y-119253095D02*
X154765285Y-119157857D01*
X154765285Y-119157857D02*
X154717666Y-119110238D01*
X154717666Y-119110238D02*
X154622428Y-119062619D01*
X154622428Y-119062619D02*
X154384333Y-119062619D01*
X154384333Y-119062619D02*
X154241476Y-119110238D01*
X153860523Y-119157857D02*
X153812904Y-119110238D01*
X153812904Y-119110238D02*
X153717666Y-119062619D01*
X153717666Y-119062619D02*
X153479571Y-119062619D01*
X153479571Y-119062619D02*
X153384333Y-119110238D01*
X153384333Y-119110238D02*
X153336714Y-119157857D01*
X153336714Y-119157857D02*
X153289095Y-119253095D01*
X153289095Y-119253095D02*
X153289095Y-119348333D01*
X153289095Y-119348333D02*
X153336714Y-119491190D01*
X153336714Y-119491190D02*
X153908142Y-120062619D01*
X153908142Y-120062619D02*
X153289095Y-120062619D01*
X151550666Y-119902380D02*
X151598285Y-119950000D01*
X151598285Y-119950000D02*
X151741142Y-119997619D01*
X151741142Y-119997619D02*
X151836380Y-119997619D01*
X151836380Y-119997619D02*
X151979237Y-119950000D01*
X151979237Y-119950000D02*
X152074475Y-119854761D01*
X152074475Y-119854761D02*
X152122094Y-119759523D01*
X152122094Y-119759523D02*
X152169713Y-119569047D01*
X152169713Y-119569047D02*
X152169713Y-119426190D01*
X152169713Y-119426190D02*
X152122094Y-119235714D01*
X152122094Y-119235714D02*
X152074475Y-119140476D01*
X152074475Y-119140476D02*
X151979237Y-119045238D01*
X151979237Y-119045238D02*
X151836380Y-118997619D01*
X151836380Y-118997619D02*
X151741142Y-118997619D01*
X151741142Y-118997619D02*
X151598285Y-119045238D01*
X151598285Y-119045238D02*
X151550666Y-119092857D01*
X151169713Y-119092857D02*
X151122094Y-119045238D01*
X151122094Y-119045238D02*
X151026856Y-118997619D01*
X151026856Y-118997619D02*
X150788761Y-118997619D01*
X150788761Y-118997619D02*
X150693523Y-119045238D01*
X150693523Y-119045238D02*
X150645904Y-119092857D01*
X150645904Y-119092857D02*
X150598285Y-119188095D01*
X150598285Y-119188095D02*
X150598285Y-119283333D01*
X150598285Y-119283333D02*
X150645904Y-119426190D01*
X150645904Y-119426190D02*
X151217332Y-119997619D01*
X151217332Y-119997619D02*
X150598285Y-119997619D01*
D12*
%TO.C,S1*%
X141608000Y-114785400D02*
X141608000Y-118085400D01*
X141308000Y-114785400D02*
X141608000Y-114785400D01*
X139108000Y-114785400D02*
X138808000Y-114785400D01*
X138808000Y-114785400D02*
X138808000Y-118085400D01*
X141608000Y-118085400D02*
X141308000Y-118085400D01*
X138808000Y-118085400D02*
X139108000Y-118085400D01*
%TO.C,C4*%
X140460000Y-91478980D02*
X140460000Y-91197820D01*
X141480000Y-91478980D02*
X141480000Y-91197820D01*
%TO.C,R7*%
X143270500Y-117023142D02*
X143270500Y-117497658D01*
X142225500Y-117023142D02*
X142225500Y-117497658D01*
%TO.C,C1*%
X138305000Y-117105820D02*
X138305000Y-117386980D01*
X137285000Y-117105820D02*
X137285000Y-117386980D01*
D13*
%TO.C,J3*%
X146589000Y-114784400D02*
X147289000Y-114784400D01*
X146589000Y-118594400D02*
X147289000Y-118594400D01*
D10*
X142889000Y-115419400D02*
G75*
G03*
X142889000Y-115419400I-100000J0D01*
G01*
%TO.C,D1*%
X152889000Y-81749400D02*
X152889000Y-84099400D01*
X160624000Y-84449400D02*
X152304000Y-84449400D01*
X152304000Y-84449400D02*
X152304000Y-90099400D01*
X160624000Y-90099400D02*
X160624000Y-84449400D01*
X152304000Y-90099400D02*
X160624000Y-90099400D01*
D13*
%TO.C,U1*%
X156216000Y-96445400D02*
X155586000Y-96445400D01*
X139846000Y-96445400D02*
X132216000Y-96445400D01*
X132216000Y-96445400D02*
X132216000Y-112445400D01*
X156216000Y-112445400D02*
X156216000Y-96445400D01*
X156216000Y-112445400D02*
X155586000Y-112445400D01*
X132216000Y-112445400D02*
X139846000Y-112445400D01*
D12*
%TO.C,U3*%
X139727000Y-84760400D02*
X139457000Y-84760400D01*
X139457000Y-84760400D02*
X139457000Y-83660400D01*
X133097000Y-84760400D02*
X133097000Y-81930400D01*
X132827000Y-84760400D02*
X133097000Y-84760400D01*
X139727000Y-91180400D02*
X139727000Y-84760400D01*
X132827000Y-91180400D02*
X132827000Y-84760400D01*
%TO.C,C3*%
X140333000Y-83337980D02*
X140333000Y-83056820D01*
X141353000Y-83337980D02*
X141353000Y-83056820D01*
%TO.C,S2*%
X155451000Y-114785400D02*
X155451000Y-118085400D01*
X155151000Y-114785400D02*
X155451000Y-114785400D01*
X152951000Y-114785400D02*
X152651000Y-114785400D01*
X152651000Y-114785400D02*
X152651000Y-118085400D01*
X155451000Y-118085400D02*
X155151000Y-118085400D01*
X152651000Y-118085400D02*
X152951000Y-118085400D01*
%TO.C,C2*%
X150874000Y-117386980D02*
X150874000Y-117105820D01*
X151894000Y-117386980D02*
X151894000Y-117105820D01*
%TD*%
M02*
