%TF.GenerationSoftware,KiCad,Pcbnew,7.0.7*%
%TF.CreationDate,2024-03-20T19:05:46+01:00*%
%TF.ProjectId,DriverRGB_v2,44726976-6572-4524-9742-5f76322e6b69,v02*%
%TF.SameCoordinates,Original*%
%TF.FileFunction,OtherDrawing,Comment*%
%FSLAX46Y46*%
G04 Gerber Fmt 4.6, Leading zero omitted, Abs format (unit mm)*
G04 Created by KiCad (PCBNEW 7.0.7) date 2024-03-20 19:05:46*
%MOMM*%
%LPD*%
G01*
G04 APERTURE LIST*
%ADD10C,0.300000*%
%ADD11C,0.200000*%
G04 APERTURE END LIST*
D10*
X169127092Y-91944278D02*
X168127093Y-91945855D01*
X169697956Y-91586234D02*
X168625965Y-91230782D01*
X168625965Y-91230782D02*
X168627430Y-92159352D01*
X169629458Y-93443487D02*
X169628331Y-92729202D01*
X169628331Y-92729202D02*
X168913933Y-92658900D01*
X168913933Y-92658900D02*
X168985474Y-92730216D01*
X168985474Y-92730216D02*
X169057128Y-92872960D01*
X169057128Y-92872960D02*
X169057692Y-93230103D01*
X169057692Y-93230103D02*
X168986489Y-93373072D01*
X168986489Y-93373072D02*
X168915173Y-93444614D01*
X168915173Y-93444614D02*
X168772429Y-93516267D01*
X168772429Y-93516267D02*
X168415286Y-93516831D01*
X168415286Y-93516831D02*
X168272317Y-93445628D01*
X168272317Y-93445628D02*
X168200775Y-93374312D01*
X168200775Y-93374312D02*
X168129122Y-93231568D01*
X168129122Y-93231568D02*
X168128558Y-92874425D01*
X168128558Y-92874425D02*
X168199761Y-92731456D01*
X168199761Y-92731456D02*
X168271077Y-92659914D01*
X168273444Y-94159912D02*
X168202128Y-94231453D01*
X168202128Y-94231453D02*
X168130587Y-94160138D01*
X168130587Y-94160138D02*
X168201902Y-94088596D01*
X168201902Y-94088596D02*
X168273444Y-94159912D01*
X168273444Y-94159912D02*
X168130587Y-94160138D01*
X169632163Y-95157770D02*
X169632388Y-95300627D01*
X169632388Y-95300627D02*
X169561185Y-95443597D01*
X169561185Y-95443597D02*
X169489869Y-95515138D01*
X169489869Y-95515138D02*
X169347125Y-95586792D01*
X169347125Y-95586792D02*
X169061524Y-95658671D01*
X169061524Y-95658671D02*
X168704381Y-95659234D01*
X168704381Y-95659234D02*
X168418555Y-95588257D01*
X168418555Y-95588257D02*
X168275585Y-95517054D01*
X168275585Y-95517054D02*
X168204044Y-95445738D01*
X168204044Y-95445738D02*
X168132390Y-95302994D01*
X168132390Y-95302994D02*
X168132164Y-95160137D01*
X168132164Y-95160137D02*
X168203368Y-95017167D01*
X168203368Y-95017167D02*
X168274683Y-94945626D01*
X168274683Y-94945626D02*
X168417428Y-94873972D01*
X168417428Y-94873972D02*
X168703029Y-94802093D01*
X168703029Y-94802093D02*
X169060171Y-94801529D01*
X169060171Y-94801529D02*
X169345998Y-94872507D01*
X169345998Y-94872507D02*
X169488968Y-94943710D01*
X169488968Y-94943710D02*
X169560509Y-95015026D01*
X169560509Y-95015026D02*
X169632163Y-95157770D01*
X169634417Y-96586339D02*
X169634642Y-96729196D01*
X169634642Y-96729196D02*
X169563439Y-96872166D01*
X169563439Y-96872166D02*
X169492123Y-96943707D01*
X169492123Y-96943707D02*
X169349379Y-97015361D01*
X169349379Y-97015361D02*
X169063778Y-97087240D01*
X169063778Y-97087240D02*
X168706635Y-97087804D01*
X168706635Y-97087804D02*
X168420809Y-97016826D01*
X168420809Y-97016826D02*
X168277839Y-96945623D01*
X168277839Y-96945623D02*
X168206298Y-96874307D01*
X168206298Y-96874307D02*
X168134644Y-96731563D01*
X168134644Y-96731563D02*
X168134418Y-96588706D01*
X168134418Y-96588706D02*
X168205621Y-96445736D01*
X168205621Y-96445736D02*
X168276937Y-96374195D01*
X168276937Y-96374195D02*
X168419682Y-96302541D01*
X168419682Y-96302541D02*
X168705283Y-96230662D01*
X168705283Y-96230662D02*
X169062425Y-96230098D01*
X169062425Y-96230098D02*
X169348252Y-96301076D01*
X169348252Y-96301076D02*
X169491221Y-96372279D01*
X169491221Y-96372279D02*
X169562763Y-96443595D01*
X169562763Y-96443595D02*
X169634417Y-96586339D01*
X169636671Y-98014908D02*
X169636896Y-98157765D01*
X169636896Y-98157765D02*
X169565693Y-98300735D01*
X169565693Y-98300735D02*
X169494377Y-98372276D01*
X169494377Y-98372276D02*
X169351633Y-98443930D01*
X169351633Y-98443930D02*
X169066032Y-98515809D01*
X169066032Y-98515809D02*
X168708889Y-98516373D01*
X168708889Y-98516373D02*
X168423062Y-98445395D01*
X168423062Y-98445395D02*
X168280093Y-98374192D01*
X168280093Y-98374192D02*
X168208552Y-98302876D01*
X168208552Y-98302876D02*
X168136898Y-98160132D01*
X168136898Y-98160132D02*
X168136672Y-98017275D01*
X168136672Y-98017275D02*
X168207875Y-97874305D01*
X168207875Y-97874305D02*
X168279191Y-97802764D01*
X168279191Y-97802764D02*
X168421936Y-97731110D01*
X168421936Y-97731110D02*
X168707537Y-97659231D01*
X168707537Y-97659231D02*
X169064679Y-97658668D01*
X169064679Y-97658668D02*
X169350506Y-97729645D01*
X169350506Y-97729645D02*
X169493475Y-97800848D01*
X169493475Y-97800848D02*
X169565017Y-97872164D01*
X169565017Y-97872164D02*
X169636671Y-98014908D01*
X168139715Y-99945844D02*
X168138363Y-99088702D01*
X168139039Y-99517273D02*
X169639037Y-99514906D01*
X169639037Y-99514906D02*
X169424526Y-99372387D01*
X169424526Y-99372387D02*
X169281444Y-99229756D01*
X169281444Y-99229756D02*
X169209790Y-99087011D01*
X168142533Y-101731555D02*
X169142531Y-101729977D01*
X168999674Y-101730203D02*
X169071216Y-101801519D01*
X169071216Y-101801519D02*
X169142870Y-101944263D01*
X169142870Y-101944263D02*
X169143208Y-102158548D01*
X169143208Y-102158548D02*
X169072005Y-102301518D01*
X169072005Y-102301518D02*
X168929260Y-102373172D01*
X168929260Y-102373172D02*
X168143547Y-102374412D01*
X168929260Y-102373172D02*
X169072230Y-102444375D01*
X169072230Y-102444375D02*
X169143884Y-102587119D01*
X169143884Y-102587119D02*
X169144222Y-102801405D01*
X169144222Y-102801405D02*
X169073019Y-102944374D01*
X169073019Y-102944374D02*
X168930275Y-103016028D01*
X168930275Y-103016028D02*
X168144561Y-103017268D01*
X168145688Y-103731553D02*
X169145687Y-103729975D01*
X169002830Y-103730200D02*
X169074371Y-103801516D01*
X169074371Y-103801516D02*
X169146025Y-103944260D01*
X169146025Y-103944260D02*
X169146363Y-104158546D01*
X169146363Y-104158546D02*
X169075160Y-104301515D01*
X169075160Y-104301515D02*
X168932416Y-104373169D01*
X168932416Y-104373169D02*
X168146703Y-104374409D01*
X168932416Y-104373169D02*
X169075385Y-104444372D01*
X169075385Y-104444372D02*
X169147039Y-104587117D01*
X169147039Y-104587117D02*
X169147377Y-104801402D01*
X169147377Y-104801402D02*
X169076174Y-104944372D01*
X169076174Y-104944372D02*
X168933430Y-105016026D01*
X168933430Y-105016026D02*
X168147717Y-105017265D01*
D11*
X158995999Y-120674609D02*
X167637147Y-120660975D01*
X158924999Y-75674611D02*
X167566147Y-75660977D01*
X167050728Y-120661901D02*
X166979728Y-75661903D01*
X167050728Y-120661901D02*
X166979728Y-75661903D01*
X167050728Y-120661901D02*
X166462531Y-119536324D01*
X167050728Y-120661901D02*
X167635371Y-119534473D01*
X166979728Y-75661903D02*
X167567925Y-76787480D01*
X166979728Y-75661903D02*
X166395085Y-76789331D01*
D10*
X140010790Y-68031585D02*
X140082218Y-67960157D01*
X140082218Y-67960157D02*
X140225076Y-67888728D01*
X140225076Y-67888728D02*
X140582218Y-67888728D01*
X140582218Y-67888728D02*
X140725076Y-67960157D01*
X140725076Y-67960157D02*
X140796504Y-68031585D01*
X140796504Y-68031585D02*
X140867933Y-68174442D01*
X140867933Y-68174442D02*
X140867933Y-68317300D01*
X140867933Y-68317300D02*
X140796504Y-68531585D01*
X140796504Y-68531585D02*
X139939361Y-69388728D01*
X139939361Y-69388728D02*
X140867933Y-69388728D01*
X141582218Y-69388728D02*
X141867932Y-69388728D01*
X141867932Y-69388728D02*
X142010789Y-69317300D01*
X142010789Y-69317300D02*
X142082218Y-69245871D01*
X142082218Y-69245871D02*
X142225075Y-69031585D01*
X142225075Y-69031585D02*
X142296504Y-68745871D01*
X142296504Y-68745871D02*
X142296504Y-68174442D01*
X142296504Y-68174442D02*
X142225075Y-68031585D01*
X142225075Y-68031585D02*
X142153647Y-67960157D01*
X142153647Y-67960157D02*
X142010789Y-67888728D01*
X142010789Y-67888728D02*
X141725075Y-67888728D01*
X141725075Y-67888728D02*
X141582218Y-67960157D01*
X141582218Y-67960157D02*
X141510789Y-68031585D01*
X141510789Y-68031585D02*
X141439361Y-68174442D01*
X141439361Y-68174442D02*
X141439361Y-68531585D01*
X141439361Y-68531585D02*
X141510789Y-68674442D01*
X141510789Y-68674442D02*
X141582218Y-68745871D01*
X141582218Y-68745871D02*
X141725075Y-68817300D01*
X141725075Y-68817300D02*
X142010789Y-68817300D01*
X142010789Y-68817300D02*
X142153647Y-68745871D01*
X142153647Y-68745871D02*
X142225075Y-68674442D01*
X142225075Y-68674442D02*
X142296504Y-68531585D01*
X142939360Y-69245871D02*
X143010789Y-69317300D01*
X143010789Y-69317300D02*
X142939360Y-69388728D01*
X142939360Y-69388728D02*
X142867932Y-69317300D01*
X142867932Y-69317300D02*
X142939360Y-69245871D01*
X142939360Y-69245871D02*
X142939360Y-69388728D01*
X143725075Y-69388728D02*
X144010789Y-69388728D01*
X144010789Y-69388728D02*
X144153646Y-69317300D01*
X144153646Y-69317300D02*
X144225075Y-69245871D01*
X144225075Y-69245871D02*
X144367932Y-69031585D01*
X144367932Y-69031585D02*
X144439361Y-68745871D01*
X144439361Y-68745871D02*
X144439361Y-68174442D01*
X144439361Y-68174442D02*
X144367932Y-68031585D01*
X144367932Y-68031585D02*
X144296504Y-67960157D01*
X144296504Y-67960157D02*
X144153646Y-67888728D01*
X144153646Y-67888728D02*
X143867932Y-67888728D01*
X143867932Y-67888728D02*
X143725075Y-67960157D01*
X143725075Y-67960157D02*
X143653646Y-68031585D01*
X143653646Y-68031585D02*
X143582218Y-68174442D01*
X143582218Y-68174442D02*
X143582218Y-68531585D01*
X143582218Y-68531585D02*
X143653646Y-68674442D01*
X143653646Y-68674442D02*
X143725075Y-68745871D01*
X143725075Y-68745871D02*
X143867932Y-68817300D01*
X143867932Y-68817300D02*
X144153646Y-68817300D01*
X144153646Y-68817300D02*
X144296504Y-68745871D01*
X144296504Y-68745871D02*
X144367932Y-68674442D01*
X144367932Y-68674442D02*
X144439361Y-68531585D01*
X144939360Y-67888728D02*
X145939360Y-67888728D01*
X145939360Y-67888728D02*
X145296503Y-69388728D01*
X146439360Y-68031585D02*
X146510788Y-67960157D01*
X146510788Y-67960157D02*
X146653646Y-67888728D01*
X146653646Y-67888728D02*
X147010788Y-67888728D01*
X147010788Y-67888728D02*
X147153646Y-67960157D01*
X147153646Y-67960157D02*
X147225074Y-68031585D01*
X147225074Y-68031585D02*
X147296503Y-68174442D01*
X147296503Y-68174442D02*
X147296503Y-68317300D01*
X147296503Y-68317300D02*
X147225074Y-68531585D01*
X147225074Y-68531585D02*
X146367931Y-69388728D01*
X146367931Y-69388728D02*
X147296503Y-69388728D01*
X147796502Y-67888728D02*
X148796502Y-67888728D01*
X148796502Y-67888728D02*
X148153645Y-69388728D01*
X150510787Y-69388728D02*
X150510787Y-68388728D01*
X150510787Y-68531585D02*
X150582216Y-68460157D01*
X150582216Y-68460157D02*
X150725073Y-68388728D01*
X150725073Y-68388728D02*
X150939359Y-68388728D01*
X150939359Y-68388728D02*
X151082216Y-68460157D01*
X151082216Y-68460157D02*
X151153645Y-68603014D01*
X151153645Y-68603014D02*
X151153645Y-69388728D01*
X151153645Y-68603014D02*
X151225073Y-68460157D01*
X151225073Y-68460157D02*
X151367930Y-68388728D01*
X151367930Y-68388728D02*
X151582216Y-68388728D01*
X151582216Y-68388728D02*
X151725073Y-68460157D01*
X151725073Y-68460157D02*
X151796502Y-68603014D01*
X151796502Y-68603014D02*
X151796502Y-69388728D01*
X152510787Y-69388728D02*
X152510787Y-68388728D01*
X152510787Y-68531585D02*
X152582216Y-68460157D01*
X152582216Y-68460157D02*
X152725073Y-68388728D01*
X152725073Y-68388728D02*
X152939359Y-68388728D01*
X152939359Y-68388728D02*
X153082216Y-68460157D01*
X153082216Y-68460157D02*
X153153645Y-68603014D01*
X153153645Y-68603014D02*
X153153645Y-69388728D01*
X153153645Y-68603014D02*
X153225073Y-68460157D01*
X153225073Y-68460157D02*
X153367930Y-68388728D01*
X153367930Y-68388728D02*
X153582216Y-68388728D01*
X153582216Y-68388728D02*
X153725073Y-68460157D01*
X153725073Y-68460157D02*
X153796502Y-68603014D01*
X153796502Y-68603014D02*
X153796502Y-69388728D01*
D11*
X161925720Y-78573800D02*
X161925720Y-69923980D01*
X131953000Y-78573800D02*
X131953000Y-69923980D01*
X161925720Y-70510400D02*
X131953000Y-70510400D01*
X161925720Y-70510400D02*
X131953000Y-70510400D01*
X161925720Y-70510400D02*
X160799216Y-71096821D01*
X161925720Y-70510400D02*
X160799216Y-69923979D01*
X131953000Y-70510400D02*
X133079504Y-69923979D01*
X131953000Y-70510400D02*
X133079504Y-71096821D01*
M02*
