%TF.GenerationSoftware,KiCad,Pcbnew,7.0.7*%
%TF.CreationDate,2024-04-11T18:02:48+02:00*%
%TF.ProjectId,DriverRGB_v2,44726976-6572-4524-9742-5f76322e6b69,v02*%
%TF.SameCoordinates,Original*%
%TF.FileFunction,Legend,Top*%
%TF.FilePolarity,Positive*%
%FSLAX46Y46*%
G04 Gerber Fmt 4.6, Leading zero omitted, Abs format (unit mm)*
G04 Created by KiCad (PCBNEW 7.0.7) date 2024-04-11 18:02:48*
%MOMM*%
%LPD*%
G01*
G04 APERTURE LIST*
%ADD10C,0.100000*%
%ADD11C,0.150000*%
%ADD12C,0.300000*%
%ADD13C,0.400000*%
%ADD14C,0.200000*%
%ADD15C,0.254000*%
%ADD16C,0.127000*%
%ADD17C,0.120000*%
G04 APERTURE END LIST*
D10*
D11*
X177002200Y-166007200D02*
X285002200Y-166007200D01*
X285002200Y-198007200D01*
X177002200Y-198007200D01*
X177002200Y-166007200D01*
D10*
D11*
X10000000Y-10000000D02*
X287002200Y-10000000D01*
X287002200Y-200007200D01*
X10000000Y-200007200D01*
X10000000Y-10000000D01*
D10*
D11*
X12000000Y-12000000D02*
X285002200Y-12000000D01*
X285002200Y-198007200D01*
X12000000Y-198007200D01*
X12000000Y-12000000D01*
D10*
D11*
X60000000Y-12000000D02*
X60000000Y-10000000D01*
D10*
D11*
X110000000Y-12000000D02*
X110000000Y-10000000D01*
D10*
D11*
X160000000Y-12000000D02*
X160000000Y-10000000D01*
D10*
D11*
X210000000Y-12000000D02*
X210000000Y-10000000D01*
D10*
D11*
X260000000Y-12000000D02*
X260000000Y-10000000D01*
D10*
D11*
X36089160Y-11593604D02*
X35346303Y-11593604D01*
X35717731Y-11593604D02*
X35717731Y-10293604D01*
X35717731Y-10293604D02*
X35593922Y-10479319D01*
X35593922Y-10479319D02*
X35470112Y-10603128D01*
X35470112Y-10603128D02*
X35346303Y-10665033D01*
D10*
D11*
X85346303Y-10417414D02*
X85408207Y-10355509D01*
X85408207Y-10355509D02*
X85532017Y-10293604D01*
X85532017Y-10293604D02*
X85841541Y-10293604D01*
X85841541Y-10293604D02*
X85965350Y-10355509D01*
X85965350Y-10355509D02*
X86027255Y-10417414D01*
X86027255Y-10417414D02*
X86089160Y-10541223D01*
X86089160Y-10541223D02*
X86089160Y-10665033D01*
X86089160Y-10665033D02*
X86027255Y-10850747D01*
X86027255Y-10850747D02*
X85284398Y-11593604D01*
X85284398Y-11593604D02*
X86089160Y-11593604D01*
D10*
D11*
X135284398Y-10293604D02*
X136089160Y-10293604D01*
X136089160Y-10293604D02*
X135655826Y-10788842D01*
X135655826Y-10788842D02*
X135841541Y-10788842D01*
X135841541Y-10788842D02*
X135965350Y-10850747D01*
X135965350Y-10850747D02*
X136027255Y-10912652D01*
X136027255Y-10912652D02*
X136089160Y-11036461D01*
X136089160Y-11036461D02*
X136089160Y-11345985D01*
X136089160Y-11345985D02*
X136027255Y-11469795D01*
X136027255Y-11469795D02*
X135965350Y-11531700D01*
X135965350Y-11531700D02*
X135841541Y-11593604D01*
X135841541Y-11593604D02*
X135470112Y-11593604D01*
X135470112Y-11593604D02*
X135346303Y-11531700D01*
X135346303Y-11531700D02*
X135284398Y-11469795D01*
D10*
D11*
X185965350Y-10726938D02*
X185965350Y-11593604D01*
X185655826Y-10231700D02*
X185346303Y-11160271D01*
X185346303Y-11160271D02*
X186151064Y-11160271D01*
D10*
D11*
X236027255Y-10293604D02*
X235408207Y-10293604D01*
X235408207Y-10293604D02*
X235346303Y-10912652D01*
X235346303Y-10912652D02*
X235408207Y-10850747D01*
X235408207Y-10850747D02*
X235532017Y-10788842D01*
X235532017Y-10788842D02*
X235841541Y-10788842D01*
X235841541Y-10788842D02*
X235965350Y-10850747D01*
X235965350Y-10850747D02*
X236027255Y-10912652D01*
X236027255Y-10912652D02*
X236089160Y-11036461D01*
X236089160Y-11036461D02*
X236089160Y-11345985D01*
X236089160Y-11345985D02*
X236027255Y-11469795D01*
X236027255Y-11469795D02*
X235965350Y-11531700D01*
X235965350Y-11531700D02*
X235841541Y-11593604D01*
X235841541Y-11593604D02*
X235532017Y-11593604D01*
X235532017Y-11593604D02*
X235408207Y-11531700D01*
X235408207Y-11531700D02*
X235346303Y-11469795D01*
D10*
D11*
X285965350Y-10293604D02*
X285717731Y-10293604D01*
X285717731Y-10293604D02*
X285593922Y-10355509D01*
X285593922Y-10355509D02*
X285532017Y-10417414D01*
X285532017Y-10417414D02*
X285408207Y-10603128D01*
X285408207Y-10603128D02*
X285346303Y-10850747D01*
X285346303Y-10850747D02*
X285346303Y-11345985D01*
X285346303Y-11345985D02*
X285408207Y-11469795D01*
X285408207Y-11469795D02*
X285470112Y-11531700D01*
X285470112Y-11531700D02*
X285593922Y-11593604D01*
X285593922Y-11593604D02*
X285841541Y-11593604D01*
X285841541Y-11593604D02*
X285965350Y-11531700D01*
X285965350Y-11531700D02*
X286027255Y-11469795D01*
X286027255Y-11469795D02*
X286089160Y-11345985D01*
X286089160Y-11345985D02*
X286089160Y-11036461D01*
X286089160Y-11036461D02*
X286027255Y-10912652D01*
X286027255Y-10912652D02*
X285965350Y-10850747D01*
X285965350Y-10850747D02*
X285841541Y-10788842D01*
X285841541Y-10788842D02*
X285593922Y-10788842D01*
X285593922Y-10788842D02*
X285470112Y-10850747D01*
X285470112Y-10850747D02*
X285408207Y-10912652D01*
X285408207Y-10912652D02*
X285346303Y-11036461D01*
D10*
D11*
X60000000Y-198007200D02*
X60000000Y-200007200D01*
D10*
D11*
X110000000Y-198007200D02*
X110000000Y-200007200D01*
D10*
D11*
X160000000Y-198007200D02*
X160000000Y-200007200D01*
D10*
D11*
X210000000Y-198007200D02*
X210000000Y-200007200D01*
D10*
D11*
X260000000Y-198007200D02*
X260000000Y-200007200D01*
D10*
D11*
X36089160Y-199600804D02*
X35346303Y-199600804D01*
X35717731Y-199600804D02*
X35717731Y-198300804D01*
X35717731Y-198300804D02*
X35593922Y-198486519D01*
X35593922Y-198486519D02*
X35470112Y-198610328D01*
X35470112Y-198610328D02*
X35346303Y-198672233D01*
D10*
D11*
X85346303Y-198424614D02*
X85408207Y-198362709D01*
X85408207Y-198362709D02*
X85532017Y-198300804D01*
X85532017Y-198300804D02*
X85841541Y-198300804D01*
X85841541Y-198300804D02*
X85965350Y-198362709D01*
X85965350Y-198362709D02*
X86027255Y-198424614D01*
X86027255Y-198424614D02*
X86089160Y-198548423D01*
X86089160Y-198548423D02*
X86089160Y-198672233D01*
X86089160Y-198672233D02*
X86027255Y-198857947D01*
X86027255Y-198857947D02*
X85284398Y-199600804D01*
X85284398Y-199600804D02*
X86089160Y-199600804D01*
D10*
D11*
X135284398Y-198300804D02*
X136089160Y-198300804D01*
X136089160Y-198300804D02*
X135655826Y-198796042D01*
X135655826Y-198796042D02*
X135841541Y-198796042D01*
X135841541Y-198796042D02*
X135965350Y-198857947D01*
X135965350Y-198857947D02*
X136027255Y-198919852D01*
X136027255Y-198919852D02*
X136089160Y-199043661D01*
X136089160Y-199043661D02*
X136089160Y-199353185D01*
X136089160Y-199353185D02*
X136027255Y-199476995D01*
X136027255Y-199476995D02*
X135965350Y-199538900D01*
X135965350Y-199538900D02*
X135841541Y-199600804D01*
X135841541Y-199600804D02*
X135470112Y-199600804D01*
X135470112Y-199600804D02*
X135346303Y-199538900D01*
X135346303Y-199538900D02*
X135284398Y-199476995D01*
D10*
D11*
X185965350Y-198734138D02*
X185965350Y-199600804D01*
X185655826Y-198238900D02*
X185346303Y-199167471D01*
X185346303Y-199167471D02*
X186151064Y-199167471D01*
D10*
D11*
X236027255Y-198300804D02*
X235408207Y-198300804D01*
X235408207Y-198300804D02*
X235346303Y-198919852D01*
X235346303Y-198919852D02*
X235408207Y-198857947D01*
X235408207Y-198857947D02*
X235532017Y-198796042D01*
X235532017Y-198796042D02*
X235841541Y-198796042D01*
X235841541Y-198796042D02*
X235965350Y-198857947D01*
X235965350Y-198857947D02*
X236027255Y-198919852D01*
X236027255Y-198919852D02*
X236089160Y-199043661D01*
X236089160Y-199043661D02*
X236089160Y-199353185D01*
X236089160Y-199353185D02*
X236027255Y-199476995D01*
X236027255Y-199476995D02*
X235965350Y-199538900D01*
X235965350Y-199538900D02*
X235841541Y-199600804D01*
X235841541Y-199600804D02*
X235532017Y-199600804D01*
X235532017Y-199600804D02*
X235408207Y-199538900D01*
X235408207Y-199538900D02*
X235346303Y-199476995D01*
D10*
D11*
X285965350Y-198300804D02*
X285717731Y-198300804D01*
X285717731Y-198300804D02*
X285593922Y-198362709D01*
X285593922Y-198362709D02*
X285532017Y-198424614D01*
X285532017Y-198424614D02*
X285408207Y-198610328D01*
X285408207Y-198610328D02*
X285346303Y-198857947D01*
X285346303Y-198857947D02*
X285346303Y-199353185D01*
X285346303Y-199353185D02*
X285408207Y-199476995D01*
X285408207Y-199476995D02*
X285470112Y-199538900D01*
X285470112Y-199538900D02*
X285593922Y-199600804D01*
X285593922Y-199600804D02*
X285841541Y-199600804D01*
X285841541Y-199600804D02*
X285965350Y-199538900D01*
X285965350Y-199538900D02*
X286027255Y-199476995D01*
X286027255Y-199476995D02*
X286089160Y-199353185D01*
X286089160Y-199353185D02*
X286089160Y-199043661D01*
X286089160Y-199043661D02*
X286027255Y-198919852D01*
X286027255Y-198919852D02*
X285965350Y-198857947D01*
X285965350Y-198857947D02*
X285841541Y-198796042D01*
X285841541Y-198796042D02*
X285593922Y-198796042D01*
X285593922Y-198796042D02*
X285470112Y-198857947D01*
X285470112Y-198857947D02*
X285408207Y-198919852D01*
X285408207Y-198919852D02*
X285346303Y-199043661D01*
D10*
D11*
X10000000Y-60000000D02*
X12000000Y-60000000D01*
D10*
D11*
X10000000Y-110000000D02*
X12000000Y-110000000D01*
D10*
D11*
X10000000Y-160000000D02*
X12000000Y-160000000D01*
D10*
D11*
X10690476Y-35222176D02*
X11309523Y-35222176D01*
X10566666Y-35593604D02*
X10999999Y-34293604D01*
X10999999Y-34293604D02*
X11433333Y-35593604D01*
D10*
D11*
X11092857Y-84912652D02*
X11278571Y-84974557D01*
X11278571Y-84974557D02*
X11340476Y-85036461D01*
X11340476Y-85036461D02*
X11402380Y-85160271D01*
X11402380Y-85160271D02*
X11402380Y-85345985D01*
X11402380Y-85345985D02*
X11340476Y-85469795D01*
X11340476Y-85469795D02*
X11278571Y-85531700D01*
X11278571Y-85531700D02*
X11154761Y-85593604D01*
X11154761Y-85593604D02*
X10659523Y-85593604D01*
X10659523Y-85593604D02*
X10659523Y-84293604D01*
X10659523Y-84293604D02*
X11092857Y-84293604D01*
X11092857Y-84293604D02*
X11216666Y-84355509D01*
X11216666Y-84355509D02*
X11278571Y-84417414D01*
X11278571Y-84417414D02*
X11340476Y-84541223D01*
X11340476Y-84541223D02*
X11340476Y-84665033D01*
X11340476Y-84665033D02*
X11278571Y-84788842D01*
X11278571Y-84788842D02*
X11216666Y-84850747D01*
X11216666Y-84850747D02*
X11092857Y-84912652D01*
X11092857Y-84912652D02*
X10659523Y-84912652D01*
D10*
D11*
X11402380Y-135469795D02*
X11340476Y-135531700D01*
X11340476Y-135531700D02*
X11154761Y-135593604D01*
X11154761Y-135593604D02*
X11030952Y-135593604D01*
X11030952Y-135593604D02*
X10845238Y-135531700D01*
X10845238Y-135531700D02*
X10721428Y-135407890D01*
X10721428Y-135407890D02*
X10659523Y-135284080D01*
X10659523Y-135284080D02*
X10597619Y-135036461D01*
X10597619Y-135036461D02*
X10597619Y-134850747D01*
X10597619Y-134850747D02*
X10659523Y-134603128D01*
X10659523Y-134603128D02*
X10721428Y-134479319D01*
X10721428Y-134479319D02*
X10845238Y-134355509D01*
X10845238Y-134355509D02*
X11030952Y-134293604D01*
X11030952Y-134293604D02*
X11154761Y-134293604D01*
X11154761Y-134293604D02*
X11340476Y-134355509D01*
X11340476Y-134355509D02*
X11402380Y-134417414D01*
D10*
D11*
X10659523Y-185593604D02*
X10659523Y-184293604D01*
X10659523Y-184293604D02*
X10969047Y-184293604D01*
X10969047Y-184293604D02*
X11154761Y-184355509D01*
X11154761Y-184355509D02*
X11278571Y-184479319D01*
X11278571Y-184479319D02*
X11340476Y-184603128D01*
X11340476Y-184603128D02*
X11402380Y-184850747D01*
X11402380Y-184850747D02*
X11402380Y-185036461D01*
X11402380Y-185036461D02*
X11340476Y-185284080D01*
X11340476Y-185284080D02*
X11278571Y-185407890D01*
X11278571Y-185407890D02*
X11154761Y-185531700D01*
X11154761Y-185531700D02*
X10969047Y-185593604D01*
X10969047Y-185593604D02*
X10659523Y-185593604D01*
D10*
D11*
X287002200Y-60000000D02*
X285002200Y-60000000D01*
D10*
D11*
X287002200Y-110000000D02*
X285002200Y-110000000D01*
D10*
D11*
X287002200Y-160000000D02*
X285002200Y-160000000D01*
D10*
D11*
X285692676Y-35222176D02*
X286311723Y-35222176D01*
X285568866Y-35593604D02*
X286002199Y-34293604D01*
X286002199Y-34293604D02*
X286435533Y-35593604D01*
D10*
D11*
X286095057Y-84912652D02*
X286280771Y-84974557D01*
X286280771Y-84974557D02*
X286342676Y-85036461D01*
X286342676Y-85036461D02*
X286404580Y-85160271D01*
X286404580Y-85160271D02*
X286404580Y-85345985D01*
X286404580Y-85345985D02*
X286342676Y-85469795D01*
X286342676Y-85469795D02*
X286280771Y-85531700D01*
X286280771Y-85531700D02*
X286156961Y-85593604D01*
X286156961Y-85593604D02*
X285661723Y-85593604D01*
X285661723Y-85593604D02*
X285661723Y-84293604D01*
X285661723Y-84293604D02*
X286095057Y-84293604D01*
X286095057Y-84293604D02*
X286218866Y-84355509D01*
X286218866Y-84355509D02*
X286280771Y-84417414D01*
X286280771Y-84417414D02*
X286342676Y-84541223D01*
X286342676Y-84541223D02*
X286342676Y-84665033D01*
X286342676Y-84665033D02*
X286280771Y-84788842D01*
X286280771Y-84788842D02*
X286218866Y-84850747D01*
X286218866Y-84850747D02*
X286095057Y-84912652D01*
X286095057Y-84912652D02*
X285661723Y-84912652D01*
D10*
D11*
X286404580Y-135469795D02*
X286342676Y-135531700D01*
X286342676Y-135531700D02*
X286156961Y-135593604D01*
X286156961Y-135593604D02*
X286033152Y-135593604D01*
X286033152Y-135593604D02*
X285847438Y-135531700D01*
X285847438Y-135531700D02*
X285723628Y-135407890D01*
X285723628Y-135407890D02*
X285661723Y-135284080D01*
X285661723Y-135284080D02*
X285599819Y-135036461D01*
X285599819Y-135036461D02*
X285599819Y-134850747D01*
X285599819Y-134850747D02*
X285661723Y-134603128D01*
X285661723Y-134603128D02*
X285723628Y-134479319D01*
X285723628Y-134479319D02*
X285847438Y-134355509D01*
X285847438Y-134355509D02*
X286033152Y-134293604D01*
X286033152Y-134293604D02*
X286156961Y-134293604D01*
X286156961Y-134293604D02*
X286342676Y-134355509D01*
X286342676Y-134355509D02*
X286404580Y-134417414D01*
D10*
D11*
X285661723Y-185593604D02*
X285661723Y-184293604D01*
X285661723Y-184293604D02*
X285971247Y-184293604D01*
X285971247Y-184293604D02*
X286156961Y-184355509D01*
X286156961Y-184355509D02*
X286280771Y-184479319D01*
X286280771Y-184479319D02*
X286342676Y-184603128D01*
X286342676Y-184603128D02*
X286404580Y-184850747D01*
X286404580Y-184850747D02*
X286404580Y-185036461D01*
X286404580Y-185036461D02*
X286342676Y-185284080D01*
X286342676Y-185284080D02*
X286280771Y-185407890D01*
X286280771Y-185407890D02*
X286156961Y-185531700D01*
X286156961Y-185531700D02*
X285971247Y-185593604D01*
X285971247Y-185593604D02*
X285661723Y-185593604D01*
D10*
D11*
X200458026Y-193793328D02*
X200458026Y-192293328D01*
X200458026Y-192293328D02*
X200815169Y-192293328D01*
X200815169Y-192293328D02*
X201029455Y-192364757D01*
X201029455Y-192364757D02*
X201172312Y-192507614D01*
X201172312Y-192507614D02*
X201243741Y-192650471D01*
X201243741Y-192650471D02*
X201315169Y-192936185D01*
X201315169Y-192936185D02*
X201315169Y-193150471D01*
X201315169Y-193150471D02*
X201243741Y-193436185D01*
X201243741Y-193436185D02*
X201172312Y-193579042D01*
X201172312Y-193579042D02*
X201029455Y-193721900D01*
X201029455Y-193721900D02*
X200815169Y-193793328D01*
X200815169Y-193793328D02*
X200458026Y-193793328D01*
X202600884Y-193793328D02*
X202600884Y-193007614D01*
X202600884Y-193007614D02*
X202529455Y-192864757D01*
X202529455Y-192864757D02*
X202386598Y-192793328D01*
X202386598Y-192793328D02*
X202100884Y-192793328D01*
X202100884Y-192793328D02*
X201958026Y-192864757D01*
X202600884Y-193721900D02*
X202458026Y-193793328D01*
X202458026Y-193793328D02*
X202100884Y-193793328D01*
X202100884Y-193793328D02*
X201958026Y-193721900D01*
X201958026Y-193721900D02*
X201886598Y-193579042D01*
X201886598Y-193579042D02*
X201886598Y-193436185D01*
X201886598Y-193436185D02*
X201958026Y-193293328D01*
X201958026Y-193293328D02*
X202100884Y-193221900D01*
X202100884Y-193221900D02*
X202458026Y-193221900D01*
X202458026Y-193221900D02*
X202600884Y-193150471D01*
X203100884Y-192793328D02*
X203672312Y-192793328D01*
X203315169Y-192293328D02*
X203315169Y-193579042D01*
X203315169Y-193579042D02*
X203386598Y-193721900D01*
X203386598Y-193721900D02*
X203529455Y-193793328D01*
X203529455Y-193793328D02*
X203672312Y-193793328D01*
X204743741Y-193721900D02*
X204600884Y-193793328D01*
X204600884Y-193793328D02*
X204315170Y-193793328D01*
X204315170Y-193793328D02*
X204172312Y-193721900D01*
X204172312Y-193721900D02*
X204100884Y-193579042D01*
X204100884Y-193579042D02*
X204100884Y-193007614D01*
X204100884Y-193007614D02*
X204172312Y-192864757D01*
X204172312Y-192864757D02*
X204315170Y-192793328D01*
X204315170Y-192793328D02*
X204600884Y-192793328D01*
X204600884Y-192793328D02*
X204743741Y-192864757D01*
X204743741Y-192864757D02*
X204815170Y-193007614D01*
X204815170Y-193007614D02*
X204815170Y-193150471D01*
X204815170Y-193150471D02*
X204100884Y-193293328D01*
X205458026Y-193650471D02*
X205529455Y-193721900D01*
X205529455Y-193721900D02*
X205458026Y-193793328D01*
X205458026Y-193793328D02*
X205386598Y-193721900D01*
X205386598Y-193721900D02*
X205458026Y-193650471D01*
X205458026Y-193650471D02*
X205458026Y-193793328D01*
X205458026Y-192864757D02*
X205529455Y-192936185D01*
X205529455Y-192936185D02*
X205458026Y-193007614D01*
X205458026Y-193007614D02*
X205386598Y-192936185D01*
X205386598Y-192936185D02*
X205458026Y-192864757D01*
X205458026Y-192864757D02*
X205458026Y-193007614D01*
X208100884Y-193793328D02*
X207243741Y-193793328D01*
X207672312Y-193793328D02*
X207672312Y-192293328D01*
X207672312Y-192293328D02*
X207529455Y-192507614D01*
X207529455Y-192507614D02*
X207386598Y-192650471D01*
X207386598Y-192650471D02*
X207243741Y-192721900D01*
X208815169Y-193793328D02*
X209100883Y-193793328D01*
X209100883Y-193793328D02*
X209243740Y-193721900D01*
X209243740Y-193721900D02*
X209315169Y-193650471D01*
X209315169Y-193650471D02*
X209458026Y-193436185D01*
X209458026Y-193436185D02*
X209529455Y-193150471D01*
X209529455Y-193150471D02*
X209529455Y-192579042D01*
X209529455Y-192579042D02*
X209458026Y-192436185D01*
X209458026Y-192436185D02*
X209386598Y-192364757D01*
X209386598Y-192364757D02*
X209243740Y-192293328D01*
X209243740Y-192293328D02*
X208958026Y-192293328D01*
X208958026Y-192293328D02*
X208815169Y-192364757D01*
X208815169Y-192364757D02*
X208743740Y-192436185D01*
X208743740Y-192436185D02*
X208672312Y-192579042D01*
X208672312Y-192579042D02*
X208672312Y-192936185D01*
X208672312Y-192936185D02*
X208743740Y-193079042D01*
X208743740Y-193079042D02*
X208815169Y-193150471D01*
X208815169Y-193150471D02*
X208958026Y-193221900D01*
X208958026Y-193221900D02*
X209243740Y-193221900D01*
X209243740Y-193221900D02*
X209386598Y-193150471D01*
X209386598Y-193150471D02*
X209458026Y-193079042D01*
X209458026Y-193079042D02*
X209529455Y-192936185D01*
X211243740Y-192221900D02*
X209958026Y-194150471D01*
X212029455Y-192293328D02*
X212172312Y-192293328D01*
X212172312Y-192293328D02*
X212315169Y-192364757D01*
X212315169Y-192364757D02*
X212386598Y-192436185D01*
X212386598Y-192436185D02*
X212458026Y-192579042D01*
X212458026Y-192579042D02*
X212529455Y-192864757D01*
X212529455Y-192864757D02*
X212529455Y-193221900D01*
X212529455Y-193221900D02*
X212458026Y-193507614D01*
X212458026Y-193507614D02*
X212386598Y-193650471D01*
X212386598Y-193650471D02*
X212315169Y-193721900D01*
X212315169Y-193721900D02*
X212172312Y-193793328D01*
X212172312Y-193793328D02*
X212029455Y-193793328D01*
X212029455Y-193793328D02*
X211886598Y-193721900D01*
X211886598Y-193721900D02*
X211815169Y-193650471D01*
X211815169Y-193650471D02*
X211743740Y-193507614D01*
X211743740Y-193507614D02*
X211672312Y-193221900D01*
X211672312Y-193221900D02*
X211672312Y-192864757D01*
X211672312Y-192864757D02*
X211743740Y-192579042D01*
X211743740Y-192579042D02*
X211815169Y-192436185D01*
X211815169Y-192436185D02*
X211886598Y-192364757D01*
X211886598Y-192364757D02*
X212029455Y-192293328D01*
X213029454Y-192293328D02*
X213958026Y-192293328D01*
X213958026Y-192293328D02*
X213458026Y-192864757D01*
X213458026Y-192864757D02*
X213672311Y-192864757D01*
X213672311Y-192864757D02*
X213815169Y-192936185D01*
X213815169Y-192936185D02*
X213886597Y-193007614D01*
X213886597Y-193007614D02*
X213958026Y-193150471D01*
X213958026Y-193150471D02*
X213958026Y-193507614D01*
X213958026Y-193507614D02*
X213886597Y-193650471D01*
X213886597Y-193650471D02*
X213815169Y-193721900D01*
X213815169Y-193721900D02*
X213672311Y-193793328D01*
X213672311Y-193793328D02*
X213243740Y-193793328D01*
X213243740Y-193793328D02*
X213100883Y-193721900D01*
X213100883Y-193721900D02*
X213029454Y-193650471D01*
X215672311Y-192221900D02*
X214386597Y-194150471D01*
X216100883Y-192436185D02*
X216172311Y-192364757D01*
X216172311Y-192364757D02*
X216315169Y-192293328D01*
X216315169Y-192293328D02*
X216672311Y-192293328D01*
X216672311Y-192293328D02*
X216815169Y-192364757D01*
X216815169Y-192364757D02*
X216886597Y-192436185D01*
X216886597Y-192436185D02*
X216958026Y-192579042D01*
X216958026Y-192579042D02*
X216958026Y-192721900D01*
X216958026Y-192721900D02*
X216886597Y-192936185D01*
X216886597Y-192936185D02*
X216029454Y-193793328D01*
X216029454Y-193793328D02*
X216958026Y-193793328D01*
X217886597Y-192293328D02*
X218029454Y-192293328D01*
X218029454Y-192293328D02*
X218172311Y-192364757D01*
X218172311Y-192364757D02*
X218243740Y-192436185D01*
X218243740Y-192436185D02*
X218315168Y-192579042D01*
X218315168Y-192579042D02*
X218386597Y-192864757D01*
X218386597Y-192864757D02*
X218386597Y-193221900D01*
X218386597Y-193221900D02*
X218315168Y-193507614D01*
X218315168Y-193507614D02*
X218243740Y-193650471D01*
X218243740Y-193650471D02*
X218172311Y-193721900D01*
X218172311Y-193721900D02*
X218029454Y-193793328D01*
X218029454Y-193793328D02*
X217886597Y-193793328D01*
X217886597Y-193793328D02*
X217743740Y-193721900D01*
X217743740Y-193721900D02*
X217672311Y-193650471D01*
X217672311Y-193650471D02*
X217600882Y-193507614D01*
X217600882Y-193507614D02*
X217529454Y-193221900D01*
X217529454Y-193221900D02*
X217529454Y-192864757D01*
X217529454Y-192864757D02*
X217600882Y-192579042D01*
X217600882Y-192579042D02*
X217672311Y-192436185D01*
X217672311Y-192436185D02*
X217743740Y-192364757D01*
X217743740Y-192364757D02*
X217886597Y-192293328D01*
X218958025Y-192436185D02*
X219029453Y-192364757D01*
X219029453Y-192364757D02*
X219172311Y-192293328D01*
X219172311Y-192293328D02*
X219529453Y-192293328D01*
X219529453Y-192293328D02*
X219672311Y-192364757D01*
X219672311Y-192364757D02*
X219743739Y-192436185D01*
X219743739Y-192436185D02*
X219815168Y-192579042D01*
X219815168Y-192579042D02*
X219815168Y-192721900D01*
X219815168Y-192721900D02*
X219743739Y-192936185D01*
X219743739Y-192936185D02*
X218886596Y-193793328D01*
X218886596Y-193793328D02*
X219815168Y-193793328D01*
X221100882Y-192793328D02*
X221100882Y-193793328D01*
X220743739Y-192221900D02*
X220386596Y-193293328D01*
X220386596Y-193293328D02*
X221315167Y-193293328D01*
D10*
D11*
X177002200Y-194507200D02*
X285002200Y-194507200D01*
D10*
D11*
X178458026Y-196593328D02*
X178458026Y-195093328D01*
X179315169Y-196593328D02*
X178672312Y-195736185D01*
X179315169Y-195093328D02*
X178458026Y-195950471D01*
X179958026Y-196593328D02*
X179958026Y-195593328D01*
X179958026Y-195093328D02*
X179886598Y-195164757D01*
X179886598Y-195164757D02*
X179958026Y-195236185D01*
X179958026Y-195236185D02*
X180029455Y-195164757D01*
X180029455Y-195164757D02*
X179958026Y-195093328D01*
X179958026Y-195093328D02*
X179958026Y-195236185D01*
X181529455Y-196450471D02*
X181458027Y-196521900D01*
X181458027Y-196521900D02*
X181243741Y-196593328D01*
X181243741Y-196593328D02*
X181100884Y-196593328D01*
X181100884Y-196593328D02*
X180886598Y-196521900D01*
X180886598Y-196521900D02*
X180743741Y-196379042D01*
X180743741Y-196379042D02*
X180672312Y-196236185D01*
X180672312Y-196236185D02*
X180600884Y-195950471D01*
X180600884Y-195950471D02*
X180600884Y-195736185D01*
X180600884Y-195736185D02*
X180672312Y-195450471D01*
X180672312Y-195450471D02*
X180743741Y-195307614D01*
X180743741Y-195307614D02*
X180886598Y-195164757D01*
X180886598Y-195164757D02*
X181100884Y-195093328D01*
X181100884Y-195093328D02*
X181243741Y-195093328D01*
X181243741Y-195093328D02*
X181458027Y-195164757D01*
X181458027Y-195164757D02*
X181529455Y-195236185D01*
X182815170Y-196593328D02*
X182815170Y-195807614D01*
X182815170Y-195807614D02*
X182743741Y-195664757D01*
X182743741Y-195664757D02*
X182600884Y-195593328D01*
X182600884Y-195593328D02*
X182315170Y-195593328D01*
X182315170Y-195593328D02*
X182172312Y-195664757D01*
X182815170Y-196521900D02*
X182672312Y-196593328D01*
X182672312Y-196593328D02*
X182315170Y-196593328D01*
X182315170Y-196593328D02*
X182172312Y-196521900D01*
X182172312Y-196521900D02*
X182100884Y-196379042D01*
X182100884Y-196379042D02*
X182100884Y-196236185D01*
X182100884Y-196236185D02*
X182172312Y-196093328D01*
X182172312Y-196093328D02*
X182315170Y-196021900D01*
X182315170Y-196021900D02*
X182672312Y-196021900D01*
X182672312Y-196021900D02*
X182815170Y-195950471D01*
X184172313Y-196593328D02*
X184172313Y-195093328D01*
X184172313Y-196521900D02*
X184029455Y-196593328D01*
X184029455Y-196593328D02*
X183743741Y-196593328D01*
X183743741Y-196593328D02*
X183600884Y-196521900D01*
X183600884Y-196521900D02*
X183529455Y-196450471D01*
X183529455Y-196450471D02*
X183458027Y-196307614D01*
X183458027Y-196307614D02*
X183458027Y-195879042D01*
X183458027Y-195879042D02*
X183529455Y-195736185D01*
X183529455Y-195736185D02*
X183600884Y-195664757D01*
X183600884Y-195664757D02*
X183743741Y-195593328D01*
X183743741Y-195593328D02*
X184029455Y-195593328D01*
X184029455Y-195593328D02*
X184172313Y-195664757D01*
X186029455Y-195807614D02*
X186529455Y-195807614D01*
X186743741Y-196593328D02*
X186029455Y-196593328D01*
X186029455Y-196593328D02*
X186029455Y-195093328D01*
X186029455Y-195093328D02*
X186743741Y-195093328D01*
X187386598Y-196450471D02*
X187458027Y-196521900D01*
X187458027Y-196521900D02*
X187386598Y-196593328D01*
X187386598Y-196593328D02*
X187315170Y-196521900D01*
X187315170Y-196521900D02*
X187386598Y-196450471D01*
X187386598Y-196450471D02*
X187386598Y-196593328D01*
X188100884Y-196593328D02*
X188100884Y-195093328D01*
X188100884Y-195093328D02*
X188458027Y-195093328D01*
X188458027Y-195093328D02*
X188672313Y-195164757D01*
X188672313Y-195164757D02*
X188815170Y-195307614D01*
X188815170Y-195307614D02*
X188886599Y-195450471D01*
X188886599Y-195450471D02*
X188958027Y-195736185D01*
X188958027Y-195736185D02*
X188958027Y-195950471D01*
X188958027Y-195950471D02*
X188886599Y-196236185D01*
X188886599Y-196236185D02*
X188815170Y-196379042D01*
X188815170Y-196379042D02*
X188672313Y-196521900D01*
X188672313Y-196521900D02*
X188458027Y-196593328D01*
X188458027Y-196593328D02*
X188100884Y-196593328D01*
X189600884Y-196450471D02*
X189672313Y-196521900D01*
X189672313Y-196521900D02*
X189600884Y-196593328D01*
X189600884Y-196593328D02*
X189529456Y-196521900D01*
X189529456Y-196521900D02*
X189600884Y-196450471D01*
X189600884Y-196450471D02*
X189600884Y-196593328D01*
X190243742Y-196164757D02*
X190958028Y-196164757D01*
X190100885Y-196593328D02*
X190600885Y-195093328D01*
X190600885Y-195093328D02*
X191100885Y-196593328D01*
X191600884Y-196450471D02*
X191672313Y-196521900D01*
X191672313Y-196521900D02*
X191600884Y-196593328D01*
X191600884Y-196593328D02*
X191529456Y-196521900D01*
X191529456Y-196521900D02*
X191600884Y-196450471D01*
X191600884Y-196450471D02*
X191600884Y-196593328D01*
X194600884Y-196593328D02*
X194600884Y-195093328D01*
X194743742Y-196021900D02*
X195172313Y-196593328D01*
X195172313Y-195593328D02*
X194600884Y-196164757D01*
X195815170Y-196593328D02*
X195815170Y-195593328D01*
X195815170Y-195093328D02*
X195743742Y-195164757D01*
X195743742Y-195164757D02*
X195815170Y-195236185D01*
X195815170Y-195236185D02*
X195886599Y-195164757D01*
X195886599Y-195164757D02*
X195815170Y-195093328D01*
X195815170Y-195093328D02*
X195815170Y-195236185D01*
X197172314Y-196521900D02*
X197029456Y-196593328D01*
X197029456Y-196593328D02*
X196743742Y-196593328D01*
X196743742Y-196593328D02*
X196600885Y-196521900D01*
X196600885Y-196521900D02*
X196529456Y-196450471D01*
X196529456Y-196450471D02*
X196458028Y-196307614D01*
X196458028Y-196307614D02*
X196458028Y-195879042D01*
X196458028Y-195879042D02*
X196529456Y-195736185D01*
X196529456Y-195736185D02*
X196600885Y-195664757D01*
X196600885Y-195664757D02*
X196743742Y-195593328D01*
X196743742Y-195593328D02*
X197029456Y-195593328D01*
X197029456Y-195593328D02*
X197172314Y-195664757D01*
X198458028Y-196593328D02*
X198458028Y-195807614D01*
X198458028Y-195807614D02*
X198386599Y-195664757D01*
X198386599Y-195664757D02*
X198243742Y-195593328D01*
X198243742Y-195593328D02*
X197958028Y-195593328D01*
X197958028Y-195593328D02*
X197815170Y-195664757D01*
X198458028Y-196521900D02*
X198315170Y-196593328D01*
X198315170Y-196593328D02*
X197958028Y-196593328D01*
X197958028Y-196593328D02*
X197815170Y-196521900D01*
X197815170Y-196521900D02*
X197743742Y-196379042D01*
X197743742Y-196379042D02*
X197743742Y-196236185D01*
X197743742Y-196236185D02*
X197815170Y-196093328D01*
X197815170Y-196093328D02*
X197958028Y-196021900D01*
X197958028Y-196021900D02*
X198315170Y-196021900D01*
X198315170Y-196021900D02*
X198458028Y-195950471D01*
X199815171Y-196593328D02*
X199815171Y-195093328D01*
X199815171Y-196521900D02*
X199672313Y-196593328D01*
X199672313Y-196593328D02*
X199386599Y-196593328D01*
X199386599Y-196593328D02*
X199243742Y-196521900D01*
X199243742Y-196521900D02*
X199172313Y-196450471D01*
X199172313Y-196450471D02*
X199100885Y-196307614D01*
X199100885Y-196307614D02*
X199100885Y-195879042D01*
X199100885Y-195879042D02*
X199172313Y-195736185D01*
X199172313Y-195736185D02*
X199243742Y-195664757D01*
X199243742Y-195664757D02*
X199386599Y-195593328D01*
X199386599Y-195593328D02*
X199672313Y-195593328D01*
X199672313Y-195593328D02*
X199815171Y-195664757D01*
X201529456Y-195093328D02*
X202529456Y-195093328D01*
X202529456Y-195093328D02*
X201886599Y-196593328D01*
X203100884Y-196450471D02*
X203172313Y-196521900D01*
X203172313Y-196521900D02*
X203100884Y-196593328D01*
X203100884Y-196593328D02*
X203029456Y-196521900D01*
X203029456Y-196521900D02*
X203100884Y-196450471D01*
X203100884Y-196450471D02*
X203100884Y-196593328D01*
X204100885Y-195093328D02*
X204243742Y-195093328D01*
X204243742Y-195093328D02*
X204386599Y-195164757D01*
X204386599Y-195164757D02*
X204458028Y-195236185D01*
X204458028Y-195236185D02*
X204529456Y-195379042D01*
X204529456Y-195379042D02*
X204600885Y-195664757D01*
X204600885Y-195664757D02*
X204600885Y-196021900D01*
X204600885Y-196021900D02*
X204529456Y-196307614D01*
X204529456Y-196307614D02*
X204458028Y-196450471D01*
X204458028Y-196450471D02*
X204386599Y-196521900D01*
X204386599Y-196521900D02*
X204243742Y-196593328D01*
X204243742Y-196593328D02*
X204100885Y-196593328D01*
X204100885Y-196593328D02*
X203958028Y-196521900D01*
X203958028Y-196521900D02*
X203886599Y-196450471D01*
X203886599Y-196450471D02*
X203815170Y-196307614D01*
X203815170Y-196307614D02*
X203743742Y-196021900D01*
X203743742Y-196021900D02*
X203743742Y-195664757D01*
X203743742Y-195664757D02*
X203815170Y-195379042D01*
X203815170Y-195379042D02*
X203886599Y-195236185D01*
X203886599Y-195236185D02*
X203958028Y-195164757D01*
X203958028Y-195164757D02*
X204100885Y-195093328D01*
X205243741Y-196450471D02*
X205315170Y-196521900D01*
X205315170Y-196521900D02*
X205243741Y-196593328D01*
X205243741Y-196593328D02*
X205172313Y-196521900D01*
X205172313Y-196521900D02*
X205243741Y-196450471D01*
X205243741Y-196450471D02*
X205243741Y-196593328D01*
X205815170Y-195093328D02*
X206815170Y-195093328D01*
X206815170Y-195093328D02*
X206172313Y-196593328D01*
D10*
D11*
X177002200Y-191507200D02*
X285002200Y-191507200D01*
D10*
D12*
X264413853Y-193785528D02*
X263913853Y-193071242D01*
X263556710Y-193785528D02*
X263556710Y-192285528D01*
X263556710Y-192285528D02*
X264128139Y-192285528D01*
X264128139Y-192285528D02*
X264270996Y-192356957D01*
X264270996Y-192356957D02*
X264342425Y-192428385D01*
X264342425Y-192428385D02*
X264413853Y-192571242D01*
X264413853Y-192571242D02*
X264413853Y-192785528D01*
X264413853Y-192785528D02*
X264342425Y-192928385D01*
X264342425Y-192928385D02*
X264270996Y-192999814D01*
X264270996Y-192999814D02*
X264128139Y-193071242D01*
X264128139Y-193071242D02*
X263556710Y-193071242D01*
X265628139Y-193714100D02*
X265485282Y-193785528D01*
X265485282Y-193785528D02*
X265199568Y-193785528D01*
X265199568Y-193785528D02*
X265056710Y-193714100D01*
X265056710Y-193714100D02*
X264985282Y-193571242D01*
X264985282Y-193571242D02*
X264985282Y-192999814D01*
X264985282Y-192999814D02*
X265056710Y-192856957D01*
X265056710Y-192856957D02*
X265199568Y-192785528D01*
X265199568Y-192785528D02*
X265485282Y-192785528D01*
X265485282Y-192785528D02*
X265628139Y-192856957D01*
X265628139Y-192856957D02*
X265699568Y-192999814D01*
X265699568Y-192999814D02*
X265699568Y-193142671D01*
X265699568Y-193142671D02*
X264985282Y-193285528D01*
X266199567Y-192785528D02*
X266556710Y-193785528D01*
X266556710Y-193785528D02*
X266913853Y-192785528D01*
X267485281Y-193642671D02*
X267556710Y-193714100D01*
X267556710Y-193714100D02*
X267485281Y-193785528D01*
X267485281Y-193785528D02*
X267413853Y-193714100D01*
X267413853Y-193714100D02*
X267485281Y-193642671D01*
X267485281Y-193642671D02*
X267485281Y-193785528D01*
X267485281Y-192856957D02*
X267556710Y-192928385D01*
X267556710Y-192928385D02*
X267485281Y-192999814D01*
X267485281Y-192999814D02*
X267413853Y-192928385D01*
X267413853Y-192928385D02*
X267485281Y-192856957D01*
X267485281Y-192856957D02*
X267485281Y-192999814D01*
X269199567Y-192785528D02*
X269556710Y-193785528D01*
X269556710Y-193785528D02*
X269913853Y-192785528D01*
X270770996Y-192285528D02*
X270913853Y-192285528D01*
X270913853Y-192285528D02*
X271056710Y-192356957D01*
X271056710Y-192356957D02*
X271128139Y-192428385D01*
X271128139Y-192428385D02*
X271199567Y-192571242D01*
X271199567Y-192571242D02*
X271270996Y-192856957D01*
X271270996Y-192856957D02*
X271270996Y-193214100D01*
X271270996Y-193214100D02*
X271199567Y-193499814D01*
X271199567Y-193499814D02*
X271128139Y-193642671D01*
X271128139Y-193642671D02*
X271056710Y-193714100D01*
X271056710Y-193714100D02*
X270913853Y-193785528D01*
X270913853Y-193785528D02*
X270770996Y-193785528D01*
X270770996Y-193785528D02*
X270628139Y-193714100D01*
X270628139Y-193714100D02*
X270556710Y-193642671D01*
X270556710Y-193642671D02*
X270485281Y-193499814D01*
X270485281Y-193499814D02*
X270413853Y-193214100D01*
X270413853Y-193214100D02*
X270413853Y-192856957D01*
X270413853Y-192856957D02*
X270485281Y-192571242D01*
X270485281Y-192571242D02*
X270556710Y-192428385D01*
X270556710Y-192428385D02*
X270628139Y-192356957D01*
X270628139Y-192356957D02*
X270770996Y-192285528D01*
X271842424Y-192428385D02*
X271913852Y-192356957D01*
X271913852Y-192356957D02*
X272056710Y-192285528D01*
X272056710Y-192285528D02*
X272413852Y-192285528D01*
X272413852Y-192285528D02*
X272556710Y-192356957D01*
X272556710Y-192356957D02*
X272628138Y-192428385D01*
X272628138Y-192428385D02*
X272699567Y-192571242D01*
X272699567Y-192571242D02*
X272699567Y-192714100D01*
X272699567Y-192714100D02*
X272628138Y-192928385D01*
X272628138Y-192928385D02*
X271770995Y-193785528D01*
X271770995Y-193785528D02*
X272699567Y-193785528D01*
D10*
D11*
X178386598Y-193721900D02*
X178600884Y-193793328D01*
X178600884Y-193793328D02*
X178958026Y-193793328D01*
X178958026Y-193793328D02*
X179100884Y-193721900D01*
X179100884Y-193721900D02*
X179172312Y-193650471D01*
X179172312Y-193650471D02*
X179243741Y-193507614D01*
X179243741Y-193507614D02*
X179243741Y-193364757D01*
X179243741Y-193364757D02*
X179172312Y-193221900D01*
X179172312Y-193221900D02*
X179100884Y-193150471D01*
X179100884Y-193150471D02*
X178958026Y-193079042D01*
X178958026Y-193079042D02*
X178672312Y-193007614D01*
X178672312Y-193007614D02*
X178529455Y-192936185D01*
X178529455Y-192936185D02*
X178458026Y-192864757D01*
X178458026Y-192864757D02*
X178386598Y-192721900D01*
X178386598Y-192721900D02*
X178386598Y-192579042D01*
X178386598Y-192579042D02*
X178458026Y-192436185D01*
X178458026Y-192436185D02*
X178529455Y-192364757D01*
X178529455Y-192364757D02*
X178672312Y-192293328D01*
X178672312Y-192293328D02*
X179029455Y-192293328D01*
X179029455Y-192293328D02*
X179243741Y-192364757D01*
X179886597Y-193793328D02*
X179886597Y-192793328D01*
X179886597Y-192293328D02*
X179815169Y-192364757D01*
X179815169Y-192364757D02*
X179886597Y-192436185D01*
X179886597Y-192436185D02*
X179958026Y-192364757D01*
X179958026Y-192364757D02*
X179886597Y-192293328D01*
X179886597Y-192293328D02*
X179886597Y-192436185D01*
X180458026Y-192793328D02*
X181243741Y-192793328D01*
X181243741Y-192793328D02*
X180458026Y-193793328D01*
X180458026Y-193793328D02*
X181243741Y-193793328D01*
X182386598Y-193721900D02*
X182243741Y-193793328D01*
X182243741Y-193793328D02*
X181958027Y-193793328D01*
X181958027Y-193793328D02*
X181815169Y-193721900D01*
X181815169Y-193721900D02*
X181743741Y-193579042D01*
X181743741Y-193579042D02*
X181743741Y-193007614D01*
X181743741Y-193007614D02*
X181815169Y-192864757D01*
X181815169Y-192864757D02*
X181958027Y-192793328D01*
X181958027Y-192793328D02*
X182243741Y-192793328D01*
X182243741Y-192793328D02*
X182386598Y-192864757D01*
X182386598Y-192864757D02*
X182458027Y-193007614D01*
X182458027Y-193007614D02*
X182458027Y-193150471D01*
X182458027Y-193150471D02*
X181743741Y-193293328D01*
X183100883Y-193650471D02*
X183172312Y-193721900D01*
X183172312Y-193721900D02*
X183100883Y-193793328D01*
X183100883Y-193793328D02*
X183029455Y-193721900D01*
X183029455Y-193721900D02*
X183100883Y-193650471D01*
X183100883Y-193650471D02*
X183100883Y-193793328D01*
X183100883Y-192864757D02*
X183172312Y-192936185D01*
X183172312Y-192936185D02*
X183100883Y-193007614D01*
X183100883Y-193007614D02*
X183029455Y-192936185D01*
X183029455Y-192936185D02*
X183100883Y-192864757D01*
X183100883Y-192864757D02*
X183100883Y-193007614D01*
X184886598Y-193364757D02*
X185600884Y-193364757D01*
X184743741Y-193793328D02*
X185243741Y-192293328D01*
X185243741Y-192293328D02*
X185743741Y-193793328D01*
X186886598Y-192793328D02*
X186886598Y-193793328D01*
X186529455Y-192221900D02*
X186172312Y-193293328D01*
X186172312Y-193293328D02*
X187100883Y-193293328D01*
D10*
D11*
X263458026Y-196593328D02*
X263458026Y-195093328D01*
X264815170Y-196593328D02*
X264815170Y-195093328D01*
X264815170Y-196521900D02*
X264672312Y-196593328D01*
X264672312Y-196593328D02*
X264386598Y-196593328D01*
X264386598Y-196593328D02*
X264243741Y-196521900D01*
X264243741Y-196521900D02*
X264172312Y-196450471D01*
X264172312Y-196450471D02*
X264100884Y-196307614D01*
X264100884Y-196307614D02*
X264100884Y-195879042D01*
X264100884Y-195879042D02*
X264172312Y-195736185D01*
X264172312Y-195736185D02*
X264243741Y-195664757D01*
X264243741Y-195664757D02*
X264386598Y-195593328D01*
X264386598Y-195593328D02*
X264672312Y-195593328D01*
X264672312Y-195593328D02*
X264815170Y-195664757D01*
X265529455Y-196450471D02*
X265600884Y-196521900D01*
X265600884Y-196521900D02*
X265529455Y-196593328D01*
X265529455Y-196593328D02*
X265458027Y-196521900D01*
X265458027Y-196521900D02*
X265529455Y-196450471D01*
X265529455Y-196450471D02*
X265529455Y-196593328D01*
X265529455Y-195664757D02*
X265600884Y-195736185D01*
X265600884Y-195736185D02*
X265529455Y-195807614D01*
X265529455Y-195807614D02*
X265458027Y-195736185D01*
X265458027Y-195736185D02*
X265529455Y-195664757D01*
X265529455Y-195664757D02*
X265529455Y-195807614D01*
X268172313Y-196593328D02*
X267315170Y-196593328D01*
X267743741Y-196593328D02*
X267743741Y-195093328D01*
X267743741Y-195093328D02*
X267600884Y-195307614D01*
X267600884Y-195307614D02*
X267458027Y-195450471D01*
X267458027Y-195450471D02*
X267315170Y-195521900D01*
X269886598Y-195021900D02*
X268600884Y-196950471D01*
X271172313Y-196593328D02*
X270315170Y-196593328D01*
X270743741Y-196593328D02*
X270743741Y-195093328D01*
X270743741Y-195093328D02*
X270600884Y-195307614D01*
X270600884Y-195307614D02*
X270458027Y-195450471D01*
X270458027Y-195450471D02*
X270315170Y-195521900D01*
D10*
D11*
X177002200Y-187507200D02*
X285002200Y-187507200D01*
D10*
D13*
X178693928Y-188211638D02*
X179836785Y-188211638D01*
X179015357Y-190211638D02*
X179265357Y-188211638D01*
X180253452Y-190211638D02*
X180420119Y-188878304D01*
X180503452Y-188211638D02*
X180396309Y-188306876D01*
X180396309Y-188306876D02*
X180479643Y-188402114D01*
X180479643Y-188402114D02*
X180586786Y-188306876D01*
X180586786Y-188306876D02*
X180503452Y-188211638D01*
X180503452Y-188211638D02*
X180479643Y-188402114D01*
X181086786Y-188878304D02*
X181848690Y-188878304D01*
X181455833Y-188211638D02*
X181241548Y-189925923D01*
X181241548Y-189925923D02*
X181312976Y-190116400D01*
X181312976Y-190116400D02*
X181491548Y-190211638D01*
X181491548Y-190211638D02*
X181682024Y-190211638D01*
X182634405Y-190211638D02*
X182455833Y-190116400D01*
X182455833Y-190116400D02*
X182384405Y-189925923D01*
X182384405Y-189925923D02*
X182598690Y-188211638D01*
X184170119Y-190116400D02*
X183967738Y-190211638D01*
X183967738Y-190211638D02*
X183586785Y-190211638D01*
X183586785Y-190211638D02*
X183408214Y-190116400D01*
X183408214Y-190116400D02*
X183336785Y-189925923D01*
X183336785Y-189925923D02*
X183432024Y-189164019D01*
X183432024Y-189164019D02*
X183551071Y-188973542D01*
X183551071Y-188973542D02*
X183753452Y-188878304D01*
X183753452Y-188878304D02*
X184134404Y-188878304D01*
X184134404Y-188878304D02*
X184312976Y-188973542D01*
X184312976Y-188973542D02*
X184384404Y-189164019D01*
X184384404Y-189164019D02*
X184360595Y-189354495D01*
X184360595Y-189354495D02*
X183384404Y-189544971D01*
X185134405Y-190021161D02*
X185217738Y-190116400D01*
X185217738Y-190116400D02*
X185110595Y-190211638D01*
X185110595Y-190211638D02*
X185027262Y-190116400D01*
X185027262Y-190116400D02*
X185134405Y-190021161D01*
X185134405Y-190021161D02*
X185110595Y-190211638D01*
X185265357Y-188973542D02*
X185348690Y-189068780D01*
X185348690Y-189068780D02*
X185241548Y-189164019D01*
X185241548Y-189164019D02*
X185158214Y-189068780D01*
X185158214Y-189068780D02*
X185265357Y-188973542D01*
X185265357Y-188973542D02*
X185241548Y-189164019D01*
X188729643Y-190211638D02*
X188182024Y-189259257D01*
X187586786Y-190211638D02*
X187836786Y-188211638D01*
X187836786Y-188211638D02*
X188598691Y-188211638D01*
X188598691Y-188211638D02*
X188777262Y-188306876D01*
X188777262Y-188306876D02*
X188860596Y-188402114D01*
X188860596Y-188402114D02*
X188932024Y-188592590D01*
X188932024Y-188592590D02*
X188896310Y-188878304D01*
X188896310Y-188878304D02*
X188777262Y-189068780D01*
X188777262Y-189068780D02*
X188670120Y-189164019D01*
X188670120Y-189164019D02*
X188467739Y-189259257D01*
X188467739Y-189259257D02*
X187705834Y-189259257D01*
X190872501Y-188306876D02*
X190693929Y-188211638D01*
X190693929Y-188211638D02*
X190408215Y-188211638D01*
X190408215Y-188211638D02*
X190110596Y-188306876D01*
X190110596Y-188306876D02*
X189896310Y-188497352D01*
X189896310Y-188497352D02*
X189777262Y-188687828D01*
X189777262Y-188687828D02*
X189634405Y-189068780D01*
X189634405Y-189068780D02*
X189598691Y-189354495D01*
X189598691Y-189354495D02*
X189646310Y-189735447D01*
X189646310Y-189735447D02*
X189717739Y-189925923D01*
X189717739Y-189925923D02*
X189884405Y-190116400D01*
X189884405Y-190116400D02*
X190158215Y-190211638D01*
X190158215Y-190211638D02*
X190348691Y-190211638D01*
X190348691Y-190211638D02*
X190646310Y-190116400D01*
X190646310Y-190116400D02*
X190753453Y-190021161D01*
X190753453Y-190021161D02*
X190836786Y-189354495D01*
X190836786Y-189354495D02*
X190455834Y-189354495D01*
X192384405Y-189164019D02*
X192658215Y-189259257D01*
X192658215Y-189259257D02*
X192741548Y-189354495D01*
X192741548Y-189354495D02*
X192812977Y-189544971D01*
X192812977Y-189544971D02*
X192777262Y-189830685D01*
X192777262Y-189830685D02*
X192658215Y-190021161D01*
X192658215Y-190021161D02*
X192551072Y-190116400D01*
X192551072Y-190116400D02*
X192348691Y-190211638D01*
X192348691Y-190211638D02*
X191586786Y-190211638D01*
X191586786Y-190211638D02*
X191836786Y-188211638D01*
X191836786Y-188211638D02*
X192503453Y-188211638D01*
X192503453Y-188211638D02*
X192682024Y-188306876D01*
X192682024Y-188306876D02*
X192765358Y-188402114D01*
X192765358Y-188402114D02*
X192836786Y-188592590D01*
X192836786Y-188592590D02*
X192812977Y-188783066D01*
X192812977Y-188783066D02*
X192693929Y-188973542D01*
X192693929Y-188973542D02*
X192586786Y-189068780D01*
X192586786Y-189068780D02*
X192384405Y-189164019D01*
X192384405Y-189164019D02*
X191717739Y-189164019D01*
X196062977Y-190211638D02*
X195110596Y-190211638D01*
X195110596Y-190211638D02*
X195360596Y-188211638D01*
X196860597Y-189164019D02*
X197527263Y-189164019D01*
X197682025Y-190211638D02*
X196729644Y-190211638D01*
X196729644Y-190211638D02*
X196979644Y-188211638D01*
X196979644Y-188211638D02*
X197932025Y-188211638D01*
X198539168Y-190211638D02*
X198789168Y-188211638D01*
X198789168Y-188211638D02*
X199265359Y-188211638D01*
X199265359Y-188211638D02*
X199539168Y-188306876D01*
X199539168Y-188306876D02*
X199705835Y-188497352D01*
X199705835Y-188497352D02*
X199777263Y-188687828D01*
X199777263Y-188687828D02*
X199824883Y-189068780D01*
X199824883Y-189068780D02*
X199789168Y-189354495D01*
X199789168Y-189354495D02*
X199646311Y-189735447D01*
X199646311Y-189735447D02*
X199527263Y-189925923D01*
X199527263Y-189925923D02*
X199312978Y-190116400D01*
X199312978Y-190116400D02*
X199015359Y-190211638D01*
X199015359Y-190211638D02*
X198539168Y-190211638D01*
X201979645Y-190116400D02*
X202253454Y-190211638D01*
X202253454Y-190211638D02*
X202729645Y-190211638D01*
X202729645Y-190211638D02*
X202932026Y-190116400D01*
X202932026Y-190116400D02*
X203039169Y-190021161D01*
X203039169Y-190021161D02*
X203158216Y-189830685D01*
X203158216Y-189830685D02*
X203182026Y-189640209D01*
X203182026Y-189640209D02*
X203110597Y-189449733D01*
X203110597Y-189449733D02*
X203027264Y-189354495D01*
X203027264Y-189354495D02*
X202848693Y-189259257D01*
X202848693Y-189259257D02*
X202479645Y-189164019D01*
X202479645Y-189164019D02*
X202301073Y-189068780D01*
X202301073Y-189068780D02*
X202217740Y-188973542D01*
X202217740Y-188973542D02*
X202146312Y-188783066D01*
X202146312Y-188783066D02*
X202170121Y-188592590D01*
X202170121Y-188592590D02*
X202289169Y-188402114D01*
X202289169Y-188402114D02*
X202396312Y-188306876D01*
X202396312Y-188306876D02*
X202598693Y-188211638D01*
X202598693Y-188211638D02*
X203074883Y-188211638D01*
X203074883Y-188211638D02*
X203348693Y-188306876D01*
X203932026Y-188211638D02*
X205074883Y-188211638D01*
X204253455Y-190211638D02*
X204503455Y-188211638D01*
X206634407Y-190211638D02*
X206086788Y-189259257D01*
X205491550Y-190211638D02*
X205741550Y-188211638D01*
X205741550Y-188211638D02*
X206503455Y-188211638D01*
X206503455Y-188211638D02*
X206682026Y-188306876D01*
X206682026Y-188306876D02*
X206765360Y-188402114D01*
X206765360Y-188402114D02*
X206836788Y-188592590D01*
X206836788Y-188592590D02*
X206801074Y-188878304D01*
X206801074Y-188878304D02*
X206682026Y-189068780D01*
X206682026Y-189068780D02*
X206574884Y-189164019D01*
X206574884Y-189164019D02*
X206372503Y-189259257D01*
X206372503Y-189259257D02*
X205610598Y-189259257D01*
X207491550Y-190211638D02*
X207741550Y-188211638D01*
X208443931Y-190211638D02*
X208693931Y-188211638D01*
X208693931Y-188211638D02*
X209455836Y-188211638D01*
X209455836Y-188211638D02*
X209634407Y-188306876D01*
X209634407Y-188306876D02*
X209717741Y-188402114D01*
X209717741Y-188402114D02*
X209789169Y-188592590D01*
X209789169Y-188592590D02*
X209753455Y-188878304D01*
X209753455Y-188878304D02*
X209634407Y-189068780D01*
X209634407Y-189068780D02*
X209527265Y-189164019D01*
X209527265Y-189164019D02*
X209324884Y-189259257D01*
X209324884Y-189259257D02*
X208562979Y-189259257D01*
X211967741Y-190211638D02*
X212217741Y-188211638D01*
X212217741Y-188211638D02*
X212693932Y-188211638D01*
X212693932Y-188211638D02*
X212967741Y-188306876D01*
X212967741Y-188306876D02*
X213134408Y-188497352D01*
X213134408Y-188497352D02*
X213205836Y-188687828D01*
X213205836Y-188687828D02*
X213253456Y-189068780D01*
X213253456Y-189068780D02*
X213217741Y-189354495D01*
X213217741Y-189354495D02*
X213074884Y-189735447D01*
X213074884Y-189735447D02*
X212955836Y-189925923D01*
X212955836Y-189925923D02*
X212741551Y-190116400D01*
X212741551Y-190116400D02*
X212443932Y-190211638D01*
X212443932Y-190211638D02*
X211967741Y-190211638D01*
X215110598Y-190211638D02*
X214562979Y-189259257D01*
X213967741Y-190211638D02*
X214217741Y-188211638D01*
X214217741Y-188211638D02*
X214979646Y-188211638D01*
X214979646Y-188211638D02*
X215158217Y-188306876D01*
X215158217Y-188306876D02*
X215241551Y-188402114D01*
X215241551Y-188402114D02*
X215312979Y-188592590D01*
X215312979Y-188592590D02*
X215277265Y-188878304D01*
X215277265Y-188878304D02*
X215158217Y-189068780D01*
X215158217Y-189068780D02*
X215051075Y-189164019D01*
X215051075Y-189164019D02*
X214848694Y-189259257D01*
X214848694Y-189259257D02*
X214086789Y-189259257D01*
X215967741Y-190211638D02*
X216217741Y-188211638D01*
X216884408Y-188211638D02*
X217301075Y-190211638D01*
X217301075Y-190211638D02*
X218217741Y-188211638D01*
X218765361Y-189164019D02*
X219432027Y-189164019D01*
X219586789Y-190211638D02*
X218634408Y-190211638D01*
X218634408Y-190211638D02*
X218884408Y-188211638D01*
X218884408Y-188211638D02*
X219836789Y-188211638D01*
X221586789Y-190211638D02*
X221039170Y-189259257D01*
X220443932Y-190211638D02*
X220693932Y-188211638D01*
X220693932Y-188211638D02*
X221455837Y-188211638D01*
X221455837Y-188211638D02*
X221634408Y-188306876D01*
X221634408Y-188306876D02*
X221717742Y-188402114D01*
X221717742Y-188402114D02*
X221789170Y-188592590D01*
X221789170Y-188592590D02*
X221753456Y-188878304D01*
X221753456Y-188878304D02*
X221634408Y-189068780D01*
X221634408Y-189068780D02*
X221527266Y-189164019D01*
X221527266Y-189164019D02*
X221324885Y-189259257D01*
X221324885Y-189259257D02*
X220562980Y-189259257D01*
D10*
D11*
X178958026Y-185607614D02*
X178458026Y-185607614D01*
X178458026Y-186393328D02*
X178458026Y-184893328D01*
X178458026Y-184893328D02*
X179172312Y-184893328D01*
X179743740Y-186393328D02*
X179743740Y-185393328D01*
X179743740Y-184893328D02*
X179672312Y-184964757D01*
X179672312Y-184964757D02*
X179743740Y-185036185D01*
X179743740Y-185036185D02*
X179815169Y-184964757D01*
X179815169Y-184964757D02*
X179743740Y-184893328D01*
X179743740Y-184893328D02*
X179743740Y-185036185D01*
X180672312Y-186393328D02*
X180529455Y-186321900D01*
X180529455Y-186321900D02*
X180458026Y-186179042D01*
X180458026Y-186179042D02*
X180458026Y-184893328D01*
X181815169Y-186321900D02*
X181672312Y-186393328D01*
X181672312Y-186393328D02*
X181386598Y-186393328D01*
X181386598Y-186393328D02*
X181243740Y-186321900D01*
X181243740Y-186321900D02*
X181172312Y-186179042D01*
X181172312Y-186179042D02*
X181172312Y-185607614D01*
X181172312Y-185607614D02*
X181243740Y-185464757D01*
X181243740Y-185464757D02*
X181386598Y-185393328D01*
X181386598Y-185393328D02*
X181672312Y-185393328D01*
X181672312Y-185393328D02*
X181815169Y-185464757D01*
X181815169Y-185464757D02*
X181886598Y-185607614D01*
X181886598Y-185607614D02*
X181886598Y-185750471D01*
X181886598Y-185750471D02*
X181172312Y-185893328D01*
X182529454Y-186250471D02*
X182600883Y-186321900D01*
X182600883Y-186321900D02*
X182529454Y-186393328D01*
X182529454Y-186393328D02*
X182458026Y-186321900D01*
X182458026Y-186321900D02*
X182529454Y-186250471D01*
X182529454Y-186250471D02*
X182529454Y-186393328D01*
X182529454Y-185464757D02*
X182600883Y-185536185D01*
X182600883Y-185536185D02*
X182529454Y-185607614D01*
X182529454Y-185607614D02*
X182458026Y-185536185D01*
X182458026Y-185536185D02*
X182529454Y-185464757D01*
X182529454Y-185464757D02*
X182529454Y-185607614D01*
X184386597Y-186393328D02*
X184386597Y-184893328D01*
X184386597Y-184893328D02*
X184743740Y-184893328D01*
X184743740Y-184893328D02*
X184958026Y-184964757D01*
X184958026Y-184964757D02*
X185100883Y-185107614D01*
X185100883Y-185107614D02*
X185172312Y-185250471D01*
X185172312Y-185250471D02*
X185243740Y-185536185D01*
X185243740Y-185536185D02*
X185243740Y-185750471D01*
X185243740Y-185750471D02*
X185172312Y-186036185D01*
X185172312Y-186036185D02*
X185100883Y-186179042D01*
X185100883Y-186179042D02*
X184958026Y-186321900D01*
X184958026Y-186321900D02*
X184743740Y-186393328D01*
X184743740Y-186393328D02*
X184386597Y-186393328D01*
X185886597Y-186393328D02*
X185886597Y-185393328D01*
X185886597Y-185679042D02*
X185958026Y-185536185D01*
X185958026Y-185536185D02*
X186029455Y-185464757D01*
X186029455Y-185464757D02*
X186172312Y-185393328D01*
X186172312Y-185393328D02*
X186315169Y-185393328D01*
X186815168Y-186393328D02*
X186815168Y-185393328D01*
X186815168Y-184893328D02*
X186743740Y-184964757D01*
X186743740Y-184964757D02*
X186815168Y-185036185D01*
X186815168Y-185036185D02*
X186886597Y-184964757D01*
X186886597Y-184964757D02*
X186815168Y-184893328D01*
X186815168Y-184893328D02*
X186815168Y-185036185D01*
X187386597Y-185393328D02*
X187743740Y-186393328D01*
X187743740Y-186393328D02*
X188100883Y-185393328D01*
X189243740Y-186321900D02*
X189100883Y-186393328D01*
X189100883Y-186393328D02*
X188815169Y-186393328D01*
X188815169Y-186393328D02*
X188672311Y-186321900D01*
X188672311Y-186321900D02*
X188600883Y-186179042D01*
X188600883Y-186179042D02*
X188600883Y-185607614D01*
X188600883Y-185607614D02*
X188672311Y-185464757D01*
X188672311Y-185464757D02*
X188815169Y-185393328D01*
X188815169Y-185393328D02*
X189100883Y-185393328D01*
X189100883Y-185393328D02*
X189243740Y-185464757D01*
X189243740Y-185464757D02*
X189315169Y-185607614D01*
X189315169Y-185607614D02*
X189315169Y-185750471D01*
X189315169Y-185750471D02*
X188600883Y-185893328D01*
X189958025Y-186393328D02*
X189958025Y-185393328D01*
X189958025Y-185679042D02*
X190029454Y-185536185D01*
X190029454Y-185536185D02*
X190100883Y-185464757D01*
X190100883Y-185464757D02*
X190243740Y-185393328D01*
X190243740Y-185393328D02*
X190386597Y-185393328D01*
X191743739Y-186393328D02*
X191243739Y-185679042D01*
X190886596Y-186393328D02*
X190886596Y-184893328D01*
X190886596Y-184893328D02*
X191458025Y-184893328D01*
X191458025Y-184893328D02*
X191600882Y-184964757D01*
X191600882Y-184964757D02*
X191672311Y-185036185D01*
X191672311Y-185036185D02*
X191743739Y-185179042D01*
X191743739Y-185179042D02*
X191743739Y-185393328D01*
X191743739Y-185393328D02*
X191672311Y-185536185D01*
X191672311Y-185536185D02*
X191600882Y-185607614D01*
X191600882Y-185607614D02*
X191458025Y-185679042D01*
X191458025Y-185679042D02*
X190886596Y-185679042D01*
X193172311Y-184964757D02*
X193029454Y-184893328D01*
X193029454Y-184893328D02*
X192815168Y-184893328D01*
X192815168Y-184893328D02*
X192600882Y-184964757D01*
X192600882Y-184964757D02*
X192458025Y-185107614D01*
X192458025Y-185107614D02*
X192386596Y-185250471D01*
X192386596Y-185250471D02*
X192315168Y-185536185D01*
X192315168Y-185536185D02*
X192315168Y-185750471D01*
X192315168Y-185750471D02*
X192386596Y-186036185D01*
X192386596Y-186036185D02*
X192458025Y-186179042D01*
X192458025Y-186179042D02*
X192600882Y-186321900D01*
X192600882Y-186321900D02*
X192815168Y-186393328D01*
X192815168Y-186393328D02*
X192958025Y-186393328D01*
X192958025Y-186393328D02*
X193172311Y-186321900D01*
X193172311Y-186321900D02*
X193243739Y-186250471D01*
X193243739Y-186250471D02*
X193243739Y-185750471D01*
X193243739Y-185750471D02*
X192958025Y-185750471D01*
X194386596Y-185607614D02*
X194600882Y-185679042D01*
X194600882Y-185679042D02*
X194672311Y-185750471D01*
X194672311Y-185750471D02*
X194743739Y-185893328D01*
X194743739Y-185893328D02*
X194743739Y-186107614D01*
X194743739Y-186107614D02*
X194672311Y-186250471D01*
X194672311Y-186250471D02*
X194600882Y-186321900D01*
X194600882Y-186321900D02*
X194458025Y-186393328D01*
X194458025Y-186393328D02*
X193886596Y-186393328D01*
X193886596Y-186393328D02*
X193886596Y-184893328D01*
X193886596Y-184893328D02*
X194386596Y-184893328D01*
X194386596Y-184893328D02*
X194529454Y-184964757D01*
X194529454Y-184964757D02*
X194600882Y-185036185D01*
X194600882Y-185036185D02*
X194672311Y-185179042D01*
X194672311Y-185179042D02*
X194672311Y-185321900D01*
X194672311Y-185321900D02*
X194600882Y-185464757D01*
X194600882Y-185464757D02*
X194529454Y-185536185D01*
X194529454Y-185536185D02*
X194386596Y-185607614D01*
X194386596Y-185607614D02*
X193886596Y-185607614D01*
X195029454Y-186536185D02*
X196172311Y-186536185D01*
X196386596Y-185393328D02*
X196743739Y-186393328D01*
X196743739Y-186393328D02*
X197100882Y-185393328D01*
X197600882Y-185036185D02*
X197672310Y-184964757D01*
X197672310Y-184964757D02*
X197815168Y-184893328D01*
X197815168Y-184893328D02*
X198172310Y-184893328D01*
X198172310Y-184893328D02*
X198315168Y-184964757D01*
X198315168Y-184964757D02*
X198386596Y-185036185D01*
X198386596Y-185036185D02*
X198458025Y-185179042D01*
X198458025Y-185179042D02*
X198458025Y-185321900D01*
X198458025Y-185321900D02*
X198386596Y-185536185D01*
X198386596Y-185536185D02*
X197529453Y-186393328D01*
X197529453Y-186393328D02*
X198458025Y-186393328D01*
X199100881Y-186250471D02*
X199172310Y-186321900D01*
X199172310Y-186321900D02*
X199100881Y-186393328D01*
X199100881Y-186393328D02*
X199029453Y-186321900D01*
X199029453Y-186321900D02*
X199100881Y-186250471D01*
X199100881Y-186250471D02*
X199100881Y-186393328D01*
X199815167Y-186393328D02*
X199815167Y-184893328D01*
X199958025Y-185821900D02*
X200386596Y-186393328D01*
X200386596Y-185393328D02*
X199815167Y-185964757D01*
X201029453Y-186393328D02*
X201029453Y-185393328D01*
X201029453Y-184893328D02*
X200958025Y-184964757D01*
X200958025Y-184964757D02*
X201029453Y-185036185D01*
X201029453Y-185036185D02*
X201100882Y-184964757D01*
X201100882Y-184964757D02*
X201029453Y-184893328D01*
X201029453Y-184893328D02*
X201029453Y-185036185D01*
X202386597Y-186321900D02*
X202243739Y-186393328D01*
X202243739Y-186393328D02*
X201958025Y-186393328D01*
X201958025Y-186393328D02*
X201815168Y-186321900D01*
X201815168Y-186321900D02*
X201743739Y-186250471D01*
X201743739Y-186250471D02*
X201672311Y-186107614D01*
X201672311Y-186107614D02*
X201672311Y-185679042D01*
X201672311Y-185679042D02*
X201743739Y-185536185D01*
X201743739Y-185536185D02*
X201815168Y-185464757D01*
X201815168Y-185464757D02*
X201958025Y-185393328D01*
X201958025Y-185393328D02*
X202243739Y-185393328D01*
X202243739Y-185393328D02*
X202386597Y-185464757D01*
X203672311Y-186393328D02*
X203672311Y-185607614D01*
X203672311Y-185607614D02*
X203600882Y-185464757D01*
X203600882Y-185464757D02*
X203458025Y-185393328D01*
X203458025Y-185393328D02*
X203172311Y-185393328D01*
X203172311Y-185393328D02*
X203029453Y-185464757D01*
X203672311Y-186321900D02*
X203529453Y-186393328D01*
X203529453Y-186393328D02*
X203172311Y-186393328D01*
X203172311Y-186393328D02*
X203029453Y-186321900D01*
X203029453Y-186321900D02*
X202958025Y-186179042D01*
X202958025Y-186179042D02*
X202958025Y-186036185D01*
X202958025Y-186036185D02*
X203029453Y-185893328D01*
X203029453Y-185893328D02*
X203172311Y-185821900D01*
X203172311Y-185821900D02*
X203529453Y-185821900D01*
X203529453Y-185821900D02*
X203672311Y-185750471D01*
X205029454Y-186393328D02*
X205029454Y-184893328D01*
X205029454Y-186321900D02*
X204886596Y-186393328D01*
X204886596Y-186393328D02*
X204600882Y-186393328D01*
X204600882Y-186393328D02*
X204458025Y-186321900D01*
X204458025Y-186321900D02*
X204386596Y-186250471D01*
X204386596Y-186250471D02*
X204315168Y-186107614D01*
X204315168Y-186107614D02*
X204315168Y-185679042D01*
X204315168Y-185679042D02*
X204386596Y-185536185D01*
X204386596Y-185536185D02*
X204458025Y-185464757D01*
X204458025Y-185464757D02*
X204600882Y-185393328D01*
X204600882Y-185393328D02*
X204886596Y-185393328D01*
X204886596Y-185393328D02*
X205029454Y-185464757D01*
X205386597Y-186536185D02*
X206529454Y-186536185D01*
X206886596Y-185393328D02*
X206886596Y-186893328D01*
X206886596Y-185464757D02*
X207029454Y-185393328D01*
X207029454Y-185393328D02*
X207315168Y-185393328D01*
X207315168Y-185393328D02*
X207458025Y-185464757D01*
X207458025Y-185464757D02*
X207529454Y-185536185D01*
X207529454Y-185536185D02*
X207600882Y-185679042D01*
X207600882Y-185679042D02*
X207600882Y-186107614D01*
X207600882Y-186107614D02*
X207529454Y-186250471D01*
X207529454Y-186250471D02*
X207458025Y-186321900D01*
X207458025Y-186321900D02*
X207315168Y-186393328D01*
X207315168Y-186393328D02*
X207029454Y-186393328D01*
X207029454Y-186393328D02*
X206886596Y-186321900D01*
X208886597Y-186321900D02*
X208743739Y-186393328D01*
X208743739Y-186393328D02*
X208458025Y-186393328D01*
X208458025Y-186393328D02*
X208315168Y-186321900D01*
X208315168Y-186321900D02*
X208243739Y-186250471D01*
X208243739Y-186250471D02*
X208172311Y-186107614D01*
X208172311Y-186107614D02*
X208172311Y-185679042D01*
X208172311Y-185679042D02*
X208243739Y-185536185D01*
X208243739Y-185536185D02*
X208315168Y-185464757D01*
X208315168Y-185464757D02*
X208458025Y-185393328D01*
X208458025Y-185393328D02*
X208743739Y-185393328D01*
X208743739Y-185393328D02*
X208886597Y-185464757D01*
X209529453Y-186393328D02*
X209529453Y-184893328D01*
X209529453Y-185464757D02*
X209672311Y-185393328D01*
X209672311Y-185393328D02*
X209958025Y-185393328D01*
X209958025Y-185393328D02*
X210100882Y-185464757D01*
X210100882Y-185464757D02*
X210172311Y-185536185D01*
X210172311Y-185536185D02*
X210243739Y-185679042D01*
X210243739Y-185679042D02*
X210243739Y-186107614D01*
X210243739Y-186107614D02*
X210172311Y-186250471D01*
X210172311Y-186250471D02*
X210100882Y-186321900D01*
X210100882Y-186321900D02*
X209958025Y-186393328D01*
X209958025Y-186393328D02*
X209672311Y-186393328D01*
X209672311Y-186393328D02*
X209529453Y-186321900D01*
D10*
D11*
X177002200Y-181507200D02*
X285002200Y-181507200D01*
D10*
D11*
X178386598Y-183621900D02*
X178600884Y-183693328D01*
X178600884Y-183693328D02*
X178958026Y-183693328D01*
X178958026Y-183693328D02*
X179100884Y-183621900D01*
X179100884Y-183621900D02*
X179172312Y-183550471D01*
X179172312Y-183550471D02*
X179243741Y-183407614D01*
X179243741Y-183407614D02*
X179243741Y-183264757D01*
X179243741Y-183264757D02*
X179172312Y-183121900D01*
X179172312Y-183121900D02*
X179100884Y-183050471D01*
X179100884Y-183050471D02*
X178958026Y-182979042D01*
X178958026Y-182979042D02*
X178672312Y-182907614D01*
X178672312Y-182907614D02*
X178529455Y-182836185D01*
X178529455Y-182836185D02*
X178458026Y-182764757D01*
X178458026Y-182764757D02*
X178386598Y-182621900D01*
X178386598Y-182621900D02*
X178386598Y-182479042D01*
X178386598Y-182479042D02*
X178458026Y-182336185D01*
X178458026Y-182336185D02*
X178529455Y-182264757D01*
X178529455Y-182264757D02*
X178672312Y-182193328D01*
X178672312Y-182193328D02*
X179029455Y-182193328D01*
X179029455Y-182193328D02*
X179243741Y-182264757D01*
X179886597Y-183693328D02*
X179886597Y-182193328D01*
X180529455Y-183693328D02*
X180529455Y-182907614D01*
X180529455Y-182907614D02*
X180458026Y-182764757D01*
X180458026Y-182764757D02*
X180315169Y-182693328D01*
X180315169Y-182693328D02*
X180100883Y-182693328D01*
X180100883Y-182693328D02*
X179958026Y-182764757D01*
X179958026Y-182764757D02*
X179886597Y-182836185D01*
X181815169Y-183621900D02*
X181672312Y-183693328D01*
X181672312Y-183693328D02*
X181386598Y-183693328D01*
X181386598Y-183693328D02*
X181243740Y-183621900D01*
X181243740Y-183621900D02*
X181172312Y-183479042D01*
X181172312Y-183479042D02*
X181172312Y-182907614D01*
X181172312Y-182907614D02*
X181243740Y-182764757D01*
X181243740Y-182764757D02*
X181386598Y-182693328D01*
X181386598Y-182693328D02*
X181672312Y-182693328D01*
X181672312Y-182693328D02*
X181815169Y-182764757D01*
X181815169Y-182764757D02*
X181886598Y-182907614D01*
X181886598Y-182907614D02*
X181886598Y-183050471D01*
X181886598Y-183050471D02*
X181172312Y-183193328D01*
X183100883Y-183621900D02*
X182958026Y-183693328D01*
X182958026Y-183693328D02*
X182672312Y-183693328D01*
X182672312Y-183693328D02*
X182529454Y-183621900D01*
X182529454Y-183621900D02*
X182458026Y-183479042D01*
X182458026Y-183479042D02*
X182458026Y-182907614D01*
X182458026Y-182907614D02*
X182529454Y-182764757D01*
X182529454Y-182764757D02*
X182672312Y-182693328D01*
X182672312Y-182693328D02*
X182958026Y-182693328D01*
X182958026Y-182693328D02*
X183100883Y-182764757D01*
X183100883Y-182764757D02*
X183172312Y-182907614D01*
X183172312Y-182907614D02*
X183172312Y-183050471D01*
X183172312Y-183050471D02*
X182458026Y-183193328D01*
X183600883Y-182693328D02*
X184172311Y-182693328D01*
X183815168Y-182193328D02*
X183815168Y-183479042D01*
X183815168Y-183479042D02*
X183886597Y-183621900D01*
X183886597Y-183621900D02*
X184029454Y-183693328D01*
X184029454Y-183693328D02*
X184172311Y-183693328D01*
X184672311Y-183550471D02*
X184743740Y-183621900D01*
X184743740Y-183621900D02*
X184672311Y-183693328D01*
X184672311Y-183693328D02*
X184600883Y-183621900D01*
X184600883Y-183621900D02*
X184672311Y-183550471D01*
X184672311Y-183550471D02*
X184672311Y-183693328D01*
X184672311Y-182764757D02*
X184743740Y-182836185D01*
X184743740Y-182836185D02*
X184672311Y-182907614D01*
X184672311Y-182907614D02*
X184600883Y-182836185D01*
X184600883Y-182836185D02*
X184672311Y-182764757D01*
X184672311Y-182764757D02*
X184672311Y-182907614D01*
D10*
D12*
X178556710Y-180685528D02*
X178556710Y-179185528D01*
X178556710Y-179185528D02*
X179128139Y-179185528D01*
X179128139Y-179185528D02*
X179270996Y-179256957D01*
X179270996Y-179256957D02*
X179342425Y-179328385D01*
X179342425Y-179328385D02*
X179413853Y-179471242D01*
X179413853Y-179471242D02*
X179413853Y-179685528D01*
X179413853Y-179685528D02*
X179342425Y-179828385D01*
X179342425Y-179828385D02*
X179270996Y-179899814D01*
X179270996Y-179899814D02*
X179128139Y-179971242D01*
X179128139Y-179971242D02*
X178556710Y-179971242D01*
X180913853Y-180542671D02*
X180842425Y-180614100D01*
X180842425Y-180614100D02*
X180628139Y-180685528D01*
X180628139Y-180685528D02*
X180485282Y-180685528D01*
X180485282Y-180685528D02*
X180270996Y-180614100D01*
X180270996Y-180614100D02*
X180128139Y-180471242D01*
X180128139Y-180471242D02*
X180056710Y-180328385D01*
X180056710Y-180328385D02*
X179985282Y-180042671D01*
X179985282Y-180042671D02*
X179985282Y-179828385D01*
X179985282Y-179828385D02*
X180056710Y-179542671D01*
X180056710Y-179542671D02*
X180128139Y-179399814D01*
X180128139Y-179399814D02*
X180270996Y-179256957D01*
X180270996Y-179256957D02*
X180485282Y-179185528D01*
X180485282Y-179185528D02*
X180628139Y-179185528D01*
X180628139Y-179185528D02*
X180842425Y-179256957D01*
X180842425Y-179256957D02*
X180913853Y-179328385D01*
X182056710Y-179899814D02*
X182270996Y-179971242D01*
X182270996Y-179971242D02*
X182342425Y-180042671D01*
X182342425Y-180042671D02*
X182413853Y-180185528D01*
X182413853Y-180185528D02*
X182413853Y-180399814D01*
X182413853Y-180399814D02*
X182342425Y-180542671D01*
X182342425Y-180542671D02*
X182270996Y-180614100D01*
X182270996Y-180614100D02*
X182128139Y-180685528D01*
X182128139Y-180685528D02*
X181556710Y-180685528D01*
X181556710Y-180685528D02*
X181556710Y-179185528D01*
X181556710Y-179185528D02*
X182056710Y-179185528D01*
X182056710Y-179185528D02*
X182199568Y-179256957D01*
X182199568Y-179256957D02*
X182270996Y-179328385D01*
X182270996Y-179328385D02*
X182342425Y-179471242D01*
X182342425Y-179471242D02*
X182342425Y-179614100D01*
X182342425Y-179614100D02*
X182270996Y-179756957D01*
X182270996Y-179756957D02*
X182199568Y-179828385D01*
X182199568Y-179828385D02*
X182056710Y-179899814D01*
X182056710Y-179899814D02*
X181556710Y-179899814D01*
D10*
D11*
X178458026Y-176907614D02*
X178958026Y-176907614D01*
X179172312Y-177693328D02*
X178458026Y-177693328D01*
X178458026Y-177693328D02*
X178458026Y-176193328D01*
X178458026Y-176193328D02*
X179172312Y-176193328D01*
X180458027Y-177693328D02*
X180458027Y-176193328D01*
X180458027Y-177621900D02*
X180315169Y-177693328D01*
X180315169Y-177693328D02*
X180029455Y-177693328D01*
X180029455Y-177693328D02*
X179886598Y-177621900D01*
X179886598Y-177621900D02*
X179815169Y-177550471D01*
X179815169Y-177550471D02*
X179743741Y-177407614D01*
X179743741Y-177407614D02*
X179743741Y-176979042D01*
X179743741Y-176979042D02*
X179815169Y-176836185D01*
X179815169Y-176836185D02*
X179886598Y-176764757D01*
X179886598Y-176764757D02*
X180029455Y-176693328D01*
X180029455Y-176693328D02*
X180315169Y-176693328D01*
X180315169Y-176693328D02*
X180458027Y-176764757D01*
X181815170Y-176693328D02*
X181815170Y-177907614D01*
X181815170Y-177907614D02*
X181743741Y-178050471D01*
X181743741Y-178050471D02*
X181672312Y-178121900D01*
X181672312Y-178121900D02*
X181529455Y-178193328D01*
X181529455Y-178193328D02*
X181315170Y-178193328D01*
X181315170Y-178193328D02*
X181172312Y-178121900D01*
X181815170Y-177621900D02*
X181672312Y-177693328D01*
X181672312Y-177693328D02*
X181386598Y-177693328D01*
X181386598Y-177693328D02*
X181243741Y-177621900D01*
X181243741Y-177621900D02*
X181172312Y-177550471D01*
X181172312Y-177550471D02*
X181100884Y-177407614D01*
X181100884Y-177407614D02*
X181100884Y-176979042D01*
X181100884Y-176979042D02*
X181172312Y-176836185D01*
X181172312Y-176836185D02*
X181243741Y-176764757D01*
X181243741Y-176764757D02*
X181386598Y-176693328D01*
X181386598Y-176693328D02*
X181672312Y-176693328D01*
X181672312Y-176693328D02*
X181815170Y-176764757D01*
X183100884Y-177621900D02*
X182958027Y-177693328D01*
X182958027Y-177693328D02*
X182672313Y-177693328D01*
X182672313Y-177693328D02*
X182529455Y-177621900D01*
X182529455Y-177621900D02*
X182458027Y-177479042D01*
X182458027Y-177479042D02*
X182458027Y-176907614D01*
X182458027Y-176907614D02*
X182529455Y-176764757D01*
X182529455Y-176764757D02*
X182672313Y-176693328D01*
X182672313Y-176693328D02*
X182958027Y-176693328D01*
X182958027Y-176693328D02*
X183100884Y-176764757D01*
X183100884Y-176764757D02*
X183172313Y-176907614D01*
X183172313Y-176907614D02*
X183172313Y-177050471D01*
X183172313Y-177050471D02*
X182458027Y-177193328D01*
X185815169Y-177550471D02*
X185743741Y-177621900D01*
X185743741Y-177621900D02*
X185529455Y-177693328D01*
X185529455Y-177693328D02*
X185386598Y-177693328D01*
X185386598Y-177693328D02*
X185172312Y-177621900D01*
X185172312Y-177621900D02*
X185029455Y-177479042D01*
X185029455Y-177479042D02*
X184958026Y-177336185D01*
X184958026Y-177336185D02*
X184886598Y-177050471D01*
X184886598Y-177050471D02*
X184886598Y-176836185D01*
X184886598Y-176836185D02*
X184958026Y-176550471D01*
X184958026Y-176550471D02*
X185029455Y-176407614D01*
X185029455Y-176407614D02*
X185172312Y-176264757D01*
X185172312Y-176264757D02*
X185386598Y-176193328D01*
X185386598Y-176193328D02*
X185529455Y-176193328D01*
X185529455Y-176193328D02*
X185743741Y-176264757D01*
X185743741Y-176264757D02*
X185815169Y-176336185D01*
X187100884Y-176693328D02*
X187100884Y-177693328D01*
X186458026Y-176693328D02*
X186458026Y-177479042D01*
X186458026Y-177479042D02*
X186529455Y-177621900D01*
X186529455Y-177621900D02*
X186672312Y-177693328D01*
X186672312Y-177693328D02*
X186886598Y-177693328D01*
X186886598Y-177693328D02*
X187029455Y-177621900D01*
X187029455Y-177621900D02*
X187100884Y-177550471D01*
X187600884Y-176693328D02*
X188172312Y-176693328D01*
X187815169Y-176193328D02*
X187815169Y-177479042D01*
X187815169Y-177479042D02*
X187886598Y-177621900D01*
X187886598Y-177621900D02*
X188029455Y-177693328D01*
X188029455Y-177693328D02*
X188172312Y-177693328D01*
X188600884Y-177621900D02*
X188743741Y-177693328D01*
X188743741Y-177693328D02*
X189029455Y-177693328D01*
X189029455Y-177693328D02*
X189172312Y-177621900D01*
X189172312Y-177621900D02*
X189243741Y-177479042D01*
X189243741Y-177479042D02*
X189243741Y-177407614D01*
X189243741Y-177407614D02*
X189172312Y-177264757D01*
X189172312Y-177264757D02*
X189029455Y-177193328D01*
X189029455Y-177193328D02*
X188815170Y-177193328D01*
X188815170Y-177193328D02*
X188672312Y-177121900D01*
X188672312Y-177121900D02*
X188600884Y-176979042D01*
X188600884Y-176979042D02*
X188600884Y-176907614D01*
X188600884Y-176907614D02*
X188672312Y-176764757D01*
X188672312Y-176764757D02*
X188815170Y-176693328D01*
X188815170Y-176693328D02*
X189029455Y-176693328D01*
X189029455Y-176693328D02*
X189172312Y-176764757D01*
D10*
D11*
X178386598Y-174264757D02*
X179100884Y-174264757D01*
X178243741Y-174693328D02*
X178743741Y-173193328D01*
X178743741Y-173193328D02*
X179243741Y-174693328D01*
X180386598Y-173693328D02*
X180386598Y-174693328D01*
X179743740Y-173693328D02*
X179743740Y-174479042D01*
X179743740Y-174479042D02*
X179815169Y-174621900D01*
X179815169Y-174621900D02*
X179958026Y-174693328D01*
X179958026Y-174693328D02*
X180172312Y-174693328D01*
X180172312Y-174693328D02*
X180315169Y-174621900D01*
X180315169Y-174621900D02*
X180386598Y-174550471D01*
X180886598Y-173693328D02*
X181458026Y-173693328D01*
X181100883Y-173193328D02*
X181100883Y-174479042D01*
X181100883Y-174479042D02*
X181172312Y-174621900D01*
X181172312Y-174621900D02*
X181315169Y-174693328D01*
X181315169Y-174693328D02*
X181458026Y-174693328D01*
X181958026Y-174693328D02*
X181958026Y-173193328D01*
X182600884Y-174693328D02*
X182600884Y-173907614D01*
X182600884Y-173907614D02*
X182529455Y-173764757D01*
X182529455Y-173764757D02*
X182386598Y-173693328D01*
X182386598Y-173693328D02*
X182172312Y-173693328D01*
X182172312Y-173693328D02*
X182029455Y-173764757D01*
X182029455Y-173764757D02*
X181958026Y-173836185D01*
X183529455Y-174693328D02*
X183386598Y-174621900D01*
X183386598Y-174621900D02*
X183315169Y-174550471D01*
X183315169Y-174550471D02*
X183243741Y-174407614D01*
X183243741Y-174407614D02*
X183243741Y-173979042D01*
X183243741Y-173979042D02*
X183315169Y-173836185D01*
X183315169Y-173836185D02*
X183386598Y-173764757D01*
X183386598Y-173764757D02*
X183529455Y-173693328D01*
X183529455Y-173693328D02*
X183743741Y-173693328D01*
X183743741Y-173693328D02*
X183886598Y-173764757D01*
X183886598Y-173764757D02*
X183958027Y-173836185D01*
X183958027Y-173836185D02*
X184029455Y-173979042D01*
X184029455Y-173979042D02*
X184029455Y-174407614D01*
X184029455Y-174407614D02*
X183958027Y-174550471D01*
X183958027Y-174550471D02*
X183886598Y-174621900D01*
X183886598Y-174621900D02*
X183743741Y-174693328D01*
X183743741Y-174693328D02*
X183529455Y-174693328D01*
X184672312Y-174693328D02*
X184672312Y-173693328D01*
X184672312Y-173979042D02*
X184743741Y-173836185D01*
X184743741Y-173836185D02*
X184815170Y-173764757D01*
X184815170Y-173764757D02*
X184958027Y-173693328D01*
X184958027Y-173693328D02*
X185100884Y-173693328D01*
X185600883Y-174550471D02*
X185672312Y-174621900D01*
X185672312Y-174621900D02*
X185600883Y-174693328D01*
X185600883Y-174693328D02*
X185529455Y-174621900D01*
X185529455Y-174621900D02*
X185600883Y-174550471D01*
X185600883Y-174550471D02*
X185600883Y-174693328D01*
X185600883Y-173764757D02*
X185672312Y-173836185D01*
X185672312Y-173836185D02*
X185600883Y-173907614D01*
X185600883Y-173907614D02*
X185529455Y-173836185D01*
X185529455Y-173836185D02*
X185600883Y-173764757D01*
X185600883Y-173764757D02*
X185600883Y-173907614D01*
X187886598Y-173193328D02*
X187886598Y-174264757D01*
X187886598Y-174264757D02*
X187815169Y-174479042D01*
X187815169Y-174479042D02*
X187672312Y-174621900D01*
X187672312Y-174621900D02*
X187458026Y-174693328D01*
X187458026Y-174693328D02*
X187315169Y-174693328D01*
X189243741Y-173693328D02*
X189243741Y-174693328D01*
X188600883Y-173693328D02*
X188600883Y-174479042D01*
X188600883Y-174479042D02*
X188672312Y-174621900D01*
X188672312Y-174621900D02*
X188815169Y-174693328D01*
X188815169Y-174693328D02*
X189029455Y-174693328D01*
X189029455Y-174693328D02*
X189172312Y-174621900D01*
X189172312Y-174621900D02*
X189243741Y-174550471D01*
X190600884Y-174693328D02*
X190600884Y-173907614D01*
X190600884Y-173907614D02*
X190529455Y-173764757D01*
X190529455Y-173764757D02*
X190386598Y-173693328D01*
X190386598Y-173693328D02*
X190100884Y-173693328D01*
X190100884Y-173693328D02*
X189958026Y-173764757D01*
X190600884Y-174621900D02*
X190458026Y-174693328D01*
X190458026Y-174693328D02*
X190100884Y-174693328D01*
X190100884Y-174693328D02*
X189958026Y-174621900D01*
X189958026Y-174621900D02*
X189886598Y-174479042D01*
X189886598Y-174479042D02*
X189886598Y-174336185D01*
X189886598Y-174336185D02*
X189958026Y-174193328D01*
X189958026Y-174193328D02*
X190100884Y-174121900D01*
X190100884Y-174121900D02*
X190458026Y-174121900D01*
X190458026Y-174121900D02*
X190600884Y-174050471D01*
X191315169Y-173693328D02*
X191315169Y-174693328D01*
X191315169Y-173836185D02*
X191386598Y-173764757D01*
X191386598Y-173764757D02*
X191529455Y-173693328D01*
X191529455Y-173693328D02*
X191743741Y-173693328D01*
X191743741Y-173693328D02*
X191886598Y-173764757D01*
X191886598Y-173764757D02*
X191958027Y-173907614D01*
X191958027Y-173907614D02*
X191958027Y-174693328D01*
X193743741Y-174264757D02*
X194458027Y-174264757D01*
X193600884Y-174693328D02*
X194100884Y-173193328D01*
X194100884Y-173193328D02*
X194600884Y-174693328D01*
X195100883Y-173693328D02*
X195100883Y-174693328D01*
X195100883Y-173836185D02*
X195172312Y-173764757D01*
X195172312Y-173764757D02*
X195315169Y-173693328D01*
X195315169Y-173693328D02*
X195529455Y-173693328D01*
X195529455Y-173693328D02*
X195672312Y-173764757D01*
X195672312Y-173764757D02*
X195743741Y-173907614D01*
X195743741Y-173907614D02*
X195743741Y-174693328D01*
X196243741Y-173693328D02*
X196815169Y-173693328D01*
X196458026Y-173193328D02*
X196458026Y-174479042D01*
X196458026Y-174479042D02*
X196529455Y-174621900D01*
X196529455Y-174621900D02*
X196672312Y-174693328D01*
X196672312Y-174693328D02*
X196815169Y-174693328D01*
X197529455Y-174693328D02*
X197386598Y-174621900D01*
X197386598Y-174621900D02*
X197315169Y-174550471D01*
X197315169Y-174550471D02*
X197243741Y-174407614D01*
X197243741Y-174407614D02*
X197243741Y-173979042D01*
X197243741Y-173979042D02*
X197315169Y-173836185D01*
X197315169Y-173836185D02*
X197386598Y-173764757D01*
X197386598Y-173764757D02*
X197529455Y-173693328D01*
X197529455Y-173693328D02*
X197743741Y-173693328D01*
X197743741Y-173693328D02*
X197886598Y-173764757D01*
X197886598Y-173764757D02*
X197958027Y-173836185D01*
X197958027Y-173836185D02*
X198029455Y-173979042D01*
X198029455Y-173979042D02*
X198029455Y-174407614D01*
X198029455Y-174407614D02*
X197958027Y-174550471D01*
X197958027Y-174550471D02*
X197886598Y-174621900D01*
X197886598Y-174621900D02*
X197743741Y-174693328D01*
X197743741Y-174693328D02*
X197529455Y-174693328D01*
X198672312Y-173693328D02*
X198672312Y-174693328D01*
X198672312Y-173836185D02*
X198743741Y-173764757D01*
X198743741Y-173764757D02*
X198886598Y-173693328D01*
X198886598Y-173693328D02*
X199100884Y-173693328D01*
X199100884Y-173693328D02*
X199243741Y-173764757D01*
X199243741Y-173764757D02*
X199315170Y-173907614D01*
X199315170Y-173907614D02*
X199315170Y-174693328D01*
X200029455Y-174693328D02*
X200029455Y-173693328D01*
X200029455Y-173193328D02*
X199958027Y-173264757D01*
X199958027Y-173264757D02*
X200029455Y-173336185D01*
X200029455Y-173336185D02*
X200100884Y-173264757D01*
X200100884Y-173264757D02*
X200029455Y-173193328D01*
X200029455Y-173193328D02*
X200029455Y-173336185D01*
X200958027Y-174693328D02*
X200815170Y-174621900D01*
X200815170Y-174621900D02*
X200743741Y-174550471D01*
X200743741Y-174550471D02*
X200672313Y-174407614D01*
X200672313Y-174407614D02*
X200672313Y-173979042D01*
X200672313Y-173979042D02*
X200743741Y-173836185D01*
X200743741Y-173836185D02*
X200815170Y-173764757D01*
X200815170Y-173764757D02*
X200958027Y-173693328D01*
X200958027Y-173693328D02*
X201172313Y-173693328D01*
X201172313Y-173693328D02*
X201315170Y-173764757D01*
X201315170Y-173764757D02*
X201386599Y-173836185D01*
X201386599Y-173836185D02*
X201458027Y-173979042D01*
X201458027Y-173979042D02*
X201458027Y-174407614D01*
X201458027Y-174407614D02*
X201386599Y-174550471D01*
X201386599Y-174550471D02*
X201315170Y-174621900D01*
X201315170Y-174621900D02*
X201172313Y-174693328D01*
X201172313Y-174693328D02*
X200958027Y-174693328D01*
X203243741Y-174693328D02*
X203243741Y-173193328D01*
X203243741Y-173907614D02*
X204100884Y-173907614D01*
X204100884Y-174693328D02*
X204100884Y-173193328D01*
X204815170Y-174693328D02*
X204815170Y-173693328D01*
X204815170Y-173193328D02*
X204743742Y-173264757D01*
X204743742Y-173264757D02*
X204815170Y-173336185D01*
X204815170Y-173336185D02*
X204886599Y-173264757D01*
X204886599Y-173264757D02*
X204815170Y-173193328D01*
X204815170Y-173193328D02*
X204815170Y-173336185D01*
X206172314Y-174693328D02*
X206172314Y-173193328D01*
X206172314Y-174621900D02*
X206029456Y-174693328D01*
X206029456Y-174693328D02*
X205743742Y-174693328D01*
X205743742Y-174693328D02*
X205600885Y-174621900D01*
X205600885Y-174621900D02*
X205529456Y-174550471D01*
X205529456Y-174550471D02*
X205458028Y-174407614D01*
X205458028Y-174407614D02*
X205458028Y-173979042D01*
X205458028Y-173979042D02*
X205529456Y-173836185D01*
X205529456Y-173836185D02*
X205600885Y-173764757D01*
X205600885Y-173764757D02*
X205743742Y-173693328D01*
X205743742Y-173693328D02*
X206029456Y-173693328D01*
X206029456Y-173693328D02*
X206172314Y-173764757D01*
X207529457Y-174693328D02*
X207529457Y-173907614D01*
X207529457Y-173907614D02*
X207458028Y-173764757D01*
X207458028Y-173764757D02*
X207315171Y-173693328D01*
X207315171Y-173693328D02*
X207029457Y-173693328D01*
X207029457Y-173693328D02*
X206886599Y-173764757D01*
X207529457Y-174621900D02*
X207386599Y-174693328D01*
X207386599Y-174693328D02*
X207029457Y-174693328D01*
X207029457Y-174693328D02*
X206886599Y-174621900D01*
X206886599Y-174621900D02*
X206815171Y-174479042D01*
X206815171Y-174479042D02*
X206815171Y-174336185D01*
X206815171Y-174336185D02*
X206886599Y-174193328D01*
X206886599Y-174193328D02*
X207029457Y-174121900D01*
X207029457Y-174121900D02*
X207386599Y-174121900D01*
X207386599Y-174121900D02*
X207529457Y-174050471D01*
X208458028Y-174693328D02*
X208315171Y-174621900D01*
X208315171Y-174621900D02*
X208243742Y-174479042D01*
X208243742Y-174479042D02*
X208243742Y-173193328D01*
X209672314Y-173693328D02*
X209672314Y-174907614D01*
X209672314Y-174907614D02*
X209600885Y-175050471D01*
X209600885Y-175050471D02*
X209529456Y-175121900D01*
X209529456Y-175121900D02*
X209386599Y-175193328D01*
X209386599Y-175193328D02*
X209172314Y-175193328D01*
X209172314Y-175193328D02*
X209029456Y-175121900D01*
X209672314Y-174621900D02*
X209529456Y-174693328D01*
X209529456Y-174693328D02*
X209243742Y-174693328D01*
X209243742Y-174693328D02*
X209100885Y-174621900D01*
X209100885Y-174621900D02*
X209029456Y-174550471D01*
X209029456Y-174550471D02*
X208958028Y-174407614D01*
X208958028Y-174407614D02*
X208958028Y-173979042D01*
X208958028Y-173979042D02*
X209029456Y-173836185D01*
X209029456Y-173836185D02*
X209100885Y-173764757D01*
X209100885Y-173764757D02*
X209243742Y-173693328D01*
X209243742Y-173693328D02*
X209529456Y-173693328D01*
X209529456Y-173693328D02*
X209672314Y-173764757D01*
X210600885Y-174693328D02*
X210458028Y-174621900D01*
X210458028Y-174621900D02*
X210386599Y-174550471D01*
X210386599Y-174550471D02*
X210315171Y-174407614D01*
X210315171Y-174407614D02*
X210315171Y-173979042D01*
X210315171Y-173979042D02*
X210386599Y-173836185D01*
X210386599Y-173836185D02*
X210458028Y-173764757D01*
X210458028Y-173764757D02*
X210600885Y-173693328D01*
X210600885Y-173693328D02*
X210815171Y-173693328D01*
X210815171Y-173693328D02*
X210958028Y-173764757D01*
X210958028Y-173764757D02*
X211029457Y-173836185D01*
X211029457Y-173836185D02*
X211100885Y-173979042D01*
X211100885Y-173979042D02*
X211100885Y-174407614D01*
X211100885Y-174407614D02*
X211029457Y-174550471D01*
X211029457Y-174550471D02*
X210958028Y-174621900D01*
X210958028Y-174621900D02*
X210815171Y-174693328D01*
X210815171Y-174693328D02*
X210600885Y-174693328D01*
X212672314Y-173193328D02*
X213529457Y-173193328D01*
X213100885Y-174693328D02*
X213100885Y-173193328D01*
X214243742Y-174693328D02*
X214100885Y-174621900D01*
X214100885Y-174621900D02*
X214029456Y-174550471D01*
X214029456Y-174550471D02*
X213958028Y-174407614D01*
X213958028Y-174407614D02*
X213958028Y-173979042D01*
X213958028Y-173979042D02*
X214029456Y-173836185D01*
X214029456Y-173836185D02*
X214100885Y-173764757D01*
X214100885Y-173764757D02*
X214243742Y-173693328D01*
X214243742Y-173693328D02*
X214458028Y-173693328D01*
X214458028Y-173693328D02*
X214600885Y-173764757D01*
X214600885Y-173764757D02*
X214672314Y-173836185D01*
X214672314Y-173836185D02*
X214743742Y-173979042D01*
X214743742Y-173979042D02*
X214743742Y-174407614D01*
X214743742Y-174407614D02*
X214672314Y-174550471D01*
X214672314Y-174550471D02*
X214600885Y-174621900D01*
X214600885Y-174621900D02*
X214458028Y-174693328D01*
X214458028Y-174693328D02*
X214243742Y-174693328D01*
X215386599Y-174693328D02*
X215386599Y-173693328D01*
X215386599Y-173979042D02*
X215458028Y-173836185D01*
X215458028Y-173836185D02*
X215529457Y-173764757D01*
X215529457Y-173764757D02*
X215672314Y-173693328D01*
X215672314Y-173693328D02*
X215815171Y-173693328D01*
X216315170Y-174693328D02*
X216315170Y-173693328D01*
X216315170Y-173979042D02*
X216386599Y-173836185D01*
X216386599Y-173836185D02*
X216458028Y-173764757D01*
X216458028Y-173764757D02*
X216600885Y-173693328D01*
X216600885Y-173693328D02*
X216743742Y-173693328D01*
X217815170Y-174621900D02*
X217672313Y-174693328D01*
X217672313Y-174693328D02*
X217386599Y-174693328D01*
X217386599Y-174693328D02*
X217243741Y-174621900D01*
X217243741Y-174621900D02*
X217172313Y-174479042D01*
X217172313Y-174479042D02*
X217172313Y-173907614D01*
X217172313Y-173907614D02*
X217243741Y-173764757D01*
X217243741Y-173764757D02*
X217386599Y-173693328D01*
X217386599Y-173693328D02*
X217672313Y-173693328D01*
X217672313Y-173693328D02*
X217815170Y-173764757D01*
X217815170Y-173764757D02*
X217886599Y-173907614D01*
X217886599Y-173907614D02*
X217886599Y-174050471D01*
X217886599Y-174050471D02*
X217172313Y-174193328D01*
X218458027Y-174621900D02*
X218600884Y-174693328D01*
X218600884Y-174693328D02*
X218886598Y-174693328D01*
X218886598Y-174693328D02*
X219029455Y-174621900D01*
X219029455Y-174621900D02*
X219100884Y-174479042D01*
X219100884Y-174479042D02*
X219100884Y-174407614D01*
X219100884Y-174407614D02*
X219029455Y-174264757D01*
X219029455Y-174264757D02*
X218886598Y-174193328D01*
X218886598Y-174193328D02*
X218672313Y-174193328D01*
X218672313Y-174193328D02*
X218529455Y-174121900D01*
X218529455Y-174121900D02*
X218458027Y-173979042D01*
X218458027Y-173979042D02*
X218458027Y-173907614D01*
X218458027Y-173907614D02*
X218529455Y-173764757D01*
X218529455Y-173764757D02*
X218672313Y-173693328D01*
X218672313Y-173693328D02*
X218886598Y-173693328D01*
X218886598Y-173693328D02*
X219029455Y-173764757D01*
D10*
D11*
D10*
D11*
D10*
D11*
X197002200Y-191507200D02*
X197002200Y-194507200D01*
D10*
D11*
X261002200Y-191507200D02*
X261002200Y-198007200D01*
D14*
X153085819Y-87768326D02*
X152085819Y-87768326D01*
X152085819Y-87768326D02*
X152085819Y-87530231D01*
X152085819Y-87530231D02*
X152133438Y-87387374D01*
X152133438Y-87387374D02*
X152228676Y-87292136D01*
X152228676Y-87292136D02*
X152323914Y-87244517D01*
X152323914Y-87244517D02*
X152514390Y-87196898D01*
X152514390Y-87196898D02*
X152657247Y-87196898D01*
X152657247Y-87196898D02*
X152847723Y-87244517D01*
X152847723Y-87244517D02*
X152942961Y-87292136D01*
X152942961Y-87292136D02*
X153038200Y-87387374D01*
X153038200Y-87387374D02*
X153085819Y-87530231D01*
X153085819Y-87530231D02*
X153085819Y-87768326D01*
X153038200Y-86387374D02*
X153085819Y-86482612D01*
X153085819Y-86482612D02*
X153085819Y-86673088D01*
X153085819Y-86673088D02*
X153038200Y-86768326D01*
X153038200Y-86768326D02*
X152942961Y-86815945D01*
X152942961Y-86815945D02*
X152562009Y-86815945D01*
X152562009Y-86815945D02*
X152466771Y-86768326D01*
X152466771Y-86768326D02*
X152419152Y-86673088D01*
X152419152Y-86673088D02*
X152419152Y-86482612D01*
X152419152Y-86482612D02*
X152466771Y-86387374D01*
X152466771Y-86387374D02*
X152562009Y-86339755D01*
X152562009Y-86339755D02*
X152657247Y-86339755D01*
X152657247Y-86339755D02*
X152752485Y-86815945D01*
X153038200Y-85958802D02*
X153085819Y-85863564D01*
X153085819Y-85863564D02*
X153085819Y-85673088D01*
X153085819Y-85673088D02*
X153038200Y-85577850D01*
X153038200Y-85577850D02*
X152942961Y-85530231D01*
X152942961Y-85530231D02*
X152895342Y-85530231D01*
X152895342Y-85530231D02*
X152800104Y-85577850D01*
X152800104Y-85577850D02*
X152752485Y-85673088D01*
X152752485Y-85673088D02*
X152752485Y-85815945D01*
X152752485Y-85815945D02*
X152704866Y-85911183D01*
X152704866Y-85911183D02*
X152609628Y-85958802D01*
X152609628Y-85958802D02*
X152562009Y-85958802D01*
X152562009Y-85958802D02*
X152466771Y-85911183D01*
X152466771Y-85911183D02*
X152419152Y-85815945D01*
X152419152Y-85815945D02*
X152419152Y-85673088D01*
X152419152Y-85673088D02*
X152466771Y-85577850D01*
X153085819Y-85101659D02*
X152419152Y-85101659D01*
X152085819Y-85101659D02*
X152133438Y-85149278D01*
X152133438Y-85149278D02*
X152181057Y-85101659D01*
X152181057Y-85101659D02*
X152133438Y-85054040D01*
X152133438Y-85054040D02*
X152085819Y-85101659D01*
X152085819Y-85101659D02*
X152181057Y-85101659D01*
X152419152Y-84196898D02*
X153228676Y-84196898D01*
X153228676Y-84196898D02*
X153323914Y-84244517D01*
X153323914Y-84244517D02*
X153371533Y-84292136D01*
X153371533Y-84292136D02*
X153419152Y-84387374D01*
X153419152Y-84387374D02*
X153419152Y-84530231D01*
X153419152Y-84530231D02*
X153371533Y-84625469D01*
X153038200Y-84196898D02*
X153085819Y-84292136D01*
X153085819Y-84292136D02*
X153085819Y-84482612D01*
X153085819Y-84482612D02*
X153038200Y-84577850D01*
X153038200Y-84577850D02*
X152990580Y-84625469D01*
X152990580Y-84625469D02*
X152895342Y-84673088D01*
X152895342Y-84673088D02*
X152609628Y-84673088D01*
X152609628Y-84673088D02*
X152514390Y-84625469D01*
X152514390Y-84625469D02*
X152466771Y-84577850D01*
X152466771Y-84577850D02*
X152419152Y-84482612D01*
X152419152Y-84482612D02*
X152419152Y-84292136D01*
X152419152Y-84292136D02*
X152466771Y-84196898D01*
X152419152Y-83720707D02*
X153085819Y-83720707D01*
X152514390Y-83720707D02*
X152466771Y-83673088D01*
X152466771Y-83673088D02*
X152419152Y-83577850D01*
X152419152Y-83577850D02*
X152419152Y-83434993D01*
X152419152Y-83434993D02*
X152466771Y-83339755D01*
X152466771Y-83339755D02*
X152562009Y-83292136D01*
X152562009Y-83292136D02*
X153085819Y-83292136D01*
X153038200Y-82434993D02*
X153085819Y-82530231D01*
X153085819Y-82530231D02*
X153085819Y-82720707D01*
X153085819Y-82720707D02*
X153038200Y-82815945D01*
X153038200Y-82815945D02*
X152942961Y-82863564D01*
X152942961Y-82863564D02*
X152562009Y-82863564D01*
X152562009Y-82863564D02*
X152466771Y-82815945D01*
X152466771Y-82815945D02*
X152419152Y-82720707D01*
X152419152Y-82720707D02*
X152419152Y-82530231D01*
X152419152Y-82530231D02*
X152466771Y-82434993D01*
X152466771Y-82434993D02*
X152562009Y-82387374D01*
X152562009Y-82387374D02*
X152657247Y-82387374D01*
X152657247Y-82387374D02*
X152752485Y-82863564D01*
X153085819Y-81530231D02*
X152085819Y-81530231D01*
X153038200Y-81530231D02*
X153085819Y-81625469D01*
X153085819Y-81625469D02*
X153085819Y-81815945D01*
X153085819Y-81815945D02*
X153038200Y-81911183D01*
X153038200Y-81911183D02*
X152990580Y-81958802D01*
X152990580Y-81958802D02*
X152895342Y-82006421D01*
X152895342Y-82006421D02*
X152609628Y-82006421D01*
X152609628Y-82006421D02*
X152514390Y-81958802D01*
X152514390Y-81958802D02*
X152466771Y-81911183D01*
X152466771Y-81911183D02*
X152419152Y-81815945D01*
X152419152Y-81815945D02*
X152419152Y-81625469D01*
X152419152Y-81625469D02*
X152466771Y-81530231D01*
X153085819Y-80292135D02*
X152085819Y-80292135D01*
X152466771Y-80292135D02*
X152419152Y-80196897D01*
X152419152Y-80196897D02*
X152419152Y-80006421D01*
X152419152Y-80006421D02*
X152466771Y-79911183D01*
X152466771Y-79911183D02*
X152514390Y-79863564D01*
X152514390Y-79863564D02*
X152609628Y-79815945D01*
X152609628Y-79815945D02*
X152895342Y-79815945D01*
X152895342Y-79815945D02*
X152990580Y-79863564D01*
X152990580Y-79863564D02*
X153038200Y-79911183D01*
X153038200Y-79911183D02*
X153085819Y-80006421D01*
X153085819Y-80006421D02*
X153085819Y-80196897D01*
X153085819Y-80196897D02*
X153038200Y-80292135D01*
X152419152Y-79482611D02*
X153085819Y-79244516D01*
X152419152Y-79006421D02*
X153085819Y-79244516D01*
X153085819Y-79244516D02*
X153323914Y-79339754D01*
X153323914Y-79339754D02*
X153371533Y-79387373D01*
X153371533Y-79387373D02*
X153419152Y-79482611D01*
X152990580Y-78625468D02*
X153038200Y-78577849D01*
X153038200Y-78577849D02*
X153085819Y-78625468D01*
X153085819Y-78625468D02*
X153038200Y-78673087D01*
X153038200Y-78673087D02*
X152990580Y-78625468D01*
X152990580Y-78625468D02*
X153085819Y-78625468D01*
X152466771Y-78625468D02*
X152514390Y-78577849D01*
X152514390Y-78577849D02*
X152562009Y-78625468D01*
X152562009Y-78625468D02*
X152514390Y-78673087D01*
X152514390Y-78673087D02*
X152466771Y-78625468D01*
X152466771Y-78625468D02*
X152562009Y-78625468D01*
X153695819Y-87482612D02*
X154410104Y-87482612D01*
X154410104Y-87482612D02*
X154552961Y-87530231D01*
X154552961Y-87530231D02*
X154648200Y-87625469D01*
X154648200Y-87625469D02*
X154695819Y-87768326D01*
X154695819Y-87768326D02*
X154695819Y-87863564D01*
X154029152Y-86577850D02*
X154695819Y-86577850D01*
X154029152Y-87006421D02*
X154552961Y-87006421D01*
X154552961Y-87006421D02*
X154648200Y-86958802D01*
X154648200Y-86958802D02*
X154695819Y-86863564D01*
X154695819Y-86863564D02*
X154695819Y-86720707D01*
X154695819Y-86720707D02*
X154648200Y-86625469D01*
X154648200Y-86625469D02*
X154600580Y-86577850D01*
X154695819Y-85673088D02*
X154172009Y-85673088D01*
X154172009Y-85673088D02*
X154076771Y-85720707D01*
X154076771Y-85720707D02*
X154029152Y-85815945D01*
X154029152Y-85815945D02*
X154029152Y-86006421D01*
X154029152Y-86006421D02*
X154076771Y-86101659D01*
X154648200Y-85673088D02*
X154695819Y-85768326D01*
X154695819Y-85768326D02*
X154695819Y-86006421D01*
X154695819Y-86006421D02*
X154648200Y-86101659D01*
X154648200Y-86101659D02*
X154552961Y-86149278D01*
X154552961Y-86149278D02*
X154457723Y-86149278D01*
X154457723Y-86149278D02*
X154362485Y-86101659D01*
X154362485Y-86101659D02*
X154314866Y-86006421D01*
X154314866Y-86006421D02*
X154314866Y-85768326D01*
X154314866Y-85768326D02*
X154267247Y-85673088D01*
X154029152Y-85196897D02*
X154695819Y-85196897D01*
X154124390Y-85196897D02*
X154076771Y-85149278D01*
X154076771Y-85149278D02*
X154029152Y-85054040D01*
X154029152Y-85054040D02*
X154029152Y-84911183D01*
X154029152Y-84911183D02*
X154076771Y-84815945D01*
X154076771Y-84815945D02*
X154172009Y-84768326D01*
X154172009Y-84768326D02*
X154695819Y-84768326D01*
X154410104Y-83577849D02*
X154410104Y-83101659D01*
X154695819Y-83673087D02*
X153695819Y-83339754D01*
X153695819Y-83339754D02*
X154695819Y-83006421D01*
X154029152Y-82673087D02*
X154695819Y-82673087D01*
X154124390Y-82673087D02*
X154076771Y-82625468D01*
X154076771Y-82625468D02*
X154029152Y-82530230D01*
X154029152Y-82530230D02*
X154029152Y-82387373D01*
X154029152Y-82387373D02*
X154076771Y-82292135D01*
X154076771Y-82292135D02*
X154172009Y-82244516D01*
X154172009Y-82244516D02*
X154695819Y-82244516D01*
X154029152Y-81911182D02*
X154029152Y-81530230D01*
X153695819Y-81768325D02*
X154552961Y-81768325D01*
X154552961Y-81768325D02*
X154648200Y-81720706D01*
X154648200Y-81720706D02*
X154695819Y-81625468D01*
X154695819Y-81625468D02*
X154695819Y-81530230D01*
X154695819Y-81054039D02*
X154648200Y-81149277D01*
X154648200Y-81149277D02*
X154600580Y-81196896D01*
X154600580Y-81196896D02*
X154505342Y-81244515D01*
X154505342Y-81244515D02*
X154219628Y-81244515D01*
X154219628Y-81244515D02*
X154124390Y-81196896D01*
X154124390Y-81196896D02*
X154076771Y-81149277D01*
X154076771Y-81149277D02*
X154029152Y-81054039D01*
X154029152Y-81054039D02*
X154029152Y-80911182D01*
X154029152Y-80911182D02*
X154076771Y-80815944D01*
X154076771Y-80815944D02*
X154124390Y-80768325D01*
X154124390Y-80768325D02*
X154219628Y-80720706D01*
X154219628Y-80720706D02*
X154505342Y-80720706D01*
X154505342Y-80720706D02*
X154600580Y-80768325D01*
X154600580Y-80768325D02*
X154648200Y-80815944D01*
X154648200Y-80815944D02*
X154695819Y-80911182D01*
X154695819Y-80911182D02*
X154695819Y-81054039D01*
X154029152Y-80292134D02*
X154695819Y-80292134D01*
X154124390Y-80292134D02*
X154076771Y-80244515D01*
X154076771Y-80244515D02*
X154029152Y-80149277D01*
X154029152Y-80149277D02*
X154029152Y-80006420D01*
X154029152Y-80006420D02*
X154076771Y-79911182D01*
X154076771Y-79911182D02*
X154172009Y-79863563D01*
X154172009Y-79863563D02*
X154695819Y-79863563D01*
X154695819Y-79387372D02*
X154029152Y-79387372D01*
X153695819Y-79387372D02*
X153743438Y-79434991D01*
X153743438Y-79434991D02*
X153791057Y-79387372D01*
X153791057Y-79387372D02*
X153743438Y-79339753D01*
X153743438Y-79339753D02*
X153695819Y-79387372D01*
X153695819Y-79387372D02*
X153791057Y-79387372D01*
X154695819Y-78768325D02*
X154648200Y-78863563D01*
X154648200Y-78863563D02*
X154600580Y-78911182D01*
X154600580Y-78911182D02*
X154505342Y-78958801D01*
X154505342Y-78958801D02*
X154219628Y-78958801D01*
X154219628Y-78958801D02*
X154124390Y-78911182D01*
X154124390Y-78911182D02*
X154076771Y-78863563D01*
X154076771Y-78863563D02*
X154029152Y-78768325D01*
X154029152Y-78768325D02*
X154029152Y-78625468D01*
X154029152Y-78625468D02*
X154076771Y-78530230D01*
X154076771Y-78530230D02*
X154124390Y-78482611D01*
X154124390Y-78482611D02*
X154219628Y-78434992D01*
X154219628Y-78434992D02*
X154505342Y-78434992D01*
X154505342Y-78434992D02*
X154600580Y-78482611D01*
X154600580Y-78482611D02*
X154648200Y-78530230D01*
X154648200Y-78530230D02*
X154695819Y-78625468D01*
X154695819Y-78625468D02*
X154695819Y-78768325D01*
X156305819Y-87768326D02*
X155305819Y-87768326D01*
X155782009Y-87768326D02*
X155782009Y-87196898D01*
X156305819Y-87196898D02*
X155305819Y-87196898D01*
X156305819Y-86720707D02*
X155639152Y-86720707D01*
X155305819Y-86720707D02*
X155353438Y-86768326D01*
X155353438Y-86768326D02*
X155401057Y-86720707D01*
X155401057Y-86720707D02*
X155353438Y-86673088D01*
X155353438Y-86673088D02*
X155305819Y-86720707D01*
X155305819Y-86720707D02*
X155401057Y-86720707D01*
X156305819Y-85815946D02*
X155305819Y-85815946D01*
X156258200Y-85815946D02*
X156305819Y-85911184D01*
X156305819Y-85911184D02*
X156305819Y-86101660D01*
X156305819Y-86101660D02*
X156258200Y-86196898D01*
X156258200Y-86196898D02*
X156210580Y-86244517D01*
X156210580Y-86244517D02*
X156115342Y-86292136D01*
X156115342Y-86292136D02*
X155829628Y-86292136D01*
X155829628Y-86292136D02*
X155734390Y-86244517D01*
X155734390Y-86244517D02*
X155686771Y-86196898D01*
X155686771Y-86196898D02*
X155639152Y-86101660D01*
X155639152Y-86101660D02*
X155639152Y-85911184D01*
X155639152Y-85911184D02*
X155686771Y-85815946D01*
X156305819Y-84911184D02*
X155782009Y-84911184D01*
X155782009Y-84911184D02*
X155686771Y-84958803D01*
X155686771Y-84958803D02*
X155639152Y-85054041D01*
X155639152Y-85054041D02*
X155639152Y-85244517D01*
X155639152Y-85244517D02*
X155686771Y-85339755D01*
X156258200Y-84911184D02*
X156305819Y-85006422D01*
X156305819Y-85006422D02*
X156305819Y-85244517D01*
X156305819Y-85244517D02*
X156258200Y-85339755D01*
X156258200Y-85339755D02*
X156162961Y-85387374D01*
X156162961Y-85387374D02*
X156067723Y-85387374D01*
X156067723Y-85387374D02*
X155972485Y-85339755D01*
X155972485Y-85339755D02*
X155924866Y-85244517D01*
X155924866Y-85244517D02*
X155924866Y-85006422D01*
X155924866Y-85006422D02*
X155877247Y-84911184D01*
X156305819Y-84292136D02*
X156258200Y-84387374D01*
X156258200Y-84387374D02*
X156162961Y-84434993D01*
X156162961Y-84434993D02*
X155305819Y-84434993D01*
X155639152Y-83482612D02*
X156448676Y-83482612D01*
X156448676Y-83482612D02*
X156543914Y-83530231D01*
X156543914Y-83530231D02*
X156591533Y-83577850D01*
X156591533Y-83577850D02*
X156639152Y-83673088D01*
X156639152Y-83673088D02*
X156639152Y-83815945D01*
X156639152Y-83815945D02*
X156591533Y-83911183D01*
X156258200Y-83482612D02*
X156305819Y-83577850D01*
X156305819Y-83577850D02*
X156305819Y-83768326D01*
X156305819Y-83768326D02*
X156258200Y-83863564D01*
X156258200Y-83863564D02*
X156210580Y-83911183D01*
X156210580Y-83911183D02*
X156115342Y-83958802D01*
X156115342Y-83958802D02*
X155829628Y-83958802D01*
X155829628Y-83958802D02*
X155734390Y-83911183D01*
X155734390Y-83911183D02*
X155686771Y-83863564D01*
X155686771Y-83863564D02*
X155639152Y-83768326D01*
X155639152Y-83768326D02*
X155639152Y-83577850D01*
X155639152Y-83577850D02*
X155686771Y-83482612D01*
X156305819Y-82863564D02*
X156258200Y-82958802D01*
X156258200Y-82958802D02*
X156210580Y-83006421D01*
X156210580Y-83006421D02*
X156115342Y-83054040D01*
X156115342Y-83054040D02*
X155829628Y-83054040D01*
X155829628Y-83054040D02*
X155734390Y-83006421D01*
X155734390Y-83006421D02*
X155686771Y-82958802D01*
X155686771Y-82958802D02*
X155639152Y-82863564D01*
X155639152Y-82863564D02*
X155639152Y-82720707D01*
X155639152Y-82720707D02*
X155686771Y-82625469D01*
X155686771Y-82625469D02*
X155734390Y-82577850D01*
X155734390Y-82577850D02*
X155829628Y-82530231D01*
X155829628Y-82530231D02*
X156115342Y-82530231D01*
X156115342Y-82530231D02*
X156210580Y-82577850D01*
X156210580Y-82577850D02*
X156258200Y-82625469D01*
X156258200Y-82625469D02*
X156305819Y-82720707D01*
X156305819Y-82720707D02*
X156305819Y-82863564D01*
X155305819Y-81482611D02*
X155305819Y-80911183D01*
X156305819Y-81196897D02*
X155305819Y-81196897D01*
X156305819Y-80434992D02*
X156258200Y-80530230D01*
X156258200Y-80530230D02*
X156210580Y-80577849D01*
X156210580Y-80577849D02*
X156115342Y-80625468D01*
X156115342Y-80625468D02*
X155829628Y-80625468D01*
X155829628Y-80625468D02*
X155734390Y-80577849D01*
X155734390Y-80577849D02*
X155686771Y-80530230D01*
X155686771Y-80530230D02*
X155639152Y-80434992D01*
X155639152Y-80434992D02*
X155639152Y-80292135D01*
X155639152Y-80292135D02*
X155686771Y-80196897D01*
X155686771Y-80196897D02*
X155734390Y-80149278D01*
X155734390Y-80149278D02*
X155829628Y-80101659D01*
X155829628Y-80101659D02*
X156115342Y-80101659D01*
X156115342Y-80101659D02*
X156210580Y-80149278D01*
X156210580Y-80149278D02*
X156258200Y-80196897D01*
X156258200Y-80196897D02*
X156305819Y-80292135D01*
X156305819Y-80292135D02*
X156305819Y-80434992D01*
X156305819Y-79673087D02*
X155639152Y-79673087D01*
X155829628Y-79673087D02*
X155734390Y-79625468D01*
X155734390Y-79625468D02*
X155686771Y-79577849D01*
X155686771Y-79577849D02*
X155639152Y-79482611D01*
X155639152Y-79482611D02*
X155639152Y-79387373D01*
X156305819Y-79054039D02*
X155639152Y-79054039D01*
X155829628Y-79054039D02*
X155734390Y-79006420D01*
X155734390Y-79006420D02*
X155686771Y-78958801D01*
X155686771Y-78958801D02*
X155639152Y-78863563D01*
X155639152Y-78863563D02*
X155639152Y-78768325D01*
X156258200Y-78054039D02*
X156305819Y-78149277D01*
X156305819Y-78149277D02*
X156305819Y-78339753D01*
X156305819Y-78339753D02*
X156258200Y-78434991D01*
X156258200Y-78434991D02*
X156162961Y-78482610D01*
X156162961Y-78482610D02*
X155782009Y-78482610D01*
X155782009Y-78482610D02*
X155686771Y-78434991D01*
X155686771Y-78434991D02*
X155639152Y-78339753D01*
X155639152Y-78339753D02*
X155639152Y-78149277D01*
X155639152Y-78149277D02*
X155686771Y-78054039D01*
X155686771Y-78054039D02*
X155782009Y-78006420D01*
X155782009Y-78006420D02*
X155877247Y-78006420D01*
X155877247Y-78006420D02*
X155972485Y-78482610D01*
X156258200Y-77625467D02*
X156305819Y-77530229D01*
X156305819Y-77530229D02*
X156305819Y-77339753D01*
X156305819Y-77339753D02*
X156258200Y-77244515D01*
X156258200Y-77244515D02*
X156162961Y-77196896D01*
X156162961Y-77196896D02*
X156115342Y-77196896D01*
X156115342Y-77196896D02*
X156020104Y-77244515D01*
X156020104Y-77244515D02*
X155972485Y-77339753D01*
X155972485Y-77339753D02*
X155972485Y-77482610D01*
X155972485Y-77482610D02*
X155924866Y-77577848D01*
X155924866Y-77577848D02*
X155829628Y-77625467D01*
X155829628Y-77625467D02*
X155782009Y-77625467D01*
X155782009Y-77625467D02*
X155686771Y-77577848D01*
X155686771Y-77577848D02*
X155639152Y-77482610D01*
X155639152Y-77482610D02*
X155639152Y-77339753D01*
X155639152Y-77339753D02*
X155686771Y-77244515D01*
D12*
X136049176Y-111398136D02*
X135444414Y-111821470D01*
X136049176Y-112123851D02*
X134779176Y-112123851D01*
X134779176Y-112123851D02*
X134779176Y-111640041D01*
X134779176Y-111640041D02*
X134839652Y-111519089D01*
X134839652Y-111519089D02*
X134900128Y-111458612D01*
X134900128Y-111458612D02*
X135021080Y-111398136D01*
X135021080Y-111398136D02*
X135202509Y-111398136D01*
X135202509Y-111398136D02*
X135323461Y-111458612D01*
X135323461Y-111458612D02*
X135383938Y-111519089D01*
X135383938Y-111519089D02*
X135444414Y-111640041D01*
X135444414Y-111640041D02*
X135444414Y-112123851D01*
X134839652Y-110188612D02*
X134779176Y-110309565D01*
X134779176Y-110309565D02*
X134779176Y-110490993D01*
X134779176Y-110490993D02*
X134839652Y-110672422D01*
X134839652Y-110672422D02*
X134960604Y-110793374D01*
X134960604Y-110793374D02*
X135081557Y-110853851D01*
X135081557Y-110853851D02*
X135323461Y-110914327D01*
X135323461Y-110914327D02*
X135504890Y-110914327D01*
X135504890Y-110914327D02*
X135746795Y-110853851D01*
X135746795Y-110853851D02*
X135867747Y-110793374D01*
X135867747Y-110793374D02*
X135988700Y-110672422D01*
X135988700Y-110672422D02*
X136049176Y-110490993D01*
X136049176Y-110490993D02*
X136049176Y-110370041D01*
X136049176Y-110370041D02*
X135988700Y-110188612D01*
X135988700Y-110188612D02*
X135928223Y-110128136D01*
X135928223Y-110128136D02*
X135504890Y-110128136D01*
X135504890Y-110128136D02*
X135504890Y-110370041D01*
X135383938Y-109160517D02*
X135444414Y-108979089D01*
X135444414Y-108979089D02*
X135504890Y-108918612D01*
X135504890Y-108918612D02*
X135625842Y-108858136D01*
X135625842Y-108858136D02*
X135807271Y-108858136D01*
X135807271Y-108858136D02*
X135928223Y-108918612D01*
X135928223Y-108918612D02*
X135988700Y-108979089D01*
X135988700Y-108979089D02*
X136049176Y-109100041D01*
X136049176Y-109100041D02*
X136049176Y-109583851D01*
X136049176Y-109583851D02*
X134779176Y-109583851D01*
X134779176Y-109583851D02*
X134779176Y-109160517D01*
X134779176Y-109160517D02*
X134839652Y-109039565D01*
X134839652Y-109039565D02*
X134900128Y-108979089D01*
X134900128Y-108979089D02*
X135021080Y-108918612D01*
X135021080Y-108918612D02*
X135142033Y-108918612D01*
X135142033Y-108918612D02*
X135262985Y-108979089D01*
X135262985Y-108979089D02*
X135323461Y-109039565D01*
X135323461Y-109039565D02*
X135383938Y-109160517D01*
X135383938Y-109160517D02*
X135383938Y-109583851D01*
X136049176Y-106741470D02*
X136049176Y-107346232D01*
X136049176Y-107346232D02*
X134779176Y-107346232D01*
X135383938Y-106318137D02*
X135383938Y-105894803D01*
X136049176Y-105713375D02*
X136049176Y-106318137D01*
X136049176Y-106318137D02*
X134779176Y-106318137D01*
X134779176Y-106318137D02*
X134779176Y-105713375D01*
X136049176Y-105169089D02*
X134779176Y-105169089D01*
X134779176Y-105169089D02*
X134779176Y-104866708D01*
X134779176Y-104866708D02*
X134839652Y-104685279D01*
X134839652Y-104685279D02*
X134960604Y-104564327D01*
X134960604Y-104564327D02*
X135081557Y-104503850D01*
X135081557Y-104503850D02*
X135323461Y-104443374D01*
X135323461Y-104443374D02*
X135504890Y-104443374D01*
X135504890Y-104443374D02*
X135746795Y-104503850D01*
X135746795Y-104503850D02*
X135867747Y-104564327D01*
X135867747Y-104564327D02*
X135988700Y-104685279D01*
X135988700Y-104685279D02*
X136049176Y-104866708D01*
X136049176Y-104866708D02*
X136049176Y-105169089D01*
X135988700Y-102991946D02*
X136049176Y-102810517D01*
X136049176Y-102810517D02*
X136049176Y-102508136D01*
X136049176Y-102508136D02*
X135988700Y-102387184D01*
X135988700Y-102387184D02*
X135928223Y-102326708D01*
X135928223Y-102326708D02*
X135807271Y-102266231D01*
X135807271Y-102266231D02*
X135686319Y-102266231D01*
X135686319Y-102266231D02*
X135565366Y-102326708D01*
X135565366Y-102326708D02*
X135504890Y-102387184D01*
X135504890Y-102387184D02*
X135444414Y-102508136D01*
X135444414Y-102508136D02*
X135383938Y-102750041D01*
X135383938Y-102750041D02*
X135323461Y-102870993D01*
X135323461Y-102870993D02*
X135262985Y-102931470D01*
X135262985Y-102931470D02*
X135142033Y-102991946D01*
X135142033Y-102991946D02*
X135021080Y-102991946D01*
X135021080Y-102991946D02*
X134900128Y-102931470D01*
X134900128Y-102931470D02*
X134839652Y-102870993D01*
X134839652Y-102870993D02*
X134779176Y-102750041D01*
X134779176Y-102750041D02*
X134779176Y-102447660D01*
X134779176Y-102447660D02*
X134839652Y-102266231D01*
X134779176Y-101903374D02*
X134779176Y-101177660D01*
X136049176Y-101540517D02*
X134779176Y-101540517D01*
X136049176Y-100028612D02*
X135444414Y-100451946D01*
X136049176Y-100754327D02*
X134779176Y-100754327D01*
X134779176Y-100754327D02*
X134779176Y-100270517D01*
X134779176Y-100270517D02*
X134839652Y-100149565D01*
X134839652Y-100149565D02*
X134900128Y-100089088D01*
X134900128Y-100089088D02*
X135021080Y-100028612D01*
X135021080Y-100028612D02*
X135202509Y-100028612D01*
X135202509Y-100028612D02*
X135323461Y-100089088D01*
X135323461Y-100089088D02*
X135383938Y-100149565D01*
X135383938Y-100149565D02*
X135444414Y-100270517D01*
X135444414Y-100270517D02*
X135444414Y-100754327D01*
X136049176Y-99484327D02*
X134779176Y-99484327D01*
X136049176Y-98879565D02*
X134779176Y-98879565D01*
X134779176Y-98879565D02*
X134779176Y-98395755D01*
X134779176Y-98395755D02*
X134839652Y-98274803D01*
X134839652Y-98274803D02*
X134900128Y-98214326D01*
X134900128Y-98214326D02*
X135021080Y-98153850D01*
X135021080Y-98153850D02*
X135202509Y-98153850D01*
X135202509Y-98153850D02*
X135323461Y-98214326D01*
X135323461Y-98214326D02*
X135383938Y-98274803D01*
X135383938Y-98274803D02*
X135444414Y-98395755D01*
X135444414Y-98395755D02*
X135444414Y-98879565D01*
X136049176Y-96641946D02*
X134779176Y-96641946D01*
X134779176Y-96641946D02*
X134779176Y-96339565D01*
X134779176Y-96339565D02*
X134839652Y-96158136D01*
X134839652Y-96158136D02*
X134960604Y-96037184D01*
X134960604Y-96037184D02*
X135081557Y-95976707D01*
X135081557Y-95976707D02*
X135323461Y-95916231D01*
X135323461Y-95916231D02*
X135504890Y-95916231D01*
X135504890Y-95916231D02*
X135746795Y-95976707D01*
X135746795Y-95976707D02*
X135867747Y-96037184D01*
X135867747Y-96037184D02*
X135988700Y-96158136D01*
X135988700Y-96158136D02*
X136049176Y-96339565D01*
X136049176Y-96339565D02*
X136049176Y-96641946D01*
X136049176Y-94646231D02*
X135444414Y-95069565D01*
X136049176Y-95371946D02*
X134779176Y-95371946D01*
X134779176Y-95371946D02*
X134779176Y-94888136D01*
X134779176Y-94888136D02*
X134839652Y-94767184D01*
X134839652Y-94767184D02*
X134900128Y-94706707D01*
X134900128Y-94706707D02*
X135021080Y-94646231D01*
X135021080Y-94646231D02*
X135202509Y-94646231D01*
X135202509Y-94646231D02*
X135323461Y-94706707D01*
X135323461Y-94706707D02*
X135383938Y-94767184D01*
X135383938Y-94767184D02*
X135444414Y-94888136D01*
X135444414Y-94888136D02*
X135444414Y-95371946D01*
X136049176Y-94101946D02*
X134779176Y-94101946D01*
X134779176Y-93678612D02*
X136049176Y-93255279D01*
X136049176Y-93255279D02*
X134779176Y-92831945D01*
X135383938Y-92408613D02*
X135383938Y-91985279D01*
X136049176Y-91803851D02*
X136049176Y-92408613D01*
X136049176Y-92408613D02*
X134779176Y-92408613D01*
X134779176Y-92408613D02*
X134779176Y-91803851D01*
X136049176Y-90533850D02*
X135444414Y-90957184D01*
X136049176Y-91259565D02*
X134779176Y-91259565D01*
X134779176Y-91259565D02*
X134779176Y-90775755D01*
X134779176Y-90775755D02*
X134839652Y-90654803D01*
X134839652Y-90654803D02*
X134900128Y-90594326D01*
X134900128Y-90594326D02*
X135021080Y-90533850D01*
X135021080Y-90533850D02*
X135202509Y-90533850D01*
X135202509Y-90533850D02*
X135323461Y-90594326D01*
X135323461Y-90594326D02*
X135383938Y-90654803D01*
X135383938Y-90654803D02*
X135444414Y-90775755D01*
X135444414Y-90775755D02*
X135444414Y-91259565D01*
X135202509Y-89142898D02*
X136049176Y-88840517D01*
X136049176Y-88840517D02*
X135202509Y-88538136D01*
X134900128Y-88114803D02*
X134839652Y-88054327D01*
X134839652Y-88054327D02*
X134779176Y-87933374D01*
X134779176Y-87933374D02*
X134779176Y-87630993D01*
X134779176Y-87630993D02*
X134839652Y-87510041D01*
X134839652Y-87510041D02*
X134900128Y-87449565D01*
X134900128Y-87449565D02*
X135021080Y-87389088D01*
X135021080Y-87389088D02*
X135142033Y-87389088D01*
X135142033Y-87389088D02*
X135323461Y-87449565D01*
X135323461Y-87449565D02*
X136049176Y-88175279D01*
X136049176Y-88175279D02*
X136049176Y-87389088D01*
X135928223Y-86844803D02*
X135988700Y-86784326D01*
X135988700Y-86784326D02*
X136049176Y-86844803D01*
X136049176Y-86844803D02*
X135988700Y-86905279D01*
X135988700Y-86905279D02*
X135928223Y-86844803D01*
X135928223Y-86844803D02*
X136049176Y-86844803D01*
X134779176Y-85998136D02*
X134779176Y-85877183D01*
X134779176Y-85877183D02*
X134839652Y-85756231D01*
X134839652Y-85756231D02*
X134900128Y-85695755D01*
X134900128Y-85695755D02*
X135021080Y-85635279D01*
X135021080Y-85635279D02*
X135262985Y-85574802D01*
X135262985Y-85574802D02*
X135565366Y-85574802D01*
X135565366Y-85574802D02*
X135807271Y-85635279D01*
X135807271Y-85635279D02*
X135928223Y-85695755D01*
X135928223Y-85695755D02*
X135988700Y-85756231D01*
X135988700Y-85756231D02*
X136049176Y-85877183D01*
X136049176Y-85877183D02*
X136049176Y-85998136D01*
X136049176Y-85998136D02*
X135988700Y-86119088D01*
X135988700Y-86119088D02*
X135928223Y-86179564D01*
X135928223Y-86179564D02*
X135807271Y-86240041D01*
X135807271Y-86240041D02*
X135565366Y-86300517D01*
X135565366Y-86300517D02*
X135262985Y-86300517D01*
X135262985Y-86300517D02*
X135021080Y-86240041D01*
X135021080Y-86240041D02*
X134900128Y-86179564D01*
X134900128Y-86179564D02*
X134839652Y-86119088D01*
X134839652Y-86119088D02*
X134779176Y-85998136D01*
D15*
X139962467Y-76367918D02*
X139962467Y-77275061D01*
X139962467Y-77275061D02*
X139901990Y-77456489D01*
X139901990Y-77456489D02*
X139781038Y-77577442D01*
X139781038Y-77577442D02*
X139599609Y-77637918D01*
X139599609Y-77637918D02*
X139478657Y-77637918D01*
X141232467Y-77637918D02*
X140506752Y-77637918D01*
X140869609Y-77637918D02*
X140869609Y-76367918D01*
X140869609Y-76367918D02*
X140748657Y-76549346D01*
X140748657Y-76549346D02*
X140627705Y-76670299D01*
X140627705Y-76670299D02*
X140506752Y-76730775D01*
X142296847Y-100898270D02*
X142175895Y-100837794D01*
X142175895Y-100837794D02*
X142054942Y-100716842D01*
X142054942Y-100716842D02*
X141873514Y-100535413D01*
X141873514Y-100535413D02*
X141752561Y-100474937D01*
X141752561Y-100474937D02*
X141631609Y-100474937D01*
X141692085Y-100777318D02*
X141571133Y-100716842D01*
X141571133Y-100716842D02*
X141450180Y-100595889D01*
X141450180Y-100595889D02*
X141389704Y-100353984D01*
X141389704Y-100353984D02*
X141389704Y-99930651D01*
X141389704Y-99930651D02*
X141450180Y-99688746D01*
X141450180Y-99688746D02*
X141571133Y-99567794D01*
X141571133Y-99567794D02*
X141692085Y-99507318D01*
X141692085Y-99507318D02*
X141933990Y-99507318D01*
X141933990Y-99507318D02*
X142054942Y-99567794D01*
X142054942Y-99567794D02*
X142175895Y-99688746D01*
X142175895Y-99688746D02*
X142236371Y-99930651D01*
X142236371Y-99930651D02*
X142236371Y-100353984D01*
X142236371Y-100353984D02*
X142175895Y-100595889D01*
X142175895Y-100595889D02*
X142054942Y-100716842D01*
X142054942Y-100716842D02*
X141933990Y-100777318D01*
X141933990Y-100777318D02*
X141692085Y-100777318D01*
X143445895Y-100777318D02*
X142720180Y-100777318D01*
X143083037Y-100777318D02*
X143083037Y-99507318D01*
X143083037Y-99507318D02*
X142962085Y-99688746D01*
X142962085Y-99688746D02*
X142841133Y-99809699D01*
X142841133Y-99809699D02*
X142720180Y-99870175D01*
X142527867Y-112004118D02*
X142527867Y-112911261D01*
X142527867Y-112911261D02*
X142467390Y-113092689D01*
X142467390Y-113092689D02*
X142346438Y-113213642D01*
X142346438Y-113213642D02*
X142165009Y-113274118D01*
X142165009Y-113274118D02*
X142044057Y-113274118D01*
X143072152Y-112125070D02*
X143132628Y-112064594D01*
X143132628Y-112064594D02*
X143253581Y-112004118D01*
X143253581Y-112004118D02*
X143555962Y-112004118D01*
X143555962Y-112004118D02*
X143676914Y-112064594D01*
X143676914Y-112064594D02*
X143737390Y-112125070D01*
X143737390Y-112125070D02*
X143797867Y-112246022D01*
X143797867Y-112246022D02*
X143797867Y-112366975D01*
X143797867Y-112366975D02*
X143737390Y-112548403D01*
X143737390Y-112548403D02*
X143011676Y-113274118D01*
X143011676Y-113274118D02*
X143797867Y-113274118D01*
D14*
X142235019Y-94464666D02*
X141758828Y-94797999D01*
X142235019Y-95036094D02*
X141235019Y-95036094D01*
X141235019Y-95036094D02*
X141235019Y-94655142D01*
X141235019Y-94655142D02*
X141282638Y-94559904D01*
X141282638Y-94559904D02*
X141330257Y-94512285D01*
X141330257Y-94512285D02*
X141425495Y-94464666D01*
X141425495Y-94464666D02*
X141568352Y-94464666D01*
X141568352Y-94464666D02*
X141663590Y-94512285D01*
X141663590Y-94512285D02*
X141711209Y-94559904D01*
X141711209Y-94559904D02*
X141758828Y-94655142D01*
X141758828Y-94655142D02*
X141758828Y-95036094D01*
X141330257Y-94083713D02*
X141282638Y-94036094D01*
X141282638Y-94036094D02*
X141235019Y-93940856D01*
X141235019Y-93940856D02*
X141235019Y-93702761D01*
X141235019Y-93702761D02*
X141282638Y-93607523D01*
X141282638Y-93607523D02*
X141330257Y-93559904D01*
X141330257Y-93559904D02*
X141425495Y-93512285D01*
X141425495Y-93512285D02*
X141520733Y-93512285D01*
X141520733Y-93512285D02*
X141663590Y-93559904D01*
X141663590Y-93559904D02*
X142235019Y-94131332D01*
X142235019Y-94131332D02*
X142235019Y-93512285D01*
D15*
X156736047Y-101076070D02*
X156615095Y-101015594D01*
X156615095Y-101015594D02*
X156494142Y-100894642D01*
X156494142Y-100894642D02*
X156312714Y-100713213D01*
X156312714Y-100713213D02*
X156191761Y-100652737D01*
X156191761Y-100652737D02*
X156070809Y-100652737D01*
X156131285Y-100955118D02*
X156010333Y-100894642D01*
X156010333Y-100894642D02*
X155889380Y-100773689D01*
X155889380Y-100773689D02*
X155828904Y-100531784D01*
X155828904Y-100531784D02*
X155828904Y-100108451D01*
X155828904Y-100108451D02*
X155889380Y-99866546D01*
X155889380Y-99866546D02*
X156010333Y-99745594D01*
X156010333Y-99745594D02*
X156131285Y-99685118D01*
X156131285Y-99685118D02*
X156373190Y-99685118D01*
X156373190Y-99685118D02*
X156494142Y-99745594D01*
X156494142Y-99745594D02*
X156615095Y-99866546D01*
X156615095Y-99866546D02*
X156675571Y-100108451D01*
X156675571Y-100108451D02*
X156675571Y-100531784D01*
X156675571Y-100531784D02*
X156615095Y-100773689D01*
X156615095Y-100773689D02*
X156494142Y-100894642D01*
X156494142Y-100894642D02*
X156373190Y-100955118D01*
X156373190Y-100955118D02*
X156131285Y-100955118D01*
X157098904Y-99685118D02*
X157885095Y-99685118D01*
X157885095Y-99685118D02*
X157461761Y-100168927D01*
X157461761Y-100168927D02*
X157643190Y-100168927D01*
X157643190Y-100168927D02*
X157764142Y-100229403D01*
X157764142Y-100229403D02*
X157824618Y-100289880D01*
X157824618Y-100289880D02*
X157885095Y-100410832D01*
X157885095Y-100410832D02*
X157885095Y-100713213D01*
X157885095Y-100713213D02*
X157824618Y-100834165D01*
X157824618Y-100834165D02*
X157764142Y-100894642D01*
X157764142Y-100894642D02*
X157643190Y-100955118D01*
X157643190Y-100955118D02*
X157280333Y-100955118D01*
X157280333Y-100955118D02*
X157159380Y-100894642D01*
X157159380Y-100894642D02*
X157098904Y-100834165D01*
D14*
X143886019Y-94464666D02*
X143409828Y-94797999D01*
X143886019Y-95036094D02*
X142886019Y-95036094D01*
X142886019Y-95036094D02*
X142886019Y-94655142D01*
X142886019Y-94655142D02*
X142933638Y-94559904D01*
X142933638Y-94559904D02*
X142981257Y-94512285D01*
X142981257Y-94512285D02*
X143076495Y-94464666D01*
X143076495Y-94464666D02*
X143219352Y-94464666D01*
X143219352Y-94464666D02*
X143314590Y-94512285D01*
X143314590Y-94512285D02*
X143362209Y-94559904D01*
X143362209Y-94559904D02*
X143409828Y-94655142D01*
X143409828Y-94655142D02*
X143409828Y-95036094D01*
X143886019Y-93512285D02*
X143886019Y-94083713D01*
X143886019Y-93797999D02*
X142886019Y-93797999D01*
X142886019Y-93797999D02*
X143028876Y-93893237D01*
X143028876Y-93893237D02*
X143124114Y-93988475D01*
X143124114Y-93988475D02*
X143171733Y-94083713D01*
X149524819Y-94463666D02*
X149048628Y-94796999D01*
X149524819Y-95035094D02*
X148524819Y-95035094D01*
X148524819Y-95035094D02*
X148524819Y-94654142D01*
X148524819Y-94654142D02*
X148572438Y-94558904D01*
X148572438Y-94558904D02*
X148620057Y-94511285D01*
X148620057Y-94511285D02*
X148715295Y-94463666D01*
X148715295Y-94463666D02*
X148858152Y-94463666D01*
X148858152Y-94463666D02*
X148953390Y-94511285D01*
X148953390Y-94511285D02*
X149001009Y-94558904D01*
X149001009Y-94558904D02*
X149048628Y-94654142D01*
X149048628Y-94654142D02*
X149048628Y-95035094D01*
X148858152Y-93606523D02*
X149524819Y-93606523D01*
X148477200Y-93844618D02*
X149191485Y-94082713D01*
X149191485Y-94082713D02*
X149191485Y-93463666D01*
X151201219Y-94526666D02*
X150725028Y-94859999D01*
X151201219Y-95098094D02*
X150201219Y-95098094D01*
X150201219Y-95098094D02*
X150201219Y-94717142D01*
X150201219Y-94717142D02*
X150248838Y-94621904D01*
X150248838Y-94621904D02*
X150296457Y-94574285D01*
X150296457Y-94574285D02*
X150391695Y-94526666D01*
X150391695Y-94526666D02*
X150534552Y-94526666D01*
X150534552Y-94526666D02*
X150629790Y-94574285D01*
X150629790Y-94574285D02*
X150677409Y-94621904D01*
X150677409Y-94621904D02*
X150725028Y-94717142D01*
X150725028Y-94717142D02*
X150725028Y-95098094D01*
X150201219Y-94193332D02*
X150201219Y-93574285D01*
X150201219Y-93574285D02*
X150582171Y-93907618D01*
X150582171Y-93907618D02*
X150582171Y-93764761D01*
X150582171Y-93764761D02*
X150629790Y-93669523D01*
X150629790Y-93669523D02*
X150677409Y-93621904D01*
X150677409Y-93621904D02*
X150772647Y-93574285D01*
X150772647Y-93574285D02*
X151010742Y-93574285D01*
X151010742Y-93574285D02*
X151105980Y-93621904D01*
X151105980Y-93621904D02*
X151153600Y-93669523D01*
X151153600Y-93669523D02*
X151201219Y-93764761D01*
X151201219Y-93764761D02*
X151201219Y-94050475D01*
X151201219Y-94050475D02*
X151153600Y-94145713D01*
X151153600Y-94145713D02*
X151105980Y-94193332D01*
X156566619Y-94399866D02*
X156090428Y-94733199D01*
X156566619Y-94971294D02*
X155566619Y-94971294D01*
X155566619Y-94971294D02*
X155566619Y-94590342D01*
X155566619Y-94590342D02*
X155614238Y-94495104D01*
X155614238Y-94495104D02*
X155661857Y-94447485D01*
X155661857Y-94447485D02*
X155757095Y-94399866D01*
X155757095Y-94399866D02*
X155899952Y-94399866D01*
X155899952Y-94399866D02*
X155995190Y-94447485D01*
X155995190Y-94447485D02*
X156042809Y-94495104D01*
X156042809Y-94495104D02*
X156090428Y-94590342D01*
X156090428Y-94590342D02*
X156090428Y-94971294D01*
X155566619Y-93542723D02*
X155566619Y-93733199D01*
X155566619Y-93733199D02*
X155614238Y-93828437D01*
X155614238Y-93828437D02*
X155661857Y-93876056D01*
X155661857Y-93876056D02*
X155804714Y-93971294D01*
X155804714Y-93971294D02*
X155995190Y-94018913D01*
X155995190Y-94018913D02*
X156376142Y-94018913D01*
X156376142Y-94018913D02*
X156471380Y-93971294D01*
X156471380Y-93971294D02*
X156519000Y-93923675D01*
X156519000Y-93923675D02*
X156566619Y-93828437D01*
X156566619Y-93828437D02*
X156566619Y-93637961D01*
X156566619Y-93637961D02*
X156519000Y-93542723D01*
X156519000Y-93542723D02*
X156471380Y-93495104D01*
X156471380Y-93495104D02*
X156376142Y-93447485D01*
X156376142Y-93447485D02*
X156138047Y-93447485D01*
X156138047Y-93447485D02*
X156042809Y-93495104D01*
X156042809Y-93495104D02*
X155995190Y-93542723D01*
X155995190Y-93542723D02*
X155947571Y-93637961D01*
X155947571Y-93637961D02*
X155947571Y-93828437D01*
X155947571Y-93828437D02*
X155995190Y-93923675D01*
X155995190Y-93923675D02*
X156042809Y-93971294D01*
X156042809Y-93971294D02*
X156138047Y-94018913D01*
D15*
X149485047Y-101076870D02*
X149364095Y-101016394D01*
X149364095Y-101016394D02*
X149243142Y-100895442D01*
X149243142Y-100895442D02*
X149061714Y-100714013D01*
X149061714Y-100714013D02*
X148940761Y-100653537D01*
X148940761Y-100653537D02*
X148819809Y-100653537D01*
X148880285Y-100955918D02*
X148759333Y-100895442D01*
X148759333Y-100895442D02*
X148638380Y-100774489D01*
X148638380Y-100774489D02*
X148577904Y-100532584D01*
X148577904Y-100532584D02*
X148577904Y-100109251D01*
X148577904Y-100109251D02*
X148638380Y-99867346D01*
X148638380Y-99867346D02*
X148759333Y-99746394D01*
X148759333Y-99746394D02*
X148880285Y-99685918D01*
X148880285Y-99685918D02*
X149122190Y-99685918D01*
X149122190Y-99685918D02*
X149243142Y-99746394D01*
X149243142Y-99746394D02*
X149364095Y-99867346D01*
X149364095Y-99867346D02*
X149424571Y-100109251D01*
X149424571Y-100109251D02*
X149424571Y-100532584D01*
X149424571Y-100532584D02*
X149364095Y-100774489D01*
X149364095Y-100774489D02*
X149243142Y-100895442D01*
X149243142Y-100895442D02*
X149122190Y-100955918D01*
X149122190Y-100955918D02*
X148880285Y-100955918D01*
X149908380Y-99806870D02*
X149968856Y-99746394D01*
X149968856Y-99746394D02*
X150089809Y-99685918D01*
X150089809Y-99685918D02*
X150392190Y-99685918D01*
X150392190Y-99685918D02*
X150513142Y-99746394D01*
X150513142Y-99746394D02*
X150573618Y-99806870D01*
X150573618Y-99806870D02*
X150634095Y-99927822D01*
X150634095Y-99927822D02*
X150634095Y-100048775D01*
X150634095Y-100048775D02*
X150573618Y-100230203D01*
X150573618Y-100230203D02*
X149847904Y-100955918D01*
X149847904Y-100955918D02*
X150634095Y-100955918D01*
D14*
X158090619Y-94399866D02*
X157614428Y-94733199D01*
X158090619Y-94971294D02*
X157090619Y-94971294D01*
X157090619Y-94971294D02*
X157090619Y-94590342D01*
X157090619Y-94590342D02*
X157138238Y-94495104D01*
X157138238Y-94495104D02*
X157185857Y-94447485D01*
X157185857Y-94447485D02*
X157281095Y-94399866D01*
X157281095Y-94399866D02*
X157423952Y-94399866D01*
X157423952Y-94399866D02*
X157519190Y-94447485D01*
X157519190Y-94447485D02*
X157566809Y-94495104D01*
X157566809Y-94495104D02*
X157614428Y-94590342D01*
X157614428Y-94590342D02*
X157614428Y-94971294D01*
X157090619Y-93495104D02*
X157090619Y-93971294D01*
X157090619Y-93971294D02*
X157566809Y-94018913D01*
X157566809Y-94018913D02*
X157519190Y-93971294D01*
X157519190Y-93971294D02*
X157471571Y-93876056D01*
X157471571Y-93876056D02*
X157471571Y-93637961D01*
X157471571Y-93637961D02*
X157519190Y-93542723D01*
X157519190Y-93542723D02*
X157566809Y-93495104D01*
X157566809Y-93495104D02*
X157662047Y-93447485D01*
X157662047Y-93447485D02*
X157900142Y-93447485D01*
X157900142Y-93447485D02*
X157995380Y-93495104D01*
X157995380Y-93495104D02*
X158043000Y-93542723D01*
X158043000Y-93542723D02*
X158090619Y-93637961D01*
X158090619Y-93637961D02*
X158090619Y-93876056D01*
X158090619Y-93876056D02*
X158043000Y-93971294D01*
X158043000Y-93971294D02*
X157995380Y-94018913D01*
%TO.C,J1*%
X142316200Y-75819000D02*
X142316200Y-81463000D01*
X151316200Y-75819000D02*
X142316200Y-75819000D01*
X151316200Y-88663000D02*
X151316200Y-75819000D01*
X146696050Y-90014000D02*
G75*
G03*
X146696050Y-90014000I-118850J0D01*
G01*
D15*
%TO.C,Q1*%
X145717800Y-108565450D02*
X145717800Y-102465450D01*
X145717800Y-102465450D02*
X139117800Y-102465450D01*
X139117800Y-102465450D02*
X139117800Y-108565450D01*
D16*
%TO.C,J2*%
X142489800Y-114561200D02*
X142489800Y-117301200D01*
X142489800Y-119921200D02*
X142489800Y-120561200D01*
X142489800Y-120561200D02*
X151489800Y-120561200D01*
X144019800Y-114561200D02*
X142489800Y-114561200D01*
X149959800Y-114561200D02*
X151489800Y-114561200D01*
X151489800Y-114561200D02*
X151489800Y-117301200D01*
X151489800Y-120561200D02*
X151489800Y-119921200D01*
D14*
X144839800Y-113011200D02*
G75*
G03*
X144839800Y-113011200I-100000J0D01*
G01*
D17*
%TO.C,R2*%
X142305300Y-96536742D02*
X142305300Y-97011258D01*
X141260300Y-96536742D02*
X141260300Y-97011258D01*
D15*
%TO.C,Q3*%
X160201800Y-108580800D02*
X160201800Y-102480800D01*
X160201800Y-102480800D02*
X153601800Y-102480800D01*
X153601800Y-102480800D02*
X153601800Y-108580800D01*
D17*
%TO.C,R1*%
X143956300Y-96536742D02*
X143956300Y-97011258D01*
X142911300Y-96536742D02*
X142911300Y-97011258D01*
%TO.C,R4*%
X149595100Y-96536742D02*
X149595100Y-97011258D01*
X148550100Y-96536742D02*
X148550100Y-97011258D01*
%TO.C,R3*%
X151271500Y-96535742D02*
X151271500Y-97010258D01*
X150226500Y-96535742D02*
X150226500Y-97010258D01*
%TO.C,R6*%
X156509900Y-96535942D02*
X156509900Y-97010458D01*
X155464900Y-96535942D02*
X155464900Y-97010458D01*
D15*
%TO.C,Q2*%
X152906000Y-108581600D02*
X152906000Y-102481600D01*
X152906000Y-102481600D02*
X146306000Y-102481600D01*
X146306000Y-102481600D02*
X146306000Y-108581600D01*
D17*
%TO.C,R5*%
X158160900Y-96535942D02*
X158160900Y-97010458D01*
X157115900Y-96535942D02*
X157115900Y-97010458D01*
%TD*%
M02*
