%TF.GenerationSoftware,KiCad,Pcbnew,7.0.7*%
%TF.CreationDate,2024-03-20T19:05:46+01:00*%
%TF.ProjectId,DriverRGB_v2,44726976-6572-4524-9742-5f76322e6b69,v02*%
%TF.SameCoordinates,Original*%
%TF.FileFunction,Legend,Top*%
%TF.FilePolarity,Positive*%
%FSLAX46Y46*%
G04 Gerber Fmt 4.6, Leading zero omitted, Abs format (unit mm)*
G04 Created by KiCad (PCBNEW 7.0.7) date 2024-03-20 19:05:46*
%MOMM*%
%LPD*%
G01*
G04 APERTURE LIST*
%ADD10C,0.200000*%
%ADD11C,0.300000*%
%ADD12C,0.254000*%
%ADD13C,0.127000*%
%ADD14C,0.120000*%
G04 APERTURE END LIST*
D10*
X153085819Y-87768326D02*
X152085819Y-87768326D01*
X152085819Y-87768326D02*
X152085819Y-87530231D01*
X152085819Y-87530231D02*
X152133438Y-87387374D01*
X152133438Y-87387374D02*
X152228676Y-87292136D01*
X152228676Y-87292136D02*
X152323914Y-87244517D01*
X152323914Y-87244517D02*
X152514390Y-87196898D01*
X152514390Y-87196898D02*
X152657247Y-87196898D01*
X152657247Y-87196898D02*
X152847723Y-87244517D01*
X152847723Y-87244517D02*
X152942961Y-87292136D01*
X152942961Y-87292136D02*
X153038200Y-87387374D01*
X153038200Y-87387374D02*
X153085819Y-87530231D01*
X153085819Y-87530231D02*
X153085819Y-87768326D01*
X153038200Y-86387374D02*
X153085819Y-86482612D01*
X153085819Y-86482612D02*
X153085819Y-86673088D01*
X153085819Y-86673088D02*
X153038200Y-86768326D01*
X153038200Y-86768326D02*
X152942961Y-86815945D01*
X152942961Y-86815945D02*
X152562009Y-86815945D01*
X152562009Y-86815945D02*
X152466771Y-86768326D01*
X152466771Y-86768326D02*
X152419152Y-86673088D01*
X152419152Y-86673088D02*
X152419152Y-86482612D01*
X152419152Y-86482612D02*
X152466771Y-86387374D01*
X152466771Y-86387374D02*
X152562009Y-86339755D01*
X152562009Y-86339755D02*
X152657247Y-86339755D01*
X152657247Y-86339755D02*
X152752485Y-86815945D01*
X153038200Y-85958802D02*
X153085819Y-85863564D01*
X153085819Y-85863564D02*
X153085819Y-85673088D01*
X153085819Y-85673088D02*
X153038200Y-85577850D01*
X153038200Y-85577850D02*
X152942961Y-85530231D01*
X152942961Y-85530231D02*
X152895342Y-85530231D01*
X152895342Y-85530231D02*
X152800104Y-85577850D01*
X152800104Y-85577850D02*
X152752485Y-85673088D01*
X152752485Y-85673088D02*
X152752485Y-85815945D01*
X152752485Y-85815945D02*
X152704866Y-85911183D01*
X152704866Y-85911183D02*
X152609628Y-85958802D01*
X152609628Y-85958802D02*
X152562009Y-85958802D01*
X152562009Y-85958802D02*
X152466771Y-85911183D01*
X152466771Y-85911183D02*
X152419152Y-85815945D01*
X152419152Y-85815945D02*
X152419152Y-85673088D01*
X152419152Y-85673088D02*
X152466771Y-85577850D01*
X153085819Y-85101659D02*
X152419152Y-85101659D01*
X152085819Y-85101659D02*
X152133438Y-85149278D01*
X152133438Y-85149278D02*
X152181057Y-85101659D01*
X152181057Y-85101659D02*
X152133438Y-85054040D01*
X152133438Y-85054040D02*
X152085819Y-85101659D01*
X152085819Y-85101659D02*
X152181057Y-85101659D01*
X152419152Y-84196898D02*
X153228676Y-84196898D01*
X153228676Y-84196898D02*
X153323914Y-84244517D01*
X153323914Y-84244517D02*
X153371533Y-84292136D01*
X153371533Y-84292136D02*
X153419152Y-84387374D01*
X153419152Y-84387374D02*
X153419152Y-84530231D01*
X153419152Y-84530231D02*
X153371533Y-84625469D01*
X153038200Y-84196898D02*
X153085819Y-84292136D01*
X153085819Y-84292136D02*
X153085819Y-84482612D01*
X153085819Y-84482612D02*
X153038200Y-84577850D01*
X153038200Y-84577850D02*
X152990580Y-84625469D01*
X152990580Y-84625469D02*
X152895342Y-84673088D01*
X152895342Y-84673088D02*
X152609628Y-84673088D01*
X152609628Y-84673088D02*
X152514390Y-84625469D01*
X152514390Y-84625469D02*
X152466771Y-84577850D01*
X152466771Y-84577850D02*
X152419152Y-84482612D01*
X152419152Y-84482612D02*
X152419152Y-84292136D01*
X152419152Y-84292136D02*
X152466771Y-84196898D01*
X152419152Y-83720707D02*
X153085819Y-83720707D01*
X152514390Y-83720707D02*
X152466771Y-83673088D01*
X152466771Y-83673088D02*
X152419152Y-83577850D01*
X152419152Y-83577850D02*
X152419152Y-83434993D01*
X152419152Y-83434993D02*
X152466771Y-83339755D01*
X152466771Y-83339755D02*
X152562009Y-83292136D01*
X152562009Y-83292136D02*
X153085819Y-83292136D01*
X153038200Y-82434993D02*
X153085819Y-82530231D01*
X153085819Y-82530231D02*
X153085819Y-82720707D01*
X153085819Y-82720707D02*
X153038200Y-82815945D01*
X153038200Y-82815945D02*
X152942961Y-82863564D01*
X152942961Y-82863564D02*
X152562009Y-82863564D01*
X152562009Y-82863564D02*
X152466771Y-82815945D01*
X152466771Y-82815945D02*
X152419152Y-82720707D01*
X152419152Y-82720707D02*
X152419152Y-82530231D01*
X152419152Y-82530231D02*
X152466771Y-82434993D01*
X152466771Y-82434993D02*
X152562009Y-82387374D01*
X152562009Y-82387374D02*
X152657247Y-82387374D01*
X152657247Y-82387374D02*
X152752485Y-82863564D01*
X153085819Y-81530231D02*
X152085819Y-81530231D01*
X153038200Y-81530231D02*
X153085819Y-81625469D01*
X153085819Y-81625469D02*
X153085819Y-81815945D01*
X153085819Y-81815945D02*
X153038200Y-81911183D01*
X153038200Y-81911183D02*
X152990580Y-81958802D01*
X152990580Y-81958802D02*
X152895342Y-82006421D01*
X152895342Y-82006421D02*
X152609628Y-82006421D01*
X152609628Y-82006421D02*
X152514390Y-81958802D01*
X152514390Y-81958802D02*
X152466771Y-81911183D01*
X152466771Y-81911183D02*
X152419152Y-81815945D01*
X152419152Y-81815945D02*
X152419152Y-81625469D01*
X152419152Y-81625469D02*
X152466771Y-81530231D01*
X153085819Y-80292135D02*
X152085819Y-80292135D01*
X152466771Y-80292135D02*
X152419152Y-80196897D01*
X152419152Y-80196897D02*
X152419152Y-80006421D01*
X152419152Y-80006421D02*
X152466771Y-79911183D01*
X152466771Y-79911183D02*
X152514390Y-79863564D01*
X152514390Y-79863564D02*
X152609628Y-79815945D01*
X152609628Y-79815945D02*
X152895342Y-79815945D01*
X152895342Y-79815945D02*
X152990580Y-79863564D01*
X152990580Y-79863564D02*
X153038200Y-79911183D01*
X153038200Y-79911183D02*
X153085819Y-80006421D01*
X153085819Y-80006421D02*
X153085819Y-80196897D01*
X153085819Y-80196897D02*
X153038200Y-80292135D01*
X152419152Y-79482611D02*
X153085819Y-79244516D01*
X152419152Y-79006421D02*
X153085819Y-79244516D01*
X153085819Y-79244516D02*
X153323914Y-79339754D01*
X153323914Y-79339754D02*
X153371533Y-79387373D01*
X153371533Y-79387373D02*
X153419152Y-79482611D01*
X152990580Y-78625468D02*
X153038200Y-78577849D01*
X153038200Y-78577849D02*
X153085819Y-78625468D01*
X153085819Y-78625468D02*
X153038200Y-78673087D01*
X153038200Y-78673087D02*
X152990580Y-78625468D01*
X152990580Y-78625468D02*
X153085819Y-78625468D01*
X152466771Y-78625468D02*
X152514390Y-78577849D01*
X152514390Y-78577849D02*
X152562009Y-78625468D01*
X152562009Y-78625468D02*
X152514390Y-78673087D01*
X152514390Y-78673087D02*
X152466771Y-78625468D01*
X152466771Y-78625468D02*
X152562009Y-78625468D01*
X153695819Y-87482612D02*
X154410104Y-87482612D01*
X154410104Y-87482612D02*
X154552961Y-87530231D01*
X154552961Y-87530231D02*
X154648200Y-87625469D01*
X154648200Y-87625469D02*
X154695819Y-87768326D01*
X154695819Y-87768326D02*
X154695819Y-87863564D01*
X154029152Y-86577850D02*
X154695819Y-86577850D01*
X154029152Y-87006421D02*
X154552961Y-87006421D01*
X154552961Y-87006421D02*
X154648200Y-86958802D01*
X154648200Y-86958802D02*
X154695819Y-86863564D01*
X154695819Y-86863564D02*
X154695819Y-86720707D01*
X154695819Y-86720707D02*
X154648200Y-86625469D01*
X154648200Y-86625469D02*
X154600580Y-86577850D01*
X154695819Y-85673088D02*
X154172009Y-85673088D01*
X154172009Y-85673088D02*
X154076771Y-85720707D01*
X154076771Y-85720707D02*
X154029152Y-85815945D01*
X154029152Y-85815945D02*
X154029152Y-86006421D01*
X154029152Y-86006421D02*
X154076771Y-86101659D01*
X154648200Y-85673088D02*
X154695819Y-85768326D01*
X154695819Y-85768326D02*
X154695819Y-86006421D01*
X154695819Y-86006421D02*
X154648200Y-86101659D01*
X154648200Y-86101659D02*
X154552961Y-86149278D01*
X154552961Y-86149278D02*
X154457723Y-86149278D01*
X154457723Y-86149278D02*
X154362485Y-86101659D01*
X154362485Y-86101659D02*
X154314866Y-86006421D01*
X154314866Y-86006421D02*
X154314866Y-85768326D01*
X154314866Y-85768326D02*
X154267247Y-85673088D01*
X154029152Y-85196897D02*
X154695819Y-85196897D01*
X154124390Y-85196897D02*
X154076771Y-85149278D01*
X154076771Y-85149278D02*
X154029152Y-85054040D01*
X154029152Y-85054040D02*
X154029152Y-84911183D01*
X154029152Y-84911183D02*
X154076771Y-84815945D01*
X154076771Y-84815945D02*
X154172009Y-84768326D01*
X154172009Y-84768326D02*
X154695819Y-84768326D01*
X154410104Y-83577849D02*
X154410104Y-83101659D01*
X154695819Y-83673087D02*
X153695819Y-83339754D01*
X153695819Y-83339754D02*
X154695819Y-83006421D01*
X154029152Y-82673087D02*
X154695819Y-82673087D01*
X154124390Y-82673087D02*
X154076771Y-82625468D01*
X154076771Y-82625468D02*
X154029152Y-82530230D01*
X154029152Y-82530230D02*
X154029152Y-82387373D01*
X154029152Y-82387373D02*
X154076771Y-82292135D01*
X154076771Y-82292135D02*
X154172009Y-82244516D01*
X154172009Y-82244516D02*
X154695819Y-82244516D01*
X154029152Y-81911182D02*
X154029152Y-81530230D01*
X153695819Y-81768325D02*
X154552961Y-81768325D01*
X154552961Y-81768325D02*
X154648200Y-81720706D01*
X154648200Y-81720706D02*
X154695819Y-81625468D01*
X154695819Y-81625468D02*
X154695819Y-81530230D01*
X154695819Y-81054039D02*
X154648200Y-81149277D01*
X154648200Y-81149277D02*
X154600580Y-81196896D01*
X154600580Y-81196896D02*
X154505342Y-81244515D01*
X154505342Y-81244515D02*
X154219628Y-81244515D01*
X154219628Y-81244515D02*
X154124390Y-81196896D01*
X154124390Y-81196896D02*
X154076771Y-81149277D01*
X154076771Y-81149277D02*
X154029152Y-81054039D01*
X154029152Y-81054039D02*
X154029152Y-80911182D01*
X154029152Y-80911182D02*
X154076771Y-80815944D01*
X154076771Y-80815944D02*
X154124390Y-80768325D01*
X154124390Y-80768325D02*
X154219628Y-80720706D01*
X154219628Y-80720706D02*
X154505342Y-80720706D01*
X154505342Y-80720706D02*
X154600580Y-80768325D01*
X154600580Y-80768325D02*
X154648200Y-80815944D01*
X154648200Y-80815944D02*
X154695819Y-80911182D01*
X154695819Y-80911182D02*
X154695819Y-81054039D01*
X154029152Y-80292134D02*
X154695819Y-80292134D01*
X154124390Y-80292134D02*
X154076771Y-80244515D01*
X154076771Y-80244515D02*
X154029152Y-80149277D01*
X154029152Y-80149277D02*
X154029152Y-80006420D01*
X154029152Y-80006420D02*
X154076771Y-79911182D01*
X154076771Y-79911182D02*
X154172009Y-79863563D01*
X154172009Y-79863563D02*
X154695819Y-79863563D01*
X154695819Y-79387372D02*
X154029152Y-79387372D01*
X153695819Y-79387372D02*
X153743438Y-79434991D01*
X153743438Y-79434991D02*
X153791057Y-79387372D01*
X153791057Y-79387372D02*
X153743438Y-79339753D01*
X153743438Y-79339753D02*
X153695819Y-79387372D01*
X153695819Y-79387372D02*
X153791057Y-79387372D01*
X154695819Y-78768325D02*
X154648200Y-78863563D01*
X154648200Y-78863563D02*
X154600580Y-78911182D01*
X154600580Y-78911182D02*
X154505342Y-78958801D01*
X154505342Y-78958801D02*
X154219628Y-78958801D01*
X154219628Y-78958801D02*
X154124390Y-78911182D01*
X154124390Y-78911182D02*
X154076771Y-78863563D01*
X154076771Y-78863563D02*
X154029152Y-78768325D01*
X154029152Y-78768325D02*
X154029152Y-78625468D01*
X154029152Y-78625468D02*
X154076771Y-78530230D01*
X154076771Y-78530230D02*
X154124390Y-78482611D01*
X154124390Y-78482611D02*
X154219628Y-78434992D01*
X154219628Y-78434992D02*
X154505342Y-78434992D01*
X154505342Y-78434992D02*
X154600580Y-78482611D01*
X154600580Y-78482611D02*
X154648200Y-78530230D01*
X154648200Y-78530230D02*
X154695819Y-78625468D01*
X154695819Y-78625468D02*
X154695819Y-78768325D01*
X156305819Y-87768326D02*
X155305819Y-87768326D01*
X155782009Y-87768326D02*
X155782009Y-87196898D01*
X156305819Y-87196898D02*
X155305819Y-87196898D01*
X156305819Y-86720707D02*
X155639152Y-86720707D01*
X155305819Y-86720707D02*
X155353438Y-86768326D01*
X155353438Y-86768326D02*
X155401057Y-86720707D01*
X155401057Y-86720707D02*
X155353438Y-86673088D01*
X155353438Y-86673088D02*
X155305819Y-86720707D01*
X155305819Y-86720707D02*
X155401057Y-86720707D01*
X156305819Y-85815946D02*
X155305819Y-85815946D01*
X156258200Y-85815946D02*
X156305819Y-85911184D01*
X156305819Y-85911184D02*
X156305819Y-86101660D01*
X156305819Y-86101660D02*
X156258200Y-86196898D01*
X156258200Y-86196898D02*
X156210580Y-86244517D01*
X156210580Y-86244517D02*
X156115342Y-86292136D01*
X156115342Y-86292136D02*
X155829628Y-86292136D01*
X155829628Y-86292136D02*
X155734390Y-86244517D01*
X155734390Y-86244517D02*
X155686771Y-86196898D01*
X155686771Y-86196898D02*
X155639152Y-86101660D01*
X155639152Y-86101660D02*
X155639152Y-85911184D01*
X155639152Y-85911184D02*
X155686771Y-85815946D01*
X156305819Y-84911184D02*
X155782009Y-84911184D01*
X155782009Y-84911184D02*
X155686771Y-84958803D01*
X155686771Y-84958803D02*
X155639152Y-85054041D01*
X155639152Y-85054041D02*
X155639152Y-85244517D01*
X155639152Y-85244517D02*
X155686771Y-85339755D01*
X156258200Y-84911184D02*
X156305819Y-85006422D01*
X156305819Y-85006422D02*
X156305819Y-85244517D01*
X156305819Y-85244517D02*
X156258200Y-85339755D01*
X156258200Y-85339755D02*
X156162961Y-85387374D01*
X156162961Y-85387374D02*
X156067723Y-85387374D01*
X156067723Y-85387374D02*
X155972485Y-85339755D01*
X155972485Y-85339755D02*
X155924866Y-85244517D01*
X155924866Y-85244517D02*
X155924866Y-85006422D01*
X155924866Y-85006422D02*
X155877247Y-84911184D01*
X156305819Y-84292136D02*
X156258200Y-84387374D01*
X156258200Y-84387374D02*
X156162961Y-84434993D01*
X156162961Y-84434993D02*
X155305819Y-84434993D01*
X155639152Y-83482612D02*
X156448676Y-83482612D01*
X156448676Y-83482612D02*
X156543914Y-83530231D01*
X156543914Y-83530231D02*
X156591533Y-83577850D01*
X156591533Y-83577850D02*
X156639152Y-83673088D01*
X156639152Y-83673088D02*
X156639152Y-83815945D01*
X156639152Y-83815945D02*
X156591533Y-83911183D01*
X156258200Y-83482612D02*
X156305819Y-83577850D01*
X156305819Y-83577850D02*
X156305819Y-83768326D01*
X156305819Y-83768326D02*
X156258200Y-83863564D01*
X156258200Y-83863564D02*
X156210580Y-83911183D01*
X156210580Y-83911183D02*
X156115342Y-83958802D01*
X156115342Y-83958802D02*
X155829628Y-83958802D01*
X155829628Y-83958802D02*
X155734390Y-83911183D01*
X155734390Y-83911183D02*
X155686771Y-83863564D01*
X155686771Y-83863564D02*
X155639152Y-83768326D01*
X155639152Y-83768326D02*
X155639152Y-83577850D01*
X155639152Y-83577850D02*
X155686771Y-83482612D01*
X156305819Y-82863564D02*
X156258200Y-82958802D01*
X156258200Y-82958802D02*
X156210580Y-83006421D01*
X156210580Y-83006421D02*
X156115342Y-83054040D01*
X156115342Y-83054040D02*
X155829628Y-83054040D01*
X155829628Y-83054040D02*
X155734390Y-83006421D01*
X155734390Y-83006421D02*
X155686771Y-82958802D01*
X155686771Y-82958802D02*
X155639152Y-82863564D01*
X155639152Y-82863564D02*
X155639152Y-82720707D01*
X155639152Y-82720707D02*
X155686771Y-82625469D01*
X155686771Y-82625469D02*
X155734390Y-82577850D01*
X155734390Y-82577850D02*
X155829628Y-82530231D01*
X155829628Y-82530231D02*
X156115342Y-82530231D01*
X156115342Y-82530231D02*
X156210580Y-82577850D01*
X156210580Y-82577850D02*
X156258200Y-82625469D01*
X156258200Y-82625469D02*
X156305819Y-82720707D01*
X156305819Y-82720707D02*
X156305819Y-82863564D01*
X155305819Y-81482611D02*
X155305819Y-80911183D01*
X156305819Y-81196897D02*
X155305819Y-81196897D01*
X156305819Y-80434992D02*
X156258200Y-80530230D01*
X156258200Y-80530230D02*
X156210580Y-80577849D01*
X156210580Y-80577849D02*
X156115342Y-80625468D01*
X156115342Y-80625468D02*
X155829628Y-80625468D01*
X155829628Y-80625468D02*
X155734390Y-80577849D01*
X155734390Y-80577849D02*
X155686771Y-80530230D01*
X155686771Y-80530230D02*
X155639152Y-80434992D01*
X155639152Y-80434992D02*
X155639152Y-80292135D01*
X155639152Y-80292135D02*
X155686771Y-80196897D01*
X155686771Y-80196897D02*
X155734390Y-80149278D01*
X155734390Y-80149278D02*
X155829628Y-80101659D01*
X155829628Y-80101659D02*
X156115342Y-80101659D01*
X156115342Y-80101659D02*
X156210580Y-80149278D01*
X156210580Y-80149278D02*
X156258200Y-80196897D01*
X156258200Y-80196897D02*
X156305819Y-80292135D01*
X156305819Y-80292135D02*
X156305819Y-80434992D01*
X156305819Y-79673087D02*
X155639152Y-79673087D01*
X155829628Y-79673087D02*
X155734390Y-79625468D01*
X155734390Y-79625468D02*
X155686771Y-79577849D01*
X155686771Y-79577849D02*
X155639152Y-79482611D01*
X155639152Y-79482611D02*
X155639152Y-79387373D01*
X156305819Y-79054039D02*
X155639152Y-79054039D01*
X155829628Y-79054039D02*
X155734390Y-79006420D01*
X155734390Y-79006420D02*
X155686771Y-78958801D01*
X155686771Y-78958801D02*
X155639152Y-78863563D01*
X155639152Y-78863563D02*
X155639152Y-78768325D01*
X156258200Y-78054039D02*
X156305819Y-78149277D01*
X156305819Y-78149277D02*
X156305819Y-78339753D01*
X156305819Y-78339753D02*
X156258200Y-78434991D01*
X156258200Y-78434991D02*
X156162961Y-78482610D01*
X156162961Y-78482610D02*
X155782009Y-78482610D01*
X155782009Y-78482610D02*
X155686771Y-78434991D01*
X155686771Y-78434991D02*
X155639152Y-78339753D01*
X155639152Y-78339753D02*
X155639152Y-78149277D01*
X155639152Y-78149277D02*
X155686771Y-78054039D01*
X155686771Y-78054039D02*
X155782009Y-78006420D01*
X155782009Y-78006420D02*
X155877247Y-78006420D01*
X155877247Y-78006420D02*
X155972485Y-78482610D01*
X156258200Y-77625467D02*
X156305819Y-77530229D01*
X156305819Y-77530229D02*
X156305819Y-77339753D01*
X156305819Y-77339753D02*
X156258200Y-77244515D01*
X156258200Y-77244515D02*
X156162961Y-77196896D01*
X156162961Y-77196896D02*
X156115342Y-77196896D01*
X156115342Y-77196896D02*
X156020104Y-77244515D01*
X156020104Y-77244515D02*
X155972485Y-77339753D01*
X155972485Y-77339753D02*
X155972485Y-77482610D01*
X155972485Y-77482610D02*
X155924866Y-77577848D01*
X155924866Y-77577848D02*
X155829628Y-77625467D01*
X155829628Y-77625467D02*
X155782009Y-77625467D01*
X155782009Y-77625467D02*
X155686771Y-77577848D01*
X155686771Y-77577848D02*
X155639152Y-77482610D01*
X155639152Y-77482610D02*
X155639152Y-77339753D01*
X155639152Y-77339753D02*
X155686771Y-77244515D01*
D11*
X136049176Y-111398136D02*
X135444414Y-111821470D01*
X136049176Y-112123851D02*
X134779176Y-112123851D01*
X134779176Y-112123851D02*
X134779176Y-111640041D01*
X134779176Y-111640041D02*
X134839652Y-111519089D01*
X134839652Y-111519089D02*
X134900128Y-111458612D01*
X134900128Y-111458612D02*
X135021080Y-111398136D01*
X135021080Y-111398136D02*
X135202509Y-111398136D01*
X135202509Y-111398136D02*
X135323461Y-111458612D01*
X135323461Y-111458612D02*
X135383938Y-111519089D01*
X135383938Y-111519089D02*
X135444414Y-111640041D01*
X135444414Y-111640041D02*
X135444414Y-112123851D01*
X134839652Y-110188612D02*
X134779176Y-110309565D01*
X134779176Y-110309565D02*
X134779176Y-110490993D01*
X134779176Y-110490993D02*
X134839652Y-110672422D01*
X134839652Y-110672422D02*
X134960604Y-110793374D01*
X134960604Y-110793374D02*
X135081557Y-110853851D01*
X135081557Y-110853851D02*
X135323461Y-110914327D01*
X135323461Y-110914327D02*
X135504890Y-110914327D01*
X135504890Y-110914327D02*
X135746795Y-110853851D01*
X135746795Y-110853851D02*
X135867747Y-110793374D01*
X135867747Y-110793374D02*
X135988700Y-110672422D01*
X135988700Y-110672422D02*
X136049176Y-110490993D01*
X136049176Y-110490993D02*
X136049176Y-110370041D01*
X136049176Y-110370041D02*
X135988700Y-110188612D01*
X135988700Y-110188612D02*
X135928223Y-110128136D01*
X135928223Y-110128136D02*
X135504890Y-110128136D01*
X135504890Y-110128136D02*
X135504890Y-110370041D01*
X135383938Y-109160517D02*
X135444414Y-108979089D01*
X135444414Y-108979089D02*
X135504890Y-108918612D01*
X135504890Y-108918612D02*
X135625842Y-108858136D01*
X135625842Y-108858136D02*
X135807271Y-108858136D01*
X135807271Y-108858136D02*
X135928223Y-108918612D01*
X135928223Y-108918612D02*
X135988700Y-108979089D01*
X135988700Y-108979089D02*
X136049176Y-109100041D01*
X136049176Y-109100041D02*
X136049176Y-109583851D01*
X136049176Y-109583851D02*
X134779176Y-109583851D01*
X134779176Y-109583851D02*
X134779176Y-109160517D01*
X134779176Y-109160517D02*
X134839652Y-109039565D01*
X134839652Y-109039565D02*
X134900128Y-108979089D01*
X134900128Y-108979089D02*
X135021080Y-108918612D01*
X135021080Y-108918612D02*
X135142033Y-108918612D01*
X135142033Y-108918612D02*
X135262985Y-108979089D01*
X135262985Y-108979089D02*
X135323461Y-109039565D01*
X135323461Y-109039565D02*
X135383938Y-109160517D01*
X135383938Y-109160517D02*
X135383938Y-109583851D01*
X136049176Y-106741470D02*
X136049176Y-107346232D01*
X136049176Y-107346232D02*
X134779176Y-107346232D01*
X135383938Y-106318137D02*
X135383938Y-105894803D01*
X136049176Y-105713375D02*
X136049176Y-106318137D01*
X136049176Y-106318137D02*
X134779176Y-106318137D01*
X134779176Y-106318137D02*
X134779176Y-105713375D01*
X136049176Y-105169089D02*
X134779176Y-105169089D01*
X134779176Y-105169089D02*
X134779176Y-104866708D01*
X134779176Y-104866708D02*
X134839652Y-104685279D01*
X134839652Y-104685279D02*
X134960604Y-104564327D01*
X134960604Y-104564327D02*
X135081557Y-104503850D01*
X135081557Y-104503850D02*
X135323461Y-104443374D01*
X135323461Y-104443374D02*
X135504890Y-104443374D01*
X135504890Y-104443374D02*
X135746795Y-104503850D01*
X135746795Y-104503850D02*
X135867747Y-104564327D01*
X135867747Y-104564327D02*
X135988700Y-104685279D01*
X135988700Y-104685279D02*
X136049176Y-104866708D01*
X136049176Y-104866708D02*
X136049176Y-105169089D01*
X135988700Y-102991946D02*
X136049176Y-102810517D01*
X136049176Y-102810517D02*
X136049176Y-102508136D01*
X136049176Y-102508136D02*
X135988700Y-102387184D01*
X135988700Y-102387184D02*
X135928223Y-102326708D01*
X135928223Y-102326708D02*
X135807271Y-102266231D01*
X135807271Y-102266231D02*
X135686319Y-102266231D01*
X135686319Y-102266231D02*
X135565366Y-102326708D01*
X135565366Y-102326708D02*
X135504890Y-102387184D01*
X135504890Y-102387184D02*
X135444414Y-102508136D01*
X135444414Y-102508136D02*
X135383938Y-102750041D01*
X135383938Y-102750041D02*
X135323461Y-102870993D01*
X135323461Y-102870993D02*
X135262985Y-102931470D01*
X135262985Y-102931470D02*
X135142033Y-102991946D01*
X135142033Y-102991946D02*
X135021080Y-102991946D01*
X135021080Y-102991946D02*
X134900128Y-102931470D01*
X134900128Y-102931470D02*
X134839652Y-102870993D01*
X134839652Y-102870993D02*
X134779176Y-102750041D01*
X134779176Y-102750041D02*
X134779176Y-102447660D01*
X134779176Y-102447660D02*
X134839652Y-102266231D01*
X134779176Y-101903374D02*
X134779176Y-101177660D01*
X136049176Y-101540517D02*
X134779176Y-101540517D01*
X136049176Y-100028612D02*
X135444414Y-100451946D01*
X136049176Y-100754327D02*
X134779176Y-100754327D01*
X134779176Y-100754327D02*
X134779176Y-100270517D01*
X134779176Y-100270517D02*
X134839652Y-100149565D01*
X134839652Y-100149565D02*
X134900128Y-100089088D01*
X134900128Y-100089088D02*
X135021080Y-100028612D01*
X135021080Y-100028612D02*
X135202509Y-100028612D01*
X135202509Y-100028612D02*
X135323461Y-100089088D01*
X135323461Y-100089088D02*
X135383938Y-100149565D01*
X135383938Y-100149565D02*
X135444414Y-100270517D01*
X135444414Y-100270517D02*
X135444414Y-100754327D01*
X136049176Y-99484327D02*
X134779176Y-99484327D01*
X136049176Y-98879565D02*
X134779176Y-98879565D01*
X134779176Y-98879565D02*
X134779176Y-98395755D01*
X134779176Y-98395755D02*
X134839652Y-98274803D01*
X134839652Y-98274803D02*
X134900128Y-98214326D01*
X134900128Y-98214326D02*
X135021080Y-98153850D01*
X135021080Y-98153850D02*
X135202509Y-98153850D01*
X135202509Y-98153850D02*
X135323461Y-98214326D01*
X135323461Y-98214326D02*
X135383938Y-98274803D01*
X135383938Y-98274803D02*
X135444414Y-98395755D01*
X135444414Y-98395755D02*
X135444414Y-98879565D01*
X136049176Y-96641946D02*
X134779176Y-96641946D01*
X134779176Y-96641946D02*
X134779176Y-96339565D01*
X134779176Y-96339565D02*
X134839652Y-96158136D01*
X134839652Y-96158136D02*
X134960604Y-96037184D01*
X134960604Y-96037184D02*
X135081557Y-95976707D01*
X135081557Y-95976707D02*
X135323461Y-95916231D01*
X135323461Y-95916231D02*
X135504890Y-95916231D01*
X135504890Y-95916231D02*
X135746795Y-95976707D01*
X135746795Y-95976707D02*
X135867747Y-96037184D01*
X135867747Y-96037184D02*
X135988700Y-96158136D01*
X135988700Y-96158136D02*
X136049176Y-96339565D01*
X136049176Y-96339565D02*
X136049176Y-96641946D01*
X136049176Y-94646231D02*
X135444414Y-95069565D01*
X136049176Y-95371946D02*
X134779176Y-95371946D01*
X134779176Y-95371946D02*
X134779176Y-94888136D01*
X134779176Y-94888136D02*
X134839652Y-94767184D01*
X134839652Y-94767184D02*
X134900128Y-94706707D01*
X134900128Y-94706707D02*
X135021080Y-94646231D01*
X135021080Y-94646231D02*
X135202509Y-94646231D01*
X135202509Y-94646231D02*
X135323461Y-94706707D01*
X135323461Y-94706707D02*
X135383938Y-94767184D01*
X135383938Y-94767184D02*
X135444414Y-94888136D01*
X135444414Y-94888136D02*
X135444414Y-95371946D01*
X136049176Y-94101946D02*
X134779176Y-94101946D01*
X134779176Y-93678612D02*
X136049176Y-93255279D01*
X136049176Y-93255279D02*
X134779176Y-92831945D01*
X135383938Y-92408613D02*
X135383938Y-91985279D01*
X136049176Y-91803851D02*
X136049176Y-92408613D01*
X136049176Y-92408613D02*
X134779176Y-92408613D01*
X134779176Y-92408613D02*
X134779176Y-91803851D01*
X136049176Y-90533850D02*
X135444414Y-90957184D01*
X136049176Y-91259565D02*
X134779176Y-91259565D01*
X134779176Y-91259565D02*
X134779176Y-90775755D01*
X134779176Y-90775755D02*
X134839652Y-90654803D01*
X134839652Y-90654803D02*
X134900128Y-90594326D01*
X134900128Y-90594326D02*
X135021080Y-90533850D01*
X135021080Y-90533850D02*
X135202509Y-90533850D01*
X135202509Y-90533850D02*
X135323461Y-90594326D01*
X135323461Y-90594326D02*
X135383938Y-90654803D01*
X135383938Y-90654803D02*
X135444414Y-90775755D01*
X135444414Y-90775755D02*
X135444414Y-91259565D01*
X135202509Y-89142898D02*
X136049176Y-88840517D01*
X136049176Y-88840517D02*
X135202509Y-88538136D01*
X134900128Y-88114803D02*
X134839652Y-88054327D01*
X134839652Y-88054327D02*
X134779176Y-87933374D01*
X134779176Y-87933374D02*
X134779176Y-87630993D01*
X134779176Y-87630993D02*
X134839652Y-87510041D01*
X134839652Y-87510041D02*
X134900128Y-87449565D01*
X134900128Y-87449565D02*
X135021080Y-87389088D01*
X135021080Y-87389088D02*
X135142033Y-87389088D01*
X135142033Y-87389088D02*
X135323461Y-87449565D01*
X135323461Y-87449565D02*
X136049176Y-88175279D01*
X136049176Y-88175279D02*
X136049176Y-87389088D01*
X135928223Y-86844803D02*
X135988700Y-86784326D01*
X135988700Y-86784326D02*
X136049176Y-86844803D01*
X136049176Y-86844803D02*
X135988700Y-86905279D01*
X135988700Y-86905279D02*
X135928223Y-86844803D01*
X135928223Y-86844803D02*
X136049176Y-86844803D01*
X134779176Y-85998136D02*
X134779176Y-85877183D01*
X134779176Y-85877183D02*
X134839652Y-85756231D01*
X134839652Y-85756231D02*
X134900128Y-85695755D01*
X134900128Y-85695755D02*
X135021080Y-85635279D01*
X135021080Y-85635279D02*
X135262985Y-85574802D01*
X135262985Y-85574802D02*
X135565366Y-85574802D01*
X135565366Y-85574802D02*
X135807271Y-85635279D01*
X135807271Y-85635279D02*
X135928223Y-85695755D01*
X135928223Y-85695755D02*
X135988700Y-85756231D01*
X135988700Y-85756231D02*
X136049176Y-85877183D01*
X136049176Y-85877183D02*
X136049176Y-85998136D01*
X136049176Y-85998136D02*
X135988700Y-86119088D01*
X135988700Y-86119088D02*
X135928223Y-86179564D01*
X135928223Y-86179564D02*
X135807271Y-86240041D01*
X135807271Y-86240041D02*
X135565366Y-86300517D01*
X135565366Y-86300517D02*
X135262985Y-86300517D01*
X135262985Y-86300517D02*
X135021080Y-86240041D01*
X135021080Y-86240041D02*
X134900128Y-86179564D01*
X134900128Y-86179564D02*
X134839652Y-86119088D01*
X134839652Y-86119088D02*
X134779176Y-85998136D01*
D12*
X142296847Y-100898270D02*
X142175895Y-100837794D01*
X142175895Y-100837794D02*
X142054942Y-100716842D01*
X142054942Y-100716842D02*
X141873514Y-100535413D01*
X141873514Y-100535413D02*
X141752561Y-100474937D01*
X141752561Y-100474937D02*
X141631609Y-100474937D01*
X141692085Y-100777318D02*
X141571133Y-100716842D01*
X141571133Y-100716842D02*
X141450180Y-100595889D01*
X141450180Y-100595889D02*
X141389704Y-100353984D01*
X141389704Y-100353984D02*
X141389704Y-99930651D01*
X141389704Y-99930651D02*
X141450180Y-99688746D01*
X141450180Y-99688746D02*
X141571133Y-99567794D01*
X141571133Y-99567794D02*
X141692085Y-99507318D01*
X141692085Y-99507318D02*
X141933990Y-99507318D01*
X141933990Y-99507318D02*
X142054942Y-99567794D01*
X142054942Y-99567794D02*
X142175895Y-99688746D01*
X142175895Y-99688746D02*
X142236371Y-99930651D01*
X142236371Y-99930651D02*
X142236371Y-100353984D01*
X142236371Y-100353984D02*
X142175895Y-100595889D01*
X142175895Y-100595889D02*
X142054942Y-100716842D01*
X142054942Y-100716842D02*
X141933990Y-100777318D01*
X141933990Y-100777318D02*
X141692085Y-100777318D01*
X143445895Y-100777318D02*
X142720180Y-100777318D01*
X143083037Y-100777318D02*
X143083037Y-99507318D01*
X143083037Y-99507318D02*
X142962085Y-99688746D01*
X142962085Y-99688746D02*
X142841133Y-99809699D01*
X142841133Y-99809699D02*
X142720180Y-99870175D01*
X142527867Y-112004118D02*
X142527867Y-112911261D01*
X142527867Y-112911261D02*
X142467390Y-113092689D01*
X142467390Y-113092689D02*
X142346438Y-113213642D01*
X142346438Y-113213642D02*
X142165009Y-113274118D01*
X142165009Y-113274118D02*
X142044057Y-113274118D01*
X143072152Y-112125070D02*
X143132628Y-112064594D01*
X143132628Y-112064594D02*
X143253581Y-112004118D01*
X143253581Y-112004118D02*
X143555962Y-112004118D01*
X143555962Y-112004118D02*
X143676914Y-112064594D01*
X143676914Y-112064594D02*
X143737390Y-112125070D01*
X143737390Y-112125070D02*
X143797867Y-112246022D01*
X143797867Y-112246022D02*
X143797867Y-112366975D01*
X143797867Y-112366975D02*
X143737390Y-112548403D01*
X143737390Y-112548403D02*
X143011676Y-113274118D01*
X143011676Y-113274118D02*
X143797867Y-113274118D01*
X140038667Y-77053718D02*
X140038667Y-77960861D01*
X140038667Y-77960861D02*
X139978190Y-78142289D01*
X139978190Y-78142289D02*
X139857238Y-78263242D01*
X139857238Y-78263242D02*
X139675809Y-78323718D01*
X139675809Y-78323718D02*
X139554857Y-78323718D01*
X141308667Y-78323718D02*
X140582952Y-78323718D01*
X140945809Y-78323718D02*
X140945809Y-77053718D01*
X140945809Y-77053718D02*
X140824857Y-77235146D01*
X140824857Y-77235146D02*
X140703905Y-77356099D01*
X140703905Y-77356099D02*
X140582952Y-77416575D01*
D10*
X142235019Y-94464666D02*
X141758828Y-94797999D01*
X142235019Y-95036094D02*
X141235019Y-95036094D01*
X141235019Y-95036094D02*
X141235019Y-94655142D01*
X141235019Y-94655142D02*
X141282638Y-94559904D01*
X141282638Y-94559904D02*
X141330257Y-94512285D01*
X141330257Y-94512285D02*
X141425495Y-94464666D01*
X141425495Y-94464666D02*
X141568352Y-94464666D01*
X141568352Y-94464666D02*
X141663590Y-94512285D01*
X141663590Y-94512285D02*
X141711209Y-94559904D01*
X141711209Y-94559904D02*
X141758828Y-94655142D01*
X141758828Y-94655142D02*
X141758828Y-95036094D01*
X141330257Y-94083713D02*
X141282638Y-94036094D01*
X141282638Y-94036094D02*
X141235019Y-93940856D01*
X141235019Y-93940856D02*
X141235019Y-93702761D01*
X141235019Y-93702761D02*
X141282638Y-93607523D01*
X141282638Y-93607523D02*
X141330257Y-93559904D01*
X141330257Y-93559904D02*
X141425495Y-93512285D01*
X141425495Y-93512285D02*
X141520733Y-93512285D01*
X141520733Y-93512285D02*
X141663590Y-93559904D01*
X141663590Y-93559904D02*
X142235019Y-94131332D01*
X142235019Y-94131332D02*
X142235019Y-93512285D01*
D12*
X156736047Y-101076070D02*
X156615095Y-101015594D01*
X156615095Y-101015594D02*
X156494142Y-100894642D01*
X156494142Y-100894642D02*
X156312714Y-100713213D01*
X156312714Y-100713213D02*
X156191761Y-100652737D01*
X156191761Y-100652737D02*
X156070809Y-100652737D01*
X156131285Y-100955118D02*
X156010333Y-100894642D01*
X156010333Y-100894642D02*
X155889380Y-100773689D01*
X155889380Y-100773689D02*
X155828904Y-100531784D01*
X155828904Y-100531784D02*
X155828904Y-100108451D01*
X155828904Y-100108451D02*
X155889380Y-99866546D01*
X155889380Y-99866546D02*
X156010333Y-99745594D01*
X156010333Y-99745594D02*
X156131285Y-99685118D01*
X156131285Y-99685118D02*
X156373190Y-99685118D01*
X156373190Y-99685118D02*
X156494142Y-99745594D01*
X156494142Y-99745594D02*
X156615095Y-99866546D01*
X156615095Y-99866546D02*
X156675571Y-100108451D01*
X156675571Y-100108451D02*
X156675571Y-100531784D01*
X156675571Y-100531784D02*
X156615095Y-100773689D01*
X156615095Y-100773689D02*
X156494142Y-100894642D01*
X156494142Y-100894642D02*
X156373190Y-100955118D01*
X156373190Y-100955118D02*
X156131285Y-100955118D01*
X157098904Y-99685118D02*
X157885095Y-99685118D01*
X157885095Y-99685118D02*
X157461761Y-100168927D01*
X157461761Y-100168927D02*
X157643190Y-100168927D01*
X157643190Y-100168927D02*
X157764142Y-100229403D01*
X157764142Y-100229403D02*
X157824618Y-100289880D01*
X157824618Y-100289880D02*
X157885095Y-100410832D01*
X157885095Y-100410832D02*
X157885095Y-100713213D01*
X157885095Y-100713213D02*
X157824618Y-100834165D01*
X157824618Y-100834165D02*
X157764142Y-100894642D01*
X157764142Y-100894642D02*
X157643190Y-100955118D01*
X157643190Y-100955118D02*
X157280333Y-100955118D01*
X157280333Y-100955118D02*
X157159380Y-100894642D01*
X157159380Y-100894642D02*
X157098904Y-100834165D01*
D10*
X143886019Y-94464666D02*
X143409828Y-94797999D01*
X143886019Y-95036094D02*
X142886019Y-95036094D01*
X142886019Y-95036094D02*
X142886019Y-94655142D01*
X142886019Y-94655142D02*
X142933638Y-94559904D01*
X142933638Y-94559904D02*
X142981257Y-94512285D01*
X142981257Y-94512285D02*
X143076495Y-94464666D01*
X143076495Y-94464666D02*
X143219352Y-94464666D01*
X143219352Y-94464666D02*
X143314590Y-94512285D01*
X143314590Y-94512285D02*
X143362209Y-94559904D01*
X143362209Y-94559904D02*
X143409828Y-94655142D01*
X143409828Y-94655142D02*
X143409828Y-95036094D01*
X143886019Y-93512285D02*
X143886019Y-94083713D01*
X143886019Y-93797999D02*
X142886019Y-93797999D01*
X142886019Y-93797999D02*
X143028876Y-93893237D01*
X143028876Y-93893237D02*
X143124114Y-93988475D01*
X143124114Y-93988475D02*
X143171733Y-94083713D01*
X149524819Y-94463666D02*
X149048628Y-94796999D01*
X149524819Y-95035094D02*
X148524819Y-95035094D01*
X148524819Y-95035094D02*
X148524819Y-94654142D01*
X148524819Y-94654142D02*
X148572438Y-94558904D01*
X148572438Y-94558904D02*
X148620057Y-94511285D01*
X148620057Y-94511285D02*
X148715295Y-94463666D01*
X148715295Y-94463666D02*
X148858152Y-94463666D01*
X148858152Y-94463666D02*
X148953390Y-94511285D01*
X148953390Y-94511285D02*
X149001009Y-94558904D01*
X149001009Y-94558904D02*
X149048628Y-94654142D01*
X149048628Y-94654142D02*
X149048628Y-95035094D01*
X148858152Y-93606523D02*
X149524819Y-93606523D01*
X148477200Y-93844618D02*
X149191485Y-94082713D01*
X149191485Y-94082713D02*
X149191485Y-93463666D01*
X151201219Y-94526666D02*
X150725028Y-94859999D01*
X151201219Y-95098094D02*
X150201219Y-95098094D01*
X150201219Y-95098094D02*
X150201219Y-94717142D01*
X150201219Y-94717142D02*
X150248838Y-94621904D01*
X150248838Y-94621904D02*
X150296457Y-94574285D01*
X150296457Y-94574285D02*
X150391695Y-94526666D01*
X150391695Y-94526666D02*
X150534552Y-94526666D01*
X150534552Y-94526666D02*
X150629790Y-94574285D01*
X150629790Y-94574285D02*
X150677409Y-94621904D01*
X150677409Y-94621904D02*
X150725028Y-94717142D01*
X150725028Y-94717142D02*
X150725028Y-95098094D01*
X150201219Y-94193332D02*
X150201219Y-93574285D01*
X150201219Y-93574285D02*
X150582171Y-93907618D01*
X150582171Y-93907618D02*
X150582171Y-93764761D01*
X150582171Y-93764761D02*
X150629790Y-93669523D01*
X150629790Y-93669523D02*
X150677409Y-93621904D01*
X150677409Y-93621904D02*
X150772647Y-93574285D01*
X150772647Y-93574285D02*
X151010742Y-93574285D01*
X151010742Y-93574285D02*
X151105980Y-93621904D01*
X151105980Y-93621904D02*
X151153600Y-93669523D01*
X151153600Y-93669523D02*
X151201219Y-93764761D01*
X151201219Y-93764761D02*
X151201219Y-94050475D01*
X151201219Y-94050475D02*
X151153600Y-94145713D01*
X151153600Y-94145713D02*
X151105980Y-94193332D01*
X156566619Y-94399866D02*
X156090428Y-94733199D01*
X156566619Y-94971294D02*
X155566619Y-94971294D01*
X155566619Y-94971294D02*
X155566619Y-94590342D01*
X155566619Y-94590342D02*
X155614238Y-94495104D01*
X155614238Y-94495104D02*
X155661857Y-94447485D01*
X155661857Y-94447485D02*
X155757095Y-94399866D01*
X155757095Y-94399866D02*
X155899952Y-94399866D01*
X155899952Y-94399866D02*
X155995190Y-94447485D01*
X155995190Y-94447485D02*
X156042809Y-94495104D01*
X156042809Y-94495104D02*
X156090428Y-94590342D01*
X156090428Y-94590342D02*
X156090428Y-94971294D01*
X155566619Y-93542723D02*
X155566619Y-93733199D01*
X155566619Y-93733199D02*
X155614238Y-93828437D01*
X155614238Y-93828437D02*
X155661857Y-93876056D01*
X155661857Y-93876056D02*
X155804714Y-93971294D01*
X155804714Y-93971294D02*
X155995190Y-94018913D01*
X155995190Y-94018913D02*
X156376142Y-94018913D01*
X156376142Y-94018913D02*
X156471380Y-93971294D01*
X156471380Y-93971294D02*
X156519000Y-93923675D01*
X156519000Y-93923675D02*
X156566619Y-93828437D01*
X156566619Y-93828437D02*
X156566619Y-93637961D01*
X156566619Y-93637961D02*
X156519000Y-93542723D01*
X156519000Y-93542723D02*
X156471380Y-93495104D01*
X156471380Y-93495104D02*
X156376142Y-93447485D01*
X156376142Y-93447485D02*
X156138047Y-93447485D01*
X156138047Y-93447485D02*
X156042809Y-93495104D01*
X156042809Y-93495104D02*
X155995190Y-93542723D01*
X155995190Y-93542723D02*
X155947571Y-93637961D01*
X155947571Y-93637961D02*
X155947571Y-93828437D01*
X155947571Y-93828437D02*
X155995190Y-93923675D01*
X155995190Y-93923675D02*
X156042809Y-93971294D01*
X156042809Y-93971294D02*
X156138047Y-94018913D01*
D12*
X149485047Y-101076870D02*
X149364095Y-101016394D01*
X149364095Y-101016394D02*
X149243142Y-100895442D01*
X149243142Y-100895442D02*
X149061714Y-100714013D01*
X149061714Y-100714013D02*
X148940761Y-100653537D01*
X148940761Y-100653537D02*
X148819809Y-100653537D01*
X148880285Y-100955918D02*
X148759333Y-100895442D01*
X148759333Y-100895442D02*
X148638380Y-100774489D01*
X148638380Y-100774489D02*
X148577904Y-100532584D01*
X148577904Y-100532584D02*
X148577904Y-100109251D01*
X148577904Y-100109251D02*
X148638380Y-99867346D01*
X148638380Y-99867346D02*
X148759333Y-99746394D01*
X148759333Y-99746394D02*
X148880285Y-99685918D01*
X148880285Y-99685918D02*
X149122190Y-99685918D01*
X149122190Y-99685918D02*
X149243142Y-99746394D01*
X149243142Y-99746394D02*
X149364095Y-99867346D01*
X149364095Y-99867346D02*
X149424571Y-100109251D01*
X149424571Y-100109251D02*
X149424571Y-100532584D01*
X149424571Y-100532584D02*
X149364095Y-100774489D01*
X149364095Y-100774489D02*
X149243142Y-100895442D01*
X149243142Y-100895442D02*
X149122190Y-100955918D01*
X149122190Y-100955918D02*
X148880285Y-100955918D01*
X149908380Y-99806870D02*
X149968856Y-99746394D01*
X149968856Y-99746394D02*
X150089809Y-99685918D01*
X150089809Y-99685918D02*
X150392190Y-99685918D01*
X150392190Y-99685918D02*
X150513142Y-99746394D01*
X150513142Y-99746394D02*
X150573618Y-99806870D01*
X150573618Y-99806870D02*
X150634095Y-99927822D01*
X150634095Y-99927822D02*
X150634095Y-100048775D01*
X150634095Y-100048775D02*
X150573618Y-100230203D01*
X150573618Y-100230203D02*
X149847904Y-100955918D01*
X149847904Y-100955918D02*
X150634095Y-100955918D01*
D10*
X158090619Y-94399866D02*
X157614428Y-94733199D01*
X158090619Y-94971294D02*
X157090619Y-94971294D01*
X157090619Y-94971294D02*
X157090619Y-94590342D01*
X157090619Y-94590342D02*
X157138238Y-94495104D01*
X157138238Y-94495104D02*
X157185857Y-94447485D01*
X157185857Y-94447485D02*
X157281095Y-94399866D01*
X157281095Y-94399866D02*
X157423952Y-94399866D01*
X157423952Y-94399866D02*
X157519190Y-94447485D01*
X157519190Y-94447485D02*
X157566809Y-94495104D01*
X157566809Y-94495104D02*
X157614428Y-94590342D01*
X157614428Y-94590342D02*
X157614428Y-94971294D01*
X157090619Y-93495104D02*
X157090619Y-93971294D01*
X157090619Y-93971294D02*
X157566809Y-94018913D01*
X157566809Y-94018913D02*
X157519190Y-93971294D01*
X157519190Y-93971294D02*
X157471571Y-93876056D01*
X157471571Y-93876056D02*
X157471571Y-93637961D01*
X157471571Y-93637961D02*
X157519190Y-93542723D01*
X157519190Y-93542723D02*
X157566809Y-93495104D01*
X157566809Y-93495104D02*
X157662047Y-93447485D01*
X157662047Y-93447485D02*
X157900142Y-93447485D01*
X157900142Y-93447485D02*
X157995380Y-93495104D01*
X157995380Y-93495104D02*
X158043000Y-93542723D01*
X158043000Y-93542723D02*
X158090619Y-93637961D01*
X158090619Y-93637961D02*
X158090619Y-93876056D01*
X158090619Y-93876056D02*
X158043000Y-93971294D01*
X158043000Y-93971294D02*
X157995380Y-94018913D01*
D12*
%TO.C,Q1*%
X145717800Y-108565450D02*
X145717800Y-102465450D01*
X145717800Y-102465450D02*
X139117800Y-102465450D01*
X139117800Y-102465450D02*
X139117800Y-108565450D01*
D13*
%TO.C,J2*%
X142489800Y-114561200D02*
X142489800Y-117301200D01*
X142489800Y-119921200D02*
X142489800Y-120561200D01*
X142489800Y-120561200D02*
X151489800Y-120561200D01*
X144019800Y-114561200D02*
X142489800Y-114561200D01*
X149959800Y-114561200D02*
X151489800Y-114561200D01*
X151489800Y-114561200D02*
X151489800Y-117301200D01*
X151489800Y-120561200D02*
X151489800Y-119921200D01*
D10*
X144839800Y-113011200D02*
G75*
G03*
X144839800Y-113011200I-100000J0D01*
G01*
%TO.C,J1*%
X142367000Y-75939400D02*
X142367000Y-83139400D01*
X151367000Y-75939400D02*
X142367000Y-75939400D01*
X151367000Y-90339400D02*
X151367000Y-75939400D01*
X146746850Y-91690400D02*
G75*
G03*
X146746850Y-91690400I-118850J0D01*
G01*
D14*
%TO.C,R2*%
X142305300Y-96536742D02*
X142305300Y-97011258D01*
X141260300Y-96536742D02*
X141260300Y-97011258D01*
D12*
%TO.C,Q3*%
X160201800Y-108580800D02*
X160201800Y-102480800D01*
X160201800Y-102480800D02*
X153601800Y-102480800D01*
X153601800Y-102480800D02*
X153601800Y-108580800D01*
D14*
%TO.C,R1*%
X143956300Y-96536742D02*
X143956300Y-97011258D01*
X142911300Y-96536742D02*
X142911300Y-97011258D01*
%TO.C,R4*%
X149595100Y-96536742D02*
X149595100Y-97011258D01*
X148550100Y-96536742D02*
X148550100Y-97011258D01*
%TO.C,R3*%
X151271500Y-96535742D02*
X151271500Y-97010258D01*
X150226500Y-96535742D02*
X150226500Y-97010258D01*
%TO.C,R6*%
X156509900Y-96535942D02*
X156509900Y-97010458D01*
X155464900Y-96535942D02*
X155464900Y-97010458D01*
D12*
%TO.C,Q2*%
X152906000Y-108581600D02*
X152906000Y-102481600D01*
X152906000Y-102481600D02*
X146306000Y-102481600D01*
X146306000Y-102481600D02*
X146306000Y-108581600D01*
D14*
%TO.C,R5*%
X158160900Y-96535942D02*
X158160900Y-97010458D01*
X157115900Y-96535942D02*
X157115900Y-97010458D01*
%TD*%
M02*
