%TF.GenerationSoftware,KiCad,Pcbnew,7.0.7*%
%TF.CreationDate,2024-04-11T18:02:48+02:00*%
%TF.ProjectId,DriverRGB_v2,44726976-6572-4524-9742-5f76322e6b69,v02*%
%TF.SameCoordinates,Original*%
%TF.FileFunction,Copper,L2,Bot*%
%TF.FilePolarity,Positive*%
%FSLAX46Y46*%
G04 Gerber Fmt 4.6, Leading zero omitted, Abs format (unit mm)*
G04 Created by KiCad (PCBNEW 7.0.7) date 2024-04-11 18:02:48*
%MOMM*%
%LPD*%
G01*
G04 APERTURE LIST*
G04 Aperture macros list*
%AMRoundRect*
0 Rectangle with rounded corners*
0 $1 Rounding radius*
0 $2 $3 $4 $5 $6 $7 $8 $9 X,Y pos of 4 corners*
0 Add a 4 corners polygon primitive as box body*
4,1,4,$2,$3,$4,$5,$6,$7,$8,$9,$2,$3,0*
0 Add four circle primitives for the rounded corners*
1,1,$1+$1,$2,$3*
1,1,$1+$1,$4,$5*
1,1,$1+$1,$6,$7*
1,1,$1+$1,$8,$9*
0 Add four rect primitives between the rounded corners*
20,1,$1+$1,$2,$3,$4,$5,0*
20,1,$1+$1,$4,$5,$6,$7,0*
20,1,$1+$1,$6,$7,$8,$9,0*
20,1,$1+$1,$8,$9,$2,$3,0*%
G04 Aperture macros list end*
%ADD10C,0.100000*%
%ADD11C,0.150000*%
%ADD12C,0.300000*%
%ADD13C,0.400000*%
%TA.AperFunction,ComponentPad*%
%ADD14C,3.000000*%
%TD*%
%TA.AperFunction,SMDPad,CuDef*%
%ADD15R,1.700000X0.900000*%
%TD*%
%TA.AperFunction,SMDPad,CuDef*%
%ADD16RoundRect,0.225000X0.250000X-0.225000X0.250000X0.225000X-0.250000X0.225000X-0.250000X-0.225000X0*%
%TD*%
%TA.AperFunction,SMDPad,CuDef*%
%ADD17RoundRect,0.200000X-0.275000X0.200000X-0.275000X-0.200000X0.275000X-0.200000X0.275000X0.200000X0*%
%TD*%
%TA.AperFunction,SMDPad,CuDef*%
%ADD18RoundRect,0.225000X-0.250000X0.225000X-0.250000X-0.225000X0.250000X-0.225000X0.250000X0.225000X0*%
%TD*%
%TA.AperFunction,SMDPad,CuDef*%
%ADD19R,2.400000X0.760000*%
%TD*%
%TA.AperFunction,SMDPad,CuDef*%
%ADD20R,1.350000X2.350000*%
%TD*%
%TA.AperFunction,SMDPad,CuDef*%
%ADD21R,1.100000X2.200000*%
%TD*%
%TA.AperFunction,SMDPad,CuDef*%
%ADD22R,3.200000X3.200000*%
%TD*%
%TA.AperFunction,SMDPad,CuDef*%
%ADD23RoundRect,0.250000X-0.350000X0.850000X-0.350000X-0.850000X0.350000X-0.850000X0.350000X0.850000X0*%
%TD*%
%TA.AperFunction,SMDPad,CuDef*%
%ADD24RoundRect,0.250000X-1.125000X1.275000X-1.125000X-1.275000X1.125000X-1.275000X1.125000X1.275000X0*%
%TD*%
%TA.AperFunction,SMDPad,CuDef*%
%ADD25RoundRect,0.249997X-2.650003X2.950003X-2.650003X-2.950003X2.650003X-2.950003X2.650003X2.950003X0*%
%TD*%
%TA.AperFunction,ViaPad*%
%ADD26C,0.800000*%
%TD*%
%TA.AperFunction,Conductor*%
%ADD27C,0.300000*%
%TD*%
%TA.AperFunction,Conductor*%
%ADD28C,0.700000*%
%TD*%
G04 APERTURE END LIST*
D10*
D11*
X177002200Y-166007200D02*
X285002200Y-166007200D01*
X285002200Y-198007200D01*
X177002200Y-198007200D01*
X177002200Y-166007200D01*
D10*
D11*
X10000000Y-10000000D02*
X287002200Y-10000000D01*
X287002200Y-200007200D01*
X10000000Y-200007200D01*
X10000000Y-10000000D01*
D10*
D11*
X12000000Y-12000000D02*
X285002200Y-12000000D01*
X285002200Y-198007200D01*
X12000000Y-198007200D01*
X12000000Y-12000000D01*
D10*
D11*
X60000000Y-12000000D02*
X60000000Y-10000000D01*
D10*
D11*
X110000000Y-12000000D02*
X110000000Y-10000000D01*
D10*
D11*
X160000000Y-12000000D02*
X160000000Y-10000000D01*
D10*
D11*
X210000000Y-12000000D02*
X210000000Y-10000000D01*
D10*
D11*
X260000000Y-12000000D02*
X260000000Y-10000000D01*
D10*
D11*
X36089160Y-11593604D02*
X35346303Y-11593604D01*
X35717731Y-11593604D02*
X35717731Y-10293604D01*
X35717731Y-10293604D02*
X35593922Y-10479319D01*
X35593922Y-10479319D02*
X35470112Y-10603128D01*
X35470112Y-10603128D02*
X35346303Y-10665033D01*
D10*
D11*
X85346303Y-10417414D02*
X85408207Y-10355509D01*
X85408207Y-10355509D02*
X85532017Y-10293604D01*
X85532017Y-10293604D02*
X85841541Y-10293604D01*
X85841541Y-10293604D02*
X85965350Y-10355509D01*
X85965350Y-10355509D02*
X86027255Y-10417414D01*
X86027255Y-10417414D02*
X86089160Y-10541223D01*
X86089160Y-10541223D02*
X86089160Y-10665033D01*
X86089160Y-10665033D02*
X86027255Y-10850747D01*
X86027255Y-10850747D02*
X85284398Y-11593604D01*
X85284398Y-11593604D02*
X86089160Y-11593604D01*
D10*
D11*
X135284398Y-10293604D02*
X136089160Y-10293604D01*
X136089160Y-10293604D02*
X135655826Y-10788842D01*
X135655826Y-10788842D02*
X135841541Y-10788842D01*
X135841541Y-10788842D02*
X135965350Y-10850747D01*
X135965350Y-10850747D02*
X136027255Y-10912652D01*
X136027255Y-10912652D02*
X136089160Y-11036461D01*
X136089160Y-11036461D02*
X136089160Y-11345985D01*
X136089160Y-11345985D02*
X136027255Y-11469795D01*
X136027255Y-11469795D02*
X135965350Y-11531700D01*
X135965350Y-11531700D02*
X135841541Y-11593604D01*
X135841541Y-11593604D02*
X135470112Y-11593604D01*
X135470112Y-11593604D02*
X135346303Y-11531700D01*
X135346303Y-11531700D02*
X135284398Y-11469795D01*
D10*
D11*
X185965350Y-10726938D02*
X185965350Y-11593604D01*
X185655826Y-10231700D02*
X185346303Y-11160271D01*
X185346303Y-11160271D02*
X186151064Y-11160271D01*
D10*
D11*
X236027255Y-10293604D02*
X235408207Y-10293604D01*
X235408207Y-10293604D02*
X235346303Y-10912652D01*
X235346303Y-10912652D02*
X235408207Y-10850747D01*
X235408207Y-10850747D02*
X235532017Y-10788842D01*
X235532017Y-10788842D02*
X235841541Y-10788842D01*
X235841541Y-10788842D02*
X235965350Y-10850747D01*
X235965350Y-10850747D02*
X236027255Y-10912652D01*
X236027255Y-10912652D02*
X236089160Y-11036461D01*
X236089160Y-11036461D02*
X236089160Y-11345985D01*
X236089160Y-11345985D02*
X236027255Y-11469795D01*
X236027255Y-11469795D02*
X235965350Y-11531700D01*
X235965350Y-11531700D02*
X235841541Y-11593604D01*
X235841541Y-11593604D02*
X235532017Y-11593604D01*
X235532017Y-11593604D02*
X235408207Y-11531700D01*
X235408207Y-11531700D02*
X235346303Y-11469795D01*
D10*
D11*
X285965350Y-10293604D02*
X285717731Y-10293604D01*
X285717731Y-10293604D02*
X285593922Y-10355509D01*
X285593922Y-10355509D02*
X285532017Y-10417414D01*
X285532017Y-10417414D02*
X285408207Y-10603128D01*
X285408207Y-10603128D02*
X285346303Y-10850747D01*
X285346303Y-10850747D02*
X285346303Y-11345985D01*
X285346303Y-11345985D02*
X285408207Y-11469795D01*
X285408207Y-11469795D02*
X285470112Y-11531700D01*
X285470112Y-11531700D02*
X285593922Y-11593604D01*
X285593922Y-11593604D02*
X285841541Y-11593604D01*
X285841541Y-11593604D02*
X285965350Y-11531700D01*
X285965350Y-11531700D02*
X286027255Y-11469795D01*
X286027255Y-11469795D02*
X286089160Y-11345985D01*
X286089160Y-11345985D02*
X286089160Y-11036461D01*
X286089160Y-11036461D02*
X286027255Y-10912652D01*
X286027255Y-10912652D02*
X285965350Y-10850747D01*
X285965350Y-10850747D02*
X285841541Y-10788842D01*
X285841541Y-10788842D02*
X285593922Y-10788842D01*
X285593922Y-10788842D02*
X285470112Y-10850747D01*
X285470112Y-10850747D02*
X285408207Y-10912652D01*
X285408207Y-10912652D02*
X285346303Y-11036461D01*
D10*
D11*
X60000000Y-198007200D02*
X60000000Y-200007200D01*
D10*
D11*
X110000000Y-198007200D02*
X110000000Y-200007200D01*
D10*
D11*
X160000000Y-198007200D02*
X160000000Y-200007200D01*
D10*
D11*
X210000000Y-198007200D02*
X210000000Y-200007200D01*
D10*
D11*
X260000000Y-198007200D02*
X260000000Y-200007200D01*
D10*
D11*
X36089160Y-199600804D02*
X35346303Y-199600804D01*
X35717731Y-199600804D02*
X35717731Y-198300804D01*
X35717731Y-198300804D02*
X35593922Y-198486519D01*
X35593922Y-198486519D02*
X35470112Y-198610328D01*
X35470112Y-198610328D02*
X35346303Y-198672233D01*
D10*
D11*
X85346303Y-198424614D02*
X85408207Y-198362709D01*
X85408207Y-198362709D02*
X85532017Y-198300804D01*
X85532017Y-198300804D02*
X85841541Y-198300804D01*
X85841541Y-198300804D02*
X85965350Y-198362709D01*
X85965350Y-198362709D02*
X86027255Y-198424614D01*
X86027255Y-198424614D02*
X86089160Y-198548423D01*
X86089160Y-198548423D02*
X86089160Y-198672233D01*
X86089160Y-198672233D02*
X86027255Y-198857947D01*
X86027255Y-198857947D02*
X85284398Y-199600804D01*
X85284398Y-199600804D02*
X86089160Y-199600804D01*
D10*
D11*
X135284398Y-198300804D02*
X136089160Y-198300804D01*
X136089160Y-198300804D02*
X135655826Y-198796042D01*
X135655826Y-198796042D02*
X135841541Y-198796042D01*
X135841541Y-198796042D02*
X135965350Y-198857947D01*
X135965350Y-198857947D02*
X136027255Y-198919852D01*
X136027255Y-198919852D02*
X136089160Y-199043661D01*
X136089160Y-199043661D02*
X136089160Y-199353185D01*
X136089160Y-199353185D02*
X136027255Y-199476995D01*
X136027255Y-199476995D02*
X135965350Y-199538900D01*
X135965350Y-199538900D02*
X135841541Y-199600804D01*
X135841541Y-199600804D02*
X135470112Y-199600804D01*
X135470112Y-199600804D02*
X135346303Y-199538900D01*
X135346303Y-199538900D02*
X135284398Y-199476995D01*
D10*
D11*
X185965350Y-198734138D02*
X185965350Y-199600804D01*
X185655826Y-198238900D02*
X185346303Y-199167471D01*
X185346303Y-199167471D02*
X186151064Y-199167471D01*
D10*
D11*
X236027255Y-198300804D02*
X235408207Y-198300804D01*
X235408207Y-198300804D02*
X235346303Y-198919852D01*
X235346303Y-198919852D02*
X235408207Y-198857947D01*
X235408207Y-198857947D02*
X235532017Y-198796042D01*
X235532017Y-198796042D02*
X235841541Y-198796042D01*
X235841541Y-198796042D02*
X235965350Y-198857947D01*
X235965350Y-198857947D02*
X236027255Y-198919852D01*
X236027255Y-198919852D02*
X236089160Y-199043661D01*
X236089160Y-199043661D02*
X236089160Y-199353185D01*
X236089160Y-199353185D02*
X236027255Y-199476995D01*
X236027255Y-199476995D02*
X235965350Y-199538900D01*
X235965350Y-199538900D02*
X235841541Y-199600804D01*
X235841541Y-199600804D02*
X235532017Y-199600804D01*
X235532017Y-199600804D02*
X235408207Y-199538900D01*
X235408207Y-199538900D02*
X235346303Y-199476995D01*
D10*
D11*
X285965350Y-198300804D02*
X285717731Y-198300804D01*
X285717731Y-198300804D02*
X285593922Y-198362709D01*
X285593922Y-198362709D02*
X285532017Y-198424614D01*
X285532017Y-198424614D02*
X285408207Y-198610328D01*
X285408207Y-198610328D02*
X285346303Y-198857947D01*
X285346303Y-198857947D02*
X285346303Y-199353185D01*
X285346303Y-199353185D02*
X285408207Y-199476995D01*
X285408207Y-199476995D02*
X285470112Y-199538900D01*
X285470112Y-199538900D02*
X285593922Y-199600804D01*
X285593922Y-199600804D02*
X285841541Y-199600804D01*
X285841541Y-199600804D02*
X285965350Y-199538900D01*
X285965350Y-199538900D02*
X286027255Y-199476995D01*
X286027255Y-199476995D02*
X286089160Y-199353185D01*
X286089160Y-199353185D02*
X286089160Y-199043661D01*
X286089160Y-199043661D02*
X286027255Y-198919852D01*
X286027255Y-198919852D02*
X285965350Y-198857947D01*
X285965350Y-198857947D02*
X285841541Y-198796042D01*
X285841541Y-198796042D02*
X285593922Y-198796042D01*
X285593922Y-198796042D02*
X285470112Y-198857947D01*
X285470112Y-198857947D02*
X285408207Y-198919852D01*
X285408207Y-198919852D02*
X285346303Y-199043661D01*
D10*
D11*
X10000000Y-60000000D02*
X12000000Y-60000000D01*
D10*
D11*
X10000000Y-110000000D02*
X12000000Y-110000000D01*
D10*
D11*
X10000000Y-160000000D02*
X12000000Y-160000000D01*
D10*
D11*
X10690476Y-35222176D02*
X11309523Y-35222176D01*
X10566666Y-35593604D02*
X10999999Y-34293604D01*
X10999999Y-34293604D02*
X11433333Y-35593604D01*
D10*
D11*
X11092857Y-84912652D02*
X11278571Y-84974557D01*
X11278571Y-84974557D02*
X11340476Y-85036461D01*
X11340476Y-85036461D02*
X11402380Y-85160271D01*
X11402380Y-85160271D02*
X11402380Y-85345985D01*
X11402380Y-85345985D02*
X11340476Y-85469795D01*
X11340476Y-85469795D02*
X11278571Y-85531700D01*
X11278571Y-85531700D02*
X11154761Y-85593604D01*
X11154761Y-85593604D02*
X10659523Y-85593604D01*
X10659523Y-85593604D02*
X10659523Y-84293604D01*
X10659523Y-84293604D02*
X11092857Y-84293604D01*
X11092857Y-84293604D02*
X11216666Y-84355509D01*
X11216666Y-84355509D02*
X11278571Y-84417414D01*
X11278571Y-84417414D02*
X11340476Y-84541223D01*
X11340476Y-84541223D02*
X11340476Y-84665033D01*
X11340476Y-84665033D02*
X11278571Y-84788842D01*
X11278571Y-84788842D02*
X11216666Y-84850747D01*
X11216666Y-84850747D02*
X11092857Y-84912652D01*
X11092857Y-84912652D02*
X10659523Y-84912652D01*
D10*
D11*
X11402380Y-135469795D02*
X11340476Y-135531700D01*
X11340476Y-135531700D02*
X11154761Y-135593604D01*
X11154761Y-135593604D02*
X11030952Y-135593604D01*
X11030952Y-135593604D02*
X10845238Y-135531700D01*
X10845238Y-135531700D02*
X10721428Y-135407890D01*
X10721428Y-135407890D02*
X10659523Y-135284080D01*
X10659523Y-135284080D02*
X10597619Y-135036461D01*
X10597619Y-135036461D02*
X10597619Y-134850747D01*
X10597619Y-134850747D02*
X10659523Y-134603128D01*
X10659523Y-134603128D02*
X10721428Y-134479319D01*
X10721428Y-134479319D02*
X10845238Y-134355509D01*
X10845238Y-134355509D02*
X11030952Y-134293604D01*
X11030952Y-134293604D02*
X11154761Y-134293604D01*
X11154761Y-134293604D02*
X11340476Y-134355509D01*
X11340476Y-134355509D02*
X11402380Y-134417414D01*
D10*
D11*
X10659523Y-185593604D02*
X10659523Y-184293604D01*
X10659523Y-184293604D02*
X10969047Y-184293604D01*
X10969047Y-184293604D02*
X11154761Y-184355509D01*
X11154761Y-184355509D02*
X11278571Y-184479319D01*
X11278571Y-184479319D02*
X11340476Y-184603128D01*
X11340476Y-184603128D02*
X11402380Y-184850747D01*
X11402380Y-184850747D02*
X11402380Y-185036461D01*
X11402380Y-185036461D02*
X11340476Y-185284080D01*
X11340476Y-185284080D02*
X11278571Y-185407890D01*
X11278571Y-185407890D02*
X11154761Y-185531700D01*
X11154761Y-185531700D02*
X10969047Y-185593604D01*
X10969047Y-185593604D02*
X10659523Y-185593604D01*
D10*
D11*
X287002200Y-60000000D02*
X285002200Y-60000000D01*
D10*
D11*
X287002200Y-110000000D02*
X285002200Y-110000000D01*
D10*
D11*
X287002200Y-160000000D02*
X285002200Y-160000000D01*
D10*
D11*
X285692676Y-35222176D02*
X286311723Y-35222176D01*
X285568866Y-35593604D02*
X286002199Y-34293604D01*
X286002199Y-34293604D02*
X286435533Y-35593604D01*
D10*
D11*
X286095057Y-84912652D02*
X286280771Y-84974557D01*
X286280771Y-84974557D02*
X286342676Y-85036461D01*
X286342676Y-85036461D02*
X286404580Y-85160271D01*
X286404580Y-85160271D02*
X286404580Y-85345985D01*
X286404580Y-85345985D02*
X286342676Y-85469795D01*
X286342676Y-85469795D02*
X286280771Y-85531700D01*
X286280771Y-85531700D02*
X286156961Y-85593604D01*
X286156961Y-85593604D02*
X285661723Y-85593604D01*
X285661723Y-85593604D02*
X285661723Y-84293604D01*
X285661723Y-84293604D02*
X286095057Y-84293604D01*
X286095057Y-84293604D02*
X286218866Y-84355509D01*
X286218866Y-84355509D02*
X286280771Y-84417414D01*
X286280771Y-84417414D02*
X286342676Y-84541223D01*
X286342676Y-84541223D02*
X286342676Y-84665033D01*
X286342676Y-84665033D02*
X286280771Y-84788842D01*
X286280771Y-84788842D02*
X286218866Y-84850747D01*
X286218866Y-84850747D02*
X286095057Y-84912652D01*
X286095057Y-84912652D02*
X285661723Y-84912652D01*
D10*
D11*
X286404580Y-135469795D02*
X286342676Y-135531700D01*
X286342676Y-135531700D02*
X286156961Y-135593604D01*
X286156961Y-135593604D02*
X286033152Y-135593604D01*
X286033152Y-135593604D02*
X285847438Y-135531700D01*
X285847438Y-135531700D02*
X285723628Y-135407890D01*
X285723628Y-135407890D02*
X285661723Y-135284080D01*
X285661723Y-135284080D02*
X285599819Y-135036461D01*
X285599819Y-135036461D02*
X285599819Y-134850747D01*
X285599819Y-134850747D02*
X285661723Y-134603128D01*
X285661723Y-134603128D02*
X285723628Y-134479319D01*
X285723628Y-134479319D02*
X285847438Y-134355509D01*
X285847438Y-134355509D02*
X286033152Y-134293604D01*
X286033152Y-134293604D02*
X286156961Y-134293604D01*
X286156961Y-134293604D02*
X286342676Y-134355509D01*
X286342676Y-134355509D02*
X286404580Y-134417414D01*
D10*
D11*
X285661723Y-185593604D02*
X285661723Y-184293604D01*
X285661723Y-184293604D02*
X285971247Y-184293604D01*
X285971247Y-184293604D02*
X286156961Y-184355509D01*
X286156961Y-184355509D02*
X286280771Y-184479319D01*
X286280771Y-184479319D02*
X286342676Y-184603128D01*
X286342676Y-184603128D02*
X286404580Y-184850747D01*
X286404580Y-184850747D02*
X286404580Y-185036461D01*
X286404580Y-185036461D02*
X286342676Y-185284080D01*
X286342676Y-185284080D02*
X286280771Y-185407890D01*
X286280771Y-185407890D02*
X286156961Y-185531700D01*
X286156961Y-185531700D02*
X285971247Y-185593604D01*
X285971247Y-185593604D02*
X285661723Y-185593604D01*
D10*
D11*
X200458026Y-193793328D02*
X200458026Y-192293328D01*
X200458026Y-192293328D02*
X200815169Y-192293328D01*
X200815169Y-192293328D02*
X201029455Y-192364757D01*
X201029455Y-192364757D02*
X201172312Y-192507614D01*
X201172312Y-192507614D02*
X201243741Y-192650471D01*
X201243741Y-192650471D02*
X201315169Y-192936185D01*
X201315169Y-192936185D02*
X201315169Y-193150471D01*
X201315169Y-193150471D02*
X201243741Y-193436185D01*
X201243741Y-193436185D02*
X201172312Y-193579042D01*
X201172312Y-193579042D02*
X201029455Y-193721900D01*
X201029455Y-193721900D02*
X200815169Y-193793328D01*
X200815169Y-193793328D02*
X200458026Y-193793328D01*
X202600884Y-193793328D02*
X202600884Y-193007614D01*
X202600884Y-193007614D02*
X202529455Y-192864757D01*
X202529455Y-192864757D02*
X202386598Y-192793328D01*
X202386598Y-192793328D02*
X202100884Y-192793328D01*
X202100884Y-192793328D02*
X201958026Y-192864757D01*
X202600884Y-193721900D02*
X202458026Y-193793328D01*
X202458026Y-193793328D02*
X202100884Y-193793328D01*
X202100884Y-193793328D02*
X201958026Y-193721900D01*
X201958026Y-193721900D02*
X201886598Y-193579042D01*
X201886598Y-193579042D02*
X201886598Y-193436185D01*
X201886598Y-193436185D02*
X201958026Y-193293328D01*
X201958026Y-193293328D02*
X202100884Y-193221900D01*
X202100884Y-193221900D02*
X202458026Y-193221900D01*
X202458026Y-193221900D02*
X202600884Y-193150471D01*
X203100884Y-192793328D02*
X203672312Y-192793328D01*
X203315169Y-192293328D02*
X203315169Y-193579042D01*
X203315169Y-193579042D02*
X203386598Y-193721900D01*
X203386598Y-193721900D02*
X203529455Y-193793328D01*
X203529455Y-193793328D02*
X203672312Y-193793328D01*
X204743741Y-193721900D02*
X204600884Y-193793328D01*
X204600884Y-193793328D02*
X204315170Y-193793328D01*
X204315170Y-193793328D02*
X204172312Y-193721900D01*
X204172312Y-193721900D02*
X204100884Y-193579042D01*
X204100884Y-193579042D02*
X204100884Y-193007614D01*
X204100884Y-193007614D02*
X204172312Y-192864757D01*
X204172312Y-192864757D02*
X204315170Y-192793328D01*
X204315170Y-192793328D02*
X204600884Y-192793328D01*
X204600884Y-192793328D02*
X204743741Y-192864757D01*
X204743741Y-192864757D02*
X204815170Y-193007614D01*
X204815170Y-193007614D02*
X204815170Y-193150471D01*
X204815170Y-193150471D02*
X204100884Y-193293328D01*
X205458026Y-193650471D02*
X205529455Y-193721900D01*
X205529455Y-193721900D02*
X205458026Y-193793328D01*
X205458026Y-193793328D02*
X205386598Y-193721900D01*
X205386598Y-193721900D02*
X205458026Y-193650471D01*
X205458026Y-193650471D02*
X205458026Y-193793328D01*
X205458026Y-192864757D02*
X205529455Y-192936185D01*
X205529455Y-192936185D02*
X205458026Y-193007614D01*
X205458026Y-193007614D02*
X205386598Y-192936185D01*
X205386598Y-192936185D02*
X205458026Y-192864757D01*
X205458026Y-192864757D02*
X205458026Y-193007614D01*
X208100884Y-193793328D02*
X207243741Y-193793328D01*
X207672312Y-193793328D02*
X207672312Y-192293328D01*
X207672312Y-192293328D02*
X207529455Y-192507614D01*
X207529455Y-192507614D02*
X207386598Y-192650471D01*
X207386598Y-192650471D02*
X207243741Y-192721900D01*
X208815169Y-193793328D02*
X209100883Y-193793328D01*
X209100883Y-193793328D02*
X209243740Y-193721900D01*
X209243740Y-193721900D02*
X209315169Y-193650471D01*
X209315169Y-193650471D02*
X209458026Y-193436185D01*
X209458026Y-193436185D02*
X209529455Y-193150471D01*
X209529455Y-193150471D02*
X209529455Y-192579042D01*
X209529455Y-192579042D02*
X209458026Y-192436185D01*
X209458026Y-192436185D02*
X209386598Y-192364757D01*
X209386598Y-192364757D02*
X209243740Y-192293328D01*
X209243740Y-192293328D02*
X208958026Y-192293328D01*
X208958026Y-192293328D02*
X208815169Y-192364757D01*
X208815169Y-192364757D02*
X208743740Y-192436185D01*
X208743740Y-192436185D02*
X208672312Y-192579042D01*
X208672312Y-192579042D02*
X208672312Y-192936185D01*
X208672312Y-192936185D02*
X208743740Y-193079042D01*
X208743740Y-193079042D02*
X208815169Y-193150471D01*
X208815169Y-193150471D02*
X208958026Y-193221900D01*
X208958026Y-193221900D02*
X209243740Y-193221900D01*
X209243740Y-193221900D02*
X209386598Y-193150471D01*
X209386598Y-193150471D02*
X209458026Y-193079042D01*
X209458026Y-193079042D02*
X209529455Y-192936185D01*
X211243740Y-192221900D02*
X209958026Y-194150471D01*
X212029455Y-192293328D02*
X212172312Y-192293328D01*
X212172312Y-192293328D02*
X212315169Y-192364757D01*
X212315169Y-192364757D02*
X212386598Y-192436185D01*
X212386598Y-192436185D02*
X212458026Y-192579042D01*
X212458026Y-192579042D02*
X212529455Y-192864757D01*
X212529455Y-192864757D02*
X212529455Y-193221900D01*
X212529455Y-193221900D02*
X212458026Y-193507614D01*
X212458026Y-193507614D02*
X212386598Y-193650471D01*
X212386598Y-193650471D02*
X212315169Y-193721900D01*
X212315169Y-193721900D02*
X212172312Y-193793328D01*
X212172312Y-193793328D02*
X212029455Y-193793328D01*
X212029455Y-193793328D02*
X211886598Y-193721900D01*
X211886598Y-193721900D02*
X211815169Y-193650471D01*
X211815169Y-193650471D02*
X211743740Y-193507614D01*
X211743740Y-193507614D02*
X211672312Y-193221900D01*
X211672312Y-193221900D02*
X211672312Y-192864757D01*
X211672312Y-192864757D02*
X211743740Y-192579042D01*
X211743740Y-192579042D02*
X211815169Y-192436185D01*
X211815169Y-192436185D02*
X211886598Y-192364757D01*
X211886598Y-192364757D02*
X212029455Y-192293328D01*
X213029454Y-192293328D02*
X213958026Y-192293328D01*
X213958026Y-192293328D02*
X213458026Y-192864757D01*
X213458026Y-192864757D02*
X213672311Y-192864757D01*
X213672311Y-192864757D02*
X213815169Y-192936185D01*
X213815169Y-192936185D02*
X213886597Y-193007614D01*
X213886597Y-193007614D02*
X213958026Y-193150471D01*
X213958026Y-193150471D02*
X213958026Y-193507614D01*
X213958026Y-193507614D02*
X213886597Y-193650471D01*
X213886597Y-193650471D02*
X213815169Y-193721900D01*
X213815169Y-193721900D02*
X213672311Y-193793328D01*
X213672311Y-193793328D02*
X213243740Y-193793328D01*
X213243740Y-193793328D02*
X213100883Y-193721900D01*
X213100883Y-193721900D02*
X213029454Y-193650471D01*
X215672311Y-192221900D02*
X214386597Y-194150471D01*
X216100883Y-192436185D02*
X216172311Y-192364757D01*
X216172311Y-192364757D02*
X216315169Y-192293328D01*
X216315169Y-192293328D02*
X216672311Y-192293328D01*
X216672311Y-192293328D02*
X216815169Y-192364757D01*
X216815169Y-192364757D02*
X216886597Y-192436185D01*
X216886597Y-192436185D02*
X216958026Y-192579042D01*
X216958026Y-192579042D02*
X216958026Y-192721900D01*
X216958026Y-192721900D02*
X216886597Y-192936185D01*
X216886597Y-192936185D02*
X216029454Y-193793328D01*
X216029454Y-193793328D02*
X216958026Y-193793328D01*
X217886597Y-192293328D02*
X218029454Y-192293328D01*
X218029454Y-192293328D02*
X218172311Y-192364757D01*
X218172311Y-192364757D02*
X218243740Y-192436185D01*
X218243740Y-192436185D02*
X218315168Y-192579042D01*
X218315168Y-192579042D02*
X218386597Y-192864757D01*
X218386597Y-192864757D02*
X218386597Y-193221900D01*
X218386597Y-193221900D02*
X218315168Y-193507614D01*
X218315168Y-193507614D02*
X218243740Y-193650471D01*
X218243740Y-193650471D02*
X218172311Y-193721900D01*
X218172311Y-193721900D02*
X218029454Y-193793328D01*
X218029454Y-193793328D02*
X217886597Y-193793328D01*
X217886597Y-193793328D02*
X217743740Y-193721900D01*
X217743740Y-193721900D02*
X217672311Y-193650471D01*
X217672311Y-193650471D02*
X217600882Y-193507614D01*
X217600882Y-193507614D02*
X217529454Y-193221900D01*
X217529454Y-193221900D02*
X217529454Y-192864757D01*
X217529454Y-192864757D02*
X217600882Y-192579042D01*
X217600882Y-192579042D02*
X217672311Y-192436185D01*
X217672311Y-192436185D02*
X217743740Y-192364757D01*
X217743740Y-192364757D02*
X217886597Y-192293328D01*
X218958025Y-192436185D02*
X219029453Y-192364757D01*
X219029453Y-192364757D02*
X219172311Y-192293328D01*
X219172311Y-192293328D02*
X219529453Y-192293328D01*
X219529453Y-192293328D02*
X219672311Y-192364757D01*
X219672311Y-192364757D02*
X219743739Y-192436185D01*
X219743739Y-192436185D02*
X219815168Y-192579042D01*
X219815168Y-192579042D02*
X219815168Y-192721900D01*
X219815168Y-192721900D02*
X219743739Y-192936185D01*
X219743739Y-192936185D02*
X218886596Y-193793328D01*
X218886596Y-193793328D02*
X219815168Y-193793328D01*
X221100882Y-192793328D02*
X221100882Y-193793328D01*
X220743739Y-192221900D02*
X220386596Y-193293328D01*
X220386596Y-193293328D02*
X221315167Y-193293328D01*
D10*
D11*
X177002200Y-194507200D02*
X285002200Y-194507200D01*
D10*
D11*
X178458026Y-196593328D02*
X178458026Y-195093328D01*
X179315169Y-196593328D02*
X178672312Y-195736185D01*
X179315169Y-195093328D02*
X178458026Y-195950471D01*
X179958026Y-196593328D02*
X179958026Y-195593328D01*
X179958026Y-195093328D02*
X179886598Y-195164757D01*
X179886598Y-195164757D02*
X179958026Y-195236185D01*
X179958026Y-195236185D02*
X180029455Y-195164757D01*
X180029455Y-195164757D02*
X179958026Y-195093328D01*
X179958026Y-195093328D02*
X179958026Y-195236185D01*
X181529455Y-196450471D02*
X181458027Y-196521900D01*
X181458027Y-196521900D02*
X181243741Y-196593328D01*
X181243741Y-196593328D02*
X181100884Y-196593328D01*
X181100884Y-196593328D02*
X180886598Y-196521900D01*
X180886598Y-196521900D02*
X180743741Y-196379042D01*
X180743741Y-196379042D02*
X180672312Y-196236185D01*
X180672312Y-196236185D02*
X180600884Y-195950471D01*
X180600884Y-195950471D02*
X180600884Y-195736185D01*
X180600884Y-195736185D02*
X180672312Y-195450471D01*
X180672312Y-195450471D02*
X180743741Y-195307614D01*
X180743741Y-195307614D02*
X180886598Y-195164757D01*
X180886598Y-195164757D02*
X181100884Y-195093328D01*
X181100884Y-195093328D02*
X181243741Y-195093328D01*
X181243741Y-195093328D02*
X181458027Y-195164757D01*
X181458027Y-195164757D02*
X181529455Y-195236185D01*
X182815170Y-196593328D02*
X182815170Y-195807614D01*
X182815170Y-195807614D02*
X182743741Y-195664757D01*
X182743741Y-195664757D02*
X182600884Y-195593328D01*
X182600884Y-195593328D02*
X182315170Y-195593328D01*
X182315170Y-195593328D02*
X182172312Y-195664757D01*
X182815170Y-196521900D02*
X182672312Y-196593328D01*
X182672312Y-196593328D02*
X182315170Y-196593328D01*
X182315170Y-196593328D02*
X182172312Y-196521900D01*
X182172312Y-196521900D02*
X182100884Y-196379042D01*
X182100884Y-196379042D02*
X182100884Y-196236185D01*
X182100884Y-196236185D02*
X182172312Y-196093328D01*
X182172312Y-196093328D02*
X182315170Y-196021900D01*
X182315170Y-196021900D02*
X182672312Y-196021900D01*
X182672312Y-196021900D02*
X182815170Y-195950471D01*
X184172313Y-196593328D02*
X184172313Y-195093328D01*
X184172313Y-196521900D02*
X184029455Y-196593328D01*
X184029455Y-196593328D02*
X183743741Y-196593328D01*
X183743741Y-196593328D02*
X183600884Y-196521900D01*
X183600884Y-196521900D02*
X183529455Y-196450471D01*
X183529455Y-196450471D02*
X183458027Y-196307614D01*
X183458027Y-196307614D02*
X183458027Y-195879042D01*
X183458027Y-195879042D02*
X183529455Y-195736185D01*
X183529455Y-195736185D02*
X183600884Y-195664757D01*
X183600884Y-195664757D02*
X183743741Y-195593328D01*
X183743741Y-195593328D02*
X184029455Y-195593328D01*
X184029455Y-195593328D02*
X184172313Y-195664757D01*
X186029455Y-195807614D02*
X186529455Y-195807614D01*
X186743741Y-196593328D02*
X186029455Y-196593328D01*
X186029455Y-196593328D02*
X186029455Y-195093328D01*
X186029455Y-195093328D02*
X186743741Y-195093328D01*
X187386598Y-196450471D02*
X187458027Y-196521900D01*
X187458027Y-196521900D02*
X187386598Y-196593328D01*
X187386598Y-196593328D02*
X187315170Y-196521900D01*
X187315170Y-196521900D02*
X187386598Y-196450471D01*
X187386598Y-196450471D02*
X187386598Y-196593328D01*
X188100884Y-196593328D02*
X188100884Y-195093328D01*
X188100884Y-195093328D02*
X188458027Y-195093328D01*
X188458027Y-195093328D02*
X188672313Y-195164757D01*
X188672313Y-195164757D02*
X188815170Y-195307614D01*
X188815170Y-195307614D02*
X188886599Y-195450471D01*
X188886599Y-195450471D02*
X188958027Y-195736185D01*
X188958027Y-195736185D02*
X188958027Y-195950471D01*
X188958027Y-195950471D02*
X188886599Y-196236185D01*
X188886599Y-196236185D02*
X188815170Y-196379042D01*
X188815170Y-196379042D02*
X188672313Y-196521900D01*
X188672313Y-196521900D02*
X188458027Y-196593328D01*
X188458027Y-196593328D02*
X188100884Y-196593328D01*
X189600884Y-196450471D02*
X189672313Y-196521900D01*
X189672313Y-196521900D02*
X189600884Y-196593328D01*
X189600884Y-196593328D02*
X189529456Y-196521900D01*
X189529456Y-196521900D02*
X189600884Y-196450471D01*
X189600884Y-196450471D02*
X189600884Y-196593328D01*
X190243742Y-196164757D02*
X190958028Y-196164757D01*
X190100885Y-196593328D02*
X190600885Y-195093328D01*
X190600885Y-195093328D02*
X191100885Y-196593328D01*
X191600884Y-196450471D02*
X191672313Y-196521900D01*
X191672313Y-196521900D02*
X191600884Y-196593328D01*
X191600884Y-196593328D02*
X191529456Y-196521900D01*
X191529456Y-196521900D02*
X191600884Y-196450471D01*
X191600884Y-196450471D02*
X191600884Y-196593328D01*
X194600884Y-196593328D02*
X194600884Y-195093328D01*
X194743742Y-196021900D02*
X195172313Y-196593328D01*
X195172313Y-195593328D02*
X194600884Y-196164757D01*
X195815170Y-196593328D02*
X195815170Y-195593328D01*
X195815170Y-195093328D02*
X195743742Y-195164757D01*
X195743742Y-195164757D02*
X195815170Y-195236185D01*
X195815170Y-195236185D02*
X195886599Y-195164757D01*
X195886599Y-195164757D02*
X195815170Y-195093328D01*
X195815170Y-195093328D02*
X195815170Y-195236185D01*
X197172314Y-196521900D02*
X197029456Y-196593328D01*
X197029456Y-196593328D02*
X196743742Y-196593328D01*
X196743742Y-196593328D02*
X196600885Y-196521900D01*
X196600885Y-196521900D02*
X196529456Y-196450471D01*
X196529456Y-196450471D02*
X196458028Y-196307614D01*
X196458028Y-196307614D02*
X196458028Y-195879042D01*
X196458028Y-195879042D02*
X196529456Y-195736185D01*
X196529456Y-195736185D02*
X196600885Y-195664757D01*
X196600885Y-195664757D02*
X196743742Y-195593328D01*
X196743742Y-195593328D02*
X197029456Y-195593328D01*
X197029456Y-195593328D02*
X197172314Y-195664757D01*
X198458028Y-196593328D02*
X198458028Y-195807614D01*
X198458028Y-195807614D02*
X198386599Y-195664757D01*
X198386599Y-195664757D02*
X198243742Y-195593328D01*
X198243742Y-195593328D02*
X197958028Y-195593328D01*
X197958028Y-195593328D02*
X197815170Y-195664757D01*
X198458028Y-196521900D02*
X198315170Y-196593328D01*
X198315170Y-196593328D02*
X197958028Y-196593328D01*
X197958028Y-196593328D02*
X197815170Y-196521900D01*
X197815170Y-196521900D02*
X197743742Y-196379042D01*
X197743742Y-196379042D02*
X197743742Y-196236185D01*
X197743742Y-196236185D02*
X197815170Y-196093328D01*
X197815170Y-196093328D02*
X197958028Y-196021900D01*
X197958028Y-196021900D02*
X198315170Y-196021900D01*
X198315170Y-196021900D02*
X198458028Y-195950471D01*
X199815171Y-196593328D02*
X199815171Y-195093328D01*
X199815171Y-196521900D02*
X199672313Y-196593328D01*
X199672313Y-196593328D02*
X199386599Y-196593328D01*
X199386599Y-196593328D02*
X199243742Y-196521900D01*
X199243742Y-196521900D02*
X199172313Y-196450471D01*
X199172313Y-196450471D02*
X199100885Y-196307614D01*
X199100885Y-196307614D02*
X199100885Y-195879042D01*
X199100885Y-195879042D02*
X199172313Y-195736185D01*
X199172313Y-195736185D02*
X199243742Y-195664757D01*
X199243742Y-195664757D02*
X199386599Y-195593328D01*
X199386599Y-195593328D02*
X199672313Y-195593328D01*
X199672313Y-195593328D02*
X199815171Y-195664757D01*
X201529456Y-195093328D02*
X202529456Y-195093328D01*
X202529456Y-195093328D02*
X201886599Y-196593328D01*
X203100884Y-196450471D02*
X203172313Y-196521900D01*
X203172313Y-196521900D02*
X203100884Y-196593328D01*
X203100884Y-196593328D02*
X203029456Y-196521900D01*
X203029456Y-196521900D02*
X203100884Y-196450471D01*
X203100884Y-196450471D02*
X203100884Y-196593328D01*
X204100885Y-195093328D02*
X204243742Y-195093328D01*
X204243742Y-195093328D02*
X204386599Y-195164757D01*
X204386599Y-195164757D02*
X204458028Y-195236185D01*
X204458028Y-195236185D02*
X204529456Y-195379042D01*
X204529456Y-195379042D02*
X204600885Y-195664757D01*
X204600885Y-195664757D02*
X204600885Y-196021900D01*
X204600885Y-196021900D02*
X204529456Y-196307614D01*
X204529456Y-196307614D02*
X204458028Y-196450471D01*
X204458028Y-196450471D02*
X204386599Y-196521900D01*
X204386599Y-196521900D02*
X204243742Y-196593328D01*
X204243742Y-196593328D02*
X204100885Y-196593328D01*
X204100885Y-196593328D02*
X203958028Y-196521900D01*
X203958028Y-196521900D02*
X203886599Y-196450471D01*
X203886599Y-196450471D02*
X203815170Y-196307614D01*
X203815170Y-196307614D02*
X203743742Y-196021900D01*
X203743742Y-196021900D02*
X203743742Y-195664757D01*
X203743742Y-195664757D02*
X203815170Y-195379042D01*
X203815170Y-195379042D02*
X203886599Y-195236185D01*
X203886599Y-195236185D02*
X203958028Y-195164757D01*
X203958028Y-195164757D02*
X204100885Y-195093328D01*
X205243741Y-196450471D02*
X205315170Y-196521900D01*
X205315170Y-196521900D02*
X205243741Y-196593328D01*
X205243741Y-196593328D02*
X205172313Y-196521900D01*
X205172313Y-196521900D02*
X205243741Y-196450471D01*
X205243741Y-196450471D02*
X205243741Y-196593328D01*
X205815170Y-195093328D02*
X206815170Y-195093328D01*
X206815170Y-195093328D02*
X206172313Y-196593328D01*
D10*
D11*
X177002200Y-191507200D02*
X285002200Y-191507200D01*
D10*
D12*
X264413853Y-193785528D02*
X263913853Y-193071242D01*
X263556710Y-193785528D02*
X263556710Y-192285528D01*
X263556710Y-192285528D02*
X264128139Y-192285528D01*
X264128139Y-192285528D02*
X264270996Y-192356957D01*
X264270996Y-192356957D02*
X264342425Y-192428385D01*
X264342425Y-192428385D02*
X264413853Y-192571242D01*
X264413853Y-192571242D02*
X264413853Y-192785528D01*
X264413853Y-192785528D02*
X264342425Y-192928385D01*
X264342425Y-192928385D02*
X264270996Y-192999814D01*
X264270996Y-192999814D02*
X264128139Y-193071242D01*
X264128139Y-193071242D02*
X263556710Y-193071242D01*
X265628139Y-193714100D02*
X265485282Y-193785528D01*
X265485282Y-193785528D02*
X265199568Y-193785528D01*
X265199568Y-193785528D02*
X265056710Y-193714100D01*
X265056710Y-193714100D02*
X264985282Y-193571242D01*
X264985282Y-193571242D02*
X264985282Y-192999814D01*
X264985282Y-192999814D02*
X265056710Y-192856957D01*
X265056710Y-192856957D02*
X265199568Y-192785528D01*
X265199568Y-192785528D02*
X265485282Y-192785528D01*
X265485282Y-192785528D02*
X265628139Y-192856957D01*
X265628139Y-192856957D02*
X265699568Y-192999814D01*
X265699568Y-192999814D02*
X265699568Y-193142671D01*
X265699568Y-193142671D02*
X264985282Y-193285528D01*
X266199567Y-192785528D02*
X266556710Y-193785528D01*
X266556710Y-193785528D02*
X266913853Y-192785528D01*
X267485281Y-193642671D02*
X267556710Y-193714100D01*
X267556710Y-193714100D02*
X267485281Y-193785528D01*
X267485281Y-193785528D02*
X267413853Y-193714100D01*
X267413853Y-193714100D02*
X267485281Y-193642671D01*
X267485281Y-193642671D02*
X267485281Y-193785528D01*
X267485281Y-192856957D02*
X267556710Y-192928385D01*
X267556710Y-192928385D02*
X267485281Y-192999814D01*
X267485281Y-192999814D02*
X267413853Y-192928385D01*
X267413853Y-192928385D02*
X267485281Y-192856957D01*
X267485281Y-192856957D02*
X267485281Y-192999814D01*
X269199567Y-192785528D02*
X269556710Y-193785528D01*
X269556710Y-193785528D02*
X269913853Y-192785528D01*
X270770996Y-192285528D02*
X270913853Y-192285528D01*
X270913853Y-192285528D02*
X271056710Y-192356957D01*
X271056710Y-192356957D02*
X271128139Y-192428385D01*
X271128139Y-192428385D02*
X271199567Y-192571242D01*
X271199567Y-192571242D02*
X271270996Y-192856957D01*
X271270996Y-192856957D02*
X271270996Y-193214100D01*
X271270996Y-193214100D02*
X271199567Y-193499814D01*
X271199567Y-193499814D02*
X271128139Y-193642671D01*
X271128139Y-193642671D02*
X271056710Y-193714100D01*
X271056710Y-193714100D02*
X270913853Y-193785528D01*
X270913853Y-193785528D02*
X270770996Y-193785528D01*
X270770996Y-193785528D02*
X270628139Y-193714100D01*
X270628139Y-193714100D02*
X270556710Y-193642671D01*
X270556710Y-193642671D02*
X270485281Y-193499814D01*
X270485281Y-193499814D02*
X270413853Y-193214100D01*
X270413853Y-193214100D02*
X270413853Y-192856957D01*
X270413853Y-192856957D02*
X270485281Y-192571242D01*
X270485281Y-192571242D02*
X270556710Y-192428385D01*
X270556710Y-192428385D02*
X270628139Y-192356957D01*
X270628139Y-192356957D02*
X270770996Y-192285528D01*
X271842424Y-192428385D02*
X271913852Y-192356957D01*
X271913852Y-192356957D02*
X272056710Y-192285528D01*
X272056710Y-192285528D02*
X272413852Y-192285528D01*
X272413852Y-192285528D02*
X272556710Y-192356957D01*
X272556710Y-192356957D02*
X272628138Y-192428385D01*
X272628138Y-192428385D02*
X272699567Y-192571242D01*
X272699567Y-192571242D02*
X272699567Y-192714100D01*
X272699567Y-192714100D02*
X272628138Y-192928385D01*
X272628138Y-192928385D02*
X271770995Y-193785528D01*
X271770995Y-193785528D02*
X272699567Y-193785528D01*
D10*
D11*
X178386598Y-193721900D02*
X178600884Y-193793328D01*
X178600884Y-193793328D02*
X178958026Y-193793328D01*
X178958026Y-193793328D02*
X179100884Y-193721900D01*
X179100884Y-193721900D02*
X179172312Y-193650471D01*
X179172312Y-193650471D02*
X179243741Y-193507614D01*
X179243741Y-193507614D02*
X179243741Y-193364757D01*
X179243741Y-193364757D02*
X179172312Y-193221900D01*
X179172312Y-193221900D02*
X179100884Y-193150471D01*
X179100884Y-193150471D02*
X178958026Y-193079042D01*
X178958026Y-193079042D02*
X178672312Y-193007614D01*
X178672312Y-193007614D02*
X178529455Y-192936185D01*
X178529455Y-192936185D02*
X178458026Y-192864757D01*
X178458026Y-192864757D02*
X178386598Y-192721900D01*
X178386598Y-192721900D02*
X178386598Y-192579042D01*
X178386598Y-192579042D02*
X178458026Y-192436185D01*
X178458026Y-192436185D02*
X178529455Y-192364757D01*
X178529455Y-192364757D02*
X178672312Y-192293328D01*
X178672312Y-192293328D02*
X179029455Y-192293328D01*
X179029455Y-192293328D02*
X179243741Y-192364757D01*
X179886597Y-193793328D02*
X179886597Y-192793328D01*
X179886597Y-192293328D02*
X179815169Y-192364757D01*
X179815169Y-192364757D02*
X179886597Y-192436185D01*
X179886597Y-192436185D02*
X179958026Y-192364757D01*
X179958026Y-192364757D02*
X179886597Y-192293328D01*
X179886597Y-192293328D02*
X179886597Y-192436185D01*
X180458026Y-192793328D02*
X181243741Y-192793328D01*
X181243741Y-192793328D02*
X180458026Y-193793328D01*
X180458026Y-193793328D02*
X181243741Y-193793328D01*
X182386598Y-193721900D02*
X182243741Y-193793328D01*
X182243741Y-193793328D02*
X181958027Y-193793328D01*
X181958027Y-193793328D02*
X181815169Y-193721900D01*
X181815169Y-193721900D02*
X181743741Y-193579042D01*
X181743741Y-193579042D02*
X181743741Y-193007614D01*
X181743741Y-193007614D02*
X181815169Y-192864757D01*
X181815169Y-192864757D02*
X181958027Y-192793328D01*
X181958027Y-192793328D02*
X182243741Y-192793328D01*
X182243741Y-192793328D02*
X182386598Y-192864757D01*
X182386598Y-192864757D02*
X182458027Y-193007614D01*
X182458027Y-193007614D02*
X182458027Y-193150471D01*
X182458027Y-193150471D02*
X181743741Y-193293328D01*
X183100883Y-193650471D02*
X183172312Y-193721900D01*
X183172312Y-193721900D02*
X183100883Y-193793328D01*
X183100883Y-193793328D02*
X183029455Y-193721900D01*
X183029455Y-193721900D02*
X183100883Y-193650471D01*
X183100883Y-193650471D02*
X183100883Y-193793328D01*
X183100883Y-192864757D02*
X183172312Y-192936185D01*
X183172312Y-192936185D02*
X183100883Y-193007614D01*
X183100883Y-193007614D02*
X183029455Y-192936185D01*
X183029455Y-192936185D02*
X183100883Y-192864757D01*
X183100883Y-192864757D02*
X183100883Y-193007614D01*
X184886598Y-193364757D02*
X185600884Y-193364757D01*
X184743741Y-193793328D02*
X185243741Y-192293328D01*
X185243741Y-192293328D02*
X185743741Y-193793328D01*
X186886598Y-192793328D02*
X186886598Y-193793328D01*
X186529455Y-192221900D02*
X186172312Y-193293328D01*
X186172312Y-193293328D02*
X187100883Y-193293328D01*
D10*
D11*
X263458026Y-196593328D02*
X263458026Y-195093328D01*
X264815170Y-196593328D02*
X264815170Y-195093328D01*
X264815170Y-196521900D02*
X264672312Y-196593328D01*
X264672312Y-196593328D02*
X264386598Y-196593328D01*
X264386598Y-196593328D02*
X264243741Y-196521900D01*
X264243741Y-196521900D02*
X264172312Y-196450471D01*
X264172312Y-196450471D02*
X264100884Y-196307614D01*
X264100884Y-196307614D02*
X264100884Y-195879042D01*
X264100884Y-195879042D02*
X264172312Y-195736185D01*
X264172312Y-195736185D02*
X264243741Y-195664757D01*
X264243741Y-195664757D02*
X264386598Y-195593328D01*
X264386598Y-195593328D02*
X264672312Y-195593328D01*
X264672312Y-195593328D02*
X264815170Y-195664757D01*
X265529455Y-196450471D02*
X265600884Y-196521900D01*
X265600884Y-196521900D02*
X265529455Y-196593328D01*
X265529455Y-196593328D02*
X265458027Y-196521900D01*
X265458027Y-196521900D02*
X265529455Y-196450471D01*
X265529455Y-196450471D02*
X265529455Y-196593328D01*
X265529455Y-195664757D02*
X265600884Y-195736185D01*
X265600884Y-195736185D02*
X265529455Y-195807614D01*
X265529455Y-195807614D02*
X265458027Y-195736185D01*
X265458027Y-195736185D02*
X265529455Y-195664757D01*
X265529455Y-195664757D02*
X265529455Y-195807614D01*
X268172313Y-196593328D02*
X267315170Y-196593328D01*
X267743741Y-196593328D02*
X267743741Y-195093328D01*
X267743741Y-195093328D02*
X267600884Y-195307614D01*
X267600884Y-195307614D02*
X267458027Y-195450471D01*
X267458027Y-195450471D02*
X267315170Y-195521900D01*
X269886598Y-195021900D02*
X268600884Y-196950471D01*
X271172313Y-196593328D02*
X270315170Y-196593328D01*
X270743741Y-196593328D02*
X270743741Y-195093328D01*
X270743741Y-195093328D02*
X270600884Y-195307614D01*
X270600884Y-195307614D02*
X270458027Y-195450471D01*
X270458027Y-195450471D02*
X270315170Y-195521900D01*
D10*
D11*
X177002200Y-187507200D02*
X285002200Y-187507200D01*
D10*
D13*
X178693928Y-188211638D02*
X179836785Y-188211638D01*
X179015357Y-190211638D02*
X179265357Y-188211638D01*
X180253452Y-190211638D02*
X180420119Y-188878304D01*
X180503452Y-188211638D02*
X180396309Y-188306876D01*
X180396309Y-188306876D02*
X180479643Y-188402114D01*
X180479643Y-188402114D02*
X180586786Y-188306876D01*
X180586786Y-188306876D02*
X180503452Y-188211638D01*
X180503452Y-188211638D02*
X180479643Y-188402114D01*
X181086786Y-188878304D02*
X181848690Y-188878304D01*
X181455833Y-188211638D02*
X181241548Y-189925923D01*
X181241548Y-189925923D02*
X181312976Y-190116400D01*
X181312976Y-190116400D02*
X181491548Y-190211638D01*
X181491548Y-190211638D02*
X181682024Y-190211638D01*
X182634405Y-190211638D02*
X182455833Y-190116400D01*
X182455833Y-190116400D02*
X182384405Y-189925923D01*
X182384405Y-189925923D02*
X182598690Y-188211638D01*
X184170119Y-190116400D02*
X183967738Y-190211638D01*
X183967738Y-190211638D02*
X183586785Y-190211638D01*
X183586785Y-190211638D02*
X183408214Y-190116400D01*
X183408214Y-190116400D02*
X183336785Y-189925923D01*
X183336785Y-189925923D02*
X183432024Y-189164019D01*
X183432024Y-189164019D02*
X183551071Y-188973542D01*
X183551071Y-188973542D02*
X183753452Y-188878304D01*
X183753452Y-188878304D02*
X184134404Y-188878304D01*
X184134404Y-188878304D02*
X184312976Y-188973542D01*
X184312976Y-188973542D02*
X184384404Y-189164019D01*
X184384404Y-189164019D02*
X184360595Y-189354495D01*
X184360595Y-189354495D02*
X183384404Y-189544971D01*
X185134405Y-190021161D02*
X185217738Y-190116400D01*
X185217738Y-190116400D02*
X185110595Y-190211638D01*
X185110595Y-190211638D02*
X185027262Y-190116400D01*
X185027262Y-190116400D02*
X185134405Y-190021161D01*
X185134405Y-190021161D02*
X185110595Y-190211638D01*
X185265357Y-188973542D02*
X185348690Y-189068780D01*
X185348690Y-189068780D02*
X185241548Y-189164019D01*
X185241548Y-189164019D02*
X185158214Y-189068780D01*
X185158214Y-189068780D02*
X185265357Y-188973542D01*
X185265357Y-188973542D02*
X185241548Y-189164019D01*
X188729643Y-190211638D02*
X188182024Y-189259257D01*
X187586786Y-190211638D02*
X187836786Y-188211638D01*
X187836786Y-188211638D02*
X188598691Y-188211638D01*
X188598691Y-188211638D02*
X188777262Y-188306876D01*
X188777262Y-188306876D02*
X188860596Y-188402114D01*
X188860596Y-188402114D02*
X188932024Y-188592590D01*
X188932024Y-188592590D02*
X188896310Y-188878304D01*
X188896310Y-188878304D02*
X188777262Y-189068780D01*
X188777262Y-189068780D02*
X188670120Y-189164019D01*
X188670120Y-189164019D02*
X188467739Y-189259257D01*
X188467739Y-189259257D02*
X187705834Y-189259257D01*
X190872501Y-188306876D02*
X190693929Y-188211638D01*
X190693929Y-188211638D02*
X190408215Y-188211638D01*
X190408215Y-188211638D02*
X190110596Y-188306876D01*
X190110596Y-188306876D02*
X189896310Y-188497352D01*
X189896310Y-188497352D02*
X189777262Y-188687828D01*
X189777262Y-188687828D02*
X189634405Y-189068780D01*
X189634405Y-189068780D02*
X189598691Y-189354495D01*
X189598691Y-189354495D02*
X189646310Y-189735447D01*
X189646310Y-189735447D02*
X189717739Y-189925923D01*
X189717739Y-189925923D02*
X189884405Y-190116400D01*
X189884405Y-190116400D02*
X190158215Y-190211638D01*
X190158215Y-190211638D02*
X190348691Y-190211638D01*
X190348691Y-190211638D02*
X190646310Y-190116400D01*
X190646310Y-190116400D02*
X190753453Y-190021161D01*
X190753453Y-190021161D02*
X190836786Y-189354495D01*
X190836786Y-189354495D02*
X190455834Y-189354495D01*
X192384405Y-189164019D02*
X192658215Y-189259257D01*
X192658215Y-189259257D02*
X192741548Y-189354495D01*
X192741548Y-189354495D02*
X192812977Y-189544971D01*
X192812977Y-189544971D02*
X192777262Y-189830685D01*
X192777262Y-189830685D02*
X192658215Y-190021161D01*
X192658215Y-190021161D02*
X192551072Y-190116400D01*
X192551072Y-190116400D02*
X192348691Y-190211638D01*
X192348691Y-190211638D02*
X191586786Y-190211638D01*
X191586786Y-190211638D02*
X191836786Y-188211638D01*
X191836786Y-188211638D02*
X192503453Y-188211638D01*
X192503453Y-188211638D02*
X192682024Y-188306876D01*
X192682024Y-188306876D02*
X192765358Y-188402114D01*
X192765358Y-188402114D02*
X192836786Y-188592590D01*
X192836786Y-188592590D02*
X192812977Y-188783066D01*
X192812977Y-188783066D02*
X192693929Y-188973542D01*
X192693929Y-188973542D02*
X192586786Y-189068780D01*
X192586786Y-189068780D02*
X192384405Y-189164019D01*
X192384405Y-189164019D02*
X191717739Y-189164019D01*
X196062977Y-190211638D02*
X195110596Y-190211638D01*
X195110596Y-190211638D02*
X195360596Y-188211638D01*
X196860597Y-189164019D02*
X197527263Y-189164019D01*
X197682025Y-190211638D02*
X196729644Y-190211638D01*
X196729644Y-190211638D02*
X196979644Y-188211638D01*
X196979644Y-188211638D02*
X197932025Y-188211638D01*
X198539168Y-190211638D02*
X198789168Y-188211638D01*
X198789168Y-188211638D02*
X199265359Y-188211638D01*
X199265359Y-188211638D02*
X199539168Y-188306876D01*
X199539168Y-188306876D02*
X199705835Y-188497352D01*
X199705835Y-188497352D02*
X199777263Y-188687828D01*
X199777263Y-188687828D02*
X199824883Y-189068780D01*
X199824883Y-189068780D02*
X199789168Y-189354495D01*
X199789168Y-189354495D02*
X199646311Y-189735447D01*
X199646311Y-189735447D02*
X199527263Y-189925923D01*
X199527263Y-189925923D02*
X199312978Y-190116400D01*
X199312978Y-190116400D02*
X199015359Y-190211638D01*
X199015359Y-190211638D02*
X198539168Y-190211638D01*
X201979645Y-190116400D02*
X202253454Y-190211638D01*
X202253454Y-190211638D02*
X202729645Y-190211638D01*
X202729645Y-190211638D02*
X202932026Y-190116400D01*
X202932026Y-190116400D02*
X203039169Y-190021161D01*
X203039169Y-190021161D02*
X203158216Y-189830685D01*
X203158216Y-189830685D02*
X203182026Y-189640209D01*
X203182026Y-189640209D02*
X203110597Y-189449733D01*
X203110597Y-189449733D02*
X203027264Y-189354495D01*
X203027264Y-189354495D02*
X202848693Y-189259257D01*
X202848693Y-189259257D02*
X202479645Y-189164019D01*
X202479645Y-189164019D02*
X202301073Y-189068780D01*
X202301073Y-189068780D02*
X202217740Y-188973542D01*
X202217740Y-188973542D02*
X202146312Y-188783066D01*
X202146312Y-188783066D02*
X202170121Y-188592590D01*
X202170121Y-188592590D02*
X202289169Y-188402114D01*
X202289169Y-188402114D02*
X202396312Y-188306876D01*
X202396312Y-188306876D02*
X202598693Y-188211638D01*
X202598693Y-188211638D02*
X203074883Y-188211638D01*
X203074883Y-188211638D02*
X203348693Y-188306876D01*
X203932026Y-188211638D02*
X205074883Y-188211638D01*
X204253455Y-190211638D02*
X204503455Y-188211638D01*
X206634407Y-190211638D02*
X206086788Y-189259257D01*
X205491550Y-190211638D02*
X205741550Y-188211638D01*
X205741550Y-188211638D02*
X206503455Y-188211638D01*
X206503455Y-188211638D02*
X206682026Y-188306876D01*
X206682026Y-188306876D02*
X206765360Y-188402114D01*
X206765360Y-188402114D02*
X206836788Y-188592590D01*
X206836788Y-188592590D02*
X206801074Y-188878304D01*
X206801074Y-188878304D02*
X206682026Y-189068780D01*
X206682026Y-189068780D02*
X206574884Y-189164019D01*
X206574884Y-189164019D02*
X206372503Y-189259257D01*
X206372503Y-189259257D02*
X205610598Y-189259257D01*
X207491550Y-190211638D02*
X207741550Y-188211638D01*
X208443931Y-190211638D02*
X208693931Y-188211638D01*
X208693931Y-188211638D02*
X209455836Y-188211638D01*
X209455836Y-188211638D02*
X209634407Y-188306876D01*
X209634407Y-188306876D02*
X209717741Y-188402114D01*
X209717741Y-188402114D02*
X209789169Y-188592590D01*
X209789169Y-188592590D02*
X209753455Y-188878304D01*
X209753455Y-188878304D02*
X209634407Y-189068780D01*
X209634407Y-189068780D02*
X209527265Y-189164019D01*
X209527265Y-189164019D02*
X209324884Y-189259257D01*
X209324884Y-189259257D02*
X208562979Y-189259257D01*
X211967741Y-190211638D02*
X212217741Y-188211638D01*
X212217741Y-188211638D02*
X212693932Y-188211638D01*
X212693932Y-188211638D02*
X212967741Y-188306876D01*
X212967741Y-188306876D02*
X213134408Y-188497352D01*
X213134408Y-188497352D02*
X213205836Y-188687828D01*
X213205836Y-188687828D02*
X213253456Y-189068780D01*
X213253456Y-189068780D02*
X213217741Y-189354495D01*
X213217741Y-189354495D02*
X213074884Y-189735447D01*
X213074884Y-189735447D02*
X212955836Y-189925923D01*
X212955836Y-189925923D02*
X212741551Y-190116400D01*
X212741551Y-190116400D02*
X212443932Y-190211638D01*
X212443932Y-190211638D02*
X211967741Y-190211638D01*
X215110598Y-190211638D02*
X214562979Y-189259257D01*
X213967741Y-190211638D02*
X214217741Y-188211638D01*
X214217741Y-188211638D02*
X214979646Y-188211638D01*
X214979646Y-188211638D02*
X215158217Y-188306876D01*
X215158217Y-188306876D02*
X215241551Y-188402114D01*
X215241551Y-188402114D02*
X215312979Y-188592590D01*
X215312979Y-188592590D02*
X215277265Y-188878304D01*
X215277265Y-188878304D02*
X215158217Y-189068780D01*
X215158217Y-189068780D02*
X215051075Y-189164019D01*
X215051075Y-189164019D02*
X214848694Y-189259257D01*
X214848694Y-189259257D02*
X214086789Y-189259257D01*
X215967741Y-190211638D02*
X216217741Y-188211638D01*
X216884408Y-188211638D02*
X217301075Y-190211638D01*
X217301075Y-190211638D02*
X218217741Y-188211638D01*
X218765361Y-189164019D02*
X219432027Y-189164019D01*
X219586789Y-190211638D02*
X218634408Y-190211638D01*
X218634408Y-190211638D02*
X218884408Y-188211638D01*
X218884408Y-188211638D02*
X219836789Y-188211638D01*
X221586789Y-190211638D02*
X221039170Y-189259257D01*
X220443932Y-190211638D02*
X220693932Y-188211638D01*
X220693932Y-188211638D02*
X221455837Y-188211638D01*
X221455837Y-188211638D02*
X221634408Y-188306876D01*
X221634408Y-188306876D02*
X221717742Y-188402114D01*
X221717742Y-188402114D02*
X221789170Y-188592590D01*
X221789170Y-188592590D02*
X221753456Y-188878304D01*
X221753456Y-188878304D02*
X221634408Y-189068780D01*
X221634408Y-189068780D02*
X221527266Y-189164019D01*
X221527266Y-189164019D02*
X221324885Y-189259257D01*
X221324885Y-189259257D02*
X220562980Y-189259257D01*
D10*
D11*
X178958026Y-185607614D02*
X178458026Y-185607614D01*
X178458026Y-186393328D02*
X178458026Y-184893328D01*
X178458026Y-184893328D02*
X179172312Y-184893328D01*
X179743740Y-186393328D02*
X179743740Y-185393328D01*
X179743740Y-184893328D02*
X179672312Y-184964757D01*
X179672312Y-184964757D02*
X179743740Y-185036185D01*
X179743740Y-185036185D02*
X179815169Y-184964757D01*
X179815169Y-184964757D02*
X179743740Y-184893328D01*
X179743740Y-184893328D02*
X179743740Y-185036185D01*
X180672312Y-186393328D02*
X180529455Y-186321900D01*
X180529455Y-186321900D02*
X180458026Y-186179042D01*
X180458026Y-186179042D02*
X180458026Y-184893328D01*
X181815169Y-186321900D02*
X181672312Y-186393328D01*
X181672312Y-186393328D02*
X181386598Y-186393328D01*
X181386598Y-186393328D02*
X181243740Y-186321900D01*
X181243740Y-186321900D02*
X181172312Y-186179042D01*
X181172312Y-186179042D02*
X181172312Y-185607614D01*
X181172312Y-185607614D02*
X181243740Y-185464757D01*
X181243740Y-185464757D02*
X181386598Y-185393328D01*
X181386598Y-185393328D02*
X181672312Y-185393328D01*
X181672312Y-185393328D02*
X181815169Y-185464757D01*
X181815169Y-185464757D02*
X181886598Y-185607614D01*
X181886598Y-185607614D02*
X181886598Y-185750471D01*
X181886598Y-185750471D02*
X181172312Y-185893328D01*
X182529454Y-186250471D02*
X182600883Y-186321900D01*
X182600883Y-186321900D02*
X182529454Y-186393328D01*
X182529454Y-186393328D02*
X182458026Y-186321900D01*
X182458026Y-186321900D02*
X182529454Y-186250471D01*
X182529454Y-186250471D02*
X182529454Y-186393328D01*
X182529454Y-185464757D02*
X182600883Y-185536185D01*
X182600883Y-185536185D02*
X182529454Y-185607614D01*
X182529454Y-185607614D02*
X182458026Y-185536185D01*
X182458026Y-185536185D02*
X182529454Y-185464757D01*
X182529454Y-185464757D02*
X182529454Y-185607614D01*
X184386597Y-186393328D02*
X184386597Y-184893328D01*
X184386597Y-184893328D02*
X184743740Y-184893328D01*
X184743740Y-184893328D02*
X184958026Y-184964757D01*
X184958026Y-184964757D02*
X185100883Y-185107614D01*
X185100883Y-185107614D02*
X185172312Y-185250471D01*
X185172312Y-185250471D02*
X185243740Y-185536185D01*
X185243740Y-185536185D02*
X185243740Y-185750471D01*
X185243740Y-185750471D02*
X185172312Y-186036185D01*
X185172312Y-186036185D02*
X185100883Y-186179042D01*
X185100883Y-186179042D02*
X184958026Y-186321900D01*
X184958026Y-186321900D02*
X184743740Y-186393328D01*
X184743740Y-186393328D02*
X184386597Y-186393328D01*
X185886597Y-186393328D02*
X185886597Y-185393328D01*
X185886597Y-185679042D02*
X185958026Y-185536185D01*
X185958026Y-185536185D02*
X186029455Y-185464757D01*
X186029455Y-185464757D02*
X186172312Y-185393328D01*
X186172312Y-185393328D02*
X186315169Y-185393328D01*
X186815168Y-186393328D02*
X186815168Y-185393328D01*
X186815168Y-184893328D02*
X186743740Y-184964757D01*
X186743740Y-184964757D02*
X186815168Y-185036185D01*
X186815168Y-185036185D02*
X186886597Y-184964757D01*
X186886597Y-184964757D02*
X186815168Y-184893328D01*
X186815168Y-184893328D02*
X186815168Y-185036185D01*
X187386597Y-185393328D02*
X187743740Y-186393328D01*
X187743740Y-186393328D02*
X188100883Y-185393328D01*
X189243740Y-186321900D02*
X189100883Y-186393328D01*
X189100883Y-186393328D02*
X188815169Y-186393328D01*
X188815169Y-186393328D02*
X188672311Y-186321900D01*
X188672311Y-186321900D02*
X188600883Y-186179042D01*
X188600883Y-186179042D02*
X188600883Y-185607614D01*
X188600883Y-185607614D02*
X188672311Y-185464757D01*
X188672311Y-185464757D02*
X188815169Y-185393328D01*
X188815169Y-185393328D02*
X189100883Y-185393328D01*
X189100883Y-185393328D02*
X189243740Y-185464757D01*
X189243740Y-185464757D02*
X189315169Y-185607614D01*
X189315169Y-185607614D02*
X189315169Y-185750471D01*
X189315169Y-185750471D02*
X188600883Y-185893328D01*
X189958025Y-186393328D02*
X189958025Y-185393328D01*
X189958025Y-185679042D02*
X190029454Y-185536185D01*
X190029454Y-185536185D02*
X190100883Y-185464757D01*
X190100883Y-185464757D02*
X190243740Y-185393328D01*
X190243740Y-185393328D02*
X190386597Y-185393328D01*
X191743739Y-186393328D02*
X191243739Y-185679042D01*
X190886596Y-186393328D02*
X190886596Y-184893328D01*
X190886596Y-184893328D02*
X191458025Y-184893328D01*
X191458025Y-184893328D02*
X191600882Y-184964757D01*
X191600882Y-184964757D02*
X191672311Y-185036185D01*
X191672311Y-185036185D02*
X191743739Y-185179042D01*
X191743739Y-185179042D02*
X191743739Y-185393328D01*
X191743739Y-185393328D02*
X191672311Y-185536185D01*
X191672311Y-185536185D02*
X191600882Y-185607614D01*
X191600882Y-185607614D02*
X191458025Y-185679042D01*
X191458025Y-185679042D02*
X190886596Y-185679042D01*
X193172311Y-184964757D02*
X193029454Y-184893328D01*
X193029454Y-184893328D02*
X192815168Y-184893328D01*
X192815168Y-184893328D02*
X192600882Y-184964757D01*
X192600882Y-184964757D02*
X192458025Y-185107614D01*
X192458025Y-185107614D02*
X192386596Y-185250471D01*
X192386596Y-185250471D02*
X192315168Y-185536185D01*
X192315168Y-185536185D02*
X192315168Y-185750471D01*
X192315168Y-185750471D02*
X192386596Y-186036185D01*
X192386596Y-186036185D02*
X192458025Y-186179042D01*
X192458025Y-186179042D02*
X192600882Y-186321900D01*
X192600882Y-186321900D02*
X192815168Y-186393328D01*
X192815168Y-186393328D02*
X192958025Y-186393328D01*
X192958025Y-186393328D02*
X193172311Y-186321900D01*
X193172311Y-186321900D02*
X193243739Y-186250471D01*
X193243739Y-186250471D02*
X193243739Y-185750471D01*
X193243739Y-185750471D02*
X192958025Y-185750471D01*
X194386596Y-185607614D02*
X194600882Y-185679042D01*
X194600882Y-185679042D02*
X194672311Y-185750471D01*
X194672311Y-185750471D02*
X194743739Y-185893328D01*
X194743739Y-185893328D02*
X194743739Y-186107614D01*
X194743739Y-186107614D02*
X194672311Y-186250471D01*
X194672311Y-186250471D02*
X194600882Y-186321900D01*
X194600882Y-186321900D02*
X194458025Y-186393328D01*
X194458025Y-186393328D02*
X193886596Y-186393328D01*
X193886596Y-186393328D02*
X193886596Y-184893328D01*
X193886596Y-184893328D02*
X194386596Y-184893328D01*
X194386596Y-184893328D02*
X194529454Y-184964757D01*
X194529454Y-184964757D02*
X194600882Y-185036185D01*
X194600882Y-185036185D02*
X194672311Y-185179042D01*
X194672311Y-185179042D02*
X194672311Y-185321900D01*
X194672311Y-185321900D02*
X194600882Y-185464757D01*
X194600882Y-185464757D02*
X194529454Y-185536185D01*
X194529454Y-185536185D02*
X194386596Y-185607614D01*
X194386596Y-185607614D02*
X193886596Y-185607614D01*
X195029454Y-186536185D02*
X196172311Y-186536185D01*
X196386596Y-185393328D02*
X196743739Y-186393328D01*
X196743739Y-186393328D02*
X197100882Y-185393328D01*
X197600882Y-185036185D02*
X197672310Y-184964757D01*
X197672310Y-184964757D02*
X197815168Y-184893328D01*
X197815168Y-184893328D02*
X198172310Y-184893328D01*
X198172310Y-184893328D02*
X198315168Y-184964757D01*
X198315168Y-184964757D02*
X198386596Y-185036185D01*
X198386596Y-185036185D02*
X198458025Y-185179042D01*
X198458025Y-185179042D02*
X198458025Y-185321900D01*
X198458025Y-185321900D02*
X198386596Y-185536185D01*
X198386596Y-185536185D02*
X197529453Y-186393328D01*
X197529453Y-186393328D02*
X198458025Y-186393328D01*
X199100881Y-186250471D02*
X199172310Y-186321900D01*
X199172310Y-186321900D02*
X199100881Y-186393328D01*
X199100881Y-186393328D02*
X199029453Y-186321900D01*
X199029453Y-186321900D02*
X199100881Y-186250471D01*
X199100881Y-186250471D02*
X199100881Y-186393328D01*
X199815167Y-186393328D02*
X199815167Y-184893328D01*
X199958025Y-185821900D02*
X200386596Y-186393328D01*
X200386596Y-185393328D02*
X199815167Y-185964757D01*
X201029453Y-186393328D02*
X201029453Y-185393328D01*
X201029453Y-184893328D02*
X200958025Y-184964757D01*
X200958025Y-184964757D02*
X201029453Y-185036185D01*
X201029453Y-185036185D02*
X201100882Y-184964757D01*
X201100882Y-184964757D02*
X201029453Y-184893328D01*
X201029453Y-184893328D02*
X201029453Y-185036185D01*
X202386597Y-186321900D02*
X202243739Y-186393328D01*
X202243739Y-186393328D02*
X201958025Y-186393328D01*
X201958025Y-186393328D02*
X201815168Y-186321900D01*
X201815168Y-186321900D02*
X201743739Y-186250471D01*
X201743739Y-186250471D02*
X201672311Y-186107614D01*
X201672311Y-186107614D02*
X201672311Y-185679042D01*
X201672311Y-185679042D02*
X201743739Y-185536185D01*
X201743739Y-185536185D02*
X201815168Y-185464757D01*
X201815168Y-185464757D02*
X201958025Y-185393328D01*
X201958025Y-185393328D02*
X202243739Y-185393328D01*
X202243739Y-185393328D02*
X202386597Y-185464757D01*
X203672311Y-186393328D02*
X203672311Y-185607614D01*
X203672311Y-185607614D02*
X203600882Y-185464757D01*
X203600882Y-185464757D02*
X203458025Y-185393328D01*
X203458025Y-185393328D02*
X203172311Y-185393328D01*
X203172311Y-185393328D02*
X203029453Y-185464757D01*
X203672311Y-186321900D02*
X203529453Y-186393328D01*
X203529453Y-186393328D02*
X203172311Y-186393328D01*
X203172311Y-186393328D02*
X203029453Y-186321900D01*
X203029453Y-186321900D02*
X202958025Y-186179042D01*
X202958025Y-186179042D02*
X202958025Y-186036185D01*
X202958025Y-186036185D02*
X203029453Y-185893328D01*
X203029453Y-185893328D02*
X203172311Y-185821900D01*
X203172311Y-185821900D02*
X203529453Y-185821900D01*
X203529453Y-185821900D02*
X203672311Y-185750471D01*
X205029454Y-186393328D02*
X205029454Y-184893328D01*
X205029454Y-186321900D02*
X204886596Y-186393328D01*
X204886596Y-186393328D02*
X204600882Y-186393328D01*
X204600882Y-186393328D02*
X204458025Y-186321900D01*
X204458025Y-186321900D02*
X204386596Y-186250471D01*
X204386596Y-186250471D02*
X204315168Y-186107614D01*
X204315168Y-186107614D02*
X204315168Y-185679042D01*
X204315168Y-185679042D02*
X204386596Y-185536185D01*
X204386596Y-185536185D02*
X204458025Y-185464757D01*
X204458025Y-185464757D02*
X204600882Y-185393328D01*
X204600882Y-185393328D02*
X204886596Y-185393328D01*
X204886596Y-185393328D02*
X205029454Y-185464757D01*
X205386597Y-186536185D02*
X206529454Y-186536185D01*
X206886596Y-185393328D02*
X206886596Y-186893328D01*
X206886596Y-185464757D02*
X207029454Y-185393328D01*
X207029454Y-185393328D02*
X207315168Y-185393328D01*
X207315168Y-185393328D02*
X207458025Y-185464757D01*
X207458025Y-185464757D02*
X207529454Y-185536185D01*
X207529454Y-185536185D02*
X207600882Y-185679042D01*
X207600882Y-185679042D02*
X207600882Y-186107614D01*
X207600882Y-186107614D02*
X207529454Y-186250471D01*
X207529454Y-186250471D02*
X207458025Y-186321900D01*
X207458025Y-186321900D02*
X207315168Y-186393328D01*
X207315168Y-186393328D02*
X207029454Y-186393328D01*
X207029454Y-186393328D02*
X206886596Y-186321900D01*
X208886597Y-186321900D02*
X208743739Y-186393328D01*
X208743739Y-186393328D02*
X208458025Y-186393328D01*
X208458025Y-186393328D02*
X208315168Y-186321900D01*
X208315168Y-186321900D02*
X208243739Y-186250471D01*
X208243739Y-186250471D02*
X208172311Y-186107614D01*
X208172311Y-186107614D02*
X208172311Y-185679042D01*
X208172311Y-185679042D02*
X208243739Y-185536185D01*
X208243739Y-185536185D02*
X208315168Y-185464757D01*
X208315168Y-185464757D02*
X208458025Y-185393328D01*
X208458025Y-185393328D02*
X208743739Y-185393328D01*
X208743739Y-185393328D02*
X208886597Y-185464757D01*
X209529453Y-186393328D02*
X209529453Y-184893328D01*
X209529453Y-185464757D02*
X209672311Y-185393328D01*
X209672311Y-185393328D02*
X209958025Y-185393328D01*
X209958025Y-185393328D02*
X210100882Y-185464757D01*
X210100882Y-185464757D02*
X210172311Y-185536185D01*
X210172311Y-185536185D02*
X210243739Y-185679042D01*
X210243739Y-185679042D02*
X210243739Y-186107614D01*
X210243739Y-186107614D02*
X210172311Y-186250471D01*
X210172311Y-186250471D02*
X210100882Y-186321900D01*
X210100882Y-186321900D02*
X209958025Y-186393328D01*
X209958025Y-186393328D02*
X209672311Y-186393328D01*
X209672311Y-186393328D02*
X209529453Y-186321900D01*
D10*
D11*
X177002200Y-181507200D02*
X285002200Y-181507200D01*
D10*
D11*
X178386598Y-183621900D02*
X178600884Y-183693328D01*
X178600884Y-183693328D02*
X178958026Y-183693328D01*
X178958026Y-183693328D02*
X179100884Y-183621900D01*
X179100884Y-183621900D02*
X179172312Y-183550471D01*
X179172312Y-183550471D02*
X179243741Y-183407614D01*
X179243741Y-183407614D02*
X179243741Y-183264757D01*
X179243741Y-183264757D02*
X179172312Y-183121900D01*
X179172312Y-183121900D02*
X179100884Y-183050471D01*
X179100884Y-183050471D02*
X178958026Y-182979042D01*
X178958026Y-182979042D02*
X178672312Y-182907614D01*
X178672312Y-182907614D02*
X178529455Y-182836185D01*
X178529455Y-182836185D02*
X178458026Y-182764757D01*
X178458026Y-182764757D02*
X178386598Y-182621900D01*
X178386598Y-182621900D02*
X178386598Y-182479042D01*
X178386598Y-182479042D02*
X178458026Y-182336185D01*
X178458026Y-182336185D02*
X178529455Y-182264757D01*
X178529455Y-182264757D02*
X178672312Y-182193328D01*
X178672312Y-182193328D02*
X179029455Y-182193328D01*
X179029455Y-182193328D02*
X179243741Y-182264757D01*
X179886597Y-183693328D02*
X179886597Y-182193328D01*
X180529455Y-183693328D02*
X180529455Y-182907614D01*
X180529455Y-182907614D02*
X180458026Y-182764757D01*
X180458026Y-182764757D02*
X180315169Y-182693328D01*
X180315169Y-182693328D02*
X180100883Y-182693328D01*
X180100883Y-182693328D02*
X179958026Y-182764757D01*
X179958026Y-182764757D02*
X179886597Y-182836185D01*
X181815169Y-183621900D02*
X181672312Y-183693328D01*
X181672312Y-183693328D02*
X181386598Y-183693328D01*
X181386598Y-183693328D02*
X181243740Y-183621900D01*
X181243740Y-183621900D02*
X181172312Y-183479042D01*
X181172312Y-183479042D02*
X181172312Y-182907614D01*
X181172312Y-182907614D02*
X181243740Y-182764757D01*
X181243740Y-182764757D02*
X181386598Y-182693328D01*
X181386598Y-182693328D02*
X181672312Y-182693328D01*
X181672312Y-182693328D02*
X181815169Y-182764757D01*
X181815169Y-182764757D02*
X181886598Y-182907614D01*
X181886598Y-182907614D02*
X181886598Y-183050471D01*
X181886598Y-183050471D02*
X181172312Y-183193328D01*
X183100883Y-183621900D02*
X182958026Y-183693328D01*
X182958026Y-183693328D02*
X182672312Y-183693328D01*
X182672312Y-183693328D02*
X182529454Y-183621900D01*
X182529454Y-183621900D02*
X182458026Y-183479042D01*
X182458026Y-183479042D02*
X182458026Y-182907614D01*
X182458026Y-182907614D02*
X182529454Y-182764757D01*
X182529454Y-182764757D02*
X182672312Y-182693328D01*
X182672312Y-182693328D02*
X182958026Y-182693328D01*
X182958026Y-182693328D02*
X183100883Y-182764757D01*
X183100883Y-182764757D02*
X183172312Y-182907614D01*
X183172312Y-182907614D02*
X183172312Y-183050471D01*
X183172312Y-183050471D02*
X182458026Y-183193328D01*
X183600883Y-182693328D02*
X184172311Y-182693328D01*
X183815168Y-182193328D02*
X183815168Y-183479042D01*
X183815168Y-183479042D02*
X183886597Y-183621900D01*
X183886597Y-183621900D02*
X184029454Y-183693328D01*
X184029454Y-183693328D02*
X184172311Y-183693328D01*
X184672311Y-183550471D02*
X184743740Y-183621900D01*
X184743740Y-183621900D02*
X184672311Y-183693328D01*
X184672311Y-183693328D02*
X184600883Y-183621900D01*
X184600883Y-183621900D02*
X184672311Y-183550471D01*
X184672311Y-183550471D02*
X184672311Y-183693328D01*
X184672311Y-182764757D02*
X184743740Y-182836185D01*
X184743740Y-182836185D02*
X184672311Y-182907614D01*
X184672311Y-182907614D02*
X184600883Y-182836185D01*
X184600883Y-182836185D02*
X184672311Y-182764757D01*
X184672311Y-182764757D02*
X184672311Y-182907614D01*
D10*
D12*
X178556710Y-180685528D02*
X178556710Y-179185528D01*
X178556710Y-179185528D02*
X179128139Y-179185528D01*
X179128139Y-179185528D02*
X179270996Y-179256957D01*
X179270996Y-179256957D02*
X179342425Y-179328385D01*
X179342425Y-179328385D02*
X179413853Y-179471242D01*
X179413853Y-179471242D02*
X179413853Y-179685528D01*
X179413853Y-179685528D02*
X179342425Y-179828385D01*
X179342425Y-179828385D02*
X179270996Y-179899814D01*
X179270996Y-179899814D02*
X179128139Y-179971242D01*
X179128139Y-179971242D02*
X178556710Y-179971242D01*
X180913853Y-180542671D02*
X180842425Y-180614100D01*
X180842425Y-180614100D02*
X180628139Y-180685528D01*
X180628139Y-180685528D02*
X180485282Y-180685528D01*
X180485282Y-180685528D02*
X180270996Y-180614100D01*
X180270996Y-180614100D02*
X180128139Y-180471242D01*
X180128139Y-180471242D02*
X180056710Y-180328385D01*
X180056710Y-180328385D02*
X179985282Y-180042671D01*
X179985282Y-180042671D02*
X179985282Y-179828385D01*
X179985282Y-179828385D02*
X180056710Y-179542671D01*
X180056710Y-179542671D02*
X180128139Y-179399814D01*
X180128139Y-179399814D02*
X180270996Y-179256957D01*
X180270996Y-179256957D02*
X180485282Y-179185528D01*
X180485282Y-179185528D02*
X180628139Y-179185528D01*
X180628139Y-179185528D02*
X180842425Y-179256957D01*
X180842425Y-179256957D02*
X180913853Y-179328385D01*
X182056710Y-179899814D02*
X182270996Y-179971242D01*
X182270996Y-179971242D02*
X182342425Y-180042671D01*
X182342425Y-180042671D02*
X182413853Y-180185528D01*
X182413853Y-180185528D02*
X182413853Y-180399814D01*
X182413853Y-180399814D02*
X182342425Y-180542671D01*
X182342425Y-180542671D02*
X182270996Y-180614100D01*
X182270996Y-180614100D02*
X182128139Y-180685528D01*
X182128139Y-180685528D02*
X181556710Y-180685528D01*
X181556710Y-180685528D02*
X181556710Y-179185528D01*
X181556710Y-179185528D02*
X182056710Y-179185528D01*
X182056710Y-179185528D02*
X182199568Y-179256957D01*
X182199568Y-179256957D02*
X182270996Y-179328385D01*
X182270996Y-179328385D02*
X182342425Y-179471242D01*
X182342425Y-179471242D02*
X182342425Y-179614100D01*
X182342425Y-179614100D02*
X182270996Y-179756957D01*
X182270996Y-179756957D02*
X182199568Y-179828385D01*
X182199568Y-179828385D02*
X182056710Y-179899814D01*
X182056710Y-179899814D02*
X181556710Y-179899814D01*
D10*
D11*
X178458026Y-176907614D02*
X178958026Y-176907614D01*
X179172312Y-177693328D02*
X178458026Y-177693328D01*
X178458026Y-177693328D02*
X178458026Y-176193328D01*
X178458026Y-176193328D02*
X179172312Y-176193328D01*
X180458027Y-177693328D02*
X180458027Y-176193328D01*
X180458027Y-177621900D02*
X180315169Y-177693328D01*
X180315169Y-177693328D02*
X180029455Y-177693328D01*
X180029455Y-177693328D02*
X179886598Y-177621900D01*
X179886598Y-177621900D02*
X179815169Y-177550471D01*
X179815169Y-177550471D02*
X179743741Y-177407614D01*
X179743741Y-177407614D02*
X179743741Y-176979042D01*
X179743741Y-176979042D02*
X179815169Y-176836185D01*
X179815169Y-176836185D02*
X179886598Y-176764757D01*
X179886598Y-176764757D02*
X180029455Y-176693328D01*
X180029455Y-176693328D02*
X180315169Y-176693328D01*
X180315169Y-176693328D02*
X180458027Y-176764757D01*
X181815170Y-176693328D02*
X181815170Y-177907614D01*
X181815170Y-177907614D02*
X181743741Y-178050471D01*
X181743741Y-178050471D02*
X181672312Y-178121900D01*
X181672312Y-178121900D02*
X181529455Y-178193328D01*
X181529455Y-178193328D02*
X181315170Y-178193328D01*
X181315170Y-178193328D02*
X181172312Y-178121900D01*
X181815170Y-177621900D02*
X181672312Y-177693328D01*
X181672312Y-177693328D02*
X181386598Y-177693328D01*
X181386598Y-177693328D02*
X181243741Y-177621900D01*
X181243741Y-177621900D02*
X181172312Y-177550471D01*
X181172312Y-177550471D02*
X181100884Y-177407614D01*
X181100884Y-177407614D02*
X181100884Y-176979042D01*
X181100884Y-176979042D02*
X181172312Y-176836185D01*
X181172312Y-176836185D02*
X181243741Y-176764757D01*
X181243741Y-176764757D02*
X181386598Y-176693328D01*
X181386598Y-176693328D02*
X181672312Y-176693328D01*
X181672312Y-176693328D02*
X181815170Y-176764757D01*
X183100884Y-177621900D02*
X182958027Y-177693328D01*
X182958027Y-177693328D02*
X182672313Y-177693328D01*
X182672313Y-177693328D02*
X182529455Y-177621900D01*
X182529455Y-177621900D02*
X182458027Y-177479042D01*
X182458027Y-177479042D02*
X182458027Y-176907614D01*
X182458027Y-176907614D02*
X182529455Y-176764757D01*
X182529455Y-176764757D02*
X182672313Y-176693328D01*
X182672313Y-176693328D02*
X182958027Y-176693328D01*
X182958027Y-176693328D02*
X183100884Y-176764757D01*
X183100884Y-176764757D02*
X183172313Y-176907614D01*
X183172313Y-176907614D02*
X183172313Y-177050471D01*
X183172313Y-177050471D02*
X182458027Y-177193328D01*
X185815169Y-177550471D02*
X185743741Y-177621900D01*
X185743741Y-177621900D02*
X185529455Y-177693328D01*
X185529455Y-177693328D02*
X185386598Y-177693328D01*
X185386598Y-177693328D02*
X185172312Y-177621900D01*
X185172312Y-177621900D02*
X185029455Y-177479042D01*
X185029455Y-177479042D02*
X184958026Y-177336185D01*
X184958026Y-177336185D02*
X184886598Y-177050471D01*
X184886598Y-177050471D02*
X184886598Y-176836185D01*
X184886598Y-176836185D02*
X184958026Y-176550471D01*
X184958026Y-176550471D02*
X185029455Y-176407614D01*
X185029455Y-176407614D02*
X185172312Y-176264757D01*
X185172312Y-176264757D02*
X185386598Y-176193328D01*
X185386598Y-176193328D02*
X185529455Y-176193328D01*
X185529455Y-176193328D02*
X185743741Y-176264757D01*
X185743741Y-176264757D02*
X185815169Y-176336185D01*
X187100884Y-176693328D02*
X187100884Y-177693328D01*
X186458026Y-176693328D02*
X186458026Y-177479042D01*
X186458026Y-177479042D02*
X186529455Y-177621900D01*
X186529455Y-177621900D02*
X186672312Y-177693328D01*
X186672312Y-177693328D02*
X186886598Y-177693328D01*
X186886598Y-177693328D02*
X187029455Y-177621900D01*
X187029455Y-177621900D02*
X187100884Y-177550471D01*
X187600884Y-176693328D02*
X188172312Y-176693328D01*
X187815169Y-176193328D02*
X187815169Y-177479042D01*
X187815169Y-177479042D02*
X187886598Y-177621900D01*
X187886598Y-177621900D02*
X188029455Y-177693328D01*
X188029455Y-177693328D02*
X188172312Y-177693328D01*
X188600884Y-177621900D02*
X188743741Y-177693328D01*
X188743741Y-177693328D02*
X189029455Y-177693328D01*
X189029455Y-177693328D02*
X189172312Y-177621900D01*
X189172312Y-177621900D02*
X189243741Y-177479042D01*
X189243741Y-177479042D02*
X189243741Y-177407614D01*
X189243741Y-177407614D02*
X189172312Y-177264757D01*
X189172312Y-177264757D02*
X189029455Y-177193328D01*
X189029455Y-177193328D02*
X188815170Y-177193328D01*
X188815170Y-177193328D02*
X188672312Y-177121900D01*
X188672312Y-177121900D02*
X188600884Y-176979042D01*
X188600884Y-176979042D02*
X188600884Y-176907614D01*
X188600884Y-176907614D02*
X188672312Y-176764757D01*
X188672312Y-176764757D02*
X188815170Y-176693328D01*
X188815170Y-176693328D02*
X189029455Y-176693328D01*
X189029455Y-176693328D02*
X189172312Y-176764757D01*
D10*
D11*
X178386598Y-174264757D02*
X179100884Y-174264757D01*
X178243741Y-174693328D02*
X178743741Y-173193328D01*
X178743741Y-173193328D02*
X179243741Y-174693328D01*
X180386598Y-173693328D02*
X180386598Y-174693328D01*
X179743740Y-173693328D02*
X179743740Y-174479042D01*
X179743740Y-174479042D02*
X179815169Y-174621900D01*
X179815169Y-174621900D02*
X179958026Y-174693328D01*
X179958026Y-174693328D02*
X180172312Y-174693328D01*
X180172312Y-174693328D02*
X180315169Y-174621900D01*
X180315169Y-174621900D02*
X180386598Y-174550471D01*
X180886598Y-173693328D02*
X181458026Y-173693328D01*
X181100883Y-173193328D02*
X181100883Y-174479042D01*
X181100883Y-174479042D02*
X181172312Y-174621900D01*
X181172312Y-174621900D02*
X181315169Y-174693328D01*
X181315169Y-174693328D02*
X181458026Y-174693328D01*
X181958026Y-174693328D02*
X181958026Y-173193328D01*
X182600884Y-174693328D02*
X182600884Y-173907614D01*
X182600884Y-173907614D02*
X182529455Y-173764757D01*
X182529455Y-173764757D02*
X182386598Y-173693328D01*
X182386598Y-173693328D02*
X182172312Y-173693328D01*
X182172312Y-173693328D02*
X182029455Y-173764757D01*
X182029455Y-173764757D02*
X181958026Y-173836185D01*
X183529455Y-174693328D02*
X183386598Y-174621900D01*
X183386598Y-174621900D02*
X183315169Y-174550471D01*
X183315169Y-174550471D02*
X183243741Y-174407614D01*
X183243741Y-174407614D02*
X183243741Y-173979042D01*
X183243741Y-173979042D02*
X183315169Y-173836185D01*
X183315169Y-173836185D02*
X183386598Y-173764757D01*
X183386598Y-173764757D02*
X183529455Y-173693328D01*
X183529455Y-173693328D02*
X183743741Y-173693328D01*
X183743741Y-173693328D02*
X183886598Y-173764757D01*
X183886598Y-173764757D02*
X183958027Y-173836185D01*
X183958027Y-173836185D02*
X184029455Y-173979042D01*
X184029455Y-173979042D02*
X184029455Y-174407614D01*
X184029455Y-174407614D02*
X183958027Y-174550471D01*
X183958027Y-174550471D02*
X183886598Y-174621900D01*
X183886598Y-174621900D02*
X183743741Y-174693328D01*
X183743741Y-174693328D02*
X183529455Y-174693328D01*
X184672312Y-174693328D02*
X184672312Y-173693328D01*
X184672312Y-173979042D02*
X184743741Y-173836185D01*
X184743741Y-173836185D02*
X184815170Y-173764757D01*
X184815170Y-173764757D02*
X184958027Y-173693328D01*
X184958027Y-173693328D02*
X185100884Y-173693328D01*
X185600883Y-174550471D02*
X185672312Y-174621900D01*
X185672312Y-174621900D02*
X185600883Y-174693328D01*
X185600883Y-174693328D02*
X185529455Y-174621900D01*
X185529455Y-174621900D02*
X185600883Y-174550471D01*
X185600883Y-174550471D02*
X185600883Y-174693328D01*
X185600883Y-173764757D02*
X185672312Y-173836185D01*
X185672312Y-173836185D02*
X185600883Y-173907614D01*
X185600883Y-173907614D02*
X185529455Y-173836185D01*
X185529455Y-173836185D02*
X185600883Y-173764757D01*
X185600883Y-173764757D02*
X185600883Y-173907614D01*
X187886598Y-173193328D02*
X187886598Y-174264757D01*
X187886598Y-174264757D02*
X187815169Y-174479042D01*
X187815169Y-174479042D02*
X187672312Y-174621900D01*
X187672312Y-174621900D02*
X187458026Y-174693328D01*
X187458026Y-174693328D02*
X187315169Y-174693328D01*
X189243741Y-173693328D02*
X189243741Y-174693328D01*
X188600883Y-173693328D02*
X188600883Y-174479042D01*
X188600883Y-174479042D02*
X188672312Y-174621900D01*
X188672312Y-174621900D02*
X188815169Y-174693328D01*
X188815169Y-174693328D02*
X189029455Y-174693328D01*
X189029455Y-174693328D02*
X189172312Y-174621900D01*
X189172312Y-174621900D02*
X189243741Y-174550471D01*
X190600884Y-174693328D02*
X190600884Y-173907614D01*
X190600884Y-173907614D02*
X190529455Y-173764757D01*
X190529455Y-173764757D02*
X190386598Y-173693328D01*
X190386598Y-173693328D02*
X190100884Y-173693328D01*
X190100884Y-173693328D02*
X189958026Y-173764757D01*
X190600884Y-174621900D02*
X190458026Y-174693328D01*
X190458026Y-174693328D02*
X190100884Y-174693328D01*
X190100884Y-174693328D02*
X189958026Y-174621900D01*
X189958026Y-174621900D02*
X189886598Y-174479042D01*
X189886598Y-174479042D02*
X189886598Y-174336185D01*
X189886598Y-174336185D02*
X189958026Y-174193328D01*
X189958026Y-174193328D02*
X190100884Y-174121900D01*
X190100884Y-174121900D02*
X190458026Y-174121900D01*
X190458026Y-174121900D02*
X190600884Y-174050471D01*
X191315169Y-173693328D02*
X191315169Y-174693328D01*
X191315169Y-173836185D02*
X191386598Y-173764757D01*
X191386598Y-173764757D02*
X191529455Y-173693328D01*
X191529455Y-173693328D02*
X191743741Y-173693328D01*
X191743741Y-173693328D02*
X191886598Y-173764757D01*
X191886598Y-173764757D02*
X191958027Y-173907614D01*
X191958027Y-173907614D02*
X191958027Y-174693328D01*
X193743741Y-174264757D02*
X194458027Y-174264757D01*
X193600884Y-174693328D02*
X194100884Y-173193328D01*
X194100884Y-173193328D02*
X194600884Y-174693328D01*
X195100883Y-173693328D02*
X195100883Y-174693328D01*
X195100883Y-173836185D02*
X195172312Y-173764757D01*
X195172312Y-173764757D02*
X195315169Y-173693328D01*
X195315169Y-173693328D02*
X195529455Y-173693328D01*
X195529455Y-173693328D02*
X195672312Y-173764757D01*
X195672312Y-173764757D02*
X195743741Y-173907614D01*
X195743741Y-173907614D02*
X195743741Y-174693328D01*
X196243741Y-173693328D02*
X196815169Y-173693328D01*
X196458026Y-173193328D02*
X196458026Y-174479042D01*
X196458026Y-174479042D02*
X196529455Y-174621900D01*
X196529455Y-174621900D02*
X196672312Y-174693328D01*
X196672312Y-174693328D02*
X196815169Y-174693328D01*
X197529455Y-174693328D02*
X197386598Y-174621900D01*
X197386598Y-174621900D02*
X197315169Y-174550471D01*
X197315169Y-174550471D02*
X197243741Y-174407614D01*
X197243741Y-174407614D02*
X197243741Y-173979042D01*
X197243741Y-173979042D02*
X197315169Y-173836185D01*
X197315169Y-173836185D02*
X197386598Y-173764757D01*
X197386598Y-173764757D02*
X197529455Y-173693328D01*
X197529455Y-173693328D02*
X197743741Y-173693328D01*
X197743741Y-173693328D02*
X197886598Y-173764757D01*
X197886598Y-173764757D02*
X197958027Y-173836185D01*
X197958027Y-173836185D02*
X198029455Y-173979042D01*
X198029455Y-173979042D02*
X198029455Y-174407614D01*
X198029455Y-174407614D02*
X197958027Y-174550471D01*
X197958027Y-174550471D02*
X197886598Y-174621900D01*
X197886598Y-174621900D02*
X197743741Y-174693328D01*
X197743741Y-174693328D02*
X197529455Y-174693328D01*
X198672312Y-173693328D02*
X198672312Y-174693328D01*
X198672312Y-173836185D02*
X198743741Y-173764757D01*
X198743741Y-173764757D02*
X198886598Y-173693328D01*
X198886598Y-173693328D02*
X199100884Y-173693328D01*
X199100884Y-173693328D02*
X199243741Y-173764757D01*
X199243741Y-173764757D02*
X199315170Y-173907614D01*
X199315170Y-173907614D02*
X199315170Y-174693328D01*
X200029455Y-174693328D02*
X200029455Y-173693328D01*
X200029455Y-173193328D02*
X199958027Y-173264757D01*
X199958027Y-173264757D02*
X200029455Y-173336185D01*
X200029455Y-173336185D02*
X200100884Y-173264757D01*
X200100884Y-173264757D02*
X200029455Y-173193328D01*
X200029455Y-173193328D02*
X200029455Y-173336185D01*
X200958027Y-174693328D02*
X200815170Y-174621900D01*
X200815170Y-174621900D02*
X200743741Y-174550471D01*
X200743741Y-174550471D02*
X200672313Y-174407614D01*
X200672313Y-174407614D02*
X200672313Y-173979042D01*
X200672313Y-173979042D02*
X200743741Y-173836185D01*
X200743741Y-173836185D02*
X200815170Y-173764757D01*
X200815170Y-173764757D02*
X200958027Y-173693328D01*
X200958027Y-173693328D02*
X201172313Y-173693328D01*
X201172313Y-173693328D02*
X201315170Y-173764757D01*
X201315170Y-173764757D02*
X201386599Y-173836185D01*
X201386599Y-173836185D02*
X201458027Y-173979042D01*
X201458027Y-173979042D02*
X201458027Y-174407614D01*
X201458027Y-174407614D02*
X201386599Y-174550471D01*
X201386599Y-174550471D02*
X201315170Y-174621900D01*
X201315170Y-174621900D02*
X201172313Y-174693328D01*
X201172313Y-174693328D02*
X200958027Y-174693328D01*
X203243741Y-174693328D02*
X203243741Y-173193328D01*
X203243741Y-173907614D02*
X204100884Y-173907614D01*
X204100884Y-174693328D02*
X204100884Y-173193328D01*
X204815170Y-174693328D02*
X204815170Y-173693328D01*
X204815170Y-173193328D02*
X204743742Y-173264757D01*
X204743742Y-173264757D02*
X204815170Y-173336185D01*
X204815170Y-173336185D02*
X204886599Y-173264757D01*
X204886599Y-173264757D02*
X204815170Y-173193328D01*
X204815170Y-173193328D02*
X204815170Y-173336185D01*
X206172314Y-174693328D02*
X206172314Y-173193328D01*
X206172314Y-174621900D02*
X206029456Y-174693328D01*
X206029456Y-174693328D02*
X205743742Y-174693328D01*
X205743742Y-174693328D02*
X205600885Y-174621900D01*
X205600885Y-174621900D02*
X205529456Y-174550471D01*
X205529456Y-174550471D02*
X205458028Y-174407614D01*
X205458028Y-174407614D02*
X205458028Y-173979042D01*
X205458028Y-173979042D02*
X205529456Y-173836185D01*
X205529456Y-173836185D02*
X205600885Y-173764757D01*
X205600885Y-173764757D02*
X205743742Y-173693328D01*
X205743742Y-173693328D02*
X206029456Y-173693328D01*
X206029456Y-173693328D02*
X206172314Y-173764757D01*
X207529457Y-174693328D02*
X207529457Y-173907614D01*
X207529457Y-173907614D02*
X207458028Y-173764757D01*
X207458028Y-173764757D02*
X207315171Y-173693328D01*
X207315171Y-173693328D02*
X207029457Y-173693328D01*
X207029457Y-173693328D02*
X206886599Y-173764757D01*
X207529457Y-174621900D02*
X207386599Y-174693328D01*
X207386599Y-174693328D02*
X207029457Y-174693328D01*
X207029457Y-174693328D02*
X206886599Y-174621900D01*
X206886599Y-174621900D02*
X206815171Y-174479042D01*
X206815171Y-174479042D02*
X206815171Y-174336185D01*
X206815171Y-174336185D02*
X206886599Y-174193328D01*
X206886599Y-174193328D02*
X207029457Y-174121900D01*
X207029457Y-174121900D02*
X207386599Y-174121900D01*
X207386599Y-174121900D02*
X207529457Y-174050471D01*
X208458028Y-174693328D02*
X208315171Y-174621900D01*
X208315171Y-174621900D02*
X208243742Y-174479042D01*
X208243742Y-174479042D02*
X208243742Y-173193328D01*
X209672314Y-173693328D02*
X209672314Y-174907614D01*
X209672314Y-174907614D02*
X209600885Y-175050471D01*
X209600885Y-175050471D02*
X209529456Y-175121900D01*
X209529456Y-175121900D02*
X209386599Y-175193328D01*
X209386599Y-175193328D02*
X209172314Y-175193328D01*
X209172314Y-175193328D02*
X209029456Y-175121900D01*
X209672314Y-174621900D02*
X209529456Y-174693328D01*
X209529456Y-174693328D02*
X209243742Y-174693328D01*
X209243742Y-174693328D02*
X209100885Y-174621900D01*
X209100885Y-174621900D02*
X209029456Y-174550471D01*
X209029456Y-174550471D02*
X208958028Y-174407614D01*
X208958028Y-174407614D02*
X208958028Y-173979042D01*
X208958028Y-173979042D02*
X209029456Y-173836185D01*
X209029456Y-173836185D02*
X209100885Y-173764757D01*
X209100885Y-173764757D02*
X209243742Y-173693328D01*
X209243742Y-173693328D02*
X209529456Y-173693328D01*
X209529456Y-173693328D02*
X209672314Y-173764757D01*
X210600885Y-174693328D02*
X210458028Y-174621900D01*
X210458028Y-174621900D02*
X210386599Y-174550471D01*
X210386599Y-174550471D02*
X210315171Y-174407614D01*
X210315171Y-174407614D02*
X210315171Y-173979042D01*
X210315171Y-173979042D02*
X210386599Y-173836185D01*
X210386599Y-173836185D02*
X210458028Y-173764757D01*
X210458028Y-173764757D02*
X210600885Y-173693328D01*
X210600885Y-173693328D02*
X210815171Y-173693328D01*
X210815171Y-173693328D02*
X210958028Y-173764757D01*
X210958028Y-173764757D02*
X211029457Y-173836185D01*
X211029457Y-173836185D02*
X211100885Y-173979042D01*
X211100885Y-173979042D02*
X211100885Y-174407614D01*
X211100885Y-174407614D02*
X211029457Y-174550471D01*
X211029457Y-174550471D02*
X210958028Y-174621900D01*
X210958028Y-174621900D02*
X210815171Y-174693328D01*
X210815171Y-174693328D02*
X210600885Y-174693328D01*
X212672314Y-173193328D02*
X213529457Y-173193328D01*
X213100885Y-174693328D02*
X213100885Y-173193328D01*
X214243742Y-174693328D02*
X214100885Y-174621900D01*
X214100885Y-174621900D02*
X214029456Y-174550471D01*
X214029456Y-174550471D02*
X213958028Y-174407614D01*
X213958028Y-174407614D02*
X213958028Y-173979042D01*
X213958028Y-173979042D02*
X214029456Y-173836185D01*
X214029456Y-173836185D02*
X214100885Y-173764757D01*
X214100885Y-173764757D02*
X214243742Y-173693328D01*
X214243742Y-173693328D02*
X214458028Y-173693328D01*
X214458028Y-173693328D02*
X214600885Y-173764757D01*
X214600885Y-173764757D02*
X214672314Y-173836185D01*
X214672314Y-173836185D02*
X214743742Y-173979042D01*
X214743742Y-173979042D02*
X214743742Y-174407614D01*
X214743742Y-174407614D02*
X214672314Y-174550471D01*
X214672314Y-174550471D02*
X214600885Y-174621900D01*
X214600885Y-174621900D02*
X214458028Y-174693328D01*
X214458028Y-174693328D02*
X214243742Y-174693328D01*
X215386599Y-174693328D02*
X215386599Y-173693328D01*
X215386599Y-173979042D02*
X215458028Y-173836185D01*
X215458028Y-173836185D02*
X215529457Y-173764757D01*
X215529457Y-173764757D02*
X215672314Y-173693328D01*
X215672314Y-173693328D02*
X215815171Y-173693328D01*
X216315170Y-174693328D02*
X216315170Y-173693328D01*
X216315170Y-173979042D02*
X216386599Y-173836185D01*
X216386599Y-173836185D02*
X216458028Y-173764757D01*
X216458028Y-173764757D02*
X216600885Y-173693328D01*
X216600885Y-173693328D02*
X216743742Y-173693328D01*
X217815170Y-174621900D02*
X217672313Y-174693328D01*
X217672313Y-174693328D02*
X217386599Y-174693328D01*
X217386599Y-174693328D02*
X217243741Y-174621900D01*
X217243741Y-174621900D02*
X217172313Y-174479042D01*
X217172313Y-174479042D02*
X217172313Y-173907614D01*
X217172313Y-173907614D02*
X217243741Y-173764757D01*
X217243741Y-173764757D02*
X217386599Y-173693328D01*
X217386599Y-173693328D02*
X217672313Y-173693328D01*
X217672313Y-173693328D02*
X217815170Y-173764757D01*
X217815170Y-173764757D02*
X217886599Y-173907614D01*
X217886599Y-173907614D02*
X217886599Y-174050471D01*
X217886599Y-174050471D02*
X217172313Y-174193328D01*
X218458027Y-174621900D02*
X218600884Y-174693328D01*
X218600884Y-174693328D02*
X218886598Y-174693328D01*
X218886598Y-174693328D02*
X219029455Y-174621900D01*
X219029455Y-174621900D02*
X219100884Y-174479042D01*
X219100884Y-174479042D02*
X219100884Y-174407614D01*
X219100884Y-174407614D02*
X219029455Y-174264757D01*
X219029455Y-174264757D02*
X218886598Y-174193328D01*
X218886598Y-174193328D02*
X218672313Y-174193328D01*
X218672313Y-174193328D02*
X218529455Y-174121900D01*
X218529455Y-174121900D02*
X218458027Y-173979042D01*
X218458027Y-173979042D02*
X218458027Y-173907614D01*
X218458027Y-173907614D02*
X218529455Y-173764757D01*
X218529455Y-173764757D02*
X218672313Y-173693328D01*
X218672313Y-173693328D02*
X218886598Y-173693328D01*
X218886598Y-173693328D02*
X219029455Y-173764757D01*
D10*
D11*
D10*
D11*
D10*
D11*
X197002200Y-191507200D02*
X197002200Y-194507200D01*
D10*
D11*
X261002200Y-191507200D02*
X261002200Y-198007200D01*
D14*
%TO.P,J1,1*%
%TO.N,PWR_IN*%
X146616200Y-87963000D03*
%TO.P,J1,2*%
%TO.N,GND*%
X146616200Y-81963000D03*
%TO.P,J1,3*%
X141916200Y-84963000D03*
%TD*%
D15*
%TO.P,S1,1*%
%TO.N,EN*%
X140208000Y-114735400D03*
%TO.P,S1,2*%
%TO.N,VDD*%
X140208000Y-118135400D03*
%TD*%
D16*
%TO.P,C4,1*%
%TO.N,VDD*%
X140970000Y-92113400D03*
%TO.P,C4,2*%
%TO.N,GND*%
X140970000Y-90563400D03*
%TD*%
D17*
%TO.P,R7,1*%
%TO.N,EN*%
X142748000Y-116435400D03*
%TO.P,R7,2*%
%TO.N,GND*%
X142748000Y-118085400D03*
%TD*%
D18*
%TO.P,C1,1*%
%TO.N,EN*%
X137795000Y-116471400D03*
%TO.P,C1,2*%
%TO.N,GND*%
X137795000Y-118021400D03*
%TD*%
D19*
%TO.P,J3,1,1*%
%TO.N,EN*%
X144989000Y-115419400D03*
%TO.P,J3,2,2*%
%TO.N,VDD*%
X148889000Y-115419400D03*
%TO.P,J3,3,3*%
%TO.N,TX*%
X144989000Y-116689400D03*
%TO.P,J3,4,4*%
%TO.N,GND*%
X148889000Y-116689400D03*
%TO.P,J3,5,5*%
%TO.N,RX*%
X144989000Y-117959400D03*
%TO.P,J3,6,6*%
%TO.N,IO0*%
X148889000Y-117959400D03*
%TD*%
D20*
%TO.P,D1,1,+*%
%TO.N,Net-(D1-+)*%
X153914000Y-82924400D03*
%TO.P,D1,2,-*%
%TO.N,GND*%
X159014000Y-82924400D03*
%TO.P,D1,3*%
%TO.N,PWR_IN*%
X159014000Y-91624400D03*
%TO.P,D1,4*%
%TO.N,GND*%
X153914000Y-91624400D03*
%TD*%
D21*
%TO.P,U1,1,RST*%
%TO.N,unconnected-(U1-RST-Pad1)*%
X140716000Y-96545400D03*
%TO.P,U1,2,ADC*%
%TO.N,unconnected-(U1-ADC-Pad2)*%
X142716000Y-96545400D03*
%TO.P,U1,3,EN*%
%TO.N,EN*%
X144716000Y-96545400D03*
%TO.P,U1,4,IO16*%
%TO.N,PWM_RED*%
X146716000Y-96545400D03*
%TO.P,U1,5,IO14*%
%TO.N,unconnected-(U1-IO14-Pad5)*%
X148716000Y-96545400D03*
%TO.P,U1,6,IO12*%
%TO.N,PWM_GREEN*%
X150716000Y-96545400D03*
%TO.P,U1,7,IO13*%
%TO.N,PWM_BLUE*%
X152716000Y-96545400D03*
%TO.P,U1,8,VCC*%
%TO.N,VDD*%
X154716000Y-96545400D03*
%TO.P,U1,9,GND*%
%TO.N,GND*%
X154716000Y-112345400D03*
%TO.P,U1,10,IO15*%
%TO.N,unconnected-(U1-IO15-Pad10)*%
X152716000Y-112345400D03*
%TO.P,U1,11,IO2*%
%TO.N,unconnected-(U1-IO2-Pad11)*%
X150716000Y-112345400D03*
%TO.P,U1,12,IO0*%
%TO.N,IO0*%
X148716000Y-112345400D03*
%TO.P,U1,13,IO4*%
%TO.N,unconnected-(U1-IO4-Pad13)*%
X146716000Y-112345400D03*
%TO.P,U1,14,IO5*%
%TO.N,unconnected-(U1-IO5-Pad14)*%
X144716000Y-112345400D03*
%TO.P,U1,15,RXD0*%
%TO.N,TX*%
X142716000Y-112345400D03*
%TO.P,U1,16,TXD0*%
%TO.N,RX*%
X140716000Y-112345400D03*
D22*
%TO.P,U1,17,EXP*%
%TO.N,unconnected-(U1-EXP-Pad17)*%
X145416000Y-104645400D03*
%TD*%
D23*
%TO.P,U3,1,GND*%
%TO.N,GND*%
X133997000Y-83030400D03*
D24*
%TO.P,U3,2,VO*%
%TO.N,VDD*%
X137802000Y-87655400D03*
X134752000Y-87655400D03*
D25*
X136277000Y-89330400D03*
D24*
X137802000Y-91005400D03*
X134752000Y-91005400D03*
D23*
%TO.P,U3,3,VI*%
%TO.N,Net-(D1-+)*%
X138557000Y-83030400D03*
%TD*%
D16*
%TO.P,C3,1*%
%TO.N,Net-(D1-+)*%
X140843000Y-82664600D03*
%TO.P,C3,2*%
%TO.N,GND*%
X140843000Y-81114600D03*
%TD*%
D15*
%TO.P,S2,1*%
%TO.N,GND*%
X154051000Y-114735400D03*
%TO.P,S2,2*%
%TO.N,IO0*%
X154051000Y-118135400D03*
%TD*%
D16*
%TO.P,C2,1*%
%TO.N,IO0*%
X151384000Y-118021400D03*
%TO.P,C2,2*%
%TO.N,GND*%
X151384000Y-116471400D03*
%TD*%
D26*
%TO.N,GND*%
X147345400Y-100380800D03*
X154711400Y-112318800D03*
%TO.N,PWM_RED*%
X146716000Y-96545400D03*
%TO.N,PWM_BLUE*%
X152716000Y-96545400D03*
%TO.N,PWM_GREEN*%
X150749000Y-95948000D03*
%TO.N,RX*%
X144989000Y-117959400D03*
X140716000Y-112293400D03*
%TD*%
D27*
%TO.N,Net-(D1-+)*%
X138922800Y-82664600D02*
X138557000Y-83030400D01*
X140843000Y-82664600D02*
X138922800Y-82664600D01*
%TO.N,PWR_IN*%
X155871600Y-87963000D02*
X146616200Y-87963000D01*
X159014000Y-91105400D02*
X155871600Y-87963000D01*
X159014000Y-91624400D02*
X159014000Y-91105400D01*
%TO.N,EN*%
X138655000Y-114735400D02*
X140208000Y-114735400D01*
X139816000Y-102017400D02*
X144716000Y-97117400D01*
X144716000Y-97117400D02*
X144716000Y-96545400D01*
X139816000Y-114343400D02*
X139816000Y-102017400D01*
X137795000Y-115595400D02*
X138655000Y-114735400D01*
X137795000Y-116471400D02*
X137795000Y-115595400D01*
X141048000Y-114735400D02*
X142748000Y-116435400D01*
X140208000Y-114735400D02*
X139816000Y-114343400D01*
X140208000Y-114735400D02*
X141048000Y-114735400D01*
X143764000Y-115419400D02*
X144989000Y-115419400D01*
X142748000Y-116435400D02*
X143764000Y-115419400D01*
D28*
%TO.N,GND*%
X137923000Y-118021400D02*
X137795000Y-118021400D01*
D27*
X147193000Y-117375400D02*
X147193000Y-118742506D01*
X148889000Y-116689400D02*
X147879000Y-116689400D01*
X139179000Y-119405400D02*
X137795000Y-118021400D01*
X147193000Y-118742506D02*
X146530106Y-119405400D01*
X141858200Y-117195600D02*
X138620800Y-117195600D01*
X142748000Y-118085400D02*
X141858200Y-117195600D01*
X138620800Y-117195600D02*
X137795000Y-118021400D01*
X147879000Y-116689400D02*
X147193000Y-117375400D01*
X146530106Y-119405400D02*
X139179000Y-119405400D01*
%TO.N,IO0*%
X150559000Y-117196400D02*
X151384000Y-118021400D01*
X148716000Y-112345400D02*
X148716000Y-112895400D01*
X151322000Y-117959400D02*
X151384000Y-118021400D01*
X148716000Y-112895400D02*
X150559000Y-114738400D01*
X150559000Y-114738400D02*
X150559000Y-117196400D01*
X151498000Y-118135400D02*
X151384000Y-118021400D01*
X148889000Y-117959400D02*
X151322000Y-117959400D01*
X154051000Y-118135400D02*
X151498000Y-118135400D01*
%TO.N,Net-(D1-+)*%
X138557000Y-80924400D02*
X138557000Y-83030400D01*
X153914000Y-82924400D02*
X153914000Y-82438400D01*
X153914000Y-82438400D02*
X151257000Y-79781400D01*
X151257000Y-79781400D02*
X139700000Y-79781400D01*
X139700000Y-79781400D02*
X138557000Y-80924400D01*
%TO.N,VDD*%
X151638000Y-92100400D02*
X138897000Y-92100400D01*
X154569600Y-95177600D02*
X154569600Y-95032000D01*
X148352500Y-114231400D02*
X147701000Y-114231400D01*
X147701000Y-103837400D02*
X154716000Y-96822400D01*
X141351000Y-118897400D02*
X146331000Y-118897400D01*
X147185000Y-116183506D02*
X147185000Y-114753293D01*
X146331000Y-118897400D02*
X146558000Y-118670400D01*
X147182054Y-114750346D02*
X147701000Y-114231400D01*
X146558000Y-118670400D02*
X146558000Y-116810506D01*
X147185000Y-114753293D02*
X147182054Y-114750346D01*
X148889000Y-114767900D02*
X148352500Y-114231400D01*
X140208000Y-118135400D02*
X140589000Y-118135400D01*
X148889000Y-115419400D02*
X148889000Y-114767900D01*
X140589000Y-118135400D02*
X141351000Y-118897400D01*
X154569600Y-96821600D02*
X154569600Y-96544600D01*
X147701000Y-114231400D02*
X147701000Y-103837400D01*
X138897000Y-92100400D02*
X137802000Y-91005400D01*
X146558000Y-116810506D02*
X147185000Y-116183506D01*
X154569600Y-95032000D02*
X151638000Y-92100400D01*
X154569600Y-96544600D02*
X154569600Y-95177600D01*
%TO.N,unconnected-(U1-IO14-Pad5)*%
X148716000Y-96036400D02*
X148716000Y-96545400D01*
%TO.N,PWM_GREEN*%
X150716000Y-96195400D02*
X150716000Y-95981000D01*
X150716000Y-95981000D02*
X150716000Y-96545400D01*
X150749000Y-95948000D02*
X150716000Y-95981000D01*
%TO.N,TX*%
X145923000Y-114198400D02*
X144018000Y-114198400D01*
X146685000Y-115976400D02*
X146685000Y-114960400D01*
X142716000Y-112896400D02*
X142716000Y-112345400D01*
X146685000Y-114960400D02*
X145923000Y-114198400D01*
X145972000Y-116689400D02*
X146685000Y-115976400D01*
X144018000Y-114198400D02*
X142716000Y-112896400D01*
X144989000Y-116689400D02*
X145972000Y-116689400D01*
%TO.N,RX*%
X144989000Y-117959400D02*
X143969000Y-117959400D01*
%TD*%
%TA.AperFunction,Conductor*%
%TO.N,GND*%
G36*
X158426554Y-75675975D02*
G01*
X158547043Y-75681893D01*
X158577090Y-75683369D01*
X158771607Y-75693562D01*
X158777409Y-75694143D01*
X158946755Y-75719263D01*
X159122611Y-75747116D01*
X159127908Y-75748197D01*
X159297221Y-75790607D01*
X159466322Y-75835918D01*
X159471149Y-75837425D01*
X159636915Y-75896738D01*
X159753117Y-75941344D01*
X159799254Y-75959055D01*
X159803538Y-75960887D01*
X159963479Y-76036533D01*
X160034858Y-76072902D01*
X160117993Y-76115263D01*
X160121721Y-76117326D01*
X160141938Y-76129443D01*
X160273978Y-76208584D01*
X160372392Y-76272496D01*
X160419266Y-76302937D01*
X160422432Y-76305136D01*
X160565320Y-76411109D01*
X160639773Y-76471399D01*
X160700008Y-76520176D01*
X160702605Y-76522403D01*
X160833507Y-76641045D01*
X160835700Y-76643134D01*
X160957264Y-76764698D01*
X160959356Y-76766894D01*
X161078005Y-76897804D01*
X161080227Y-76900397D01*
X161107830Y-76934483D01*
X161189290Y-77035079D01*
X161295262Y-77177966D01*
X161297461Y-77181132D01*
X161391818Y-77326427D01*
X161412807Y-77361445D01*
X161483072Y-77478677D01*
X161485135Y-77482404D01*
X161563863Y-77636914D01*
X161581829Y-77674900D01*
X161639508Y-77796853D01*
X161641343Y-77801143D01*
X161703671Y-77963511D01*
X161762969Y-78129238D01*
X161764481Y-78134080D01*
X161809795Y-78303191D01*
X161852194Y-78472456D01*
X161853289Y-78477825D01*
X161881147Y-78653718D01*
X161906252Y-78822960D01*
X161906838Y-78828817D01*
X161917030Y-79023318D01*
X161924425Y-79173846D01*
X161924500Y-79176889D01*
X161924500Y-79223110D01*
X161925000Y-79227760D01*
X161925220Y-90786511D01*
X161925220Y-117173906D01*
X161925147Y-117176900D01*
X161924759Y-117184901D01*
X161917737Y-117329707D01*
X161908024Y-117517469D01*
X161907453Y-117523250D01*
X161882788Y-117691736D01*
X161855847Y-117864095D01*
X161854780Y-117869397D01*
X161813229Y-118037540D01*
X161769294Y-118203749D01*
X161767820Y-118208535D01*
X161709763Y-118373092D01*
X161649243Y-118533010D01*
X161647453Y-118537255D01*
X161573426Y-118696111D01*
X161496894Y-118848601D01*
X161494881Y-118852294D01*
X161405563Y-119003697D01*
X161313770Y-119147372D01*
X161311624Y-119150514D01*
X161207853Y-119292870D01*
X161101713Y-119426323D01*
X161099521Y-119428928D01*
X160983269Y-119559672D01*
X160981218Y-119561869D01*
X160862818Y-119682694D01*
X160860664Y-119684788D01*
X160732312Y-119803663D01*
X160729752Y-119805907D01*
X160598466Y-119914743D01*
X160458261Y-120021366D01*
X160455163Y-120023575D01*
X160313362Y-120118274D01*
X160163821Y-120210634D01*
X160160169Y-120212722D01*
X160009254Y-120292336D01*
X159851935Y-120369567D01*
X159847728Y-120371442D01*
X159689070Y-120435195D01*
X159525707Y-120496583D01*
X159520952Y-120498153D01*
X159355698Y-120545441D01*
X159188415Y-120590399D01*
X159183136Y-120591573D01*
X159011421Y-120621993D01*
X158843398Y-120650082D01*
X158837630Y-120650770D01*
X158649922Y-120664302D01*
X158498132Y-120674752D01*
X158493888Y-120674898D01*
X135454529Y-120674898D01*
X135451487Y-120674823D01*
X135300400Y-120667402D01*
X135106416Y-120657236D01*
X135100560Y-120656650D01*
X134931317Y-120631545D01*
X134755424Y-120603686D01*
X134750056Y-120602591D01*
X134580790Y-120560193D01*
X134411678Y-120514879D01*
X134406847Y-120513370D01*
X134300307Y-120475250D01*
X134241120Y-120454072D01*
X134078746Y-120391742D01*
X134074455Y-120389906D01*
X133914529Y-120314268D01*
X133760006Y-120235533D01*
X133756278Y-120233470D01*
X133604038Y-120142222D01*
X133458736Y-120047861D01*
X133455570Y-120045662D01*
X133312676Y-119939685D01*
X133178023Y-119830646D01*
X133175404Y-119828401D01*
X133044481Y-119709740D01*
X133042277Y-119707641D01*
X132920757Y-119586121D01*
X132918658Y-119583917D01*
X132890407Y-119552747D01*
X132825430Y-119481055D01*
X132799997Y-119452994D01*
X132797752Y-119450375D01*
X132688714Y-119315723D01*
X132582736Y-119172828D01*
X132580537Y-119169662D01*
X132550335Y-119123155D01*
X132486182Y-119024369D01*
X132394928Y-118872120D01*
X132392864Y-118868392D01*
X132367886Y-118819370D01*
X132314134Y-118713876D01*
X132276156Y-118633579D01*
X132238492Y-118553943D01*
X132236656Y-118549652D01*
X132231897Y-118537255D01*
X132174332Y-118387294D01*
X132115018Y-118221522D01*
X132113525Y-118216741D01*
X132068206Y-118047609D01*
X132025804Y-117878329D01*
X132024716Y-117872994D01*
X131996862Y-117697133D01*
X131971745Y-117527809D01*
X131971164Y-117522007D01*
X131960990Y-117327855D01*
X131955782Y-117221854D01*
X131953575Y-117176913D01*
X131953500Y-117173871D01*
X131953500Y-115440000D01*
X131973185Y-115372961D01*
X132025989Y-115327206D01*
X132077500Y-115316000D01*
X137035278Y-115316000D01*
X137102317Y-115335685D01*
X137148072Y-115388489D01*
X137158016Y-115457647D01*
X137155382Y-115470838D01*
X137144500Y-115513217D01*
X137144500Y-115534444D01*
X137142973Y-115553844D01*
X137139652Y-115574805D01*
X137139500Y-115579658D01*
X137117716Y-115646045D01*
X137096962Y-115668224D01*
X137097063Y-115668325D01*
X137094045Y-115671342D01*
X137092475Y-115673021D01*
X137091958Y-115673429D01*
X136972029Y-115793359D01*
X136883001Y-115937694D01*
X136882996Y-115937705D01*
X136829651Y-116098690D01*
X136824851Y-116145669D01*
X136798454Y-116210361D01*
X136741272Y-116250511D01*
X136671461Y-116253373D01*
X136611185Y-116218038D01*
X136610263Y-116217047D01*
X136575606Y-116179399D01*
X136572291Y-116175485D01*
X136564384Y-116165326D01*
X136562711Y-116161085D01*
X136557253Y-116155157D01*
X136551398Y-116151220D01*
X136541918Y-116142492D01*
X136538294Y-116138868D01*
X136501306Y-116098689D01*
X136472744Y-116067662D01*
X136451870Y-116051415D01*
X136396378Y-116008223D01*
X136392462Y-116004907D01*
X136382970Y-115996167D01*
X136380624Y-115992263D01*
X136374279Y-115987324D01*
X136367845Y-115984400D01*
X136357055Y-115977350D01*
X136352893Y-115974378D01*
X136345501Y-115968625D01*
X136276509Y-115914926D01*
X136276504Y-115914923D01*
X136276503Y-115914922D01*
X136227906Y-115888623D01*
X136191380Y-115868856D01*
X136186985Y-115866237D01*
X136176190Y-115859184D01*
X136173227Y-115855713D01*
X136166156Y-115851886D01*
X136159332Y-115850061D01*
X136147528Y-115844883D01*
X136142925Y-115842633D01*
X136057816Y-115796575D01*
X136057813Y-115796574D01*
X136057810Y-115796572D01*
X136057804Y-115796570D01*
X136057802Y-115796569D01*
X135966258Y-115765142D01*
X135961480Y-115763277D01*
X135949690Y-115758105D01*
X135946199Y-115755171D01*
X135938584Y-115752556D01*
X135931562Y-115751881D01*
X135927750Y-115750916D01*
X135919080Y-115748720D01*
X135914168Y-115747258D01*
X135822614Y-115715829D01*
X135727141Y-115699896D01*
X135722128Y-115698845D01*
X135709648Y-115695686D01*
X135705715Y-115693362D01*
X135697768Y-115692036D01*
X135690719Y-115692527D01*
X135677888Y-115691463D01*
X135672804Y-115690830D01*
X135577336Y-115674900D01*
X135577335Y-115674900D01*
X135480541Y-115674900D01*
X135475428Y-115674688D01*
X135464122Y-115673751D01*
X135462583Y-115673624D01*
X135458328Y-115671982D01*
X135450279Y-115671982D01*
X135443414Y-115673624D01*
X135433435Y-115674451D01*
X135433291Y-115674463D01*
X135430606Y-115674685D01*
X135425495Y-115674900D01*
X135328665Y-115674900D01*
X135233194Y-115690830D01*
X135228109Y-115691464D01*
X135215277Y-115692527D01*
X135210806Y-115691607D01*
X135202862Y-115692932D01*
X135196355Y-115695685D01*
X135183872Y-115698845D01*
X135178857Y-115699897D01*
X135083383Y-115715829D01*
X134991835Y-115747256D01*
X134986929Y-115748717D01*
X134974450Y-115751878D01*
X134969890Y-115751707D01*
X134962261Y-115754325D01*
X134956304Y-115758107D01*
X134944515Y-115763279D01*
X134939740Y-115765142D01*
X134848194Y-115796570D01*
X134848183Y-115796575D01*
X134763084Y-115842628D01*
X134758479Y-115844879D01*
X134746662Y-115850063D01*
X134742135Y-115850644D01*
X134735061Y-115854472D01*
X134729804Y-115859186D01*
X134719009Y-115866239D01*
X134714607Y-115868861D01*
X134629493Y-115914924D01*
X134629489Y-115914926D01*
X134553108Y-115974376D01*
X134548944Y-115977350D01*
X134541967Y-115981909D01*
X134538138Y-115984410D01*
X134533771Y-115985727D01*
X134527428Y-115990664D01*
X134523025Y-115996171D01*
X134513532Y-116004910D01*
X134509620Y-116008224D01*
X134433255Y-116067662D01*
X134367696Y-116138877D01*
X134364071Y-116142502D01*
X134354596Y-116151224D01*
X134350509Y-116153240D01*
X134345043Y-116159178D01*
X134341604Y-116165340D01*
X134333699Y-116175495D01*
X134330390Y-116179401D01*
X134264836Y-116250615D01*
X134211903Y-116331633D01*
X134208931Y-116335797D01*
X134202308Y-116344308D01*
X134200990Y-116346001D01*
X134197294Y-116348659D01*
X134192900Y-116355384D01*
X134190520Y-116362031D01*
X134184387Y-116373362D01*
X134181764Y-116377764D01*
X134128828Y-116458790D01*
X134089951Y-116547418D01*
X134087702Y-116552019D01*
X134081566Y-116563359D01*
X134078349Y-116566600D01*
X134075116Y-116573971D01*
X134073863Y-116580917D01*
X134069674Y-116593117D01*
X134067811Y-116597893D01*
X134050982Y-116636261D01*
X134028939Y-116686516D01*
X134028936Y-116686522D01*
X134005177Y-116780340D01*
X134003715Y-116785251D01*
X133999533Y-116797433D01*
X133996896Y-116801155D01*
X133994917Y-116808970D01*
X133994825Y-116816022D01*
X133992707Y-116828719D01*
X133991654Y-116833739D01*
X133967891Y-116927578D01*
X133967891Y-116927583D01*
X133959899Y-117024030D01*
X133959265Y-117029115D01*
X133957144Y-117041825D01*
X133955155Y-117045931D01*
X133954490Y-117053961D01*
X133955560Y-117060930D01*
X133955561Y-117073822D01*
X133955349Y-117078951D01*
X133947481Y-117173906D01*
X133947357Y-117175400D01*
X133955143Y-117269368D01*
X133955349Y-117271847D01*
X133955561Y-117276976D01*
X133955560Y-117289868D01*
X133954274Y-117294243D01*
X133954940Y-117302269D01*
X133957144Y-117308973D01*
X133959265Y-117321683D01*
X133959899Y-117326769D01*
X133967891Y-117423216D01*
X133967891Y-117423218D01*
X133991654Y-117517059D01*
X133992707Y-117522079D01*
X133994825Y-117534774D01*
X133994277Y-117539302D01*
X133996256Y-117547115D01*
X133999532Y-117553362D01*
X134003714Y-117565545D01*
X134005177Y-117570458D01*
X134028432Y-117662287D01*
X134028937Y-117664281D01*
X134039946Y-117689378D01*
X134067810Y-117752903D01*
X134069675Y-117757683D01*
X134073864Y-117769888D01*
X134074069Y-117774440D01*
X134077304Y-117781815D01*
X134081567Y-117787443D01*
X134087700Y-117798777D01*
X134089949Y-117803378D01*
X134128826Y-117892005D01*
X134181764Y-117973034D01*
X134184389Y-117977439D01*
X134190521Y-117988771D01*
X134191473Y-117993231D01*
X134195879Y-117999975D01*
X134201009Y-118004822D01*
X134208927Y-118014996D01*
X134211903Y-118019166D01*
X134262371Y-118096412D01*
X134264836Y-118100185D01*
X134268096Y-118103726D01*
X134330391Y-118171398D01*
X134333706Y-118175311D01*
X134341612Y-118185470D01*
X134343284Y-118189708D01*
X134348752Y-118195649D01*
X134354599Y-118199578D01*
X134364079Y-118208304D01*
X134367703Y-118211929D01*
X134433257Y-118283139D01*
X134509624Y-118342578D01*
X134513539Y-118345893D01*
X134523026Y-118354627D01*
X134525373Y-118358533D01*
X134531730Y-118363481D01*
X134538150Y-118366398D01*
X134546868Y-118372093D01*
X134548397Y-118373092D01*
X134548935Y-118373443D01*
X134553091Y-118376409D01*
X134629491Y-118435874D01*
X134714634Y-118481951D01*
X134719010Y-118484559D01*
X134729811Y-118491616D01*
X134732772Y-118495086D01*
X134739844Y-118498914D01*
X134746664Y-118500736D01*
X134758483Y-118505921D01*
X134763057Y-118508156D01*
X134848190Y-118554228D01*
X134939767Y-118585666D01*
X134944480Y-118587505D01*
X134956300Y-118592690D01*
X134959791Y-118595624D01*
X134967421Y-118598243D01*
X134974432Y-118598917D01*
X134982378Y-118600928D01*
X134986935Y-118602082D01*
X134991823Y-118603537D01*
X135057307Y-118626018D01*
X135083385Y-118634971D01*
X135178857Y-118650902D01*
X135183861Y-118651950D01*
X135196359Y-118655115D01*
X135200285Y-118657434D01*
X135208240Y-118658762D01*
X135215274Y-118658271D01*
X135228122Y-118659336D01*
X135233187Y-118659967D01*
X135328665Y-118675900D01*
X135328666Y-118675900D01*
X135425436Y-118675900D01*
X135430556Y-118676112D01*
X135442551Y-118677105D01*
X135443419Y-118677177D01*
X135447680Y-118678821D01*
X135455715Y-118678821D01*
X135462579Y-118677178D01*
X135475453Y-118676112D01*
X135480574Y-118675900D01*
X135577330Y-118675900D01*
X135577335Y-118675900D01*
X135672854Y-118659960D01*
X135677850Y-118659338D01*
X135690730Y-118658271D01*
X135695193Y-118659189D01*
X135703141Y-118657863D01*
X135709623Y-118655119D01*
X135722158Y-118651945D01*
X135727105Y-118650908D01*
X135822614Y-118634971D01*
X135914198Y-118603529D01*
X135919055Y-118602084D01*
X135931568Y-118598916D01*
X135936120Y-118599087D01*
X135943741Y-118596471D01*
X135949691Y-118592693D01*
X135961501Y-118587513D01*
X135966251Y-118585660D01*
X136057810Y-118554228D01*
X136142970Y-118508141D01*
X136147522Y-118505917D01*
X136159340Y-118500734D01*
X136163865Y-118500152D01*
X136170935Y-118496326D01*
X136176190Y-118491615D01*
X136186999Y-118484553D01*
X136191361Y-118481953D01*
X136276509Y-118435874D01*
X136352937Y-118376386D01*
X136357025Y-118373468D01*
X136367856Y-118366393D01*
X136372221Y-118365076D01*
X136378568Y-118360135D01*
X136382972Y-118354628D01*
X136392462Y-118345892D01*
X136396349Y-118342598D01*
X136472744Y-118283138D01*
X136538313Y-118211910D01*
X136541909Y-118208314D01*
X136551405Y-118199572D01*
X136555489Y-118197557D01*
X136560949Y-118191626D01*
X136564384Y-118185473D01*
X136572315Y-118175283D01*
X136575583Y-118171424D01*
X136604773Y-118139715D01*
X136664658Y-118103726D01*
X136734496Y-118105827D01*
X136792112Y-118145351D01*
X136819213Y-118209751D01*
X136820000Y-118223698D01*
X136820000Y-118294706D01*
X136820001Y-118294723D01*
X136830144Y-118394007D01*
X136883452Y-118554881D01*
X136883457Y-118554892D01*
X136972424Y-118699128D01*
X136972427Y-118699132D01*
X137092267Y-118818972D01*
X137092271Y-118818975D01*
X137236507Y-118907942D01*
X137236518Y-118907947D01*
X137397393Y-118961255D01*
X137496683Y-118971399D01*
X137544999Y-118971398D01*
X137545000Y-118971398D01*
X137545000Y-117895400D01*
X137564685Y-117828361D01*
X137617489Y-117782606D01*
X137669000Y-117771400D01*
X137921000Y-117771400D01*
X137988039Y-117791085D01*
X138033794Y-117843889D01*
X138045000Y-117895400D01*
X138045000Y-118971399D01*
X138093308Y-118971399D01*
X138093322Y-118971398D01*
X138192607Y-118961255D01*
X138353481Y-118907947D01*
X138353492Y-118907942D01*
X138497728Y-118818975D01*
X138497732Y-118818972D01*
X138617573Y-118699131D01*
X138639437Y-118663684D01*
X138691384Y-118616959D01*
X138760346Y-118605736D01*
X138824429Y-118633579D01*
X138859638Y-118686196D01*
X138861198Y-118685615D01*
X138914202Y-118827728D01*
X138914206Y-118827735D01*
X139000452Y-118942944D01*
X139000455Y-118942947D01*
X139115664Y-119029193D01*
X139115671Y-119029197D01*
X139250517Y-119079491D01*
X139250516Y-119079491D01*
X139257444Y-119080235D01*
X139310127Y-119085900D01*
X140568191Y-119085899D01*
X140635230Y-119105584D01*
X140655872Y-119122218D01*
X140830564Y-119296909D01*
X140840640Y-119309486D01*
X140840827Y-119309332D01*
X140845795Y-119315337D01*
X140898260Y-119364605D01*
X140919961Y-119386307D01*
X140919965Y-119386310D01*
X140919966Y-119386311D01*
X140925759Y-119390804D01*
X140930191Y-119394590D01*
X140965607Y-119427848D01*
X140967572Y-119428928D01*
X140984207Y-119438074D01*
X141000468Y-119448755D01*
X141017237Y-119461763D01*
X141061827Y-119481058D01*
X141067056Y-119483620D01*
X141109632Y-119507027D01*
X141130193Y-119512305D01*
X141148597Y-119518607D01*
X141168074Y-119527036D01*
X141202392Y-119532471D01*
X141216054Y-119534635D01*
X141221764Y-119535817D01*
X141268823Y-119547900D01*
X141290045Y-119547900D01*
X141309442Y-119549426D01*
X141330405Y-119552747D01*
X141375104Y-119548521D01*
X141378770Y-119548175D01*
X141384608Y-119547900D01*
X146245495Y-119547900D01*
X146261505Y-119549667D01*
X146261528Y-119549426D01*
X146269289Y-119550158D01*
X146269296Y-119550160D01*
X146341203Y-119547900D01*
X146371925Y-119547900D01*
X146379190Y-119546981D01*
X146385016Y-119546522D01*
X146433569Y-119544997D01*
X146453956Y-119539073D01*
X146472996Y-119535131D01*
X146494058Y-119532471D01*
X146539235Y-119514583D01*
X146544735Y-119512700D01*
X146591398Y-119499144D01*
X146609665Y-119488339D01*
X146627136Y-119479780D01*
X146646871Y-119471968D01*
X146686177Y-119443410D01*
X146691043Y-119440213D01*
X146732865Y-119415481D01*
X146747870Y-119400475D01*
X146762668Y-119387836D01*
X146764773Y-119386307D01*
X146779837Y-119375363D01*
X146810809Y-119337922D01*
X146814723Y-119333621D01*
X146957513Y-119190831D01*
X146970079Y-119180765D01*
X146969925Y-119180578D01*
X146975937Y-119175604D01*
X146975937Y-119175603D01*
X146975940Y-119175602D01*
X147025190Y-119123155D01*
X147046911Y-119101435D01*
X147051401Y-119095645D01*
X147055183Y-119091215D01*
X147088448Y-119055793D01*
X147098674Y-119037190D01*
X147109353Y-119020933D01*
X147122362Y-119004164D01*
X147141656Y-118959575D01*
X147144212Y-118954356D01*
X147167627Y-118911768D01*
X147172905Y-118891206D01*
X147179207Y-118872799D01*
X147187635Y-118853327D01*
X147192854Y-118820371D01*
X147222781Y-118757239D01*
X147282092Y-118720306D01*
X147351954Y-118721302D01*
X147389637Y-118740502D01*
X147411995Y-118757239D01*
X147446668Y-118783195D01*
X147446671Y-118783197D01*
X147581517Y-118833491D01*
X147581516Y-118833491D01*
X147588444Y-118834235D01*
X147641127Y-118839900D01*
X150136872Y-118839899D01*
X150196483Y-118833491D01*
X150331331Y-118783196D01*
X150372233Y-118752577D01*
X150424575Y-118713394D01*
X150490039Y-118688976D01*
X150558312Y-118703827D01*
X150586567Y-118724979D01*
X150680955Y-118819367D01*
X150680959Y-118819370D01*
X150825294Y-118908398D01*
X150825297Y-118908399D01*
X150825303Y-118908403D01*
X150986292Y-118961749D01*
X151085655Y-118971900D01*
X151682344Y-118971899D01*
X151682352Y-118971898D01*
X151682355Y-118971898D01*
X151736760Y-118966340D01*
X151781708Y-118961749D01*
X151942697Y-118908403D01*
X152087044Y-118819368D01*
X152087049Y-118819362D01*
X152092707Y-118814890D01*
X152094187Y-118816761D01*
X152145516Y-118788734D01*
X152171874Y-118785900D01*
X152663820Y-118785900D01*
X152730859Y-118805585D01*
X152763085Y-118835587D01*
X152843454Y-118942946D01*
X152868572Y-118961749D01*
X152958664Y-119029193D01*
X152958671Y-119029197D01*
X153093517Y-119079491D01*
X153093516Y-119079491D01*
X153100444Y-119080235D01*
X153153127Y-119085900D01*
X154948872Y-119085899D01*
X155008483Y-119079491D01*
X155143331Y-119029196D01*
X155258546Y-118942946D01*
X155344796Y-118827731D01*
X155395091Y-118692883D01*
X155401500Y-118633273D01*
X155401499Y-117637528D01*
X155395091Y-117577917D01*
X155378999Y-117534773D01*
X155344797Y-117443071D01*
X155344793Y-117443064D01*
X155258547Y-117327855D01*
X155258544Y-117327852D01*
X155143335Y-117241606D01*
X155143328Y-117241602D01*
X155008482Y-117191308D01*
X155008483Y-117191308D01*
X154948883Y-117184901D01*
X154948881Y-117184900D01*
X154948873Y-117184900D01*
X154948864Y-117184900D01*
X153153129Y-117184900D01*
X153153123Y-117184901D01*
X153093516Y-117191308D01*
X152958671Y-117241602D01*
X152958664Y-117241606D01*
X152843456Y-117327852D01*
X152843455Y-117327853D01*
X152843454Y-117327854D01*
X152763087Y-117435211D01*
X152707153Y-117477082D01*
X152663820Y-117484900D01*
X152363480Y-117484900D01*
X152296441Y-117465215D01*
X152257943Y-117425999D01*
X152206968Y-117343356D01*
X152197339Y-117333727D01*
X152163854Y-117272404D01*
X152168838Y-117202712D01*
X152186392Y-117175400D01*
X156919357Y-117175400D01*
X156927143Y-117269368D01*
X156927350Y-117271856D01*
X156927562Y-117276979D01*
X156927562Y-117289856D01*
X156926274Y-117294239D01*
X156926940Y-117302271D01*
X156929143Y-117308970D01*
X156931264Y-117321679D01*
X156931899Y-117326767D01*
X156939891Y-117423216D01*
X156939891Y-117423218D01*
X156963654Y-117517059D01*
X156964707Y-117522079D01*
X156966825Y-117534774D01*
X156966277Y-117539302D01*
X156968256Y-117547115D01*
X156971532Y-117553362D01*
X156975714Y-117565545D01*
X156977177Y-117570458D01*
X157000432Y-117662287D01*
X157000937Y-117664281D01*
X157011946Y-117689378D01*
X157039810Y-117752903D01*
X157041675Y-117757683D01*
X157045864Y-117769888D01*
X157046069Y-117774440D01*
X157049304Y-117781815D01*
X157053567Y-117787443D01*
X157059700Y-117798777D01*
X157061949Y-117803378D01*
X157100826Y-117892005D01*
X157153764Y-117973034D01*
X157156389Y-117977439D01*
X157162521Y-117988771D01*
X157163473Y-117993231D01*
X157167879Y-117999975D01*
X157173009Y-118004822D01*
X157180927Y-118014996D01*
X157183903Y-118019166D01*
X157234371Y-118096412D01*
X157236836Y-118100185D01*
X157240096Y-118103726D01*
X157302391Y-118171398D01*
X157305706Y-118175311D01*
X157313612Y-118185470D01*
X157315284Y-118189708D01*
X157320752Y-118195649D01*
X157326599Y-118199578D01*
X157336079Y-118208304D01*
X157339703Y-118211929D01*
X157405257Y-118283139D01*
X157481624Y-118342578D01*
X157485539Y-118345893D01*
X157495026Y-118354627D01*
X157497373Y-118358533D01*
X157503730Y-118363481D01*
X157510150Y-118366398D01*
X157518868Y-118372093D01*
X157520397Y-118373092D01*
X157520935Y-118373443D01*
X157525091Y-118376409D01*
X157601491Y-118435874D01*
X157686634Y-118481951D01*
X157691010Y-118484559D01*
X157701811Y-118491616D01*
X157704772Y-118495086D01*
X157711844Y-118498914D01*
X157718664Y-118500736D01*
X157730483Y-118505921D01*
X157735057Y-118508156D01*
X157820190Y-118554228D01*
X157911767Y-118585666D01*
X157916480Y-118587505D01*
X157928300Y-118592690D01*
X157931791Y-118595624D01*
X157939421Y-118598243D01*
X157946432Y-118598917D01*
X157954378Y-118600928D01*
X157958935Y-118602082D01*
X157963823Y-118603537D01*
X158029307Y-118626018D01*
X158055385Y-118634971D01*
X158150857Y-118650902D01*
X158155861Y-118651950D01*
X158168359Y-118655115D01*
X158172285Y-118657434D01*
X158180240Y-118658762D01*
X158187274Y-118658271D01*
X158200122Y-118659336D01*
X158205187Y-118659967D01*
X158300665Y-118675900D01*
X158300666Y-118675900D01*
X158397436Y-118675900D01*
X158402556Y-118676112D01*
X158414551Y-118677105D01*
X158415419Y-118677177D01*
X158419680Y-118678821D01*
X158427715Y-118678821D01*
X158434579Y-118677178D01*
X158447453Y-118676112D01*
X158452574Y-118675900D01*
X158549330Y-118675900D01*
X158549335Y-118675900D01*
X158644854Y-118659960D01*
X158649850Y-118659338D01*
X158662730Y-118658271D01*
X158667193Y-118659189D01*
X158675141Y-118657863D01*
X158681623Y-118655119D01*
X158694158Y-118651945D01*
X158699105Y-118650908D01*
X158794614Y-118634971D01*
X158886198Y-118603529D01*
X158891055Y-118602084D01*
X158903568Y-118598916D01*
X158908120Y-118599087D01*
X158915741Y-118596471D01*
X158921691Y-118592693D01*
X158933501Y-118587513D01*
X158938251Y-118585660D01*
X159029810Y-118554228D01*
X159114970Y-118508141D01*
X159119522Y-118505917D01*
X159131340Y-118500734D01*
X159135865Y-118500152D01*
X159142935Y-118496326D01*
X159148190Y-118491615D01*
X159158999Y-118484553D01*
X159163361Y-118481953D01*
X159248509Y-118435874D01*
X159324937Y-118376386D01*
X159329025Y-118373468D01*
X159339856Y-118366393D01*
X159344221Y-118365076D01*
X159350568Y-118360135D01*
X159354972Y-118354628D01*
X159364462Y-118345892D01*
X159368349Y-118342598D01*
X159444744Y-118283138D01*
X159510313Y-118211910D01*
X159513909Y-118208314D01*
X159523405Y-118199572D01*
X159527489Y-118197557D01*
X159532949Y-118191626D01*
X159536384Y-118185473D01*
X159544315Y-118175283D01*
X159547585Y-118171422D01*
X159613164Y-118100185D01*
X159666124Y-118019123D01*
X159669055Y-118015018D01*
X159677004Y-118004805D01*
X159680699Y-118002146D01*
X159685104Y-117995404D01*
X159687481Y-117988765D01*
X159693621Y-117977420D01*
X159696224Y-117973050D01*
X159749173Y-117892007D01*
X159788052Y-117803370D01*
X159790290Y-117798791D01*
X159796434Y-117787438D01*
X159799649Y-117784199D01*
X159802882Y-117776827D01*
X159804135Y-117769883D01*
X159808329Y-117757666D01*
X159810170Y-117752946D01*
X159849063Y-117664281D01*
X159872832Y-117570419D01*
X159874280Y-117565556D01*
X159878467Y-117553360D01*
X159881103Y-117549638D01*
X159883081Y-117541828D01*
X159883174Y-117534773D01*
X159885299Y-117522038D01*
X159886344Y-117517059D01*
X159910108Y-117423221D01*
X159918103Y-117326733D01*
X159918734Y-117321678D01*
X159923508Y-117293069D01*
X159922688Y-117287328D01*
X159923088Y-117267985D01*
X159923283Y-117264214D01*
X159930643Y-117175400D01*
X159930516Y-117173871D01*
X159927245Y-117134397D01*
X159923283Y-117086589D01*
X159923088Y-117082810D01*
X159922688Y-117063472D01*
X159923789Y-117059416D01*
X159921539Y-117045931D01*
X159918731Y-117029104D01*
X159918102Y-117024060D01*
X159910108Y-116927579D01*
X159909949Y-116926953D01*
X159898677Y-116882439D01*
X159886341Y-116833727D01*
X159885295Y-116828734D01*
X159885292Y-116828719D01*
X159883175Y-116816027D01*
X159883721Y-116811502D01*
X159881743Y-116803687D01*
X159878466Y-116797437D01*
X159874283Y-116785251D01*
X159872830Y-116780376D01*
X159849063Y-116686519D01*
X159810180Y-116597875D01*
X159808326Y-116593125D01*
X159804133Y-116580909D01*
X159803927Y-116576353D01*
X159800699Y-116568992D01*
X159796435Y-116563362D01*
X159790298Y-116552021D01*
X159788052Y-116547429D01*
X159750456Y-116461717D01*
X159749173Y-116458792D01*
X159696231Y-116377758D01*
X159693618Y-116373373D01*
X159687477Y-116362026D01*
X159686524Y-116357567D01*
X159682122Y-116350828D01*
X159676994Y-116345981D01*
X159669081Y-116335815D01*
X159666102Y-116331643D01*
X159613164Y-116250615D01*
X159583175Y-116218038D01*
X159547606Y-116179399D01*
X159544291Y-116175485D01*
X159536384Y-116165326D01*
X159534711Y-116161085D01*
X159529253Y-116155157D01*
X159523398Y-116151220D01*
X159513918Y-116142492D01*
X159510294Y-116138868D01*
X159473306Y-116098689D01*
X159444744Y-116067662D01*
X159423870Y-116051415D01*
X159368378Y-116008223D01*
X159364462Y-116004907D01*
X159354970Y-115996167D01*
X159352624Y-115992263D01*
X159346279Y-115987324D01*
X159339845Y-115984400D01*
X159329055Y-115977350D01*
X159324893Y-115974378D01*
X159317501Y-115968625D01*
X159248509Y-115914926D01*
X159248504Y-115914923D01*
X159248503Y-115914922D01*
X159199906Y-115888623D01*
X159163380Y-115868856D01*
X159158985Y-115866237D01*
X159148190Y-115859184D01*
X159145227Y-115855713D01*
X159138156Y-115851886D01*
X159131332Y-115850061D01*
X159119528Y-115844883D01*
X159114925Y-115842633D01*
X159029816Y-115796575D01*
X159029813Y-115796574D01*
X159029810Y-115796572D01*
X159029804Y-115796570D01*
X159029802Y-115796569D01*
X158938258Y-115765142D01*
X158933480Y-115763277D01*
X158921690Y-115758105D01*
X158918199Y-115755171D01*
X158910584Y-115752556D01*
X158903562Y-115751881D01*
X158899750Y-115750916D01*
X158891080Y-115748720D01*
X158886168Y-115747258D01*
X158794614Y-115715829D01*
X158699141Y-115699896D01*
X158694128Y-115698845D01*
X158681648Y-115695686D01*
X158677715Y-115693362D01*
X158669768Y-115692036D01*
X158662719Y-115692527D01*
X158649888Y-115691463D01*
X158644804Y-115690830D01*
X158549336Y-115674900D01*
X158549335Y-115674900D01*
X158452541Y-115674900D01*
X158447428Y-115674688D01*
X158436122Y-115673751D01*
X158434583Y-115673624D01*
X158430328Y-115671982D01*
X158422279Y-115671982D01*
X158415414Y-115673624D01*
X158405435Y-115674451D01*
X158405291Y-115674463D01*
X158402606Y-115674685D01*
X158397495Y-115674900D01*
X158300665Y-115674900D01*
X158205194Y-115690830D01*
X158200109Y-115691464D01*
X158187277Y-115692527D01*
X158182806Y-115691607D01*
X158174862Y-115692932D01*
X158168355Y-115695685D01*
X158155872Y-115698845D01*
X158150857Y-115699897D01*
X158055383Y-115715829D01*
X157963835Y-115747256D01*
X157958929Y-115748717D01*
X157946450Y-115751878D01*
X157941890Y-115751707D01*
X157934261Y-115754325D01*
X157928304Y-115758107D01*
X157916515Y-115763279D01*
X157911740Y-115765142D01*
X157820194Y-115796570D01*
X157820183Y-115796575D01*
X157735084Y-115842628D01*
X157730479Y-115844879D01*
X157718662Y-115850063D01*
X157714135Y-115850644D01*
X157707061Y-115854472D01*
X157701804Y-115859186D01*
X157691009Y-115866239D01*
X157686607Y-115868861D01*
X157601493Y-115914924D01*
X157601489Y-115914926D01*
X157525108Y-115974376D01*
X157520944Y-115977350D01*
X157513967Y-115981909D01*
X157510138Y-115984410D01*
X157505771Y-115985727D01*
X157499428Y-115990664D01*
X157495025Y-115996171D01*
X157485532Y-116004910D01*
X157481620Y-116008224D01*
X157405255Y-116067662D01*
X157339696Y-116138877D01*
X157336071Y-116142502D01*
X157326596Y-116151224D01*
X157322509Y-116153240D01*
X157317043Y-116159178D01*
X157313604Y-116165340D01*
X157305699Y-116175495D01*
X157302390Y-116179401D01*
X157236836Y-116250615D01*
X157183903Y-116331633D01*
X157180931Y-116335797D01*
X157174308Y-116344308D01*
X157172990Y-116346001D01*
X157169294Y-116348659D01*
X157164900Y-116355384D01*
X157162520Y-116362031D01*
X157156387Y-116373362D01*
X157153764Y-116377764D01*
X157100828Y-116458790D01*
X157061951Y-116547418D01*
X157059702Y-116552019D01*
X157053566Y-116563359D01*
X157050349Y-116566600D01*
X157047116Y-116573971D01*
X157045863Y-116580917D01*
X157041674Y-116593117D01*
X157039811Y-116597893D01*
X157022982Y-116636261D01*
X157000939Y-116686516D01*
X157000936Y-116686522D01*
X156977177Y-116780340D01*
X156975715Y-116785251D01*
X156971533Y-116797433D01*
X156968896Y-116801155D01*
X156966917Y-116808970D01*
X156966825Y-116816022D01*
X156964707Y-116828719D01*
X156963654Y-116833739D01*
X156939891Y-116927578D01*
X156939891Y-116927583D01*
X156931899Y-117024031D01*
X156931264Y-117029119D01*
X156929143Y-117041828D01*
X156927156Y-117045930D01*
X156926490Y-117053963D01*
X156927562Y-117060942D01*
X156927562Y-117073819D01*
X156927350Y-117078942D01*
X156919481Y-117173906D01*
X156919357Y-117175400D01*
X152186392Y-117175400D01*
X152197345Y-117158359D01*
X152206573Y-117149131D01*
X152295542Y-117004892D01*
X152295547Y-117004881D01*
X152348855Y-116844006D01*
X152358999Y-116744722D01*
X152359000Y-116744709D01*
X152359000Y-116721400D01*
X151333500Y-116721400D01*
X151266461Y-116701715D01*
X151220706Y-116648911D01*
X151209500Y-116597400D01*
X151209500Y-115521400D01*
X151634000Y-115521400D01*
X151634000Y-116221400D01*
X152358999Y-116221400D01*
X152358999Y-116198092D01*
X152358998Y-116198077D01*
X152348855Y-116098792D01*
X152295547Y-115937918D01*
X152295542Y-115937907D01*
X152206575Y-115793671D01*
X152206572Y-115793667D01*
X152086732Y-115673827D01*
X152086728Y-115673824D01*
X151942492Y-115584857D01*
X151942481Y-115584852D01*
X151781606Y-115531544D01*
X151682322Y-115521400D01*
X151634000Y-115521400D01*
X151209500Y-115521400D01*
X151209500Y-114985400D01*
X152701000Y-114985400D01*
X152701000Y-115233244D01*
X152707401Y-115292772D01*
X152707403Y-115292779D01*
X152757645Y-115427486D01*
X152757649Y-115427493D01*
X152843809Y-115542587D01*
X152843812Y-115542590D01*
X152958906Y-115628750D01*
X152958913Y-115628754D01*
X153093620Y-115678996D01*
X153093627Y-115678998D01*
X153153155Y-115685399D01*
X153153172Y-115685400D01*
X153801000Y-115685400D01*
X153801000Y-114985400D01*
X154301000Y-114985400D01*
X154301000Y-115685400D01*
X154948828Y-115685400D01*
X154948844Y-115685399D01*
X155008372Y-115678998D01*
X155008379Y-115678996D01*
X155143086Y-115628754D01*
X155143093Y-115628750D01*
X155258187Y-115542590D01*
X155258190Y-115542587D01*
X155344350Y-115427493D01*
X155344354Y-115427486D01*
X155394596Y-115292779D01*
X155394598Y-115292772D01*
X155400999Y-115233244D01*
X155401000Y-115233227D01*
X155401000Y-114985400D01*
X154301000Y-114985400D01*
X153801000Y-114985400D01*
X152701000Y-114985400D01*
X151209500Y-114985400D01*
X151209500Y-114823903D01*
X151211268Y-114807891D01*
X151211026Y-114807869D01*
X151211760Y-114800106D01*
X151209500Y-114728182D01*
X151209500Y-114697477D01*
X151209500Y-114697475D01*
X151208579Y-114690192D01*
X151208123Y-114684387D01*
X151208050Y-114682055D01*
X151206598Y-114635831D01*
X151200676Y-114615450D01*
X151196731Y-114596395D01*
X151194072Y-114575349D01*
X151194071Y-114575348D01*
X151194071Y-114575342D01*
X151176189Y-114530179D01*
X151174300Y-114524659D01*
X151172044Y-114516894D01*
X151160745Y-114478002D01*
X151160142Y-114476983D01*
X151149936Y-114459724D01*
X151141378Y-114442255D01*
X151133568Y-114422529D01*
X151105006Y-114383218D01*
X151101818Y-114378364D01*
X151077081Y-114336535D01*
X151062074Y-114321528D01*
X151049435Y-114306730D01*
X151036961Y-114289560D01*
X150999528Y-114258594D01*
X150995206Y-114254660D01*
X150898126Y-114157580D01*
X150864641Y-114096257D01*
X150869625Y-114026565D01*
X150911497Y-113970632D01*
X150976961Y-113946215D01*
X150985807Y-113945899D01*
X151313871Y-113945899D01*
X151313872Y-113945899D01*
X151373483Y-113939491D01*
X151508331Y-113889196D01*
X151623546Y-113802946D01*
X151623548Y-113802942D01*
X151628319Y-113798173D01*
X151689642Y-113764688D01*
X151759334Y-113769672D01*
X151803681Y-113798173D01*
X151808455Y-113802947D01*
X151923664Y-113889193D01*
X151923671Y-113889197D01*
X151968618Y-113905960D01*
X152058517Y-113939491D01*
X152118127Y-113945900D01*
X152615386Y-113945899D01*
X152682424Y-113965583D01*
X152728179Y-114018387D01*
X152738123Y-114087546D01*
X152731567Y-114113231D01*
X152707403Y-114178016D01*
X152707401Y-114178027D01*
X152701000Y-114237555D01*
X152701000Y-114485400D01*
X155401000Y-114485400D01*
X155401000Y-114237572D01*
X155400999Y-114237555D01*
X155394598Y-114178027D01*
X155394597Y-114178023D01*
X155357075Y-114077422D01*
X155352091Y-114007730D01*
X155385576Y-113946407D01*
X155429925Y-113917906D01*
X155508084Y-113888755D01*
X155508093Y-113888750D01*
X155623187Y-113802590D01*
X155623190Y-113802587D01*
X155709350Y-113687493D01*
X155709354Y-113687486D01*
X155759596Y-113552779D01*
X155759598Y-113552772D01*
X155765999Y-113493244D01*
X155766000Y-113493227D01*
X155766000Y-112595400D01*
X154590000Y-112595400D01*
X154522961Y-112575715D01*
X154477206Y-112522911D01*
X154466000Y-112471400D01*
X154466000Y-110745400D01*
X154966000Y-110745400D01*
X154966000Y-112095400D01*
X155766000Y-112095400D01*
X155766000Y-111197572D01*
X155765999Y-111197555D01*
X155759598Y-111138027D01*
X155759596Y-111138020D01*
X155709354Y-111003313D01*
X155709350Y-111003306D01*
X155623190Y-110888212D01*
X155623187Y-110888209D01*
X155508093Y-110802049D01*
X155508086Y-110802045D01*
X155373379Y-110751803D01*
X155373372Y-110751801D01*
X155313844Y-110745400D01*
X154966000Y-110745400D01*
X154466000Y-110745400D01*
X154118155Y-110745400D01*
X154058627Y-110751801D01*
X154058620Y-110751803D01*
X153923913Y-110802045D01*
X153923906Y-110802049D01*
X153808812Y-110888209D01*
X153804038Y-110892984D01*
X153742715Y-110926469D01*
X153673023Y-110921485D01*
X153628676Y-110892984D01*
X153623544Y-110887852D01*
X153508335Y-110801606D01*
X153508328Y-110801602D01*
X153373482Y-110751308D01*
X153373483Y-110751308D01*
X153313883Y-110744901D01*
X153313881Y-110744900D01*
X153313873Y-110744900D01*
X153313864Y-110744900D01*
X152118129Y-110744900D01*
X152118123Y-110744901D01*
X152058516Y-110751308D01*
X151923671Y-110801602D01*
X151923664Y-110801606D01*
X151808455Y-110887852D01*
X151803681Y-110892627D01*
X151742358Y-110926112D01*
X151672666Y-110921128D01*
X151628319Y-110892627D01*
X151623544Y-110887852D01*
X151508335Y-110801606D01*
X151508328Y-110801602D01*
X151373482Y-110751308D01*
X151373483Y-110751308D01*
X151313883Y-110744901D01*
X151313881Y-110744900D01*
X151313873Y-110744900D01*
X151313864Y-110744900D01*
X150118129Y-110744900D01*
X150118123Y-110744901D01*
X150058516Y-110751308D01*
X149923671Y-110801602D01*
X149923664Y-110801606D01*
X149808455Y-110887852D01*
X149803681Y-110892627D01*
X149742358Y-110926112D01*
X149672666Y-110921128D01*
X149628319Y-110892627D01*
X149623544Y-110887852D01*
X149508335Y-110801606D01*
X149508328Y-110801602D01*
X149373482Y-110751308D01*
X149373483Y-110751308D01*
X149313883Y-110744901D01*
X149313881Y-110744900D01*
X149313873Y-110744900D01*
X149313865Y-110744900D01*
X148475500Y-110744900D01*
X148408461Y-110725215D01*
X148362706Y-110672411D01*
X148351500Y-110620900D01*
X148351500Y-104158207D01*
X148371185Y-104091168D01*
X148387814Y-104070531D01*
X154276127Y-98182217D01*
X154337450Y-98148733D01*
X154363808Y-98145899D01*
X155313871Y-98145899D01*
X155313872Y-98145899D01*
X155373483Y-98139491D01*
X155508331Y-98089196D01*
X155623546Y-98002946D01*
X155709796Y-97887731D01*
X155760091Y-97752883D01*
X155766500Y-97693273D01*
X155766499Y-95397528D01*
X155760091Y-95337917D01*
X155709796Y-95203069D01*
X155709795Y-95203068D01*
X155709793Y-95203064D01*
X155623547Y-95087855D01*
X155623544Y-95087852D01*
X155508335Y-95001606D01*
X155508328Y-95001602D01*
X155373482Y-94951308D01*
X155373483Y-94951308D01*
X155313875Y-94944900D01*
X155312387Y-94944820D01*
X155312061Y-94944705D01*
X155310572Y-94944545D01*
X155310609Y-94944192D01*
X155246503Y-94921559D01*
X155203762Y-94866647D01*
X155202807Y-94864234D01*
X155186786Y-94823772D01*
X155184897Y-94818251D01*
X155171343Y-94771599D01*
X155160541Y-94753335D01*
X155151979Y-94735858D01*
X155150934Y-94733219D01*
X155144168Y-94716129D01*
X155115614Y-94676828D01*
X155112410Y-94671950D01*
X155087682Y-94630137D01*
X155087681Y-94630135D01*
X155072674Y-94615128D01*
X155060035Y-94600330D01*
X155047561Y-94583160D01*
X155010128Y-94552194D01*
X155005806Y-94548260D01*
X153968627Y-93511081D01*
X153935142Y-93449758D01*
X153940126Y-93380066D01*
X153981998Y-93324133D01*
X154047462Y-93299716D01*
X154056308Y-93299400D01*
X154636828Y-93299400D01*
X154636844Y-93299399D01*
X154696372Y-93292998D01*
X154696379Y-93292996D01*
X154831086Y-93242754D01*
X154831093Y-93242750D01*
X154946187Y-93156590D01*
X154946190Y-93156587D01*
X155032350Y-93041493D01*
X155032354Y-93041486D01*
X155082596Y-92906779D01*
X155082598Y-92906772D01*
X155088999Y-92847244D01*
X155089000Y-92847227D01*
X155089000Y-91874400D01*
X152739000Y-91874400D01*
X152739000Y-91982091D01*
X152719315Y-92049130D01*
X152666511Y-92094885D01*
X152597353Y-92104829D01*
X152533797Y-92075804D01*
X152527319Y-92069772D01*
X152158434Y-91700888D01*
X152148361Y-91688314D01*
X152148174Y-91688470D01*
X152143201Y-91682459D01*
X152090756Y-91633210D01*
X152069035Y-91611489D01*
X152063240Y-91606994D01*
X152058798Y-91603199D01*
X152023396Y-91569954D01*
X152023388Y-91569948D01*
X152004792Y-91559725D01*
X151988531Y-91549044D01*
X151971763Y-91536037D01*
X151948295Y-91525882D01*
X151927178Y-91516743D01*
X151921956Y-91514186D01*
X151879368Y-91490773D01*
X151879365Y-91490772D01*
X151858801Y-91485492D01*
X151840396Y-91479190D01*
X151820927Y-91470765D01*
X151820921Y-91470763D01*
X151772951Y-91463166D01*
X151767236Y-91461982D01*
X151750772Y-91457755D01*
X151720180Y-91449900D01*
X151720177Y-91449900D01*
X151698955Y-91449900D01*
X151679555Y-91448373D01*
X151658596Y-91445053D01*
X151658595Y-91445053D01*
X151634786Y-91447303D01*
X151610230Y-91449625D01*
X151604392Y-91449900D01*
X141883168Y-91449900D01*
X141816129Y-91430215D01*
X141770374Y-91377411D01*
X141769941Y-91374400D01*
X152739000Y-91374400D01*
X153664000Y-91374400D01*
X153664000Y-89949400D01*
X154164000Y-89949400D01*
X154164000Y-91374400D01*
X155089000Y-91374400D01*
X155089000Y-90401572D01*
X155088999Y-90401555D01*
X155082598Y-90342027D01*
X155082596Y-90342020D01*
X155032354Y-90207313D01*
X155032350Y-90207306D01*
X154946190Y-90092212D01*
X154946187Y-90092209D01*
X154831093Y-90006049D01*
X154831086Y-90006045D01*
X154696379Y-89955803D01*
X154696372Y-89955801D01*
X154636844Y-89949400D01*
X154164000Y-89949400D01*
X153664000Y-89949400D01*
X153191155Y-89949400D01*
X153131627Y-89955801D01*
X153131620Y-89955803D01*
X152996913Y-90006045D01*
X152996906Y-90006049D01*
X152881812Y-90092209D01*
X152881809Y-90092212D01*
X152795649Y-90207306D01*
X152795645Y-90207313D01*
X152745403Y-90342020D01*
X152745401Y-90342027D01*
X152739000Y-90401555D01*
X152739000Y-91374400D01*
X141769941Y-91374400D01*
X141760430Y-91308253D01*
X141788387Y-91247033D01*
X141788092Y-91246800D01*
X141789045Y-91245594D01*
X141789455Y-91244697D01*
X141791441Y-91242563D01*
X141792573Y-91241131D01*
X141881542Y-91096892D01*
X141881547Y-91096881D01*
X141934855Y-90936006D01*
X141944999Y-90836722D01*
X141945000Y-90836709D01*
X141945000Y-90813400D01*
X139995001Y-90813400D01*
X139995001Y-90836722D01*
X140005144Y-90936007D01*
X140058452Y-91096881D01*
X140058457Y-91096892D01*
X140147424Y-91241128D01*
X140151905Y-91246795D01*
X140150013Y-91248290D01*
X140177999Y-91299542D01*
X140173015Y-91369234D01*
X140131143Y-91425167D01*
X140065679Y-91449584D01*
X140056833Y-91449900D01*
X139801500Y-91449900D01*
X139734461Y-91430215D01*
X139688706Y-91377411D01*
X139677500Y-91325900D01*
X139677500Y-90313400D01*
X139995000Y-90313400D01*
X140720000Y-90313400D01*
X140720000Y-89613400D01*
X141220000Y-89613400D01*
X141220000Y-90313400D01*
X141944999Y-90313400D01*
X141944999Y-90290092D01*
X141944998Y-90290077D01*
X141934855Y-90190792D01*
X141881547Y-90029918D01*
X141881542Y-90029907D01*
X141792575Y-89885671D01*
X141792572Y-89885667D01*
X141672732Y-89765827D01*
X141672728Y-89765824D01*
X141528492Y-89676857D01*
X141528481Y-89676852D01*
X141367606Y-89623544D01*
X141268322Y-89613400D01*
X141220000Y-89613400D01*
X140720000Y-89613400D01*
X140719999Y-89613399D01*
X140671693Y-89613400D01*
X140671675Y-89613401D01*
X140572392Y-89623544D01*
X140411518Y-89676852D01*
X140411507Y-89676857D01*
X140267271Y-89765824D01*
X140267267Y-89765827D01*
X140147427Y-89885667D01*
X140147424Y-89885671D01*
X140058457Y-90029907D01*
X140058452Y-90029918D01*
X140005144Y-90190793D01*
X139995000Y-90290077D01*
X139995000Y-90313400D01*
X139677500Y-90313400D01*
X139677500Y-87963001D01*
X144610590Y-87963001D01*
X144631004Y-88248433D01*
X144691828Y-88528037D01*
X144791835Y-88796166D01*
X144928970Y-89047309D01*
X144928975Y-89047317D01*
X145100454Y-89276387D01*
X145100470Y-89276405D01*
X145302794Y-89478729D01*
X145302812Y-89478745D01*
X145531882Y-89650224D01*
X145531890Y-89650229D01*
X145783033Y-89787364D01*
X145783032Y-89787364D01*
X145783036Y-89787365D01*
X145783039Y-89787367D01*
X146051154Y-89887369D01*
X146051160Y-89887370D01*
X146051162Y-89887371D01*
X146330766Y-89948195D01*
X146330768Y-89948195D01*
X146330772Y-89948196D01*
X146584420Y-89966337D01*
X146616199Y-89968610D01*
X146616200Y-89968610D01*
X146616201Y-89968610D01*
X146644795Y-89966564D01*
X146901628Y-89948196D01*
X146988883Y-89929215D01*
X147181237Y-89887371D01*
X147181237Y-89887370D01*
X147181246Y-89887369D01*
X147449361Y-89787367D01*
X147700515Y-89650226D01*
X147929595Y-89478739D01*
X148131939Y-89276395D01*
X148303426Y-89047315D01*
X148440567Y-88796161D01*
X148478609Y-88694165D01*
X148520481Y-88638233D01*
X148585945Y-88613816D01*
X148594791Y-88613500D01*
X155550792Y-88613500D01*
X155617831Y-88633185D01*
X155638473Y-88649819D01*
X157802181Y-90813527D01*
X157835666Y-90874850D01*
X157838500Y-90901208D01*
X157838500Y-92847270D01*
X157838501Y-92847276D01*
X157844908Y-92906883D01*
X157895202Y-93041728D01*
X157895206Y-93041735D01*
X157981452Y-93156944D01*
X157981455Y-93156947D01*
X158096664Y-93243193D01*
X158096671Y-93243197D01*
X158231517Y-93293491D01*
X158231516Y-93293491D01*
X158238444Y-93294235D01*
X158291127Y-93299900D01*
X159736872Y-93299899D01*
X159796483Y-93293491D01*
X159931331Y-93243196D01*
X160046546Y-93156946D01*
X160132796Y-93041731D01*
X160183091Y-92906883D01*
X160189500Y-92847273D01*
X160189499Y-90401528D01*
X160183091Y-90341917D01*
X160132884Y-90207306D01*
X160132797Y-90207071D01*
X160132793Y-90207064D01*
X160046547Y-90091855D01*
X160046544Y-90091852D01*
X159931335Y-90005606D01*
X159931328Y-90005602D01*
X159796482Y-89955308D01*
X159796483Y-89955308D01*
X159736883Y-89948901D01*
X159736881Y-89948900D01*
X159736873Y-89948900D01*
X159736865Y-89948900D01*
X158828808Y-89948900D01*
X158761769Y-89929215D01*
X158741127Y-89912581D01*
X156392034Y-87563488D01*
X156381961Y-87550914D01*
X156381774Y-87551070D01*
X156376801Y-87545059D01*
X156324356Y-87495810D01*
X156302635Y-87474089D01*
X156296840Y-87469594D01*
X156292398Y-87465799D01*
X156256996Y-87432554D01*
X156256988Y-87432548D01*
X156238392Y-87422325D01*
X156222131Y-87411644D01*
X156205363Y-87398637D01*
X156181895Y-87388482D01*
X156160778Y-87379343D01*
X156155556Y-87376786D01*
X156112968Y-87353373D01*
X156112965Y-87353372D01*
X156092401Y-87348092D01*
X156073996Y-87341790D01*
X156054527Y-87333365D01*
X156054521Y-87333363D01*
X156006551Y-87325766D01*
X156000836Y-87324582D01*
X155984372Y-87320355D01*
X155953780Y-87312500D01*
X155953777Y-87312500D01*
X155932555Y-87312500D01*
X155913155Y-87310973D01*
X155892196Y-87307653D01*
X155892195Y-87307653D01*
X155868386Y-87309903D01*
X155843830Y-87312225D01*
X155837992Y-87312500D01*
X148594791Y-87312500D01*
X148527752Y-87292815D01*
X148481997Y-87240011D01*
X148478609Y-87231834D01*
X148440567Y-87129839D01*
X148352255Y-86968109D01*
X148303429Y-86878690D01*
X148303424Y-86878682D01*
X148131945Y-86649612D01*
X148131929Y-86649594D01*
X147929605Y-86447270D01*
X147929587Y-86447254D01*
X147700517Y-86275775D01*
X147700509Y-86275770D01*
X147449366Y-86138635D01*
X147449367Y-86138635D01*
X147241396Y-86061066D01*
X147181246Y-86038631D01*
X147181243Y-86038630D01*
X147181237Y-86038628D01*
X146901633Y-85977804D01*
X146616201Y-85957390D01*
X146616199Y-85957390D01*
X146330766Y-85977804D01*
X146051162Y-86038628D01*
X145783033Y-86138635D01*
X145531890Y-86275770D01*
X145531882Y-86275775D01*
X145302812Y-86447254D01*
X145302794Y-86447270D01*
X145100470Y-86649594D01*
X145100454Y-86649612D01*
X144928975Y-86878682D01*
X144928970Y-86878690D01*
X144791835Y-87129833D01*
X144691828Y-87397962D01*
X144631004Y-87677566D01*
X144610590Y-87962998D01*
X144610590Y-87963001D01*
X139677500Y-87963001D01*
X139677500Y-86330393D01*
X139677499Y-86330380D01*
X139666999Y-86227600D01*
X139611815Y-86061064D01*
X139611811Y-86061058D01*
X139611810Y-86061055D01*
X139519714Y-85911746D01*
X139519711Y-85911742D01*
X139395657Y-85787688D01*
X139395653Y-85787685D01*
X139246344Y-85695589D01*
X139246338Y-85695586D01*
X139246336Y-85695585D01*
X139222052Y-85687538D01*
X139079801Y-85640401D01*
X138977019Y-85629900D01*
X138977012Y-85629900D01*
X133576988Y-85629900D01*
X133576980Y-85629900D01*
X133474198Y-85640401D01*
X133307666Y-85695584D01*
X133307655Y-85695589D01*
X133158346Y-85787685D01*
X133158342Y-85787688D01*
X133034288Y-85911742D01*
X133034285Y-85911746D01*
X132942189Y-86061055D01*
X132942184Y-86061066D01*
X132887001Y-86227598D01*
X132876500Y-86330380D01*
X132876500Y-92330419D01*
X132887001Y-92433201D01*
X132942184Y-92599733D01*
X132942189Y-92599744D01*
X133034285Y-92749053D01*
X133034288Y-92749057D01*
X133158342Y-92873111D01*
X133158346Y-92873114D01*
X133307655Y-92965210D01*
X133307658Y-92965211D01*
X133307664Y-92965215D01*
X133474200Y-93020399D01*
X133576988Y-93030900D01*
X133576991Y-93030900D01*
X133576993Y-93030900D01*
X138977007Y-93030900D01*
X138977012Y-93030900D01*
X139079800Y-93020399D01*
X139246336Y-92965215D01*
X139395657Y-92873112D01*
X139481550Y-92787219D01*
X139542873Y-92753734D01*
X139569231Y-92750900D01*
X140055126Y-92750900D01*
X140122165Y-92770585D01*
X140142807Y-92787219D01*
X140266955Y-92911367D01*
X140266959Y-92911370D01*
X140411294Y-93000398D01*
X140411297Y-93000399D01*
X140411303Y-93000403D01*
X140572292Y-93053749D01*
X140671655Y-93063900D01*
X141268344Y-93063899D01*
X141268352Y-93063898D01*
X141268355Y-93063898D01*
X141322760Y-93058340D01*
X141367708Y-93053749D01*
X141528697Y-93000403D01*
X141673044Y-92911368D01*
X141792968Y-92791444D01*
X141792968Y-92791443D01*
X141797193Y-92787219D01*
X141858516Y-92753734D01*
X141884874Y-92750900D01*
X151317192Y-92750900D01*
X151384231Y-92770585D01*
X151404873Y-92787219D01*
X153350873Y-94733219D01*
X153384358Y-94794542D01*
X153379374Y-94864234D01*
X153337502Y-94920167D01*
X153272038Y-94944584D01*
X153263192Y-94944900D01*
X152118129Y-94944900D01*
X152118123Y-94944901D01*
X152058516Y-94951308D01*
X151923671Y-95001602D01*
X151923664Y-95001606D01*
X151808455Y-95087852D01*
X151803681Y-95092627D01*
X151742358Y-95126112D01*
X151672666Y-95121128D01*
X151628319Y-95092627D01*
X151623544Y-95087852D01*
X151508335Y-95001606D01*
X151508328Y-95001602D01*
X151373482Y-94951308D01*
X151373483Y-94951308D01*
X151313883Y-94944901D01*
X151313881Y-94944900D01*
X151313873Y-94944900D01*
X151313864Y-94944900D01*
X150118129Y-94944900D01*
X150118123Y-94944901D01*
X150058516Y-94951308D01*
X149923671Y-95001602D01*
X149923664Y-95001606D01*
X149808455Y-95087852D01*
X149803681Y-95092627D01*
X149742358Y-95126112D01*
X149672666Y-95121128D01*
X149628319Y-95092627D01*
X149623544Y-95087852D01*
X149508335Y-95001606D01*
X149508328Y-95001602D01*
X149373482Y-94951308D01*
X149373483Y-94951308D01*
X149313883Y-94944901D01*
X149313881Y-94944900D01*
X149313873Y-94944900D01*
X149313864Y-94944900D01*
X148118129Y-94944900D01*
X148118123Y-94944901D01*
X148058516Y-94951308D01*
X147923671Y-95001602D01*
X147923664Y-95001606D01*
X147808455Y-95087852D01*
X147803681Y-95092627D01*
X147742358Y-95126112D01*
X147672666Y-95121128D01*
X147628319Y-95092627D01*
X147623544Y-95087852D01*
X147508335Y-95001606D01*
X147508328Y-95001602D01*
X147373482Y-94951308D01*
X147373483Y-94951308D01*
X147313883Y-94944901D01*
X147313881Y-94944900D01*
X147313873Y-94944900D01*
X147313864Y-94944900D01*
X146118129Y-94944900D01*
X146118123Y-94944901D01*
X146058516Y-94951308D01*
X145923671Y-95001602D01*
X145923664Y-95001606D01*
X145808455Y-95087852D01*
X145803681Y-95092627D01*
X145742358Y-95126112D01*
X145672666Y-95121128D01*
X145628319Y-95092627D01*
X145623544Y-95087852D01*
X145508335Y-95001606D01*
X145508328Y-95001602D01*
X145373482Y-94951308D01*
X145373483Y-94951308D01*
X145313883Y-94944901D01*
X145313881Y-94944900D01*
X145313873Y-94944900D01*
X145313864Y-94944900D01*
X144118129Y-94944900D01*
X144118123Y-94944901D01*
X144058516Y-94951308D01*
X143923671Y-95001602D01*
X143923664Y-95001606D01*
X143808455Y-95087852D01*
X143803681Y-95092627D01*
X143742358Y-95126112D01*
X143672666Y-95121128D01*
X143628319Y-95092627D01*
X143623544Y-95087852D01*
X143508335Y-95001606D01*
X143508328Y-95001602D01*
X143373482Y-94951308D01*
X143373483Y-94951308D01*
X143313883Y-94944901D01*
X143313881Y-94944900D01*
X143313873Y-94944900D01*
X143313864Y-94944900D01*
X142118129Y-94944900D01*
X142118123Y-94944901D01*
X142058516Y-94951308D01*
X141923671Y-95001602D01*
X141923664Y-95001606D01*
X141808455Y-95087852D01*
X141803681Y-95092627D01*
X141742358Y-95126112D01*
X141672666Y-95121128D01*
X141628319Y-95092627D01*
X141623544Y-95087852D01*
X141508335Y-95001606D01*
X141508328Y-95001602D01*
X141373482Y-94951308D01*
X141373483Y-94951308D01*
X141313883Y-94944901D01*
X141313881Y-94944900D01*
X141313873Y-94944900D01*
X141313864Y-94944900D01*
X140118129Y-94944900D01*
X140118123Y-94944901D01*
X140058516Y-94951308D01*
X139923671Y-95001602D01*
X139923664Y-95001606D01*
X139808455Y-95087852D01*
X139808452Y-95087855D01*
X139722206Y-95203064D01*
X139722202Y-95203071D01*
X139671908Y-95337917D01*
X139665501Y-95397516D01*
X139665501Y-95397523D01*
X139665500Y-95397535D01*
X139665500Y-97693270D01*
X139665501Y-97693276D01*
X139671908Y-97752883D01*
X139722202Y-97887728D01*
X139722206Y-97887735D01*
X139808452Y-98002944D01*
X139808455Y-98002947D01*
X139923664Y-98089193D01*
X139923671Y-98089197D01*
X140058517Y-98139491D01*
X140058516Y-98139491D01*
X140065444Y-98140235D01*
X140118127Y-98145900D01*
X141313872Y-98145899D01*
X141373483Y-98139491D01*
X141508331Y-98089196D01*
X141623546Y-98002946D01*
X141623548Y-98002942D01*
X141628319Y-97998173D01*
X141689642Y-97964688D01*
X141759334Y-97969672D01*
X141803681Y-97998173D01*
X141808455Y-98002947D01*
X141923664Y-98089193D01*
X141923671Y-98089197D01*
X141968618Y-98105960D01*
X142058517Y-98139491D01*
X142118127Y-98145900D01*
X142468192Y-98145899D01*
X142535230Y-98165583D01*
X142580985Y-98218387D01*
X142590929Y-98287546D01*
X142561904Y-98351101D01*
X142555872Y-98357580D01*
X139416483Y-101496969D01*
X139403910Y-101507043D01*
X139404065Y-101507230D01*
X139398059Y-101512198D01*
X139373434Y-101538421D01*
X139348809Y-101564644D01*
X139337949Y-101575504D01*
X139327088Y-101586365D01*
X139327078Y-101586377D01*
X139322587Y-101592165D01*
X139318801Y-101596597D01*
X139285552Y-101632006D01*
X139275322Y-101650613D01*
X139264646Y-101666864D01*
X139251640Y-101683632D01*
X139251636Y-101683638D01*
X139232348Y-101728211D01*
X139229777Y-101733458D01*
X139206372Y-101776030D01*
X139206372Y-101776031D01*
X139201091Y-101796599D01*
X139194791Y-101815001D01*
X139186364Y-101834473D01*
X139178766Y-101882447D01*
X139177581Y-101888170D01*
X139165500Y-101935218D01*
X139165500Y-101956444D01*
X139163973Y-101975844D01*
X139160653Y-101996803D01*
X139165225Y-102045167D01*
X139165500Y-102051006D01*
X139165500Y-113742230D01*
X139145815Y-113809269D01*
X139115812Y-113841496D01*
X139000454Y-113927854D01*
X138929477Y-114022665D01*
X138873542Y-114064536D01*
X138803851Y-114069519D01*
X138742528Y-114036033D01*
X138709044Y-113974709D01*
X138706212Y-113948657D01*
X138658600Y-93522800D01*
X132077500Y-93522800D01*
X132010461Y-93503115D01*
X131964706Y-93450311D01*
X131953500Y-93398800D01*
X131953500Y-83280400D01*
X132897001Y-83280400D01*
X132897001Y-83930386D01*
X132907494Y-84033097D01*
X132962641Y-84199519D01*
X132962643Y-84199524D01*
X133054684Y-84348745D01*
X133178654Y-84472715D01*
X133327875Y-84564756D01*
X133327880Y-84564758D01*
X133494302Y-84619905D01*
X133494309Y-84619906D01*
X133597019Y-84630399D01*
X133746999Y-84630399D01*
X133747000Y-84630398D01*
X133747000Y-83280400D01*
X134247000Y-83280400D01*
X134247000Y-84630399D01*
X134396972Y-84630399D01*
X134396986Y-84630398D01*
X134499697Y-84619905D01*
X134666119Y-84564758D01*
X134666124Y-84564756D01*
X134815345Y-84472715D01*
X134939315Y-84348745D01*
X135031356Y-84199524D01*
X135031358Y-84199519D01*
X135086505Y-84033097D01*
X135086506Y-84033090D01*
X135096997Y-83930401D01*
X137456500Y-83930401D01*
X137456501Y-83930418D01*
X137467000Y-84033196D01*
X137467001Y-84033199D01*
X137522185Y-84199731D01*
X137522187Y-84199736D01*
X137534755Y-84220112D01*
X137614288Y-84349056D01*
X137738344Y-84473112D01*
X137887666Y-84565214D01*
X138054203Y-84620399D01*
X138156991Y-84630900D01*
X138957008Y-84630899D01*
X138957016Y-84630898D01*
X138957019Y-84630898D01*
X139013302Y-84625148D01*
X139059797Y-84620399D01*
X139226334Y-84565214D01*
X139375656Y-84473112D01*
X139499712Y-84349056D01*
X139591814Y-84199734D01*
X139646999Y-84033197D01*
X139657500Y-83930409D01*
X139657500Y-83439099D01*
X139677185Y-83372061D01*
X139729989Y-83326306D01*
X139781500Y-83315100D01*
X139941126Y-83315100D01*
X140008165Y-83334785D01*
X140028807Y-83351419D01*
X140139956Y-83462568D01*
X140284303Y-83551603D01*
X140284311Y-83551605D01*
X140286918Y-83552822D01*
X140288413Y-83554139D01*
X140290450Y-83555395D01*
X140290235Y-83555742D01*
X140339357Y-83598995D01*
X140358508Y-83666189D01*
X140338292Y-83733070D01*
X140333779Y-83739514D01*
X140229396Y-83878953D01*
X140229391Y-83878961D01*
X140092291Y-84130041D01*
X139992309Y-84398104D01*
X139931500Y-84677637D01*
X139911091Y-84962998D01*
X139911091Y-84963001D01*
X139931500Y-85248362D01*
X139992309Y-85527895D01*
X140092291Y-85795958D01*
X140229391Y-86047038D01*
X140229396Y-86047046D01*
X140336082Y-86189561D01*
X140336083Y-86189562D01*
X140982004Y-85543641D01*
X141043327Y-85510156D01*
X141113018Y-85515140D01*
X141159559Y-85545890D01*
X141294201Y-85687534D01*
X141294204Y-85687536D01*
X141294205Y-85687537D01*
X141305768Y-85695585D01*
X141320566Y-85705885D01*
X141364345Y-85760338D01*
X141371735Y-85829816D01*
X141340388Y-85892260D01*
X141337411Y-85895341D01*
X140689636Y-86543115D01*
X140832160Y-86649807D01*
X140832161Y-86649808D01*
X141083242Y-86786908D01*
X141083241Y-86786908D01*
X141351304Y-86886890D01*
X141630837Y-86947699D01*
X141916199Y-86968109D01*
X141916201Y-86968109D01*
X142201562Y-86947699D01*
X142481095Y-86886890D01*
X142749158Y-86786908D01*
X143000247Y-86649803D01*
X143142761Y-86543116D01*
X143142762Y-86543115D01*
X142494268Y-85894622D01*
X142460783Y-85833299D01*
X142465767Y-85763608D01*
X142501175Y-85712859D01*
X142608304Y-85620894D01*
X142661461Y-85552220D01*
X142718059Y-85511258D01*
X142787822Y-85507397D01*
X142847196Y-85540442D01*
X143496315Y-86189562D01*
X143496316Y-86189561D01*
X143603003Y-86047047D01*
X143740108Y-85795958D01*
X143840090Y-85527895D01*
X143900899Y-85248362D01*
X143921309Y-84963001D01*
X143921309Y-84962998D01*
X143900899Y-84677637D01*
X143840090Y-84398104D01*
X143740108Y-84130041D01*
X143603008Y-83878961D01*
X143603007Y-83878960D01*
X143496315Y-83736436D01*
X143496314Y-83736436D01*
X142850394Y-84382357D01*
X142789071Y-84415842D01*
X142719379Y-84410858D01*
X142672839Y-84380108D01*
X142538198Y-84238465D01*
X142538194Y-84238462D01*
X142511830Y-84220112D01*
X142468052Y-84165658D01*
X142460664Y-84096180D01*
X142492011Y-84033737D01*
X142494987Y-84030657D01*
X143142762Y-83382883D01*
X143142761Y-83382882D01*
X143000246Y-83276196D01*
X143000238Y-83276191D01*
X142749157Y-83139091D01*
X142749158Y-83139091D01*
X142481095Y-83039109D01*
X142201562Y-82978300D01*
X141933653Y-82959139D01*
X141868188Y-82934722D01*
X141826317Y-82878788D01*
X141818499Y-82835459D01*
X141818499Y-82391256D01*
X141808349Y-82291892D01*
X141755003Y-82130903D01*
X141754999Y-82130897D01*
X141754998Y-82130894D01*
X141665970Y-81986559D01*
X141665967Y-81986555D01*
X141656339Y-81976927D01*
X141622854Y-81915604D01*
X141627838Y-81845912D01*
X141656345Y-81801559D01*
X141665573Y-81792331D01*
X141754542Y-81648092D01*
X141754547Y-81648081D01*
X141807855Y-81487206D01*
X141817999Y-81387922D01*
X141818000Y-81387909D01*
X141818000Y-81364600D01*
X139868001Y-81364600D01*
X139868001Y-81387922D01*
X139878144Y-81487207D01*
X139931452Y-81648081D01*
X139931457Y-81648092D01*
X140020424Y-81792328D01*
X140020427Y-81792332D01*
X140029659Y-81801564D01*
X140063144Y-81862887D01*
X140058160Y-81932579D01*
X140029762Y-81976824D01*
X140028909Y-81977679D01*
X139967625Y-82011235D01*
X139941125Y-82014100D01*
X139732066Y-82014100D01*
X139665027Y-81994415D01*
X139619272Y-81941611D01*
X139614360Y-81929105D01*
X139609565Y-81914635D01*
X139591814Y-81861066D01*
X139499712Y-81711744D01*
X139375656Y-81587688D01*
X139266402Y-81520300D01*
X139219679Y-81468353D01*
X139207500Y-81414762D01*
X139207500Y-81245207D01*
X139227185Y-81178168D01*
X139243819Y-81157526D01*
X139449178Y-80952167D01*
X139656612Y-80744733D01*
X139717932Y-80711250D01*
X139787623Y-80716234D01*
X139843557Y-80758105D01*
X139867974Y-80823570D01*
X139868130Y-80838703D01*
X139868000Y-80841263D01*
X139868000Y-80864600D01*
X141817999Y-80864600D01*
X141817999Y-80841292D01*
X141817998Y-80841277D01*
X141807855Y-80741992D01*
X141759115Y-80594904D01*
X141756713Y-80525076D01*
X141792445Y-80465034D01*
X141854965Y-80433841D01*
X141876821Y-80431900D01*
X145019510Y-80431900D01*
X145086549Y-80451585D01*
X145132304Y-80504389D01*
X145142248Y-80573547D01*
X145113223Y-80637103D01*
X145107191Y-80643581D01*
X145100849Y-80649922D01*
X145100839Y-80649934D01*
X144929392Y-80878960D01*
X144929391Y-80878961D01*
X144792291Y-81130041D01*
X144692309Y-81398104D01*
X144631500Y-81677637D01*
X144611091Y-81962998D01*
X144611091Y-81963001D01*
X144631500Y-82248362D01*
X144692309Y-82527895D01*
X144792291Y-82795958D01*
X144929391Y-83047038D01*
X144929396Y-83047046D01*
X145036082Y-83189561D01*
X145036083Y-83189562D01*
X145682004Y-82543641D01*
X145743327Y-82510156D01*
X145813018Y-82515140D01*
X145859559Y-82545890D01*
X145994201Y-82687534D01*
X145994204Y-82687536D01*
X145994205Y-82687537D01*
X146013572Y-82701017D01*
X146020566Y-82705885D01*
X146064345Y-82760338D01*
X146071735Y-82829816D01*
X146040388Y-82892260D01*
X146037411Y-82895341D01*
X145389636Y-83543115D01*
X145532160Y-83649807D01*
X145532161Y-83649808D01*
X145783242Y-83786908D01*
X145783241Y-83786908D01*
X146051304Y-83886890D01*
X146330837Y-83947699D01*
X146616199Y-83968109D01*
X146616201Y-83968109D01*
X146901562Y-83947699D01*
X147181095Y-83886890D01*
X147449158Y-83786908D01*
X147700247Y-83649803D01*
X147842761Y-83543116D01*
X147842762Y-83543115D01*
X147194268Y-82894622D01*
X147160783Y-82833299D01*
X147165767Y-82763608D01*
X147201175Y-82712859D01*
X147308304Y-82620894D01*
X147361461Y-82552220D01*
X147418059Y-82511258D01*
X147487822Y-82507397D01*
X147547196Y-82540442D01*
X148196315Y-83189562D01*
X148196316Y-83189561D01*
X148303003Y-83047047D01*
X148440108Y-82795958D01*
X148540090Y-82527895D01*
X148600899Y-82248362D01*
X148621309Y-81963001D01*
X148621309Y-81962998D01*
X148600899Y-81677637D01*
X148540090Y-81398104D01*
X148440108Y-81130041D01*
X148303008Y-80878961D01*
X148303007Y-80878960D01*
X148131560Y-80649934D01*
X148131550Y-80649922D01*
X148125209Y-80643581D01*
X148091724Y-80582258D01*
X148096708Y-80512566D01*
X148138580Y-80456633D01*
X148204044Y-80432216D01*
X148212890Y-80431900D01*
X150936192Y-80431900D01*
X151003231Y-80451585D01*
X151023873Y-80468219D01*
X152702181Y-82146527D01*
X152735666Y-82207850D01*
X152738500Y-82234208D01*
X152738500Y-84147270D01*
X152738501Y-84147276D01*
X152744908Y-84206883D01*
X152795202Y-84341728D01*
X152795206Y-84341735D01*
X152881452Y-84456944D01*
X152881455Y-84456947D01*
X152996664Y-84543193D01*
X152996671Y-84543197D01*
X153131517Y-84593491D01*
X153131516Y-84593491D01*
X153138444Y-84594235D01*
X153191127Y-84599900D01*
X154636872Y-84599899D01*
X154696483Y-84593491D01*
X154831331Y-84543196D01*
X154946546Y-84456946D01*
X155032796Y-84341731D01*
X155083091Y-84206883D01*
X155089500Y-84147273D01*
X155089499Y-83174400D01*
X157839000Y-83174400D01*
X157839000Y-84147244D01*
X157845401Y-84206772D01*
X157845403Y-84206779D01*
X157895645Y-84341486D01*
X157895649Y-84341493D01*
X157981809Y-84456587D01*
X157981812Y-84456590D01*
X158096906Y-84542750D01*
X158096913Y-84542754D01*
X158231620Y-84592996D01*
X158231627Y-84592998D01*
X158291155Y-84599399D01*
X158291172Y-84599400D01*
X158764000Y-84599400D01*
X158764000Y-83174400D01*
X159264000Y-83174400D01*
X159264000Y-84599400D01*
X159736828Y-84599400D01*
X159736844Y-84599399D01*
X159796372Y-84592998D01*
X159796379Y-84592996D01*
X159931086Y-84542754D01*
X159931093Y-84542750D01*
X160046187Y-84456590D01*
X160046190Y-84456587D01*
X160132350Y-84341493D01*
X160132354Y-84341486D01*
X160182596Y-84206779D01*
X160182598Y-84206772D01*
X160188999Y-84147244D01*
X160189000Y-84147227D01*
X160189000Y-83174400D01*
X159264000Y-83174400D01*
X158764000Y-83174400D01*
X157839000Y-83174400D01*
X155089499Y-83174400D01*
X155089499Y-82674400D01*
X157839000Y-82674400D01*
X158764000Y-82674400D01*
X158764000Y-81249400D01*
X159264000Y-81249400D01*
X159264000Y-82674400D01*
X160189000Y-82674400D01*
X160189000Y-81701572D01*
X160188999Y-81701555D01*
X160182598Y-81642027D01*
X160182596Y-81642020D01*
X160132354Y-81507313D01*
X160132350Y-81507306D01*
X160046190Y-81392212D01*
X160046187Y-81392209D01*
X159931093Y-81306049D01*
X159931086Y-81306045D01*
X159796379Y-81255803D01*
X159796372Y-81255801D01*
X159736844Y-81249400D01*
X159264000Y-81249400D01*
X158764000Y-81249400D01*
X158291155Y-81249400D01*
X158231627Y-81255801D01*
X158231620Y-81255803D01*
X158096913Y-81306045D01*
X158096906Y-81306049D01*
X157981812Y-81392209D01*
X157981809Y-81392212D01*
X157895649Y-81507306D01*
X157895645Y-81507313D01*
X157845403Y-81642020D01*
X157845401Y-81642027D01*
X157839000Y-81701555D01*
X157839000Y-82674400D01*
X155089499Y-82674400D01*
X155089499Y-81701528D01*
X155083091Y-81641917D01*
X155062865Y-81587689D01*
X155032797Y-81507071D01*
X155032793Y-81507064D01*
X154946547Y-81391855D01*
X154946544Y-81391852D01*
X154831335Y-81305606D01*
X154831328Y-81305602D01*
X154696482Y-81255308D01*
X154696483Y-81255308D01*
X154636883Y-81248901D01*
X154636881Y-81248900D01*
X154636873Y-81248900D01*
X154636865Y-81248900D01*
X153695808Y-81248900D01*
X153628769Y-81229215D01*
X153608127Y-81212581D01*
X151777434Y-79381888D01*
X151767361Y-79369314D01*
X151767174Y-79369470D01*
X151762201Y-79363459D01*
X151709756Y-79314210D01*
X151688035Y-79292489D01*
X151682240Y-79287994D01*
X151677798Y-79284199D01*
X151642396Y-79250954D01*
X151642388Y-79250948D01*
X151623792Y-79240725D01*
X151607531Y-79230044D01*
X151590763Y-79217037D01*
X151567180Y-79206832D01*
X151546178Y-79197743D01*
X151540956Y-79195186D01*
X151504969Y-79175402D01*
X156919357Y-79175402D01*
X156919710Y-79179656D01*
X156926642Y-79263319D01*
X156927350Y-79271854D01*
X156927562Y-79276977D01*
X156927562Y-79289854D01*
X156926274Y-79294237D01*
X156926940Y-79302269D01*
X156929143Y-79308968D01*
X156931264Y-79321677D01*
X156931899Y-79326765D01*
X156939891Y-79423214D01*
X156939891Y-79423216D01*
X156963654Y-79517057D01*
X156964707Y-79522077D01*
X156966825Y-79534772D01*
X156966277Y-79539300D01*
X156968256Y-79547113D01*
X156971532Y-79553360D01*
X156975714Y-79565543D01*
X156977177Y-79570456D01*
X157000935Y-79664272D01*
X157000937Y-79664279D01*
X157027565Y-79724986D01*
X157039810Y-79752901D01*
X157041675Y-79757681D01*
X157045864Y-79769886D01*
X157046069Y-79774438D01*
X157049304Y-79781813D01*
X157053567Y-79787441D01*
X157059700Y-79798775D01*
X157061949Y-79803376D01*
X157099544Y-79889081D01*
X157100827Y-79892005D01*
X157123926Y-79927361D01*
X157153764Y-79973032D01*
X157156389Y-79977437D01*
X157162521Y-79988769D01*
X157163473Y-79993229D01*
X157167879Y-79999973D01*
X157173007Y-80004818D01*
X157176442Y-80009232D01*
X157180927Y-80014994D01*
X157183903Y-80019164D01*
X157234371Y-80096410D01*
X157236836Y-80100183D01*
X157236840Y-80100187D01*
X157302391Y-80171396D01*
X157305706Y-80175309D01*
X157313612Y-80185468D01*
X157315284Y-80189706D01*
X157320752Y-80195647D01*
X157326599Y-80199576D01*
X157336079Y-80208302D01*
X157339703Y-80211927D01*
X157405257Y-80283137D01*
X157481624Y-80342576D01*
X157485539Y-80345891D01*
X157495026Y-80354625D01*
X157497373Y-80358531D01*
X157503730Y-80363479D01*
X157510150Y-80366396D01*
X157520935Y-80373441D01*
X157525091Y-80376407D01*
X157594883Y-80430729D01*
X157598881Y-80433841D01*
X157601491Y-80435872D01*
X157686634Y-80481949D01*
X157691010Y-80484557D01*
X157701811Y-80491614D01*
X157704772Y-80495084D01*
X157711844Y-80498912D01*
X157718664Y-80500734D01*
X157730483Y-80505919D01*
X157735057Y-80508154D01*
X157820190Y-80554226D01*
X157911767Y-80585664D01*
X157916480Y-80587503D01*
X157928300Y-80592688D01*
X157931791Y-80595622D01*
X157939421Y-80598241D01*
X157946432Y-80598915D01*
X157954378Y-80600926D01*
X157958935Y-80602080D01*
X157963823Y-80603535D01*
X158029307Y-80626016D01*
X158055385Y-80634969D01*
X158150857Y-80650900D01*
X158155861Y-80651948D01*
X158168359Y-80655113D01*
X158172285Y-80657432D01*
X158180240Y-80658760D01*
X158187274Y-80658269D01*
X158200122Y-80659334D01*
X158205187Y-80659965D01*
X158300665Y-80675898D01*
X158300666Y-80675898D01*
X158397436Y-80675898D01*
X158402556Y-80676110D01*
X158414551Y-80677103D01*
X158415419Y-80677175D01*
X158419680Y-80678819D01*
X158427715Y-80678819D01*
X158434579Y-80677176D01*
X158447453Y-80676110D01*
X158452574Y-80675898D01*
X158549330Y-80675898D01*
X158549335Y-80675898D01*
X158644854Y-80659958D01*
X158649850Y-80659336D01*
X158662730Y-80658269D01*
X158667193Y-80659187D01*
X158675141Y-80657861D01*
X158681623Y-80655117D01*
X158694158Y-80651943D01*
X158699105Y-80650906D01*
X158794614Y-80634969D01*
X158886198Y-80603527D01*
X158891055Y-80602082D01*
X158903568Y-80598914D01*
X158908120Y-80599085D01*
X158915741Y-80596469D01*
X158921691Y-80592691D01*
X158933501Y-80587511D01*
X158938251Y-80585658D01*
X159029810Y-80554226D01*
X159114970Y-80508139D01*
X159119522Y-80505915D01*
X159131340Y-80500732D01*
X159135865Y-80500150D01*
X159142935Y-80496324D01*
X159148190Y-80491613D01*
X159158999Y-80484551D01*
X159163361Y-80481951D01*
X159248509Y-80435872D01*
X159324935Y-80376386D01*
X159329021Y-80373469D01*
X159339848Y-80366395D01*
X159344216Y-80365077D01*
X159350568Y-80360133D01*
X159354972Y-80354626D01*
X159364462Y-80345890D01*
X159368349Y-80342596D01*
X159444744Y-80283136D01*
X159510313Y-80211908D01*
X159513909Y-80208312D01*
X159523405Y-80199570D01*
X159527489Y-80197555D01*
X159532949Y-80191624D01*
X159536385Y-80185470D01*
X159544315Y-80175281D01*
X159547585Y-80171420D01*
X159613164Y-80100183D01*
X159666124Y-80019121D01*
X159669055Y-80015016D01*
X159677004Y-80004803D01*
X159680699Y-80002144D01*
X159685104Y-79995402D01*
X159687481Y-79988763D01*
X159693621Y-79977418D01*
X159696224Y-79973048D01*
X159749173Y-79892005D01*
X159788060Y-79803350D01*
X159790288Y-79798793D01*
X159796419Y-79787462D01*
X159799640Y-79784216D01*
X159802882Y-79776825D01*
X159804135Y-79769881D01*
X159808329Y-79757664D01*
X159810170Y-79752944D01*
X159849063Y-79664279D01*
X159872832Y-79570417D01*
X159874280Y-79565554D01*
X159878467Y-79553358D01*
X159881103Y-79549636D01*
X159883081Y-79541826D01*
X159883174Y-79534771D01*
X159885299Y-79522036D01*
X159886348Y-79517044D01*
X159910108Y-79423219D01*
X159918103Y-79326731D01*
X159918734Y-79321676D01*
X159923508Y-79293067D01*
X159922688Y-79287326D01*
X159923088Y-79267983D01*
X159923283Y-79264212D01*
X159930290Y-79179655D01*
X159930643Y-79175400D01*
X159930643Y-79175395D01*
X159928685Y-79151765D01*
X159923283Y-79086587D01*
X159923088Y-79082808D01*
X159922688Y-79063470D01*
X159923789Y-79059414D01*
X159921539Y-79045930D01*
X159918731Y-79029102D01*
X159918102Y-79024058D01*
X159910108Y-78927577D01*
X159886341Y-78833725D01*
X159885296Y-78828739D01*
X159883175Y-78816025D01*
X159883721Y-78811500D01*
X159881743Y-78803685D01*
X159878466Y-78797433D01*
X159874283Y-78785249D01*
X159872830Y-78780374D01*
X159849063Y-78686517D01*
X159810180Y-78597873D01*
X159808326Y-78593123D01*
X159804133Y-78580907D01*
X159803927Y-78576351D01*
X159800699Y-78568990D01*
X159796435Y-78563360D01*
X159790298Y-78552019D01*
X159788048Y-78547418D01*
X159757522Y-78477825D01*
X159749173Y-78458790D01*
X159696231Y-78377756D01*
X159693618Y-78373371D01*
X159687477Y-78362024D01*
X159686524Y-78357565D01*
X159682122Y-78350826D01*
X159676994Y-78345979D01*
X159669081Y-78335813D01*
X159666102Y-78331641D01*
X159613165Y-78250615D01*
X159613164Y-78250613D01*
X159607884Y-78244877D01*
X159547606Y-78179397D01*
X159544291Y-78175483D01*
X159536384Y-78165324D01*
X159534711Y-78161083D01*
X159529253Y-78155155D01*
X159523398Y-78151218D01*
X159513918Y-78142490D01*
X159510294Y-78138866D01*
X159496863Y-78124277D01*
X159444744Y-78067660D01*
X159423870Y-78051413D01*
X159368378Y-78008221D01*
X159364462Y-78004905D01*
X159354970Y-77996165D01*
X159352624Y-77992261D01*
X159346279Y-77987322D01*
X159339845Y-77984398D01*
X159329053Y-77977347D01*
X159324893Y-77974376D01*
X159317501Y-77968623D01*
X159248509Y-77914924D01*
X159248504Y-77914921D01*
X159248503Y-77914920D01*
X159199906Y-77888621D01*
X159163380Y-77868854D01*
X159158985Y-77866235D01*
X159148190Y-77859182D01*
X159145227Y-77855711D01*
X159138156Y-77851884D01*
X159131332Y-77850059D01*
X159119528Y-77844881D01*
X159114925Y-77842631D01*
X159029816Y-77796573D01*
X159029813Y-77796572D01*
X159029810Y-77796570D01*
X159029804Y-77796568D01*
X159029802Y-77796567D01*
X158938258Y-77765140D01*
X158933480Y-77763275D01*
X158921690Y-77758103D01*
X158918199Y-77755169D01*
X158910584Y-77752554D01*
X158903562Y-77751879D01*
X158899750Y-77750914D01*
X158891080Y-77748718D01*
X158886168Y-77747256D01*
X158794614Y-77715827D01*
X158699141Y-77699894D01*
X158694128Y-77698843D01*
X158681648Y-77695684D01*
X158677715Y-77693360D01*
X158669768Y-77692034D01*
X158662719Y-77692525D01*
X158649888Y-77691461D01*
X158644804Y-77690828D01*
X158549336Y-77674898D01*
X158549335Y-77674898D01*
X158452541Y-77674898D01*
X158447428Y-77674686D01*
X158436122Y-77673749D01*
X158434583Y-77673622D01*
X158430328Y-77671980D01*
X158422279Y-77671980D01*
X158415414Y-77673622D01*
X158405435Y-77674449D01*
X158405291Y-77674461D01*
X158402606Y-77674683D01*
X158397495Y-77674898D01*
X158300665Y-77674898D01*
X158205194Y-77690828D01*
X158200109Y-77691462D01*
X158187277Y-77692525D01*
X158182806Y-77691605D01*
X158174862Y-77692930D01*
X158168355Y-77695683D01*
X158155872Y-77698843D01*
X158150857Y-77699895D01*
X158055383Y-77715827D01*
X157963838Y-77747253D01*
X157958938Y-77748712D01*
X157949866Y-77751012D01*
X157946427Y-77751882D01*
X157941874Y-77751710D01*
X157934261Y-77754323D01*
X157928304Y-77758105D01*
X157916515Y-77763277D01*
X157911740Y-77765140D01*
X157820194Y-77796568D01*
X157820183Y-77796573D01*
X157735084Y-77842626D01*
X157730479Y-77844877D01*
X157718662Y-77850061D01*
X157714135Y-77850642D01*
X157707061Y-77854470D01*
X157701804Y-77859184D01*
X157691009Y-77866237D01*
X157686607Y-77868859D01*
X157601493Y-77914922D01*
X157601489Y-77914924D01*
X157525109Y-77974374D01*
X157520944Y-77977347D01*
X157513964Y-77981909D01*
X157510137Y-77984408D01*
X157505772Y-77985724D01*
X157499428Y-77990662D01*
X157495025Y-77996169D01*
X157485532Y-78004908D01*
X157481620Y-78008222D01*
X157405255Y-78067660D01*
X157339696Y-78138875D01*
X157336071Y-78142500D01*
X157326596Y-78151222D01*
X157322509Y-78153238D01*
X157317043Y-78159176D01*
X157313604Y-78165338D01*
X157305699Y-78175493D01*
X157302390Y-78179399D01*
X157236836Y-78250613D01*
X157183900Y-78331635D01*
X157180922Y-78335806D01*
X157173004Y-78345979D01*
X157169304Y-78348641D01*
X157164900Y-78355382D01*
X157162520Y-78362029D01*
X157156387Y-78373360D01*
X157153764Y-78377762D01*
X157100828Y-78458788D01*
X157061951Y-78547416D01*
X157059702Y-78552017D01*
X157053566Y-78563357D01*
X157050349Y-78566598D01*
X157047116Y-78573969D01*
X157045863Y-78580915D01*
X157041674Y-78593115D01*
X157039811Y-78597891D01*
X157015324Y-78653718D01*
X157000938Y-78686516D01*
X157000936Y-78686520D01*
X156977177Y-78780338D01*
X156975715Y-78785249D01*
X156971533Y-78797431D01*
X156968896Y-78801153D01*
X156966917Y-78808968D01*
X156966825Y-78816020D01*
X156964707Y-78828717D01*
X156963654Y-78833737D01*
X156939891Y-78927576D01*
X156939891Y-78927581D01*
X156931899Y-79024029D01*
X156931264Y-79029117D01*
X156929143Y-79041826D01*
X156927156Y-79045928D01*
X156926490Y-79053961D01*
X156927562Y-79060940D01*
X156927562Y-79073817D01*
X156927350Y-79078940D01*
X156919357Y-79175392D01*
X156919357Y-79175402D01*
X151504969Y-79175402D01*
X151498368Y-79171773D01*
X151498365Y-79171772D01*
X151477801Y-79166492D01*
X151459396Y-79160190D01*
X151439927Y-79151765D01*
X151439921Y-79151763D01*
X151391951Y-79144166D01*
X151386236Y-79142982D01*
X151369772Y-79138755D01*
X151339180Y-79130900D01*
X151339177Y-79130900D01*
X151317955Y-79130900D01*
X151298555Y-79129373D01*
X151277596Y-79126053D01*
X151277595Y-79126053D01*
X151253786Y-79128303D01*
X151229230Y-79130625D01*
X151223392Y-79130900D01*
X139785504Y-79130900D01*
X139769493Y-79129132D01*
X139769471Y-79129374D01*
X139761704Y-79128640D01*
X139761703Y-79128640D01*
X139689796Y-79130900D01*
X139659075Y-79130900D01*
X139659071Y-79130900D01*
X139659061Y-79130901D01*
X139651793Y-79131819D01*
X139645976Y-79132276D01*
X139597436Y-79133802D01*
X139597425Y-79133804D01*
X139577049Y-79139723D01*
X139558008Y-79143666D01*
X139536953Y-79146326D01*
X139536937Y-79146330D01*
X139491776Y-79164210D01*
X139486250Y-79166102D01*
X139439602Y-79179655D01*
X139421332Y-79190460D01*
X139403863Y-79199018D01*
X139384128Y-79206832D01*
X139384126Y-79206833D01*
X139344839Y-79235377D01*
X139339956Y-79238584D01*
X139298132Y-79263319D01*
X139283126Y-79278326D01*
X139268336Y-79290958D01*
X139251167Y-79303432D01*
X139251165Y-79303434D01*
X139220194Y-79340870D01*
X139216262Y-79345191D01*
X138157483Y-80403969D01*
X138144910Y-80414043D01*
X138145065Y-80414230D01*
X138139059Y-80419198D01*
X138123400Y-80435874D01*
X138089809Y-80471644D01*
X138078949Y-80482504D01*
X138068088Y-80493365D01*
X138068078Y-80493377D01*
X138063587Y-80499165D01*
X138059801Y-80503597D01*
X138026552Y-80539006D01*
X138016322Y-80557613D01*
X138005646Y-80573864D01*
X137992640Y-80590632D01*
X137992636Y-80590638D01*
X137973348Y-80635211D01*
X137970777Y-80640458D01*
X137947372Y-80683030D01*
X137947372Y-80683031D01*
X137942091Y-80703599D01*
X137935791Y-80722001D01*
X137927364Y-80741473D01*
X137919766Y-80789447D01*
X137918581Y-80795170D01*
X137906500Y-80842218D01*
X137906500Y-80863444D01*
X137904973Y-80882844D01*
X137901653Y-80903803D01*
X137906225Y-80952167D01*
X137906500Y-80958006D01*
X137906500Y-81414762D01*
X137886815Y-81481801D01*
X137847598Y-81520299D01*
X137811658Y-81542468D01*
X137738342Y-81587689D01*
X137614289Y-81711742D01*
X137522187Y-81861063D01*
X137522185Y-81861068D01*
X137504435Y-81914635D01*
X137467001Y-82027603D01*
X137467001Y-82027604D01*
X137467000Y-82027604D01*
X137456500Y-82130383D01*
X137456500Y-83930401D01*
X135096997Y-83930401D01*
X135096999Y-83930386D01*
X135097000Y-83930373D01*
X135097000Y-83280400D01*
X134247000Y-83280400D01*
X133747000Y-83280400D01*
X132897001Y-83280400D01*
X131953500Y-83280400D01*
X131953500Y-82780400D01*
X132897000Y-82780400D01*
X133747000Y-82780400D01*
X133747000Y-81430400D01*
X134247000Y-81430400D01*
X134247000Y-82780400D01*
X135096999Y-82780400D01*
X135096999Y-82130428D01*
X135096998Y-82130413D01*
X135086505Y-82027702D01*
X135031358Y-81861280D01*
X135031356Y-81861275D01*
X134939315Y-81712054D01*
X134815345Y-81588084D01*
X134666124Y-81496043D01*
X134666119Y-81496041D01*
X134499697Y-81440894D01*
X134499690Y-81440893D01*
X134396986Y-81430400D01*
X134247000Y-81430400D01*
X133747000Y-81430400D01*
X133597027Y-81430400D01*
X133597012Y-81430401D01*
X133494302Y-81440894D01*
X133327880Y-81496041D01*
X133327875Y-81496043D01*
X133178654Y-81588084D01*
X133054684Y-81712054D01*
X132962643Y-81861275D01*
X132962641Y-81861280D01*
X132907494Y-82027702D01*
X132907493Y-82027709D01*
X132897000Y-82130413D01*
X132897000Y-82780400D01*
X131953500Y-82780400D01*
X131953500Y-79176926D01*
X131953538Y-79175400D01*
X133947355Y-79175400D01*
X133947708Y-79179655D01*
X133955347Y-79271870D01*
X133955559Y-79276991D01*
X133955559Y-79289856D01*
X133954272Y-79294236D01*
X133954938Y-79302271D01*
X133957141Y-79308970D01*
X133959262Y-79321679D01*
X133959897Y-79326767D01*
X133967889Y-79423216D01*
X133967889Y-79423218D01*
X133991652Y-79517059D01*
X133992704Y-79522075D01*
X133992704Y-79522077D01*
X133992705Y-79522079D01*
X133994823Y-79534774D01*
X133994275Y-79539302D01*
X133996254Y-79547115D01*
X133999530Y-79553362D01*
X134003712Y-79565545D01*
X134005175Y-79570458D01*
X134028933Y-79664274D01*
X134028935Y-79664281D01*
X134055563Y-79724988D01*
X134067808Y-79752903D01*
X134069673Y-79757683D01*
X134073862Y-79769888D01*
X134074067Y-79774440D01*
X134077302Y-79781815D01*
X134081565Y-79787443D01*
X134087698Y-79798777D01*
X134089947Y-79803378D01*
X134128824Y-79892005D01*
X134181762Y-79973034D01*
X134184387Y-79977439D01*
X134190519Y-79988771D01*
X134191471Y-79993231D01*
X134195877Y-79999975D01*
X134201007Y-80004822D01*
X134208925Y-80014996D01*
X134211901Y-80019166D01*
X134262369Y-80096412D01*
X134264834Y-80100185D01*
X134289304Y-80126766D01*
X134330389Y-80171398D01*
X134333704Y-80175311D01*
X134341610Y-80185470D01*
X134343282Y-80189708D01*
X134348750Y-80195649D01*
X134354597Y-80199578D01*
X134364077Y-80208304D01*
X134367701Y-80211929D01*
X134433255Y-80283139D01*
X134509622Y-80342578D01*
X134513537Y-80345893D01*
X134523024Y-80354627D01*
X134525371Y-80358533D01*
X134531728Y-80363481D01*
X134538148Y-80366398D01*
X134548933Y-80373443D01*
X134553089Y-80376409D01*
X134601441Y-80414043D01*
X134629482Y-80435869D01*
X134629489Y-80435874D01*
X134714632Y-80481951D01*
X134719008Y-80484559D01*
X134729809Y-80491616D01*
X134732770Y-80495086D01*
X134739842Y-80498914D01*
X134746662Y-80500736D01*
X134758481Y-80505921D01*
X134763055Y-80508156D01*
X134848188Y-80554228D01*
X134939765Y-80585666D01*
X134944478Y-80587505D01*
X134956298Y-80592690D01*
X134959789Y-80595624D01*
X134967419Y-80598243D01*
X134974430Y-80598917D01*
X134982376Y-80600928D01*
X134986933Y-80602082D01*
X134991821Y-80603537D01*
X135057305Y-80626018D01*
X135083383Y-80634971D01*
X135178855Y-80650902D01*
X135183859Y-80651950D01*
X135196357Y-80655115D01*
X135200283Y-80657434D01*
X135208238Y-80658762D01*
X135215272Y-80658271D01*
X135228120Y-80659336D01*
X135233185Y-80659967D01*
X135328663Y-80675900D01*
X135328664Y-80675900D01*
X135425434Y-80675900D01*
X135430554Y-80676112D01*
X135442549Y-80677105D01*
X135443417Y-80677177D01*
X135447678Y-80678821D01*
X135455713Y-80678821D01*
X135462577Y-80677178D01*
X135475451Y-80676112D01*
X135480572Y-80675900D01*
X135577328Y-80675900D01*
X135577333Y-80675900D01*
X135672852Y-80659960D01*
X135677848Y-80659338D01*
X135690728Y-80658271D01*
X135695191Y-80659189D01*
X135703139Y-80657863D01*
X135709621Y-80655119D01*
X135722156Y-80651945D01*
X135727103Y-80650908D01*
X135822612Y-80634971D01*
X135914196Y-80603529D01*
X135919053Y-80602084D01*
X135931566Y-80598916D01*
X135936118Y-80599087D01*
X135943739Y-80596471D01*
X135949689Y-80592693D01*
X135961499Y-80587513D01*
X135966249Y-80585660D01*
X136057808Y-80554228D01*
X136142968Y-80508141D01*
X136147520Y-80505917D01*
X136159338Y-80500734D01*
X136163863Y-80500152D01*
X136170933Y-80496326D01*
X136176188Y-80491615D01*
X136186997Y-80484553D01*
X136191359Y-80481953D01*
X136276507Y-80435874D01*
X136352935Y-80376386D01*
X136357023Y-80373468D01*
X136367854Y-80366393D01*
X136372219Y-80365076D01*
X136378566Y-80360135D01*
X136382970Y-80354628D01*
X136392460Y-80345892D01*
X136396347Y-80342598D01*
X136472742Y-80283138D01*
X136538311Y-80211910D01*
X136541907Y-80208314D01*
X136551403Y-80199572D01*
X136555487Y-80197557D01*
X136560947Y-80191626D01*
X136564382Y-80185473D01*
X136572313Y-80175283D01*
X136575583Y-80171422D01*
X136641162Y-80100185D01*
X136694122Y-80019123D01*
X136697053Y-80015018D01*
X136705002Y-80004805D01*
X136708697Y-80002146D01*
X136713102Y-79995404D01*
X136715479Y-79988765D01*
X136721620Y-79977419D01*
X136724222Y-79973050D01*
X136777171Y-79892007D01*
X136816066Y-79803333D01*
X136818297Y-79798775D01*
X136824419Y-79787462D01*
X136827639Y-79784216D01*
X136830882Y-79776822D01*
X136832136Y-79769873D01*
X136836332Y-79757652D01*
X136838166Y-79752950D01*
X136877061Y-79664281D01*
X136877063Y-79664276D01*
X136880629Y-79650187D01*
X136900830Y-79570419D01*
X136902278Y-79565556D01*
X136906465Y-79553360D01*
X136909101Y-79549638D01*
X136911079Y-79541828D01*
X136911173Y-79534772D01*
X136913297Y-79522038D01*
X136914343Y-79517057D01*
X136938106Y-79423221D01*
X136946101Y-79326733D01*
X136946732Y-79321678D01*
X136951506Y-79293069D01*
X136950686Y-79287328D01*
X136951086Y-79267985D01*
X136951281Y-79264214D01*
X136958288Y-79179656D01*
X136958641Y-79175402D01*
X136958641Y-79175397D01*
X136957381Y-79160190D01*
X136951281Y-79086589D01*
X136951086Y-79082810D01*
X136950686Y-79063472D01*
X136951787Y-79059416D01*
X136950436Y-79051319D01*
X136946729Y-79029104D01*
X136946100Y-79024060D01*
X136938106Y-78927579D01*
X136914339Y-78833727D01*
X136913293Y-78828734D01*
X136913290Y-78828719D01*
X136911173Y-78816026D01*
X136911719Y-78811502D01*
X136909741Y-78803687D01*
X136906464Y-78797437D01*
X136902281Y-78785251D01*
X136900828Y-78780376D01*
X136877061Y-78686519D01*
X136838178Y-78597875D01*
X136836324Y-78593125D01*
X136832131Y-78580909D01*
X136831925Y-78576353D01*
X136828697Y-78568992D01*
X136824433Y-78563362D01*
X136818296Y-78552021D01*
X136816050Y-78547429D01*
X136785519Y-78477825D01*
X136777171Y-78458792D01*
X136724229Y-78377758D01*
X136721616Y-78373373D01*
X136715475Y-78362026D01*
X136714522Y-78357567D01*
X136710120Y-78350828D01*
X136704992Y-78345981D01*
X136697079Y-78335815D01*
X136694100Y-78331643D01*
X136643627Y-78254388D01*
X136641162Y-78250615D01*
X136635882Y-78244879D01*
X136575604Y-78179399D01*
X136572289Y-78175485D01*
X136564382Y-78165326D01*
X136562709Y-78161085D01*
X136557251Y-78155157D01*
X136551396Y-78151220D01*
X136541916Y-78142492D01*
X136538292Y-78138868D01*
X136524861Y-78124279D01*
X136472742Y-78067662D01*
X136451868Y-78051415D01*
X136396376Y-78008223D01*
X136392460Y-78004907D01*
X136382968Y-77996167D01*
X136380622Y-77992263D01*
X136374277Y-77987324D01*
X136367843Y-77984400D01*
X136367840Y-77984398D01*
X136357053Y-77977350D01*
X136352891Y-77974378D01*
X136338929Y-77963511D01*
X136276507Y-77914926D01*
X136276502Y-77914923D01*
X136276501Y-77914922D01*
X136227904Y-77888623D01*
X136191378Y-77868856D01*
X136186983Y-77866237D01*
X136176188Y-77859184D01*
X136173225Y-77855713D01*
X136166154Y-77851886D01*
X136159330Y-77850061D01*
X136147526Y-77844883D01*
X136142923Y-77842633D01*
X136057814Y-77796575D01*
X136057811Y-77796574D01*
X136057808Y-77796572D01*
X136057802Y-77796570D01*
X136057800Y-77796569D01*
X135966256Y-77765142D01*
X135961478Y-77763277D01*
X135949688Y-77758105D01*
X135946197Y-77755171D01*
X135938582Y-77752556D01*
X135931560Y-77751881D01*
X135927748Y-77750916D01*
X135919078Y-77748720D01*
X135914166Y-77747258D01*
X135822612Y-77715829D01*
X135727139Y-77699896D01*
X135722126Y-77698845D01*
X135709646Y-77695686D01*
X135705713Y-77693362D01*
X135697766Y-77692036D01*
X135690717Y-77692527D01*
X135677886Y-77691463D01*
X135672802Y-77690830D01*
X135577334Y-77674900D01*
X135577333Y-77674900D01*
X135480525Y-77674900D01*
X135475419Y-77674687D01*
X135463962Y-77673738D01*
X135462581Y-77673624D01*
X135458326Y-77671982D01*
X135450277Y-77671982D01*
X135443412Y-77673624D01*
X135433433Y-77674451D01*
X135433289Y-77674463D01*
X135430604Y-77674685D01*
X135425493Y-77674900D01*
X135328663Y-77674900D01*
X135233192Y-77690830D01*
X135228107Y-77691464D01*
X135215275Y-77692527D01*
X135210804Y-77691607D01*
X135202860Y-77692932D01*
X135196353Y-77695685D01*
X135183870Y-77698845D01*
X135178855Y-77699897D01*
X135083381Y-77715829D01*
X134991833Y-77747256D01*
X134986927Y-77748717D01*
X134974448Y-77751878D01*
X134969888Y-77751707D01*
X134962259Y-77754325D01*
X134956302Y-77758107D01*
X134944513Y-77763279D01*
X134939738Y-77765142D01*
X134848192Y-77796570D01*
X134848181Y-77796575D01*
X134763082Y-77842628D01*
X134758477Y-77844879D01*
X134746660Y-77850063D01*
X134742133Y-77850644D01*
X134735059Y-77854472D01*
X134729802Y-77859186D01*
X134719007Y-77866239D01*
X134714605Y-77868861D01*
X134629491Y-77914924D01*
X134629487Y-77914926D01*
X134553106Y-77974376D01*
X134548942Y-77977350D01*
X134541965Y-77981909D01*
X134538136Y-77984410D01*
X134533769Y-77985727D01*
X134527426Y-77990664D01*
X134523023Y-77996171D01*
X134513530Y-78004910D01*
X134509618Y-78008224D01*
X134433253Y-78067662D01*
X134367694Y-78138877D01*
X134364069Y-78142502D01*
X134354594Y-78151224D01*
X134350507Y-78153240D01*
X134345041Y-78159178D01*
X134341602Y-78165340D01*
X134333697Y-78175495D01*
X134330388Y-78179401D01*
X134264834Y-78250614D01*
X134211901Y-78331634D01*
X134208928Y-78335798D01*
X134201093Y-78345867D01*
X134200850Y-78346178D01*
X134197208Y-78348787D01*
X134192898Y-78355384D01*
X134190518Y-78362031D01*
X134184385Y-78373362D01*
X134181762Y-78377764D01*
X134128826Y-78458790D01*
X134089949Y-78547418D01*
X134087700Y-78552019D01*
X134081564Y-78563359D01*
X134078347Y-78566600D01*
X134075114Y-78573971D01*
X134073861Y-78580917D01*
X134069672Y-78593117D01*
X134067809Y-78597893D01*
X134043323Y-78653718D01*
X134028937Y-78686516D01*
X134028934Y-78686522D01*
X134005175Y-78780340D01*
X134003713Y-78785251D01*
X133999531Y-78797433D01*
X133996894Y-78801155D01*
X133994915Y-78808970D01*
X133994823Y-78816022D01*
X133992705Y-78828719D01*
X133991652Y-78833739D01*
X133967889Y-78927578D01*
X133967889Y-78927583D01*
X133959897Y-79024031D01*
X133959262Y-79029119D01*
X133957141Y-79041828D01*
X133955154Y-79045930D01*
X133954488Y-79053966D01*
X133955559Y-79060942D01*
X133955559Y-79073807D01*
X133955347Y-79078928D01*
X133947484Y-79173846D01*
X133947355Y-79175400D01*
X131953538Y-79175400D01*
X131953575Y-79173884D01*
X131955924Y-79126053D01*
X131960999Y-79022738D01*
X131971164Y-78828788D01*
X131971744Y-78822994D01*
X131996859Y-78653680D01*
X132024717Y-78477796D01*
X132025801Y-78472483D01*
X132068210Y-78303176D01*
X132113529Y-78134044D01*
X132115013Y-78129291D01*
X132174338Y-77963489D01*
X132236668Y-77801117D01*
X132238492Y-77796855D01*
X132238493Y-77796853D01*
X132314145Y-77636899D01*
X132392877Y-77482382D01*
X132394915Y-77478699D01*
X132486192Y-77326413D01*
X132580560Y-77181101D01*
X132582724Y-77177986D01*
X132688718Y-77035070D01*
X132797785Y-76900383D01*
X132799970Y-76897834D01*
X132918703Y-76766833D01*
X132920717Y-76764718D01*
X133042318Y-76643117D01*
X133044433Y-76641103D01*
X133175434Y-76522370D01*
X133177983Y-76520185D01*
X133312656Y-76411128D01*
X133455586Y-76305124D01*
X133458701Y-76302960D01*
X133604013Y-76208592D01*
X133756299Y-76117315D01*
X133759982Y-76115277D01*
X133914499Y-76036545D01*
X134074462Y-75960888D01*
X134078717Y-75959068D01*
X134241089Y-75896738D01*
X134406891Y-75837413D01*
X134411644Y-75835929D01*
X134580776Y-75790610D01*
X134750083Y-75748201D01*
X134755396Y-75747117D01*
X134931287Y-75719258D01*
X135100594Y-75694144D01*
X135106387Y-75693564D01*
X135300695Y-75683382D01*
X135392270Y-75678883D01*
X135451446Y-75675977D01*
X135454488Y-75675902D01*
X135504845Y-75675902D01*
X135504864Y-75675900D01*
X158423512Y-75675900D01*
X158426554Y-75675975D01*
G37*
%TD.AperFunction*%
%TA.AperFunction,Conductor*%
G36*
X138930506Y-115482352D02*
G01*
X138986438Y-115524223D01*
X139000453Y-115542945D01*
X139000454Y-115542946D01*
X139000455Y-115542947D01*
X139115664Y-115629193D01*
X139115671Y-115629197D01*
X139250517Y-115679491D01*
X139250516Y-115679491D01*
X139257444Y-115680235D01*
X139310127Y-115685900D01*
X141027191Y-115685899D01*
X141094230Y-115705584D01*
X141114872Y-115722218D01*
X141736181Y-116343526D01*
X141769666Y-116404849D01*
X141772500Y-116431207D01*
X141772500Y-116692016D01*
X141774423Y-116713178D01*
X141778913Y-116762592D01*
X141778913Y-116762594D01*
X141778914Y-116762596D01*
X141829522Y-116925006D01*
X141907478Y-117053961D01*
X141917530Y-117070588D01*
X142020015Y-117173073D01*
X142053500Y-117234396D01*
X142048516Y-117304088D01*
X142020015Y-117348435D01*
X141917928Y-117450521D01*
X141917927Y-117450522D01*
X141829980Y-117596004D01*
X141800884Y-117689378D01*
X141762147Y-117747526D01*
X141698121Y-117775500D01*
X141629136Y-117764418D01*
X141577093Y-117717800D01*
X141558499Y-117652488D01*
X141558499Y-117637529D01*
X141558498Y-117637523D01*
X141552091Y-117577916D01*
X141501797Y-117443071D01*
X141501793Y-117443064D01*
X141415547Y-117327855D01*
X141415544Y-117327852D01*
X141300335Y-117241606D01*
X141300328Y-117241602D01*
X141165482Y-117191308D01*
X141165483Y-117191308D01*
X141105883Y-117184901D01*
X141105881Y-117184900D01*
X141105873Y-117184900D01*
X141105864Y-117184900D01*
X139310129Y-117184900D01*
X139310123Y-117184901D01*
X139250516Y-117191308D01*
X139115671Y-117241602D01*
X139115664Y-117241606D01*
X139000455Y-117327852D01*
X139000452Y-117327855D01*
X138914206Y-117443064D01*
X138914203Y-117443070D01*
X138914137Y-117443248D01*
X138914023Y-117443399D01*
X138909953Y-117450854D01*
X138908881Y-117450268D01*
X138872264Y-117499180D01*
X138806799Y-117523595D01*
X138738526Y-117508742D01*
X138692418Y-117465009D01*
X138617573Y-117343668D01*
X138608339Y-117334434D01*
X138574854Y-117273111D01*
X138579838Y-117203419D01*
X138608343Y-117159068D01*
X138617968Y-117149444D01*
X138707003Y-117005097D01*
X138760349Y-116844108D01*
X138770500Y-116744745D01*
X138770499Y-116198056D01*
X138768593Y-116179401D01*
X138760349Y-116098692D01*
X138760348Y-116098689D01*
X138707003Y-115937703D01*
X138706999Y-115937697D01*
X138706998Y-115937694D01*
X138630917Y-115814348D01*
X138612476Y-115746956D01*
X138633398Y-115680292D01*
X138648769Y-115661575D01*
X138799493Y-115510851D01*
X138860814Y-115477368D01*
X138930506Y-115482352D01*
G37*
%TD.AperFunction*%
%TA.AperFunction,Conductor*%
G36*
X149851539Y-116459085D02*
G01*
X149897294Y-116511889D01*
X149908500Y-116563400D01*
X149908500Y-116815400D01*
X149888815Y-116882439D01*
X149836011Y-116928194D01*
X149784500Y-116939400D01*
X148763000Y-116939400D01*
X148695961Y-116919715D01*
X148650206Y-116866911D01*
X148639000Y-116815400D01*
X148639000Y-116563400D01*
X148658685Y-116496361D01*
X148711489Y-116450606D01*
X148763000Y-116439400D01*
X149784500Y-116439400D01*
X149851539Y-116459085D01*
G37*
%TD.AperFunction*%
%TA.AperFunction,Conductor*%
G36*
X151759334Y-97969672D02*
G01*
X151803681Y-97998173D01*
X151808455Y-98002947D01*
X151923664Y-98089193D01*
X151923671Y-98089197D01*
X151968618Y-98105960D01*
X152058517Y-98139491D01*
X152118127Y-98145900D01*
X152173191Y-98145899D01*
X152240229Y-98165582D01*
X152285984Y-98218386D01*
X152295929Y-98287544D01*
X152266905Y-98351100D01*
X152260872Y-98357580D01*
X147692828Y-102925624D01*
X147631505Y-102959109D01*
X147561813Y-102954125D01*
X147505880Y-102912253D01*
X147488965Y-102881275D01*
X147459798Y-102803073D01*
X147459793Y-102803064D01*
X147373547Y-102687855D01*
X147373544Y-102687852D01*
X147258335Y-102601606D01*
X147258328Y-102601602D01*
X147123482Y-102551308D01*
X147123483Y-102551308D01*
X147063883Y-102544901D01*
X147063881Y-102544900D01*
X147063873Y-102544900D01*
X147063864Y-102544900D01*
X143768129Y-102544900D01*
X143768123Y-102544901D01*
X143708516Y-102551308D01*
X143573671Y-102601602D01*
X143573664Y-102601606D01*
X143458455Y-102687852D01*
X143458452Y-102687855D01*
X143372206Y-102803064D01*
X143372202Y-102803071D01*
X143321908Y-102937917D01*
X143315501Y-102997516D01*
X143315500Y-102997535D01*
X143315500Y-106293270D01*
X143315501Y-106293276D01*
X143321908Y-106352883D01*
X143372202Y-106487728D01*
X143372206Y-106487735D01*
X143458452Y-106602944D01*
X143458455Y-106602947D01*
X143573664Y-106689193D01*
X143573671Y-106689197D01*
X143708517Y-106739491D01*
X143708516Y-106739491D01*
X143715444Y-106740235D01*
X143768127Y-106745900D01*
X146926500Y-106745899D01*
X146993539Y-106765584D01*
X147039294Y-106818388D01*
X147050500Y-106869899D01*
X147050500Y-110620900D01*
X147030815Y-110687939D01*
X146978011Y-110733694D01*
X146926500Y-110744900D01*
X146118129Y-110744900D01*
X146118123Y-110744901D01*
X146058516Y-110751308D01*
X145923671Y-110801602D01*
X145923664Y-110801606D01*
X145808455Y-110887852D01*
X145803681Y-110892627D01*
X145742358Y-110926112D01*
X145672666Y-110921128D01*
X145628319Y-110892627D01*
X145623544Y-110887852D01*
X145508335Y-110801606D01*
X145508328Y-110801602D01*
X145373482Y-110751308D01*
X145373483Y-110751308D01*
X145313883Y-110744901D01*
X145313881Y-110744900D01*
X145313873Y-110744900D01*
X145313864Y-110744900D01*
X144118129Y-110744900D01*
X144118123Y-110744901D01*
X144058516Y-110751308D01*
X143923671Y-110801602D01*
X143923664Y-110801606D01*
X143808455Y-110887852D01*
X143803681Y-110892627D01*
X143742358Y-110926112D01*
X143672666Y-110921128D01*
X143628319Y-110892627D01*
X143623544Y-110887852D01*
X143508335Y-110801606D01*
X143508328Y-110801602D01*
X143373482Y-110751308D01*
X143373483Y-110751308D01*
X143313883Y-110744901D01*
X143313881Y-110744900D01*
X143313873Y-110744900D01*
X143313864Y-110744900D01*
X142118129Y-110744900D01*
X142118123Y-110744901D01*
X142058516Y-110751308D01*
X141923671Y-110801602D01*
X141923664Y-110801606D01*
X141808455Y-110887852D01*
X141803681Y-110892627D01*
X141742358Y-110926112D01*
X141672666Y-110921128D01*
X141628319Y-110892627D01*
X141623544Y-110887852D01*
X141508335Y-110801606D01*
X141508328Y-110801602D01*
X141373482Y-110751308D01*
X141373483Y-110751308D01*
X141313883Y-110744901D01*
X141313881Y-110744900D01*
X141313873Y-110744900D01*
X141313865Y-110744900D01*
X140590500Y-110744900D01*
X140523461Y-110725215D01*
X140477706Y-110672411D01*
X140466500Y-110620900D01*
X140466500Y-102338207D01*
X140486185Y-102271168D01*
X140502814Y-102250531D01*
X144571127Y-98182217D01*
X144632450Y-98148733D01*
X144658808Y-98145899D01*
X145313871Y-98145899D01*
X145313872Y-98145899D01*
X145373483Y-98139491D01*
X145508331Y-98089196D01*
X145623546Y-98002946D01*
X145623548Y-98002942D01*
X145628319Y-97998173D01*
X145689642Y-97964688D01*
X145759334Y-97969672D01*
X145803681Y-97998173D01*
X145808455Y-98002947D01*
X145923664Y-98089193D01*
X145923671Y-98089197D01*
X146058517Y-98139491D01*
X146058516Y-98139491D01*
X146065444Y-98140235D01*
X146118127Y-98145900D01*
X147313872Y-98145899D01*
X147373483Y-98139491D01*
X147508331Y-98089196D01*
X147623546Y-98002946D01*
X147623548Y-98002942D01*
X147628319Y-97998173D01*
X147689642Y-97964688D01*
X147759334Y-97969672D01*
X147803681Y-97998173D01*
X147808455Y-98002947D01*
X147923664Y-98089193D01*
X147923671Y-98089197D01*
X148058517Y-98139491D01*
X148058516Y-98139491D01*
X148065444Y-98140235D01*
X148118127Y-98145900D01*
X149313872Y-98145899D01*
X149373483Y-98139491D01*
X149508331Y-98089196D01*
X149623546Y-98002946D01*
X149623548Y-98002942D01*
X149628319Y-97998173D01*
X149689642Y-97964688D01*
X149759334Y-97969672D01*
X149803681Y-97998173D01*
X149808455Y-98002947D01*
X149923664Y-98089193D01*
X149923671Y-98089197D01*
X150058517Y-98139491D01*
X150058516Y-98139491D01*
X150065444Y-98140235D01*
X150118127Y-98145900D01*
X151313872Y-98145899D01*
X151373483Y-98139491D01*
X151508331Y-98089196D01*
X151623546Y-98002946D01*
X151623548Y-98002942D01*
X151628319Y-97998173D01*
X151689642Y-97964688D01*
X151759334Y-97969672D01*
G37*
%TD.AperFunction*%
%TD*%
M02*
